G04 #@! TF.GenerationSoftware,KiCad,Pcbnew,8.0.7*
G04 #@! TF.CreationDate,2025-05-16T22:33:28-04:00*
G04 #@! TF.ProjectId,protovolt,70726f74-6f76-46f6-9c74-2e6b69636164,rev?*
G04 #@! TF.SameCoordinates,Original*
G04 #@! TF.FileFunction,Copper,L3,Inr*
G04 #@! TF.FilePolarity,Positive*
%FSLAX46Y46*%
G04 Gerber Fmt 4.6, Leading zero omitted, Abs format (unit mm)*
G04 Created by KiCad (PCBNEW 8.0.7) date 2025-05-16 22:33:28*
%MOMM*%
%LPD*%
G01*
G04 APERTURE LIST*
G04 #@! TA.AperFunction,ComponentPad*
%ADD10C,0.600000*%
G04 #@! TD*
G04 #@! TA.AperFunction,HeatsinkPad*
%ADD11C,0.500000*%
G04 #@! TD*
G04 #@! TA.AperFunction,ViaPad*
%ADD12C,0.600000*%
G04 #@! TD*
G04 #@! TA.AperFunction,ViaPad*
%ADD13C,0.300000*%
G04 #@! TD*
G04 #@! TA.AperFunction,ViaPad*
%ADD14C,0.500000*%
G04 #@! TD*
G04 #@! TA.AperFunction,Conductor*
%ADD15C,0.254000*%
G04 #@! TD*
G04 #@! TA.AperFunction,Conductor*
%ADD16C,0.200000*%
G04 #@! TD*
G04 APERTURE END LIST*
D10*
X210950000Y-117750000D03*
X210950000Y-116550000D03*
X210450000Y-118400000D03*
X210450000Y-117150000D03*
X210450000Y-115950000D03*
X209950000Y-117750000D03*
X209950000Y-116550000D03*
X209450000Y-118400000D03*
X209450000Y-117150000D03*
X209450000Y-115950000D03*
X208950000Y-117750000D03*
X208950000Y-116550000D03*
X208450000Y-118400000D03*
X208450000Y-117150000D03*
X208450000Y-115950000D03*
X207950000Y-117750000D03*
X207950000Y-116550000D03*
X167270000Y-121370000D03*
X167270000Y-122570000D03*
X167770000Y-120720000D03*
X167770000Y-121970000D03*
X167770000Y-123170000D03*
X168270000Y-121370000D03*
X168270000Y-122570000D03*
X168770000Y-120720000D03*
X168770000Y-121970000D03*
X168770000Y-123170000D03*
X169270000Y-121370000D03*
X169270000Y-122570000D03*
X169770000Y-121970000D03*
X169770000Y-123170000D03*
X170270000Y-122570000D03*
X166125000Y-129475000D03*
X166125000Y-130675000D03*
X166625000Y-128825000D03*
X166625000Y-130075000D03*
X166625000Y-131275000D03*
X167125000Y-129475000D03*
X167125000Y-130675000D03*
X167625000Y-128825000D03*
X167625000Y-130075000D03*
X167625000Y-131275000D03*
X168125000Y-129475000D03*
X168125000Y-130675000D03*
X168625000Y-128825000D03*
X168625000Y-130075000D03*
X168625000Y-131275000D03*
X169125000Y-129475000D03*
X169125000Y-130675000D03*
X175625000Y-129425000D03*
X175625000Y-130625000D03*
X176125000Y-128775000D03*
X176125000Y-130025000D03*
X176125000Y-131225000D03*
X176625000Y-129425000D03*
X176625000Y-130625000D03*
X177125000Y-128775000D03*
X177125000Y-130025000D03*
X177125000Y-131225000D03*
X177625000Y-129425000D03*
X177625000Y-130625000D03*
X178125000Y-128775000D03*
X178125000Y-130025000D03*
X178125000Y-131225000D03*
X178625000Y-129425000D03*
X178625000Y-130625000D03*
X177505000Y-122565000D03*
X177505000Y-121365000D03*
X177005000Y-123215000D03*
X177005000Y-121965000D03*
X177005000Y-120765000D03*
X176505000Y-122565000D03*
X176505000Y-121365000D03*
X176005000Y-123215000D03*
X176005000Y-121965000D03*
X176005000Y-120765000D03*
X175505000Y-122565000D03*
X175505000Y-121365000D03*
X175005000Y-123215000D03*
X175005000Y-121965000D03*
X175005000Y-120765000D03*
X174505000Y-122565000D03*
X174505000Y-121365000D03*
X175750000Y-115915000D03*
X176950000Y-115915000D03*
X175100000Y-115415000D03*
X176350000Y-115415000D03*
X177550000Y-115415000D03*
X175750000Y-114915000D03*
X176950000Y-114915000D03*
X175100000Y-114415000D03*
X176350000Y-114415000D03*
X177550000Y-114415000D03*
X175750000Y-113915000D03*
X176950000Y-113915000D03*
X175100000Y-113415000D03*
X176350000Y-113415000D03*
X177550000Y-113415000D03*
X175750000Y-112915000D03*
X176950000Y-112915000D03*
D11*
X174412500Y-103625000D03*
X173387500Y-103625000D03*
X172362500Y-103625000D03*
X171337500Y-103625000D03*
X170312500Y-103625000D03*
X174412500Y-104650000D03*
X173387500Y-104650000D03*
X172362500Y-104650000D03*
X171337500Y-104650000D03*
X170312500Y-104650000D03*
X174412500Y-105675000D03*
X173387500Y-105675000D03*
X172362500Y-105675000D03*
X171337500Y-105675000D03*
X170312500Y-105675000D03*
X174412500Y-106700000D03*
X173387500Y-106700000D03*
X172362500Y-106700000D03*
X171337500Y-106700000D03*
X170312500Y-106700000D03*
X174412500Y-107725000D03*
X173387500Y-107725000D03*
X172362500Y-107725000D03*
X171337500Y-107725000D03*
X170312500Y-107725000D03*
D10*
X167820000Y-115925000D03*
X169020000Y-115925000D03*
X167170000Y-115425000D03*
X168420000Y-115425000D03*
X169620000Y-115425000D03*
X167820000Y-114925000D03*
X169020000Y-114925000D03*
X167170000Y-114425000D03*
X168420000Y-114425000D03*
X169620000Y-114425000D03*
X167820000Y-113925000D03*
X169020000Y-113925000D03*
X167170000Y-113425000D03*
X168420000Y-113425000D03*
X169620000Y-113425000D03*
X167820000Y-112925000D03*
X169020000Y-112925000D03*
D12*
X195000000Y-135000000D03*
X219000000Y-121000000D03*
X185000000Y-123000000D03*
X188000000Y-124000000D03*
X220000000Y-97500000D03*
X200000000Y-130000000D03*
X185000000Y-97500000D03*
X193500000Y-109000000D03*
X140000000Y-100000000D03*
X138500000Y-122500000D03*
X147000000Y-121000000D03*
X155000000Y-97500000D03*
X189000000Y-123000000D03*
X224000000Y-123000000D03*
X235000000Y-125000000D03*
X187000000Y-124000000D03*
X223000000Y-123000000D03*
X141000000Y-121500000D03*
X234100000Y-121500000D03*
X192000000Y-121000000D03*
X230000000Y-124000000D03*
X235000000Y-130000000D03*
X175000000Y-111300000D03*
X155000000Y-110000000D03*
X140000000Y-97500000D03*
X230000000Y-130000000D03*
X140000000Y-110000000D03*
X180925000Y-123850000D03*
X227000000Y-123000000D03*
X165000000Y-97500000D03*
X186000000Y-125000000D03*
X158000000Y-122000000D03*
X226000000Y-123000000D03*
X164150000Y-123150000D03*
X233000000Y-125000000D03*
X183000000Y-124000000D03*
X201000000Y-109000000D03*
X223000000Y-121000000D03*
X180000000Y-97500000D03*
X180000000Y-124500000D03*
X141000000Y-127000000D03*
X149000000Y-121000000D03*
X145000000Y-130000000D03*
X215000000Y-110000000D03*
X196000000Y-123000000D03*
X196000000Y-122000000D03*
X229000000Y-123000000D03*
X221000000Y-121000000D03*
X226000000Y-125000000D03*
X228000000Y-124000000D03*
X150000000Y-100000000D03*
X182000000Y-124000000D03*
X231000000Y-121000000D03*
X188000000Y-125000000D03*
X150000000Y-130000000D03*
X228000000Y-125000000D03*
X190000000Y-97500000D03*
X218000000Y-121000000D03*
X153000000Y-121000000D03*
X205000000Y-130000000D03*
X150000000Y-97500000D03*
X210000000Y-110000000D03*
X151000000Y-121000000D03*
X185000000Y-124000000D03*
X210000000Y-125000000D03*
X227000000Y-125000000D03*
X158000000Y-123000000D03*
X164150000Y-121950000D03*
X215000000Y-135000000D03*
X150000000Y-110000000D03*
X141000000Y-123500000D03*
X193000000Y-121000000D03*
X159000000Y-122000000D03*
X155000000Y-121000000D03*
X230000000Y-135000000D03*
X200000000Y-125000000D03*
X138500000Y-123500000D03*
X180925000Y-121350000D03*
X155000000Y-100000000D03*
X192000000Y-122000000D03*
X184000000Y-124000000D03*
X215000000Y-130000000D03*
X164150000Y-120700000D03*
X143000000Y-127000000D03*
X191000000Y-123000000D03*
X155000000Y-135000000D03*
X175000000Y-97500000D03*
X205000000Y-97500000D03*
X200000000Y-135000000D03*
X235000000Y-97500000D03*
X143000000Y-125000000D03*
X180625000Y-123225000D03*
X190000000Y-135000000D03*
X225000000Y-135000000D03*
X163825000Y-123725000D03*
X154000000Y-121000000D03*
X186000000Y-123000000D03*
X180000000Y-109000000D03*
X200000000Y-97500000D03*
X180650000Y-124500000D03*
X225000000Y-125000000D03*
X229000000Y-125000000D03*
X205000000Y-135000000D03*
X233000000Y-127000000D03*
X239000000Y-125000000D03*
X140000000Y-135000000D03*
X183000000Y-123000000D03*
X196000000Y-121000000D03*
X153000000Y-122000000D03*
X230000000Y-123000000D03*
X220000000Y-110000000D03*
X155000000Y-130000000D03*
X138500000Y-121500000D03*
X225000000Y-124000000D03*
X220000000Y-130000000D03*
X145000000Y-97500000D03*
X170000000Y-97500000D03*
X227000000Y-124000000D03*
X220000000Y-121000000D03*
X145000000Y-100000000D03*
X197000000Y-121000000D03*
X184000000Y-125000000D03*
X224000000Y-122000000D03*
X186000000Y-124000000D03*
X159000000Y-121000000D03*
X139000000Y-125000000D03*
X210000000Y-135000000D03*
X195000000Y-121000000D03*
X215000000Y-97500000D03*
X226000000Y-124000000D03*
X186000000Y-109000000D03*
X180625000Y-120725000D03*
X222000000Y-121000000D03*
X154000000Y-122000000D03*
X187000000Y-125000000D03*
X190000000Y-125000000D03*
X234100000Y-122500000D03*
X210000000Y-97500000D03*
X163925000Y-121325000D03*
X235000000Y-110000000D03*
X159000000Y-123000000D03*
X141000000Y-125000000D03*
X185000000Y-125000000D03*
X197000000Y-123000000D03*
X189000000Y-109000000D03*
X183000000Y-125000000D03*
X190000000Y-130000000D03*
X140000000Y-130000000D03*
X189000000Y-125000000D03*
X195000000Y-109000000D03*
X235000000Y-100000000D03*
X158000000Y-121000000D03*
X237000000Y-125000000D03*
X224000000Y-121000000D03*
X218000000Y-123000000D03*
X219000000Y-123000000D03*
X183000000Y-109000000D03*
X219000000Y-122000000D03*
X205000000Y-125000000D03*
X156000000Y-121000000D03*
X235000000Y-105000000D03*
X141000000Y-122500000D03*
X230000000Y-100000000D03*
X185000000Y-135000000D03*
X197000000Y-122000000D03*
X184000000Y-123000000D03*
X230000000Y-125000000D03*
X228000000Y-123000000D03*
X229000000Y-124000000D03*
X235000000Y-135000000D03*
X145000000Y-121000000D03*
X235000000Y-127000000D03*
X163875000Y-124600000D03*
X230000000Y-105000000D03*
X195000000Y-130000000D03*
X164775000Y-121950000D03*
X218000000Y-122000000D03*
X137000000Y-125000000D03*
X225000000Y-130000000D03*
X160000000Y-135000000D03*
X145000000Y-135000000D03*
X157000000Y-121000000D03*
X234100000Y-123500000D03*
X164775000Y-120700000D03*
X180925000Y-122600000D03*
X139000000Y-127000000D03*
X194000000Y-121000000D03*
X195000000Y-97500000D03*
X236600000Y-123500000D03*
X182000000Y-125000000D03*
X185000000Y-130000000D03*
X150000000Y-135000000D03*
X237000000Y-127000000D03*
X160000000Y-97500000D03*
X163925000Y-122550000D03*
X180000000Y-121950000D03*
X145000000Y-110000000D03*
X215000000Y-125000000D03*
X187000000Y-123000000D03*
X225000000Y-123000000D03*
X225000000Y-110000000D03*
X225000000Y-97500000D03*
X236600000Y-122500000D03*
X220000000Y-135000000D03*
X184500000Y-109000000D03*
X188000000Y-123000000D03*
X160000000Y-130000000D03*
X223000000Y-122000000D03*
X192000000Y-109000000D03*
X187500000Y-109000000D03*
X198000000Y-109000000D03*
X239000000Y-127000000D03*
X230000000Y-97500000D03*
X153000000Y-123000000D03*
X189000000Y-124000000D03*
X180000000Y-123225000D03*
X230000000Y-110000000D03*
X191000000Y-122000000D03*
X191000000Y-121000000D03*
X137000000Y-127000000D03*
X210000000Y-130000000D03*
X180625000Y-121950000D03*
X154000000Y-123000000D03*
X192000000Y-123000000D03*
X182000000Y-123000000D03*
X236600000Y-121500000D03*
X190500000Y-109000000D03*
X225000000Y-100000000D03*
X147000000Y-119000000D03*
X158000000Y-119000000D03*
X153000000Y-117000000D03*
X143000000Y-113000000D03*
X165800000Y-113800000D03*
X165800000Y-115800000D03*
X147000000Y-113000000D03*
X145000000Y-115000000D03*
X154000000Y-118000000D03*
X163000000Y-117000000D03*
X143000000Y-115000000D03*
X151000000Y-113000000D03*
X165800000Y-115100000D03*
X165800000Y-114450000D03*
X161000000Y-115000000D03*
X159000000Y-118000000D03*
D13*
X180900000Y-101450000D03*
D12*
X139000000Y-113000000D03*
X161000000Y-119000000D03*
X165800000Y-113150000D03*
X155000000Y-119000000D03*
X155000000Y-113000000D03*
X147000000Y-115000000D03*
X141000000Y-117500000D03*
X156000000Y-119000000D03*
X149000000Y-113000000D03*
X163000000Y-113000000D03*
X139000000Y-115000000D03*
X158000000Y-117000000D03*
X153000000Y-119000000D03*
X138500000Y-117500000D03*
X149000000Y-119000000D03*
X154000000Y-119000000D03*
X138500000Y-118500000D03*
X137000000Y-113000000D03*
X161000000Y-117000000D03*
X153000000Y-113000000D03*
X159000000Y-119000000D03*
D13*
X177225000Y-105625000D03*
D12*
X137000000Y-115000000D03*
X165800000Y-112500000D03*
X141000000Y-113000000D03*
X138500000Y-116500000D03*
X145000000Y-113000000D03*
X151000000Y-119000000D03*
X141000000Y-115000000D03*
X163000000Y-115000000D03*
X145000000Y-119000000D03*
X149000000Y-115000000D03*
X158000000Y-118000000D03*
X159000000Y-117000000D03*
X153000000Y-118000000D03*
X151000000Y-115000000D03*
X154000000Y-117000000D03*
X141000000Y-118500000D03*
X157000000Y-119000000D03*
X141000000Y-116500000D03*
X236600000Y-118500000D03*
X226000000Y-117000000D03*
X219000000Y-117000000D03*
X223000000Y-117000000D03*
X223000000Y-113000000D03*
X230000000Y-116000000D03*
X228000000Y-115000000D03*
X233000000Y-113000000D03*
X214375000Y-116525000D03*
X227000000Y-116000000D03*
X227000000Y-115000000D03*
X234100000Y-118500000D03*
X217000000Y-115000000D03*
X231000000Y-119000000D03*
X222000000Y-119000000D03*
X217000000Y-113000000D03*
X233000000Y-115000000D03*
X228000000Y-117000000D03*
X219000000Y-118000000D03*
X221000000Y-113000000D03*
X228000000Y-116000000D03*
X229000000Y-115000000D03*
X225000000Y-115000000D03*
X227000000Y-117000000D03*
X236600000Y-117500000D03*
X218000000Y-119000000D03*
X212925000Y-118400000D03*
X235000000Y-115000000D03*
X226000000Y-115000000D03*
X214375000Y-118400000D03*
X220000000Y-119000000D03*
X219000000Y-119000000D03*
D13*
X200000000Y-104300000D03*
D12*
X215000000Y-113000000D03*
X214375000Y-117775000D03*
X236600000Y-116500000D03*
X223000000Y-119000000D03*
X224000000Y-117000000D03*
X221000000Y-119000000D03*
X224000000Y-118000000D03*
X235000000Y-113000000D03*
X231000000Y-113000000D03*
X237000000Y-115000000D03*
X225000000Y-116000000D03*
X230000000Y-117000000D03*
X234100000Y-116500000D03*
X225000000Y-113000000D03*
X226000000Y-116000000D03*
X223000000Y-118000000D03*
X218000000Y-118000000D03*
X229000000Y-116000000D03*
X237000000Y-113000000D03*
X230000000Y-115000000D03*
X218000000Y-117000000D03*
X219000000Y-113000000D03*
X229000000Y-113000000D03*
X225000000Y-117000000D03*
X213775000Y-117150000D03*
X227000000Y-113000000D03*
X212925000Y-117150000D03*
X224000000Y-119000000D03*
X234100000Y-117500000D03*
X214375000Y-117150000D03*
X213775000Y-118400000D03*
X229000000Y-117000000D03*
X214375000Y-119050000D03*
D13*
X238900000Y-119600000D03*
X166250000Y-104800000D03*
D12*
X157550000Y-102150000D03*
D13*
X168150000Y-99910131D03*
D12*
X139450000Y-101450000D03*
D13*
X174112500Y-109200000D03*
D12*
X176000000Y-127000000D03*
X175000000Y-134000000D03*
X176350000Y-118450000D03*
X178750000Y-120650000D03*
X174750000Y-119200000D03*
X175100000Y-118450000D03*
X178000000Y-133000000D03*
X177000000Y-134000000D03*
X178750000Y-120000000D03*
X175000000Y-133000000D03*
X177000000Y-133000000D03*
X178000000Y-125000000D03*
X176000000Y-126000000D03*
X178000000Y-134000000D03*
X176700000Y-119200000D03*
X177350000Y-119207849D03*
X178750000Y-121950000D03*
X177000000Y-125000000D03*
X175000000Y-125000000D03*
X178750000Y-122600000D03*
X176000000Y-125000000D03*
X176050000Y-119200000D03*
X178000000Y-127000000D03*
X175000000Y-127000000D03*
X178750000Y-123900000D03*
X176000000Y-133000000D03*
X177000000Y-127000000D03*
X178750000Y-121300000D03*
X175000000Y-126000000D03*
X176000000Y-134000000D03*
D13*
X179000000Y-108000000D03*
D12*
X178750000Y-123250000D03*
X178000000Y-126000000D03*
X174100000Y-119200000D03*
X177000000Y-126000000D03*
X175400000Y-119200000D03*
D13*
X174112500Y-102150000D03*
D12*
X153450000Y-101450000D03*
X211900000Y-101500000D03*
D13*
X194761706Y-103548996D03*
X195400000Y-103300000D03*
D12*
X215000000Y-104000000D03*
X142750000Y-104000000D03*
D13*
X171635501Y-102226131D03*
D12*
X222000000Y-104000000D03*
D13*
X196900000Y-105900000D03*
X197700000Y-104000000D03*
D12*
X218700000Y-101500000D03*
D13*
X197900000Y-105400000D03*
D12*
X218900000Y-106500000D03*
D13*
X173612500Y-102162500D03*
D12*
X160850000Y-104000000D03*
X146450000Y-101450000D03*
D13*
X172124052Y-101996763D03*
D12*
X149750000Y-104000000D03*
D13*
X172612500Y-102200000D03*
X173112500Y-102200000D03*
D12*
X156750000Y-104000000D03*
D13*
X175850000Y-104425000D03*
X191200000Y-104000000D03*
X175662710Y-105937290D03*
D12*
X212400000Y-113200000D03*
X173225000Y-118425000D03*
D13*
X171425000Y-109775000D03*
D12*
X164200000Y-126250000D03*
D13*
X173125000Y-109375000D03*
X175850000Y-107425000D03*
D12*
X179650000Y-117115000D03*
D13*
X174900000Y-108600000D03*
D12*
X180600000Y-117115000D03*
X197000000Y-117000000D03*
X187000000Y-116000000D03*
X200000000Y-119000000D03*
X183000000Y-116000000D03*
X179000000Y-112550000D03*
X191000000Y-118000000D03*
X182000000Y-116000000D03*
X195000000Y-119000000D03*
D13*
X202700000Y-118000000D03*
D12*
X189000000Y-115000000D03*
X182000000Y-115000000D03*
X192000000Y-119000000D03*
X199000000Y-113000000D03*
X188000000Y-116000000D03*
X186000000Y-116000000D03*
X193000000Y-113000000D03*
X173800000Y-115150000D03*
D13*
X166825000Y-108050000D03*
D12*
X196000000Y-118000000D03*
X186000000Y-117000000D03*
X187000000Y-115000000D03*
X196000000Y-117000000D03*
X189000000Y-116000000D03*
X188000000Y-115000000D03*
X181000000Y-115000000D03*
X200000000Y-117000000D03*
X187000000Y-117000000D03*
X208043732Y-103100000D03*
X201000000Y-113000000D03*
X173800000Y-114500000D03*
X195000000Y-113000000D03*
X182000000Y-119000000D03*
X186000000Y-115000000D03*
X173800000Y-113200000D03*
X192000000Y-118000000D03*
X183000000Y-115000000D03*
X181000000Y-116000000D03*
X184000000Y-115000000D03*
X199400000Y-117000000D03*
X193000000Y-119000000D03*
X184000000Y-117000000D03*
X184000000Y-116000000D03*
X183000000Y-117000000D03*
X191000000Y-119000000D03*
X179000000Y-113200000D03*
X196000000Y-119000000D03*
X200000000Y-118000000D03*
X197000000Y-113000000D03*
X199400000Y-118000000D03*
X173800000Y-112550000D03*
X189000000Y-117000000D03*
X199000000Y-115000000D03*
X185000000Y-115000000D03*
X173800000Y-113850000D03*
X197000000Y-119000000D03*
X201000000Y-115000000D03*
X191000000Y-117000000D03*
X192000000Y-117000000D03*
X199400000Y-119000000D03*
X185000000Y-117000000D03*
X194000000Y-119000000D03*
X185000000Y-116000000D03*
X182000000Y-117000000D03*
X161700000Y-111100000D03*
X179000000Y-113850000D03*
X197000000Y-118000000D03*
X188000000Y-117000000D03*
X180000000Y-115000000D03*
D13*
X203050000Y-118700000D03*
D14*
X171900000Y-122500000D03*
D12*
X173100000Y-121000000D03*
X165900000Y-119200000D03*
X169650000Y-117700000D03*
X172400000Y-119900000D03*
D14*
X165727000Y-111352413D03*
D12*
X167775000Y-119200000D03*
X165900000Y-117700000D03*
X169025000Y-119200000D03*
X166000000Y-123250000D03*
X169650000Y-119200000D03*
X166000000Y-121950000D03*
D13*
X172000000Y-111300000D03*
D12*
X168400000Y-119200000D03*
X166000000Y-122600000D03*
X166525000Y-119200000D03*
X173100000Y-119900000D03*
X166000000Y-120650000D03*
X166000000Y-123900000D03*
X168400000Y-117700000D03*
X167150000Y-119200000D03*
X167150000Y-117700000D03*
X166000000Y-120000000D03*
X166000000Y-121300000D03*
X171700000Y-119900000D03*
X173100000Y-124000000D03*
X172000000Y-130000000D03*
X171000000Y-127000000D03*
X170000000Y-134000000D03*
X169000000Y-133000000D03*
X172400000Y-124000000D03*
X169000000Y-127000000D03*
X172000000Y-133000000D03*
X170000000Y-133000000D03*
X171700000Y-125200000D03*
X170000000Y-127000000D03*
X171000000Y-131000000D03*
X171700000Y-124000000D03*
X167000000Y-126000000D03*
D14*
X165738211Y-110652500D03*
D12*
X168000000Y-126000000D03*
X171000000Y-129000000D03*
X170000000Y-126000000D03*
X167000000Y-134000000D03*
X172000000Y-129000000D03*
X171000000Y-130000000D03*
X171000000Y-126000000D03*
X172000000Y-126000000D03*
X172000000Y-134000000D03*
D14*
X172850000Y-122500000D03*
D12*
X169000000Y-134000000D03*
X171000000Y-133000000D03*
X167000000Y-133000000D03*
X168000000Y-127000000D03*
X172400000Y-125200000D03*
X169000000Y-126000000D03*
X172000000Y-127000000D03*
X171000000Y-134000000D03*
X168000000Y-133000000D03*
X167000000Y-127000000D03*
X173100000Y-125200000D03*
X168000000Y-134000000D03*
X172000000Y-131000000D03*
X206000000Y-118000000D03*
X206000000Y-117000000D03*
X206600000Y-119000000D03*
X210000000Y-113000000D03*
X204400000Y-113000000D03*
X206600000Y-117000000D03*
X206000000Y-119000000D03*
X204400000Y-115000000D03*
X161700000Y-109500000D03*
D13*
X203325000Y-118000000D03*
D12*
X206600000Y-118000000D03*
X206000000Y-115000000D03*
X208000000Y-113000000D03*
X206000000Y-113000000D03*
X208043732Y-103950000D03*
D15*
X239400000Y-119500000D02*
X239400000Y-111600000D01*
X239300000Y-111500000D02*
X207200000Y-111500000D01*
X238900000Y-119600000D02*
X239300000Y-119600000D01*
X239300000Y-119600000D02*
X239400000Y-119500000D01*
X239400000Y-111600000D02*
X239300000Y-111500000D01*
X207200000Y-111500000D02*
X200000000Y-104300000D01*
X196900000Y-105700000D02*
X196900000Y-105900000D01*
X203039633Y-106023000D02*
X200385633Y-103369000D01*
X199231000Y-103369000D02*
X196900000Y-105700000D01*
X217177000Y-106023000D02*
X203039633Y-106023000D01*
X200385633Y-103369000D02*
X199231000Y-103369000D01*
X219200000Y-104000000D02*
X217177000Y-106023000D01*
X222000000Y-104000000D02*
X219200000Y-104000000D01*
X151069330Y-106550000D02*
X146450000Y-101930670D01*
X155950000Y-106550000D02*
X151069330Y-106550000D01*
X160750869Y-101749131D02*
X155950000Y-106550000D01*
X172124052Y-101996763D02*
X171876420Y-101749131D01*
X171876420Y-101749131D02*
X160750869Y-101749131D01*
X146450000Y-101930670D02*
X146450000Y-101450000D01*
X151846000Y-106096000D02*
X149750000Y-104000000D01*
X172612500Y-101810631D02*
X172097000Y-101295131D01*
X155626296Y-106096000D02*
X151846000Y-106096000D01*
X172612500Y-102200000D02*
X172612500Y-101810631D01*
X172097000Y-101295131D02*
X160427165Y-101295131D01*
X160427165Y-101295131D02*
X155626296Y-106096000D01*
X145754000Y-107004000D02*
X142750000Y-104000000D01*
X156296000Y-107004000D02*
X145754000Y-107004000D01*
X161073869Y-102226131D02*
X156296000Y-107004000D01*
X171635501Y-102226131D02*
X161073869Y-102226131D01*
X195900000Y-102200000D02*
X213200000Y-102200000D01*
X213200000Y-102200000D02*
X215000000Y-104000000D01*
X195400000Y-102700000D02*
X195900000Y-102200000D01*
X195400000Y-103300000D02*
X195400000Y-102700000D01*
X167125000Y-108350000D02*
X166825000Y-108050000D01*
X173975420Y-108350000D02*
X167125000Y-108350000D01*
X174702420Y-109077000D02*
X173975420Y-108350000D01*
X178597580Y-109077000D02*
X174702420Y-109077000D01*
X203664501Y-110364501D02*
X201650000Y-108350000D01*
X203664501Y-117336466D02*
X203664501Y-110364501D01*
X203882224Y-118267776D02*
X203882224Y-117554189D01*
X201650000Y-108350000D02*
X179324580Y-108350000D01*
X203450000Y-118700000D02*
X203882224Y-118267776D01*
X203050000Y-118700000D02*
X203450000Y-118700000D01*
X203882224Y-117554189D02*
X203664501Y-117336466D01*
X179324580Y-108350000D02*
X178597580Y-109077000D01*
X202874580Y-106500000D02*
X218900000Y-106500000D01*
X200482000Y-104107420D02*
X202874580Y-106500000D01*
X200482000Y-104100349D02*
X200482000Y-104107420D01*
X199477000Y-103823000D02*
X199795349Y-103823000D01*
X199795349Y-103823000D02*
X199800349Y-103818000D01*
X197900000Y-105400000D02*
X199477000Y-103823000D01*
X199800349Y-103818000D02*
X200199651Y-103818000D01*
X200199651Y-103818000D02*
X200482000Y-104100349D01*
X216731000Y-105569000D02*
X218700000Y-103600000D01*
X200573686Y-102915000D02*
X203227686Y-105569000D01*
X198785000Y-102915000D02*
X200573686Y-102915000D01*
X197700000Y-104000000D02*
X198785000Y-102915000D01*
X203227686Y-105569000D02*
X216731000Y-105569000D01*
X218700000Y-103600000D02*
X218700000Y-101500000D01*
X194761706Y-102450241D02*
X195711947Y-101500000D01*
X195711947Y-101500000D02*
X211900000Y-101500000D01*
X194761706Y-103548996D02*
X194761706Y-102450241D01*
D16*
X171400000Y-112700000D02*
X171400000Y-118200000D01*
X172800000Y-111300000D02*
X171400000Y-112700000D01*
X172500000Y-119300000D02*
X173348529Y-119300000D01*
X173348529Y-119300000D02*
X173800000Y-119751471D01*
X175000000Y-111300000D02*
X172800000Y-111300000D01*
X171400000Y-118200000D02*
X172500000Y-119300000D01*
X173800000Y-119751471D02*
X173800000Y-120500000D01*
D15*
X172511711Y-100387131D02*
X174112500Y-101987920D01*
X174112500Y-101987920D02*
X174112500Y-102150000D01*
X153450000Y-101450000D02*
X158690475Y-101450000D01*
X158690475Y-101450000D02*
X159753344Y-100387131D01*
X159753344Y-100387131D02*
X172511711Y-100387131D01*
X173112500Y-101629972D02*
X173112500Y-102200000D01*
X156782527Y-104000000D02*
X159941396Y-100841131D01*
X156750000Y-104000000D02*
X156782527Y-104000000D01*
X159941396Y-100841131D02*
X172323659Y-100841131D01*
X172323659Y-100841131D02*
X173112500Y-101629972D01*
X191200000Y-104000000D02*
X190775000Y-104425000D01*
X190775000Y-104425000D02*
X175850000Y-104425000D01*
D16*
X201384314Y-110400000D02*
X174112493Y-110400000D01*
X202700000Y-118000000D02*
X202787499Y-117912501D01*
X171052215Y-110674980D02*
X170479735Y-110102500D01*
D15*
X202700000Y-118000000D02*
X202760500Y-117939500D01*
D16*
X202787499Y-111803185D02*
X201384314Y-110400000D01*
X172072765Y-110400000D02*
X171797785Y-110674980D01*
X173714653Y-110797840D02*
X173512493Y-110797840D01*
X171797785Y-110674980D02*
X171052215Y-110674980D01*
X173114653Y-110400000D02*
X172912493Y-110400000D01*
X172912493Y-110400000D02*
X172461125Y-110400000D01*
X162100000Y-110400000D02*
X161700000Y-110800000D01*
X165395441Y-110102500D02*
X165097941Y-110400000D01*
X170479735Y-110102500D02*
X165395441Y-110102500D01*
X161700000Y-110800000D02*
X161700000Y-111100000D01*
X202787499Y-117912501D02*
X202787499Y-111803185D01*
X172461125Y-110400000D02*
X172072765Y-110400000D01*
X165097941Y-110400000D02*
X162100000Y-110400000D01*
X174112493Y-110400000D02*
G75*
G03*
X173913600Y-110598920I7J-198900D01*
G01*
X173512493Y-110797840D02*
G75*
G02*
X173313560Y-110598920I7J198940D01*
G01*
X173913573Y-110598920D02*
G75*
G02*
X173714653Y-110797773I-198873J20D01*
G01*
X173313573Y-110598920D02*
G75*
G03*
X173114653Y-110400027I-198873J20D01*
G01*
X168330643Y-111221852D02*
X168210643Y-111221852D01*
X169921852Y-111221852D02*
X169410643Y-111221852D01*
X172149999Y-121834896D02*
X170600000Y-120284897D01*
X167130643Y-111221852D02*
X167010643Y-111221852D01*
X165816116Y-111352413D02*
X165727000Y-111352413D01*
X167010643Y-111221852D02*
X165857561Y-111221852D01*
X165857561Y-111221852D02*
X165727000Y-111352413D01*
X168570643Y-111888760D02*
X168570643Y-111461852D01*
X170600000Y-120284897D02*
X170600000Y-111900000D01*
X172149999Y-122250001D02*
X172149999Y-121834896D01*
X170600000Y-111900000D02*
X169921852Y-111221852D01*
X168930643Y-112128760D02*
X168810643Y-112128760D01*
X169170643Y-111461852D02*
X169170643Y-111888760D01*
X167730643Y-112128785D02*
X167610643Y-112128785D01*
X171900000Y-122500000D02*
X172149999Y-122250001D01*
X167970643Y-111461852D02*
X167970643Y-111888785D01*
X167370643Y-111888785D02*
X167370643Y-111461852D01*
X168810643Y-112128760D02*
G75*
G02*
X168570640Y-111888760I-43J239960D01*
G01*
X167610643Y-112128785D02*
G75*
G02*
X167370615Y-111888785I-43J239985D01*
G01*
X168210643Y-111221852D02*
G75*
G03*
X167970552Y-111461852I-43J-240048D01*
G01*
X169410643Y-111221852D02*
G75*
G03*
X169170552Y-111461852I-43J-240048D01*
G01*
X168570643Y-111461852D02*
G75*
G03*
X168330643Y-111221857I-240043J-48D01*
G01*
X167970643Y-111888785D02*
G75*
G02*
X167730643Y-112128843I-240043J-15D01*
G01*
X169170643Y-111888760D02*
G75*
G02*
X168930643Y-112128843I-240043J-40D01*
G01*
X167370643Y-111461852D02*
G75*
G03*
X167130643Y-111221857I-240043J-48D01*
G01*
X171000000Y-120048529D02*
X171000000Y-111650000D01*
X172850000Y-122500000D02*
X172600001Y-122250001D01*
X171000000Y-111650000D02*
X170121850Y-110771850D01*
X172600001Y-122250001D02*
X172600001Y-121648530D01*
X165857561Y-110771850D02*
X165738211Y-110652500D01*
X170121850Y-110771850D02*
X165857561Y-110771850D01*
X172600001Y-121648530D02*
X171000000Y-120048529D01*
X170666123Y-109652520D02*
X171238603Y-110225000D01*
X162100000Y-109950000D02*
X164982255Y-109950000D01*
X171886397Y-109950000D02*
X201500000Y-109950000D01*
X201500000Y-109950000D02*
X203237501Y-111687501D01*
X203237501Y-111687501D02*
X203237501Y-117912501D01*
X161700000Y-109550000D02*
X162100000Y-109950000D01*
X161700000Y-109500000D02*
X161700000Y-109550000D01*
X171611397Y-110225000D02*
X171886397Y-109950000D01*
X171238603Y-110225000D02*
X171611397Y-110225000D01*
X164982255Y-109950000D02*
X165279735Y-109652520D01*
D15*
X203325000Y-118000000D02*
X203264500Y-117939500D01*
D16*
X165279735Y-109652520D02*
X170666123Y-109652520D01*
X203237501Y-117912501D02*
X203325000Y-118000000D01*
D15*
X162169869Y-102680131D02*
X160850000Y-104000000D01*
X173612500Y-102374580D02*
X173215115Y-102771965D01*
X173612500Y-102162500D02*
X173612500Y-102374580D01*
X173215115Y-102771965D02*
X171506755Y-102771965D01*
X171506755Y-102771965D02*
X171414921Y-102680131D01*
X171414921Y-102680131D02*
X162169869Y-102680131D01*
G04 #@! TA.AperFunction,Conductor*
G36*
X167026925Y-111919685D02*
G01*
X167072680Y-111972489D01*
X167080777Y-111996408D01*
X167097215Y-112068435D01*
X167097216Y-112068437D01*
X167150067Y-112178182D01*
X167150072Y-112178191D01*
X167226018Y-112273415D01*
X167226021Y-112273418D01*
X167226024Y-112273421D01*
X167321268Y-112349364D01*
X167321269Y-112349364D01*
X167321270Y-112349365D01*
X167321271Y-112349366D01*
X167360473Y-112368239D01*
X167431025Y-112402206D01*
X167549789Y-112429295D01*
X167610697Y-112429285D01*
X167673389Y-112429285D01*
X167673529Y-112429295D01*
X167679249Y-112429294D01*
X167679446Y-112429351D01*
X167730697Y-112429342D01*
X167730697Y-112429343D01*
X167791597Y-112429332D01*
X167910339Y-112402210D01*
X168020069Y-112349347D01*
X168115286Y-112273393D01*
X168115287Y-112273391D01*
X168115289Y-112273390D01*
X168173696Y-112200133D01*
X168230880Y-112159985D01*
X168300691Y-112157127D01*
X168360965Y-112192466D01*
X168367593Y-112200114D01*
X168426021Y-112273384D01*
X168521264Y-112349332D01*
X168631022Y-112402178D01*
X168749788Y-112429270D01*
X168810697Y-112429260D01*
X168873389Y-112429260D01*
X168873529Y-112429270D01*
X168879224Y-112429269D01*
X168879506Y-112429351D01*
X168930697Y-112429342D01*
X168930697Y-112429343D01*
X168991601Y-112429332D01*
X169110350Y-112402206D01*
X169220086Y-112349336D01*
X169315306Y-112273373D01*
X169391236Y-112178127D01*
X169444068Y-112068373D01*
X169460476Y-111996425D01*
X169494575Y-111935443D01*
X169556231Y-111902575D01*
X169581372Y-111900000D01*
X170123667Y-111900000D01*
X170190706Y-111919685D01*
X170211348Y-111936319D01*
X170263181Y-111988152D01*
X170296666Y-112049475D01*
X170299500Y-112075833D01*
X170299500Y-117353063D01*
X170279815Y-117420102D01*
X170227011Y-117465857D01*
X170157853Y-117475801D01*
X170094297Y-117446776D01*
X170082017Y-117432609D01*
X170081185Y-117433330D01*
X170069723Y-117420102D01*
X169981128Y-117317857D01*
X169860053Y-117240047D01*
X169860051Y-117240046D01*
X169860049Y-117240045D01*
X169860050Y-117240045D01*
X169721963Y-117199500D01*
X169721961Y-117199500D01*
X169578039Y-117199500D01*
X169578036Y-117199500D01*
X169439949Y-117240045D01*
X169318873Y-117317856D01*
X169224623Y-117426626D01*
X169224622Y-117426628D01*
X169164834Y-117557543D01*
X169147738Y-117676456D01*
X169136986Y-117699999D01*
X169147738Y-117723543D01*
X169164834Y-117842456D01*
X169202164Y-117924196D01*
X169224623Y-117973373D01*
X169318872Y-118082143D01*
X169439947Y-118159953D01*
X169439950Y-118159954D01*
X169439949Y-118159954D01*
X169504465Y-118178897D01*
X169575515Y-118199759D01*
X169578036Y-118200499D01*
X169578038Y-118200500D01*
X169578039Y-118200500D01*
X169721962Y-118200500D01*
X169721962Y-118200499D01*
X169860053Y-118159953D01*
X169981128Y-118082143D01*
X170075377Y-117973373D01*
X170075378Y-117973371D01*
X170081185Y-117966670D01*
X170083818Y-117968952D01*
X170123974Y-117934148D01*
X170193131Y-117924196D01*
X170256690Y-117953212D01*
X170294473Y-118011986D01*
X170299500Y-118046936D01*
X170299500Y-118853063D01*
X170279815Y-118920102D01*
X170227011Y-118965857D01*
X170157853Y-118975801D01*
X170094297Y-118946776D01*
X170082017Y-118932609D01*
X170081185Y-118933330D01*
X170069723Y-118920102D01*
X169981128Y-118817857D01*
X169860053Y-118740047D01*
X169860051Y-118740046D01*
X169860049Y-118740045D01*
X169860050Y-118740045D01*
X169721963Y-118699500D01*
X169721961Y-118699500D01*
X169578039Y-118699500D01*
X169578036Y-118699500D01*
X169439950Y-118740045D01*
X169404537Y-118762803D01*
X169337497Y-118782486D01*
X169270463Y-118762803D01*
X169249308Y-118749208D01*
X169235053Y-118740047D01*
X169235051Y-118740046D01*
X169235049Y-118740045D01*
X169096963Y-118699500D01*
X169096961Y-118699500D01*
X168953039Y-118699500D01*
X168953036Y-118699500D01*
X168814950Y-118740045D01*
X168779537Y-118762803D01*
X168712497Y-118782486D01*
X168645463Y-118762803D01*
X168624308Y-118749208D01*
X168610053Y-118740047D01*
X168610051Y-118740046D01*
X168610049Y-118740045D01*
X168471963Y-118699500D01*
X168471961Y-118699500D01*
X168328039Y-118699500D01*
X168328036Y-118699500D01*
X168189950Y-118740045D01*
X168154537Y-118762803D01*
X168087497Y-118782486D01*
X168020463Y-118762803D01*
X167999308Y-118749208D01*
X167985053Y-118740047D01*
X167985051Y-118740046D01*
X167985049Y-118740045D01*
X167846963Y-118699500D01*
X167846961Y-118699500D01*
X167703039Y-118699500D01*
X167703036Y-118699500D01*
X167564950Y-118740045D01*
X167529537Y-118762803D01*
X167462497Y-118782486D01*
X167395463Y-118762803D01*
X167374308Y-118749208D01*
X167360053Y-118740047D01*
X167360051Y-118740046D01*
X167360049Y-118740045D01*
X167221963Y-118699500D01*
X167221961Y-118699500D01*
X167078039Y-118699500D01*
X167078036Y-118699500D01*
X166939950Y-118740045D01*
X166904537Y-118762803D01*
X166837497Y-118782486D01*
X166770463Y-118762803D01*
X166749308Y-118749208D01*
X166735053Y-118740047D01*
X166735051Y-118740046D01*
X166735049Y-118740045D01*
X166596963Y-118699500D01*
X166596961Y-118699500D01*
X166453039Y-118699500D01*
X166453036Y-118699500D01*
X166314950Y-118740045D01*
X166279537Y-118762803D01*
X166212497Y-118782486D01*
X166145463Y-118762803D01*
X166124308Y-118749208D01*
X166110053Y-118740047D01*
X166110051Y-118740046D01*
X166110049Y-118740045D01*
X165971963Y-118699500D01*
X165971961Y-118699500D01*
X165828039Y-118699500D01*
X165828036Y-118699500D01*
X165689949Y-118740045D01*
X165568873Y-118817856D01*
X165474623Y-118926626D01*
X165474622Y-118926628D01*
X165414834Y-119057543D01*
X165394353Y-119200000D01*
X165414834Y-119342456D01*
X165471562Y-119466670D01*
X165474623Y-119473373D01*
X165564701Y-119577329D01*
X165593725Y-119640883D01*
X165583781Y-119710041D01*
X165575303Y-119725568D01*
X165574624Y-119726624D01*
X165514834Y-119857543D01*
X165509644Y-119893647D01*
X165480619Y-119957203D01*
X165421841Y-119994977D01*
X165386906Y-120000000D01*
X136124500Y-120000000D01*
X136057461Y-119980315D01*
X136011706Y-119927511D01*
X136000500Y-119876000D01*
X136000500Y-117700000D01*
X165394353Y-117700000D01*
X165414834Y-117842456D01*
X165452164Y-117924196D01*
X165474623Y-117973373D01*
X165568872Y-118082143D01*
X165689947Y-118159953D01*
X165689950Y-118159954D01*
X165689949Y-118159954D01*
X165754465Y-118178897D01*
X165825515Y-118199759D01*
X165828036Y-118200499D01*
X165828038Y-118200500D01*
X165828039Y-118200500D01*
X165971962Y-118200500D01*
X165971962Y-118200499D01*
X166110053Y-118159953D01*
X166231128Y-118082143D01*
X166325377Y-117973373D01*
X166385165Y-117842457D01*
X166402262Y-117723542D01*
X166413014Y-117699999D01*
X166636986Y-117699999D01*
X166647738Y-117723543D01*
X166664834Y-117842456D01*
X166702164Y-117924196D01*
X166724623Y-117973373D01*
X166818872Y-118082143D01*
X166939947Y-118159953D01*
X166939950Y-118159954D01*
X166939949Y-118159954D01*
X167004465Y-118178897D01*
X167075515Y-118199759D01*
X167078036Y-118200499D01*
X167078038Y-118200500D01*
X167078039Y-118200500D01*
X167221962Y-118200500D01*
X167221962Y-118200499D01*
X167360053Y-118159953D01*
X167481128Y-118082143D01*
X167575377Y-117973373D01*
X167635165Y-117842457D01*
X167652262Y-117723542D01*
X167663014Y-117699999D01*
X167886986Y-117699999D01*
X167897738Y-117723543D01*
X167914834Y-117842456D01*
X167952164Y-117924196D01*
X167974623Y-117973373D01*
X168068872Y-118082143D01*
X168189947Y-118159953D01*
X168189950Y-118159954D01*
X168189949Y-118159954D01*
X168254465Y-118178897D01*
X168325515Y-118199759D01*
X168328036Y-118200499D01*
X168328038Y-118200500D01*
X168328039Y-118200500D01*
X168471962Y-118200500D01*
X168471962Y-118200499D01*
X168610053Y-118159953D01*
X168731128Y-118082143D01*
X168825377Y-117973373D01*
X168885165Y-117842457D01*
X168902262Y-117723542D01*
X168913014Y-117699999D01*
X168902262Y-117676456D01*
X168885165Y-117557543D01*
X168843293Y-117465857D01*
X168825377Y-117426627D01*
X168731128Y-117317857D01*
X168610053Y-117240047D01*
X168610051Y-117240046D01*
X168610049Y-117240045D01*
X168610050Y-117240045D01*
X168471963Y-117199500D01*
X168471961Y-117199500D01*
X168328039Y-117199500D01*
X168328036Y-117199500D01*
X168189949Y-117240045D01*
X168068873Y-117317856D01*
X167974623Y-117426626D01*
X167974622Y-117426628D01*
X167914834Y-117557543D01*
X167897738Y-117676456D01*
X167886986Y-117699999D01*
X167663014Y-117699999D01*
X167652262Y-117676456D01*
X167635165Y-117557543D01*
X167593293Y-117465857D01*
X167575377Y-117426627D01*
X167481128Y-117317857D01*
X167360053Y-117240047D01*
X167360051Y-117240046D01*
X167360049Y-117240045D01*
X167360050Y-117240045D01*
X167221963Y-117199500D01*
X167221961Y-117199500D01*
X167078039Y-117199500D01*
X167078036Y-117199500D01*
X166939949Y-117240045D01*
X166818873Y-117317856D01*
X166724623Y-117426626D01*
X166724622Y-117426628D01*
X166664834Y-117557543D01*
X166647738Y-117676456D01*
X166636986Y-117699999D01*
X166413014Y-117699999D01*
X166402262Y-117676456D01*
X166385165Y-117557543D01*
X166343293Y-117465857D01*
X166325377Y-117426627D01*
X166231128Y-117317857D01*
X166110053Y-117240047D01*
X166110051Y-117240046D01*
X166110049Y-117240045D01*
X166110050Y-117240045D01*
X165971963Y-117199500D01*
X165971961Y-117199500D01*
X165828039Y-117199500D01*
X165828036Y-117199500D01*
X165689949Y-117240045D01*
X165568873Y-117317856D01*
X165474623Y-117426626D01*
X165474622Y-117426628D01*
X165414834Y-117557543D01*
X165394353Y-117700000D01*
X136000500Y-117700000D01*
X136000500Y-112024000D01*
X136020185Y-111956961D01*
X136072989Y-111911206D01*
X136124500Y-111900000D01*
X166959886Y-111900000D01*
X167026925Y-111919685D01*
G37*
G04 #@! TD.AperFunction*
G04 #@! TA.AperFunction,Conductor*
G36*
X239043039Y-111919685D02*
G01*
X239088794Y-111972489D01*
X239100000Y-112024000D01*
X239100000Y-119876000D01*
X239080315Y-119943039D01*
X239027511Y-119988794D01*
X238976000Y-120000000D01*
X212729500Y-120000000D01*
X212662461Y-119980315D01*
X212616706Y-119927511D01*
X212605500Y-119876000D01*
X212605500Y-113814453D01*
X212605463Y-113813443D01*
X212604977Y-113799797D01*
X212603715Y-113782149D01*
X212599928Y-113767311D01*
X212602421Y-113697486D01*
X212642269Y-113640093D01*
X212653025Y-113632336D01*
X212731128Y-113582143D01*
X212825377Y-113473373D01*
X212885165Y-113342457D01*
X212905647Y-113200000D01*
X212885165Y-113057543D01*
X212825377Y-112926627D01*
X212731128Y-112817857D01*
X212731125Y-112817855D01*
X212731126Y-112817855D01*
X212652588Y-112767382D01*
X212606834Y-112714578D01*
X212596890Y-112645420D01*
X212596890Y-112645418D01*
X212597173Y-112643447D01*
X212597175Y-112643442D01*
X212605500Y-112585544D01*
X212605500Y-112024000D01*
X212625185Y-111956961D01*
X212677989Y-111911206D01*
X212729500Y-111900000D01*
X238976000Y-111900000D01*
X239043039Y-111919685D01*
G37*
G04 #@! TD.AperFunction*
G04 #@! TA.AperFunction,Conductor*
G36*
X212343039Y-111919685D02*
G01*
X212388794Y-111972489D01*
X212400000Y-112024000D01*
X212400000Y-112585544D01*
X212380315Y-112652583D01*
X212327511Y-112698338D01*
X212310935Y-112704521D01*
X212189949Y-112740045D01*
X212068873Y-112817856D01*
X211974623Y-112926626D01*
X211974622Y-112926628D01*
X211914834Y-113057543D01*
X211894353Y-113200000D01*
X211914834Y-113342456D01*
X211974622Y-113473371D01*
X211974623Y-113473373D01*
X212068872Y-113582143D01*
X212189947Y-113659953D01*
X212189950Y-113659954D01*
X212189949Y-113659954D01*
X212310934Y-113695478D01*
X212369713Y-113733252D01*
X212398738Y-113796807D01*
X212400000Y-113814455D01*
X212400000Y-119876000D01*
X212380315Y-119943039D01*
X212327511Y-119988794D01*
X212276000Y-120000000D01*
X203074000Y-120000000D01*
X203006961Y-119980315D01*
X202961206Y-119927511D01*
X202950000Y-119876000D01*
X202950000Y-119176613D01*
X202969685Y-119109574D01*
X203022489Y-119063819D01*
X203054603Y-119054140D01*
X203159657Y-119037501D01*
X203159659Y-119037500D01*
X203159661Y-119037500D01*
X203159662Y-119037499D01*
X203168940Y-119034485D01*
X203169737Y-119036939D01*
X203209057Y-119027500D01*
X203493114Y-119027500D01*
X203493116Y-119027500D01*
X203576410Y-119005181D01*
X203576411Y-119005180D01*
X203579976Y-119004225D01*
X203612070Y-119000000D01*
X204100000Y-119000000D01*
X204100000Y-118564517D01*
X204119685Y-118497478D01*
X204136319Y-118476836D01*
X204144289Y-118468866D01*
X204187405Y-118394186D01*
X204209724Y-118310892D01*
X204209724Y-118224660D01*
X204209724Y-117511073D01*
X204187405Y-117427779D01*
X204144289Y-117353099D01*
X204083314Y-117292124D01*
X204028320Y-117237130D01*
X203994835Y-117175807D01*
X203992001Y-117149449D01*
X203992001Y-112024000D01*
X204011686Y-111956961D01*
X204064490Y-111911206D01*
X204116001Y-111900000D01*
X212276000Y-111900000D01*
X212343039Y-111919685D01*
G37*
G04 #@! TD.AperFunction*
G04 #@! TA.AperFunction,Conductor*
G36*
X202453039Y-111919685D02*
G01*
X202498794Y-111972489D01*
X202510000Y-112024000D01*
X202510000Y-117426000D01*
X202490315Y-117493039D01*
X202437511Y-117538794D01*
X202386000Y-117550000D01*
X202300000Y-117550000D01*
X202300000Y-119000000D01*
X202626790Y-119000000D01*
X202693829Y-119019685D01*
X202739584Y-119072489D01*
X202749528Y-119141647D01*
X202749528Y-119141648D01*
X202744500Y-119176615D01*
X202744500Y-119876000D01*
X202724815Y-119943039D01*
X202672011Y-119988794D01*
X202620500Y-120000000D01*
X179363094Y-120000000D01*
X179296055Y-119980315D01*
X179250300Y-119927511D01*
X179240356Y-119893647D01*
X179235165Y-119857543D01*
X179175377Y-119726627D01*
X179081128Y-119617857D01*
X178960053Y-119540047D01*
X178960051Y-119540046D01*
X178960049Y-119540045D01*
X178960050Y-119540045D01*
X178821963Y-119499500D01*
X178821961Y-119499500D01*
X178678039Y-119499500D01*
X178678036Y-119499500D01*
X178539949Y-119540045D01*
X178418873Y-119617856D01*
X178324623Y-119726626D01*
X178324622Y-119726628D01*
X178264834Y-119857543D01*
X178259644Y-119893647D01*
X178230619Y-119957203D01*
X178171841Y-119994977D01*
X178136906Y-120000000D01*
X174224500Y-120000000D01*
X174157461Y-119980315D01*
X174111706Y-119927511D01*
X174100500Y-119876000D01*
X174100500Y-119814308D01*
X174120185Y-119747269D01*
X174172989Y-119701514D01*
X174189566Y-119695331D01*
X174310050Y-119659954D01*
X174310050Y-119659953D01*
X174310053Y-119659953D01*
X174357960Y-119629164D01*
X174424998Y-119609479D01*
X174492035Y-119629162D01*
X174539947Y-119659953D01*
X174539949Y-119659954D01*
X174678036Y-119700499D01*
X174678038Y-119700500D01*
X174678039Y-119700500D01*
X174821962Y-119700500D01*
X174821962Y-119700499D01*
X174933318Y-119667803D01*
X174960050Y-119659954D01*
X174960050Y-119659953D01*
X174960053Y-119659953D01*
X175007960Y-119629164D01*
X175074998Y-119609479D01*
X175142035Y-119629162D01*
X175189947Y-119659953D01*
X175189949Y-119659954D01*
X175328036Y-119700499D01*
X175328038Y-119700500D01*
X175328039Y-119700500D01*
X175471962Y-119700500D01*
X175471962Y-119700499D01*
X175583318Y-119667803D01*
X175610050Y-119659954D01*
X175610050Y-119659953D01*
X175610053Y-119659953D01*
X175657960Y-119629164D01*
X175724998Y-119609479D01*
X175792035Y-119629162D01*
X175839947Y-119659953D01*
X175839949Y-119659954D01*
X175978036Y-119700499D01*
X175978038Y-119700500D01*
X175978039Y-119700500D01*
X176121962Y-119700500D01*
X176121962Y-119700499D01*
X176233318Y-119667803D01*
X176260050Y-119659954D01*
X176260050Y-119659953D01*
X176260053Y-119659953D01*
X176307960Y-119629164D01*
X176374998Y-119609479D01*
X176442035Y-119629162D01*
X176489947Y-119659953D01*
X176489949Y-119659954D01*
X176628036Y-119700499D01*
X176628038Y-119700500D01*
X176628039Y-119700500D01*
X176771962Y-119700500D01*
X176771962Y-119700499D01*
X176910053Y-119659953D01*
X176951855Y-119633088D01*
X177018891Y-119613404D01*
X177085931Y-119633088D01*
X177085933Y-119633089D01*
X177139948Y-119667803D01*
X177278036Y-119708348D01*
X177278038Y-119708349D01*
X177278039Y-119708349D01*
X177421962Y-119708349D01*
X177421962Y-119708348D01*
X177560053Y-119667802D01*
X177681128Y-119589992D01*
X177775377Y-119481222D01*
X177835165Y-119350306D01*
X177855647Y-119207849D01*
X177835165Y-119065392D01*
X177775377Y-118934476D01*
X177681128Y-118825706D01*
X177560053Y-118747896D01*
X177560051Y-118747895D01*
X177560049Y-118747894D01*
X177560050Y-118747894D01*
X177421963Y-118707349D01*
X177421961Y-118707349D01*
X177278039Y-118707349D01*
X177278036Y-118707349D01*
X177139950Y-118747894D01*
X177098143Y-118774761D01*
X177031103Y-118794444D01*
X176964066Y-118774759D01*
X176910051Y-118740045D01*
X176903542Y-118737073D01*
X176850739Y-118691317D01*
X176831056Y-118624277D01*
X176834360Y-118601301D01*
X176833903Y-118601236D01*
X176849894Y-118490012D01*
X176855647Y-118450000D01*
X176835165Y-118307543D01*
X176775377Y-118176627D01*
X176681128Y-118067857D01*
X176560053Y-117990047D01*
X176560051Y-117990046D01*
X176560049Y-117990045D01*
X176560050Y-117990045D01*
X176421963Y-117949500D01*
X176421961Y-117949500D01*
X176278039Y-117949500D01*
X176278036Y-117949500D01*
X176139949Y-117990045D01*
X176018873Y-118067856D01*
X175924623Y-118176626D01*
X175924622Y-118176628D01*
X175864834Y-118307543D01*
X175847738Y-118426456D01*
X175818713Y-118490012D01*
X175759935Y-118527786D01*
X175690065Y-118527786D01*
X175631287Y-118490012D01*
X175602262Y-118426456D01*
X175585165Y-118307543D01*
X175525377Y-118176628D01*
X175525376Y-118176626D01*
X175503715Y-118151628D01*
X175431128Y-118067857D01*
X175310053Y-117990047D01*
X175310051Y-117990046D01*
X175310049Y-117990045D01*
X175310050Y-117990045D01*
X175171963Y-117949500D01*
X175171961Y-117949500D01*
X175028039Y-117949500D01*
X175028036Y-117949500D01*
X174889949Y-117990045D01*
X174768873Y-118067856D01*
X174674623Y-118176626D01*
X174674622Y-118176628D01*
X174614834Y-118307543D01*
X174594353Y-118450000D01*
X174616097Y-118601235D01*
X174613923Y-118601547D01*
X174613914Y-118659235D01*
X174576130Y-118718007D01*
X174546463Y-118737071D01*
X174539947Y-118740047D01*
X174492037Y-118770836D01*
X174424998Y-118790519D01*
X174357963Y-118770836D01*
X174320819Y-118746966D01*
X174310053Y-118740047D01*
X174310051Y-118740046D01*
X174310049Y-118740045D01*
X174171963Y-118699500D01*
X174171961Y-118699500D01*
X174028039Y-118699500D01*
X174028036Y-118699500D01*
X173889949Y-118740045D01*
X173889948Y-118740045D01*
X173879180Y-118746966D01*
X173812140Y-118766648D01*
X173745101Y-118746961D01*
X173699348Y-118694156D01*
X173689407Y-118624997D01*
X173699348Y-118591141D01*
X173710165Y-118567457D01*
X173730647Y-118425000D01*
X173710165Y-118282543D01*
X173650377Y-118151627D01*
X173556128Y-118042857D01*
X173435053Y-117965047D01*
X173435051Y-117965046D01*
X173435049Y-117965045D01*
X173435050Y-117965045D01*
X173296963Y-117924500D01*
X173296961Y-117924500D01*
X173153039Y-117924500D01*
X173153036Y-117924500D01*
X173014949Y-117965045D01*
X172893873Y-118042856D01*
X172799623Y-118151626D01*
X172799622Y-118151628D01*
X172739834Y-118282543D01*
X172719353Y-118425000D01*
X172739834Y-118567456D01*
X172797697Y-118694156D01*
X172799623Y-118698373D01*
X172882743Y-118794299D01*
X172911767Y-118857853D01*
X172901823Y-118927011D01*
X172856069Y-118979815D01*
X172789029Y-118999500D01*
X172675833Y-118999500D01*
X172608794Y-118979815D01*
X172588152Y-118963181D01*
X172436319Y-118811348D01*
X172402834Y-118750025D01*
X172400000Y-118723667D01*
X172400000Y-117115000D01*
X179144353Y-117115000D01*
X179164834Y-117257456D01*
X179200529Y-117335616D01*
X179224623Y-117388373D01*
X179318872Y-117497143D01*
X179439947Y-117574953D01*
X179439950Y-117574954D01*
X179439949Y-117574954D01*
X179578036Y-117615499D01*
X179578038Y-117615500D01*
X179578039Y-117615500D01*
X179721962Y-117615500D01*
X179721962Y-117615499D01*
X179860053Y-117574953D01*
X179981128Y-117497143D01*
X180031287Y-117439256D01*
X180090065Y-117401481D01*
X180159934Y-117401481D01*
X180218711Y-117439253D01*
X180268872Y-117497143D01*
X180389947Y-117574953D01*
X180389950Y-117574954D01*
X180389949Y-117574954D01*
X180528036Y-117615499D01*
X180528038Y-117615500D01*
X180528039Y-117615500D01*
X180671962Y-117615500D01*
X180671962Y-117615499D01*
X180810053Y-117574953D01*
X180931128Y-117497143D01*
X181025377Y-117388373D01*
X181085165Y-117257457D01*
X181105647Y-117115000D01*
X181085165Y-116972543D01*
X181025377Y-116841627D01*
X180931128Y-116732857D01*
X180810053Y-116655047D01*
X180810051Y-116655046D01*
X180810049Y-116655045D01*
X180810050Y-116655045D01*
X180671963Y-116614500D01*
X180671961Y-116614500D01*
X180528039Y-116614500D01*
X180528036Y-116614500D01*
X180389949Y-116655045D01*
X180268873Y-116732856D01*
X180218713Y-116790744D01*
X180159935Y-116828518D01*
X180090065Y-116828518D01*
X180031287Y-116790744D01*
X180030263Y-116789563D01*
X179981128Y-116732857D01*
X179860053Y-116655047D01*
X179860051Y-116655046D01*
X179860049Y-116655045D01*
X179860050Y-116655045D01*
X179721963Y-116614500D01*
X179721961Y-116614500D01*
X179578039Y-116614500D01*
X179578036Y-116614500D01*
X179439949Y-116655045D01*
X179318873Y-116732856D01*
X179224623Y-116841626D01*
X179224622Y-116841628D01*
X179164834Y-116972543D01*
X179144353Y-117115000D01*
X172400000Y-117115000D01*
X172400000Y-112176333D01*
X172419685Y-112109294D01*
X172436319Y-112088652D01*
X172588652Y-111936319D01*
X172649975Y-111902834D01*
X172676333Y-111900000D01*
X202386000Y-111900000D01*
X202453039Y-111919685D01*
G37*
G04 #@! TD.AperFunction*
G04 #@! TA.AperFunction,Conductor*
G36*
X173763094Y-119577137D02*
G01*
X173768870Y-119582142D01*
X173768872Y-119582143D01*
X173847849Y-119632898D01*
X173893604Y-119685700D01*
X173903548Y-119754859D01*
X173903548Y-119754861D01*
X173895000Y-119814310D01*
X173895000Y-119876007D01*
X173899697Y-119919686D01*
X173910897Y-119971174D01*
X173913390Y-119981372D01*
X173913391Y-119981375D01*
X173956399Y-120062083D01*
X173956401Y-120062086D01*
X174002160Y-120114895D01*
X174019742Y-120132839D01*
X174019746Y-120132843D01*
X174019747Y-120132844D01*
X174019749Y-120132845D01*
X174099016Y-120177184D01*
X174099563Y-120177490D01*
X174166602Y-120197175D01*
X174224500Y-120205500D01*
X174224504Y-120205500D01*
X174556031Y-120205500D01*
X174623070Y-120225185D01*
X174668825Y-120277989D01*
X174678769Y-120347147D01*
X174649744Y-120410701D01*
X174630983Y-120432354D01*
X174579623Y-120491626D01*
X174579622Y-120491628D01*
X174519834Y-120622543D01*
X174498680Y-120769676D01*
X174469655Y-120833232D01*
X174410877Y-120871006D01*
X174294949Y-120905045D01*
X174173873Y-120982856D01*
X174079623Y-121091626D01*
X174079622Y-121091628D01*
X174019834Y-121222543D01*
X173999353Y-121365000D01*
X174019834Y-121507456D01*
X174056552Y-121587856D01*
X174079623Y-121638373D01*
X174173872Y-121747143D01*
X174251683Y-121797148D01*
X174294948Y-121824954D01*
X174366704Y-121846023D01*
X174425482Y-121883797D01*
X174454507Y-121947353D01*
X174444563Y-122016511D01*
X174398809Y-122069315D01*
X174366704Y-122083977D01*
X174294948Y-122105045D01*
X174173873Y-122182856D01*
X174079623Y-122291626D01*
X174079622Y-122291628D01*
X174019834Y-122422543D01*
X173999353Y-122565000D01*
X174019834Y-122707456D01*
X174079622Y-122838371D01*
X174079623Y-122838373D01*
X174173872Y-122947143D01*
X174294947Y-123024953D01*
X174294950Y-123024954D01*
X174294949Y-123024954D01*
X174414195Y-123059967D01*
X174472973Y-123097741D01*
X174501999Y-123161296D01*
X174501999Y-123196587D01*
X174499353Y-123214994D01*
X174499353Y-123214999D01*
X174519834Y-123357456D01*
X174535819Y-123392457D01*
X174579623Y-123488373D01*
X174673872Y-123597143D01*
X174794947Y-123674953D01*
X174794950Y-123674954D01*
X174794949Y-123674954D01*
X174933036Y-123715499D01*
X174933038Y-123715500D01*
X174933039Y-123715500D01*
X175076962Y-123715500D01*
X175076962Y-123715499D01*
X175215053Y-123674953D01*
X175336128Y-123597143D01*
X175411287Y-123510403D01*
X175470064Y-123472629D01*
X175539934Y-123472629D01*
X175598711Y-123510402D01*
X175673872Y-123597143D01*
X175794947Y-123674953D01*
X175794950Y-123674954D01*
X175794949Y-123674954D01*
X175933036Y-123715499D01*
X175933038Y-123715500D01*
X175933039Y-123715500D01*
X176076962Y-123715500D01*
X176076962Y-123715499D01*
X176215053Y-123674953D01*
X176336128Y-123597143D01*
X176411287Y-123510403D01*
X176470064Y-123472629D01*
X176539934Y-123472629D01*
X176598711Y-123510402D01*
X176673872Y-123597143D01*
X176794947Y-123674953D01*
X176794950Y-123674954D01*
X176794949Y-123674954D01*
X176933036Y-123715499D01*
X176933038Y-123715500D01*
X176933039Y-123715500D01*
X177076962Y-123715500D01*
X177076962Y-123715499D01*
X177215053Y-123674953D01*
X177336128Y-123597143D01*
X177430377Y-123488373D01*
X177490165Y-123357457D01*
X177510647Y-123215000D01*
X177508000Y-123196590D01*
X177517943Y-123127433D01*
X177563698Y-123074629D01*
X177595802Y-123059967D01*
X177698021Y-123029954D01*
X177715050Y-123024954D01*
X177715050Y-123024953D01*
X177715053Y-123024953D01*
X177836128Y-122947143D01*
X177930377Y-122838373D01*
X177990165Y-122707457D01*
X178002246Y-122623430D01*
X178023454Y-122576988D01*
X178007278Y-122541568D01*
X178001301Y-122500000D01*
X177990165Y-122422543D01*
X177930377Y-122291627D01*
X177836128Y-122182857D01*
X177715053Y-122105047D01*
X177715051Y-122105046D01*
X177715049Y-122105045D01*
X177715050Y-122105045D01*
X177643296Y-122083977D01*
X177584518Y-122046203D01*
X177555492Y-121982648D01*
X177565435Y-121913489D01*
X177611190Y-121860685D01*
X177643296Y-121846023D01*
X177715050Y-121824954D01*
X177715050Y-121824953D01*
X177715053Y-121824953D01*
X177836128Y-121747143D01*
X177930377Y-121638373D01*
X177990165Y-121507457D01*
X178009434Y-121373429D01*
X178023454Y-121342730D01*
X178000089Y-121291568D01*
X178000089Y-121291567D01*
X177990165Y-121222543D01*
X177960480Y-121157543D01*
X177930377Y-121091627D01*
X177836128Y-120982857D01*
X177715053Y-120905047D01*
X177715050Y-120905045D01*
X177599122Y-120871006D01*
X177540344Y-120833232D01*
X177511319Y-120769676D01*
X177506823Y-120738407D01*
X177490165Y-120622543D01*
X177430377Y-120491627D01*
X177360255Y-120410701D01*
X177331231Y-120347147D01*
X177341175Y-120277988D01*
X177386930Y-120225184D01*
X177453969Y-120205500D01*
X178136906Y-120205500D01*
X178166152Y-120203408D01*
X178166155Y-120203407D01*
X178166162Y-120203407D01*
X178192992Y-120199549D01*
X178262151Y-120209490D01*
X178314956Y-120255244D01*
X178323443Y-120270790D01*
X178324682Y-120273504D01*
X178334616Y-120342664D01*
X178324675Y-120376512D01*
X178264834Y-120507543D01*
X178244353Y-120650000D01*
X178264834Y-120792456D01*
X178324675Y-120923488D01*
X178334619Y-120992647D01*
X178324675Y-121026512D01*
X178264834Y-121157543D01*
X178245565Y-121291568D01*
X178231544Y-121322268D01*
X178254910Y-121373430D01*
X178264834Y-121442456D01*
X178324675Y-121573488D01*
X178334619Y-121642647D01*
X178324675Y-121676512D01*
X178264834Y-121807543D01*
X178244353Y-121950000D01*
X178264834Y-122092456D01*
X178324675Y-122223488D01*
X178334619Y-122292647D01*
X178324675Y-122326512D01*
X178264834Y-122457543D01*
X178252754Y-122541568D01*
X178231544Y-122588009D01*
X178247721Y-122623429D01*
X178247721Y-122623430D01*
X178264834Y-122742456D01*
X178324675Y-122873488D01*
X178334619Y-122942647D01*
X178324675Y-122976512D01*
X178264834Y-123107543D01*
X178244353Y-123250000D01*
X178264834Y-123392456D01*
X178324675Y-123523488D01*
X178334619Y-123592647D01*
X178324675Y-123626512D01*
X178264834Y-123757543D01*
X178244353Y-123900000D01*
X178264834Y-124042456D01*
X178310504Y-124142457D01*
X178324623Y-124173373D01*
X178418872Y-124282143D01*
X178539947Y-124359953D01*
X178539950Y-124359954D01*
X178539949Y-124359954D01*
X178678036Y-124400499D01*
X178678038Y-124400500D01*
X178678039Y-124400500D01*
X178821962Y-124400500D01*
X178821962Y-124400499D01*
X178960053Y-124359953D01*
X179081128Y-124282143D01*
X179175377Y-124173373D01*
X179235165Y-124042457D01*
X179255647Y-123900000D01*
X179235165Y-123757543D01*
X179175377Y-123626627D01*
X179175375Y-123626625D01*
X179175324Y-123626512D01*
X179165380Y-123557354D01*
X179175324Y-123523488D01*
X179181300Y-123510404D01*
X179235165Y-123392457D01*
X179255647Y-123250000D01*
X179235165Y-123107543D01*
X179175377Y-122976627D01*
X179175375Y-122976625D01*
X179175324Y-122976512D01*
X179165380Y-122907354D01*
X179175324Y-122873488D01*
X179188807Y-122843966D01*
X179235165Y-122742457D01*
X179255647Y-122600000D01*
X179235165Y-122457543D01*
X179175377Y-122326627D01*
X179175375Y-122326625D01*
X179175324Y-122326512D01*
X179165380Y-122257354D01*
X179175324Y-122223488D01*
X179191597Y-122187857D01*
X179235165Y-122092457D01*
X179255647Y-121950000D01*
X179235165Y-121807543D01*
X179175377Y-121676627D01*
X179175375Y-121676625D01*
X179175324Y-121676512D01*
X179165380Y-121607354D01*
X179175324Y-121573488D01*
X179182644Y-121557461D01*
X179235165Y-121442457D01*
X179255647Y-121300000D01*
X179235165Y-121157543D01*
X179175377Y-121026627D01*
X179175375Y-121026625D01*
X179175324Y-121026512D01*
X179165380Y-120957354D01*
X179175324Y-120923488D01*
X179181463Y-120910047D01*
X179235165Y-120792457D01*
X179255647Y-120650000D01*
X179235165Y-120507543D01*
X179175377Y-120376627D01*
X179175376Y-120376626D01*
X179175324Y-120376511D01*
X179165380Y-120307352D01*
X179175323Y-120273488D01*
X179175373Y-120273376D01*
X179175377Y-120273373D01*
X179177471Y-120268787D01*
X179223223Y-120215987D01*
X179290262Y-120196302D01*
X179307903Y-120197564D01*
X179363094Y-120205500D01*
X179363095Y-120205500D01*
X202620491Y-120205500D01*
X202620500Y-120205500D01*
X202664184Y-120200803D01*
X202693375Y-120194452D01*
X202715674Y-120189602D01*
X202715690Y-120189598D01*
X202715695Y-120189597D01*
X202725873Y-120187110D01*
X202789227Y-120153349D01*
X202857645Y-120139194D01*
X202908073Y-120154561D01*
X202949063Y-120177490D01*
X203016102Y-120197175D01*
X203074000Y-120205500D01*
X203074004Y-120205500D01*
X212275991Y-120205500D01*
X212276000Y-120205500D01*
X212319684Y-120200803D01*
X212348875Y-120194452D01*
X212371174Y-120189602D01*
X212371190Y-120189598D01*
X212371195Y-120189597D01*
X212381373Y-120187110D01*
X212444727Y-120153349D01*
X212513145Y-120139194D01*
X212563573Y-120154561D01*
X212604563Y-120177490D01*
X212671602Y-120197175D01*
X212729500Y-120205500D01*
X212729504Y-120205500D01*
X238975991Y-120205500D01*
X238976000Y-120205500D01*
X239019684Y-120200803D01*
X239048875Y-120194452D01*
X239071174Y-120189602D01*
X239071190Y-120189598D01*
X239071195Y-120189597D01*
X239081373Y-120187110D01*
X239162085Y-120144100D01*
X239214889Y-120098345D01*
X239232843Y-120080754D01*
X239242515Y-120063462D01*
X239292423Y-120014566D01*
X239350734Y-120000000D01*
X239375500Y-120000000D01*
X239442539Y-120019685D01*
X239488294Y-120072489D01*
X239499500Y-120124000D01*
X239499500Y-138375500D01*
X239479815Y-138442539D01*
X239427011Y-138488294D01*
X239375500Y-138499500D01*
X136124500Y-138499500D01*
X136057461Y-138479815D01*
X136011706Y-138427011D01*
X136000500Y-138375500D01*
X136000500Y-133000000D01*
X166494353Y-133000000D01*
X166514834Y-133142456D01*
X166574622Y-133273371D01*
X166574623Y-133273373D01*
X166668872Y-133382143D01*
X166676324Y-133386932D01*
X166689943Y-133395685D01*
X166735698Y-133448489D01*
X166745641Y-133517648D01*
X166716615Y-133581203D01*
X166689943Y-133604315D01*
X166668874Y-133617855D01*
X166574623Y-133726626D01*
X166574622Y-133726628D01*
X166514834Y-133857543D01*
X166494353Y-134000000D01*
X166514834Y-134142456D01*
X166567433Y-134257629D01*
X166574623Y-134273373D01*
X166668872Y-134382143D01*
X166789947Y-134459953D01*
X166789950Y-134459954D01*
X166789949Y-134459954D01*
X166928036Y-134500499D01*
X166928038Y-134500500D01*
X166928039Y-134500500D01*
X167071962Y-134500500D01*
X167071962Y-134500499D01*
X167210053Y-134459953D01*
X167331128Y-134382143D01*
X167406287Y-134295403D01*
X167465064Y-134257629D01*
X167534934Y-134257629D01*
X167593711Y-134295402D01*
X167668872Y-134382143D01*
X167789947Y-134459953D01*
X167789950Y-134459954D01*
X167789949Y-134459954D01*
X167928036Y-134500499D01*
X167928038Y-134500500D01*
X167928039Y-134500500D01*
X168071962Y-134500500D01*
X168071962Y-134500499D01*
X168210053Y-134459953D01*
X168331128Y-134382143D01*
X168406287Y-134295403D01*
X168465064Y-134257629D01*
X168534934Y-134257629D01*
X168593711Y-134295402D01*
X168668872Y-134382143D01*
X168789947Y-134459953D01*
X168789950Y-134459954D01*
X168789949Y-134459954D01*
X168928036Y-134500499D01*
X168928038Y-134500500D01*
X168928039Y-134500500D01*
X169071962Y-134500500D01*
X169071962Y-134500499D01*
X169210053Y-134459953D01*
X169331128Y-134382143D01*
X169406287Y-134295403D01*
X169465064Y-134257629D01*
X169534934Y-134257629D01*
X169593711Y-134295402D01*
X169668872Y-134382143D01*
X169789947Y-134459953D01*
X169789950Y-134459954D01*
X169789949Y-134459954D01*
X169928036Y-134500499D01*
X169928038Y-134500500D01*
X169928039Y-134500500D01*
X170071962Y-134500500D01*
X170071962Y-134500499D01*
X170210053Y-134459953D01*
X170331128Y-134382143D01*
X170406287Y-134295403D01*
X170465064Y-134257629D01*
X170534934Y-134257629D01*
X170593711Y-134295402D01*
X170668872Y-134382143D01*
X170789947Y-134459953D01*
X170789950Y-134459954D01*
X170789949Y-134459954D01*
X170928036Y-134500499D01*
X170928038Y-134500500D01*
X170928039Y-134500500D01*
X171071962Y-134500500D01*
X171071962Y-134500499D01*
X171210053Y-134459953D01*
X171331128Y-134382143D01*
X171406287Y-134295403D01*
X171465064Y-134257629D01*
X171534934Y-134257629D01*
X171593711Y-134295402D01*
X171668872Y-134382143D01*
X171789947Y-134459953D01*
X171789950Y-134459954D01*
X171789949Y-134459954D01*
X171928036Y-134500499D01*
X171928038Y-134500500D01*
X171928039Y-134500500D01*
X172071962Y-134500500D01*
X172071962Y-134500499D01*
X172210053Y-134459953D01*
X172331128Y-134382143D01*
X172425377Y-134273373D01*
X172485165Y-134142457D01*
X172505647Y-134000000D01*
X172485165Y-133857543D01*
X172425377Y-133726627D01*
X172331128Y-133617857D01*
X172331125Y-133617855D01*
X172331125Y-133617854D01*
X172310058Y-133604316D01*
X172264302Y-133551513D01*
X172254358Y-133482354D01*
X172283382Y-133418798D01*
X172310058Y-133395684D01*
X172331125Y-133382145D01*
X172331125Y-133382144D01*
X172331128Y-133382143D01*
X172425377Y-133273373D01*
X172485165Y-133142457D01*
X172505647Y-133000000D01*
X174494353Y-133000000D01*
X174514834Y-133142456D01*
X174574622Y-133273371D01*
X174574623Y-133273373D01*
X174668872Y-133382143D01*
X174676324Y-133386932D01*
X174689943Y-133395685D01*
X174735698Y-133448489D01*
X174745641Y-133517648D01*
X174716615Y-133581203D01*
X174689943Y-133604315D01*
X174668874Y-133617855D01*
X174574623Y-133726626D01*
X174574622Y-133726628D01*
X174514834Y-133857543D01*
X174494353Y-134000000D01*
X174514834Y-134142456D01*
X174567433Y-134257629D01*
X174574623Y-134273373D01*
X174668872Y-134382143D01*
X174789947Y-134459953D01*
X174789950Y-134459954D01*
X174789949Y-134459954D01*
X174928036Y-134500499D01*
X174928038Y-134500500D01*
X174928039Y-134500500D01*
X175071962Y-134500500D01*
X175071962Y-134500499D01*
X175210053Y-134459953D01*
X175331128Y-134382143D01*
X175406287Y-134295403D01*
X175465064Y-134257629D01*
X175534934Y-134257629D01*
X175593711Y-134295402D01*
X175668872Y-134382143D01*
X175789947Y-134459953D01*
X175789950Y-134459954D01*
X175789949Y-134459954D01*
X175928036Y-134500499D01*
X175928038Y-134500500D01*
X175928039Y-134500500D01*
X176071962Y-134500500D01*
X176071962Y-134500499D01*
X176210053Y-134459953D01*
X176331128Y-134382143D01*
X176406287Y-134295403D01*
X176465064Y-134257629D01*
X176534934Y-134257629D01*
X176593711Y-134295402D01*
X176668872Y-134382143D01*
X176789947Y-134459953D01*
X176789950Y-134459954D01*
X176789949Y-134459954D01*
X176928036Y-134500499D01*
X176928038Y-134500500D01*
X176928039Y-134500500D01*
X177071962Y-134500500D01*
X177071962Y-134500499D01*
X177210053Y-134459953D01*
X177331128Y-134382143D01*
X177406287Y-134295403D01*
X177465064Y-134257629D01*
X177534934Y-134257629D01*
X177593711Y-134295402D01*
X177668872Y-134382143D01*
X177789947Y-134459953D01*
X177789950Y-134459954D01*
X177789949Y-134459954D01*
X177928036Y-134500499D01*
X177928038Y-134500500D01*
X177928039Y-134500500D01*
X178071962Y-134500500D01*
X178071962Y-134500499D01*
X178210053Y-134459953D01*
X178331128Y-134382143D01*
X178425377Y-134273373D01*
X178485165Y-134142457D01*
X178505647Y-134000000D01*
X178485165Y-133857543D01*
X178425377Y-133726627D01*
X178331128Y-133617857D01*
X178331125Y-133617855D01*
X178331125Y-133617854D01*
X178310058Y-133604316D01*
X178264302Y-133551513D01*
X178254358Y-133482354D01*
X178283382Y-133418798D01*
X178310058Y-133395684D01*
X178331125Y-133382145D01*
X178331125Y-133382144D01*
X178331128Y-133382143D01*
X178425377Y-133273373D01*
X178485165Y-133142457D01*
X178505647Y-133000000D01*
X178485165Y-132857543D01*
X178425377Y-132726627D01*
X178331128Y-132617857D01*
X178210053Y-132540047D01*
X178210051Y-132540046D01*
X178210049Y-132540045D01*
X178210050Y-132540045D01*
X178071963Y-132499500D01*
X178071961Y-132499500D01*
X177928039Y-132499500D01*
X177928036Y-132499500D01*
X177789949Y-132540045D01*
X177668873Y-132617856D01*
X177593713Y-132704596D01*
X177534935Y-132742370D01*
X177465065Y-132742370D01*
X177406287Y-132704596D01*
X177331128Y-132617857D01*
X177210053Y-132540047D01*
X177210051Y-132540046D01*
X177210049Y-132540045D01*
X177210050Y-132540045D01*
X177071963Y-132499500D01*
X177071961Y-132499500D01*
X176928039Y-132499500D01*
X176928036Y-132499500D01*
X176789949Y-132540045D01*
X176668873Y-132617856D01*
X176593713Y-132704596D01*
X176534935Y-132742370D01*
X176465065Y-132742370D01*
X176406287Y-132704596D01*
X176331128Y-132617857D01*
X176210053Y-132540047D01*
X176210051Y-132540046D01*
X176210049Y-132540045D01*
X176210050Y-132540045D01*
X176071963Y-132499500D01*
X176071961Y-132499500D01*
X175928039Y-132499500D01*
X175928036Y-132499500D01*
X175789949Y-132540045D01*
X175668873Y-132617856D01*
X175593713Y-132704596D01*
X175534935Y-132742370D01*
X175465065Y-132742370D01*
X175406287Y-132704596D01*
X175331128Y-132617857D01*
X175210053Y-132540047D01*
X175210051Y-132540046D01*
X175210049Y-132540045D01*
X175210050Y-132540045D01*
X175071963Y-132499500D01*
X175071961Y-132499500D01*
X174928039Y-132499500D01*
X174928036Y-132499500D01*
X174789949Y-132540045D01*
X174668873Y-132617856D01*
X174574623Y-132726626D01*
X174574622Y-132726628D01*
X174514834Y-132857543D01*
X174494353Y-133000000D01*
X172505647Y-133000000D01*
X172485165Y-132857543D01*
X172425377Y-132726627D01*
X172331128Y-132617857D01*
X172210053Y-132540047D01*
X172210051Y-132540046D01*
X172210049Y-132540045D01*
X172210050Y-132540045D01*
X172071963Y-132499500D01*
X172071961Y-132499500D01*
X171928039Y-132499500D01*
X171928036Y-132499500D01*
X171789949Y-132540045D01*
X171668873Y-132617856D01*
X171593713Y-132704596D01*
X171534935Y-132742370D01*
X171465065Y-132742370D01*
X171406287Y-132704596D01*
X171331128Y-132617857D01*
X171210053Y-132540047D01*
X171210051Y-132540046D01*
X171210049Y-132540045D01*
X171210050Y-132540045D01*
X171071963Y-132499500D01*
X171071961Y-132499500D01*
X170928039Y-132499500D01*
X170928036Y-132499500D01*
X170789949Y-132540045D01*
X170668873Y-132617856D01*
X170593713Y-132704596D01*
X170534935Y-132742370D01*
X170465065Y-132742370D01*
X170406287Y-132704596D01*
X170331128Y-132617857D01*
X170210053Y-132540047D01*
X170210051Y-132540046D01*
X170210049Y-132540045D01*
X170210050Y-132540045D01*
X170071963Y-132499500D01*
X170071961Y-132499500D01*
X169928039Y-132499500D01*
X169928036Y-132499500D01*
X169789949Y-132540045D01*
X169668873Y-132617856D01*
X169593713Y-132704596D01*
X169534935Y-132742370D01*
X169465065Y-132742370D01*
X169406287Y-132704596D01*
X169331128Y-132617857D01*
X169210053Y-132540047D01*
X169210051Y-132540046D01*
X169210049Y-132540045D01*
X169210050Y-132540045D01*
X169071963Y-132499500D01*
X169071961Y-132499500D01*
X168928039Y-132499500D01*
X168928036Y-132499500D01*
X168789949Y-132540045D01*
X168668873Y-132617856D01*
X168593713Y-132704596D01*
X168534935Y-132742370D01*
X168465065Y-132742370D01*
X168406287Y-132704596D01*
X168331128Y-132617857D01*
X168210053Y-132540047D01*
X168210051Y-132540046D01*
X168210049Y-132540045D01*
X168210050Y-132540045D01*
X168071963Y-132499500D01*
X168071961Y-132499500D01*
X167928039Y-132499500D01*
X167928036Y-132499500D01*
X167789949Y-132540045D01*
X167668873Y-132617856D01*
X167593713Y-132704596D01*
X167534935Y-132742370D01*
X167465065Y-132742370D01*
X167406287Y-132704596D01*
X167331128Y-132617857D01*
X167210053Y-132540047D01*
X167210051Y-132540046D01*
X167210049Y-132540045D01*
X167210050Y-132540045D01*
X167071963Y-132499500D01*
X167071961Y-132499500D01*
X166928039Y-132499500D01*
X166928036Y-132499500D01*
X166789949Y-132540045D01*
X166668873Y-132617856D01*
X166574623Y-132726626D01*
X166574622Y-132726628D01*
X166514834Y-132857543D01*
X166494353Y-133000000D01*
X136000500Y-133000000D01*
X136000500Y-129475000D01*
X165619353Y-129475000D01*
X165639834Y-129617456D01*
X165689691Y-129726626D01*
X165699623Y-129748373D01*
X165793872Y-129857143D01*
X165837147Y-129884954D01*
X165914948Y-129934954D01*
X165986704Y-129956023D01*
X166045482Y-129993797D01*
X166074507Y-130057353D01*
X166064563Y-130126511D01*
X166018809Y-130179315D01*
X165986704Y-130193977D01*
X165914948Y-130215045D01*
X165793873Y-130292856D01*
X165699623Y-130401626D01*
X165699622Y-130401628D01*
X165639834Y-130532543D01*
X165619353Y-130675000D01*
X165639834Y-130817456D01*
X165699622Y-130948371D01*
X165699623Y-130948373D01*
X165793872Y-131057143D01*
X165914947Y-131134953D01*
X165914950Y-131134954D01*
X165914949Y-131134954D01*
X166030876Y-131168993D01*
X166089655Y-131206767D01*
X166118680Y-131270322D01*
X166118680Y-131270323D01*
X166139834Y-131417456D01*
X166177759Y-131500499D01*
X166199623Y-131548373D01*
X166293872Y-131657143D01*
X166414947Y-131734953D01*
X166414950Y-131734954D01*
X166414949Y-131734954D01*
X166553036Y-131775499D01*
X166553038Y-131775500D01*
X166553039Y-131775500D01*
X166696962Y-131775500D01*
X166696962Y-131775499D01*
X166835053Y-131734953D01*
X166956128Y-131657143D01*
X167031287Y-131570403D01*
X167090064Y-131532629D01*
X167159934Y-131532629D01*
X167218711Y-131570402D01*
X167293872Y-131657143D01*
X167414947Y-131734953D01*
X167414950Y-131734954D01*
X167414949Y-131734954D01*
X167553036Y-131775499D01*
X167553038Y-131775500D01*
X167553039Y-131775500D01*
X167696962Y-131775500D01*
X167696962Y-131775499D01*
X167835053Y-131734953D01*
X167956128Y-131657143D01*
X168031287Y-131570403D01*
X168090064Y-131532629D01*
X168159934Y-131532629D01*
X168218711Y-131570402D01*
X168293872Y-131657143D01*
X168414947Y-131734953D01*
X168414950Y-131734954D01*
X168414949Y-131734954D01*
X168553036Y-131775499D01*
X168553038Y-131775500D01*
X168553039Y-131775500D01*
X168696962Y-131775500D01*
X168696962Y-131775499D01*
X168835053Y-131734953D01*
X168956128Y-131657143D01*
X169050377Y-131548373D01*
X169110165Y-131417457D01*
X169130647Y-131275000D01*
X169130646Y-131274998D01*
X169131319Y-131270324D01*
X169160344Y-131206768D01*
X169219122Y-131168993D01*
X169219123Y-131168993D01*
X169335050Y-131134954D01*
X169335050Y-131134953D01*
X169335053Y-131134953D01*
X169456128Y-131057143D01*
X169550377Y-130948373D01*
X169610165Y-130817457D01*
X169630647Y-130675000D01*
X169610165Y-130532543D01*
X169550377Y-130401627D01*
X169456128Y-130292857D01*
X169335053Y-130215047D01*
X169335051Y-130215046D01*
X169335049Y-130215045D01*
X169335050Y-130215045D01*
X169263296Y-130193977D01*
X169204518Y-130156203D01*
X169175492Y-130092648D01*
X169185435Y-130023489D01*
X169231190Y-129970685D01*
X169263296Y-129956023D01*
X169335050Y-129934954D01*
X169335050Y-129934953D01*
X169335053Y-129934953D01*
X169456128Y-129857143D01*
X169550377Y-129748373D01*
X169610165Y-129617457D01*
X169630647Y-129475000D01*
X169610165Y-129332543D01*
X169550377Y-129201627D01*
X169456128Y-129092857D01*
X169335053Y-129015047D01*
X169335051Y-129015046D01*
X169335049Y-129015045D01*
X169335050Y-129015045D01*
X169283810Y-129000000D01*
X170494353Y-129000000D01*
X170514834Y-129142456D01*
X170574622Y-129273371D01*
X170574623Y-129273373D01*
X170668872Y-129382143D01*
X170674443Y-129385723D01*
X170689943Y-129395685D01*
X170735698Y-129448489D01*
X170745641Y-129517648D01*
X170716615Y-129581203D01*
X170689943Y-129604315D01*
X170668874Y-129617855D01*
X170574623Y-129726626D01*
X170574622Y-129726628D01*
X170514834Y-129857543D01*
X170494353Y-130000000D01*
X170514834Y-130142456D01*
X170574622Y-130273371D01*
X170574623Y-130273373D01*
X170668872Y-130382143D01*
X170676324Y-130386932D01*
X170689943Y-130395685D01*
X170735698Y-130448489D01*
X170745641Y-130517648D01*
X170716615Y-130581203D01*
X170689943Y-130604315D01*
X170668874Y-130617855D01*
X170574623Y-130726626D01*
X170574622Y-130726628D01*
X170514834Y-130857543D01*
X170494353Y-131000000D01*
X170514834Y-131142456D01*
X170574622Y-131273371D01*
X170574623Y-131273373D01*
X170668872Y-131382143D01*
X170789947Y-131459953D01*
X170789950Y-131459954D01*
X170789949Y-131459954D01*
X170867175Y-131482629D01*
X170920788Y-131498371D01*
X170928036Y-131500499D01*
X170928038Y-131500500D01*
X170928039Y-131500500D01*
X171071962Y-131500500D01*
X171071962Y-131500499D01*
X171210053Y-131459953D01*
X171331128Y-131382143D01*
X171406287Y-131295403D01*
X171465064Y-131257629D01*
X171534934Y-131257629D01*
X171593712Y-131295403D01*
X171593713Y-131295404D01*
X171656146Y-131367457D01*
X171668872Y-131382143D01*
X171789947Y-131459953D01*
X171789950Y-131459954D01*
X171789949Y-131459954D01*
X171867175Y-131482629D01*
X171920788Y-131498371D01*
X171928036Y-131500499D01*
X171928038Y-131500500D01*
X171928039Y-131500500D01*
X172071962Y-131500500D01*
X172071962Y-131500499D01*
X172210053Y-131459953D01*
X172331128Y-131382143D01*
X172425377Y-131273373D01*
X172485165Y-131142457D01*
X172505647Y-131000000D01*
X172485165Y-130857543D01*
X172425377Y-130726627D01*
X172331128Y-130617857D01*
X172331125Y-130617855D01*
X172331125Y-130617854D01*
X172310058Y-130604316D01*
X172264302Y-130551513D01*
X172254358Y-130482354D01*
X172283382Y-130418798D01*
X172310058Y-130395684D01*
X172331125Y-130382145D01*
X172331125Y-130382144D01*
X172331128Y-130382143D01*
X172425377Y-130273373D01*
X172485165Y-130142457D01*
X172505647Y-130000000D01*
X172485165Y-129857543D01*
X172425377Y-129726627D01*
X172331128Y-129617857D01*
X172331125Y-129617855D01*
X172331125Y-129617854D01*
X172310058Y-129604316D01*
X172264302Y-129551513D01*
X172254358Y-129482354D01*
X172280550Y-129425000D01*
X175119353Y-129425000D01*
X175139834Y-129567456D01*
X175162851Y-129617855D01*
X175199623Y-129698373D01*
X175293872Y-129807143D01*
X175371674Y-129857143D01*
X175414948Y-129884954D01*
X175486704Y-129906023D01*
X175545482Y-129943797D01*
X175574507Y-130007353D01*
X175564563Y-130076511D01*
X175518809Y-130129315D01*
X175486704Y-130143977D01*
X175414948Y-130165045D01*
X175293873Y-130242856D01*
X175199623Y-130351626D01*
X175199622Y-130351628D01*
X175139834Y-130482543D01*
X175119353Y-130625000D01*
X175139834Y-130767456D01*
X175143051Y-130774500D01*
X175199623Y-130898373D01*
X175293872Y-131007143D01*
X175414947Y-131084953D01*
X175414950Y-131084954D01*
X175414949Y-131084954D01*
X175530876Y-131118993D01*
X175589655Y-131156767D01*
X175618680Y-131220322D01*
X175618680Y-131220323D01*
X175639834Y-131367456D01*
X175662669Y-131417456D01*
X175699623Y-131498373D01*
X175793872Y-131607143D01*
X175914947Y-131684953D01*
X175914950Y-131684954D01*
X175914949Y-131684954D01*
X176053036Y-131725499D01*
X176053038Y-131725500D01*
X176053039Y-131725500D01*
X176196962Y-131725500D01*
X176196962Y-131725499D01*
X176335053Y-131684953D01*
X176456128Y-131607143D01*
X176531287Y-131520403D01*
X176590064Y-131482629D01*
X176659934Y-131482629D01*
X176718711Y-131520402D01*
X176793872Y-131607143D01*
X176914947Y-131684953D01*
X176914950Y-131684954D01*
X176914949Y-131684954D01*
X177053036Y-131725499D01*
X177053038Y-131725500D01*
X177053039Y-131725500D01*
X177196962Y-131725500D01*
X177196962Y-131725499D01*
X177335053Y-131684953D01*
X177456128Y-131607143D01*
X177531287Y-131520403D01*
X177590064Y-131482629D01*
X177659934Y-131482629D01*
X177718711Y-131520402D01*
X177793872Y-131607143D01*
X177914947Y-131684953D01*
X177914950Y-131684954D01*
X177914949Y-131684954D01*
X178053036Y-131725499D01*
X178053038Y-131725500D01*
X178053039Y-131725500D01*
X178196962Y-131725500D01*
X178196962Y-131725499D01*
X178335053Y-131684953D01*
X178456128Y-131607143D01*
X178550377Y-131498373D01*
X178610165Y-131367457D01*
X178630647Y-131225000D01*
X178630646Y-131224998D01*
X178631319Y-131220324D01*
X178660344Y-131156768D01*
X178719122Y-131118993D01*
X178719123Y-131118993D01*
X178835050Y-131084954D01*
X178835050Y-131084953D01*
X178835053Y-131084953D01*
X178956128Y-131007143D01*
X179050377Y-130898373D01*
X179110165Y-130767457D01*
X179130647Y-130625000D01*
X179110165Y-130482543D01*
X179050377Y-130351627D01*
X178956128Y-130242857D01*
X178835053Y-130165047D01*
X178835051Y-130165046D01*
X178835049Y-130165045D01*
X178835050Y-130165045D01*
X178763296Y-130143977D01*
X178704518Y-130106203D01*
X178675492Y-130042648D01*
X178685435Y-129973489D01*
X178731190Y-129920685D01*
X178763296Y-129906023D01*
X178835050Y-129884954D01*
X178835050Y-129884953D01*
X178835053Y-129884953D01*
X178956128Y-129807143D01*
X179050377Y-129698373D01*
X179110165Y-129567457D01*
X179130647Y-129425000D01*
X179110165Y-129282543D01*
X179050377Y-129151627D01*
X178956128Y-129042857D01*
X178835053Y-128965047D01*
X178835051Y-128965046D01*
X178835049Y-128965045D01*
X178835050Y-128965045D01*
X178715804Y-128930032D01*
X178657025Y-128892258D01*
X178628000Y-128828702D01*
X178628000Y-128793410D01*
X178630647Y-128775000D01*
X178610165Y-128632543D01*
X178550377Y-128501627D01*
X178456128Y-128392857D01*
X178335053Y-128315047D01*
X178335051Y-128315046D01*
X178335049Y-128315045D01*
X178335050Y-128315045D01*
X178196963Y-128274500D01*
X178196961Y-128274500D01*
X178053039Y-128274500D01*
X178053036Y-128274500D01*
X177914949Y-128315045D01*
X177793873Y-128392856D01*
X177718713Y-128479596D01*
X177659935Y-128517370D01*
X177590065Y-128517370D01*
X177531287Y-128479596D01*
X177456128Y-128392857D01*
X177335053Y-128315047D01*
X177335051Y-128315046D01*
X177335049Y-128315045D01*
X177335050Y-128315045D01*
X177196963Y-128274500D01*
X177196961Y-128274500D01*
X177053039Y-128274500D01*
X177053036Y-128274500D01*
X176914949Y-128315045D01*
X176793873Y-128392856D01*
X176718713Y-128479596D01*
X176659935Y-128517370D01*
X176590065Y-128517370D01*
X176531287Y-128479596D01*
X176456128Y-128392857D01*
X176335053Y-128315047D01*
X176335051Y-128315046D01*
X176335049Y-128315045D01*
X176335050Y-128315045D01*
X176196963Y-128274500D01*
X176196961Y-128274500D01*
X176053039Y-128274500D01*
X176053036Y-128274500D01*
X175914949Y-128315045D01*
X175793873Y-128392856D01*
X175699623Y-128501626D01*
X175699622Y-128501628D01*
X175639834Y-128632543D01*
X175619353Y-128775000D01*
X175619353Y-128775004D01*
X175621999Y-128793411D01*
X175612054Y-128862570D01*
X175566298Y-128915372D01*
X175534196Y-128930032D01*
X175414948Y-128965045D01*
X175293873Y-129042856D01*
X175199623Y-129151626D01*
X175199622Y-129151628D01*
X175139834Y-129282543D01*
X175119353Y-129425000D01*
X172280550Y-129425000D01*
X172283382Y-129418798D01*
X172310058Y-129395684D01*
X172331125Y-129382145D01*
X172331125Y-129382144D01*
X172331128Y-129382143D01*
X172425377Y-129273373D01*
X172485165Y-129142457D01*
X172505647Y-129000000D01*
X172485165Y-128857543D01*
X172425377Y-128726627D01*
X172331128Y-128617857D01*
X172210053Y-128540047D01*
X172210051Y-128540046D01*
X172210049Y-128540045D01*
X172210050Y-128540045D01*
X172071963Y-128499500D01*
X172071961Y-128499500D01*
X171928039Y-128499500D01*
X171928036Y-128499500D01*
X171789949Y-128540045D01*
X171668873Y-128617856D01*
X171593713Y-128704596D01*
X171534935Y-128742370D01*
X171465065Y-128742370D01*
X171406287Y-128704596D01*
X171387178Y-128682543D01*
X171331128Y-128617857D01*
X171210053Y-128540047D01*
X171210051Y-128540046D01*
X171210049Y-128540045D01*
X171210050Y-128540045D01*
X171071963Y-128499500D01*
X171071961Y-128499500D01*
X170928039Y-128499500D01*
X170928036Y-128499500D01*
X170789949Y-128540045D01*
X170668873Y-128617856D01*
X170574623Y-128726626D01*
X170574622Y-128726628D01*
X170514834Y-128857543D01*
X170494353Y-129000000D01*
X169283810Y-129000000D01*
X169215804Y-128980032D01*
X169157025Y-128942258D01*
X169128000Y-128878702D01*
X169128000Y-128843410D01*
X169130647Y-128825000D01*
X169110165Y-128682543D01*
X169050377Y-128551627D01*
X168956128Y-128442857D01*
X168835053Y-128365047D01*
X168835051Y-128365046D01*
X168835049Y-128365045D01*
X168835050Y-128365045D01*
X168696963Y-128324500D01*
X168696961Y-128324500D01*
X168553039Y-128324500D01*
X168553036Y-128324500D01*
X168414949Y-128365045D01*
X168293873Y-128442856D01*
X168218713Y-128529596D01*
X168159935Y-128567370D01*
X168090065Y-128567370D01*
X168031287Y-128529596D01*
X168020693Y-128517370D01*
X167956128Y-128442857D01*
X167835053Y-128365047D01*
X167835051Y-128365046D01*
X167835049Y-128365045D01*
X167835050Y-128365045D01*
X167696963Y-128324500D01*
X167696961Y-128324500D01*
X167553039Y-128324500D01*
X167553036Y-128324500D01*
X167414949Y-128365045D01*
X167293873Y-128442856D01*
X167218713Y-128529596D01*
X167159935Y-128567370D01*
X167090065Y-128567370D01*
X167031287Y-128529596D01*
X167020693Y-128517370D01*
X166956128Y-128442857D01*
X166835053Y-128365047D01*
X166835051Y-128365046D01*
X166835049Y-128365045D01*
X166835050Y-128365045D01*
X166696963Y-128324500D01*
X166696961Y-128324500D01*
X166553039Y-128324500D01*
X166553036Y-128324500D01*
X166414949Y-128365045D01*
X166293873Y-128442856D01*
X166199623Y-128551626D01*
X166199622Y-128551628D01*
X166139834Y-128682543D01*
X166119353Y-128825000D01*
X166119353Y-128825004D01*
X166121999Y-128843411D01*
X166112054Y-128912570D01*
X166066298Y-128965372D01*
X166034196Y-128980032D01*
X165914948Y-129015045D01*
X165793873Y-129092856D01*
X165699623Y-129201626D01*
X165699622Y-129201628D01*
X165639834Y-129332543D01*
X165619353Y-129475000D01*
X136000500Y-129475000D01*
X136000500Y-126250000D01*
X163694353Y-126250000D01*
X163714834Y-126392456D01*
X163755890Y-126482354D01*
X163774623Y-126523373D01*
X163868872Y-126632143D01*
X163989947Y-126709953D01*
X163989950Y-126709954D01*
X163989949Y-126709954D01*
X164128036Y-126750499D01*
X164128038Y-126750500D01*
X164128039Y-126750500D01*
X164271962Y-126750500D01*
X164271962Y-126750499D01*
X164410053Y-126709953D01*
X164531128Y-126632143D01*
X164625377Y-126523373D01*
X164685165Y-126392457D01*
X164705647Y-126250000D01*
X164685165Y-126107543D01*
X164636051Y-126000000D01*
X166494353Y-126000000D01*
X166514834Y-126142456D01*
X166563949Y-126250000D01*
X166574623Y-126273373D01*
X166668872Y-126382143D01*
X166676324Y-126386932D01*
X166689943Y-126395685D01*
X166735698Y-126448489D01*
X166745641Y-126517648D01*
X166716615Y-126581203D01*
X166689943Y-126604315D01*
X166668874Y-126617855D01*
X166574623Y-126726626D01*
X166574622Y-126726628D01*
X166514834Y-126857543D01*
X166494353Y-127000000D01*
X166514834Y-127142456D01*
X166567433Y-127257629D01*
X166574623Y-127273373D01*
X166668872Y-127382143D01*
X166789947Y-127459953D01*
X166789950Y-127459954D01*
X166789949Y-127459954D01*
X166928036Y-127500499D01*
X166928038Y-127500500D01*
X166928039Y-127500500D01*
X167071962Y-127500500D01*
X167071962Y-127500499D01*
X167210053Y-127459953D01*
X167331128Y-127382143D01*
X167406287Y-127295403D01*
X167465064Y-127257629D01*
X167534934Y-127257629D01*
X167593711Y-127295402D01*
X167668872Y-127382143D01*
X167789947Y-127459953D01*
X167789950Y-127459954D01*
X167789949Y-127459954D01*
X167928036Y-127500499D01*
X167928038Y-127500500D01*
X167928039Y-127500500D01*
X168071962Y-127500500D01*
X168071962Y-127500499D01*
X168210053Y-127459953D01*
X168331128Y-127382143D01*
X168406287Y-127295403D01*
X168465064Y-127257629D01*
X168534934Y-127257629D01*
X168593711Y-127295402D01*
X168668872Y-127382143D01*
X168789947Y-127459953D01*
X168789950Y-127459954D01*
X168789949Y-127459954D01*
X168928036Y-127500499D01*
X168928038Y-127500500D01*
X168928039Y-127500500D01*
X169071962Y-127500500D01*
X169071962Y-127500499D01*
X169210053Y-127459953D01*
X169331128Y-127382143D01*
X169406287Y-127295403D01*
X169465064Y-127257629D01*
X169534934Y-127257629D01*
X169593711Y-127295402D01*
X169668872Y-127382143D01*
X169789947Y-127459953D01*
X169789950Y-127459954D01*
X169789949Y-127459954D01*
X169928036Y-127500499D01*
X169928038Y-127500500D01*
X169928039Y-127500500D01*
X170071962Y-127500500D01*
X170071962Y-127500499D01*
X170210053Y-127459953D01*
X170331128Y-127382143D01*
X170406287Y-127295403D01*
X170465064Y-127257629D01*
X170534934Y-127257629D01*
X170593711Y-127295402D01*
X170668872Y-127382143D01*
X170789947Y-127459953D01*
X170789950Y-127459954D01*
X170789949Y-127459954D01*
X170928036Y-127500499D01*
X170928038Y-127500500D01*
X170928039Y-127500500D01*
X171071962Y-127500500D01*
X171071962Y-127500499D01*
X171210053Y-127459953D01*
X171331128Y-127382143D01*
X171406287Y-127295403D01*
X171465064Y-127257629D01*
X171534934Y-127257629D01*
X171593711Y-127295402D01*
X171668872Y-127382143D01*
X171789947Y-127459953D01*
X171789950Y-127459954D01*
X171789949Y-127459954D01*
X171928036Y-127500499D01*
X171928038Y-127500500D01*
X171928039Y-127500500D01*
X172071962Y-127500500D01*
X172071962Y-127500499D01*
X172210053Y-127459953D01*
X172331128Y-127382143D01*
X172425377Y-127273373D01*
X172485165Y-127142457D01*
X172505647Y-127000000D01*
X172485165Y-126857543D01*
X172425377Y-126726627D01*
X172331128Y-126617857D01*
X172331125Y-126617855D01*
X172331125Y-126617854D01*
X172310058Y-126604316D01*
X172264302Y-126551513D01*
X172254358Y-126482354D01*
X172283382Y-126418798D01*
X172310058Y-126395684D01*
X172331125Y-126382145D01*
X172331125Y-126382144D01*
X172331128Y-126382143D01*
X172425377Y-126273373D01*
X172485165Y-126142457D01*
X172505647Y-126000000D01*
X172485165Y-125857543D01*
X172479811Y-125845821D01*
X172469868Y-125776664D01*
X172498893Y-125713108D01*
X172557669Y-125675334D01*
X172610053Y-125659953D01*
X172682961Y-125613098D01*
X172750000Y-125593414D01*
X172817039Y-125613098D01*
X172889947Y-125659953D01*
X172889950Y-125659954D01*
X172889949Y-125659954D01*
X173028036Y-125700499D01*
X173028038Y-125700500D01*
X173028039Y-125700500D01*
X173171962Y-125700500D01*
X173171962Y-125700499D01*
X173310053Y-125659953D01*
X173431128Y-125582143D01*
X173525377Y-125473373D01*
X173585165Y-125342457D01*
X173605647Y-125200000D01*
X173585165Y-125057543D01*
X173558886Y-125000000D01*
X174494353Y-125000000D01*
X174514834Y-125142456D01*
X174541114Y-125200000D01*
X174574623Y-125273373D01*
X174668872Y-125382143D01*
X174676324Y-125386932D01*
X174689943Y-125395685D01*
X174735698Y-125448489D01*
X174745641Y-125517648D01*
X174716615Y-125581203D01*
X174689943Y-125604315D01*
X174668874Y-125617855D01*
X174574623Y-125726626D01*
X174574622Y-125726628D01*
X174514834Y-125857543D01*
X174494353Y-126000000D01*
X174514834Y-126142456D01*
X174563949Y-126250000D01*
X174574623Y-126273373D01*
X174668872Y-126382143D01*
X174676324Y-126386932D01*
X174689943Y-126395685D01*
X174735698Y-126448489D01*
X174745641Y-126517648D01*
X174716615Y-126581203D01*
X174689943Y-126604315D01*
X174668874Y-126617855D01*
X174574623Y-126726626D01*
X174574622Y-126726628D01*
X174514834Y-126857543D01*
X174494353Y-127000000D01*
X174514834Y-127142456D01*
X174567433Y-127257629D01*
X174574623Y-127273373D01*
X174668872Y-127382143D01*
X174789947Y-127459953D01*
X174789950Y-127459954D01*
X174789949Y-127459954D01*
X174928036Y-127500499D01*
X174928038Y-127500500D01*
X174928039Y-127500500D01*
X175071962Y-127500500D01*
X175071962Y-127500499D01*
X175210053Y-127459953D01*
X175331128Y-127382143D01*
X175406287Y-127295403D01*
X175465064Y-127257629D01*
X175534934Y-127257629D01*
X175593711Y-127295402D01*
X175668872Y-127382143D01*
X175789947Y-127459953D01*
X175789950Y-127459954D01*
X175789949Y-127459954D01*
X175928036Y-127500499D01*
X175928038Y-127500500D01*
X175928039Y-127500500D01*
X176071962Y-127500500D01*
X176071962Y-127500499D01*
X176210053Y-127459953D01*
X176331128Y-127382143D01*
X176406287Y-127295403D01*
X176465064Y-127257629D01*
X176534934Y-127257629D01*
X176593711Y-127295402D01*
X176668872Y-127382143D01*
X176789947Y-127459953D01*
X176789950Y-127459954D01*
X176789949Y-127459954D01*
X176928036Y-127500499D01*
X176928038Y-127500500D01*
X176928039Y-127500500D01*
X177071962Y-127500500D01*
X177071962Y-127500499D01*
X177210053Y-127459953D01*
X177331128Y-127382143D01*
X177406287Y-127295403D01*
X177465064Y-127257629D01*
X177534934Y-127257629D01*
X177593711Y-127295402D01*
X177668872Y-127382143D01*
X177789947Y-127459953D01*
X177789950Y-127459954D01*
X177789949Y-127459954D01*
X177928036Y-127500499D01*
X177928038Y-127500500D01*
X177928039Y-127500500D01*
X178071962Y-127500500D01*
X178071962Y-127500499D01*
X178210053Y-127459953D01*
X178331128Y-127382143D01*
X178425377Y-127273373D01*
X178485165Y-127142457D01*
X178505647Y-127000000D01*
X178485165Y-126857543D01*
X178425377Y-126726627D01*
X178331128Y-126617857D01*
X178331125Y-126617855D01*
X178331125Y-126617854D01*
X178310058Y-126604316D01*
X178264302Y-126551513D01*
X178254358Y-126482354D01*
X178283382Y-126418798D01*
X178310058Y-126395684D01*
X178331125Y-126382145D01*
X178331125Y-126382144D01*
X178331128Y-126382143D01*
X178425377Y-126273373D01*
X178485165Y-126142457D01*
X178505647Y-126000000D01*
X178485165Y-125857543D01*
X178425377Y-125726627D01*
X178331128Y-125617857D01*
X178331125Y-125617855D01*
X178331125Y-125617854D01*
X178310058Y-125604316D01*
X178264302Y-125551513D01*
X178254358Y-125482354D01*
X178283382Y-125418798D01*
X178310058Y-125395684D01*
X178331125Y-125382145D01*
X178331125Y-125382144D01*
X178331128Y-125382143D01*
X178425377Y-125273373D01*
X178485165Y-125142457D01*
X178505647Y-125000000D01*
X178485165Y-124857543D01*
X178425377Y-124726627D01*
X178331128Y-124617857D01*
X178210053Y-124540047D01*
X178210051Y-124540046D01*
X178210049Y-124540045D01*
X178210050Y-124540045D01*
X178071963Y-124499500D01*
X178071961Y-124499500D01*
X177928039Y-124499500D01*
X177928036Y-124499500D01*
X177789949Y-124540045D01*
X177668873Y-124617856D01*
X177668872Y-124617856D01*
X177668872Y-124617857D01*
X177598129Y-124699500D01*
X177593713Y-124704596D01*
X177534935Y-124742370D01*
X177465065Y-124742370D01*
X177406287Y-124704596D01*
X177406044Y-124704315D01*
X177331128Y-124617857D01*
X177210053Y-124540047D01*
X177210051Y-124540046D01*
X177210049Y-124540045D01*
X177210050Y-124540045D01*
X177071963Y-124499500D01*
X177071961Y-124499500D01*
X176928039Y-124499500D01*
X176928036Y-124499500D01*
X176789949Y-124540045D01*
X176668873Y-124617856D01*
X176668872Y-124617856D01*
X176668872Y-124617857D01*
X176598129Y-124699500D01*
X176593713Y-124704596D01*
X176534935Y-124742370D01*
X176465065Y-124742370D01*
X176406287Y-124704596D01*
X176406044Y-124704315D01*
X176331128Y-124617857D01*
X176210053Y-124540047D01*
X176210051Y-124540046D01*
X176210049Y-124540045D01*
X176210050Y-124540045D01*
X176071963Y-124499500D01*
X176071961Y-124499500D01*
X175928039Y-124499500D01*
X175928036Y-124499500D01*
X175789949Y-124540045D01*
X175668873Y-124617856D01*
X175668872Y-124617856D01*
X175668872Y-124617857D01*
X175598129Y-124699500D01*
X175593713Y-124704596D01*
X175534935Y-124742370D01*
X175465065Y-124742370D01*
X175406287Y-124704596D01*
X175406044Y-124704315D01*
X175331128Y-124617857D01*
X175210053Y-124540047D01*
X175210051Y-124540046D01*
X175210049Y-124540045D01*
X175210050Y-124540045D01*
X175071963Y-124499500D01*
X175071961Y-124499500D01*
X174928039Y-124499500D01*
X174928036Y-124499500D01*
X174789949Y-124540045D01*
X174668873Y-124617856D01*
X174574623Y-124726626D01*
X174574622Y-124726628D01*
X174514834Y-124857543D01*
X174494353Y-125000000D01*
X173558886Y-125000000D01*
X173525377Y-124926627D01*
X173431128Y-124817857D01*
X173310053Y-124740047D01*
X173310051Y-124740046D01*
X173310049Y-124740045D01*
X173310050Y-124740045D01*
X173238296Y-124718977D01*
X173179518Y-124681203D01*
X173150492Y-124617648D01*
X173160435Y-124548489D01*
X173206190Y-124495685D01*
X173238296Y-124481023D01*
X173310050Y-124459954D01*
X173310050Y-124459953D01*
X173310053Y-124459953D01*
X173431128Y-124382143D01*
X173525377Y-124273373D01*
X173585165Y-124142457D01*
X173605647Y-124000000D01*
X173585165Y-123857543D01*
X173525377Y-123726627D01*
X173431128Y-123617857D01*
X173310053Y-123540047D01*
X173310051Y-123540046D01*
X173310049Y-123540045D01*
X173310050Y-123540045D01*
X173171963Y-123499500D01*
X173171961Y-123499500D01*
X173028039Y-123499500D01*
X173028036Y-123499500D01*
X172889949Y-123540045D01*
X172817039Y-123586902D01*
X172750000Y-123606586D01*
X172682961Y-123586902D01*
X172636983Y-123557354D01*
X172610053Y-123540047D01*
X172610051Y-123540046D01*
X172610049Y-123540045D01*
X172610050Y-123540045D01*
X172471963Y-123499500D01*
X172471961Y-123499500D01*
X172328039Y-123499500D01*
X172328036Y-123499500D01*
X172189949Y-123540045D01*
X172117039Y-123586902D01*
X172050000Y-123606586D01*
X171982961Y-123586902D01*
X171936983Y-123557354D01*
X171910053Y-123540047D01*
X171910051Y-123540046D01*
X171910049Y-123540045D01*
X171910050Y-123540045D01*
X171771963Y-123499500D01*
X171771961Y-123499500D01*
X171628039Y-123499500D01*
X171628036Y-123499500D01*
X171489949Y-123540045D01*
X171368873Y-123617856D01*
X171368872Y-123617856D01*
X171368872Y-123617857D01*
X171361273Y-123626627D01*
X171274623Y-123726626D01*
X171274622Y-123726628D01*
X171214834Y-123857543D01*
X171194353Y-124000000D01*
X171214834Y-124142456D01*
X171228953Y-124173371D01*
X171274623Y-124273373D01*
X171368872Y-124382143D01*
X171417039Y-124413098D01*
X171489948Y-124459954D01*
X171561704Y-124481023D01*
X171620482Y-124518797D01*
X171649507Y-124582353D01*
X171639563Y-124651511D01*
X171593809Y-124704315D01*
X171561704Y-124718977D01*
X171489948Y-124740045D01*
X171368873Y-124817856D01*
X171274623Y-124926626D01*
X171274622Y-124926628D01*
X171214834Y-125057543D01*
X171194353Y-125200000D01*
X171214835Y-125342458D01*
X171214917Y-125342737D01*
X171214917Y-125343027D01*
X171216097Y-125351235D01*
X171214917Y-125351404D01*
X171214917Y-125412607D01*
X171177143Y-125471385D01*
X171113587Y-125500410D01*
X171078297Y-125500410D01*
X171071966Y-125499500D01*
X171071961Y-125499500D01*
X170928039Y-125499500D01*
X170928036Y-125499500D01*
X170789949Y-125540045D01*
X170668873Y-125617856D01*
X170593713Y-125704596D01*
X170534935Y-125742370D01*
X170465065Y-125742370D01*
X170406287Y-125704596D01*
X170402737Y-125700499D01*
X170331128Y-125617857D01*
X170210053Y-125540047D01*
X170210051Y-125540046D01*
X170210049Y-125540045D01*
X170210050Y-125540045D01*
X170071963Y-125499500D01*
X170071961Y-125499500D01*
X169928039Y-125499500D01*
X169928036Y-125499500D01*
X169789949Y-125540045D01*
X169668873Y-125617856D01*
X169593713Y-125704596D01*
X169534935Y-125742370D01*
X169465065Y-125742370D01*
X169406287Y-125704596D01*
X169402737Y-125700499D01*
X169331128Y-125617857D01*
X169210053Y-125540047D01*
X169210051Y-125540046D01*
X169210049Y-125540045D01*
X169210050Y-125540045D01*
X169071963Y-125499500D01*
X169071961Y-125499500D01*
X168928039Y-125499500D01*
X168928036Y-125499500D01*
X168789949Y-125540045D01*
X168668873Y-125617856D01*
X168593713Y-125704596D01*
X168534935Y-125742370D01*
X168465065Y-125742370D01*
X168406287Y-125704596D01*
X168402737Y-125700499D01*
X168331128Y-125617857D01*
X168210053Y-125540047D01*
X168210051Y-125540046D01*
X168210049Y-125540045D01*
X168210050Y-125540045D01*
X168071963Y-125499500D01*
X168071961Y-125499500D01*
X167928039Y-125499500D01*
X167928036Y-125499500D01*
X167789949Y-125540045D01*
X167668873Y-125617856D01*
X167593713Y-125704596D01*
X167534935Y-125742370D01*
X167465065Y-125742370D01*
X167406287Y-125704596D01*
X167402737Y-125700499D01*
X167331128Y-125617857D01*
X167210053Y-125540047D01*
X167210051Y-125540046D01*
X167210049Y-125540045D01*
X167210050Y-125540045D01*
X167071963Y-125499500D01*
X167071961Y-125499500D01*
X166928039Y-125499500D01*
X166928036Y-125499500D01*
X166789949Y-125540045D01*
X166668873Y-125617856D01*
X166574623Y-125726626D01*
X166574622Y-125726628D01*
X166514834Y-125857543D01*
X166494353Y-126000000D01*
X164636051Y-126000000D01*
X164625377Y-125976627D01*
X164531128Y-125867857D01*
X164410053Y-125790047D01*
X164410051Y-125790046D01*
X164410049Y-125790045D01*
X164410050Y-125790045D01*
X164271963Y-125749500D01*
X164271961Y-125749500D01*
X164128039Y-125749500D01*
X164128036Y-125749500D01*
X163989949Y-125790045D01*
X163868873Y-125867856D01*
X163774623Y-125976626D01*
X163774622Y-125976628D01*
X163714834Y-126107543D01*
X163694353Y-126250000D01*
X136000500Y-126250000D01*
X136000500Y-120329500D01*
X136020185Y-120262461D01*
X136072989Y-120216706D01*
X136124500Y-120205500D01*
X165386906Y-120205500D01*
X165416152Y-120203408D01*
X165416155Y-120203407D01*
X165416162Y-120203407D01*
X165442992Y-120199549D01*
X165512151Y-120209490D01*
X165564956Y-120255244D01*
X165573443Y-120270790D01*
X165574682Y-120273504D01*
X165584616Y-120342664D01*
X165574675Y-120376512D01*
X165514834Y-120507543D01*
X165494353Y-120650000D01*
X165514834Y-120792456D01*
X165574675Y-120923488D01*
X165584619Y-120992647D01*
X165574675Y-121026512D01*
X165514834Y-121157543D01*
X165494353Y-121300000D01*
X165514834Y-121442456D01*
X165574675Y-121573488D01*
X165584619Y-121642647D01*
X165574675Y-121676512D01*
X165514834Y-121807543D01*
X165494353Y-121950000D01*
X165514834Y-122092456D01*
X165574675Y-122223488D01*
X165584619Y-122292647D01*
X165574675Y-122326512D01*
X165514834Y-122457543D01*
X165494353Y-122600000D01*
X165514834Y-122742456D01*
X165574675Y-122873488D01*
X165584619Y-122942647D01*
X165574675Y-122976512D01*
X165514834Y-123107543D01*
X165494353Y-123250000D01*
X165514834Y-123392456D01*
X165574675Y-123523488D01*
X165584619Y-123592647D01*
X165574675Y-123626512D01*
X165514834Y-123757543D01*
X165494353Y-123900000D01*
X165514834Y-124042456D01*
X165560504Y-124142457D01*
X165574623Y-124173373D01*
X165668872Y-124282143D01*
X165789947Y-124359953D01*
X165789950Y-124359954D01*
X165789949Y-124359954D01*
X165928036Y-124400499D01*
X165928038Y-124400500D01*
X165928039Y-124400500D01*
X166071962Y-124400500D01*
X166071962Y-124400499D01*
X166210053Y-124359953D01*
X166331128Y-124282143D01*
X166425377Y-124173373D01*
X166485165Y-124042457D01*
X166505647Y-123900000D01*
X166485165Y-123757543D01*
X166425377Y-123626627D01*
X166425375Y-123626625D01*
X166425324Y-123626512D01*
X166415380Y-123557354D01*
X166425324Y-123523488D01*
X166431300Y-123510404D01*
X166485165Y-123392457D01*
X166505647Y-123250000D01*
X166485165Y-123107543D01*
X166425377Y-122976627D01*
X166425375Y-122976625D01*
X166425324Y-122976512D01*
X166415380Y-122907354D01*
X166425324Y-122873488D01*
X166438807Y-122843966D01*
X166485165Y-122742457D01*
X166505647Y-122600000D01*
X166485165Y-122457543D01*
X166425377Y-122326627D01*
X166425375Y-122326625D01*
X166425324Y-122326512D01*
X166415380Y-122257354D01*
X166425324Y-122223488D01*
X166441597Y-122187857D01*
X166485165Y-122092457D01*
X166505647Y-121950000D01*
X166485165Y-121807543D01*
X166425377Y-121676627D01*
X166425375Y-121676625D01*
X166425324Y-121676512D01*
X166415380Y-121607354D01*
X166425324Y-121573488D01*
X166432644Y-121557461D01*
X166485165Y-121442457D01*
X166505647Y-121300000D01*
X166485165Y-121157543D01*
X166425377Y-121026627D01*
X166425375Y-121026625D01*
X166425324Y-121026512D01*
X166415380Y-120957354D01*
X166425324Y-120923488D01*
X166431463Y-120910047D01*
X166485165Y-120792457D01*
X166505647Y-120650000D01*
X166485165Y-120507543D01*
X166425377Y-120376627D01*
X166425376Y-120376626D01*
X166425324Y-120376511D01*
X166415380Y-120307352D01*
X166425323Y-120273488D01*
X166425373Y-120273376D01*
X166425377Y-120273373D01*
X166427471Y-120268787D01*
X166473223Y-120215987D01*
X166540262Y-120196302D01*
X166557903Y-120197564D01*
X166613094Y-120205500D01*
X166613095Y-120205500D01*
X167282038Y-120205500D01*
X167349077Y-120225185D01*
X167394832Y-120277989D01*
X167404776Y-120347147D01*
X167375751Y-120410702D01*
X167344625Y-120446622D01*
X167344622Y-120446628D01*
X167284834Y-120577543D01*
X167264353Y-120720000D01*
X167264353Y-120720004D01*
X167266999Y-120738411D01*
X167257054Y-120807570D01*
X167211298Y-120860372D01*
X167179196Y-120875032D01*
X167059948Y-120910045D01*
X166938873Y-120987856D01*
X166938872Y-120987856D01*
X166938872Y-120987857D01*
X166928350Y-121000000D01*
X166844623Y-121096626D01*
X166844622Y-121096628D01*
X166784834Y-121227543D01*
X166764353Y-121370000D01*
X166784834Y-121512456D01*
X166844291Y-121642647D01*
X166844623Y-121643373D01*
X166938872Y-121752143D01*
X167016683Y-121802148D01*
X167059948Y-121829954D01*
X167131704Y-121851023D01*
X167190482Y-121888797D01*
X167219507Y-121952353D01*
X167209563Y-122021511D01*
X167163809Y-122074315D01*
X167131704Y-122088977D01*
X167059948Y-122110045D01*
X166938873Y-122187856D01*
X166844623Y-122296626D01*
X166844622Y-122296628D01*
X166784834Y-122427543D01*
X166764353Y-122570000D01*
X166784834Y-122712456D01*
X166844622Y-122843371D01*
X166844623Y-122843373D01*
X166938872Y-122952143D01*
X167059947Y-123029953D01*
X167059950Y-123029954D01*
X167059949Y-123029954D01*
X167175876Y-123063993D01*
X167234655Y-123101767D01*
X167263680Y-123165322D01*
X167263680Y-123165323D01*
X167284834Y-123312456D01*
X167321370Y-123392457D01*
X167344623Y-123443373D01*
X167438872Y-123552143D01*
X167559947Y-123629953D01*
X167559950Y-123629954D01*
X167559949Y-123629954D01*
X167698036Y-123670499D01*
X167698038Y-123670500D01*
X167698039Y-123670500D01*
X167841962Y-123670500D01*
X167841962Y-123670499D01*
X167980053Y-123629953D01*
X168101128Y-123552143D01*
X168176287Y-123465403D01*
X168235064Y-123427629D01*
X168304934Y-123427629D01*
X168363711Y-123465402D01*
X168438872Y-123552143D01*
X168559947Y-123629953D01*
X168559950Y-123629954D01*
X168559949Y-123629954D01*
X168698036Y-123670499D01*
X168698038Y-123670500D01*
X168698039Y-123670500D01*
X168841962Y-123670500D01*
X168841962Y-123670499D01*
X168980053Y-123629953D01*
X169101128Y-123552143D01*
X169176287Y-123465403D01*
X169235064Y-123427629D01*
X169304934Y-123427629D01*
X169363711Y-123465402D01*
X169438872Y-123552143D01*
X169559947Y-123629953D01*
X169559950Y-123629954D01*
X169559949Y-123629954D01*
X169698036Y-123670499D01*
X169698038Y-123670500D01*
X169698039Y-123670500D01*
X169841962Y-123670500D01*
X169841962Y-123670499D01*
X169980053Y-123629953D01*
X170101128Y-123552143D01*
X170195377Y-123443373D01*
X170255165Y-123312457D01*
X170275647Y-123170000D01*
X170275646Y-123169998D01*
X170276319Y-123165324D01*
X170305344Y-123101768D01*
X170364122Y-123063993D01*
X170364123Y-123063993D01*
X170480050Y-123029954D01*
X170480050Y-123029953D01*
X170480053Y-123029953D01*
X170601128Y-122952143D01*
X170695377Y-122843373D01*
X170755165Y-122712457D01*
X170775647Y-122570000D01*
X170755165Y-122427543D01*
X170695377Y-122296627D01*
X170601128Y-122187857D01*
X170480053Y-122110047D01*
X170480050Y-122110045D01*
X170364122Y-122076006D01*
X170305344Y-122038232D01*
X170276319Y-121974676D01*
X170271239Y-121939345D01*
X170255165Y-121827543D01*
X170195377Y-121696627D01*
X170101128Y-121587857D01*
X169983803Y-121512457D01*
X169980050Y-121510045D01*
X169864122Y-121476006D01*
X169805344Y-121438232D01*
X169776319Y-121374676D01*
X169765582Y-121300000D01*
X169755165Y-121227543D01*
X169695377Y-121096627D01*
X169601128Y-120987857D01*
X169480053Y-120910047D01*
X169480051Y-120910046D01*
X169480049Y-120910045D01*
X169480050Y-120910045D01*
X169360804Y-120875032D01*
X169302025Y-120837258D01*
X169273000Y-120773702D01*
X169273000Y-120738410D01*
X169275647Y-120720000D01*
X169255165Y-120577543D01*
X169195377Y-120446627D01*
X169195375Y-120446625D01*
X169195374Y-120446622D01*
X169164249Y-120410702D01*
X169135224Y-120347146D01*
X169145168Y-120277988D01*
X169190923Y-120225184D01*
X169257962Y-120205500D01*
X170175500Y-120205500D01*
X170242539Y-120225185D01*
X170288294Y-120277989D01*
X170296699Y-120316628D01*
X170298439Y-120316400D01*
X170299499Y-120324456D01*
X170319979Y-120400887D01*
X170319980Y-120400888D01*
X170354081Y-120459953D01*
X170359540Y-120469408D01*
X170359542Y-120469411D01*
X171768154Y-121878022D01*
X171801639Y-121939345D01*
X171796655Y-122009037D01*
X171754783Y-122064970D01*
X171715416Y-122084678D01*
X171710935Y-122085993D01*
X171601950Y-122156033D01*
X171517118Y-122253937D01*
X171517117Y-122253938D01*
X171463302Y-122371774D01*
X171444867Y-122500000D01*
X171463302Y-122628225D01*
X171499487Y-122707457D01*
X171517118Y-122746063D01*
X171590624Y-122830895D01*
X171601434Y-122843371D01*
X171601951Y-122843967D01*
X171710931Y-122914004D01*
X171823795Y-122947143D01*
X171835225Y-122950499D01*
X171835227Y-122950500D01*
X171835228Y-122950500D01*
X171964773Y-122950500D01*
X171964773Y-122950499D01*
X172089069Y-122914004D01*
X172198049Y-122843967D01*
X172281287Y-122747902D01*
X172340064Y-122710129D01*
X172409933Y-122710128D01*
X172468710Y-122747901D01*
X172539901Y-122830061D01*
X172551434Y-122843371D01*
X172551951Y-122843967D01*
X172660931Y-122914004D01*
X172773795Y-122947143D01*
X172785225Y-122950499D01*
X172785227Y-122950500D01*
X172785228Y-122950500D01*
X172914773Y-122950500D01*
X172914773Y-122950499D01*
X173039069Y-122914004D01*
X173148049Y-122843967D01*
X173232882Y-122746063D01*
X173286697Y-122628226D01*
X173305133Y-122500000D01*
X173286697Y-122371774D01*
X173232882Y-122253937D01*
X173148049Y-122156033D01*
X173039069Y-122085996D01*
X173039067Y-122085995D01*
X173039065Y-122085994D01*
X172989566Y-122071460D01*
X172930788Y-122033686D01*
X172901763Y-121970130D01*
X172900501Y-121952483D01*
X172900501Y-121624500D01*
X172920186Y-121557461D01*
X172972990Y-121511706D01*
X173024501Y-121500500D01*
X173171962Y-121500500D01*
X173171962Y-121500499D01*
X173294567Y-121464500D01*
X173310050Y-121459954D01*
X173310050Y-121459953D01*
X173310053Y-121459953D01*
X173431128Y-121382143D01*
X173525377Y-121273373D01*
X173585165Y-121142457D01*
X173605647Y-121000000D01*
X173585165Y-120857543D01*
X173525377Y-120726627D01*
X173431128Y-120617857D01*
X173332253Y-120554314D01*
X173286500Y-120501512D01*
X173276556Y-120432354D01*
X173305581Y-120368798D01*
X173332251Y-120345686D01*
X173431128Y-120282143D01*
X173525377Y-120173373D01*
X173585165Y-120042457D01*
X173605647Y-119900000D01*
X173585165Y-119757543D01*
X173569096Y-119722358D01*
X173559153Y-119653204D01*
X173588177Y-119589648D01*
X173646954Y-119551872D01*
X173716824Y-119551871D01*
X173763094Y-119577137D01*
G37*
G04 #@! TD.AperFunction*
G04 #@! TA.AperFunction,Conductor*
G36*
X173579891Y-118878034D02*
G01*
X173625648Y-118930836D01*
X173635593Y-118999994D01*
X173625650Y-119033860D01*
X173614836Y-119057538D01*
X173614834Y-119057547D01*
X173594353Y-119200000D01*
X173614834Y-119342456D01*
X173630902Y-119377638D01*
X173640846Y-119446796D01*
X173611821Y-119510352D01*
X173553044Y-119548127D01*
X173483174Y-119548127D01*
X173436905Y-119522863D01*
X173431127Y-119517856D01*
X173361909Y-119473373D01*
X173310053Y-119440047D01*
X173310051Y-119440046D01*
X173310049Y-119440045D01*
X173310050Y-119440045D01*
X173171963Y-119399500D01*
X173171961Y-119399500D01*
X173028039Y-119399500D01*
X173028035Y-119399500D01*
X173023258Y-119400903D01*
X172953389Y-119400901D01*
X172894612Y-119363125D01*
X172865589Y-119299569D01*
X172875534Y-119230410D01*
X172921291Y-119177608D01*
X172930016Y-119172491D01*
X172937602Y-119168447D01*
X172937608Y-119168446D01*
X173011377Y-119114387D01*
X173057131Y-119061583D01*
X173072397Y-119041617D01*
X173086489Y-119004981D01*
X173128928Y-118949480D01*
X173194639Y-118925732D01*
X173202222Y-118925500D01*
X173296962Y-118925500D01*
X173296962Y-118925499D01*
X173435053Y-118884953D01*
X173445813Y-118878037D01*
X173512851Y-118858351D01*
X173579891Y-118878034D01*
G37*
G04 #@! TD.AperFunction*
G04 #@! TA.AperFunction,Conductor*
G36*
X172996213Y-110720185D02*
G01*
X173040889Y-110770690D01*
X173054611Y-110799178D01*
X173086948Y-110866318D01*
X173086949Y-110866319D01*
X173086950Y-110866321D01*
X173157120Y-110954303D01*
X173161183Y-110957543D01*
X173225015Y-111008446D01*
X173245106Y-111024467D01*
X173346499Y-111073295D01*
X173456214Y-111098338D01*
X173462923Y-111098338D01*
X173462947Y-111098340D01*
X173472931Y-111098340D01*
X173512481Y-111098340D01*
X173512482Y-111098340D01*
X173560077Y-111098342D01*
X173560080Y-111098340D01*
X173570056Y-111098341D01*
X173570081Y-111098340D01*
X173762002Y-111098340D01*
X173762848Y-111098284D01*
X173770735Y-111098285D01*
X173770850Y-111098286D01*
X173770850Y-111098285D01*
X173770853Y-111098286D01*
X173880578Y-111073267D01*
X173981984Y-111024457D01*
X174069985Y-110954304D01*
X174140167Y-110866327D01*
X174172516Y-110799178D01*
X174186244Y-110770683D01*
X174233073Y-110718830D01*
X174297956Y-110700500D01*
X201208481Y-110700500D01*
X201275520Y-110720185D01*
X201296162Y-110736819D01*
X202042162Y-111482819D01*
X202075647Y-111544142D01*
X202070663Y-111613834D01*
X202028791Y-111669767D01*
X201963327Y-111694184D01*
X201954481Y-111694500D01*
X172676332Y-111694500D01*
X172654352Y-111695678D01*
X172628005Y-111698511D01*
X172628003Y-111698512D01*
X172551492Y-111722470D01*
X172551487Y-111722471D01*
X172490159Y-111755960D01*
X172443355Y-111790998D01*
X172443341Y-111791010D01*
X172291004Y-111943346D01*
X172276325Y-111959687D01*
X172276313Y-111959701D01*
X172259672Y-111980350D01*
X172222509Y-112051395D01*
X172202826Y-112118427D01*
X172194500Y-112176336D01*
X172194500Y-112180210D01*
X172174815Y-112247249D01*
X172122011Y-112293004D01*
X172061667Y-112303894D01*
X172061060Y-112303851D01*
X172058817Y-112303691D01*
X172058811Y-112303690D01*
X172058801Y-112303690D01*
X172033666Y-112303434D01*
X172033665Y-112303434D01*
X172033662Y-112303434D01*
X171945659Y-112328302D01*
X171884329Y-112361791D01*
X171837522Y-112396831D01*
X171837501Y-112396849D01*
X171591513Y-112642836D01*
X171591512Y-112642837D01*
X171576825Y-112659187D01*
X171576813Y-112659201D01*
X171560174Y-112679849D01*
X171534375Y-112729169D01*
X171485859Y-112779448D01*
X171417862Y-112795515D01*
X171351972Y-112772270D01*
X171309110Y-112717092D01*
X171300500Y-112671693D01*
X171300500Y-111610438D01*
X171299148Y-111605394D01*
X171297711Y-111600031D01*
X171280022Y-111534012D01*
X171240460Y-111465489D01*
X170962132Y-111187161D01*
X170928647Y-111125838D01*
X170933631Y-111056146D01*
X170975503Y-111000213D01*
X171040967Y-110975796D01*
X171049813Y-110975480D01*
X171569627Y-110975480D01*
X171636666Y-110995165D01*
X171682421Y-111047969D01*
X171692365Y-111117127D01*
X171680113Y-111155770D01*
X171664119Y-111187161D01*
X171662498Y-111190343D01*
X171645131Y-111299997D01*
X171645131Y-111300002D01*
X171662498Y-111409658D01*
X171712904Y-111508585D01*
X171712909Y-111508592D01*
X171791407Y-111587090D01*
X171791410Y-111587092D01*
X171791413Y-111587095D01*
X171837227Y-111610438D01*
X171890341Y-111637501D01*
X171999998Y-111654869D01*
X172000000Y-111654869D01*
X172000002Y-111654869D01*
X172109658Y-111637501D01*
X172109659Y-111637500D01*
X172109661Y-111637500D01*
X172208587Y-111587095D01*
X172287095Y-111508587D01*
X172337500Y-111409661D01*
X172337500Y-111409659D01*
X172337501Y-111409658D01*
X172354869Y-111300002D01*
X172354869Y-111299997D01*
X172337501Y-111190341D01*
X172335881Y-111187161D01*
X172287095Y-111091413D01*
X172287092Y-111091410D01*
X172287090Y-111091407D01*
X172208592Y-111012909D01*
X172208586Y-111012904D01*
X172173770Y-110995165D01*
X172146178Y-110981106D01*
X172095384Y-110933134D01*
X172078588Y-110865314D01*
X172101125Y-110799178D01*
X172114788Y-110782947D01*
X172160918Y-110736818D01*
X172222241Y-110703334D01*
X172248598Y-110700500D01*
X172421563Y-110700500D01*
X172872931Y-110700500D01*
X172929174Y-110700500D01*
X172996213Y-110720185D01*
G37*
G04 #@! TD.AperFunction*
G04 #@! TA.AperFunction,Conductor*
G36*
X239442539Y-96520185D02*
G01*
X239488294Y-96572989D01*
X239499500Y-96624500D01*
X239499500Y-111052803D01*
X239479815Y-111119842D01*
X239427011Y-111165597D01*
X239357853Y-111175541D01*
X239343408Y-111172578D01*
X239343118Y-111172500D01*
X239343116Y-111172500D01*
X207387017Y-111172500D01*
X207319978Y-111152815D01*
X207299336Y-111136181D01*
X203202336Y-107039181D01*
X203168851Y-106977858D01*
X203173835Y-106908166D01*
X203215707Y-106852233D01*
X203281171Y-106827816D01*
X203290017Y-106827500D01*
X218464895Y-106827500D01*
X218531934Y-106847185D01*
X218558605Y-106870295D01*
X218568872Y-106882143D01*
X218689947Y-106959953D01*
X218689950Y-106959954D01*
X218689949Y-106959954D01*
X218828036Y-107000499D01*
X218828038Y-107000500D01*
X218828039Y-107000500D01*
X218971962Y-107000500D01*
X218971962Y-107000499D01*
X219110053Y-106959953D01*
X219231128Y-106882143D01*
X219325377Y-106773373D01*
X219385165Y-106642457D01*
X219405647Y-106500000D01*
X219385165Y-106357543D01*
X219325377Y-106226627D01*
X219231128Y-106117857D01*
X219110053Y-106040047D01*
X219110051Y-106040046D01*
X219110049Y-106040045D01*
X219110050Y-106040045D01*
X218971963Y-105999500D01*
X218971961Y-105999500D01*
X218828039Y-105999500D01*
X218828036Y-105999500D01*
X218689949Y-106040045D01*
X218568873Y-106117856D01*
X218568872Y-106117856D01*
X218568872Y-106117857D01*
X218558606Y-106129703D01*
X218499830Y-106167477D01*
X218464895Y-106172500D01*
X217790017Y-106172500D01*
X217722978Y-106152815D01*
X217677223Y-106100011D01*
X217667279Y-106030853D01*
X217696304Y-105967297D01*
X217702336Y-105960819D01*
X219299336Y-104363819D01*
X219360659Y-104330334D01*
X219387017Y-104327500D01*
X221564895Y-104327500D01*
X221631934Y-104347185D01*
X221658605Y-104370295D01*
X221668872Y-104382143D01*
X221789947Y-104459953D01*
X221789950Y-104459954D01*
X221789949Y-104459954D01*
X221928036Y-104500499D01*
X221928038Y-104500500D01*
X221928039Y-104500500D01*
X222071962Y-104500500D01*
X222071962Y-104500499D01*
X222193433Y-104464833D01*
X222210050Y-104459954D01*
X222210050Y-104459953D01*
X222210053Y-104459953D01*
X222331128Y-104382143D01*
X222425377Y-104273373D01*
X222485165Y-104142457D01*
X222505647Y-104000000D01*
X222485165Y-103857543D01*
X222425377Y-103726627D01*
X222331128Y-103617857D01*
X222210053Y-103540047D01*
X222210051Y-103540046D01*
X222210049Y-103540045D01*
X222210050Y-103540045D01*
X222071963Y-103499500D01*
X222071961Y-103499500D01*
X221928039Y-103499500D01*
X221928036Y-103499500D01*
X221789949Y-103540045D01*
X221668873Y-103617856D01*
X221668872Y-103617856D01*
X221668872Y-103617857D01*
X221658606Y-103629703D01*
X221599830Y-103667477D01*
X221564895Y-103672500D01*
X219151500Y-103672500D01*
X219084461Y-103652815D01*
X219038706Y-103600011D01*
X219027500Y-103548500D01*
X219027500Y-101932579D01*
X219047185Y-101865540D01*
X219057783Y-101851380D01*
X219125377Y-101773373D01*
X219185165Y-101642457D01*
X219205647Y-101500000D01*
X219185165Y-101357543D01*
X219125377Y-101226627D01*
X219031128Y-101117857D01*
X218910053Y-101040047D01*
X218910051Y-101040046D01*
X218910049Y-101040045D01*
X218910050Y-101040045D01*
X218771963Y-100999500D01*
X218771961Y-100999500D01*
X218628039Y-100999500D01*
X218628036Y-100999500D01*
X218489949Y-101040045D01*
X218368873Y-101117856D01*
X218274623Y-101226626D01*
X218274622Y-101226628D01*
X218214834Y-101357543D01*
X218194353Y-101500000D01*
X218214834Y-101642456D01*
X218258053Y-101737090D01*
X218274623Y-101773373D01*
X218342213Y-101851377D01*
X218371238Y-101914932D01*
X218372500Y-101932579D01*
X218372500Y-103412983D01*
X218352815Y-103480022D01*
X218336181Y-103500664D01*
X216631664Y-105205181D01*
X216570341Y-105238666D01*
X216543983Y-105241500D01*
X203414703Y-105241500D01*
X203347664Y-105221815D01*
X203327022Y-105205181D01*
X200861022Y-102739181D01*
X200827537Y-102677858D01*
X200832521Y-102608166D01*
X200874393Y-102552233D01*
X200939857Y-102527816D01*
X200948703Y-102527500D01*
X207606028Y-102527500D01*
X207673067Y-102547185D01*
X207718822Y-102599989D01*
X207728766Y-102669147D01*
X207699742Y-102732700D01*
X207624116Y-102819978D01*
X207618355Y-102826627D01*
X207618354Y-102826628D01*
X207558566Y-102957543D01*
X207538085Y-103100000D01*
X207558566Y-103242456D01*
X207584845Y-103299998D01*
X207618355Y-103373373D01*
X207652677Y-103412983D01*
X207679378Y-103443798D01*
X207708402Y-103507354D01*
X207698458Y-103576512D01*
X207679378Y-103606202D01*
X207618355Y-103676627D01*
X207618354Y-103676628D01*
X207558566Y-103807543D01*
X207538085Y-103950000D01*
X207558566Y-104092456D01*
X207603269Y-104190339D01*
X207618355Y-104223373D01*
X207712604Y-104332143D01*
X207833679Y-104409953D01*
X207833682Y-104409954D01*
X207833681Y-104409954D01*
X207971768Y-104450499D01*
X207971770Y-104450500D01*
X207971771Y-104450500D01*
X208115694Y-104450500D01*
X208115694Y-104450499D01*
X208253785Y-104409953D01*
X208374860Y-104332143D01*
X208469109Y-104223373D01*
X208528897Y-104092457D01*
X208549379Y-103950000D01*
X208528897Y-103807543D01*
X208469109Y-103676627D01*
X208408085Y-103606201D01*
X208379061Y-103542647D01*
X208389005Y-103473489D01*
X208408083Y-103443800D01*
X208469109Y-103373373D01*
X208528897Y-103242457D01*
X208549379Y-103100000D01*
X208528897Y-102957543D01*
X208469109Y-102826627D01*
X208387721Y-102732700D01*
X208358698Y-102669147D01*
X208368642Y-102599989D01*
X208414396Y-102547185D01*
X208481436Y-102527500D01*
X213012983Y-102527500D01*
X213080022Y-102547185D01*
X213100664Y-102563819D01*
X214458034Y-103921189D01*
X214491519Y-103982512D01*
X214493091Y-103991223D01*
X214514834Y-104142456D01*
X214574622Y-104273371D01*
X214574623Y-104273373D01*
X214668872Y-104382143D01*
X214789947Y-104459953D01*
X214789950Y-104459954D01*
X214789949Y-104459954D01*
X214928036Y-104500499D01*
X214928038Y-104500500D01*
X214928039Y-104500500D01*
X215071962Y-104500500D01*
X215071962Y-104500499D01*
X215193433Y-104464833D01*
X215210050Y-104459954D01*
X215210050Y-104459953D01*
X215210053Y-104459953D01*
X215331128Y-104382143D01*
X215425377Y-104273373D01*
X215485165Y-104142457D01*
X215505647Y-104000000D01*
X215485165Y-103857543D01*
X215425377Y-103726627D01*
X215331128Y-103617857D01*
X215210053Y-103540047D01*
X215210051Y-103540046D01*
X215210049Y-103540045D01*
X215210050Y-103540045D01*
X215071963Y-103499500D01*
X215071961Y-103499500D01*
X215014017Y-103499500D01*
X214946978Y-103479815D01*
X214926336Y-103463181D01*
X213401091Y-101937936D01*
X213401090Y-101937935D01*
X213326410Y-101894819D01*
X213326411Y-101894819D01*
X213298645Y-101887379D01*
X213243116Y-101872500D01*
X213243114Y-101872500D01*
X212473055Y-101872500D01*
X212406016Y-101852815D01*
X212360261Y-101800011D01*
X212350317Y-101730853D01*
X212360261Y-101696988D01*
X212377796Y-101658592D01*
X212385165Y-101642457D01*
X212405647Y-101500000D01*
X212385165Y-101357543D01*
X212325377Y-101226627D01*
X212231128Y-101117857D01*
X212110053Y-101040047D01*
X212110051Y-101040046D01*
X212110049Y-101040045D01*
X212110050Y-101040045D01*
X211971963Y-100999500D01*
X211971961Y-100999500D01*
X211828039Y-100999500D01*
X211828036Y-100999500D01*
X211689949Y-101040045D01*
X211568873Y-101117856D01*
X211568872Y-101117856D01*
X211568872Y-101117857D01*
X211558606Y-101129703D01*
X211499830Y-101167477D01*
X211464895Y-101172500D01*
X195755063Y-101172500D01*
X195668831Y-101172500D01*
X195613301Y-101187379D01*
X195585536Y-101194819D01*
X195510858Y-101237934D01*
X195510855Y-101237936D01*
X194499642Y-102249149D01*
X194499640Y-102249152D01*
X194456525Y-102323830D01*
X194434206Y-102407126D01*
X194434206Y-103389939D01*
X194424767Y-103429256D01*
X194427221Y-103430054D01*
X194424205Y-103439335D01*
X194406837Y-103548994D01*
X194406837Y-103548998D01*
X194424204Y-103658654D01*
X194474610Y-103757581D01*
X194474615Y-103757588D01*
X194553113Y-103836086D01*
X194553116Y-103836088D01*
X194553119Y-103836091D01*
X194622843Y-103871617D01*
X194652047Y-103886497D01*
X194761704Y-103903865D01*
X194761706Y-103903865D01*
X194761708Y-103903865D01*
X194871364Y-103886497D01*
X194871365Y-103886496D01*
X194871367Y-103886496D01*
X194970293Y-103836091D01*
X195048801Y-103757583D01*
X195090865Y-103675026D01*
X195138835Y-103624234D01*
X195206656Y-103607438D01*
X195257637Y-103620837D01*
X195290339Y-103637500D01*
X195290341Y-103637500D01*
X195290343Y-103637501D01*
X195399998Y-103654869D01*
X195400000Y-103654869D01*
X195400002Y-103654869D01*
X195509658Y-103637501D01*
X195509659Y-103637500D01*
X195509661Y-103637500D01*
X195608587Y-103587095D01*
X195687095Y-103508587D01*
X195737500Y-103409661D01*
X195737500Y-103409659D01*
X195737501Y-103409658D01*
X195754869Y-103300002D01*
X195754869Y-103299998D01*
X195737500Y-103190339D01*
X195734485Y-103181058D01*
X195736938Y-103180260D01*
X195727500Y-103140943D01*
X195727500Y-102887017D01*
X195747185Y-102819978D01*
X195763819Y-102799336D01*
X195999336Y-102563819D01*
X196060659Y-102530334D01*
X196087017Y-102527500D01*
X198409983Y-102527500D01*
X198477022Y-102547185D01*
X198522777Y-102599989D01*
X198532721Y-102669147D01*
X198503696Y-102732703D01*
X198497664Y-102739181D01*
X197571617Y-103665226D01*
X197540233Y-103688029D01*
X197491413Y-103712905D01*
X197491407Y-103712909D01*
X197412909Y-103791407D01*
X197412904Y-103791414D01*
X197362498Y-103890341D01*
X197345131Y-103999997D01*
X197345131Y-104000002D01*
X197362498Y-104109658D01*
X197412904Y-104208585D01*
X197412909Y-104208592D01*
X197491407Y-104287090D01*
X197491410Y-104287092D01*
X197491413Y-104287095D01*
X197576727Y-104330564D01*
X197627524Y-104378538D01*
X197644319Y-104446359D01*
X197621782Y-104512494D01*
X197608114Y-104528730D01*
X196698910Y-105437935D01*
X196637936Y-105498908D01*
X196637934Y-105498911D01*
X196594819Y-105573589D01*
X196585442Y-105608585D01*
X196574292Y-105650199D01*
X196572500Y-105656885D01*
X196572500Y-105740943D01*
X196563061Y-105780260D01*
X196565515Y-105781058D01*
X196562499Y-105790339D01*
X196545131Y-105899998D01*
X196545131Y-105900002D01*
X196562498Y-106009658D01*
X196612904Y-106108585D01*
X196612909Y-106108592D01*
X196691407Y-106187090D01*
X196691410Y-106187092D01*
X196691413Y-106187095D01*
X196790339Y-106237500D01*
X196790341Y-106237501D01*
X196899998Y-106254869D01*
X196900000Y-106254869D01*
X196900002Y-106254869D01*
X197009658Y-106237501D01*
X197009659Y-106237500D01*
X197009661Y-106237500D01*
X197108587Y-106187095D01*
X197187095Y-106108587D01*
X197237500Y-106009661D01*
X197237500Y-106009659D01*
X197237501Y-106009658D01*
X197252954Y-105912090D01*
X197254869Y-105900000D01*
X197252212Y-105883229D01*
X197261165Y-105813939D01*
X197287001Y-105776152D01*
X197446056Y-105617097D01*
X197507377Y-105583614D01*
X197577069Y-105588598D01*
X197621416Y-105617099D01*
X197691407Y-105687090D01*
X197691410Y-105687092D01*
X197691413Y-105687095D01*
X197773062Y-105728697D01*
X197790341Y-105737501D01*
X197899998Y-105754869D01*
X197900000Y-105754869D01*
X197900002Y-105754869D01*
X198009658Y-105737501D01*
X198009659Y-105737500D01*
X198009661Y-105737500D01*
X198108587Y-105687095D01*
X198187095Y-105608587D01*
X198211970Y-105559765D01*
X198234770Y-105528383D01*
X199448166Y-104314987D01*
X199509488Y-104281504D01*
X199579180Y-104286488D01*
X199635113Y-104328360D01*
X199658319Y-104383270D01*
X199662499Y-104409658D01*
X199662499Y-104409659D01*
X199662500Y-104409661D01*
X199712905Y-104508587D01*
X199791413Y-104587095D01*
X199840231Y-104611968D01*
X199871617Y-104634772D01*
X206719664Y-111482819D01*
X206753149Y-111544142D01*
X206748165Y-111613834D01*
X206706293Y-111669767D01*
X206640829Y-111694184D01*
X206631983Y-111694500D01*
X204116001Y-111694500D01*
X204048962Y-111674815D01*
X204003207Y-111622011D01*
X203992001Y-111570500D01*
X203992001Y-110321386D01*
X203992001Y-110321385D01*
X203969682Y-110238091D01*
X203926566Y-110163411D01*
X203865591Y-110102436D01*
X201851090Y-108087935D01*
X201776410Y-108044819D01*
X201776411Y-108044819D01*
X201748645Y-108037379D01*
X201693116Y-108022500D01*
X201693114Y-108022500D01*
X179464339Y-108022500D01*
X179397300Y-108002815D01*
X179351545Y-107950011D01*
X179341866Y-107917899D01*
X179337501Y-107890341D01*
X179312572Y-107841415D01*
X179287095Y-107791413D01*
X179287092Y-107791410D01*
X179287090Y-107791407D01*
X179208592Y-107712909D01*
X179208588Y-107712906D01*
X179208587Y-107712905D01*
X179204743Y-107710946D01*
X179109658Y-107662498D01*
X179000002Y-107645131D01*
X178999998Y-107645131D01*
X178890341Y-107662498D01*
X178791414Y-107712904D01*
X178791407Y-107712909D01*
X178712909Y-107791407D01*
X178712904Y-107791414D01*
X178662498Y-107890341D01*
X178645131Y-107999997D01*
X178645131Y-108000002D01*
X178662498Y-108109658D01*
X178712904Y-108208585D01*
X178712909Y-108208592D01*
X178770189Y-108265872D01*
X178803674Y-108327195D01*
X178798690Y-108396887D01*
X178770189Y-108441234D01*
X178498242Y-108713182D01*
X178436922Y-108746666D01*
X178410563Y-108749500D01*
X175376376Y-108749500D01*
X175309337Y-108729815D01*
X175263582Y-108677011D01*
X175253638Y-108607853D01*
X175253902Y-108606103D01*
X175254869Y-108599997D01*
X175237501Y-108490341D01*
X175212480Y-108441234D01*
X175187095Y-108391413D01*
X175187092Y-108391410D01*
X175187090Y-108391407D01*
X175108592Y-108312909D01*
X175108588Y-108312906D01*
X175108587Y-108312905D01*
X175057932Y-108287095D01*
X175009658Y-108262498D01*
X174900002Y-108245131D01*
X174899998Y-108245131D01*
X174790341Y-108262498D01*
X174691414Y-108312904D01*
X174691407Y-108312909D01*
X174634127Y-108370190D01*
X174572804Y-108403675D01*
X174503112Y-108398691D01*
X174458765Y-108370190D01*
X174176511Y-108087936D01*
X174176510Y-108087935D01*
X174101830Y-108044819D01*
X174101831Y-108044819D01*
X174074065Y-108037379D01*
X174018536Y-108022500D01*
X174018534Y-108022500D01*
X167312017Y-108022500D01*
X167244978Y-108002815D01*
X167224336Y-107986181D01*
X167159772Y-107921617D01*
X167136967Y-107890229D01*
X167112096Y-107841415D01*
X167112095Y-107841413D01*
X167033587Y-107762905D01*
X167029743Y-107760946D01*
X166934658Y-107712498D01*
X166825002Y-107695131D01*
X166824998Y-107695131D01*
X166715341Y-107712498D01*
X166616414Y-107762904D01*
X166616407Y-107762909D01*
X166537909Y-107841407D01*
X166537904Y-107841414D01*
X166487498Y-107940341D01*
X166470131Y-108049997D01*
X166470131Y-108050002D01*
X166487498Y-108159658D01*
X166487500Y-108159661D01*
X166537905Y-108258587D01*
X166616413Y-108337095D01*
X166665231Y-108361968D01*
X166696617Y-108384772D01*
X166862935Y-108551090D01*
X166923910Y-108612065D01*
X166998590Y-108655181D01*
X167081884Y-108677500D01*
X173788403Y-108677500D01*
X173855442Y-108697185D01*
X173876084Y-108713819D01*
X173901860Y-108739595D01*
X173935345Y-108800918D01*
X173930361Y-108870610D01*
X173901860Y-108914957D01*
X173825409Y-108991407D01*
X173825404Y-108991414D01*
X173774998Y-109090341D01*
X173757631Y-109199997D01*
X173757631Y-109200002D01*
X173774998Y-109309658D01*
X173825404Y-109408585D01*
X173825409Y-109408592D01*
X173854636Y-109437819D01*
X173888121Y-109499142D01*
X173883137Y-109568834D01*
X173841265Y-109624767D01*
X173775801Y-109649184D01*
X173766955Y-109649500D01*
X173579612Y-109649500D01*
X173512573Y-109629815D01*
X173466818Y-109577011D01*
X173456874Y-109507853D01*
X173461682Y-109487179D01*
X173462501Y-109484658D01*
X173479869Y-109375002D01*
X173479869Y-109374997D01*
X173462501Y-109265341D01*
X173429208Y-109200000D01*
X173412095Y-109166413D01*
X173412092Y-109166410D01*
X173412090Y-109166407D01*
X173333592Y-109087909D01*
X173333588Y-109087906D01*
X173333587Y-109087905D01*
X173329743Y-109085946D01*
X173234658Y-109037498D01*
X173125002Y-109020131D01*
X173124998Y-109020131D01*
X173015341Y-109037498D01*
X172916414Y-109087904D01*
X172916407Y-109087909D01*
X172837909Y-109166407D01*
X172837904Y-109166414D01*
X172787498Y-109265341D01*
X172770131Y-109374997D01*
X172770131Y-109375002D01*
X172787498Y-109484658D01*
X172788318Y-109487179D01*
X172788410Y-109490413D01*
X172789026Y-109494300D01*
X172788523Y-109494379D01*
X172790315Y-109557020D01*
X172754236Y-109616854D01*
X172691536Y-109647683D01*
X172670388Y-109649500D01*
X171838708Y-109649500D01*
X171838708Y-109648149D01*
X171778089Y-109638697D01*
X171725833Y-109592317D01*
X171720460Y-109582830D01*
X171712095Y-109566413D01*
X171712093Y-109566411D01*
X171712090Y-109566407D01*
X171633592Y-109487909D01*
X171633588Y-109487906D01*
X171633587Y-109487905D01*
X171627214Y-109484658D01*
X171534658Y-109437498D01*
X171425002Y-109420131D01*
X171424998Y-109420131D01*
X171315341Y-109437498D01*
X171216414Y-109487904D01*
X171216410Y-109487906D01*
X171159126Y-109545191D01*
X171097802Y-109578675D01*
X171028111Y-109573690D01*
X170983764Y-109545190D01*
X170850635Y-109412061D01*
X170850627Y-109412055D01*
X170782118Y-109372502D01*
X170782113Y-109372499D01*
X170756636Y-109365672D01*
X170705685Y-109352020D01*
X165240173Y-109352020D01*
X165201959Y-109362259D01*
X165163744Y-109372499D01*
X165163739Y-109372502D01*
X165095230Y-109412055D01*
X165095222Y-109412061D01*
X164894103Y-109613181D01*
X164832780Y-109646666D01*
X164806422Y-109649500D01*
X162327256Y-109649500D01*
X162260217Y-109629815D01*
X162214462Y-109577011D01*
X162204518Y-109507854D01*
X162205647Y-109500001D01*
X162205523Y-109499142D01*
X162185165Y-109357543D01*
X162125377Y-109226627D01*
X162031128Y-109117857D01*
X161910053Y-109040047D01*
X161910051Y-109040046D01*
X161910049Y-109040045D01*
X161910050Y-109040045D01*
X161771963Y-108999500D01*
X161771961Y-108999500D01*
X161628039Y-108999500D01*
X161628036Y-108999500D01*
X161489949Y-109040045D01*
X161368873Y-109117856D01*
X161274623Y-109226626D01*
X161274622Y-109226628D01*
X161214834Y-109357543D01*
X161194353Y-109500000D01*
X161214834Y-109642456D01*
X161245033Y-109708581D01*
X161274623Y-109773373D01*
X161368872Y-109882143D01*
X161489947Y-109959953D01*
X161489950Y-109959954D01*
X161489949Y-109959954D01*
X161628036Y-110000499D01*
X161628038Y-110000500D01*
X161628039Y-110000500D01*
X161674167Y-110000500D01*
X161741206Y-110020185D01*
X161761848Y-110036819D01*
X161812348Y-110087319D01*
X161845833Y-110148642D01*
X161840849Y-110218334D01*
X161812348Y-110262681D01*
X161459541Y-110615487D01*
X161459537Y-110615492D01*
X161434099Y-110659552D01*
X161393758Y-110701862D01*
X161368869Y-110717858D01*
X161368869Y-110717859D01*
X161274625Y-110826622D01*
X161274622Y-110826628D01*
X161214834Y-110957543D01*
X161194353Y-111100000D01*
X161214834Y-111242456D01*
X161232975Y-111282178D01*
X161274623Y-111373373D01*
X161368872Y-111482143D01*
X161368873Y-111482143D01*
X161374680Y-111488845D01*
X161371952Y-111491208D01*
X161400454Y-111535524D01*
X161400478Y-111605394D01*
X161362724Y-111664185D01*
X161299178Y-111693232D01*
X161281489Y-111694500D01*
X136124500Y-111694500D01*
X136057461Y-111674815D01*
X136011706Y-111622011D01*
X136000500Y-111570500D01*
X136000500Y-107424997D01*
X175495131Y-107424997D01*
X175495131Y-107425002D01*
X175512498Y-107534658D01*
X175562904Y-107633585D01*
X175562909Y-107633592D01*
X175641407Y-107712090D01*
X175641410Y-107712092D01*
X175641413Y-107712095D01*
X175740339Y-107762500D01*
X175740341Y-107762501D01*
X175849998Y-107779869D01*
X175850000Y-107779869D01*
X175850002Y-107779869D01*
X175959658Y-107762501D01*
X175959659Y-107762500D01*
X175959661Y-107762500D01*
X176058587Y-107712095D01*
X176137095Y-107633587D01*
X176187500Y-107534661D01*
X176187500Y-107534659D01*
X176187501Y-107534658D01*
X176204869Y-107425002D01*
X176204869Y-107424997D01*
X176187501Y-107315341D01*
X176162393Y-107266063D01*
X176137095Y-107216413D01*
X176137092Y-107216410D01*
X176137090Y-107216407D01*
X176058592Y-107137909D01*
X176058588Y-107137906D01*
X176058587Y-107137905D01*
X176054743Y-107135946D01*
X175959658Y-107087498D01*
X175850002Y-107070131D01*
X175849998Y-107070131D01*
X175740341Y-107087498D01*
X175641414Y-107137904D01*
X175641407Y-107137909D01*
X175562909Y-107216407D01*
X175562904Y-107216414D01*
X175512498Y-107315341D01*
X175495131Y-107424997D01*
X136000500Y-107424997D01*
X136000500Y-104000000D01*
X142244353Y-104000000D01*
X142264834Y-104142456D01*
X142324622Y-104273371D01*
X142324623Y-104273373D01*
X142418872Y-104382143D01*
X142539947Y-104459953D01*
X142539950Y-104459954D01*
X142539949Y-104459954D01*
X142678036Y-104500499D01*
X142678038Y-104500500D01*
X142678039Y-104500500D01*
X142735983Y-104500500D01*
X142803022Y-104520185D01*
X142823664Y-104536819D01*
X145491935Y-107205090D01*
X145552910Y-107266065D01*
X145627590Y-107309181D01*
X145710884Y-107331500D01*
X145710886Y-107331500D01*
X156339114Y-107331500D01*
X156339116Y-107331500D01*
X156422410Y-107309181D01*
X156497090Y-107266065D01*
X157825868Y-105937287D01*
X175307841Y-105937287D01*
X175307841Y-105937292D01*
X175325208Y-106046948D01*
X175375614Y-106145875D01*
X175375619Y-106145882D01*
X175454117Y-106224380D01*
X175454120Y-106224382D01*
X175454123Y-106224385D01*
X175513952Y-106254869D01*
X175553051Y-106274791D01*
X175662708Y-106292159D01*
X175662710Y-106292159D01*
X175662712Y-106292159D01*
X175772368Y-106274791D01*
X175772369Y-106274790D01*
X175772371Y-106274790D01*
X175871297Y-106224385D01*
X175949805Y-106145877D01*
X176000210Y-106046951D01*
X176000210Y-106046949D01*
X176000211Y-106046948D01*
X176017579Y-105937292D01*
X176017579Y-105937287D01*
X176000211Y-105827631D01*
X175973980Y-105776149D01*
X175949805Y-105728703D01*
X175949802Y-105728700D01*
X175949800Y-105728697D01*
X175871302Y-105650199D01*
X175871298Y-105650196D01*
X175871297Y-105650195D01*
X175821843Y-105624997D01*
X176870131Y-105624997D01*
X176870131Y-105625002D01*
X176887498Y-105734658D01*
X176937904Y-105833585D01*
X176937909Y-105833592D01*
X177016407Y-105912090D01*
X177016410Y-105912092D01*
X177016413Y-105912095D01*
X177112040Y-105960819D01*
X177115341Y-105962501D01*
X177224998Y-105979869D01*
X177225000Y-105979869D01*
X177225002Y-105979869D01*
X177334658Y-105962501D01*
X177334659Y-105962500D01*
X177334661Y-105962500D01*
X177433587Y-105912095D01*
X177512095Y-105833587D01*
X177562500Y-105734661D01*
X177562500Y-105734659D01*
X177562501Y-105734658D01*
X177579869Y-105625002D01*
X177579869Y-105624997D01*
X177562501Y-105515341D01*
X177555645Y-105501886D01*
X177512095Y-105416413D01*
X177512092Y-105416410D01*
X177512090Y-105416407D01*
X177433592Y-105337909D01*
X177433588Y-105337906D01*
X177433587Y-105337905D01*
X177429743Y-105335946D01*
X177334658Y-105287498D01*
X177225002Y-105270131D01*
X177224998Y-105270131D01*
X177115341Y-105287498D01*
X177016414Y-105337904D01*
X177016407Y-105337909D01*
X176937909Y-105416407D01*
X176937904Y-105416414D01*
X176887498Y-105515341D01*
X176870131Y-105624997D01*
X175821843Y-105624997D01*
X175772368Y-105599788D01*
X175662712Y-105582421D01*
X175662708Y-105582421D01*
X175553051Y-105599788D01*
X175454124Y-105650194D01*
X175454117Y-105650199D01*
X175375619Y-105728697D01*
X175375614Y-105728704D01*
X175325208Y-105827631D01*
X175307841Y-105937287D01*
X157825868Y-105937287D01*
X158963158Y-104799997D01*
X165895131Y-104799997D01*
X165895131Y-104800002D01*
X165912498Y-104909658D01*
X165962904Y-105008585D01*
X165962909Y-105008592D01*
X166041407Y-105087090D01*
X166041410Y-105087092D01*
X166041413Y-105087095D01*
X166140339Y-105137500D01*
X166140341Y-105137501D01*
X166249998Y-105154869D01*
X166250000Y-105154869D01*
X166250002Y-105154869D01*
X166359658Y-105137501D01*
X166359659Y-105137500D01*
X166359661Y-105137500D01*
X166458587Y-105087095D01*
X166537095Y-105008587D01*
X166587500Y-104909661D01*
X166587500Y-104909659D01*
X166587501Y-104909658D01*
X166604869Y-104800002D01*
X166604869Y-104799997D01*
X166587501Y-104690341D01*
X166558586Y-104633592D01*
X166537095Y-104591413D01*
X166537092Y-104591410D01*
X166537090Y-104591407D01*
X166458592Y-104512909D01*
X166458588Y-104512906D01*
X166458587Y-104512905D01*
X166450112Y-104508587D01*
X166359658Y-104462498D01*
X166250002Y-104445131D01*
X166249998Y-104445131D01*
X166140341Y-104462498D01*
X166041414Y-104512904D01*
X166041407Y-104512909D01*
X165962909Y-104591407D01*
X165962904Y-104591414D01*
X165912498Y-104690341D01*
X165895131Y-104799997D01*
X158963158Y-104799997D01*
X161173205Y-102589950D01*
X161234528Y-102556465D01*
X161260886Y-102553631D01*
X161533852Y-102553631D01*
X161600891Y-102573316D01*
X161646646Y-102626120D01*
X161656590Y-102695278D01*
X161627565Y-102758834D01*
X161621533Y-102765312D01*
X160923664Y-103463181D01*
X160862341Y-103496666D01*
X160835983Y-103499500D01*
X160778036Y-103499500D01*
X160639949Y-103540045D01*
X160518873Y-103617856D01*
X160424623Y-103726626D01*
X160424622Y-103726628D01*
X160364834Y-103857543D01*
X160344353Y-104000000D01*
X160364834Y-104142456D01*
X160424622Y-104273371D01*
X160424623Y-104273373D01*
X160518872Y-104382143D01*
X160639947Y-104459953D01*
X160639950Y-104459954D01*
X160639949Y-104459954D01*
X160778036Y-104500499D01*
X160778038Y-104500500D01*
X160778039Y-104500500D01*
X160921962Y-104500500D01*
X160921962Y-104500499D01*
X161043433Y-104464833D01*
X161060050Y-104459954D01*
X161060050Y-104459953D01*
X161060053Y-104459953D01*
X161114446Y-104424997D01*
X175495131Y-104424997D01*
X175495131Y-104425002D01*
X175512498Y-104534658D01*
X175562904Y-104633585D01*
X175562909Y-104633592D01*
X175641407Y-104712090D01*
X175641410Y-104712092D01*
X175641413Y-104712095D01*
X175720713Y-104752500D01*
X175740341Y-104762501D01*
X175849998Y-104779869D01*
X175850000Y-104779869D01*
X175850002Y-104779869D01*
X175959658Y-104762501D01*
X175968940Y-104759485D01*
X175969737Y-104761939D01*
X176009057Y-104752500D01*
X190818114Y-104752500D01*
X190818116Y-104752500D01*
X190901410Y-104730181D01*
X190976090Y-104687065D01*
X191328383Y-104334770D01*
X191359765Y-104311970D01*
X191408587Y-104287095D01*
X191487095Y-104208587D01*
X191537500Y-104109661D01*
X191537500Y-104109659D01*
X191537501Y-104109658D01*
X191554869Y-104000002D01*
X191554869Y-103999997D01*
X191537501Y-103890341D01*
X191509857Y-103836086D01*
X191487095Y-103791413D01*
X191487092Y-103791410D01*
X191487090Y-103791407D01*
X191408592Y-103712909D01*
X191408588Y-103712906D01*
X191408587Y-103712905D01*
X191359765Y-103688029D01*
X191309658Y-103662498D01*
X191200002Y-103645131D01*
X191199998Y-103645131D01*
X191090341Y-103662498D01*
X190991414Y-103712904D01*
X190991407Y-103712909D01*
X190912909Y-103791407D01*
X190912905Y-103791413D01*
X190888029Y-103840233D01*
X190865226Y-103871617D01*
X190675662Y-104061182D01*
X190614342Y-104094666D01*
X190587983Y-104097500D01*
X176009057Y-104097500D01*
X175969737Y-104088060D01*
X175968940Y-104090515D01*
X175959658Y-104087498D01*
X175850002Y-104070131D01*
X175849998Y-104070131D01*
X175740341Y-104087498D01*
X175641414Y-104137904D01*
X175641407Y-104137909D01*
X175562909Y-104216407D01*
X175562904Y-104216414D01*
X175512498Y-104315341D01*
X175495131Y-104424997D01*
X161114446Y-104424997D01*
X161181128Y-104382143D01*
X161275377Y-104273373D01*
X161335165Y-104142457D01*
X161355647Y-104000000D01*
X161355646Y-103999996D01*
X161356908Y-103991223D01*
X161385932Y-103927667D01*
X161391950Y-103921203D01*
X162269205Y-103043950D01*
X162330528Y-103010465D01*
X162356886Y-103007631D01*
X171229169Y-103007631D01*
X171296208Y-103027316D01*
X171304658Y-103033257D01*
X171305665Y-103034030D01*
X171380345Y-103077146D01*
X171463639Y-103099465D01*
X171463641Y-103099465D01*
X173258229Y-103099465D01*
X173258231Y-103099465D01*
X173341525Y-103077146D01*
X173416205Y-103034030D01*
X173874565Y-102575670D01*
X173889339Y-102550079D01*
X173939905Y-102501864D01*
X174008511Y-102488639D01*
X174016125Y-102489605D01*
X174112498Y-102504869D01*
X174112500Y-102504869D01*
X174112502Y-102504869D01*
X174222158Y-102487501D01*
X174222159Y-102487500D01*
X174222161Y-102487500D01*
X174321087Y-102437095D01*
X174399595Y-102358587D01*
X174450000Y-102259661D01*
X174450000Y-102259659D01*
X174450001Y-102259658D01*
X174467369Y-102150002D01*
X174467369Y-102149998D01*
X174450000Y-102040339D01*
X174446985Y-102031058D01*
X174449438Y-102030260D01*
X174440000Y-101990943D01*
X174440000Y-101944805D01*
X174440000Y-101944804D01*
X174417681Y-101861510D01*
X174374565Y-101786830D01*
X174313590Y-101725855D01*
X174037732Y-101449997D01*
X180545131Y-101449997D01*
X180545131Y-101450002D01*
X180562498Y-101559658D01*
X180612904Y-101658585D01*
X180612909Y-101658592D01*
X180691407Y-101737090D01*
X180691410Y-101737092D01*
X180691413Y-101737095D01*
X180745813Y-101764813D01*
X180790341Y-101787501D01*
X180899998Y-101804869D01*
X180900000Y-101804869D01*
X180900002Y-101804869D01*
X181009658Y-101787501D01*
X181009659Y-101787500D01*
X181009661Y-101787500D01*
X181108587Y-101737095D01*
X181187095Y-101658587D01*
X181237500Y-101559661D01*
X181237500Y-101559659D01*
X181237501Y-101559658D01*
X181254869Y-101450002D01*
X181254869Y-101449997D01*
X181237501Y-101340341D01*
X181220790Y-101307543D01*
X181187095Y-101241413D01*
X181187092Y-101241410D01*
X181187090Y-101241407D01*
X181108592Y-101162909D01*
X181108588Y-101162906D01*
X181108587Y-101162905D01*
X181104743Y-101160946D01*
X181009658Y-101112498D01*
X180900002Y-101095131D01*
X180899998Y-101095131D01*
X180790341Y-101112498D01*
X180691414Y-101162904D01*
X180691407Y-101162909D01*
X180612909Y-101241407D01*
X180612904Y-101241414D01*
X180562498Y-101340341D01*
X180545131Y-101449997D01*
X174037732Y-101449997D01*
X172712801Y-100125066D01*
X172638121Y-100081950D01*
X172638122Y-100081950D01*
X172610356Y-100074510D01*
X172554827Y-100059631D01*
X172554825Y-100059631D01*
X168626376Y-100059631D01*
X168559337Y-100039946D01*
X168513582Y-99987142D01*
X168503638Y-99917984D01*
X168503902Y-99916234D01*
X168504869Y-99910128D01*
X168487501Y-99800472D01*
X168487500Y-99800470D01*
X168437095Y-99701544D01*
X168437092Y-99701541D01*
X168437090Y-99701538D01*
X168358592Y-99623040D01*
X168358588Y-99623037D01*
X168358587Y-99623036D01*
X168354743Y-99621077D01*
X168259658Y-99572629D01*
X168150002Y-99555262D01*
X168149998Y-99555262D01*
X168040341Y-99572629D01*
X167941414Y-99623035D01*
X167941407Y-99623040D01*
X167862909Y-99701538D01*
X167862904Y-99701545D01*
X167812498Y-99800472D01*
X167795131Y-99910128D01*
X167796098Y-99916234D01*
X167787142Y-99985527D01*
X167742145Y-100038979D01*
X167675394Y-100059618D01*
X167673624Y-100059631D01*
X159796460Y-100059631D01*
X159710228Y-100059631D01*
X159654698Y-100074510D01*
X159626933Y-100081950D01*
X159552255Y-100125065D01*
X159552252Y-100125067D01*
X158591139Y-101086181D01*
X158529816Y-101119666D01*
X158503458Y-101122500D01*
X153885105Y-101122500D01*
X153818066Y-101102815D01*
X153791394Y-101079704D01*
X153781128Y-101067857D01*
X153660053Y-100990047D01*
X153660051Y-100990046D01*
X153660049Y-100990045D01*
X153660050Y-100990045D01*
X153521963Y-100949500D01*
X153521961Y-100949500D01*
X153378039Y-100949500D01*
X153378036Y-100949500D01*
X153239949Y-100990045D01*
X153118873Y-101067856D01*
X153024623Y-101176626D01*
X153024622Y-101176628D01*
X152964834Y-101307543D01*
X152944353Y-101450000D01*
X152964834Y-101592456D01*
X152987669Y-101642456D01*
X153024623Y-101723373D01*
X153118872Y-101832143D01*
X153239947Y-101909953D01*
X153239950Y-101909954D01*
X153239949Y-101909954D01*
X153335246Y-101937935D01*
X153358643Y-101944805D01*
X153378036Y-101950499D01*
X153378038Y-101950500D01*
X153378039Y-101950500D01*
X153521962Y-101950500D01*
X153521962Y-101950499D01*
X153660053Y-101909953D01*
X153781128Y-101832143D01*
X153791393Y-101820296D01*
X153850170Y-101782523D01*
X153885105Y-101777500D01*
X156976945Y-101777500D01*
X157043984Y-101797185D01*
X157089739Y-101849989D01*
X157099683Y-101919147D01*
X157089739Y-101953012D01*
X157064834Y-102007543D01*
X157044353Y-102150000D01*
X157064834Y-102292456D01*
X157095035Y-102358585D01*
X157124623Y-102423373D01*
X157218872Y-102532143D01*
X157339947Y-102609953D01*
X157339950Y-102609954D01*
X157339949Y-102609954D01*
X157425030Y-102634936D01*
X157483809Y-102672710D01*
X157512834Y-102736265D01*
X157502891Y-102805424D01*
X157477777Y-102841594D01*
X156856191Y-103463181D01*
X156794868Y-103496666D01*
X156768510Y-103499500D01*
X156678036Y-103499500D01*
X156539949Y-103540045D01*
X156418873Y-103617856D01*
X156324623Y-103726626D01*
X156324622Y-103726628D01*
X156264834Y-103857543D01*
X156244353Y-104000000D01*
X156264834Y-104142456D01*
X156324622Y-104273371D01*
X156324623Y-104273373D01*
X156418872Y-104382143D01*
X156539947Y-104459953D01*
X156539949Y-104459953D01*
X156539950Y-104459954D01*
X156548017Y-104463639D01*
X156547471Y-104464833D01*
X156598596Y-104497688D01*
X156627623Y-104561244D01*
X156617680Y-104630402D01*
X156592566Y-104666574D01*
X155526960Y-105732181D01*
X155465637Y-105765666D01*
X155439279Y-105768500D01*
X152033017Y-105768500D01*
X151965978Y-105748815D01*
X151945336Y-105732181D01*
X150291965Y-104078810D01*
X150258480Y-104017487D01*
X150256908Y-104008775D01*
X150255646Y-104000002D01*
X150255647Y-104000000D01*
X150235165Y-103857543D01*
X150175377Y-103726627D01*
X150081128Y-103617857D01*
X149960053Y-103540047D01*
X149960051Y-103540046D01*
X149960049Y-103540045D01*
X149960050Y-103540045D01*
X149821963Y-103499500D01*
X149821961Y-103499500D01*
X149678039Y-103499500D01*
X149678036Y-103499500D01*
X149539949Y-103540045D01*
X149418873Y-103617856D01*
X149324623Y-103726626D01*
X149324622Y-103726628D01*
X149264834Y-103857543D01*
X149246689Y-103983751D01*
X149217664Y-104047307D01*
X149158886Y-104085081D01*
X149089016Y-104085081D01*
X149036270Y-104053785D01*
X146878313Y-101895828D01*
X146844828Y-101834505D01*
X146849812Y-101764813D01*
X146872283Y-101726943D01*
X146875377Y-101723373D01*
X146935165Y-101592457D01*
X146955647Y-101450000D01*
X146935165Y-101307543D01*
X146875377Y-101176627D01*
X146781128Y-101067857D01*
X146660053Y-100990047D01*
X146660051Y-100990046D01*
X146660049Y-100990045D01*
X146660050Y-100990045D01*
X146521963Y-100949500D01*
X146521961Y-100949500D01*
X146378039Y-100949500D01*
X146378036Y-100949500D01*
X146239949Y-100990045D01*
X146118873Y-101067856D01*
X146024623Y-101176626D01*
X146024622Y-101176628D01*
X145964834Y-101307543D01*
X145944353Y-101450000D01*
X145964834Y-101592456D01*
X145987669Y-101642456D01*
X146024623Y-101723373D01*
X146092213Y-101801377D01*
X146121238Y-101864932D01*
X146122500Y-101882579D01*
X146122500Y-101887554D01*
X146122500Y-101973786D01*
X146137846Y-102031058D01*
X146144819Y-102057080D01*
X146187934Y-102131758D01*
X146187936Y-102131761D01*
X150520994Y-106464819D01*
X150554479Y-106526142D01*
X150549495Y-106595834D01*
X150507623Y-106651767D01*
X150442159Y-106676184D01*
X150433313Y-106676500D01*
X145941017Y-106676500D01*
X145873978Y-106656815D01*
X145853336Y-106640181D01*
X143291965Y-104078810D01*
X143258480Y-104017487D01*
X143256908Y-104008775D01*
X143255646Y-104000002D01*
X143255647Y-104000000D01*
X143235165Y-103857543D01*
X143175377Y-103726627D01*
X143081128Y-103617857D01*
X142960053Y-103540047D01*
X142960051Y-103540046D01*
X142960049Y-103540045D01*
X142960050Y-103540045D01*
X142821963Y-103499500D01*
X142821961Y-103499500D01*
X142678039Y-103499500D01*
X142678036Y-103499500D01*
X142539949Y-103540045D01*
X142418873Y-103617856D01*
X142324623Y-103726626D01*
X142324622Y-103726628D01*
X142264834Y-103857543D01*
X142244353Y-104000000D01*
X136000500Y-104000000D01*
X136000500Y-101450000D01*
X138944353Y-101450000D01*
X138964834Y-101592456D01*
X138987669Y-101642456D01*
X139024623Y-101723373D01*
X139118872Y-101832143D01*
X139239947Y-101909953D01*
X139239950Y-101909954D01*
X139239949Y-101909954D01*
X139335246Y-101937935D01*
X139358643Y-101944805D01*
X139378036Y-101950499D01*
X139378038Y-101950500D01*
X139378039Y-101950500D01*
X139521962Y-101950500D01*
X139521962Y-101950499D01*
X139660053Y-101909953D01*
X139781128Y-101832143D01*
X139875377Y-101723373D01*
X139935165Y-101592457D01*
X139955647Y-101450000D01*
X139935165Y-101307543D01*
X139875377Y-101176627D01*
X139781128Y-101067857D01*
X139660053Y-100990047D01*
X139660051Y-100990046D01*
X139660049Y-100990045D01*
X139660050Y-100990045D01*
X139521963Y-100949500D01*
X139521961Y-100949500D01*
X139378039Y-100949500D01*
X139378036Y-100949500D01*
X139239949Y-100990045D01*
X139118873Y-101067856D01*
X139024623Y-101176626D01*
X139024622Y-101176628D01*
X138964834Y-101307543D01*
X138944353Y-101450000D01*
X136000500Y-101450000D01*
X136000500Y-96624500D01*
X136020185Y-96557461D01*
X136072989Y-96511706D01*
X136124500Y-96500500D01*
X239375500Y-96500500D01*
X239442539Y-96520185D01*
G37*
G04 #@! TD.AperFunction*
G04 #@! TA.AperFunction,Conductor*
G36*
X201530022Y-108697185D02*
G01*
X201550664Y-108713819D01*
X203300682Y-110463837D01*
X203334167Y-110525160D01*
X203337001Y-110551518D01*
X203337001Y-111062668D01*
X203317316Y-111129707D01*
X203264512Y-111175462D01*
X203195354Y-111185406D01*
X203131798Y-111156381D01*
X203125320Y-111150349D01*
X201684514Y-109709543D01*
X201684511Y-109709540D01*
X201682860Y-109708587D01*
X201682850Y-109708581D01*
X201615992Y-109669980D01*
X201615993Y-109669980D01*
X201606960Y-109667559D01*
X201539562Y-109649500D01*
X201539560Y-109649500D01*
X178668217Y-109649500D01*
X178601178Y-109629815D01*
X178555423Y-109577011D01*
X178545479Y-109507853D01*
X178574504Y-109444297D01*
X178633282Y-109406523D01*
X178636123Y-109405725D01*
X178640695Y-109404500D01*
X178640696Y-109404500D01*
X178723990Y-109382181D01*
X178798670Y-109339065D01*
X179423916Y-108713819D01*
X179485239Y-108680334D01*
X179511597Y-108677500D01*
X201462983Y-108677500D01*
X201530022Y-108697185D01*
G37*
G04 #@! TD.AperFunction*
M02*
