M48
; DRILL file {KiCad 8.0.7} date 2025-05-16T22:33:46-0400
; FORMAT={-:-/ absolute / metric / decimal}
; #@! TF.CreationDate,2025-05-16T22:33:46-04:00
; #@! TF.GenerationSoftware,Kicad,Pcbnew,8.0.7
; #@! TF.FileFunction,Plated,1,4,PTH
FMAT,2
METRIC
; #@! TA.AperFunction,Plated,PTH,ViaDrill
T1C0.150
; #@! TA.AperFunction,Plated,PTH,ComponentDrill
T2C0.200
; #@! TA.AperFunction,Plated,PTH,ViaDrill
T3C0.300
; #@! TA.AperFunction,Plated,PTH,ComponentDrill
T4C0.300
%
G90
G05
T1
X166.25Y-104.8
X166.825Y-108.05
X168.15Y-99.91
X171.425Y-109.775
X171.636Y-102.226
X172.0Y-111.3
X172.124Y-101.997
X172.612Y-102.2
X173.112Y-102.2
X173.125Y-109.375
X173.612Y-102.162
X174.112Y-102.15
X174.112Y-109.2
X174.9Y-108.6
X175.663Y-105.937
X175.85Y-104.425
X175.85Y-107.425
X177.225Y-105.625
X179.0Y-108.0
X180.9Y-101.45
X191.2Y-104.0
X194.762Y-103.549
X195.4Y-103.3
X196.9Y-105.9
X197.7Y-104.0
X197.9Y-105.4
X200.0Y-104.3
X202.7Y-118.0
X203.05Y-118.7
X203.325Y-118.0
X238.9Y-119.6
T2
X170.312Y-103.625
X170.312Y-104.65
X170.312Y-105.675
X170.312Y-106.7
X170.312Y-107.725
X171.338Y-103.625
X171.338Y-104.65
X171.338Y-105.675
X171.338Y-106.7
X171.338Y-107.725
X172.362Y-103.625
X172.362Y-104.65
X172.362Y-105.675
X172.362Y-106.7
X172.362Y-107.725
X173.387Y-103.625
X173.387Y-104.65
X173.387Y-105.675
X173.387Y-106.7
X173.387Y-107.725
X174.412Y-103.625
X174.412Y-104.65
X174.412Y-105.675
X174.412Y-106.7
X174.412Y-107.725
T3
X137.0Y-113.0
X137.0Y-115.0
X137.0Y-125.0
X137.0Y-127.0
X138.5Y-116.5
X138.5Y-117.5
X138.5Y-118.5
X138.5Y-121.5
X138.5Y-122.5
X138.5Y-123.5
X139.0Y-113.0
X139.0Y-115.0
X139.0Y-125.0
X139.0Y-127.0
X139.45Y-101.45
X140.0Y-97.5
X140.0Y-100.0
X140.0Y-110.0
X140.0Y-130.0
X140.0Y-135.0
X141.0Y-113.0
X141.0Y-115.0
X141.0Y-116.5
X141.0Y-117.5
X141.0Y-118.5
X141.0Y-121.5
X141.0Y-122.5
X141.0Y-123.5
X141.0Y-125.0
X141.0Y-127.0
X142.75Y-104.0
X143.0Y-113.0
X143.0Y-115.0
X143.0Y-125.0
X143.0Y-127.0
X145.0Y-97.5
X145.0Y-100.0
X145.0Y-110.0
X145.0Y-113.0
X145.0Y-115.0
X145.0Y-119.0
X145.0Y-121.0
X145.0Y-130.0
X145.0Y-135.0
X146.45Y-101.45
X147.0Y-113.0
X147.0Y-115.0
X147.0Y-119.0
X147.0Y-121.0
X149.0Y-113.0
X149.0Y-115.0
X149.0Y-119.0
X149.0Y-121.0
X149.75Y-104.0
X150.0Y-97.5
X150.0Y-100.0
X150.0Y-110.0
X150.0Y-130.0
X150.0Y-135.0
X151.0Y-113.0
X151.0Y-115.0
X151.0Y-119.0
X151.0Y-121.0
X153.0Y-113.0
X153.0Y-117.0
X153.0Y-118.0
X153.0Y-119.0
X153.0Y-121.0
X153.0Y-122.0
X153.0Y-123.0
X153.45Y-101.45
X154.0Y-117.0
X154.0Y-118.0
X154.0Y-119.0
X154.0Y-121.0
X154.0Y-122.0
X154.0Y-123.0
X155.0Y-97.5
X155.0Y-100.0
X155.0Y-110.0
X155.0Y-113.0
X155.0Y-119.0
X155.0Y-121.0
X155.0Y-130.0
X155.0Y-135.0
X156.0Y-119.0
X156.0Y-121.0
X156.75Y-104.0
X157.0Y-119.0
X157.0Y-121.0
X157.55Y-102.15
X158.0Y-117.0
X158.0Y-118.0
X158.0Y-119.0
X158.0Y-121.0
X158.0Y-122.0
X158.0Y-123.0
X159.0Y-117.0
X159.0Y-118.0
X159.0Y-119.0
X159.0Y-121.0
X159.0Y-122.0
X159.0Y-123.0
X160.0Y-97.5
X160.0Y-130.0
X160.0Y-135.0
X160.85Y-104.0
X161.0Y-115.0
X161.0Y-117.0
X161.0Y-119.0
X161.7Y-109.5
X161.7Y-111.1
X163.0Y-113.0
X163.0Y-115.0
X163.0Y-117.0
X163.825Y-123.725
X163.875Y-124.6
X163.925Y-121.325
X163.925Y-122.55
X164.15Y-120.7
X164.15Y-121.95
X164.15Y-123.15
X164.2Y-126.25
X164.775Y-120.7
X164.775Y-121.95
X165.0Y-97.5
X165.727Y-111.352
X165.738Y-110.652
X165.8Y-112.5
X165.8Y-113.15
X165.8Y-113.8
X165.8Y-114.45
X165.8Y-115.1
X165.8Y-115.8
X165.9Y-117.7
X165.9Y-119.2
X166.0Y-120.0
X166.0Y-120.65
X166.0Y-121.3
X166.0Y-121.95
X166.0Y-122.6
X166.0Y-123.25
X166.0Y-123.9
X166.525Y-119.2
X167.0Y-126.0
X167.0Y-127.0
X167.0Y-133.0
X167.0Y-134.0
X167.15Y-117.7
X167.15Y-119.2
X167.775Y-119.2
X168.0Y-126.0
X168.0Y-127.0
X168.0Y-133.0
X168.0Y-134.0
X168.4Y-117.7
X168.4Y-119.2
X169.0Y-126.0
X169.0Y-127.0
X169.0Y-133.0
X169.0Y-134.0
X169.025Y-119.2
X169.65Y-117.7
X169.65Y-119.2
X170.0Y-97.5
X170.0Y-126.0
X170.0Y-127.0
X170.0Y-133.0
X170.0Y-134.0
X171.0Y-126.0
X171.0Y-127.0
X171.0Y-129.0
X171.0Y-130.0
X171.0Y-131.0
X171.0Y-133.0
X171.0Y-134.0
X171.7Y-119.9
X171.7Y-124.0
X171.7Y-125.2
X171.9Y-122.5
X172.0Y-126.0
X172.0Y-127.0
X172.0Y-129.0
X172.0Y-130.0
X172.0Y-131.0
X172.0Y-133.0
X172.0Y-134.0
X172.4Y-119.9
X172.4Y-124.0
X172.4Y-125.2
X172.85Y-122.5
X173.1Y-119.9
X173.1Y-121.0
X173.1Y-124.0
X173.1Y-125.2
X173.225Y-118.425
X173.8Y-112.55
X173.8Y-113.2
X173.8Y-113.85
X173.8Y-114.5
X173.8Y-115.15
X174.1Y-119.2
X174.75Y-119.2
X175.0Y-97.5
X175.0Y-111.3
X175.0Y-125.0
X175.0Y-126.0
X175.0Y-127.0
X175.0Y-133.0
X175.0Y-134.0
X175.1Y-118.45
X175.4Y-119.2
X176.0Y-125.0
X176.0Y-126.0
X176.0Y-127.0
X176.0Y-133.0
X176.0Y-134.0
X176.05Y-119.2
X176.35Y-118.45
X176.7Y-119.2
X177.0Y-125.0
X177.0Y-126.0
X177.0Y-127.0
X177.0Y-133.0
X177.0Y-134.0
X177.35Y-119.208
X178.0Y-125.0
X178.0Y-126.0
X178.0Y-127.0
X178.0Y-133.0
X178.0Y-134.0
X178.75Y-120.0
X178.75Y-120.65
X178.75Y-121.3
X178.75Y-121.95
X178.75Y-122.6
X178.75Y-123.25
X178.75Y-123.9
X179.0Y-112.55
X179.0Y-113.2
X179.0Y-113.85
X179.65Y-117.115
X180.0Y-97.5
X180.0Y-109.0
X180.0Y-115.0
X180.0Y-121.95
X180.0Y-123.225
X180.0Y-124.5
X180.6Y-117.115
X180.625Y-120.725
X180.625Y-121.95
X180.625Y-123.225
X180.65Y-124.5
X180.925Y-121.35
X180.925Y-122.6
X180.925Y-123.85
X181.0Y-115.0
X181.0Y-116.0
X182.0Y-115.0
X182.0Y-116.0
X182.0Y-117.0
X182.0Y-119.0
X182.0Y-123.0
X182.0Y-124.0
X182.0Y-125.0
X183.0Y-109.0
X183.0Y-115.0
X183.0Y-116.0
X183.0Y-117.0
X183.0Y-123.0
X183.0Y-124.0
X183.0Y-125.0
X184.0Y-115.0
X184.0Y-116.0
X184.0Y-117.0
X184.0Y-123.0
X184.0Y-124.0
X184.0Y-125.0
X184.5Y-109.0
X185.0Y-97.5
X185.0Y-115.0
X185.0Y-116.0
X185.0Y-117.0
X185.0Y-123.0
X185.0Y-124.0
X185.0Y-125.0
X185.0Y-130.0
X185.0Y-135.0
X186.0Y-109.0
X186.0Y-115.0
X186.0Y-116.0
X186.0Y-117.0
X186.0Y-123.0
X186.0Y-124.0
X186.0Y-125.0
X187.0Y-115.0
X187.0Y-116.0
X187.0Y-117.0
X187.0Y-123.0
X187.0Y-124.0
X187.0Y-125.0
X187.5Y-109.0
X188.0Y-115.0
X188.0Y-116.0
X188.0Y-117.0
X188.0Y-123.0
X188.0Y-124.0
X188.0Y-125.0
X189.0Y-109.0
X189.0Y-115.0
X189.0Y-116.0
X189.0Y-117.0
X189.0Y-123.0
X189.0Y-124.0
X189.0Y-125.0
X190.0Y-97.5
X190.0Y-125.0
X190.0Y-130.0
X190.0Y-135.0
X190.5Y-109.0
X191.0Y-117.0
X191.0Y-118.0
X191.0Y-119.0
X191.0Y-121.0
X191.0Y-122.0
X191.0Y-123.0
X192.0Y-109.0
X192.0Y-117.0
X192.0Y-118.0
X192.0Y-119.0
X192.0Y-121.0
X192.0Y-122.0
X192.0Y-123.0
X193.0Y-113.0
X193.0Y-119.0
X193.0Y-121.0
X193.5Y-109.0
X194.0Y-119.0
X194.0Y-121.0
X195.0Y-97.5
X195.0Y-109.0
X195.0Y-113.0
X195.0Y-119.0
X195.0Y-121.0
X195.0Y-130.0
X195.0Y-135.0
X196.0Y-117.0
X196.0Y-118.0
X196.0Y-119.0
X196.0Y-121.0
X196.0Y-122.0
X196.0Y-123.0
X197.0Y-113.0
X197.0Y-117.0
X197.0Y-118.0
X197.0Y-119.0
X197.0Y-121.0
X197.0Y-122.0
X197.0Y-123.0
X198.0Y-109.0
X199.0Y-113.0
X199.0Y-115.0
X199.4Y-117.0
X199.4Y-118.0
X199.4Y-119.0
X200.0Y-97.5
X200.0Y-117.0
X200.0Y-118.0
X200.0Y-119.0
X200.0Y-125.0
X200.0Y-130.0
X200.0Y-135.0
X201.0Y-109.0
X201.0Y-113.0
X201.0Y-115.0
X204.4Y-113.0
X204.4Y-115.0
X205.0Y-97.5
X205.0Y-125.0
X205.0Y-130.0
X205.0Y-135.0
X206.0Y-113.0
X206.0Y-115.0
X206.0Y-117.0
X206.0Y-118.0
X206.0Y-119.0
X206.6Y-117.0
X206.6Y-118.0
X206.6Y-119.0
X208.0Y-113.0
X208.044Y-103.1
X208.044Y-103.95
X210.0Y-97.5
X210.0Y-110.0
X210.0Y-113.0
X210.0Y-125.0
X210.0Y-130.0
X210.0Y-135.0
X211.9Y-101.5
X212.4Y-113.2
X212.925Y-117.15
X212.925Y-118.4
X213.775Y-117.15
X213.775Y-118.4
X214.375Y-116.525
X214.375Y-117.15
X214.375Y-117.775
X214.375Y-118.4
X214.375Y-119.05
X215.0Y-97.5
X215.0Y-104.0
X215.0Y-110.0
X215.0Y-113.0
X215.0Y-125.0
X215.0Y-130.0
X215.0Y-135.0
X217.0Y-113.0
X217.0Y-115.0
X218.0Y-117.0
X218.0Y-118.0
X218.0Y-119.0
X218.0Y-121.0
X218.0Y-122.0
X218.0Y-123.0
X218.7Y-101.5
X218.9Y-106.5
X219.0Y-113.0
X219.0Y-117.0
X219.0Y-118.0
X219.0Y-119.0
X219.0Y-121.0
X219.0Y-122.0
X219.0Y-123.0
X220.0Y-97.5
X220.0Y-110.0
X220.0Y-119.0
X220.0Y-121.0
X220.0Y-130.0
X220.0Y-135.0
X221.0Y-113.0
X221.0Y-119.0
X221.0Y-121.0
X222.0Y-104.0
X222.0Y-119.0
X222.0Y-121.0
X223.0Y-113.0
X223.0Y-117.0
X223.0Y-118.0
X223.0Y-119.0
X223.0Y-121.0
X223.0Y-122.0
X223.0Y-123.0
X224.0Y-117.0
X224.0Y-118.0
X224.0Y-119.0
X224.0Y-121.0
X224.0Y-122.0
X224.0Y-123.0
X225.0Y-97.5
X225.0Y-100.0
X225.0Y-110.0
X225.0Y-113.0
X225.0Y-115.0
X225.0Y-116.0
X225.0Y-117.0
X225.0Y-123.0
X225.0Y-124.0
X225.0Y-125.0
X225.0Y-130.0
X225.0Y-135.0
X226.0Y-115.0
X226.0Y-116.0
X226.0Y-117.0
X226.0Y-123.0
X226.0Y-124.0
X226.0Y-125.0
X227.0Y-113.0
X227.0Y-115.0
X227.0Y-116.0
X227.0Y-117.0
X227.0Y-123.0
X227.0Y-124.0
X227.0Y-125.0
X228.0Y-115.0
X228.0Y-116.0
X228.0Y-117.0
X228.0Y-123.0
X228.0Y-124.0
X228.0Y-125.0
X229.0Y-113.0
X229.0Y-115.0
X229.0Y-116.0
X229.0Y-117.0
X229.0Y-123.0
X229.0Y-124.0
X229.0Y-125.0
X230.0Y-97.5
X230.0Y-100.0
X230.0Y-105.0
X230.0Y-110.0
X230.0Y-115.0
X230.0Y-116.0
X230.0Y-117.0
X230.0Y-123.0
X230.0Y-124.0
X230.0Y-125.0
X230.0Y-130.0
X230.0Y-135.0
X231.0Y-113.0
X231.0Y-119.0
X231.0Y-121.0
X233.0Y-113.0
X233.0Y-115.0
X233.0Y-125.0
X233.0Y-127.0
X234.1Y-116.5
X234.1Y-117.5
X234.1Y-118.5
X234.1Y-121.5
X234.1Y-122.5
X234.1Y-123.5
X235.0Y-97.5
X235.0Y-100.0
X235.0Y-105.0
X235.0Y-110.0
X235.0Y-113.0
X235.0Y-115.0
X235.0Y-125.0
X235.0Y-127.0
X235.0Y-130.0
X235.0Y-135.0
X236.6Y-116.5
X236.6Y-117.5
X236.6Y-118.5
X236.6Y-121.5
X236.6Y-122.5
X236.6Y-123.5
X237.0Y-113.0
X237.0Y-115.0
X237.0Y-125.0
X237.0Y-127.0
X239.0Y-125.0
X239.0Y-127.0
T4
X166.125Y-129.475
X166.125Y-130.675
X166.625Y-128.825
X166.625Y-130.075
X166.625Y-131.275
X167.125Y-129.475
X167.125Y-130.675
X167.17Y-113.425
X167.17Y-114.425
X167.17Y-115.425
X167.27Y-121.37
X167.27Y-122.57
X167.625Y-128.825
X167.625Y-130.075
X167.625Y-131.275
X167.77Y-120.72
X167.77Y-121.97
X167.77Y-123.17
X167.82Y-112.925
X167.82Y-113.925
X167.82Y-114.925
X167.82Y-115.925
X168.125Y-129.475
X168.125Y-130.675
X168.27Y-121.37
X168.27Y-122.57
X168.42Y-113.425
X168.42Y-114.425
X168.42Y-115.425
X168.625Y-128.825
X168.625Y-130.075
X168.625Y-131.275
X168.77Y-120.72
X168.77Y-121.97
X168.77Y-123.17
X169.02Y-112.925
X169.02Y-113.925
X169.02Y-114.925
X169.02Y-115.925
X169.125Y-129.475
X169.125Y-130.675
X169.27Y-121.37
X169.27Y-122.57
X169.62Y-113.425
X169.62Y-114.425
X169.62Y-115.425
X169.77Y-121.97
X169.77Y-123.17
X170.27Y-122.57
X174.505Y-121.365
X174.505Y-122.565
X175.005Y-120.765
X175.005Y-121.965
X175.005Y-123.215
X175.1Y-113.415
X175.1Y-114.415
X175.1Y-115.415
X175.505Y-121.365
X175.505Y-122.565
X175.625Y-129.425
X175.625Y-130.625
X175.75Y-112.915
X175.75Y-113.915
X175.75Y-114.915
X175.75Y-115.915
X176.005Y-120.765
X176.005Y-121.965
X176.005Y-123.215
X176.125Y-128.775
X176.125Y-130.025
X176.125Y-131.225
X176.35Y-113.415
X176.35Y-114.415
X176.35Y-115.415
X176.505Y-121.365
X176.505Y-122.565
X176.625Y-129.425
X176.625Y-130.625
X176.95Y-112.915
X176.95Y-113.915
X176.95Y-114.915
X176.95Y-115.915
X177.005Y-120.765
X177.005Y-121.965
X177.005Y-123.215
X177.125Y-128.775
X177.125Y-130.025
X177.125Y-131.225
X177.505Y-121.365
X177.505Y-122.565
X177.55Y-113.415
X177.55Y-114.415
X177.55Y-115.415
X177.625Y-129.425
X177.625Y-130.625
X178.125Y-128.775
X178.125Y-130.025
X178.125Y-131.225
X178.625Y-129.425
X178.625Y-130.625
X207.95Y-116.55
X207.95Y-117.75
X208.45Y-115.95
X208.45Y-117.15
X208.45Y-118.4
X208.95Y-116.55
X208.95Y-117.75
X209.45Y-115.95
X209.45Y-117.15
X209.45Y-118.4
X209.95Y-116.55
X209.95Y-117.75
X210.45Y-115.95
X210.45Y-117.15
X210.45Y-118.4
X210.95Y-116.55
X210.95Y-117.75
M30
