G04 #@! TF.GenerationSoftware,KiCad,Pcbnew,8.0.7*
G04 #@! TF.CreationDate,2025-05-16T22:33:28-04:00*
G04 #@! TF.ProjectId,protovolt,70726f74-6f76-46f6-9c74-2e6b69636164,rev?*
G04 #@! TF.SameCoordinates,Original*
G04 #@! TF.FileFunction,Copper,L2,Inr*
G04 #@! TF.FilePolarity,Positive*
%FSLAX46Y46*%
G04 Gerber Fmt 4.6, Leading zero omitted, Abs format (unit mm)*
G04 Created by KiCad (PCBNEW 8.0.7) date 2025-05-16 22:33:28*
%MOMM*%
%LPD*%
G01*
G04 APERTURE LIST*
G04 #@! TA.AperFunction,ComponentPad*
%ADD10C,0.600000*%
G04 #@! TD*
G04 #@! TA.AperFunction,HeatsinkPad*
%ADD11C,0.500000*%
G04 #@! TD*
G04 #@! TA.AperFunction,ViaPad*
%ADD12C,0.600000*%
G04 #@! TD*
G04 #@! TA.AperFunction,ViaPad*
%ADD13C,0.300000*%
G04 #@! TD*
G04 #@! TA.AperFunction,ViaPad*
%ADD14C,0.500000*%
G04 #@! TD*
G04 #@! TA.AperFunction,Conductor*
%ADD15C,0.381000*%
G04 #@! TD*
G04 #@! TA.AperFunction,Conductor*
%ADD16C,0.254000*%
G04 #@! TD*
G04 APERTURE END LIST*
D10*
X210950000Y-117750000D03*
X210950000Y-116550000D03*
X210450000Y-118400000D03*
X210450000Y-117150000D03*
X210450000Y-115950000D03*
X209950000Y-117750000D03*
X209950000Y-116550000D03*
X209450000Y-118400000D03*
X209450000Y-117150000D03*
X209450000Y-115950000D03*
X208950000Y-117750000D03*
X208950000Y-116550000D03*
X208450000Y-118400000D03*
X208450000Y-117150000D03*
X208450000Y-115950000D03*
X207950000Y-117750000D03*
X207950000Y-116550000D03*
X167270000Y-121370000D03*
X167270000Y-122570000D03*
X167770000Y-120720000D03*
X167770000Y-121970000D03*
X167770000Y-123170000D03*
X168270000Y-121370000D03*
X168270000Y-122570000D03*
X168770000Y-120720000D03*
X168770000Y-121970000D03*
X168770000Y-123170000D03*
X169270000Y-121370000D03*
X169270000Y-122570000D03*
X169770000Y-121970000D03*
X169770000Y-123170000D03*
X170270000Y-122570000D03*
X166125000Y-129475000D03*
X166125000Y-130675000D03*
X166625000Y-128825000D03*
X166625000Y-130075000D03*
X166625000Y-131275000D03*
X167125000Y-129475000D03*
X167125000Y-130675000D03*
X167625000Y-128825000D03*
X167625000Y-130075000D03*
X167625000Y-131275000D03*
X168125000Y-129475000D03*
X168125000Y-130675000D03*
X168625000Y-128825000D03*
X168625000Y-130075000D03*
X168625000Y-131275000D03*
X169125000Y-129475000D03*
X169125000Y-130675000D03*
X175625000Y-129425000D03*
X175625000Y-130625000D03*
X176125000Y-128775000D03*
X176125000Y-130025000D03*
X176125000Y-131225000D03*
X176625000Y-129425000D03*
X176625000Y-130625000D03*
X177125000Y-128775000D03*
X177125000Y-130025000D03*
X177125000Y-131225000D03*
X177625000Y-129425000D03*
X177625000Y-130625000D03*
X178125000Y-128775000D03*
X178125000Y-130025000D03*
X178125000Y-131225000D03*
X178625000Y-129425000D03*
X178625000Y-130625000D03*
X177505000Y-122565000D03*
X177505000Y-121365000D03*
X177005000Y-123215000D03*
X177005000Y-121965000D03*
X177005000Y-120765000D03*
X176505000Y-122565000D03*
X176505000Y-121365000D03*
X176005000Y-123215000D03*
X176005000Y-121965000D03*
X176005000Y-120765000D03*
X175505000Y-122565000D03*
X175505000Y-121365000D03*
X175005000Y-123215000D03*
X175005000Y-121965000D03*
X175005000Y-120765000D03*
X174505000Y-122565000D03*
X174505000Y-121365000D03*
X175750000Y-115915000D03*
X176950000Y-115915000D03*
X175100000Y-115415000D03*
X176350000Y-115415000D03*
X177550000Y-115415000D03*
X175750000Y-114915000D03*
X176950000Y-114915000D03*
X175100000Y-114415000D03*
X176350000Y-114415000D03*
X177550000Y-114415000D03*
X175750000Y-113915000D03*
X176950000Y-113915000D03*
X175100000Y-113415000D03*
X176350000Y-113415000D03*
X177550000Y-113415000D03*
X175750000Y-112915000D03*
X176950000Y-112915000D03*
D11*
X174412500Y-103625000D03*
X173387500Y-103625000D03*
X172362500Y-103625000D03*
X171337500Y-103625000D03*
X170312500Y-103625000D03*
X174412500Y-104650000D03*
X173387500Y-104650000D03*
X172362500Y-104650000D03*
X171337500Y-104650000D03*
X170312500Y-104650000D03*
X174412500Y-105675000D03*
X173387500Y-105675000D03*
X172362500Y-105675000D03*
X171337500Y-105675000D03*
X170312500Y-105675000D03*
X174412500Y-106700000D03*
X173387500Y-106700000D03*
X172362500Y-106700000D03*
X171337500Y-106700000D03*
X170312500Y-106700000D03*
X174412500Y-107725000D03*
X173387500Y-107725000D03*
X172362500Y-107725000D03*
X171337500Y-107725000D03*
X170312500Y-107725000D03*
D10*
X167820000Y-115925000D03*
X169020000Y-115925000D03*
X167170000Y-115425000D03*
X168420000Y-115425000D03*
X169620000Y-115425000D03*
X167820000Y-114925000D03*
X169020000Y-114925000D03*
X167170000Y-114425000D03*
X168420000Y-114425000D03*
X169620000Y-114425000D03*
X167820000Y-113925000D03*
X169020000Y-113925000D03*
X167170000Y-113425000D03*
X168420000Y-113425000D03*
X169620000Y-113425000D03*
X167820000Y-112925000D03*
X169020000Y-112925000D03*
D12*
X195000000Y-135000000D03*
X219000000Y-121000000D03*
X185000000Y-123000000D03*
X188000000Y-124000000D03*
X220000000Y-97500000D03*
X200000000Y-130000000D03*
X185000000Y-97500000D03*
X193500000Y-109000000D03*
X140000000Y-100000000D03*
X138500000Y-122500000D03*
X147000000Y-121000000D03*
X155000000Y-97500000D03*
X189000000Y-123000000D03*
X224000000Y-123000000D03*
X235000000Y-125000000D03*
X187000000Y-124000000D03*
X223000000Y-123000000D03*
X141000000Y-121500000D03*
X234100000Y-121500000D03*
X192000000Y-121000000D03*
X230000000Y-124000000D03*
X235000000Y-130000000D03*
X175000000Y-111300000D03*
X155000000Y-110000000D03*
X140000000Y-97500000D03*
X230000000Y-130000000D03*
X140000000Y-110000000D03*
X180925000Y-123850000D03*
X227000000Y-123000000D03*
X165000000Y-97500000D03*
X186000000Y-125000000D03*
X158000000Y-122000000D03*
X226000000Y-123000000D03*
X164150000Y-123150000D03*
X233000000Y-125000000D03*
X183000000Y-124000000D03*
X201000000Y-109000000D03*
X223000000Y-121000000D03*
X180000000Y-97500000D03*
X180000000Y-124500000D03*
X141000000Y-127000000D03*
X149000000Y-121000000D03*
X145000000Y-130000000D03*
X215000000Y-110000000D03*
X196000000Y-123000000D03*
X196000000Y-122000000D03*
X229000000Y-123000000D03*
X221000000Y-121000000D03*
X226000000Y-125000000D03*
X228000000Y-124000000D03*
X150000000Y-100000000D03*
X182000000Y-124000000D03*
X231000000Y-121000000D03*
X188000000Y-125000000D03*
X150000000Y-130000000D03*
X228000000Y-125000000D03*
X190000000Y-97500000D03*
X218000000Y-121000000D03*
X153000000Y-121000000D03*
X205000000Y-130000000D03*
X150000000Y-97500000D03*
X210000000Y-110000000D03*
X151000000Y-121000000D03*
X185000000Y-124000000D03*
X210000000Y-125000000D03*
X227000000Y-125000000D03*
X158000000Y-123000000D03*
X164150000Y-121950000D03*
X215000000Y-135000000D03*
X150000000Y-110000000D03*
X141000000Y-123500000D03*
X193000000Y-121000000D03*
X159000000Y-122000000D03*
X155000000Y-121000000D03*
X230000000Y-135000000D03*
X200000000Y-125000000D03*
X138500000Y-123500000D03*
X180925000Y-121350000D03*
X155000000Y-100000000D03*
X192000000Y-122000000D03*
X184000000Y-124000000D03*
X215000000Y-130000000D03*
X164150000Y-120700000D03*
X143000000Y-127000000D03*
X191000000Y-123000000D03*
X155000000Y-135000000D03*
X175000000Y-97500000D03*
X205000000Y-97500000D03*
X200000000Y-135000000D03*
X235000000Y-97500000D03*
X143000000Y-125000000D03*
X180625000Y-123225000D03*
X190000000Y-135000000D03*
X225000000Y-135000000D03*
X163825000Y-123725000D03*
X154000000Y-121000000D03*
X186000000Y-123000000D03*
X180000000Y-109000000D03*
X200000000Y-97500000D03*
X180650000Y-124500000D03*
X225000000Y-125000000D03*
X229000000Y-125000000D03*
X205000000Y-135000000D03*
X233000000Y-127000000D03*
X239000000Y-125000000D03*
X140000000Y-135000000D03*
X183000000Y-123000000D03*
X196000000Y-121000000D03*
X153000000Y-122000000D03*
X230000000Y-123000000D03*
X220000000Y-110000000D03*
X155000000Y-130000000D03*
X138500000Y-121500000D03*
X225000000Y-124000000D03*
X220000000Y-130000000D03*
X145000000Y-97500000D03*
X170000000Y-97500000D03*
X227000000Y-124000000D03*
X220000000Y-121000000D03*
X145000000Y-100000000D03*
X197000000Y-121000000D03*
X184000000Y-125000000D03*
X224000000Y-122000000D03*
X186000000Y-124000000D03*
X159000000Y-121000000D03*
X139000000Y-125000000D03*
X210000000Y-135000000D03*
X195000000Y-121000000D03*
X215000000Y-97500000D03*
X226000000Y-124000000D03*
X186000000Y-109000000D03*
X180625000Y-120725000D03*
X222000000Y-121000000D03*
X154000000Y-122000000D03*
X187000000Y-125000000D03*
X190000000Y-125000000D03*
X234100000Y-122500000D03*
X210000000Y-97500000D03*
X163925000Y-121325000D03*
X235000000Y-110000000D03*
X159000000Y-123000000D03*
X141000000Y-125000000D03*
X185000000Y-125000000D03*
X197000000Y-123000000D03*
X189000000Y-109000000D03*
X183000000Y-125000000D03*
X190000000Y-130000000D03*
X140000000Y-130000000D03*
X189000000Y-125000000D03*
X195000000Y-109000000D03*
X235000000Y-100000000D03*
X158000000Y-121000000D03*
X237000000Y-125000000D03*
X224000000Y-121000000D03*
X218000000Y-123000000D03*
X219000000Y-123000000D03*
X183000000Y-109000000D03*
X219000000Y-122000000D03*
X205000000Y-125000000D03*
X156000000Y-121000000D03*
X235000000Y-105000000D03*
X141000000Y-122500000D03*
X230000000Y-100000000D03*
X185000000Y-135000000D03*
X197000000Y-122000000D03*
X184000000Y-123000000D03*
X230000000Y-125000000D03*
X228000000Y-123000000D03*
X229000000Y-124000000D03*
X235000000Y-135000000D03*
X145000000Y-121000000D03*
X235000000Y-127000000D03*
X163875000Y-124600000D03*
X230000000Y-105000000D03*
X195000000Y-130000000D03*
X164775000Y-121950000D03*
X218000000Y-122000000D03*
X137000000Y-125000000D03*
X225000000Y-130000000D03*
X160000000Y-135000000D03*
X145000000Y-135000000D03*
X157000000Y-121000000D03*
X234100000Y-123500000D03*
X164775000Y-120700000D03*
X180925000Y-122600000D03*
X139000000Y-127000000D03*
X194000000Y-121000000D03*
X195000000Y-97500000D03*
X236600000Y-123500000D03*
X182000000Y-125000000D03*
X185000000Y-130000000D03*
X150000000Y-135000000D03*
X237000000Y-127000000D03*
X160000000Y-97500000D03*
X163925000Y-122550000D03*
X180000000Y-121950000D03*
X145000000Y-110000000D03*
X215000000Y-125000000D03*
X187000000Y-123000000D03*
X225000000Y-123000000D03*
X225000000Y-110000000D03*
X225000000Y-97500000D03*
X236600000Y-122500000D03*
X220000000Y-135000000D03*
X184500000Y-109000000D03*
X188000000Y-123000000D03*
X160000000Y-130000000D03*
X223000000Y-122000000D03*
X192000000Y-109000000D03*
X187500000Y-109000000D03*
X198000000Y-109000000D03*
X239000000Y-127000000D03*
X230000000Y-97500000D03*
X153000000Y-123000000D03*
X189000000Y-124000000D03*
X180000000Y-123225000D03*
X230000000Y-110000000D03*
X191000000Y-122000000D03*
X191000000Y-121000000D03*
X137000000Y-127000000D03*
X210000000Y-130000000D03*
X180625000Y-121950000D03*
X154000000Y-123000000D03*
X192000000Y-123000000D03*
X182000000Y-123000000D03*
X236600000Y-121500000D03*
X190500000Y-109000000D03*
X225000000Y-100000000D03*
X147000000Y-119000000D03*
X158000000Y-119000000D03*
X153000000Y-117000000D03*
X143000000Y-113000000D03*
X165800000Y-113800000D03*
X165800000Y-115800000D03*
X147000000Y-113000000D03*
X145000000Y-115000000D03*
X154000000Y-118000000D03*
X163000000Y-117000000D03*
X143000000Y-115000000D03*
X151000000Y-113000000D03*
X165800000Y-115100000D03*
X165800000Y-114450000D03*
X161000000Y-115000000D03*
X159000000Y-118000000D03*
D13*
X180900000Y-101450000D03*
D12*
X139000000Y-113000000D03*
X161000000Y-119000000D03*
X165800000Y-113150000D03*
X155000000Y-119000000D03*
X155000000Y-113000000D03*
X147000000Y-115000000D03*
X141000000Y-117500000D03*
X156000000Y-119000000D03*
X149000000Y-113000000D03*
X163000000Y-113000000D03*
X139000000Y-115000000D03*
X158000000Y-117000000D03*
X153000000Y-119000000D03*
X138500000Y-117500000D03*
X149000000Y-119000000D03*
X154000000Y-119000000D03*
X138500000Y-118500000D03*
X137000000Y-113000000D03*
X161000000Y-117000000D03*
X153000000Y-113000000D03*
X159000000Y-119000000D03*
D13*
X177225000Y-105625000D03*
D12*
X137000000Y-115000000D03*
X165800000Y-112500000D03*
X141000000Y-113000000D03*
X138500000Y-116500000D03*
X145000000Y-113000000D03*
X151000000Y-119000000D03*
X141000000Y-115000000D03*
X163000000Y-115000000D03*
X145000000Y-119000000D03*
X149000000Y-115000000D03*
X158000000Y-118000000D03*
X159000000Y-117000000D03*
X153000000Y-118000000D03*
X151000000Y-115000000D03*
X154000000Y-117000000D03*
X141000000Y-118500000D03*
X157000000Y-119000000D03*
X141000000Y-116500000D03*
X236600000Y-118500000D03*
X226000000Y-117000000D03*
X219000000Y-117000000D03*
X223000000Y-117000000D03*
X223000000Y-113000000D03*
X230000000Y-116000000D03*
X228000000Y-115000000D03*
X233000000Y-113000000D03*
X214375000Y-116525000D03*
X227000000Y-116000000D03*
X227000000Y-115000000D03*
X234100000Y-118500000D03*
X217000000Y-115000000D03*
X231000000Y-119000000D03*
X222000000Y-119000000D03*
X217000000Y-113000000D03*
X233000000Y-115000000D03*
X228000000Y-117000000D03*
X219000000Y-118000000D03*
X221000000Y-113000000D03*
X228000000Y-116000000D03*
X229000000Y-115000000D03*
X225000000Y-115000000D03*
X227000000Y-117000000D03*
X236600000Y-117500000D03*
X218000000Y-119000000D03*
X212925000Y-118400000D03*
X235000000Y-115000000D03*
X226000000Y-115000000D03*
X214375000Y-118400000D03*
X220000000Y-119000000D03*
X219000000Y-119000000D03*
D13*
X200000000Y-104300000D03*
D12*
X215000000Y-113000000D03*
X214375000Y-117775000D03*
X236600000Y-116500000D03*
X223000000Y-119000000D03*
X224000000Y-117000000D03*
X221000000Y-119000000D03*
X224000000Y-118000000D03*
X235000000Y-113000000D03*
X231000000Y-113000000D03*
X237000000Y-115000000D03*
X225000000Y-116000000D03*
X230000000Y-117000000D03*
X234100000Y-116500000D03*
X225000000Y-113000000D03*
X226000000Y-116000000D03*
X223000000Y-118000000D03*
X218000000Y-118000000D03*
X229000000Y-116000000D03*
X237000000Y-113000000D03*
X230000000Y-115000000D03*
X218000000Y-117000000D03*
X219000000Y-113000000D03*
X229000000Y-113000000D03*
X225000000Y-117000000D03*
X213775000Y-117150000D03*
X227000000Y-113000000D03*
X212925000Y-117150000D03*
X224000000Y-119000000D03*
X234100000Y-117500000D03*
X214375000Y-117150000D03*
X213775000Y-118400000D03*
X229000000Y-117000000D03*
X214375000Y-119050000D03*
D13*
X238900000Y-119600000D03*
X166250000Y-104800000D03*
D12*
X157550000Y-102150000D03*
D13*
X168150000Y-99910131D03*
D12*
X139450000Y-101450000D03*
D13*
X174112500Y-109200000D03*
D12*
X176000000Y-127000000D03*
X175000000Y-134000000D03*
X176350000Y-118450000D03*
X178750000Y-120650000D03*
X174750000Y-119200000D03*
X175100000Y-118450000D03*
X178000000Y-133000000D03*
X177000000Y-134000000D03*
X178750000Y-120000000D03*
X175000000Y-133000000D03*
X177000000Y-133000000D03*
X178000000Y-125000000D03*
X176000000Y-126000000D03*
X178000000Y-134000000D03*
X176700000Y-119200000D03*
X177350000Y-119207849D03*
X178750000Y-121950000D03*
X177000000Y-125000000D03*
X175000000Y-125000000D03*
X178750000Y-122600000D03*
X176000000Y-125000000D03*
X176050000Y-119200000D03*
X178000000Y-127000000D03*
X175000000Y-127000000D03*
X178750000Y-123900000D03*
X176000000Y-133000000D03*
X177000000Y-127000000D03*
X178750000Y-121300000D03*
X175000000Y-126000000D03*
X176000000Y-134000000D03*
D13*
X179000000Y-108000000D03*
D12*
X178750000Y-123250000D03*
X178000000Y-126000000D03*
X174100000Y-119200000D03*
X177000000Y-126000000D03*
X175400000Y-119200000D03*
D13*
X174112500Y-102150000D03*
D12*
X153450000Y-101450000D03*
X211900000Y-101500000D03*
D13*
X194761706Y-103548996D03*
X195400000Y-103300000D03*
D12*
X215000000Y-104000000D03*
X142750000Y-104000000D03*
D13*
X171635501Y-102226131D03*
D12*
X222000000Y-104000000D03*
D13*
X196900000Y-105900000D03*
X197700000Y-104000000D03*
D12*
X218700000Y-101500000D03*
D13*
X197900000Y-105400000D03*
D12*
X218900000Y-106500000D03*
D13*
X173612500Y-102162500D03*
D12*
X160850000Y-104000000D03*
X146450000Y-101450000D03*
D13*
X172124052Y-101996763D03*
D12*
X149750000Y-104000000D03*
D13*
X172612500Y-102200000D03*
X173112500Y-102200000D03*
D12*
X156750000Y-104000000D03*
D13*
X175850000Y-104425000D03*
X191200000Y-104000000D03*
X175662710Y-105937290D03*
D12*
X212400000Y-113200000D03*
X173225000Y-118425000D03*
D13*
X171425000Y-109775000D03*
D12*
X164200000Y-126250000D03*
D13*
X173125000Y-109375000D03*
X175850000Y-107425000D03*
D12*
X179650000Y-117115000D03*
D13*
X174900000Y-108600000D03*
D12*
X180600000Y-117115000D03*
X197000000Y-117000000D03*
X187000000Y-116000000D03*
X200000000Y-119000000D03*
X183000000Y-116000000D03*
X179000000Y-112550000D03*
X191000000Y-118000000D03*
X182000000Y-116000000D03*
X195000000Y-119000000D03*
D13*
X202700000Y-118000000D03*
D12*
X189000000Y-115000000D03*
X182000000Y-115000000D03*
X192000000Y-119000000D03*
X199000000Y-113000000D03*
X188000000Y-116000000D03*
X186000000Y-116000000D03*
X193000000Y-113000000D03*
X173800000Y-115150000D03*
D13*
X166825000Y-108050000D03*
D12*
X196000000Y-118000000D03*
X186000000Y-117000000D03*
X187000000Y-115000000D03*
X196000000Y-117000000D03*
X189000000Y-116000000D03*
X188000000Y-115000000D03*
X181000000Y-115000000D03*
X200000000Y-117000000D03*
X187000000Y-117000000D03*
X208043732Y-103100000D03*
X201000000Y-113000000D03*
X173800000Y-114500000D03*
X195000000Y-113000000D03*
X182000000Y-119000000D03*
X186000000Y-115000000D03*
X173800000Y-113200000D03*
X192000000Y-118000000D03*
X183000000Y-115000000D03*
X181000000Y-116000000D03*
X184000000Y-115000000D03*
X199400000Y-117000000D03*
X193000000Y-119000000D03*
X184000000Y-117000000D03*
X184000000Y-116000000D03*
X183000000Y-117000000D03*
X191000000Y-119000000D03*
X179000000Y-113200000D03*
X196000000Y-119000000D03*
X200000000Y-118000000D03*
X197000000Y-113000000D03*
X199400000Y-118000000D03*
X173800000Y-112550000D03*
X189000000Y-117000000D03*
X199000000Y-115000000D03*
X185000000Y-115000000D03*
X173800000Y-113850000D03*
X197000000Y-119000000D03*
X201000000Y-115000000D03*
X191000000Y-117000000D03*
X192000000Y-117000000D03*
X199400000Y-119000000D03*
X185000000Y-117000000D03*
X194000000Y-119000000D03*
X185000000Y-116000000D03*
X182000000Y-117000000D03*
X161700000Y-111100000D03*
X179000000Y-113850000D03*
X197000000Y-118000000D03*
X188000000Y-117000000D03*
X180000000Y-115000000D03*
D13*
X203050000Y-118700000D03*
D14*
X171900000Y-122500000D03*
D12*
X173100000Y-121000000D03*
X165900000Y-119200000D03*
X169650000Y-117700000D03*
X172400000Y-119900000D03*
D14*
X165727000Y-111352413D03*
D12*
X167775000Y-119200000D03*
X165900000Y-117700000D03*
X169025000Y-119200000D03*
X166000000Y-123250000D03*
X169650000Y-119200000D03*
X166000000Y-121950000D03*
D13*
X172000000Y-111300000D03*
D12*
X168400000Y-119200000D03*
X166000000Y-122600000D03*
X166525000Y-119200000D03*
X173100000Y-119900000D03*
X166000000Y-120650000D03*
X166000000Y-123900000D03*
X168400000Y-117700000D03*
X167150000Y-119200000D03*
X167150000Y-117700000D03*
X166000000Y-120000000D03*
X166000000Y-121300000D03*
X171700000Y-119900000D03*
X173100000Y-124000000D03*
X172000000Y-130000000D03*
X171000000Y-127000000D03*
X170000000Y-134000000D03*
X169000000Y-133000000D03*
X172400000Y-124000000D03*
X169000000Y-127000000D03*
X172000000Y-133000000D03*
X170000000Y-133000000D03*
X171700000Y-125200000D03*
X170000000Y-127000000D03*
X171000000Y-131000000D03*
X171700000Y-124000000D03*
X167000000Y-126000000D03*
D14*
X165738211Y-110652500D03*
D12*
X168000000Y-126000000D03*
X171000000Y-129000000D03*
X170000000Y-126000000D03*
X167000000Y-134000000D03*
X172000000Y-129000000D03*
X171000000Y-130000000D03*
X171000000Y-126000000D03*
X172000000Y-126000000D03*
X172000000Y-134000000D03*
D14*
X172850000Y-122500000D03*
D12*
X169000000Y-134000000D03*
X171000000Y-133000000D03*
X167000000Y-133000000D03*
X168000000Y-127000000D03*
X172400000Y-125200000D03*
X169000000Y-126000000D03*
X172000000Y-127000000D03*
X171000000Y-134000000D03*
X168000000Y-133000000D03*
X167000000Y-127000000D03*
X173100000Y-125200000D03*
X168000000Y-134000000D03*
X172000000Y-131000000D03*
X206000000Y-118000000D03*
X206000000Y-117000000D03*
X206600000Y-119000000D03*
X210000000Y-113000000D03*
X204400000Y-113000000D03*
X206600000Y-117000000D03*
X206000000Y-119000000D03*
X204400000Y-115000000D03*
X161700000Y-109500000D03*
D13*
X203325000Y-118000000D03*
D12*
X206600000Y-118000000D03*
X206000000Y-115000000D03*
X208000000Y-113000000D03*
X206000000Y-113000000D03*
X208043732Y-103950000D03*
D15*
X171184342Y-109194000D02*
X172944000Y-109194000D01*
X170844000Y-116156000D02*
X170844000Y-109534342D01*
X165500000Y-116900000D02*
X170100000Y-116900000D01*
X170100000Y-116900000D02*
X170844000Y-116156000D01*
X162900000Y-119500000D02*
X165500000Y-116900000D01*
X162900000Y-124950000D02*
X162900000Y-119500000D01*
X170844000Y-109534342D02*
X171184342Y-109194000D01*
X172944000Y-109194000D02*
X173125000Y-109375000D01*
X164200000Y-126250000D02*
X162900000Y-124950000D01*
D16*
X165150000Y-104575000D02*
X165150000Y-111850000D01*
X168275000Y-101450000D02*
X172550000Y-101450000D01*
X177225000Y-104275000D02*
X177225000Y-105625000D01*
X174400000Y-101450000D02*
X177225000Y-104275000D01*
X180900000Y-101450000D02*
X172550000Y-101450000D01*
X172550000Y-101450000D02*
X174400000Y-101450000D01*
X165150000Y-111850000D02*
X165800000Y-112500000D01*
X168275000Y-101450000D02*
X165150000Y-104575000D01*
D15*
X211700000Y-111500000D02*
X183500000Y-111500000D01*
X212400000Y-113200000D02*
X212400000Y-112200000D01*
X178943684Y-106943684D02*
X177012000Y-106943684D01*
X212400000Y-112200000D02*
X211700000Y-111500000D01*
X177012000Y-106943684D02*
X176005606Y-105937290D01*
X183500000Y-111500000D02*
X178943684Y-106943684D01*
X176005606Y-105937290D02*
X175662710Y-105937290D01*
X173225000Y-118425000D02*
X171425000Y-116625000D01*
X171425000Y-116625000D02*
X171425000Y-109775000D01*
X175850000Y-108471658D02*
X172006000Y-112315658D01*
X179165000Y-117600000D02*
X179650000Y-117115000D01*
X172006000Y-112315658D02*
X172006000Y-116384342D01*
X175850000Y-107425000D02*
X175850000Y-108471658D01*
X173221658Y-117600000D02*
X179165000Y-117600000D01*
X172006000Y-116384342D02*
X173221658Y-117600000D01*
X172587000Y-112556316D02*
X176431000Y-108712316D01*
X178740500Y-117019000D02*
X173462316Y-117019000D01*
X176090658Y-106844000D02*
X175609342Y-106844000D01*
X175609342Y-106844000D02*
X175269000Y-107184342D01*
X179936015Y-116424500D02*
X179335000Y-116424500D01*
X179335000Y-116424500D02*
X178740500Y-117019000D01*
X180600000Y-117088485D02*
X179936015Y-116424500D01*
X175269000Y-108231000D02*
X174900000Y-108600000D01*
X175269000Y-107184342D02*
X175269000Y-108231000D01*
X172587000Y-116143684D02*
X172587000Y-112556316D01*
X173462316Y-117019000D02*
X172587000Y-116143684D01*
X176431000Y-107184342D02*
X176090658Y-106844000D01*
X176431000Y-108712316D02*
X176431000Y-107184342D01*
X180600000Y-117115000D02*
X180600000Y-117088485D01*
G04 #@! TA.AperFunction,Conductor*
G36*
X170396039Y-111919685D02*
G01*
X170441794Y-111972489D01*
X170453000Y-112024000D01*
X170453000Y-115942680D01*
X170433315Y-116009719D01*
X170416681Y-116030361D01*
X169974361Y-116472681D01*
X169913038Y-116506166D01*
X169886680Y-116509000D01*
X165448524Y-116509000D01*
X165349079Y-116535646D01*
X165349076Y-116535647D01*
X165259923Y-116587120D01*
X165259917Y-116587124D01*
X162587124Y-119259917D01*
X162587120Y-119259923D01*
X162535647Y-119349076D01*
X162535646Y-119349077D01*
X162525016Y-119388751D01*
X162519701Y-119408587D01*
X162519701Y-119408588D01*
X162519700Y-119408587D01*
X162509000Y-119448522D01*
X162509000Y-119876000D01*
X162489315Y-119943039D01*
X162436511Y-119988794D01*
X162385000Y-120000000D01*
X136124500Y-120000000D01*
X136057461Y-119980315D01*
X136011706Y-119927511D01*
X136000500Y-119876000D01*
X136000500Y-112024000D01*
X136020185Y-111956961D01*
X136072989Y-111911206D01*
X136124500Y-111900000D01*
X170329000Y-111900000D01*
X170396039Y-111919685D01*
G37*
G04 #@! TD.AperFunction*
G04 #@! TA.AperFunction,Conductor*
G36*
X239442539Y-111919685D02*
G01*
X239488294Y-111972489D01*
X239499500Y-112024000D01*
X239499500Y-119876000D01*
X239479815Y-119943039D01*
X239427011Y-119988794D01*
X239375500Y-120000000D01*
X212729500Y-120000000D01*
X212662461Y-119980315D01*
X212616706Y-119927511D01*
X212605500Y-119876000D01*
X212605500Y-113814453D01*
X212605463Y-113813443D01*
X212604977Y-113799797D01*
X212603715Y-113782149D01*
X212599928Y-113767311D01*
X212602421Y-113697486D01*
X212642269Y-113640093D01*
X212653025Y-113632336D01*
X212731128Y-113582143D01*
X212825377Y-113473373D01*
X212885165Y-113342457D01*
X212905647Y-113200000D01*
X212885165Y-113057543D01*
X212825377Y-112926627D01*
X212825374Y-112926623D01*
X212821283Y-112921901D01*
X212792261Y-112858344D01*
X212791000Y-112840703D01*
X212791000Y-112148526D01*
X212791000Y-112148524D01*
X212766233Y-112056092D01*
X212767896Y-111986243D01*
X212807059Y-111928381D01*
X212871287Y-111900877D01*
X212886008Y-111900000D01*
X239375500Y-111900000D01*
X239442539Y-111919685D01*
G37*
G04 #@! TD.AperFunction*
G04 #@! TA.AperFunction,Conductor*
G36*
X211562719Y-111919685D02*
G01*
X211583361Y-111936319D01*
X211972681Y-112325638D01*
X212006166Y-112386961D01*
X212009000Y-112413319D01*
X212009000Y-112840703D01*
X211989315Y-112907742D01*
X211978717Y-112921901D01*
X211974625Y-112926623D01*
X211974622Y-112926628D01*
X211914834Y-113057543D01*
X211894353Y-113200000D01*
X211914834Y-113342456D01*
X211974622Y-113473371D01*
X211974623Y-113473373D01*
X212068872Y-113582143D01*
X212189947Y-113659953D01*
X212189950Y-113659954D01*
X212189949Y-113659954D01*
X212310934Y-113695478D01*
X212369713Y-113733252D01*
X212398738Y-113796807D01*
X212400000Y-113814455D01*
X212400000Y-119876000D01*
X212380315Y-119943039D01*
X212327511Y-119988794D01*
X212276000Y-120000000D01*
X203074000Y-120000000D01*
X203006961Y-119980315D01*
X202961206Y-119927511D01*
X202950000Y-119876000D01*
X202950000Y-119176613D01*
X202969685Y-119109574D01*
X203022489Y-119063819D01*
X203054603Y-119054140D01*
X203159657Y-119037501D01*
X203159661Y-119037500D01*
X203206735Y-119013515D01*
X203263029Y-119000000D01*
X204100000Y-119000000D01*
X204100000Y-117550000D01*
X203074000Y-117550000D01*
X203006961Y-117530315D01*
X202961206Y-117477511D01*
X202950000Y-117426000D01*
X202950000Y-112024000D01*
X202969685Y-111956961D01*
X203022489Y-111911206D01*
X203074000Y-111900000D01*
X211495680Y-111900000D01*
X211562719Y-111919685D01*
G37*
G04 #@! TD.AperFunction*
G04 #@! TA.AperFunction,Conductor*
G36*
X202687539Y-111919685D02*
G01*
X202733294Y-111972489D01*
X202744500Y-112024000D01*
X202744500Y-117426000D01*
X202724815Y-117493039D01*
X202672011Y-117538794D01*
X202620500Y-117550000D01*
X202300000Y-117550000D01*
X202300000Y-119000000D01*
X202626790Y-119000000D01*
X202693829Y-119019685D01*
X202739584Y-119072489D01*
X202749528Y-119141647D01*
X202749528Y-119141648D01*
X202744500Y-119176615D01*
X202744500Y-119876000D01*
X202724815Y-119943039D01*
X202672011Y-119988794D01*
X202620500Y-120000000D01*
X179579500Y-120000000D01*
X179512461Y-119980315D01*
X179466706Y-119927511D01*
X179455500Y-119876000D01*
X179455500Y-118215010D01*
X179455500Y-118215000D01*
X179448518Y-118150059D01*
X179437312Y-118098548D01*
X179426354Y-118060342D01*
X179422050Y-118052984D01*
X179412399Y-118036480D01*
X179395547Y-117968673D01*
X179418030Y-117902520D01*
X179431752Y-117886205D01*
X179671971Y-117645985D01*
X179724716Y-117614691D01*
X179860050Y-117574954D01*
X179860050Y-117574953D01*
X179860053Y-117574953D01*
X179981128Y-117497143D01*
X180031287Y-117439256D01*
X180090065Y-117401481D01*
X180159934Y-117401481D01*
X180218711Y-117439253D01*
X180268872Y-117497143D01*
X180389947Y-117574953D01*
X180389950Y-117574954D01*
X180389949Y-117574954D01*
X180528036Y-117615499D01*
X180528038Y-117615500D01*
X180528039Y-117615500D01*
X180671962Y-117615500D01*
X180671962Y-117615499D01*
X180810053Y-117574953D01*
X180931128Y-117497143D01*
X181025377Y-117388373D01*
X181085165Y-117257457D01*
X181105647Y-117115000D01*
X181085165Y-116972543D01*
X181025377Y-116841627D01*
X180931128Y-116732857D01*
X180810053Y-116655047D01*
X180810051Y-116655046D01*
X180810049Y-116655045D01*
X180810050Y-116655045D01*
X180712253Y-116626330D01*
X180659506Y-116595034D01*
X180176097Y-116111624D01*
X180176096Y-116111623D01*
X180176095Y-116111622D01*
X180086936Y-116060146D01*
X179987491Y-116033500D01*
X179386476Y-116033500D01*
X179283524Y-116033500D01*
X179184079Y-116060146D01*
X179184076Y-116060147D01*
X179094923Y-116111620D01*
X179094917Y-116111624D01*
X178614861Y-116591681D01*
X178553538Y-116625166D01*
X178527180Y-116628000D01*
X173675636Y-116628000D01*
X173608597Y-116608315D01*
X173587955Y-116591681D01*
X173014319Y-116018045D01*
X172980834Y-115956722D01*
X172978000Y-115930364D01*
X172978000Y-112769635D01*
X172997685Y-112702596D01*
X173014314Y-112681959D01*
X173759955Y-111936318D01*
X173821277Y-111902834D01*
X173847635Y-111900000D01*
X202620500Y-111900000D01*
X202687539Y-111919685D01*
G37*
G04 #@! TD.AperFunction*
G04 #@! TA.AperFunction,Conductor*
G36*
X212563573Y-120154561D02*
G01*
X212604563Y-120177490D01*
X212671602Y-120197175D01*
X212729500Y-120205500D01*
X212729504Y-120205500D01*
X239375500Y-120205500D01*
X239442539Y-120225185D01*
X239488294Y-120277989D01*
X239499500Y-120329500D01*
X239499500Y-138375500D01*
X239479815Y-138442539D01*
X239427011Y-138488294D01*
X239375500Y-138499500D01*
X136124500Y-138499500D01*
X136057461Y-138479815D01*
X136011706Y-138427011D01*
X136000500Y-138375500D01*
X136000500Y-120329500D01*
X136020185Y-120262461D01*
X136072989Y-120216706D01*
X136124500Y-120205500D01*
X162385000Y-120205500D01*
X162452039Y-120225185D01*
X162497794Y-120277989D01*
X162509000Y-120329500D01*
X162509000Y-124898524D01*
X162509000Y-125001476D01*
X162535646Y-125100921D01*
X162587122Y-125190080D01*
X162587123Y-125190081D01*
X162587124Y-125190082D01*
X163673113Y-126276070D01*
X163706598Y-126337393D01*
X163708170Y-126346103D01*
X163714834Y-126392454D01*
X163714835Y-126392456D01*
X163714835Y-126392457D01*
X163774623Y-126523373D01*
X163868872Y-126632143D01*
X163989947Y-126709953D01*
X163989950Y-126709954D01*
X163989949Y-126709954D01*
X164128036Y-126750499D01*
X164128038Y-126750500D01*
X164128039Y-126750500D01*
X164271962Y-126750500D01*
X164271962Y-126750499D01*
X164410053Y-126709953D01*
X164531128Y-126632143D01*
X164625377Y-126523373D01*
X164685165Y-126392457D01*
X164705647Y-126250000D01*
X164685165Y-126107543D01*
X164625377Y-125976627D01*
X164531128Y-125867857D01*
X164496581Y-125845655D01*
X164410051Y-125790045D01*
X164274715Y-125750308D01*
X164221969Y-125719012D01*
X163327319Y-124824361D01*
X163293834Y-124763038D01*
X163291000Y-124736680D01*
X163291000Y-120329500D01*
X163310685Y-120262461D01*
X163363489Y-120216706D01*
X163415000Y-120205500D01*
X165170500Y-120205500D01*
X165237539Y-120225185D01*
X165283294Y-120277989D01*
X165294500Y-120329500D01*
X165294500Y-124276000D01*
X165294501Y-124276009D01*
X165301481Y-124340935D01*
X165301483Y-124340947D01*
X165312688Y-124392453D01*
X165323644Y-124430654D01*
X165323646Y-124430658D01*
X165357860Y-124489159D01*
X165374713Y-124556966D01*
X165361354Y-124607962D01*
X165326560Y-124676390D01*
X165306877Y-124743421D01*
X165306876Y-124743428D01*
X165294500Y-124829500D01*
X165294500Y-135176000D01*
X165294501Y-135176009D01*
X165301481Y-135240935D01*
X165301483Y-135240947D01*
X165312688Y-135292453D01*
X165323644Y-135330654D01*
X165323646Y-135330658D01*
X165380323Y-135427568D01*
X165380325Y-135427571D01*
X165426081Y-135480376D01*
X165426091Y-135480387D01*
X165470807Y-135522548D01*
X165470809Y-135522549D01*
X165470813Y-135522553D01*
X165570889Y-135573439D01*
X165637928Y-135593124D01*
X165724000Y-135605500D01*
X165724003Y-135605500D01*
X173370490Y-135605500D01*
X173370500Y-135605500D01*
X173435441Y-135598518D01*
X173486952Y-135587312D01*
X173525158Y-135576354D01*
X173583659Y-135542139D01*
X173651465Y-135525286D01*
X173702458Y-135538643D01*
X173770889Y-135573439D01*
X173770891Y-135573439D01*
X173770892Y-135573440D01*
X173837921Y-135593122D01*
X173837928Y-135593124D01*
X173924000Y-135605500D01*
X173924003Y-135605500D01*
X179025990Y-135605500D01*
X179026000Y-135605500D01*
X179090941Y-135598518D01*
X179142452Y-135587312D01*
X179180658Y-135576354D01*
X179277571Y-135519675D01*
X179330375Y-135473920D01*
X179330382Y-135473912D01*
X179330387Y-135473908D01*
X179372548Y-135429192D01*
X179372553Y-135429187D01*
X179423439Y-135329111D01*
X179443124Y-135262072D01*
X179455500Y-135176000D01*
X179455500Y-120329500D01*
X179475185Y-120262461D01*
X179527989Y-120216706D01*
X179579500Y-120205500D01*
X202620491Y-120205500D01*
X202620500Y-120205500D01*
X202664184Y-120200803D01*
X202693375Y-120194452D01*
X202715674Y-120189602D01*
X202715690Y-120189598D01*
X202715695Y-120189597D01*
X202725873Y-120187110D01*
X202789227Y-120153349D01*
X202857645Y-120139194D01*
X202908073Y-120154561D01*
X202949063Y-120177490D01*
X203016102Y-120197175D01*
X203074000Y-120205500D01*
X203074004Y-120205500D01*
X212275991Y-120205500D01*
X212276000Y-120205500D01*
X212319684Y-120200803D01*
X212348875Y-120194452D01*
X212371174Y-120189602D01*
X212371190Y-120189598D01*
X212371195Y-120189597D01*
X212381373Y-120187110D01*
X212444727Y-120153349D01*
X212513145Y-120139194D01*
X212563573Y-120154561D01*
G37*
G04 #@! TD.AperFunction*
G04 #@! TA.AperFunction,Conductor*
G36*
X239442539Y-96520185D02*
G01*
X239488294Y-96572989D01*
X239499500Y-96624500D01*
X239499500Y-111570500D01*
X239479815Y-111637539D01*
X239427011Y-111683294D01*
X239375500Y-111694500D01*
X212886008Y-111694500D01*
X212885314Y-111694520D01*
X212873804Y-111694863D01*
X212859065Y-111695741D01*
X212790395Y-111711968D01*
X212790393Y-111711968D01*
X212790392Y-111711969D01*
X212766421Y-111722234D01*
X212726175Y-111739468D01*
X212726171Y-111739469D01*
X212726164Y-111739473D01*
X212704146Y-111750540D01*
X212703702Y-111750764D01*
X212687889Y-111765537D01*
X212625462Y-111796916D01*
X212555981Y-111789563D01*
X212515561Y-111762604D01*
X212271944Y-111518987D01*
X211940080Y-111187122D01*
X211850921Y-111135646D01*
X211751476Y-111109000D01*
X211751475Y-111109000D01*
X183713320Y-111109000D01*
X183646281Y-111089315D01*
X183625639Y-111072681D01*
X179183766Y-106630808D01*
X179183764Y-106630806D01*
X179094605Y-106579330D01*
X178995160Y-106552684D01*
X178995159Y-106552684D01*
X177225320Y-106552684D01*
X177158281Y-106532999D01*
X177137639Y-106516365D01*
X177121274Y-106500000D01*
X218394353Y-106500000D01*
X218414834Y-106642456D01*
X218474622Y-106773371D01*
X218474623Y-106773373D01*
X218568872Y-106882143D01*
X218689947Y-106959953D01*
X218689950Y-106959954D01*
X218689949Y-106959954D01*
X218828036Y-107000499D01*
X218828038Y-107000500D01*
X218828039Y-107000500D01*
X218971962Y-107000500D01*
X218971962Y-107000499D01*
X219110053Y-106959953D01*
X219231128Y-106882143D01*
X219325377Y-106773373D01*
X219385165Y-106642457D01*
X219405647Y-106500000D01*
X219385165Y-106357543D01*
X219325377Y-106226627D01*
X219231128Y-106117857D01*
X219110053Y-106040047D01*
X219110051Y-106040046D01*
X219110049Y-106040045D01*
X219110050Y-106040045D01*
X218971963Y-105999500D01*
X218971961Y-105999500D01*
X218828039Y-105999500D01*
X218828036Y-105999500D01*
X218689949Y-106040045D01*
X218568873Y-106117856D01*
X218474623Y-106226626D01*
X218474622Y-106226628D01*
X218414834Y-106357543D01*
X218394353Y-106500000D01*
X177121274Y-106500000D01*
X176245688Y-105624414D01*
X176245686Y-105624412D01*
X176156527Y-105572936D01*
X176057082Y-105546290D01*
X175611234Y-105546290D01*
X175550745Y-105562498D01*
X175511789Y-105572936D01*
X175422631Y-105624411D01*
X175422628Y-105624413D01*
X175349833Y-105697208D01*
X175349831Y-105697211D01*
X175298356Y-105786369D01*
X175297292Y-105790341D01*
X175271710Y-105885814D01*
X175271710Y-105988766D01*
X175298356Y-106088210D01*
X175349832Y-106177370D01*
X175422630Y-106250168D01*
X175453257Y-106267850D01*
X175501473Y-106318416D01*
X175514698Y-106387022D01*
X175488731Y-106451888D01*
X175453260Y-106482624D01*
X175369268Y-106531118D01*
X175369259Y-106531124D01*
X174956124Y-106944259D01*
X174956120Y-106944265D01*
X174904645Y-107033420D01*
X174904646Y-107033420D01*
X174904646Y-107033421D01*
X174878000Y-107132866D01*
X174878000Y-108017680D01*
X174858315Y-108084719D01*
X174841681Y-108105361D01*
X174587124Y-108359917D01*
X174587120Y-108359923D01*
X174535647Y-108449076D01*
X174535646Y-108449079D01*
X174509000Y-108548524D01*
X174509000Y-108651475D01*
X174535646Y-108750920D01*
X174535647Y-108750923D01*
X174579076Y-108826144D01*
X174595549Y-108894044D01*
X174572696Y-108960071D01*
X174517775Y-109003262D01*
X174448222Y-109009903D01*
X174386119Y-108977887D01*
X174384008Y-108975825D01*
X174321092Y-108912909D01*
X174321088Y-108912906D01*
X174321087Y-108912905D01*
X174258713Y-108881124D01*
X174222158Y-108862498D01*
X174112502Y-108845131D01*
X174112498Y-108845131D01*
X174002841Y-108862498D01*
X173903914Y-108912904D01*
X173903907Y-108912909D01*
X173825409Y-108991407D01*
X173825404Y-108991414D01*
X173774998Y-109090341D01*
X173757631Y-109199997D01*
X173757631Y-109200002D01*
X173774998Y-109309658D01*
X173784389Y-109328089D01*
X173825404Y-109408586D01*
X173825409Y-109408592D01*
X173903907Y-109487090D01*
X173903911Y-109487093D01*
X173903913Y-109487095D01*
X174002050Y-109537098D01*
X174052845Y-109585071D01*
X174069640Y-109652892D01*
X174047103Y-109719027D01*
X174033435Y-109735263D01*
X172539482Y-111229216D01*
X172478159Y-111262701D01*
X172408467Y-111257717D01*
X172352534Y-111215845D01*
X172341316Y-111197829D01*
X172309633Y-111135647D01*
X172287095Y-111091413D01*
X172287092Y-111091410D01*
X172287090Y-111091407D01*
X172208592Y-111012909D01*
X172208588Y-111012906D01*
X172208587Y-111012905D01*
X172183999Y-111000377D01*
X172109658Y-110962498D01*
X172000002Y-110945131D01*
X172000000Y-110945131D01*
X171959397Y-110951562D01*
X171890104Y-110942606D01*
X171836652Y-110897609D01*
X171816013Y-110830858D01*
X171816000Y-110829088D01*
X171816000Y-109715397D01*
X171817744Y-109715397D01*
X171826986Y-109656147D01*
X171873368Y-109603892D01*
X171939158Y-109585000D01*
X172730681Y-109585000D01*
X172797720Y-109604685D01*
X172818362Y-109621319D01*
X172884921Y-109687878D01*
X172974080Y-109739354D01*
X173073524Y-109766001D01*
X173073527Y-109766001D01*
X173176474Y-109766001D01*
X173176476Y-109766001D01*
X173275921Y-109739354D01*
X173365080Y-109687878D01*
X173437878Y-109615080D01*
X173489354Y-109525921D01*
X173516001Y-109426476D01*
X173516001Y-109323524D01*
X173489354Y-109224080D01*
X173437878Y-109134921D01*
X173184080Y-108881122D01*
X173094921Y-108829646D01*
X172995476Y-108803000D01*
X171235818Y-108803000D01*
X171132866Y-108803000D01*
X171033421Y-108829646D01*
X171033418Y-108829647D01*
X170944265Y-108881120D01*
X170944259Y-108881124D01*
X170531124Y-109294259D01*
X170531120Y-109294265D01*
X170479645Y-109383422D01*
X170479644Y-109383423D01*
X170472903Y-109408585D01*
X170472903Y-109408586D01*
X170453000Y-109482866D01*
X170453000Y-111570500D01*
X170433315Y-111637539D01*
X170380511Y-111683294D01*
X170329000Y-111694500D01*
X166258977Y-111694500D01*
X166191938Y-111674815D01*
X166146183Y-111622011D01*
X166136239Y-111552853D01*
X166146181Y-111518992D01*
X166163697Y-111480639D01*
X166182133Y-111352413D01*
X166163697Y-111224187D01*
X166109882Y-111106350D01*
X166109880Y-111106348D01*
X166109879Y-111106345D01*
X166095825Y-111090126D01*
X166066801Y-111026570D01*
X166076745Y-110957412D01*
X166095827Y-110927722D01*
X166121090Y-110898567D01*
X166121090Y-110898565D01*
X166121093Y-110898563D01*
X166174908Y-110780726D01*
X166193344Y-110652500D01*
X166174908Y-110524274D01*
X166121093Y-110406437D01*
X166036260Y-110308533D01*
X165927280Y-110238496D01*
X165927276Y-110238494D01*
X165927275Y-110238494D01*
X165802985Y-110202000D01*
X165802983Y-110202000D01*
X165673439Y-110202000D01*
X165673438Y-110202000D01*
X165636432Y-110212865D01*
X165566562Y-110212863D01*
X165507785Y-110175088D01*
X165478762Y-110111531D01*
X165477500Y-110093887D01*
X165477500Y-108049997D01*
X166470131Y-108049997D01*
X166470131Y-108050002D01*
X166487498Y-108159658D01*
X166537904Y-108258585D01*
X166537909Y-108258592D01*
X166616407Y-108337090D01*
X166616410Y-108337092D01*
X166616413Y-108337095D01*
X166661210Y-108359920D01*
X166715341Y-108387501D01*
X166824998Y-108404869D01*
X166825000Y-108404869D01*
X166825002Y-108404869D01*
X166934658Y-108387501D01*
X166934659Y-108387500D01*
X166934661Y-108387500D01*
X167033587Y-108337095D01*
X167112095Y-108258587D01*
X167162500Y-108159661D01*
X167162500Y-108159659D01*
X167162501Y-108159658D01*
X167179869Y-108050002D01*
X167179869Y-108049997D01*
X167162501Y-107940341D01*
X167162500Y-107940339D01*
X167112095Y-107841413D01*
X167112092Y-107841410D01*
X167112090Y-107841407D01*
X167033592Y-107762909D01*
X167033588Y-107762906D01*
X167033587Y-107762905D01*
X167029743Y-107760946D01*
X166934658Y-107712498D01*
X166825002Y-107695131D01*
X166824998Y-107695131D01*
X166715341Y-107712498D01*
X166616414Y-107762904D01*
X166616407Y-107762909D01*
X166537909Y-107841407D01*
X166537904Y-107841414D01*
X166487498Y-107940341D01*
X166470131Y-108049997D01*
X165477500Y-108049997D01*
X165477500Y-104799997D01*
X165895131Y-104799997D01*
X165895131Y-104800002D01*
X165912498Y-104909658D01*
X165962904Y-105008585D01*
X165962909Y-105008592D01*
X166041407Y-105087090D01*
X166041410Y-105087092D01*
X166041413Y-105087095D01*
X166140339Y-105137500D01*
X166140341Y-105137501D01*
X166249998Y-105154869D01*
X166250000Y-105154869D01*
X166250002Y-105154869D01*
X166359658Y-105137501D01*
X166359659Y-105137500D01*
X166359661Y-105137500D01*
X166458587Y-105087095D01*
X166537095Y-105008587D01*
X166587500Y-104909661D01*
X166587500Y-104909659D01*
X166587501Y-104909658D01*
X166604869Y-104800002D01*
X166604869Y-104799997D01*
X166587501Y-104690341D01*
X166558586Y-104633592D01*
X166537095Y-104591413D01*
X166537092Y-104591410D01*
X166537090Y-104591407D01*
X166458592Y-104512909D01*
X166458588Y-104512906D01*
X166458587Y-104512905D01*
X166450112Y-104508587D01*
X166359658Y-104462498D01*
X166250002Y-104445131D01*
X166249998Y-104445131D01*
X166140341Y-104462498D01*
X166041414Y-104512904D01*
X166041407Y-104512909D01*
X165962909Y-104591407D01*
X165962904Y-104591414D01*
X165912498Y-104690341D01*
X165895131Y-104799997D01*
X165477500Y-104799997D01*
X165477500Y-104762017D01*
X165497185Y-104694978D01*
X165513819Y-104674336D01*
X165763158Y-104424997D01*
X175495131Y-104424997D01*
X175495131Y-104425002D01*
X175512498Y-104534658D01*
X175562904Y-104633585D01*
X175562909Y-104633592D01*
X175641407Y-104712090D01*
X175641410Y-104712092D01*
X175641413Y-104712095D01*
X175739391Y-104762017D01*
X175740341Y-104762501D01*
X175849998Y-104779869D01*
X175850000Y-104779869D01*
X175850002Y-104779869D01*
X175959658Y-104762501D01*
X175959659Y-104762500D01*
X175959661Y-104762500D01*
X176058587Y-104712095D01*
X176137095Y-104633587D01*
X176187500Y-104534661D01*
X176187500Y-104534659D01*
X176187501Y-104534658D01*
X176204869Y-104425002D01*
X176204869Y-104424997D01*
X176187501Y-104315341D01*
X176173109Y-104287095D01*
X176137095Y-104216413D01*
X176137092Y-104216410D01*
X176137090Y-104216407D01*
X176058592Y-104137909D01*
X176058588Y-104137906D01*
X176058587Y-104137905D01*
X176003149Y-104109658D01*
X175959658Y-104087498D01*
X175850002Y-104070131D01*
X175849998Y-104070131D01*
X175740341Y-104087498D01*
X175641414Y-104137904D01*
X175641407Y-104137909D01*
X175562909Y-104216407D01*
X175562904Y-104216414D01*
X175512498Y-104315341D01*
X175495131Y-104424997D01*
X165763158Y-104424997D01*
X168374336Y-101813819D01*
X168435659Y-101780334D01*
X168462017Y-101777500D01*
X171289087Y-101777500D01*
X171356126Y-101797185D01*
X171401881Y-101849989D01*
X171411825Y-101919147D01*
X171382800Y-101982703D01*
X171376768Y-101989181D01*
X171348410Y-102017538D01*
X171348405Y-102017545D01*
X171297999Y-102116472D01*
X171280632Y-102226128D01*
X171280632Y-102226133D01*
X171297999Y-102335789D01*
X171348405Y-102434716D01*
X171348410Y-102434723D01*
X171426908Y-102513221D01*
X171426911Y-102513223D01*
X171426914Y-102513226D01*
X171525840Y-102563631D01*
X171525842Y-102563632D01*
X171635499Y-102581000D01*
X171635501Y-102581000D01*
X171635503Y-102581000D01*
X171745159Y-102563632D01*
X171745160Y-102563631D01*
X171745162Y-102563631D01*
X171844088Y-102513226D01*
X171922596Y-102434718D01*
X171935912Y-102408581D01*
X171983884Y-102357788D01*
X172051704Y-102340992D01*
X172065794Y-102342405D01*
X172124050Y-102351632D01*
X172124052Y-102351632D01*
X172124054Y-102351632D01*
X172194534Y-102340469D01*
X172263827Y-102349424D01*
X172317279Y-102394420D01*
X172324416Y-102406646D01*
X172325404Y-102408585D01*
X172325409Y-102408592D01*
X172403907Y-102487090D01*
X172403910Y-102487092D01*
X172403913Y-102487095D01*
X172492325Y-102532143D01*
X172502841Y-102537501D01*
X172612498Y-102554869D01*
X172612500Y-102554869D01*
X172612502Y-102554869D01*
X172722156Y-102537501D01*
X172722156Y-102537500D01*
X172722161Y-102537500D01*
X172806210Y-102494675D01*
X172874874Y-102481780D01*
X172918787Y-102494673D01*
X173002839Y-102537500D01*
X173002841Y-102537500D01*
X173002843Y-102537501D01*
X173112498Y-102554869D01*
X173112500Y-102554869D01*
X173112502Y-102554869D01*
X173222158Y-102537501D01*
X173222159Y-102537500D01*
X173222161Y-102537500D01*
X173321087Y-102487095D01*
X173321090Y-102487091D01*
X173324093Y-102484911D01*
X173328363Y-102483387D01*
X173329783Y-102482664D01*
X173329876Y-102482847D01*
X173389899Y-102461431D01*
X173453269Y-102474743D01*
X173502839Y-102500000D01*
X173502841Y-102500000D01*
X173502843Y-102500001D01*
X173612498Y-102517369D01*
X173612500Y-102517369D01*
X173612502Y-102517369D01*
X173667330Y-102508684D01*
X173722161Y-102500000D01*
X173818473Y-102450926D01*
X173887140Y-102438030D01*
X173931054Y-102450923D01*
X174002839Y-102487500D01*
X174002841Y-102487500D01*
X174002843Y-102487501D01*
X174112498Y-102504869D01*
X174112500Y-102504869D01*
X174112502Y-102504869D01*
X174222158Y-102487501D01*
X174222159Y-102487500D01*
X174222161Y-102487500D01*
X174321087Y-102437095D01*
X174399595Y-102358587D01*
X174450000Y-102259661D01*
X174450001Y-102259657D01*
X174452471Y-102244064D01*
X174482400Y-102180929D01*
X174541711Y-102143997D01*
X174611574Y-102144995D01*
X174662625Y-102175780D01*
X176861181Y-104374336D01*
X176894666Y-104435659D01*
X176897500Y-104462017D01*
X176897500Y-105465943D01*
X176888061Y-105505260D01*
X176890515Y-105506058D01*
X176887499Y-105515339D01*
X176870131Y-105624998D01*
X176870131Y-105625002D01*
X176887498Y-105734658D01*
X176937904Y-105833585D01*
X176937909Y-105833592D01*
X177016407Y-105912090D01*
X177016410Y-105912092D01*
X177016413Y-105912095D01*
X177115339Y-105962500D01*
X177115341Y-105962501D01*
X177224998Y-105979869D01*
X177225000Y-105979869D01*
X177225002Y-105979869D01*
X177334658Y-105962501D01*
X177334659Y-105962500D01*
X177334661Y-105962500D01*
X177433587Y-105912095D01*
X177445685Y-105899997D01*
X196545131Y-105899997D01*
X196545131Y-105900002D01*
X196562498Y-106009658D01*
X196612904Y-106108585D01*
X196612909Y-106108592D01*
X196691407Y-106187090D01*
X196691410Y-106187092D01*
X196691413Y-106187095D01*
X196790339Y-106237500D01*
X196790341Y-106237501D01*
X196899998Y-106254869D01*
X196900000Y-106254869D01*
X196900002Y-106254869D01*
X197009658Y-106237501D01*
X197009659Y-106237500D01*
X197009661Y-106237500D01*
X197108587Y-106187095D01*
X197187095Y-106108587D01*
X197237500Y-106009661D01*
X197237500Y-106009659D01*
X197237501Y-106009658D01*
X197254869Y-105900002D01*
X197254869Y-105899997D01*
X197237501Y-105790341D01*
X197190049Y-105697211D01*
X197187095Y-105691413D01*
X197187092Y-105691410D01*
X197187090Y-105691407D01*
X197108592Y-105612909D01*
X197108588Y-105612906D01*
X197108587Y-105612905D01*
X197100112Y-105608587D01*
X197009658Y-105562498D01*
X196900002Y-105545131D01*
X196899998Y-105545131D01*
X196790341Y-105562498D01*
X196691414Y-105612904D01*
X196691407Y-105612909D01*
X196612909Y-105691407D01*
X196612904Y-105691414D01*
X196562498Y-105790341D01*
X196545131Y-105899997D01*
X177445685Y-105899997D01*
X177512095Y-105833587D01*
X177562500Y-105734661D01*
X177562500Y-105734659D01*
X177562501Y-105734658D01*
X177579869Y-105625002D01*
X177579869Y-105624998D01*
X177562500Y-105515339D01*
X177559485Y-105506058D01*
X177561938Y-105505260D01*
X177552500Y-105465943D01*
X177552500Y-105399997D01*
X197545131Y-105399997D01*
X197545131Y-105400002D01*
X197562498Y-105509658D01*
X197612904Y-105608585D01*
X197612909Y-105608592D01*
X197691407Y-105687090D01*
X197691410Y-105687092D01*
X197691413Y-105687095D01*
X197784761Y-105734658D01*
X197790341Y-105737501D01*
X197899998Y-105754869D01*
X197900000Y-105754869D01*
X197900002Y-105754869D01*
X198009658Y-105737501D01*
X198009659Y-105737500D01*
X198009661Y-105737500D01*
X198108587Y-105687095D01*
X198187095Y-105608587D01*
X198237500Y-105509661D01*
X198237500Y-105509659D01*
X198237501Y-105509658D01*
X198254869Y-105400002D01*
X198254869Y-105399997D01*
X198237501Y-105290341D01*
X198237500Y-105290339D01*
X198187095Y-105191413D01*
X198187092Y-105191410D01*
X198187090Y-105191407D01*
X198108592Y-105112909D01*
X198108588Y-105112906D01*
X198108587Y-105112905D01*
X198057922Y-105087090D01*
X198009658Y-105062498D01*
X197900002Y-105045131D01*
X197899998Y-105045131D01*
X197790341Y-105062498D01*
X197691414Y-105112904D01*
X197691407Y-105112909D01*
X197612909Y-105191407D01*
X197612904Y-105191414D01*
X197562498Y-105290341D01*
X197545131Y-105399997D01*
X177552500Y-105399997D01*
X177552500Y-104231885D01*
X177550219Y-104223371D01*
X177530181Y-104148590D01*
X177487065Y-104073910D01*
X177426090Y-104012935D01*
X177413152Y-103999997D01*
X190845131Y-103999997D01*
X190845131Y-104000002D01*
X190862498Y-104109658D01*
X190912904Y-104208585D01*
X190912909Y-104208592D01*
X190991407Y-104287090D01*
X190991410Y-104287092D01*
X190991413Y-104287095D01*
X191079825Y-104332143D01*
X191090341Y-104337501D01*
X191199998Y-104354869D01*
X191200000Y-104354869D01*
X191200002Y-104354869D01*
X191309658Y-104337501D01*
X191309659Y-104337500D01*
X191309661Y-104337500D01*
X191408587Y-104287095D01*
X191487095Y-104208587D01*
X191537500Y-104109661D01*
X191537500Y-104109659D01*
X191537501Y-104109658D01*
X191554869Y-104000002D01*
X191554869Y-103999997D01*
X197345131Y-103999997D01*
X197345131Y-104000002D01*
X197362498Y-104109658D01*
X197412904Y-104208585D01*
X197412909Y-104208592D01*
X197491407Y-104287090D01*
X197491410Y-104287092D01*
X197491413Y-104287095D01*
X197579825Y-104332143D01*
X197590341Y-104337501D01*
X197699998Y-104354869D01*
X197700000Y-104354869D01*
X197700002Y-104354869D01*
X197809658Y-104337501D01*
X197809659Y-104337500D01*
X197809661Y-104337500D01*
X197883265Y-104299997D01*
X199645131Y-104299997D01*
X199645131Y-104300002D01*
X199662498Y-104409658D01*
X199712904Y-104508585D01*
X199712909Y-104508592D01*
X199791407Y-104587090D01*
X199791410Y-104587092D01*
X199791413Y-104587095D01*
X199799890Y-104591414D01*
X199890341Y-104637501D01*
X199999998Y-104654869D01*
X200000000Y-104654869D01*
X200000002Y-104654869D01*
X200109658Y-104637501D01*
X200109659Y-104637500D01*
X200109661Y-104637500D01*
X200208587Y-104587095D01*
X200287095Y-104508587D01*
X200337500Y-104409661D01*
X200337500Y-104409659D01*
X200337501Y-104409658D01*
X200354869Y-104300002D01*
X200354869Y-104299997D01*
X200337501Y-104190341D01*
X200313103Y-104142457D01*
X200287095Y-104091413D01*
X200287092Y-104091410D01*
X200287090Y-104091407D01*
X200208592Y-104012909D01*
X200208588Y-104012906D01*
X200208587Y-104012905D01*
X200183263Y-104000002D01*
X200109658Y-103962498D01*
X200000002Y-103945131D01*
X199999998Y-103945131D01*
X199890341Y-103962498D01*
X199791414Y-104012904D01*
X199791407Y-104012909D01*
X199712909Y-104091407D01*
X199712904Y-104091414D01*
X199662498Y-104190341D01*
X199645131Y-104299997D01*
X197883265Y-104299997D01*
X197908587Y-104287095D01*
X197987095Y-104208587D01*
X198037500Y-104109661D01*
X198037500Y-104109659D01*
X198037501Y-104109658D01*
X198054869Y-104000002D01*
X198054869Y-103999997D01*
X198037501Y-103890341D01*
X198009857Y-103836086D01*
X197987095Y-103791413D01*
X197987092Y-103791410D01*
X197987090Y-103791407D01*
X197908592Y-103712909D01*
X197908588Y-103712906D01*
X197908587Y-103712905D01*
X197904743Y-103710946D01*
X197809658Y-103662498D01*
X197700002Y-103645131D01*
X197699998Y-103645131D01*
X197590341Y-103662498D01*
X197491414Y-103712904D01*
X197491407Y-103712909D01*
X197412909Y-103791407D01*
X197412904Y-103791414D01*
X197362498Y-103890341D01*
X197345131Y-103999997D01*
X191554869Y-103999997D01*
X191537501Y-103890341D01*
X191509857Y-103836086D01*
X191487095Y-103791413D01*
X191487092Y-103791410D01*
X191487090Y-103791407D01*
X191408592Y-103712909D01*
X191408588Y-103712906D01*
X191408587Y-103712905D01*
X191404743Y-103710946D01*
X191309658Y-103662498D01*
X191200002Y-103645131D01*
X191199998Y-103645131D01*
X191090341Y-103662498D01*
X190991414Y-103712904D01*
X190991407Y-103712909D01*
X190912909Y-103791407D01*
X190912904Y-103791414D01*
X190862498Y-103890341D01*
X190845131Y-103999997D01*
X177413152Y-103999997D01*
X176962148Y-103548993D01*
X194406837Y-103548993D01*
X194406837Y-103548998D01*
X194424204Y-103658654D01*
X194474610Y-103757581D01*
X194474615Y-103757588D01*
X194553113Y-103836086D01*
X194553116Y-103836088D01*
X194553119Y-103836091D01*
X194652045Y-103886496D01*
X194652047Y-103886497D01*
X194761704Y-103903865D01*
X194761706Y-103903865D01*
X194761708Y-103903865D01*
X194871364Y-103886497D01*
X194871365Y-103886496D01*
X194871367Y-103886496D01*
X194970293Y-103836091D01*
X195048801Y-103757583D01*
X195090865Y-103675026D01*
X195138835Y-103624234D01*
X195206656Y-103607438D01*
X195257637Y-103620837D01*
X195290339Y-103637500D01*
X195290341Y-103637500D01*
X195290343Y-103637501D01*
X195399998Y-103654869D01*
X195400000Y-103654869D01*
X195400002Y-103654869D01*
X195509658Y-103637501D01*
X195509659Y-103637500D01*
X195509661Y-103637500D01*
X195608587Y-103587095D01*
X195687095Y-103508587D01*
X195737500Y-103409661D01*
X195737500Y-103409659D01*
X195737501Y-103409658D01*
X195754869Y-103300002D01*
X195754869Y-103299997D01*
X195737501Y-103190341D01*
X195737500Y-103190339D01*
X195691470Y-103100000D01*
X207538085Y-103100000D01*
X207558566Y-103242456D01*
X207603301Y-103340410D01*
X207618355Y-103373373D01*
X207671429Y-103434624D01*
X207679378Y-103443798D01*
X207708402Y-103507354D01*
X207698458Y-103576512D01*
X207679378Y-103606202D01*
X207618355Y-103676627D01*
X207618354Y-103676628D01*
X207558566Y-103807543D01*
X207538085Y-103950000D01*
X207558566Y-104092456D01*
X207611601Y-104208585D01*
X207618355Y-104223373D01*
X207712604Y-104332143D01*
X207833679Y-104409953D01*
X207833682Y-104409954D01*
X207833681Y-104409954D01*
X207971768Y-104450499D01*
X207971770Y-104450500D01*
X207971771Y-104450500D01*
X208115694Y-104450500D01*
X208115694Y-104450499D01*
X208222853Y-104419035D01*
X208253782Y-104409954D01*
X208253782Y-104409953D01*
X208253785Y-104409953D01*
X208374860Y-104332143D01*
X208469109Y-104223373D01*
X208528897Y-104092457D01*
X208542190Y-104000000D01*
X214494353Y-104000000D01*
X214514834Y-104142456D01*
X214555675Y-104231884D01*
X214574623Y-104273373D01*
X214668872Y-104382143D01*
X214789947Y-104459953D01*
X214789950Y-104459954D01*
X214789949Y-104459954D01*
X214928036Y-104500499D01*
X214928038Y-104500500D01*
X214928039Y-104500500D01*
X215071962Y-104500500D01*
X215071962Y-104500499D01*
X215201379Y-104462500D01*
X215210050Y-104459954D01*
X215210050Y-104459953D01*
X215210053Y-104459953D01*
X215331128Y-104382143D01*
X215425377Y-104273373D01*
X215485165Y-104142457D01*
X215505647Y-104000000D01*
X221494353Y-104000000D01*
X221514834Y-104142456D01*
X221555675Y-104231884D01*
X221574623Y-104273373D01*
X221668872Y-104382143D01*
X221789947Y-104459953D01*
X221789950Y-104459954D01*
X221789949Y-104459954D01*
X221928036Y-104500499D01*
X221928038Y-104500500D01*
X221928039Y-104500500D01*
X222071962Y-104500500D01*
X222071962Y-104500499D01*
X222201379Y-104462500D01*
X222210050Y-104459954D01*
X222210050Y-104459953D01*
X222210053Y-104459953D01*
X222331128Y-104382143D01*
X222425377Y-104273373D01*
X222485165Y-104142457D01*
X222505647Y-104000000D01*
X222485165Y-103857543D01*
X222425377Y-103726627D01*
X222331128Y-103617857D01*
X222210053Y-103540047D01*
X222210051Y-103540046D01*
X222210049Y-103540045D01*
X222210050Y-103540045D01*
X222071963Y-103499500D01*
X222071961Y-103499500D01*
X221928039Y-103499500D01*
X221928036Y-103499500D01*
X221789949Y-103540045D01*
X221668873Y-103617856D01*
X221574623Y-103726626D01*
X221574622Y-103726628D01*
X221514834Y-103857543D01*
X221494353Y-104000000D01*
X215505647Y-104000000D01*
X215485165Y-103857543D01*
X215425377Y-103726627D01*
X215331128Y-103617857D01*
X215210053Y-103540047D01*
X215210051Y-103540046D01*
X215210049Y-103540045D01*
X215210050Y-103540045D01*
X215071963Y-103499500D01*
X215071961Y-103499500D01*
X214928039Y-103499500D01*
X214928036Y-103499500D01*
X214789949Y-103540045D01*
X214668873Y-103617856D01*
X214574623Y-103726626D01*
X214574622Y-103726628D01*
X214514834Y-103857543D01*
X214494353Y-104000000D01*
X208542190Y-104000000D01*
X208549379Y-103950000D01*
X208528897Y-103807543D01*
X208469109Y-103676627D01*
X208408085Y-103606201D01*
X208379061Y-103542647D01*
X208389005Y-103473489D01*
X208408083Y-103443800D01*
X208469109Y-103373373D01*
X208528897Y-103242457D01*
X208549379Y-103100000D01*
X208528897Y-102957543D01*
X208469109Y-102826627D01*
X208374860Y-102717857D01*
X208253785Y-102640047D01*
X208253783Y-102640046D01*
X208253781Y-102640045D01*
X208253782Y-102640045D01*
X208115695Y-102599500D01*
X208115693Y-102599500D01*
X207971771Y-102599500D01*
X207971768Y-102599500D01*
X207833681Y-102640045D01*
X207712605Y-102717856D01*
X207618355Y-102826626D01*
X207618354Y-102826628D01*
X207558566Y-102957543D01*
X207538085Y-103100000D01*
X195691470Y-103100000D01*
X195687095Y-103091413D01*
X195687092Y-103091410D01*
X195687090Y-103091407D01*
X195608592Y-103012909D01*
X195608588Y-103012906D01*
X195608587Y-103012905D01*
X195604743Y-103010946D01*
X195509658Y-102962498D01*
X195400002Y-102945131D01*
X195399998Y-102945131D01*
X195290341Y-102962498D01*
X195191414Y-103012904D01*
X195191407Y-103012909D01*
X195112909Y-103091407D01*
X195112906Y-103091411D01*
X195112905Y-103091413D01*
X195070841Y-103173967D01*
X195022869Y-103224762D01*
X194955048Y-103241557D01*
X194904064Y-103228156D01*
X194871364Y-103211494D01*
X194761708Y-103194127D01*
X194761704Y-103194127D01*
X194652047Y-103211494D01*
X194553120Y-103261900D01*
X194553113Y-103261905D01*
X194474615Y-103340403D01*
X194474610Y-103340410D01*
X194424204Y-103439337D01*
X194406837Y-103548993D01*
X176962148Y-103548993D01*
X175402336Y-101989181D01*
X175368851Y-101927858D01*
X175373835Y-101858166D01*
X175415707Y-101802233D01*
X175481171Y-101777816D01*
X175490017Y-101777500D01*
X180740943Y-101777500D01*
X180780262Y-101786939D01*
X180781060Y-101784485D01*
X180790341Y-101787501D01*
X180899998Y-101804869D01*
X180900000Y-101804869D01*
X180900002Y-101804869D01*
X181009658Y-101787501D01*
X181009659Y-101787500D01*
X181009661Y-101787500D01*
X181108587Y-101737095D01*
X181187095Y-101658587D01*
X181237500Y-101559661D01*
X181237500Y-101559659D01*
X181237501Y-101559658D01*
X181246950Y-101500000D01*
X211394353Y-101500000D01*
X211414834Y-101642456D01*
X211458053Y-101737090D01*
X211474623Y-101773373D01*
X211568872Y-101882143D01*
X211689947Y-101959953D01*
X211689950Y-101959954D01*
X211689949Y-101959954D01*
X211828036Y-102000499D01*
X211828038Y-102000500D01*
X211828039Y-102000500D01*
X211971962Y-102000500D01*
X211971962Y-102000499D01*
X212110053Y-101959953D01*
X212231128Y-101882143D01*
X212325377Y-101773373D01*
X212385165Y-101642457D01*
X212405647Y-101500000D01*
X218194353Y-101500000D01*
X218214834Y-101642456D01*
X218258053Y-101737090D01*
X218274623Y-101773373D01*
X218368872Y-101882143D01*
X218489947Y-101959953D01*
X218489950Y-101959954D01*
X218489949Y-101959954D01*
X218628036Y-102000499D01*
X218628038Y-102000500D01*
X218628039Y-102000500D01*
X218771962Y-102000500D01*
X218771962Y-102000499D01*
X218910053Y-101959953D01*
X219031128Y-101882143D01*
X219125377Y-101773373D01*
X219185165Y-101642457D01*
X219205647Y-101500000D01*
X219185165Y-101357543D01*
X219125377Y-101226627D01*
X219031128Y-101117857D01*
X218910053Y-101040047D01*
X218910051Y-101040046D01*
X218910049Y-101040045D01*
X218910050Y-101040045D01*
X218771963Y-100999500D01*
X218771961Y-100999500D01*
X218628039Y-100999500D01*
X218628036Y-100999500D01*
X218489949Y-101040045D01*
X218368873Y-101117856D01*
X218274623Y-101226626D01*
X218274622Y-101226628D01*
X218214834Y-101357543D01*
X218194353Y-101500000D01*
X212405647Y-101500000D01*
X212385165Y-101357543D01*
X212325377Y-101226627D01*
X212231128Y-101117857D01*
X212110053Y-101040047D01*
X212110051Y-101040046D01*
X212110049Y-101040045D01*
X212110050Y-101040045D01*
X211971963Y-100999500D01*
X211971961Y-100999500D01*
X211828039Y-100999500D01*
X211828036Y-100999500D01*
X211689949Y-101040045D01*
X211568873Y-101117856D01*
X211474623Y-101226626D01*
X211474622Y-101226628D01*
X211414834Y-101357543D01*
X211394353Y-101500000D01*
X181246950Y-101500000D01*
X181254869Y-101450002D01*
X181254869Y-101449997D01*
X181237501Y-101340341D01*
X181220790Y-101307543D01*
X181187095Y-101241413D01*
X181187092Y-101241410D01*
X181187090Y-101241407D01*
X181108592Y-101162909D01*
X181108588Y-101162906D01*
X181108587Y-101162905D01*
X181073091Y-101144819D01*
X181009658Y-101112498D01*
X180900002Y-101095131D01*
X180899998Y-101095131D01*
X180790341Y-101112498D01*
X180781060Y-101115515D01*
X180780262Y-101113060D01*
X180740943Y-101122500D01*
X174443116Y-101122500D01*
X172593116Y-101122500D01*
X168318116Y-101122500D01*
X168231884Y-101122500D01*
X168176354Y-101137379D01*
X168148589Y-101144819D01*
X168073911Y-101187934D01*
X168073908Y-101187936D01*
X164887936Y-104373908D01*
X164887934Y-104373911D01*
X164844819Y-104448589D01*
X164844819Y-104448590D01*
X164827585Y-104512909D01*
X164822500Y-104531885D01*
X164822500Y-111570500D01*
X164802815Y-111637539D01*
X164750011Y-111683294D01*
X164698500Y-111694500D01*
X162118511Y-111694500D01*
X162051472Y-111674815D01*
X162005717Y-111622011D01*
X161995773Y-111552853D01*
X162024798Y-111489297D01*
X162025771Y-111488323D01*
X162031123Y-111482145D01*
X162031128Y-111482143D01*
X162125377Y-111373373D01*
X162185165Y-111242457D01*
X162205647Y-111100000D01*
X162185165Y-110957543D01*
X162125377Y-110826627D01*
X162031128Y-110717857D01*
X161910053Y-110640047D01*
X161910051Y-110640046D01*
X161910049Y-110640045D01*
X161910050Y-110640045D01*
X161771963Y-110599500D01*
X161771961Y-110599500D01*
X161628039Y-110599500D01*
X161628036Y-110599500D01*
X161489949Y-110640045D01*
X161368873Y-110717856D01*
X161274623Y-110826626D01*
X161274622Y-110826628D01*
X161214834Y-110957543D01*
X161194353Y-111100000D01*
X161214834Y-111242456D01*
X161221804Y-111257717D01*
X161274623Y-111373373D01*
X161368872Y-111482143D01*
X161368873Y-111482143D01*
X161374680Y-111488845D01*
X161371952Y-111491208D01*
X161400454Y-111535524D01*
X161400478Y-111605394D01*
X161362724Y-111664185D01*
X161299178Y-111693232D01*
X161281489Y-111694500D01*
X136124500Y-111694500D01*
X136057461Y-111674815D01*
X136011706Y-111622011D01*
X136000500Y-111570500D01*
X136000500Y-109500000D01*
X161194353Y-109500000D01*
X161214834Y-109642456D01*
X161259086Y-109739353D01*
X161274623Y-109773373D01*
X161368872Y-109882143D01*
X161489947Y-109959953D01*
X161489950Y-109959954D01*
X161489949Y-109959954D01*
X161628036Y-110000499D01*
X161628038Y-110000500D01*
X161628039Y-110000500D01*
X161771962Y-110000500D01*
X161771962Y-110000499D01*
X161910053Y-109959953D01*
X162031128Y-109882143D01*
X162125377Y-109773373D01*
X162185165Y-109642457D01*
X162205647Y-109500000D01*
X162185165Y-109357543D01*
X162125377Y-109226627D01*
X162031128Y-109117857D01*
X161910053Y-109040047D01*
X161910051Y-109040046D01*
X161910049Y-109040045D01*
X161910050Y-109040045D01*
X161771963Y-108999500D01*
X161771961Y-108999500D01*
X161628039Y-108999500D01*
X161628036Y-108999500D01*
X161489949Y-109040045D01*
X161368873Y-109117856D01*
X161274623Y-109226626D01*
X161274622Y-109226628D01*
X161214834Y-109357543D01*
X161194353Y-109500000D01*
X136000500Y-109500000D01*
X136000500Y-104000000D01*
X142244353Y-104000000D01*
X142264834Y-104142456D01*
X142305675Y-104231884D01*
X142324623Y-104273373D01*
X142418872Y-104382143D01*
X142539947Y-104459953D01*
X142539950Y-104459954D01*
X142539949Y-104459954D01*
X142678036Y-104500499D01*
X142678038Y-104500500D01*
X142678039Y-104500500D01*
X142821962Y-104500500D01*
X142821962Y-104500499D01*
X142951379Y-104462500D01*
X142960050Y-104459954D01*
X142960050Y-104459953D01*
X142960053Y-104459953D01*
X143081128Y-104382143D01*
X143175377Y-104273373D01*
X143235165Y-104142457D01*
X143255647Y-104000000D01*
X149244353Y-104000000D01*
X149264834Y-104142456D01*
X149305675Y-104231884D01*
X149324623Y-104273373D01*
X149418872Y-104382143D01*
X149539947Y-104459953D01*
X149539950Y-104459954D01*
X149539949Y-104459954D01*
X149678036Y-104500499D01*
X149678038Y-104500500D01*
X149678039Y-104500500D01*
X149821962Y-104500500D01*
X149821962Y-104500499D01*
X149951379Y-104462500D01*
X149960050Y-104459954D01*
X149960050Y-104459953D01*
X149960053Y-104459953D01*
X150081128Y-104382143D01*
X150175377Y-104273373D01*
X150235165Y-104142457D01*
X150255647Y-104000000D01*
X156244353Y-104000000D01*
X156264834Y-104142456D01*
X156305675Y-104231884D01*
X156324623Y-104273373D01*
X156418872Y-104382143D01*
X156539947Y-104459953D01*
X156539950Y-104459954D01*
X156539949Y-104459954D01*
X156678036Y-104500499D01*
X156678038Y-104500500D01*
X156678039Y-104500500D01*
X156821962Y-104500500D01*
X156821962Y-104500499D01*
X156951379Y-104462500D01*
X156960050Y-104459954D01*
X156960050Y-104459953D01*
X156960053Y-104459953D01*
X157081128Y-104382143D01*
X157175377Y-104273373D01*
X157235165Y-104142457D01*
X157255647Y-104000000D01*
X160344353Y-104000000D01*
X160364834Y-104142456D01*
X160405675Y-104231884D01*
X160424623Y-104273373D01*
X160518872Y-104382143D01*
X160639947Y-104459953D01*
X160639950Y-104459954D01*
X160639949Y-104459954D01*
X160778036Y-104500499D01*
X160778038Y-104500500D01*
X160778039Y-104500500D01*
X160921962Y-104500500D01*
X160921962Y-104500499D01*
X161051379Y-104462500D01*
X161060050Y-104459954D01*
X161060050Y-104459953D01*
X161060053Y-104459953D01*
X161181128Y-104382143D01*
X161275377Y-104273373D01*
X161335165Y-104142457D01*
X161355647Y-104000000D01*
X161335165Y-103857543D01*
X161275377Y-103726627D01*
X161181128Y-103617857D01*
X161060053Y-103540047D01*
X161060051Y-103540046D01*
X161060049Y-103540045D01*
X161060050Y-103540045D01*
X160921963Y-103499500D01*
X160921961Y-103499500D01*
X160778039Y-103499500D01*
X160778036Y-103499500D01*
X160639949Y-103540045D01*
X160518873Y-103617856D01*
X160424623Y-103726626D01*
X160424622Y-103726628D01*
X160364834Y-103857543D01*
X160344353Y-104000000D01*
X157255647Y-104000000D01*
X157235165Y-103857543D01*
X157175377Y-103726627D01*
X157081128Y-103617857D01*
X156960053Y-103540047D01*
X156960051Y-103540046D01*
X156960049Y-103540045D01*
X156960050Y-103540045D01*
X156821963Y-103499500D01*
X156821961Y-103499500D01*
X156678039Y-103499500D01*
X156678036Y-103499500D01*
X156539949Y-103540045D01*
X156418873Y-103617856D01*
X156324623Y-103726626D01*
X156324622Y-103726628D01*
X156264834Y-103857543D01*
X156244353Y-104000000D01*
X150255647Y-104000000D01*
X150235165Y-103857543D01*
X150175377Y-103726627D01*
X150081128Y-103617857D01*
X149960053Y-103540047D01*
X149960051Y-103540046D01*
X149960049Y-103540045D01*
X149960050Y-103540045D01*
X149821963Y-103499500D01*
X149821961Y-103499500D01*
X149678039Y-103499500D01*
X149678036Y-103499500D01*
X149539949Y-103540045D01*
X149418873Y-103617856D01*
X149324623Y-103726626D01*
X149324622Y-103726628D01*
X149264834Y-103857543D01*
X149244353Y-104000000D01*
X143255647Y-104000000D01*
X143235165Y-103857543D01*
X143175377Y-103726627D01*
X143081128Y-103617857D01*
X142960053Y-103540047D01*
X142960051Y-103540046D01*
X142960049Y-103540045D01*
X142960050Y-103540045D01*
X142821963Y-103499500D01*
X142821961Y-103499500D01*
X142678039Y-103499500D01*
X142678036Y-103499500D01*
X142539949Y-103540045D01*
X142418873Y-103617856D01*
X142324623Y-103726626D01*
X142324622Y-103726628D01*
X142264834Y-103857543D01*
X142244353Y-104000000D01*
X136000500Y-104000000D01*
X136000500Y-102150000D01*
X157044353Y-102150000D01*
X157064834Y-102292456D01*
X157094671Y-102357788D01*
X157124623Y-102423373D01*
X157218872Y-102532143D01*
X157339947Y-102609953D01*
X157339950Y-102609954D01*
X157339949Y-102609954D01*
X157478036Y-102650499D01*
X157478038Y-102650500D01*
X157478039Y-102650500D01*
X157621962Y-102650500D01*
X157621962Y-102650499D01*
X157760053Y-102609953D01*
X157881128Y-102532143D01*
X157975377Y-102423373D01*
X158035165Y-102292457D01*
X158055647Y-102150000D01*
X158035165Y-102007543D01*
X157975377Y-101876627D01*
X157881128Y-101767857D01*
X157760053Y-101690047D01*
X157760051Y-101690046D01*
X157760049Y-101690045D01*
X157760050Y-101690045D01*
X157621963Y-101649500D01*
X157621961Y-101649500D01*
X157478039Y-101649500D01*
X157478036Y-101649500D01*
X157339949Y-101690045D01*
X157218873Y-101767856D01*
X157124623Y-101876626D01*
X157124622Y-101876628D01*
X157064834Y-102007543D01*
X157044353Y-102150000D01*
X136000500Y-102150000D01*
X136000500Y-101450000D01*
X138944353Y-101450000D01*
X138964834Y-101592456D01*
X138987669Y-101642456D01*
X139024623Y-101723373D01*
X139118872Y-101832143D01*
X139239947Y-101909953D01*
X139239950Y-101909954D01*
X139239949Y-101909954D01*
X139378036Y-101950499D01*
X139378038Y-101950500D01*
X139378039Y-101950500D01*
X139521962Y-101950500D01*
X139521962Y-101950499D01*
X139629121Y-101919035D01*
X139660050Y-101909954D01*
X139660050Y-101909953D01*
X139660053Y-101909953D01*
X139781128Y-101832143D01*
X139875377Y-101723373D01*
X139935165Y-101592457D01*
X139955647Y-101450000D01*
X145944353Y-101450000D01*
X145964834Y-101592456D01*
X145987669Y-101642456D01*
X146024623Y-101723373D01*
X146118872Y-101832143D01*
X146239947Y-101909953D01*
X146239950Y-101909954D01*
X146239949Y-101909954D01*
X146378036Y-101950499D01*
X146378038Y-101950500D01*
X146378039Y-101950500D01*
X146521962Y-101950500D01*
X146521962Y-101950499D01*
X146629121Y-101919035D01*
X146660050Y-101909954D01*
X146660050Y-101909953D01*
X146660053Y-101909953D01*
X146781128Y-101832143D01*
X146875377Y-101723373D01*
X146935165Y-101592457D01*
X146955647Y-101450000D01*
X152944353Y-101450000D01*
X152964834Y-101592456D01*
X152987669Y-101642456D01*
X153024623Y-101723373D01*
X153118872Y-101832143D01*
X153239947Y-101909953D01*
X153239950Y-101909954D01*
X153239949Y-101909954D01*
X153378036Y-101950499D01*
X153378038Y-101950500D01*
X153378039Y-101950500D01*
X153521962Y-101950500D01*
X153521962Y-101950499D01*
X153629121Y-101919035D01*
X153660050Y-101909954D01*
X153660050Y-101909953D01*
X153660053Y-101909953D01*
X153781128Y-101832143D01*
X153875377Y-101723373D01*
X153935165Y-101592457D01*
X153955647Y-101450000D01*
X153935165Y-101307543D01*
X153875377Y-101176627D01*
X153781128Y-101067857D01*
X153660053Y-100990047D01*
X153660051Y-100990046D01*
X153660049Y-100990045D01*
X153660050Y-100990045D01*
X153521963Y-100949500D01*
X153521961Y-100949500D01*
X153378039Y-100949500D01*
X153378036Y-100949500D01*
X153239949Y-100990045D01*
X153118873Y-101067856D01*
X153024623Y-101176626D01*
X153024622Y-101176628D01*
X152964834Y-101307543D01*
X152944353Y-101450000D01*
X146955647Y-101450000D01*
X146935165Y-101307543D01*
X146875377Y-101176627D01*
X146781128Y-101067857D01*
X146660053Y-100990047D01*
X146660051Y-100990046D01*
X146660049Y-100990045D01*
X146660050Y-100990045D01*
X146521963Y-100949500D01*
X146521961Y-100949500D01*
X146378039Y-100949500D01*
X146378036Y-100949500D01*
X146239949Y-100990045D01*
X146118873Y-101067856D01*
X146024623Y-101176626D01*
X146024622Y-101176628D01*
X145964834Y-101307543D01*
X145944353Y-101450000D01*
X139955647Y-101450000D01*
X139935165Y-101307543D01*
X139875377Y-101176627D01*
X139781128Y-101067857D01*
X139660053Y-100990047D01*
X139660051Y-100990046D01*
X139660049Y-100990045D01*
X139660050Y-100990045D01*
X139521963Y-100949500D01*
X139521961Y-100949500D01*
X139378039Y-100949500D01*
X139378036Y-100949500D01*
X139239949Y-100990045D01*
X139118873Y-101067856D01*
X139024623Y-101176626D01*
X139024622Y-101176628D01*
X138964834Y-101307543D01*
X138944353Y-101450000D01*
X136000500Y-101450000D01*
X136000500Y-99910128D01*
X167795131Y-99910128D01*
X167795131Y-99910133D01*
X167812498Y-100019789D01*
X167862904Y-100118716D01*
X167862909Y-100118723D01*
X167941407Y-100197221D01*
X167941410Y-100197223D01*
X167941413Y-100197226D01*
X168040339Y-100247631D01*
X168040341Y-100247632D01*
X168149998Y-100265000D01*
X168150000Y-100265000D01*
X168150002Y-100265000D01*
X168259658Y-100247632D01*
X168259659Y-100247631D01*
X168259661Y-100247631D01*
X168358587Y-100197226D01*
X168437095Y-100118718D01*
X168487500Y-100019792D01*
X168487500Y-100019790D01*
X168487501Y-100019789D01*
X168504869Y-99910133D01*
X168504869Y-99910128D01*
X168487501Y-99800472D01*
X168487500Y-99800470D01*
X168437095Y-99701544D01*
X168437092Y-99701541D01*
X168437090Y-99701538D01*
X168358592Y-99623040D01*
X168358588Y-99623037D01*
X168358587Y-99623036D01*
X168354743Y-99621077D01*
X168259658Y-99572629D01*
X168150002Y-99555262D01*
X168149998Y-99555262D01*
X168040341Y-99572629D01*
X167941414Y-99623035D01*
X167941407Y-99623040D01*
X167862909Y-99701538D01*
X167862904Y-99701545D01*
X167812498Y-99800472D01*
X167795131Y-99910128D01*
X136000500Y-99910128D01*
X136000500Y-96624500D01*
X136020185Y-96557461D01*
X136072989Y-96511706D01*
X136124500Y-96500500D01*
X239375500Y-96500500D01*
X239442539Y-96520185D01*
G37*
G04 #@! TD.AperFunction*
G04 #@! TA.AperFunction,Conductor*
G36*
X178797403Y-107354369D02*
G01*
X178818045Y-107371003D01*
X178914869Y-107467827D01*
X178948354Y-107529150D01*
X178943370Y-107598842D01*
X178901498Y-107654775D01*
X178883483Y-107665993D01*
X178791412Y-107712905D01*
X178791407Y-107712909D01*
X178712909Y-107791407D01*
X178712904Y-107791414D01*
X178662498Y-107890341D01*
X178645131Y-107999997D01*
X178645131Y-108000002D01*
X178662498Y-108109658D01*
X178712904Y-108208585D01*
X178712909Y-108208592D01*
X178791407Y-108287090D01*
X178791410Y-108287092D01*
X178791413Y-108287095D01*
X178889534Y-108337090D01*
X178890341Y-108337501D01*
X178999998Y-108354869D01*
X179000000Y-108354869D01*
X179000002Y-108354869D01*
X179109658Y-108337501D01*
X179109659Y-108337500D01*
X179109661Y-108337500D01*
X179208587Y-108287095D01*
X179287095Y-108208587D01*
X179334007Y-108116515D01*
X179381980Y-108065721D01*
X179449801Y-108048925D01*
X179515936Y-108071462D01*
X179532172Y-108085130D01*
X182929861Y-111482819D01*
X182963346Y-111544142D01*
X182958362Y-111613834D01*
X182916490Y-111669767D01*
X182851026Y-111694184D01*
X182842180Y-111694500D01*
X174301136Y-111694500D01*
X174234097Y-111674815D01*
X174188342Y-111622011D01*
X174178398Y-111552853D01*
X174207423Y-111489297D01*
X174213455Y-111482819D01*
X175457780Y-110238494D01*
X176743878Y-108952396D01*
X176795354Y-108863237D01*
X176822000Y-108763792D01*
X176822000Y-108660840D01*
X176822000Y-107457841D01*
X176841685Y-107390802D01*
X176894489Y-107345047D01*
X176952397Y-107336372D01*
X176952397Y-107334684D01*
X176960524Y-107334684D01*
X177063476Y-107334684D01*
X178730364Y-107334684D01*
X178797403Y-107354369D01*
G37*
G04 #@! TD.AperFunction*
G04 #@! TA.AperFunction,Conductor*
G36*
X171143039Y-117419685D02*
G01*
X171188794Y-117472489D01*
X171200000Y-117524000D01*
X171200000Y-119400000D01*
X173370500Y-119400000D01*
X173437539Y-119419685D01*
X173483294Y-119472489D01*
X173494500Y-119524000D01*
X173494500Y-122070342D01*
X173474815Y-122137381D01*
X173422011Y-122183136D01*
X173352853Y-122193080D01*
X173289297Y-122164055D01*
X173272125Y-122145829D01*
X173265642Y-122137381D01*
X173242621Y-122107379D01*
X173127625Y-122019139D01*
X173127624Y-122019138D01*
X173127622Y-122019137D01*
X172993712Y-121963671D01*
X172993710Y-121963670D01*
X172993709Y-121963670D01*
X172921854Y-121954210D01*
X172850001Y-121944750D01*
X172849999Y-121944750D01*
X172706291Y-121963670D01*
X172706287Y-121963671D01*
X172572377Y-122019137D01*
X172548033Y-122037816D01*
X172500387Y-122074376D01*
X172435221Y-122099570D01*
X172424903Y-122100000D01*
X171550000Y-122100000D01*
X171550000Y-122376000D01*
X171530315Y-122443039D01*
X171477511Y-122488794D01*
X171426000Y-122500000D01*
X171000000Y-122500000D01*
X171000000Y-124276000D01*
X170980315Y-124343039D01*
X170927511Y-124388794D01*
X170876000Y-124400000D01*
X165724000Y-124400000D01*
X165656961Y-124380315D01*
X165611206Y-124327511D01*
X165600000Y-124276000D01*
X165600000Y-117545741D01*
X165619685Y-117478702D01*
X165636319Y-117458060D01*
X165658060Y-117436319D01*
X165719383Y-117402834D01*
X165745741Y-117400000D01*
X171076000Y-117400000D01*
X171143039Y-117419685D01*
G37*
G04 #@! TD.AperFunction*
G04 #@! TA.AperFunction,Conductor*
G36*
X179093039Y-118110685D02*
G01*
X179138794Y-118163489D01*
X179150000Y-118215000D01*
X179150000Y-135176000D01*
X179130315Y-135243039D01*
X179077511Y-135288794D01*
X179026000Y-135300000D01*
X173924000Y-135300000D01*
X173856961Y-135280315D01*
X173811206Y-135227511D01*
X173800000Y-135176000D01*
X173800000Y-118630674D01*
X173808156Y-118589670D01*
X173807940Y-118589613D01*
X173808824Y-118586311D01*
X173809439Y-118583222D01*
X173810044Y-118581762D01*
X173830682Y-118425000D01*
X173810044Y-118268238D01*
X173809437Y-118266772D01*
X173808818Y-118263662D01*
X173807940Y-118260383D01*
X173808154Y-118260325D01*
X173800000Y-118219323D01*
X173800000Y-118215000D01*
X173819685Y-118147961D01*
X173872489Y-118102206D01*
X173924000Y-118091000D01*
X179026000Y-118091000D01*
X179093039Y-118110685D01*
G37*
G04 #@! TD.AperFunction*
G04 #@! TA.AperFunction,Conductor*
G36*
X173437539Y-122569685D02*
G01*
X173483294Y-122622489D01*
X173494500Y-122674000D01*
X173494500Y-135176000D01*
X173474815Y-135243039D01*
X173422011Y-135288794D01*
X173370500Y-135300000D01*
X165724000Y-135300000D01*
X165656961Y-135280315D01*
X165611206Y-135227511D01*
X165600000Y-135176000D01*
X165600000Y-124829500D01*
X165619685Y-124762461D01*
X165672489Y-124716706D01*
X165724000Y-124705500D01*
X170875990Y-124705500D01*
X170876000Y-124705500D01*
X170940941Y-124698518D01*
X170992452Y-124687312D01*
X171030658Y-124676354D01*
X171080822Y-124647015D01*
X171132211Y-124616962D01*
X171194811Y-124600000D01*
X171200000Y-124600000D01*
X171200204Y-124599795D01*
X171218605Y-124537129D01*
X171218533Y-124537093D01*
X171218729Y-124536705D01*
X171219685Y-124533453D01*
X171222547Y-124529197D01*
X171222551Y-124529189D01*
X171222553Y-124529187D01*
X171273439Y-124429111D01*
X171293124Y-124362072D01*
X171305500Y-124276000D01*
X171305500Y-123079862D01*
X171325185Y-123012823D01*
X171377989Y-122967068D01*
X171447147Y-122957124D01*
X171510703Y-122986149D01*
X171517181Y-122992181D01*
X171550000Y-123025000D01*
X171704273Y-123025000D01*
X171751722Y-123034437D01*
X171756291Y-123036330D01*
X171883280Y-123053048D01*
X171899999Y-123055250D01*
X171900000Y-123055250D01*
X171900001Y-123055250D01*
X171914977Y-123053278D01*
X172043709Y-123036330D01*
X172048277Y-123034437D01*
X172095727Y-123025000D01*
X173225000Y-123025000D01*
X173225000Y-122674000D01*
X173244685Y-122606961D01*
X173297489Y-122561206D01*
X173349000Y-122550000D01*
X173370500Y-122550000D01*
X173437539Y-122569685D01*
G37*
G04 #@! TD.AperFunction*
M02*
