G04 #@! TF.GenerationSoftware,KiCad,Pcbnew,8.0.7*
G04 #@! TF.CreationDate,2025-05-16T22:33:28-04:00*
G04 #@! TF.ProjectId,protovolt,70726f74-6f76-46f6-9c74-2e6b69636164,rev?*
G04 #@! TF.SameCoordinates,Original*
G04 #@! TF.FileFunction,Soldermask,Top*
G04 #@! TF.FilePolarity,Negative*
%FSLAX46Y46*%
G04 Gerber Fmt 4.6, Leading zero omitted, Abs format (unit mm)*
G04 Created by KiCad (PCBNEW 8.0.7) date 2025-05-16 22:33:28*
%MOMM*%
%LPD*%
G01*
G04 APERTURE LIST*
G04 Aperture macros list*
%AMRoundRect*
0 Rectangle with rounded corners*
0 $1 Rounding radius*
0 $2 $3 $4 $5 $6 $7 $8 $9 X,Y pos of 4 corners*
0 Add a 4 corners polygon primitive as box body*
4,1,4,$2,$3,$4,$5,$6,$7,$8,$9,$2,$3,0*
0 Add four circle primitives for the rounded corners*
1,1,$1+$1,$2,$3*
1,1,$1+$1,$4,$5*
1,1,$1+$1,$6,$7*
1,1,$1+$1,$8,$9*
0 Add four rect primitives between the rounded corners*
20,1,$1+$1,$2,$3,$4,$5,0*
20,1,$1+$1,$4,$5,$6,$7,0*
20,1,$1+$1,$6,$7,$8,$9,0*
20,1,$1+$1,$8,$9,$2,$3,0*%
%AMFreePoly0*
4,1,17,2.675000,1.605000,1.875000,1.605000,1.875000,0.935000,2.675000,0.935000,2.675000,0.335000,1.875000,0.335000,1.875000,-0.335000,2.675000,-0.335000,2.675000,-0.935000,1.875000,-0.935000,1.875000,-1.605000,2.675000,-1.605000,2.675000,-2.205000,-1.875000,-2.205000,-1.875000,2.205000,2.675000,2.205000,2.675000,1.605000,2.675000,1.605000,$1*%
G04 Aperture macros list end*
%ADD10RoundRect,0.135000X0.135000X0.185000X-0.135000X0.185000X-0.135000X-0.185000X0.135000X-0.185000X0*%
%ADD11R,2.510000X1.000000*%
%ADD12RoundRect,0.140000X0.170000X-0.140000X0.170000X0.140000X-0.170000X0.140000X-0.170000X-0.140000X0*%
%ADD13R,1.000000X3.150000*%
%ADD14RoundRect,0.135000X0.185000X-0.135000X0.185000X0.135000X-0.185000X0.135000X-0.185000X-0.135000X0*%
%ADD15RoundRect,0.225000X0.250000X-0.225000X0.250000X0.225000X-0.250000X0.225000X-0.250000X-0.225000X0*%
%ADD16RoundRect,0.225000X-0.225000X-0.250000X0.225000X-0.250000X0.225000X0.250000X-0.225000X0.250000X0*%
%ADD17RoundRect,0.200000X0.200000X0.275000X-0.200000X0.275000X-0.200000X-0.275000X0.200000X-0.275000X0*%
%ADD18FreePoly0,180.000000*%
%ADD19RoundRect,0.125000X0.300000X0.125000X-0.300000X0.125000X-0.300000X-0.125000X0.300000X-0.125000X0*%
%ADD20C,0.600000*%
%ADD21RoundRect,0.250000X-1.100000X0.325000X-1.100000X-0.325000X1.100000X-0.325000X1.100000X0.325000X0*%
%ADD22RoundRect,0.140000X0.140000X0.170000X-0.140000X0.170000X-0.140000X-0.170000X0.140000X-0.170000X0*%
%ADD23RoundRect,0.135000X-0.135000X-0.185000X0.135000X-0.185000X0.135000X0.185000X-0.135000X0.185000X0*%
%ADD24RoundRect,0.225000X-0.250000X0.225000X-0.250000X-0.225000X0.250000X-0.225000X0.250000X0.225000X0*%
%ADD25RoundRect,0.225000X0.225000X0.250000X-0.225000X0.250000X-0.225000X-0.250000X0.225000X-0.250000X0*%
%ADD26RoundRect,0.200000X-0.275000X0.200000X-0.275000X-0.200000X0.275000X-0.200000X0.275000X0.200000X0*%
%ADD27FreePoly0,0.000000*%
%ADD28RoundRect,0.125000X-0.300000X-0.125000X0.300000X-0.125000X0.300000X0.125000X-0.300000X0.125000X0*%
%ADD29RoundRect,1.025000X-1.025000X-1.025000X1.025000X-1.025000X1.025000X1.025000X-1.025000X1.025000X0*%
%ADD30RoundRect,0.135000X-0.185000X0.135000X-0.185000X-0.135000X0.185000X-0.135000X0.185000X0.135000X0*%
%ADD31RoundRect,0.250000X-0.362500X-1.425000X0.362500X-1.425000X0.362500X1.425000X-0.362500X1.425000X0*%
%ADD32RoundRect,0.075000X-0.650000X-0.075000X0.650000X-0.075000X0.650000X0.075000X-0.650000X0.075000X0*%
%ADD33FreePoly0,90.000000*%
%ADD34RoundRect,0.125000X0.125000X-0.300000X0.125000X0.300000X-0.125000X0.300000X-0.125000X-0.300000X0*%
%ADD35RoundRect,0.062500X-0.062500X0.350000X-0.062500X-0.350000X0.062500X-0.350000X0.062500X0.350000X0*%
%ADD36RoundRect,0.062500X-0.350000X0.062500X-0.350000X-0.062500X0.350000X-0.062500X0.350000X0.062500X0*%
%ADD37R,4.600000X4.600000*%
%ADD38RoundRect,0.250000X-0.625000X0.312500X-0.625000X-0.312500X0.625000X-0.312500X0.625000X0.312500X0*%
%ADD39RoundRect,0.250000X1.100000X-0.325000X1.100000X0.325000X-1.100000X0.325000X-1.100000X-0.325000X0*%
%ADD40RoundRect,0.225000X-0.375000X0.225000X-0.375000X-0.225000X0.375000X-0.225000X0.375000X0.225000X0*%
%ADD41RoundRect,0.250000X-0.700000X1.825000X-0.700000X-1.825000X0.700000X-1.825000X0.700000X1.825000X0*%
G04 APERTURE END LIST*
D10*
X213410000Y-113800000D03*
X212390000Y-113800000D03*
D11*
X182345000Y-101460000D03*
X185655000Y-104000000D03*
X182345000Y-106540000D03*
D12*
X173600000Y-100905000D03*
X173600000Y-99945000D03*
D13*
X238140000Y-117475000D03*
X238140000Y-122525000D03*
X235600000Y-117475000D03*
X235600000Y-122525000D03*
X233060000Y-117475000D03*
X233060000Y-122525000D03*
D14*
X180175000Y-127335000D03*
X180175000Y-126315000D03*
D15*
X180175000Y-130050000D03*
X180175000Y-128500000D03*
D16*
X176675000Y-109350000D03*
X178225000Y-109350000D03*
D17*
X167475000Y-108050000D03*
X165825000Y-108050000D03*
D18*
X209900000Y-117150000D03*
D19*
X213450000Y-119055000D03*
X213450000Y-117785000D03*
X213450000Y-116515000D03*
X213450000Y-115245000D03*
D20*
X210950000Y-117750000D03*
X210950000Y-116550000D03*
X210450000Y-118400000D03*
X210450000Y-117150000D03*
X210450000Y-115950000D03*
X209950000Y-117750000D03*
X209950000Y-116550000D03*
X209450000Y-118400000D03*
X209450000Y-117150000D03*
X209450000Y-115950000D03*
X208950000Y-117750000D03*
X208950000Y-116550000D03*
X208450000Y-118400000D03*
X208450000Y-117150000D03*
X208450000Y-115950000D03*
X207950000Y-117750000D03*
X207950000Y-116550000D03*
D21*
X227100000Y-118525000D03*
X227100000Y-121475000D03*
D22*
X165780000Y-103825000D03*
X164820000Y-103825000D03*
D23*
X166690000Y-104825000D03*
X167710000Y-104825000D03*
D24*
X205200000Y-102775000D03*
X205200000Y-104325000D03*
D11*
X189345000Y-101460000D03*
X192655000Y-104000000D03*
X189345000Y-106540000D03*
D21*
X184000000Y-118525000D03*
X184000000Y-121475000D03*
D25*
X172225000Y-110475000D03*
X170675000Y-110475000D03*
D13*
X137460000Y-122525000D03*
X137460000Y-117475000D03*
X140000000Y-122525000D03*
X140000000Y-117475000D03*
X142540000Y-122525000D03*
X142540000Y-117475000D03*
D26*
X176350000Y-99775000D03*
X176350000Y-101425000D03*
D23*
X177240000Y-104025000D03*
X178260000Y-104025000D03*
D27*
X168320000Y-121970000D03*
D28*
X164770000Y-120065000D03*
X164770000Y-121335000D03*
X164770000Y-122605000D03*
X164770000Y-123875000D03*
D20*
X167270000Y-121370000D03*
X167270000Y-122570000D03*
X167770000Y-120720000D03*
X167770000Y-121970000D03*
X167770000Y-123170000D03*
X168270000Y-121370000D03*
X168270000Y-122570000D03*
X168770000Y-120720000D03*
X168770000Y-121970000D03*
X168770000Y-123170000D03*
X169270000Y-121370000D03*
X169270000Y-122570000D03*
X169770000Y-121970000D03*
X169770000Y-123170000D03*
X170270000Y-122570000D03*
D16*
X176675000Y-107875000D03*
X178225000Y-107875000D03*
D22*
X167650000Y-102825000D03*
X166690000Y-102825000D03*
D20*
X166125000Y-129475000D03*
X166125000Y-130675000D03*
X166625000Y-128825000D03*
X166625000Y-130075000D03*
X166625000Y-131275000D03*
X167125000Y-129475000D03*
X167125000Y-130675000D03*
X167625000Y-128825000D03*
X167625000Y-130075000D03*
D29*
X167625000Y-130075000D03*
D20*
X167625000Y-131275000D03*
X168125000Y-129475000D03*
X168125000Y-130675000D03*
X168625000Y-128825000D03*
X168625000Y-130075000D03*
X168625000Y-131275000D03*
X169125000Y-129475000D03*
X169125000Y-130675000D03*
X175625000Y-129425000D03*
X175625000Y-130625000D03*
X176125000Y-128775000D03*
X176125000Y-130025000D03*
X176125000Y-131225000D03*
X176625000Y-129425000D03*
X176625000Y-130625000D03*
X177125000Y-128775000D03*
X177125000Y-130025000D03*
D29*
X177125000Y-130075000D03*
D20*
X177125000Y-131225000D03*
X177625000Y-129425000D03*
X177625000Y-130625000D03*
X178125000Y-128775000D03*
X178125000Y-130025000D03*
X178125000Y-131225000D03*
X178625000Y-129425000D03*
X178625000Y-130625000D03*
D30*
X179650000Y-117690000D03*
X179650000Y-118710000D03*
D31*
X200037500Y-118000000D03*
X205962500Y-118000000D03*
D14*
X196950000Y-107510000D03*
X196950000Y-106490000D03*
D32*
X196500000Y-103300000D03*
X196500000Y-103800000D03*
X196500000Y-104300000D03*
X196500000Y-104800000D03*
X196500000Y-105300000D03*
X200900000Y-105300000D03*
X200900000Y-104800000D03*
X200900000Y-104300000D03*
X200900000Y-103800000D03*
X200900000Y-103300000D03*
D18*
X176455000Y-121965000D03*
D19*
X180005000Y-123870000D03*
X180005000Y-122600000D03*
X180005000Y-121330000D03*
X180005000Y-120060000D03*
D20*
X177505000Y-122565000D03*
X177505000Y-121365000D03*
X177005000Y-123215000D03*
X177005000Y-121965000D03*
X177005000Y-120765000D03*
X176505000Y-122565000D03*
X176505000Y-121365000D03*
X176005000Y-123215000D03*
X176005000Y-121965000D03*
X176005000Y-120765000D03*
X175505000Y-122565000D03*
X175505000Y-121365000D03*
X175005000Y-123215000D03*
X175005000Y-121965000D03*
X175005000Y-120765000D03*
X174505000Y-122565000D03*
X174505000Y-121365000D03*
D14*
X164825000Y-126260000D03*
X164825000Y-125240000D03*
X172600000Y-100945000D03*
X172600000Y-99925000D03*
D33*
X176350000Y-114865000D03*
D34*
X174445000Y-118415000D03*
X175715000Y-118415000D03*
X176985000Y-118415000D03*
X178255000Y-118415000D03*
D20*
X175750000Y-115915000D03*
X176950000Y-115915000D03*
X175100000Y-115415000D03*
X176350000Y-115415000D03*
X177550000Y-115415000D03*
X175750000Y-114915000D03*
X176950000Y-114915000D03*
X175100000Y-114415000D03*
X176350000Y-114415000D03*
X177550000Y-114415000D03*
X175750000Y-113915000D03*
X176950000Y-113915000D03*
X175100000Y-113415000D03*
X176350000Y-113415000D03*
X177550000Y-113415000D03*
X175750000Y-112915000D03*
X176950000Y-112915000D03*
D10*
X172685000Y-118425000D03*
X171665000Y-118425000D03*
D35*
X174612500Y-102737500D03*
X174112500Y-102737500D03*
X173612500Y-102737500D03*
X173112500Y-102737500D03*
X172612500Y-102737500D03*
X172112500Y-102737500D03*
X171612500Y-102737500D03*
X171112500Y-102737500D03*
X170612500Y-102737500D03*
X170112500Y-102737500D03*
D36*
X169425000Y-103425000D03*
X169425000Y-103925000D03*
X169425000Y-104425000D03*
X169425000Y-104925000D03*
X169425000Y-105425000D03*
X169425000Y-105925000D03*
X169425000Y-106425000D03*
X169425000Y-106925000D03*
X169425000Y-107425000D03*
X169425000Y-107925000D03*
D35*
X170112500Y-108612500D03*
X170612500Y-108612500D03*
X171112500Y-108612500D03*
X171612500Y-108612500D03*
X172112500Y-108612500D03*
X172612500Y-108612500D03*
X173112500Y-108612500D03*
X173612500Y-108612500D03*
X174112500Y-108612500D03*
X174612500Y-108612500D03*
D36*
X175300000Y-107925000D03*
X175300000Y-107425000D03*
X175300000Y-106925000D03*
X175300000Y-106425000D03*
X175300000Y-105925000D03*
X175300000Y-105425000D03*
X175300000Y-104925000D03*
X175300000Y-104425000D03*
X175300000Y-103925000D03*
X175300000Y-103425000D03*
D37*
X172362500Y-105675000D03*
D14*
X170600000Y-100945000D03*
X170600000Y-99925000D03*
D10*
X167257500Y-111305000D03*
X166237500Y-111305000D03*
D23*
X177230000Y-105025000D03*
X178250000Y-105025000D03*
X206365000Y-102775000D03*
X207385000Y-102775000D03*
D38*
X172375000Y-121062500D03*
X172375000Y-123987500D03*
D30*
X168600000Y-99940000D03*
X168600000Y-100960000D03*
D39*
X186000000Y-113375000D03*
X186000000Y-110425000D03*
X190000000Y-113375000D03*
X190000000Y-110425000D03*
D17*
X178300000Y-102825000D03*
X176650000Y-102825000D03*
D12*
X168237500Y-111310000D03*
X168237500Y-110350000D03*
D40*
X215300000Y-115350000D03*
X215300000Y-118650000D03*
D24*
X164450000Y-109525000D03*
X164450000Y-111075000D03*
D14*
X197900000Y-107510000D03*
X197900000Y-106490000D03*
D11*
X138000000Y-101460000D03*
X141310000Y-104000000D03*
X138000000Y-106540000D03*
D14*
X196000000Y-107510000D03*
X196000000Y-106490000D03*
D10*
X163260000Y-111100000D03*
X162240000Y-111100000D03*
D41*
X221000000Y-116525000D03*
X221000000Y-123475000D03*
X194000000Y-116525000D03*
X194000000Y-123475000D03*
D25*
X164875000Y-118400000D03*
X163325000Y-118400000D03*
D11*
X220345000Y-101460000D03*
X223655000Y-104000000D03*
X220345000Y-106540000D03*
D10*
X167690000Y-103825000D03*
X166670000Y-103825000D03*
X163260000Y-109500000D03*
X162240000Y-109500000D03*
D11*
X159000000Y-101460000D03*
X162310000Y-104000000D03*
X159000000Y-106540000D03*
D23*
X162590000Y-119600000D03*
X163610000Y-119600000D03*
D33*
X168420000Y-114875000D03*
D34*
X166515000Y-118425000D03*
X167785000Y-118425000D03*
X169055000Y-118425000D03*
X170325000Y-118425000D03*
D20*
X167820000Y-115925000D03*
X169020000Y-115925000D03*
X167170000Y-115425000D03*
X168420000Y-115425000D03*
X169620000Y-115425000D03*
X167820000Y-114925000D03*
X169020000Y-114925000D03*
X167170000Y-114425000D03*
X168420000Y-114425000D03*
X169620000Y-114425000D03*
X167820000Y-113925000D03*
X169020000Y-113925000D03*
X167170000Y-113425000D03*
X168420000Y-113425000D03*
X169620000Y-113425000D03*
X167820000Y-112925000D03*
X169020000Y-112925000D03*
D14*
X171600000Y-100945000D03*
X171600000Y-99925000D03*
D30*
X180600000Y-117690000D03*
X180600000Y-118710000D03*
D22*
X167675000Y-106825000D03*
X166715000Y-106825000D03*
D11*
X152000000Y-101460000D03*
X155310000Y-104000000D03*
X152000000Y-106540000D03*
D10*
X167670000Y-101825000D03*
X166650000Y-101825000D03*
D15*
X174850000Y-101375000D03*
X174850000Y-99825000D03*
D41*
X156000000Y-116525000D03*
X156000000Y-123475000D03*
D17*
X178275000Y-106225000D03*
X176625000Y-106225000D03*
D11*
X145000000Y-101460000D03*
X148310000Y-104000000D03*
X145000000Y-106540000D03*
D25*
X200900000Y-106775000D03*
X199350000Y-106775000D03*
D39*
X182000000Y-113375000D03*
X182000000Y-110425000D03*
D23*
X206365000Y-104325000D03*
X207385000Y-104325000D03*
X166690000Y-105825000D03*
X167710000Y-105825000D03*
D10*
X167257500Y-110350000D03*
X166237500Y-110350000D03*
D11*
X213345000Y-101460000D03*
X216655000Y-104000000D03*
X213345000Y-106540000D03*
D39*
X159700000Y-113375000D03*
X159700000Y-110425000D03*
D12*
X169600000Y-100905000D03*
X169600000Y-99945000D03*
D21*
X188000000Y-118525000D03*
X188000000Y-121475000D03*
M02*
