%TF.GenerationSoftware,KiCad,Pcbnew,8.0.7*%
%TF.CreationDate,2025-05-16T22:33:49-04:00*%
%TF.ProjectId,protovolt,70726f74-6f76-46f6-9c74-2e6b69636164,rev?*%
%TF.SameCoordinates,Original*%
%TF.FileFunction,Drillmap*%
%TF.FilePolarity,Positive*%
%FSLAX45Y45*%
G04 Gerber Fmt 4.5, Leading zero omitted, Abs format (unit mm)*
G04 Created by KiCad (PCBNEW 8.0.7) date 2025-05-16 22:33:49*
%MOMM*%
%LPD*%
G01*
G04 APERTURE LIST*
%ADD10C,0.050000*%
%ADD11C,0.200000*%
%ADD12C,0.100000*%
G04 APERTURE END LIST*
D10*
X13550000Y-9600000D02*
X24000000Y-9600000D01*
X24000000Y-13900000D01*
X13550000Y-13900000D01*
X13550000Y-9600000D01*
D11*
D12*
X16617500Y-10472500D02*
X16632500Y-10487500D01*
X16632500Y-10472500D02*
X16617500Y-10487500D01*
X16675000Y-10797500D02*
X16690000Y-10812500D01*
X16690000Y-10797500D02*
X16675000Y-10812500D01*
X16807500Y-9983513D02*
X16822500Y-9998513D01*
X16822500Y-9983513D02*
X16807500Y-9998513D01*
X17135000Y-10970000D02*
X17150000Y-10985000D01*
X17150000Y-10970000D02*
X17135000Y-10985000D01*
X17156050Y-10215113D02*
X17171050Y-10230113D01*
X17171050Y-10215113D02*
X17156050Y-10230113D01*
X17192500Y-11122500D02*
X17207500Y-11137500D01*
X17207500Y-11122500D02*
X17192500Y-11137500D01*
X17204905Y-10192176D02*
X17219905Y-10207176D01*
X17219905Y-10192176D02*
X17204905Y-10207176D01*
X17253750Y-10212500D02*
X17268750Y-10227500D01*
X17268750Y-10212500D02*
X17253750Y-10227500D01*
X17303750Y-10212500D02*
X17318750Y-10227500D01*
X17318750Y-10212500D02*
X17303750Y-10227500D01*
X17305000Y-10930000D02*
X17320000Y-10945000D01*
X17320000Y-10930000D02*
X17305000Y-10945000D01*
X17353750Y-10208750D02*
X17368750Y-10223750D01*
X17368750Y-10208750D02*
X17353750Y-10223750D01*
X17403750Y-10207500D02*
X17418750Y-10222500D01*
X17418750Y-10207500D02*
X17403750Y-10222500D01*
X17403750Y-10912500D02*
X17418750Y-10927500D01*
X17418750Y-10912500D02*
X17403750Y-10927500D01*
X17482500Y-10852500D02*
X17497500Y-10867500D01*
X17497500Y-10852500D02*
X17482500Y-10867500D01*
X17558771Y-10586229D02*
X17573771Y-10601229D01*
X17573771Y-10586229D02*
X17558771Y-10601229D01*
X17577500Y-10435000D02*
X17592500Y-10450000D01*
X17592500Y-10435000D02*
X17577500Y-10450000D01*
X17577500Y-10735000D02*
X17592500Y-10750000D01*
X17592500Y-10735000D02*
X17577500Y-10750000D01*
X17715000Y-10555000D02*
X17730000Y-10570000D01*
X17730000Y-10555000D02*
X17715000Y-10570000D01*
X17892500Y-10792500D02*
X17907500Y-10807500D01*
X17907500Y-10792500D02*
X17892500Y-10807500D01*
X18082500Y-10137500D02*
X18097500Y-10152500D01*
X18097500Y-10137500D02*
X18082500Y-10152500D01*
X19112500Y-10392500D02*
X19127500Y-10407500D01*
X19127500Y-10392500D02*
X19112500Y-10407500D01*
X19468671Y-10347400D02*
X19483671Y-10362400D01*
X19483671Y-10347400D02*
X19468671Y-10362400D01*
X19532500Y-10322500D02*
X19547500Y-10337500D01*
X19547500Y-10322500D02*
X19532500Y-10337500D01*
X19682500Y-10582500D02*
X19697500Y-10597500D01*
X19697500Y-10582500D02*
X19682500Y-10597500D01*
X19762500Y-10392500D02*
X19777500Y-10407500D01*
X19777500Y-10392500D02*
X19762500Y-10407500D01*
X19782500Y-10532500D02*
X19797500Y-10547500D01*
X19797500Y-10532500D02*
X19782500Y-10547500D01*
X19992500Y-10422500D02*
X20007500Y-10437500D01*
X20007500Y-10422500D02*
X19992500Y-10437500D01*
X20262500Y-11792500D02*
X20277500Y-11807500D01*
X20277500Y-11792500D02*
X20262500Y-11807500D01*
X20297500Y-11862500D02*
X20312500Y-11877500D01*
X20312500Y-11862500D02*
X20297500Y-11877500D01*
X20325000Y-11792500D02*
X20340000Y-11807500D01*
X20340000Y-11792500D02*
X20325000Y-11807500D01*
X23882500Y-11952500D02*
X23897500Y-11967500D01*
X23897500Y-11952500D02*
X23882500Y-11967500D01*
X17041250Y-10362500D02*
G75*
G02*
X17021250Y-10362500I-10000J0D01*
G01*
X17021250Y-10362500D02*
G75*
G02*
X17041250Y-10362500I10000J0D01*
G01*
X17041250Y-10465000D02*
G75*
G02*
X17021250Y-10465000I-10000J0D01*
G01*
X17021250Y-10465000D02*
G75*
G02*
X17041250Y-10465000I10000J0D01*
G01*
X17041250Y-10567500D02*
G75*
G02*
X17021250Y-10567500I-10000J0D01*
G01*
X17021250Y-10567500D02*
G75*
G02*
X17041250Y-10567500I10000J0D01*
G01*
X17041250Y-10670000D02*
G75*
G02*
X17021250Y-10670000I-10000J0D01*
G01*
X17021250Y-10670000D02*
G75*
G02*
X17041250Y-10670000I10000J0D01*
G01*
X17041250Y-10772500D02*
G75*
G02*
X17021250Y-10772500I-10000J0D01*
G01*
X17021250Y-10772500D02*
G75*
G02*
X17041250Y-10772500I10000J0D01*
G01*
X17143750Y-10362500D02*
G75*
G02*
X17123750Y-10362500I-10000J0D01*
G01*
X17123750Y-10362500D02*
G75*
G02*
X17143750Y-10362500I10000J0D01*
G01*
X17143750Y-10465000D02*
G75*
G02*
X17123750Y-10465000I-10000J0D01*
G01*
X17123750Y-10465000D02*
G75*
G02*
X17143750Y-10465000I10000J0D01*
G01*
X17143750Y-10567500D02*
G75*
G02*
X17123750Y-10567500I-10000J0D01*
G01*
X17123750Y-10567500D02*
G75*
G02*
X17143750Y-10567500I10000J0D01*
G01*
X17143750Y-10670000D02*
G75*
G02*
X17123750Y-10670000I-10000J0D01*
G01*
X17123750Y-10670000D02*
G75*
G02*
X17143750Y-10670000I10000J0D01*
G01*
X17143750Y-10772500D02*
G75*
G02*
X17123750Y-10772500I-10000J0D01*
G01*
X17123750Y-10772500D02*
G75*
G02*
X17143750Y-10772500I10000J0D01*
G01*
X17246250Y-10362500D02*
G75*
G02*
X17226250Y-10362500I-10000J0D01*
G01*
X17226250Y-10362500D02*
G75*
G02*
X17246250Y-10362500I10000J0D01*
G01*
X17246250Y-10465000D02*
G75*
G02*
X17226250Y-10465000I-10000J0D01*
G01*
X17226250Y-10465000D02*
G75*
G02*
X17246250Y-10465000I10000J0D01*
G01*
X17246250Y-10567500D02*
G75*
G02*
X17226250Y-10567500I-10000J0D01*
G01*
X17226250Y-10567500D02*
G75*
G02*
X17246250Y-10567500I10000J0D01*
G01*
X17246250Y-10670000D02*
G75*
G02*
X17226250Y-10670000I-10000J0D01*
G01*
X17226250Y-10670000D02*
G75*
G02*
X17246250Y-10670000I10000J0D01*
G01*
X17246250Y-10772500D02*
G75*
G02*
X17226250Y-10772500I-10000J0D01*
G01*
X17226250Y-10772500D02*
G75*
G02*
X17246250Y-10772500I10000J0D01*
G01*
X17348750Y-10362500D02*
G75*
G02*
X17328750Y-10362500I-10000J0D01*
G01*
X17328750Y-10362500D02*
G75*
G02*
X17348750Y-10362500I10000J0D01*
G01*
X17348750Y-10465000D02*
G75*
G02*
X17328750Y-10465000I-10000J0D01*
G01*
X17328750Y-10465000D02*
G75*
G02*
X17348750Y-10465000I10000J0D01*
G01*
X17348750Y-10567500D02*
G75*
G02*
X17328750Y-10567500I-10000J0D01*
G01*
X17328750Y-10567500D02*
G75*
G02*
X17348750Y-10567500I10000J0D01*
G01*
X17348750Y-10670000D02*
G75*
G02*
X17328750Y-10670000I-10000J0D01*
G01*
X17328750Y-10670000D02*
G75*
G02*
X17348750Y-10670000I10000J0D01*
G01*
X17348750Y-10772500D02*
G75*
G02*
X17328750Y-10772500I-10000J0D01*
G01*
X17328750Y-10772500D02*
G75*
G02*
X17348750Y-10772500I10000J0D01*
G01*
X17451250Y-10362500D02*
G75*
G02*
X17431250Y-10362500I-10000J0D01*
G01*
X17431250Y-10362500D02*
G75*
G02*
X17451250Y-10362500I10000J0D01*
G01*
X17451250Y-10465000D02*
G75*
G02*
X17431250Y-10465000I-10000J0D01*
G01*
X17431250Y-10465000D02*
G75*
G02*
X17451250Y-10465000I10000J0D01*
G01*
X17451250Y-10567500D02*
G75*
G02*
X17431250Y-10567500I-10000J0D01*
G01*
X17431250Y-10567500D02*
G75*
G02*
X17451250Y-10567500I10000J0D01*
G01*
X17451250Y-10670000D02*
G75*
G02*
X17431250Y-10670000I-10000J0D01*
G01*
X17431250Y-10670000D02*
G75*
G02*
X17451250Y-10670000I10000J0D01*
G01*
X17451250Y-10772500D02*
G75*
G02*
X17431250Y-10772500I-10000J0D01*
G01*
X17431250Y-10772500D02*
G75*
G02*
X17451250Y-10772500I10000J0D01*
G01*
X13700000Y-11285000D02*
X13700000Y-11315000D01*
X13685000Y-11300000D02*
X13715000Y-11300000D01*
X13700000Y-11485000D02*
X13700000Y-11515000D01*
X13685000Y-11500000D02*
X13715000Y-11500000D01*
X13700000Y-12485000D02*
X13700000Y-12515000D01*
X13685000Y-12500000D02*
X13715000Y-12500000D01*
X13700000Y-12685000D02*
X13700000Y-12715000D01*
X13685000Y-12700000D02*
X13715000Y-12700000D01*
X13850000Y-11635000D02*
X13850000Y-11665000D01*
X13835000Y-11650000D02*
X13865000Y-11650000D01*
X13850000Y-11735000D02*
X13850000Y-11765000D01*
X13835000Y-11750000D02*
X13865000Y-11750000D01*
X13850000Y-11835000D02*
X13850000Y-11865000D01*
X13835000Y-11850000D02*
X13865000Y-11850000D01*
X13850000Y-12135000D02*
X13850000Y-12165000D01*
X13835000Y-12150000D02*
X13865000Y-12150000D01*
X13850000Y-12235000D02*
X13850000Y-12265000D01*
X13835000Y-12250000D02*
X13865000Y-12250000D01*
X13850000Y-12335000D02*
X13850000Y-12365000D01*
X13835000Y-12350000D02*
X13865000Y-12350000D01*
X13900000Y-11285000D02*
X13900000Y-11315000D01*
X13885000Y-11300000D02*
X13915000Y-11300000D01*
X13900000Y-11485000D02*
X13900000Y-11515000D01*
X13885000Y-11500000D02*
X13915000Y-11500000D01*
X13900000Y-12485000D02*
X13900000Y-12515000D01*
X13885000Y-12500000D02*
X13915000Y-12500000D01*
X13900000Y-12685000D02*
X13900000Y-12715000D01*
X13885000Y-12700000D02*
X13915000Y-12700000D01*
X13945000Y-10130000D02*
X13945000Y-10160000D01*
X13930000Y-10145000D02*
X13960000Y-10145000D01*
X14000000Y-9735000D02*
X14000000Y-9765000D01*
X13985000Y-9750000D02*
X14015000Y-9750000D01*
X14000000Y-9985000D02*
X14000000Y-10015000D01*
X13985000Y-10000000D02*
X14015000Y-10000000D01*
X14000000Y-10985000D02*
X14000000Y-11015000D01*
X13985000Y-11000000D02*
X14015000Y-11000000D01*
X14000000Y-12985000D02*
X14000000Y-13015000D01*
X13985000Y-13000000D02*
X14015000Y-13000000D01*
X14000000Y-13485000D02*
X14000000Y-13515000D01*
X13985000Y-13500000D02*
X14015000Y-13500000D01*
X14100000Y-11285000D02*
X14100000Y-11315000D01*
X14085000Y-11300000D02*
X14115000Y-11300000D01*
X14100000Y-11485000D02*
X14100000Y-11515000D01*
X14085000Y-11500000D02*
X14115000Y-11500000D01*
X14100000Y-11635000D02*
X14100000Y-11665000D01*
X14085000Y-11650000D02*
X14115000Y-11650000D01*
X14100000Y-11735000D02*
X14100000Y-11765000D01*
X14085000Y-11750000D02*
X14115000Y-11750000D01*
X14100000Y-11835000D02*
X14100000Y-11865000D01*
X14085000Y-11850000D02*
X14115000Y-11850000D01*
X14100000Y-12135000D02*
X14100000Y-12165000D01*
X14085000Y-12150000D02*
X14115000Y-12150000D01*
X14100000Y-12235000D02*
X14100000Y-12265000D01*
X14085000Y-12250000D02*
X14115000Y-12250000D01*
X14100000Y-12335000D02*
X14100000Y-12365000D01*
X14085000Y-12350000D02*
X14115000Y-12350000D01*
X14100000Y-12485000D02*
X14100000Y-12515000D01*
X14085000Y-12500000D02*
X14115000Y-12500000D01*
X14100000Y-12685000D02*
X14100000Y-12715000D01*
X14085000Y-12700000D02*
X14115000Y-12700000D01*
X14275000Y-10385000D02*
X14275000Y-10415000D01*
X14260000Y-10400000D02*
X14290000Y-10400000D01*
X14300000Y-11285000D02*
X14300000Y-11315000D01*
X14285000Y-11300000D02*
X14315000Y-11300000D01*
X14300000Y-11485000D02*
X14300000Y-11515000D01*
X14285000Y-11500000D02*
X14315000Y-11500000D01*
X14300000Y-12485000D02*
X14300000Y-12515000D01*
X14285000Y-12500000D02*
X14315000Y-12500000D01*
X14300000Y-12685000D02*
X14300000Y-12715000D01*
X14285000Y-12700000D02*
X14315000Y-12700000D01*
X14500000Y-9735000D02*
X14500000Y-9765000D01*
X14485000Y-9750000D02*
X14515000Y-9750000D01*
X14500000Y-9985000D02*
X14500000Y-10015000D01*
X14485000Y-10000000D02*
X14515000Y-10000000D01*
X14500000Y-10985000D02*
X14500000Y-11015000D01*
X14485000Y-11000000D02*
X14515000Y-11000000D01*
X14500000Y-11285000D02*
X14500000Y-11315000D01*
X14485000Y-11300000D02*
X14515000Y-11300000D01*
X14500000Y-11485000D02*
X14500000Y-11515000D01*
X14485000Y-11500000D02*
X14515000Y-11500000D01*
X14500000Y-11885000D02*
X14500000Y-11915000D01*
X14485000Y-11900000D02*
X14515000Y-11900000D01*
X14500000Y-12085000D02*
X14500000Y-12115000D01*
X14485000Y-12100000D02*
X14515000Y-12100000D01*
X14500000Y-12985000D02*
X14500000Y-13015000D01*
X14485000Y-13000000D02*
X14515000Y-13000000D01*
X14500000Y-13485000D02*
X14500000Y-13515000D01*
X14485000Y-13500000D02*
X14515000Y-13500000D01*
X14645000Y-10130000D02*
X14645000Y-10160000D01*
X14630000Y-10145000D02*
X14660000Y-10145000D01*
X14700000Y-11285000D02*
X14700000Y-11315000D01*
X14685000Y-11300000D02*
X14715000Y-11300000D01*
X14700000Y-11485000D02*
X14700000Y-11515000D01*
X14685000Y-11500000D02*
X14715000Y-11500000D01*
X14700000Y-11885000D02*
X14700000Y-11915000D01*
X14685000Y-11900000D02*
X14715000Y-11900000D01*
X14700000Y-12085000D02*
X14700000Y-12115000D01*
X14685000Y-12100000D02*
X14715000Y-12100000D01*
X14900000Y-11285000D02*
X14900000Y-11315000D01*
X14885000Y-11300000D02*
X14915000Y-11300000D01*
X14900000Y-11485000D02*
X14900000Y-11515000D01*
X14885000Y-11500000D02*
X14915000Y-11500000D01*
X14900000Y-11885000D02*
X14900000Y-11915000D01*
X14885000Y-11900000D02*
X14915000Y-11900000D01*
X14900000Y-12085000D02*
X14900000Y-12115000D01*
X14885000Y-12100000D02*
X14915000Y-12100000D01*
X14975000Y-10385000D02*
X14975000Y-10415000D01*
X14960000Y-10400000D02*
X14990000Y-10400000D01*
X15000000Y-9735000D02*
X15000000Y-9765000D01*
X14985000Y-9750000D02*
X15015000Y-9750000D01*
X15000000Y-9985000D02*
X15000000Y-10015000D01*
X14985000Y-10000000D02*
X15015000Y-10000000D01*
X15000000Y-10985000D02*
X15000000Y-11015000D01*
X14985000Y-11000000D02*
X15015000Y-11000000D01*
X15000000Y-12985000D02*
X15000000Y-13015000D01*
X14985000Y-13000000D02*
X15015000Y-13000000D01*
X15000000Y-13485000D02*
X15000000Y-13515000D01*
X14985000Y-13500000D02*
X15015000Y-13500000D01*
X15100000Y-11285000D02*
X15100000Y-11315000D01*
X15085000Y-11300000D02*
X15115000Y-11300000D01*
X15100000Y-11485000D02*
X15100000Y-11515000D01*
X15085000Y-11500000D02*
X15115000Y-11500000D01*
X15100000Y-11885000D02*
X15100000Y-11915000D01*
X15085000Y-11900000D02*
X15115000Y-11900000D01*
X15100000Y-12085000D02*
X15100000Y-12115000D01*
X15085000Y-12100000D02*
X15115000Y-12100000D01*
X15300000Y-11285000D02*
X15300000Y-11315000D01*
X15285000Y-11300000D02*
X15315000Y-11300000D01*
X15300000Y-11685000D02*
X15300000Y-11715000D01*
X15285000Y-11700000D02*
X15315000Y-11700000D01*
X15300000Y-11785000D02*
X15300000Y-11815000D01*
X15285000Y-11800000D02*
X15315000Y-11800000D01*
X15300000Y-11885000D02*
X15300000Y-11915000D01*
X15285000Y-11900000D02*
X15315000Y-11900000D01*
X15300000Y-12085000D02*
X15300000Y-12115000D01*
X15285000Y-12100000D02*
X15315000Y-12100000D01*
X15300000Y-12185000D02*
X15300000Y-12215000D01*
X15285000Y-12200000D02*
X15315000Y-12200000D01*
X15300000Y-12285000D02*
X15300000Y-12315000D01*
X15285000Y-12300000D02*
X15315000Y-12300000D01*
X15345000Y-10130000D02*
X15345000Y-10160000D01*
X15330000Y-10145000D02*
X15360000Y-10145000D01*
X15400000Y-11685000D02*
X15400000Y-11715000D01*
X15385000Y-11700000D02*
X15415000Y-11700000D01*
X15400000Y-11785000D02*
X15400000Y-11815000D01*
X15385000Y-11800000D02*
X15415000Y-11800000D01*
X15400000Y-11885000D02*
X15400000Y-11915000D01*
X15385000Y-11900000D02*
X15415000Y-11900000D01*
X15400000Y-12085000D02*
X15400000Y-12115000D01*
X15385000Y-12100000D02*
X15415000Y-12100000D01*
X15400000Y-12185000D02*
X15400000Y-12215000D01*
X15385000Y-12200000D02*
X15415000Y-12200000D01*
X15400000Y-12285000D02*
X15400000Y-12315000D01*
X15385000Y-12300000D02*
X15415000Y-12300000D01*
X15500000Y-9735000D02*
X15500000Y-9765000D01*
X15485000Y-9750000D02*
X15515000Y-9750000D01*
X15500000Y-9985000D02*
X15500000Y-10015000D01*
X15485000Y-10000000D02*
X15515000Y-10000000D01*
X15500000Y-10985000D02*
X15500000Y-11015000D01*
X15485000Y-11000000D02*
X15515000Y-11000000D01*
X15500000Y-11285000D02*
X15500000Y-11315000D01*
X15485000Y-11300000D02*
X15515000Y-11300000D01*
X15500000Y-11885000D02*
X15500000Y-11915000D01*
X15485000Y-11900000D02*
X15515000Y-11900000D01*
X15500000Y-12085000D02*
X15500000Y-12115000D01*
X15485000Y-12100000D02*
X15515000Y-12100000D01*
X15500000Y-12985000D02*
X15500000Y-13015000D01*
X15485000Y-13000000D02*
X15515000Y-13000000D01*
X15500000Y-13485000D02*
X15500000Y-13515000D01*
X15485000Y-13500000D02*
X15515000Y-13500000D01*
X15600000Y-11885000D02*
X15600000Y-11915000D01*
X15585000Y-11900000D02*
X15615000Y-11900000D01*
X15600000Y-12085000D02*
X15600000Y-12115000D01*
X15585000Y-12100000D02*
X15615000Y-12100000D01*
X15675000Y-10385000D02*
X15675000Y-10415000D01*
X15660000Y-10400000D02*
X15690000Y-10400000D01*
X15700000Y-11885000D02*
X15700000Y-11915000D01*
X15685000Y-11900000D02*
X15715000Y-11900000D01*
X15700000Y-12085000D02*
X15700000Y-12115000D01*
X15685000Y-12100000D02*
X15715000Y-12100000D01*
X15755000Y-10200000D02*
X15755000Y-10230000D01*
X15740000Y-10215000D02*
X15770000Y-10215000D01*
X15800000Y-11685000D02*
X15800000Y-11715000D01*
X15785000Y-11700000D02*
X15815000Y-11700000D01*
X15800000Y-11785000D02*
X15800000Y-11815000D01*
X15785000Y-11800000D02*
X15815000Y-11800000D01*
X15800000Y-11885000D02*
X15800000Y-11915000D01*
X15785000Y-11900000D02*
X15815000Y-11900000D01*
X15800000Y-12085000D02*
X15800000Y-12115000D01*
X15785000Y-12100000D02*
X15815000Y-12100000D01*
X15800000Y-12185000D02*
X15800000Y-12215000D01*
X15785000Y-12200000D02*
X15815000Y-12200000D01*
X15800000Y-12285000D02*
X15800000Y-12315000D01*
X15785000Y-12300000D02*
X15815000Y-12300000D01*
X15900000Y-11685000D02*
X15900000Y-11715000D01*
X15885000Y-11700000D02*
X15915000Y-11700000D01*
X15900000Y-11785000D02*
X15900000Y-11815000D01*
X15885000Y-11800000D02*
X15915000Y-11800000D01*
X15900000Y-11885000D02*
X15900000Y-11915000D01*
X15885000Y-11900000D02*
X15915000Y-11900000D01*
X15900000Y-12085000D02*
X15900000Y-12115000D01*
X15885000Y-12100000D02*
X15915000Y-12100000D01*
X15900000Y-12185000D02*
X15900000Y-12215000D01*
X15885000Y-12200000D02*
X15915000Y-12200000D01*
X15900000Y-12285000D02*
X15900000Y-12315000D01*
X15885000Y-12300000D02*
X15915000Y-12300000D01*
X16000000Y-9735000D02*
X16000000Y-9765000D01*
X15985000Y-9750000D02*
X16015000Y-9750000D01*
X16000000Y-12985000D02*
X16000000Y-13015000D01*
X15985000Y-13000000D02*
X16015000Y-13000000D01*
X16000000Y-13485000D02*
X16000000Y-13515000D01*
X15985000Y-13500000D02*
X16015000Y-13500000D01*
X16085000Y-10385000D02*
X16085000Y-10415000D01*
X16070000Y-10400000D02*
X16100000Y-10400000D01*
X16100000Y-11485000D02*
X16100000Y-11515000D01*
X16085000Y-11500000D02*
X16115000Y-11500000D01*
X16100000Y-11685000D02*
X16100000Y-11715000D01*
X16085000Y-11700000D02*
X16115000Y-11700000D01*
X16100000Y-11885000D02*
X16100000Y-11915000D01*
X16085000Y-11900000D02*
X16115000Y-11900000D01*
X16170000Y-10935000D02*
X16170000Y-10965000D01*
X16155000Y-10950000D02*
X16185000Y-10950000D01*
X16170000Y-11095000D02*
X16170000Y-11125000D01*
X16155000Y-11110000D02*
X16185000Y-11110000D01*
X16300000Y-11285000D02*
X16300000Y-11315000D01*
X16285000Y-11300000D02*
X16315000Y-11300000D01*
X16300000Y-11485000D02*
X16300000Y-11515000D01*
X16285000Y-11500000D02*
X16315000Y-11500000D01*
X16300000Y-11685000D02*
X16300000Y-11715000D01*
X16285000Y-11700000D02*
X16315000Y-11700000D01*
X16382500Y-12357500D02*
X16382500Y-12387500D01*
X16367500Y-12372500D02*
X16397500Y-12372500D01*
X16387500Y-12445000D02*
X16387500Y-12475000D01*
X16372500Y-12460000D02*
X16402500Y-12460000D01*
X16392500Y-12117500D02*
X16392500Y-12147500D01*
X16377500Y-12132500D02*
X16407500Y-12132500D01*
X16392500Y-12240000D02*
X16392500Y-12270000D01*
X16377500Y-12255000D02*
X16407500Y-12255000D01*
X16415000Y-12055000D02*
X16415000Y-12085000D01*
X16400000Y-12070000D02*
X16430000Y-12070000D01*
X16415000Y-12180000D02*
X16415000Y-12210000D01*
X16400000Y-12195000D02*
X16430000Y-12195000D01*
X16415000Y-12300000D02*
X16415000Y-12330000D01*
X16400000Y-12315000D02*
X16430000Y-12315000D01*
X16420000Y-12610000D02*
X16420000Y-12640000D01*
X16405000Y-12625000D02*
X16435000Y-12625000D01*
X16477500Y-12055000D02*
X16477500Y-12085000D01*
X16462500Y-12070000D02*
X16492500Y-12070000D01*
X16477500Y-12180000D02*
X16477500Y-12210000D01*
X16462500Y-12195000D02*
X16492500Y-12195000D01*
X16500000Y-9735000D02*
X16500000Y-9765000D01*
X16485000Y-9750000D02*
X16515000Y-9750000D01*
X16572700Y-11120241D02*
X16572700Y-11150241D01*
X16557700Y-11135241D02*
X16587700Y-11135241D01*
X16573821Y-11050250D02*
X16573821Y-11080250D01*
X16558821Y-11065250D02*
X16588821Y-11065250D01*
X16580000Y-11235000D02*
X16580000Y-11265000D01*
X16565000Y-11250000D02*
X16595000Y-11250000D01*
X16580000Y-11300000D02*
X16580000Y-11330000D01*
X16565000Y-11315000D02*
X16595000Y-11315000D01*
X16580000Y-11365000D02*
X16580000Y-11395000D01*
X16565000Y-11380000D02*
X16595000Y-11380000D01*
X16580000Y-11430000D02*
X16580000Y-11460000D01*
X16565000Y-11445000D02*
X16595000Y-11445000D01*
X16580000Y-11495000D02*
X16580000Y-11525000D01*
X16565000Y-11510000D02*
X16595000Y-11510000D01*
X16580000Y-11565000D02*
X16580000Y-11595000D01*
X16565000Y-11580000D02*
X16595000Y-11580000D01*
X16590000Y-11755000D02*
X16590000Y-11785000D01*
X16575000Y-11770000D02*
X16605000Y-11770000D01*
X16590000Y-11905000D02*
X16590000Y-11935000D01*
X16575000Y-11920000D02*
X16605000Y-11920000D01*
X16600000Y-11985000D02*
X16600000Y-12015000D01*
X16585000Y-12000000D02*
X16615000Y-12000000D01*
X16600000Y-12050000D02*
X16600000Y-12080000D01*
X16585000Y-12065000D02*
X16615000Y-12065000D01*
X16600000Y-12115000D02*
X16600000Y-12145000D01*
X16585000Y-12130000D02*
X16615000Y-12130000D01*
X16600000Y-12180000D02*
X16600000Y-12210000D01*
X16585000Y-12195000D02*
X16615000Y-12195000D01*
X16600000Y-12245000D02*
X16600000Y-12275000D01*
X16585000Y-12260000D02*
X16615000Y-12260000D01*
X16600000Y-12310000D02*
X16600000Y-12340000D01*
X16585000Y-12325000D02*
X16615000Y-12325000D01*
X16600000Y-12375000D02*
X16600000Y-12405000D01*
X16585000Y-12390000D02*
X16615000Y-12390000D01*
X16652500Y-11905000D02*
X16652500Y-11935000D01*
X16637500Y-11920000D02*
X16667500Y-11920000D01*
X16700000Y-12585000D02*
X16700000Y-12615000D01*
X16685000Y-12600000D02*
X16715000Y-12600000D01*
X16700000Y-12685000D02*
X16700000Y-12715000D01*
X16685000Y-12700000D02*
X16715000Y-12700000D01*
X16700000Y-13285000D02*
X16700000Y-13315000D01*
X16685000Y-13300000D02*
X16715000Y-13300000D01*
X16700000Y-13385000D02*
X16700000Y-13415000D01*
X16685000Y-13400000D02*
X16715000Y-13400000D01*
X16715000Y-11755000D02*
X16715000Y-11785000D01*
X16700000Y-11770000D02*
X16730000Y-11770000D01*
X16715000Y-11905000D02*
X16715000Y-11935000D01*
X16700000Y-11920000D02*
X16730000Y-11920000D01*
X16777500Y-11905000D02*
X16777500Y-11935000D01*
X16762500Y-11920000D02*
X16792500Y-11920000D01*
X16800000Y-12585000D02*
X16800000Y-12615000D01*
X16785000Y-12600000D02*
X16815000Y-12600000D01*
X16800000Y-12685000D02*
X16800000Y-12715000D01*
X16785000Y-12700000D02*
X16815000Y-12700000D01*
X16800000Y-13285000D02*
X16800000Y-13315000D01*
X16785000Y-13300000D02*
X16815000Y-13300000D01*
X16800000Y-13385000D02*
X16800000Y-13415000D01*
X16785000Y-13400000D02*
X16815000Y-13400000D01*
X16840000Y-11755000D02*
X16840000Y-11785000D01*
X16825000Y-11770000D02*
X16855000Y-11770000D01*
X16840000Y-11905000D02*
X16840000Y-11935000D01*
X16825000Y-11920000D02*
X16855000Y-11920000D01*
X16900000Y-12585000D02*
X16900000Y-12615000D01*
X16885000Y-12600000D02*
X16915000Y-12600000D01*
X16900000Y-12685000D02*
X16900000Y-12715000D01*
X16885000Y-12700000D02*
X16915000Y-12700000D01*
X16900000Y-13285000D02*
X16900000Y-13315000D01*
X16885000Y-13300000D02*
X16915000Y-13300000D01*
X16900000Y-13385000D02*
X16900000Y-13415000D01*
X16885000Y-13400000D02*
X16915000Y-13400000D01*
X16902500Y-11905000D02*
X16902500Y-11935000D01*
X16887500Y-11920000D02*
X16917500Y-11920000D01*
X16965000Y-11755000D02*
X16965000Y-11785000D01*
X16950000Y-11770000D02*
X16980000Y-11770000D01*
X16965000Y-11905000D02*
X16965000Y-11935000D01*
X16950000Y-11920000D02*
X16980000Y-11920000D01*
X17000000Y-9735000D02*
X17000000Y-9765000D01*
X16985000Y-9750000D02*
X17015000Y-9750000D01*
X17000000Y-12585000D02*
X17000000Y-12615000D01*
X16985000Y-12600000D02*
X17015000Y-12600000D01*
X17000000Y-12685000D02*
X17000000Y-12715000D01*
X16985000Y-12700000D02*
X17015000Y-12700000D01*
X17000000Y-13285000D02*
X17000000Y-13315000D01*
X16985000Y-13300000D02*
X17015000Y-13300000D01*
X17000000Y-13385000D02*
X17000000Y-13415000D01*
X16985000Y-13400000D02*
X17015000Y-13400000D01*
X17100000Y-12585000D02*
X17100000Y-12615000D01*
X17085000Y-12600000D02*
X17115000Y-12600000D01*
X17100000Y-12685000D02*
X17100000Y-12715000D01*
X17085000Y-12700000D02*
X17115000Y-12700000D01*
X17100000Y-12885000D02*
X17100000Y-12915000D01*
X17085000Y-12900000D02*
X17115000Y-12900000D01*
X17100000Y-12985000D02*
X17100000Y-13015000D01*
X17085000Y-13000000D02*
X17115000Y-13000000D01*
X17100000Y-13085000D02*
X17100000Y-13115000D01*
X17085000Y-13100000D02*
X17115000Y-13100000D01*
X17100000Y-13285000D02*
X17100000Y-13315000D01*
X17085000Y-13300000D02*
X17115000Y-13300000D01*
X17100000Y-13385000D02*
X17100000Y-13415000D01*
X17085000Y-13400000D02*
X17115000Y-13400000D01*
X17170000Y-11975000D02*
X17170000Y-12005000D01*
X17155000Y-11990000D02*
X17185000Y-11990000D01*
X17170000Y-12385000D02*
X17170000Y-12415000D01*
X17155000Y-12400000D02*
X17185000Y-12400000D01*
X17170000Y-12505000D02*
X17170000Y-12535000D01*
X17155000Y-12520000D02*
X17185000Y-12520000D01*
X17190000Y-12235000D02*
X17190000Y-12265000D01*
X17175000Y-12250000D02*
X17205000Y-12250000D01*
X17200000Y-12585000D02*
X17200000Y-12615000D01*
X17185000Y-12600000D02*
X17215000Y-12600000D01*
X17200000Y-12685000D02*
X17200000Y-12715000D01*
X17185000Y-12700000D02*
X17215000Y-12700000D01*
X17200000Y-12885000D02*
X17200000Y-12915000D01*
X17185000Y-12900000D02*
X17215000Y-12900000D01*
X17200000Y-12985000D02*
X17200000Y-13015000D01*
X17185000Y-13000000D02*
X17215000Y-13000000D01*
X17200000Y-13085000D02*
X17200000Y-13115000D01*
X17185000Y-13100000D02*
X17215000Y-13100000D01*
X17200000Y-13285000D02*
X17200000Y-13315000D01*
X17185000Y-13300000D02*
X17215000Y-13300000D01*
X17200000Y-13385000D02*
X17200000Y-13415000D01*
X17185000Y-13400000D02*
X17215000Y-13400000D01*
X17240000Y-11975000D02*
X17240000Y-12005000D01*
X17225000Y-11990000D02*
X17255000Y-11990000D01*
X17240000Y-12385000D02*
X17240000Y-12415000D01*
X17225000Y-12400000D02*
X17255000Y-12400000D01*
X17240000Y-12505000D02*
X17240000Y-12535000D01*
X17225000Y-12520000D02*
X17255000Y-12520000D01*
X17285000Y-12235000D02*
X17285000Y-12265000D01*
X17270000Y-12250000D02*
X17300000Y-12250000D01*
X17310000Y-11975000D02*
X17310000Y-12005000D01*
X17295000Y-11990000D02*
X17325000Y-11990000D01*
X17310000Y-12085000D02*
X17310000Y-12115000D01*
X17295000Y-12100000D02*
X17325000Y-12100000D01*
X17310000Y-12385000D02*
X17310000Y-12415000D01*
X17295000Y-12400000D02*
X17325000Y-12400000D01*
X17310000Y-12505000D02*
X17310000Y-12535000D01*
X17295000Y-12520000D02*
X17325000Y-12520000D01*
X17322500Y-11827500D02*
X17322500Y-11857500D01*
X17307500Y-11842500D02*
X17337500Y-11842500D01*
X17380000Y-11240000D02*
X17380000Y-11270000D01*
X17365000Y-11255000D02*
X17395000Y-11255000D01*
X17380000Y-11305000D02*
X17380000Y-11335000D01*
X17365000Y-11320000D02*
X17395000Y-11320000D01*
X17380000Y-11370000D02*
X17380000Y-11400000D01*
X17365000Y-11385000D02*
X17395000Y-11385000D01*
X17380000Y-11435000D02*
X17380000Y-11465000D01*
X17365000Y-11450000D02*
X17395000Y-11450000D01*
X17380000Y-11500000D02*
X17380000Y-11530000D01*
X17365000Y-11515000D02*
X17395000Y-11515000D01*
X17410000Y-11905000D02*
X17410000Y-11935000D01*
X17395000Y-11920000D02*
X17425000Y-11920000D01*
X17475000Y-11905000D02*
X17475000Y-11935000D01*
X17460000Y-11920000D02*
X17490000Y-11920000D01*
X17500000Y-9735000D02*
X17500000Y-9765000D01*
X17485000Y-9750000D02*
X17515000Y-9750000D01*
X17500000Y-11115000D02*
X17500000Y-11145000D01*
X17485000Y-11130000D02*
X17515000Y-11130000D01*
X17500000Y-12485000D02*
X17500000Y-12515000D01*
X17485000Y-12500000D02*
X17515000Y-12500000D01*
X17500000Y-12585000D02*
X17500000Y-12615000D01*
X17485000Y-12600000D02*
X17515000Y-12600000D01*
X17500000Y-12685000D02*
X17500000Y-12715000D01*
X17485000Y-12700000D02*
X17515000Y-12700000D01*
X17500000Y-13285000D02*
X17500000Y-13315000D01*
X17485000Y-13300000D02*
X17515000Y-13300000D01*
X17500000Y-13385000D02*
X17500000Y-13415000D01*
X17485000Y-13400000D02*
X17515000Y-13400000D01*
X17510000Y-11830000D02*
X17510000Y-11860000D01*
X17495000Y-11845000D02*
X17525000Y-11845000D01*
X17540000Y-11905000D02*
X17540000Y-11935000D01*
X17525000Y-11920000D02*
X17555000Y-11920000D01*
X17600000Y-12485000D02*
X17600000Y-12515000D01*
X17585000Y-12500000D02*
X17615000Y-12500000D01*
X17600000Y-12585000D02*
X17600000Y-12615000D01*
X17585000Y-12600000D02*
X17615000Y-12600000D01*
X17600000Y-12685000D02*
X17600000Y-12715000D01*
X17585000Y-12700000D02*
X17615000Y-12700000D01*
X17600000Y-13285000D02*
X17600000Y-13315000D01*
X17585000Y-13300000D02*
X17615000Y-13300000D01*
X17600000Y-13385000D02*
X17600000Y-13415000D01*
X17585000Y-13400000D02*
X17615000Y-13400000D01*
X17605000Y-11905000D02*
X17605000Y-11935000D01*
X17590000Y-11920000D02*
X17620000Y-11920000D01*
X17635000Y-11830000D02*
X17635000Y-11860000D01*
X17620000Y-11845000D02*
X17650000Y-11845000D01*
X17670000Y-11905000D02*
X17670000Y-11935000D01*
X17655000Y-11920000D02*
X17685000Y-11920000D01*
X17700000Y-12485000D02*
X17700000Y-12515000D01*
X17685000Y-12500000D02*
X17715000Y-12500000D01*
X17700000Y-12585000D02*
X17700000Y-12615000D01*
X17685000Y-12600000D02*
X17715000Y-12600000D01*
X17700000Y-12685000D02*
X17700000Y-12715000D01*
X17685000Y-12700000D02*
X17715000Y-12700000D01*
X17700000Y-13285000D02*
X17700000Y-13315000D01*
X17685000Y-13300000D02*
X17715000Y-13300000D01*
X17700000Y-13385000D02*
X17700000Y-13415000D01*
X17685000Y-13400000D02*
X17715000Y-13400000D01*
X17735000Y-11905785D02*
X17735000Y-11935785D01*
X17720000Y-11920785D02*
X17750000Y-11920785D01*
X17800000Y-12485000D02*
X17800000Y-12515000D01*
X17785000Y-12500000D02*
X17815000Y-12500000D01*
X17800000Y-12585000D02*
X17800000Y-12615000D01*
X17785000Y-12600000D02*
X17815000Y-12600000D01*
X17800000Y-12685000D02*
X17800000Y-12715000D01*
X17785000Y-12700000D02*
X17815000Y-12700000D01*
X17800000Y-13285000D02*
X17800000Y-13315000D01*
X17785000Y-13300000D02*
X17815000Y-13300000D01*
X17800000Y-13385000D02*
X17800000Y-13415000D01*
X17785000Y-13400000D02*
X17815000Y-13400000D01*
X17875000Y-11985000D02*
X17875000Y-12015000D01*
X17860000Y-12000000D02*
X17890000Y-12000000D01*
X17875000Y-12050000D02*
X17875000Y-12080000D01*
X17860000Y-12065000D02*
X17890000Y-12065000D01*
X17875000Y-12115000D02*
X17875000Y-12145000D01*
X17860000Y-12130000D02*
X17890000Y-12130000D01*
X17875000Y-12180000D02*
X17875000Y-12210000D01*
X17860000Y-12195000D02*
X17890000Y-12195000D01*
X17875000Y-12245000D02*
X17875000Y-12275000D01*
X17860000Y-12260000D02*
X17890000Y-12260000D01*
X17875000Y-12310000D02*
X17875000Y-12340000D01*
X17860000Y-12325000D02*
X17890000Y-12325000D01*
X17875000Y-12375000D02*
X17875000Y-12405000D01*
X17860000Y-12390000D02*
X17890000Y-12390000D01*
X17900000Y-11240000D02*
X17900000Y-11270000D01*
X17885000Y-11255000D02*
X17915000Y-11255000D01*
X17900000Y-11305000D02*
X17900000Y-11335000D01*
X17885000Y-11320000D02*
X17915000Y-11320000D01*
X17900000Y-11370000D02*
X17900000Y-11400000D01*
X17885000Y-11385000D02*
X17915000Y-11385000D01*
X17965000Y-11696500D02*
X17965000Y-11726500D01*
X17950000Y-11711500D02*
X17980000Y-11711500D01*
X18000000Y-9735000D02*
X18000000Y-9765000D01*
X17985000Y-9750000D02*
X18015000Y-9750000D01*
X18000000Y-10885000D02*
X18000000Y-10915000D01*
X17985000Y-10900000D02*
X18015000Y-10900000D01*
X18000000Y-11485000D02*
X18000000Y-11515000D01*
X17985000Y-11500000D02*
X18015000Y-11500000D01*
X18000000Y-12180000D02*
X18000000Y-12210000D01*
X17985000Y-12195000D02*
X18015000Y-12195000D01*
X18000000Y-12307500D02*
X18000000Y-12337500D01*
X17985000Y-12322500D02*
X18015000Y-12322500D01*
X18000000Y-12435000D02*
X18000000Y-12465000D01*
X17985000Y-12450000D02*
X18015000Y-12450000D01*
X18060000Y-11696500D02*
X18060000Y-11726500D01*
X18045000Y-11711500D02*
X18075000Y-11711500D01*
X18062500Y-12057500D02*
X18062500Y-12087500D01*
X18047500Y-12072500D02*
X18077500Y-12072500D01*
X18062500Y-12180000D02*
X18062500Y-12210000D01*
X18047500Y-12195000D02*
X18077500Y-12195000D01*
X18062500Y-12307500D02*
X18062500Y-12337500D01*
X18047500Y-12322500D02*
X18077500Y-12322500D01*
X18065000Y-12435000D02*
X18065000Y-12465000D01*
X18050000Y-12450000D02*
X18080000Y-12450000D01*
X18092500Y-12120000D02*
X18092500Y-12150000D01*
X18077500Y-12135000D02*
X18107500Y-12135000D01*
X18092500Y-12245000D02*
X18092500Y-12275000D01*
X18077500Y-12260000D02*
X18107500Y-12260000D01*
X18092500Y-12370000D02*
X18092500Y-12400000D01*
X18077500Y-12385000D02*
X18107500Y-12385000D01*
X18100000Y-11485000D02*
X18100000Y-11515000D01*
X18085000Y-11500000D02*
X18115000Y-11500000D01*
X18100000Y-11585000D02*
X18100000Y-11615000D01*
X18085000Y-11600000D02*
X18115000Y-11600000D01*
X18200000Y-11485000D02*
X18200000Y-11515000D01*
X18185000Y-11500000D02*
X18215000Y-11500000D01*
X18200000Y-11585000D02*
X18200000Y-11615000D01*
X18185000Y-11600000D02*
X18215000Y-11600000D01*
X18200000Y-11685000D02*
X18200000Y-11715000D01*
X18185000Y-11700000D02*
X18215000Y-11700000D01*
X18200000Y-11885000D02*
X18200000Y-11915000D01*
X18185000Y-11900000D02*
X18215000Y-11900000D01*
X18200000Y-12285000D02*
X18200000Y-12315000D01*
X18185000Y-12300000D02*
X18215000Y-12300000D01*
X18200000Y-12385000D02*
X18200000Y-12415000D01*
X18185000Y-12400000D02*
X18215000Y-12400000D01*
X18200000Y-12485000D02*
X18200000Y-12515000D01*
X18185000Y-12500000D02*
X18215000Y-12500000D01*
X18300000Y-10885000D02*
X18300000Y-10915000D01*
X18285000Y-10900000D02*
X18315000Y-10900000D01*
X18300000Y-11485000D02*
X18300000Y-11515000D01*
X18285000Y-11500000D02*
X18315000Y-11500000D01*
X18300000Y-11585000D02*
X18300000Y-11615000D01*
X18285000Y-11600000D02*
X18315000Y-11600000D01*
X18300000Y-11685000D02*
X18300000Y-11715000D01*
X18285000Y-11700000D02*
X18315000Y-11700000D01*
X18300000Y-12285000D02*
X18300000Y-12315000D01*
X18285000Y-12300000D02*
X18315000Y-12300000D01*
X18300000Y-12385000D02*
X18300000Y-12415000D01*
X18285000Y-12400000D02*
X18315000Y-12400000D01*
X18300000Y-12485000D02*
X18300000Y-12515000D01*
X18285000Y-12500000D02*
X18315000Y-12500000D01*
X18400000Y-11485000D02*
X18400000Y-11515000D01*
X18385000Y-11500000D02*
X18415000Y-11500000D01*
X18400000Y-11585000D02*
X18400000Y-11615000D01*
X18385000Y-11600000D02*
X18415000Y-11600000D01*
X18400000Y-11685000D02*
X18400000Y-11715000D01*
X18385000Y-11700000D02*
X18415000Y-11700000D01*
X18400000Y-12285000D02*
X18400000Y-12315000D01*
X18385000Y-12300000D02*
X18415000Y-12300000D01*
X18400000Y-12385000D02*
X18400000Y-12415000D01*
X18385000Y-12400000D02*
X18415000Y-12400000D01*
X18400000Y-12485000D02*
X18400000Y-12515000D01*
X18385000Y-12500000D02*
X18415000Y-12500000D01*
X18450000Y-10885000D02*
X18450000Y-10915000D01*
X18435000Y-10900000D02*
X18465000Y-10900000D01*
X18500000Y-9735000D02*
X18500000Y-9765000D01*
X18485000Y-9750000D02*
X18515000Y-9750000D01*
X18500000Y-11485000D02*
X18500000Y-11515000D01*
X18485000Y-11500000D02*
X18515000Y-11500000D01*
X18500000Y-11585000D02*
X18500000Y-11615000D01*
X18485000Y-11600000D02*
X18515000Y-11600000D01*
X18500000Y-11685000D02*
X18500000Y-11715000D01*
X18485000Y-11700000D02*
X18515000Y-11700000D01*
X18500000Y-12285000D02*
X18500000Y-12315000D01*
X18485000Y-12300000D02*
X18515000Y-12300000D01*
X18500000Y-12385000D02*
X18500000Y-12415000D01*
X18485000Y-12400000D02*
X18515000Y-12400000D01*
X18500000Y-12485000D02*
X18500000Y-12515000D01*
X18485000Y-12500000D02*
X18515000Y-12500000D01*
X18500000Y-12985000D02*
X18500000Y-13015000D01*
X18485000Y-13000000D02*
X18515000Y-13000000D01*
X18500000Y-13485000D02*
X18500000Y-13515000D01*
X18485000Y-13500000D02*
X18515000Y-13500000D01*
X18600000Y-10885000D02*
X18600000Y-10915000D01*
X18585000Y-10900000D02*
X18615000Y-10900000D01*
X18600000Y-11485000D02*
X18600000Y-11515000D01*
X18585000Y-11500000D02*
X18615000Y-11500000D01*
X18600000Y-11585000D02*
X18600000Y-11615000D01*
X18585000Y-11600000D02*
X18615000Y-11600000D01*
X18600000Y-11685000D02*
X18600000Y-11715000D01*
X18585000Y-11700000D02*
X18615000Y-11700000D01*
X18600000Y-12285000D02*
X18600000Y-12315000D01*
X18585000Y-12300000D02*
X18615000Y-12300000D01*
X18600000Y-12385000D02*
X18600000Y-12415000D01*
X18585000Y-12400000D02*
X18615000Y-12400000D01*
X18600000Y-12485000D02*
X18600000Y-12515000D01*
X18585000Y-12500000D02*
X18615000Y-12500000D01*
X18700000Y-11485000D02*
X18700000Y-11515000D01*
X18685000Y-11500000D02*
X18715000Y-11500000D01*
X18700000Y-11585000D02*
X18700000Y-11615000D01*
X18685000Y-11600000D02*
X18715000Y-11600000D01*
X18700000Y-11685000D02*
X18700000Y-11715000D01*
X18685000Y-11700000D02*
X18715000Y-11700000D01*
X18700000Y-12285000D02*
X18700000Y-12315000D01*
X18685000Y-12300000D02*
X18715000Y-12300000D01*
X18700000Y-12385000D02*
X18700000Y-12415000D01*
X18685000Y-12400000D02*
X18715000Y-12400000D01*
X18700000Y-12485000D02*
X18700000Y-12515000D01*
X18685000Y-12500000D02*
X18715000Y-12500000D01*
X18750000Y-10885000D02*
X18750000Y-10915000D01*
X18735000Y-10900000D02*
X18765000Y-10900000D01*
X18800000Y-11485000D02*
X18800000Y-11515000D01*
X18785000Y-11500000D02*
X18815000Y-11500000D01*
X18800000Y-11585000D02*
X18800000Y-11615000D01*
X18785000Y-11600000D02*
X18815000Y-11600000D01*
X18800000Y-11685000D02*
X18800000Y-11715000D01*
X18785000Y-11700000D02*
X18815000Y-11700000D01*
X18800000Y-12285000D02*
X18800000Y-12315000D01*
X18785000Y-12300000D02*
X18815000Y-12300000D01*
X18800000Y-12385000D02*
X18800000Y-12415000D01*
X18785000Y-12400000D02*
X18815000Y-12400000D01*
X18800000Y-12485000D02*
X18800000Y-12515000D01*
X18785000Y-12500000D02*
X18815000Y-12500000D01*
X18900000Y-10885000D02*
X18900000Y-10915000D01*
X18885000Y-10900000D02*
X18915000Y-10900000D01*
X18900000Y-11485000D02*
X18900000Y-11515000D01*
X18885000Y-11500000D02*
X18915000Y-11500000D01*
X18900000Y-11585000D02*
X18900000Y-11615000D01*
X18885000Y-11600000D02*
X18915000Y-11600000D01*
X18900000Y-11685000D02*
X18900000Y-11715000D01*
X18885000Y-11700000D02*
X18915000Y-11700000D01*
X18900000Y-12285000D02*
X18900000Y-12315000D01*
X18885000Y-12300000D02*
X18915000Y-12300000D01*
X18900000Y-12385000D02*
X18900000Y-12415000D01*
X18885000Y-12400000D02*
X18915000Y-12400000D01*
X18900000Y-12485000D02*
X18900000Y-12515000D01*
X18885000Y-12500000D02*
X18915000Y-12500000D01*
X19000000Y-9735000D02*
X19000000Y-9765000D01*
X18985000Y-9750000D02*
X19015000Y-9750000D01*
X19000000Y-12485000D02*
X19000000Y-12515000D01*
X18985000Y-12500000D02*
X19015000Y-12500000D01*
X19000000Y-12985000D02*
X19000000Y-13015000D01*
X18985000Y-13000000D02*
X19015000Y-13000000D01*
X19000000Y-13485000D02*
X19000000Y-13515000D01*
X18985000Y-13500000D02*
X19015000Y-13500000D01*
X19050000Y-10885000D02*
X19050000Y-10915000D01*
X19035000Y-10900000D02*
X19065000Y-10900000D01*
X19100000Y-11685000D02*
X19100000Y-11715000D01*
X19085000Y-11700000D02*
X19115000Y-11700000D01*
X19100000Y-11785000D02*
X19100000Y-11815000D01*
X19085000Y-11800000D02*
X19115000Y-11800000D01*
X19100000Y-11885000D02*
X19100000Y-11915000D01*
X19085000Y-11900000D02*
X19115000Y-11900000D01*
X19100000Y-12085000D02*
X19100000Y-12115000D01*
X19085000Y-12100000D02*
X19115000Y-12100000D01*
X19100000Y-12185000D02*
X19100000Y-12215000D01*
X19085000Y-12200000D02*
X19115000Y-12200000D01*
X19100000Y-12285000D02*
X19100000Y-12315000D01*
X19085000Y-12300000D02*
X19115000Y-12300000D01*
X19200000Y-10885000D02*
X19200000Y-10915000D01*
X19185000Y-10900000D02*
X19215000Y-10900000D01*
X19200000Y-11685000D02*
X19200000Y-11715000D01*
X19185000Y-11700000D02*
X19215000Y-11700000D01*
X19200000Y-11785000D02*
X19200000Y-11815000D01*
X19185000Y-11800000D02*
X19215000Y-11800000D01*
X19200000Y-11885000D02*
X19200000Y-11915000D01*
X19185000Y-11900000D02*
X19215000Y-11900000D01*
X19200000Y-12085000D02*
X19200000Y-12115000D01*
X19185000Y-12100000D02*
X19215000Y-12100000D01*
X19200000Y-12185000D02*
X19200000Y-12215000D01*
X19185000Y-12200000D02*
X19215000Y-12200000D01*
X19200000Y-12285000D02*
X19200000Y-12315000D01*
X19185000Y-12300000D02*
X19215000Y-12300000D01*
X19300000Y-11285000D02*
X19300000Y-11315000D01*
X19285000Y-11300000D02*
X19315000Y-11300000D01*
X19300000Y-11885000D02*
X19300000Y-11915000D01*
X19285000Y-11900000D02*
X19315000Y-11900000D01*
X19300000Y-12085000D02*
X19300000Y-12115000D01*
X19285000Y-12100000D02*
X19315000Y-12100000D01*
X19350000Y-10885000D02*
X19350000Y-10915000D01*
X19335000Y-10900000D02*
X19365000Y-10900000D01*
X19400000Y-11885000D02*
X19400000Y-11915000D01*
X19385000Y-11900000D02*
X19415000Y-11900000D01*
X19400000Y-12085000D02*
X19400000Y-12115000D01*
X19385000Y-12100000D02*
X19415000Y-12100000D01*
X19500000Y-9735000D02*
X19500000Y-9765000D01*
X19485000Y-9750000D02*
X19515000Y-9750000D01*
X19500000Y-10885000D02*
X19500000Y-10915000D01*
X19485000Y-10900000D02*
X19515000Y-10900000D01*
X19500000Y-11285000D02*
X19500000Y-11315000D01*
X19485000Y-11300000D02*
X19515000Y-11300000D01*
X19500000Y-11885000D02*
X19500000Y-11915000D01*
X19485000Y-11900000D02*
X19515000Y-11900000D01*
X19500000Y-12085000D02*
X19500000Y-12115000D01*
X19485000Y-12100000D02*
X19515000Y-12100000D01*
X19500000Y-12985000D02*
X19500000Y-13015000D01*
X19485000Y-13000000D02*
X19515000Y-13000000D01*
X19500000Y-13485000D02*
X19500000Y-13515000D01*
X19485000Y-13500000D02*
X19515000Y-13500000D01*
X19600000Y-11685000D02*
X19600000Y-11715000D01*
X19585000Y-11700000D02*
X19615000Y-11700000D01*
X19600000Y-11785000D02*
X19600000Y-11815000D01*
X19585000Y-11800000D02*
X19615000Y-11800000D01*
X19600000Y-11885000D02*
X19600000Y-11915000D01*
X19585000Y-11900000D02*
X19615000Y-11900000D01*
X19600000Y-12085000D02*
X19600000Y-12115000D01*
X19585000Y-12100000D02*
X19615000Y-12100000D01*
X19600000Y-12185000D02*
X19600000Y-12215000D01*
X19585000Y-12200000D02*
X19615000Y-12200000D01*
X19600000Y-12285000D02*
X19600000Y-12315000D01*
X19585000Y-12300000D02*
X19615000Y-12300000D01*
X19700000Y-11285000D02*
X19700000Y-11315000D01*
X19685000Y-11300000D02*
X19715000Y-11300000D01*
X19700000Y-11685000D02*
X19700000Y-11715000D01*
X19685000Y-11700000D02*
X19715000Y-11700000D01*
X19700000Y-11785000D02*
X19700000Y-11815000D01*
X19685000Y-11800000D02*
X19715000Y-11800000D01*
X19700000Y-11885000D02*
X19700000Y-11915000D01*
X19685000Y-11900000D02*
X19715000Y-11900000D01*
X19700000Y-12085000D02*
X19700000Y-12115000D01*
X19685000Y-12100000D02*
X19715000Y-12100000D01*
X19700000Y-12185000D02*
X19700000Y-12215000D01*
X19685000Y-12200000D02*
X19715000Y-12200000D01*
X19700000Y-12285000D02*
X19700000Y-12315000D01*
X19685000Y-12300000D02*
X19715000Y-12300000D01*
X19800000Y-10885000D02*
X19800000Y-10915000D01*
X19785000Y-10900000D02*
X19815000Y-10900000D01*
X19900000Y-11285000D02*
X19900000Y-11315000D01*
X19885000Y-11300000D02*
X19915000Y-11300000D01*
X19900000Y-11485000D02*
X19900000Y-11515000D01*
X19885000Y-11500000D02*
X19915000Y-11500000D01*
X19940000Y-11685000D02*
X19940000Y-11715000D01*
X19925000Y-11700000D02*
X19955000Y-11700000D01*
X19940000Y-11785000D02*
X19940000Y-11815000D01*
X19925000Y-11800000D02*
X19955000Y-11800000D01*
X19940000Y-11885000D02*
X19940000Y-11915000D01*
X19925000Y-11900000D02*
X19955000Y-11900000D01*
X20000000Y-9735000D02*
X20000000Y-9765000D01*
X19985000Y-9750000D02*
X20015000Y-9750000D01*
X20000000Y-11685000D02*
X20000000Y-11715000D01*
X19985000Y-11700000D02*
X20015000Y-11700000D01*
X20000000Y-11785000D02*
X20000000Y-11815000D01*
X19985000Y-11800000D02*
X20015000Y-11800000D01*
X20000000Y-11885000D02*
X20000000Y-11915000D01*
X19985000Y-11900000D02*
X20015000Y-11900000D01*
X20000000Y-12485000D02*
X20000000Y-12515000D01*
X19985000Y-12500000D02*
X20015000Y-12500000D01*
X20000000Y-12985000D02*
X20000000Y-13015000D01*
X19985000Y-13000000D02*
X20015000Y-13000000D01*
X20000000Y-13485000D02*
X20000000Y-13515000D01*
X19985000Y-13500000D02*
X20015000Y-13500000D01*
X20100000Y-10885000D02*
X20100000Y-10915000D01*
X20085000Y-10900000D02*
X20115000Y-10900000D01*
X20100000Y-11285000D02*
X20100000Y-11315000D01*
X20085000Y-11300000D02*
X20115000Y-11300000D01*
X20100000Y-11485000D02*
X20100000Y-11515000D01*
X20085000Y-11500000D02*
X20115000Y-11500000D01*
X20440000Y-11285000D02*
X20440000Y-11315000D01*
X20425000Y-11300000D02*
X20455000Y-11300000D01*
X20440000Y-11485000D02*
X20440000Y-11515000D01*
X20425000Y-11500000D02*
X20455000Y-11500000D01*
X20500000Y-9735000D02*
X20500000Y-9765000D01*
X20485000Y-9750000D02*
X20515000Y-9750000D01*
X20500000Y-12485000D02*
X20500000Y-12515000D01*
X20485000Y-12500000D02*
X20515000Y-12500000D01*
X20500000Y-12985000D02*
X20500000Y-13015000D01*
X20485000Y-13000000D02*
X20515000Y-13000000D01*
X20500000Y-13485000D02*
X20500000Y-13515000D01*
X20485000Y-13500000D02*
X20515000Y-13500000D01*
X20600000Y-11285000D02*
X20600000Y-11315000D01*
X20585000Y-11300000D02*
X20615000Y-11300000D01*
X20600000Y-11485000D02*
X20600000Y-11515000D01*
X20585000Y-11500000D02*
X20615000Y-11500000D01*
X20600000Y-11685000D02*
X20600000Y-11715000D01*
X20585000Y-11700000D02*
X20615000Y-11700000D01*
X20600000Y-11785000D02*
X20600000Y-11815000D01*
X20585000Y-11800000D02*
X20615000Y-11800000D01*
X20600000Y-11885000D02*
X20600000Y-11915000D01*
X20585000Y-11900000D02*
X20615000Y-11900000D01*
X20660000Y-11685000D02*
X20660000Y-11715000D01*
X20645000Y-11700000D02*
X20675000Y-11700000D01*
X20660000Y-11785000D02*
X20660000Y-11815000D01*
X20645000Y-11800000D02*
X20675000Y-11800000D01*
X20660000Y-11885000D02*
X20660000Y-11915000D01*
X20645000Y-11900000D02*
X20675000Y-11900000D01*
X20800000Y-11285000D02*
X20800000Y-11315000D01*
X20785000Y-11300000D02*
X20815000Y-11300000D01*
X20804373Y-10295000D02*
X20804373Y-10325000D01*
X20789373Y-10310000D02*
X20819373Y-10310000D01*
X20804373Y-10380000D02*
X20804373Y-10410000D01*
X20789373Y-10395000D02*
X20819373Y-10395000D01*
X21000000Y-9735000D02*
X21000000Y-9765000D01*
X20985000Y-9750000D02*
X21015000Y-9750000D01*
X21000000Y-10985000D02*
X21000000Y-11015000D01*
X20985000Y-11000000D02*
X21015000Y-11000000D01*
X21000000Y-11285000D02*
X21000000Y-11315000D01*
X20985000Y-11300000D02*
X21015000Y-11300000D01*
X21000000Y-12485000D02*
X21000000Y-12515000D01*
X20985000Y-12500000D02*
X21015000Y-12500000D01*
X21000000Y-12985000D02*
X21000000Y-13015000D01*
X20985000Y-13000000D02*
X21015000Y-13000000D01*
X21000000Y-13485000D02*
X21000000Y-13515000D01*
X20985000Y-13500000D02*
X21015000Y-13500000D01*
X21190000Y-10135000D02*
X21190000Y-10165000D01*
X21175000Y-10150000D02*
X21205000Y-10150000D01*
X21240000Y-11305000D02*
X21240000Y-11335000D01*
X21225000Y-11320000D02*
X21255000Y-11320000D01*
X21292500Y-11700000D02*
X21292500Y-11730000D01*
X21277500Y-11715000D02*
X21307500Y-11715000D01*
X21292500Y-11825000D02*
X21292500Y-11855000D01*
X21277500Y-11840000D02*
X21307500Y-11840000D01*
X21377500Y-11700000D02*
X21377500Y-11730000D01*
X21362500Y-11715000D02*
X21392500Y-11715000D01*
X21377500Y-11825000D02*
X21377500Y-11855000D01*
X21362500Y-11840000D02*
X21392500Y-11840000D01*
X21437500Y-11637500D02*
X21437500Y-11667500D01*
X21422500Y-11652500D02*
X21452500Y-11652500D01*
X21437500Y-11700000D02*
X21437500Y-11730000D01*
X21422500Y-11715000D02*
X21452500Y-11715000D01*
X21437500Y-11762500D02*
X21437500Y-11792500D01*
X21422500Y-11777500D02*
X21452500Y-11777500D01*
X21437500Y-11825000D02*
X21437500Y-11855000D01*
X21422500Y-11840000D02*
X21452500Y-11840000D01*
X21437500Y-11890000D02*
X21437500Y-11920000D01*
X21422500Y-11905000D02*
X21452500Y-11905000D01*
X21500000Y-9735000D02*
X21500000Y-9765000D01*
X21485000Y-9750000D02*
X21515000Y-9750000D01*
X21500000Y-10385000D02*
X21500000Y-10415000D01*
X21485000Y-10400000D02*
X21515000Y-10400000D01*
X21500000Y-10985000D02*
X21500000Y-11015000D01*
X21485000Y-11000000D02*
X21515000Y-11000000D01*
X21500000Y-11285000D02*
X21500000Y-11315000D01*
X21485000Y-11300000D02*
X21515000Y-11300000D01*
X21500000Y-12485000D02*
X21500000Y-12515000D01*
X21485000Y-12500000D02*
X21515000Y-12500000D01*
X21500000Y-12985000D02*
X21500000Y-13015000D01*
X21485000Y-13000000D02*
X21515000Y-13000000D01*
X21500000Y-13485000D02*
X21500000Y-13515000D01*
X21485000Y-13500000D02*
X21515000Y-13500000D01*
X21700000Y-11285000D02*
X21700000Y-11315000D01*
X21685000Y-11300000D02*
X21715000Y-11300000D01*
X21700000Y-11485000D02*
X21700000Y-11515000D01*
X21685000Y-11500000D02*
X21715000Y-11500000D01*
X21800000Y-11685000D02*
X21800000Y-11715000D01*
X21785000Y-11700000D02*
X21815000Y-11700000D01*
X21800000Y-11785000D02*
X21800000Y-11815000D01*
X21785000Y-11800000D02*
X21815000Y-11800000D01*
X21800000Y-11885000D02*
X21800000Y-11915000D01*
X21785000Y-11900000D02*
X21815000Y-11900000D01*
X21800000Y-12085000D02*
X21800000Y-12115000D01*
X21785000Y-12100000D02*
X21815000Y-12100000D01*
X21800000Y-12185000D02*
X21800000Y-12215000D01*
X21785000Y-12200000D02*
X21815000Y-12200000D01*
X21800000Y-12285000D02*
X21800000Y-12315000D01*
X21785000Y-12300000D02*
X21815000Y-12300000D01*
X21870000Y-10135000D02*
X21870000Y-10165000D01*
X21855000Y-10150000D02*
X21885000Y-10150000D01*
X21890000Y-10635000D02*
X21890000Y-10665000D01*
X21875000Y-10650000D02*
X21905000Y-10650000D01*
X21900000Y-11285000D02*
X21900000Y-11315000D01*
X21885000Y-11300000D02*
X21915000Y-11300000D01*
X21900000Y-11685000D02*
X21900000Y-11715000D01*
X21885000Y-11700000D02*
X21915000Y-11700000D01*
X21900000Y-11785000D02*
X21900000Y-11815000D01*
X21885000Y-11800000D02*
X21915000Y-11800000D01*
X21900000Y-11885000D02*
X21900000Y-11915000D01*
X21885000Y-11900000D02*
X21915000Y-11900000D01*
X21900000Y-12085000D02*
X21900000Y-12115000D01*
X21885000Y-12100000D02*
X21915000Y-12100000D01*
X21900000Y-12185000D02*
X21900000Y-12215000D01*
X21885000Y-12200000D02*
X21915000Y-12200000D01*
X21900000Y-12285000D02*
X21900000Y-12315000D01*
X21885000Y-12300000D02*
X21915000Y-12300000D01*
X22000000Y-9735000D02*
X22000000Y-9765000D01*
X21985000Y-9750000D02*
X22015000Y-9750000D01*
X22000000Y-10985000D02*
X22000000Y-11015000D01*
X21985000Y-11000000D02*
X22015000Y-11000000D01*
X22000000Y-11885000D02*
X22000000Y-11915000D01*
X21985000Y-11900000D02*
X22015000Y-11900000D01*
X22000000Y-12085000D02*
X22000000Y-12115000D01*
X21985000Y-12100000D02*
X22015000Y-12100000D01*
X22000000Y-12985000D02*
X22000000Y-13015000D01*
X21985000Y-13000000D02*
X22015000Y-13000000D01*
X22000000Y-13485000D02*
X22000000Y-13515000D01*
X21985000Y-13500000D02*
X22015000Y-13500000D01*
X22100000Y-11285000D02*
X22100000Y-11315000D01*
X22085000Y-11300000D02*
X22115000Y-11300000D01*
X22100000Y-11885000D02*
X22100000Y-11915000D01*
X22085000Y-11900000D02*
X22115000Y-11900000D01*
X22100000Y-12085000D02*
X22100000Y-12115000D01*
X22085000Y-12100000D02*
X22115000Y-12100000D01*
X22200000Y-10385000D02*
X22200000Y-10415000D01*
X22185000Y-10400000D02*
X22215000Y-10400000D01*
X22200000Y-11885000D02*
X22200000Y-11915000D01*
X22185000Y-11900000D02*
X22215000Y-11900000D01*
X22200000Y-12085000D02*
X22200000Y-12115000D01*
X22185000Y-12100000D02*
X22215000Y-12100000D01*
X22300000Y-11285000D02*
X22300000Y-11315000D01*
X22285000Y-11300000D02*
X22315000Y-11300000D01*
X22300000Y-11685000D02*
X22300000Y-11715000D01*
X22285000Y-11700000D02*
X22315000Y-11700000D01*
X22300000Y-11785000D02*
X22300000Y-11815000D01*
X22285000Y-11800000D02*
X22315000Y-11800000D01*
X22300000Y-11885000D02*
X22300000Y-11915000D01*
X22285000Y-11900000D02*
X22315000Y-11900000D01*
X22300000Y-12085000D02*
X22300000Y-12115000D01*
X22285000Y-12100000D02*
X22315000Y-12100000D01*
X22300000Y-12185000D02*
X22300000Y-12215000D01*
X22285000Y-12200000D02*
X22315000Y-12200000D01*
X22300000Y-12285000D02*
X22300000Y-12315000D01*
X22285000Y-12300000D02*
X22315000Y-12300000D01*
X22400000Y-11685000D02*
X22400000Y-11715000D01*
X22385000Y-11700000D02*
X22415000Y-11700000D01*
X22400000Y-11785000D02*
X22400000Y-11815000D01*
X22385000Y-11800000D02*
X22415000Y-11800000D01*
X22400000Y-11885000D02*
X22400000Y-11915000D01*
X22385000Y-11900000D02*
X22415000Y-11900000D01*
X22400000Y-12085000D02*
X22400000Y-12115000D01*
X22385000Y-12100000D02*
X22415000Y-12100000D01*
X22400000Y-12185000D02*
X22400000Y-12215000D01*
X22385000Y-12200000D02*
X22415000Y-12200000D01*
X22400000Y-12285000D02*
X22400000Y-12315000D01*
X22385000Y-12300000D02*
X22415000Y-12300000D01*
X22500000Y-9735000D02*
X22500000Y-9765000D01*
X22485000Y-9750000D02*
X22515000Y-9750000D01*
X22500000Y-9985000D02*
X22500000Y-10015000D01*
X22485000Y-10000000D02*
X22515000Y-10000000D01*
X22500000Y-10985000D02*
X22500000Y-11015000D01*
X22485000Y-11000000D02*
X22515000Y-11000000D01*
X22500000Y-11285000D02*
X22500000Y-11315000D01*
X22485000Y-11300000D02*
X22515000Y-11300000D01*
X22500000Y-11485000D02*
X22500000Y-11515000D01*
X22485000Y-11500000D02*
X22515000Y-11500000D01*
X22500000Y-11585000D02*
X22500000Y-11615000D01*
X22485000Y-11600000D02*
X22515000Y-11600000D01*
X22500000Y-11685000D02*
X22500000Y-11715000D01*
X22485000Y-11700000D02*
X22515000Y-11700000D01*
X22500000Y-12285000D02*
X22500000Y-12315000D01*
X22485000Y-12300000D02*
X22515000Y-12300000D01*
X22500000Y-12385000D02*
X22500000Y-12415000D01*
X22485000Y-12400000D02*
X22515000Y-12400000D01*
X22500000Y-12485000D02*
X22500000Y-12515000D01*
X22485000Y-12500000D02*
X22515000Y-12500000D01*
X22500000Y-12985000D02*
X22500000Y-13015000D01*
X22485000Y-13000000D02*
X22515000Y-13000000D01*
X22500000Y-13485000D02*
X22500000Y-13515000D01*
X22485000Y-13500000D02*
X22515000Y-13500000D01*
X22600000Y-11485000D02*
X22600000Y-11515000D01*
X22585000Y-11500000D02*
X22615000Y-11500000D01*
X22600000Y-11585000D02*
X22600000Y-11615000D01*
X22585000Y-11600000D02*
X22615000Y-11600000D01*
X22600000Y-11685000D02*
X22600000Y-11715000D01*
X22585000Y-11700000D02*
X22615000Y-11700000D01*
X22600000Y-12285000D02*
X22600000Y-12315000D01*
X22585000Y-12300000D02*
X22615000Y-12300000D01*
X22600000Y-12385000D02*
X22600000Y-12415000D01*
X22585000Y-12400000D02*
X22615000Y-12400000D01*
X22600000Y-12485000D02*
X22600000Y-12515000D01*
X22585000Y-12500000D02*
X22615000Y-12500000D01*
X22700000Y-11285000D02*
X22700000Y-11315000D01*
X22685000Y-11300000D02*
X22715000Y-11300000D01*
X22700000Y-11485000D02*
X22700000Y-11515000D01*
X22685000Y-11500000D02*
X22715000Y-11500000D01*
X22700000Y-11585000D02*
X22700000Y-11615000D01*
X22685000Y-11600000D02*
X22715000Y-11600000D01*
X22700000Y-11685000D02*
X22700000Y-11715000D01*
X22685000Y-11700000D02*
X22715000Y-11700000D01*
X22700000Y-12285000D02*
X22700000Y-12315000D01*
X22685000Y-12300000D02*
X22715000Y-12300000D01*
X22700000Y-12385000D02*
X22700000Y-12415000D01*
X22685000Y-12400000D02*
X22715000Y-12400000D01*
X22700000Y-12485000D02*
X22700000Y-12515000D01*
X22685000Y-12500000D02*
X22715000Y-12500000D01*
X22800000Y-11485000D02*
X22800000Y-11515000D01*
X22785000Y-11500000D02*
X22815000Y-11500000D01*
X22800000Y-11585000D02*
X22800000Y-11615000D01*
X22785000Y-11600000D02*
X22815000Y-11600000D01*
X22800000Y-11685000D02*
X22800000Y-11715000D01*
X22785000Y-11700000D02*
X22815000Y-11700000D01*
X22800000Y-12285000D02*
X22800000Y-12315000D01*
X22785000Y-12300000D02*
X22815000Y-12300000D01*
X22800000Y-12385000D02*
X22800000Y-12415000D01*
X22785000Y-12400000D02*
X22815000Y-12400000D01*
X22800000Y-12485000D02*
X22800000Y-12515000D01*
X22785000Y-12500000D02*
X22815000Y-12500000D01*
X22900000Y-11285000D02*
X22900000Y-11315000D01*
X22885000Y-11300000D02*
X22915000Y-11300000D01*
X22900000Y-11485000D02*
X22900000Y-11515000D01*
X22885000Y-11500000D02*
X22915000Y-11500000D01*
X22900000Y-11585000D02*
X22900000Y-11615000D01*
X22885000Y-11600000D02*
X22915000Y-11600000D01*
X22900000Y-11685000D02*
X22900000Y-11715000D01*
X22885000Y-11700000D02*
X22915000Y-11700000D01*
X22900000Y-12285000D02*
X22900000Y-12315000D01*
X22885000Y-12300000D02*
X22915000Y-12300000D01*
X22900000Y-12385000D02*
X22900000Y-12415000D01*
X22885000Y-12400000D02*
X22915000Y-12400000D01*
X22900000Y-12485000D02*
X22900000Y-12515000D01*
X22885000Y-12500000D02*
X22915000Y-12500000D01*
X23000000Y-9735000D02*
X23000000Y-9765000D01*
X22985000Y-9750000D02*
X23015000Y-9750000D01*
X23000000Y-9985000D02*
X23000000Y-10015000D01*
X22985000Y-10000000D02*
X23015000Y-10000000D01*
X23000000Y-10485000D02*
X23000000Y-10515000D01*
X22985000Y-10500000D02*
X23015000Y-10500000D01*
X23000000Y-10985000D02*
X23000000Y-11015000D01*
X22985000Y-11000000D02*
X23015000Y-11000000D01*
X23000000Y-11485000D02*
X23000000Y-11515000D01*
X22985000Y-11500000D02*
X23015000Y-11500000D01*
X23000000Y-11585000D02*
X23000000Y-11615000D01*
X22985000Y-11600000D02*
X23015000Y-11600000D01*
X23000000Y-11685000D02*
X23000000Y-11715000D01*
X22985000Y-11700000D02*
X23015000Y-11700000D01*
X23000000Y-12285000D02*
X23000000Y-12315000D01*
X22985000Y-12300000D02*
X23015000Y-12300000D01*
X23000000Y-12385000D02*
X23000000Y-12415000D01*
X22985000Y-12400000D02*
X23015000Y-12400000D01*
X23000000Y-12485000D02*
X23000000Y-12515000D01*
X22985000Y-12500000D02*
X23015000Y-12500000D01*
X23000000Y-12985000D02*
X23000000Y-13015000D01*
X22985000Y-13000000D02*
X23015000Y-13000000D01*
X23000000Y-13485000D02*
X23000000Y-13515000D01*
X22985000Y-13500000D02*
X23015000Y-13500000D01*
X23100000Y-11285000D02*
X23100000Y-11315000D01*
X23085000Y-11300000D02*
X23115000Y-11300000D01*
X23100000Y-11885000D02*
X23100000Y-11915000D01*
X23085000Y-11900000D02*
X23115000Y-11900000D01*
X23100000Y-12085000D02*
X23100000Y-12115000D01*
X23085000Y-12100000D02*
X23115000Y-12100000D01*
X23300000Y-11285000D02*
X23300000Y-11315000D01*
X23285000Y-11300000D02*
X23315000Y-11300000D01*
X23300000Y-11485000D02*
X23300000Y-11515000D01*
X23285000Y-11500000D02*
X23315000Y-11500000D01*
X23300000Y-12485000D02*
X23300000Y-12515000D01*
X23285000Y-12500000D02*
X23315000Y-12500000D01*
X23300000Y-12685000D02*
X23300000Y-12715000D01*
X23285000Y-12700000D02*
X23315000Y-12700000D01*
X23410000Y-11635000D02*
X23410000Y-11665000D01*
X23395000Y-11650000D02*
X23425000Y-11650000D01*
X23410000Y-11735000D02*
X23410000Y-11765000D01*
X23395000Y-11750000D02*
X23425000Y-11750000D01*
X23410000Y-11835000D02*
X23410000Y-11865000D01*
X23395000Y-11850000D02*
X23425000Y-11850000D01*
X23410000Y-12135000D02*
X23410000Y-12165000D01*
X23395000Y-12150000D02*
X23425000Y-12150000D01*
X23410000Y-12235000D02*
X23410000Y-12265000D01*
X23395000Y-12250000D02*
X23425000Y-12250000D01*
X23410000Y-12335000D02*
X23410000Y-12365000D01*
X23395000Y-12350000D02*
X23425000Y-12350000D01*
X23500000Y-9735000D02*
X23500000Y-9765000D01*
X23485000Y-9750000D02*
X23515000Y-9750000D01*
X23500000Y-9985000D02*
X23500000Y-10015000D01*
X23485000Y-10000000D02*
X23515000Y-10000000D01*
X23500000Y-10485000D02*
X23500000Y-10515000D01*
X23485000Y-10500000D02*
X23515000Y-10500000D01*
X23500000Y-10985000D02*
X23500000Y-11015000D01*
X23485000Y-11000000D02*
X23515000Y-11000000D01*
X23500000Y-11285000D02*
X23500000Y-11315000D01*
X23485000Y-11300000D02*
X23515000Y-11300000D01*
X23500000Y-11485000D02*
X23500000Y-11515000D01*
X23485000Y-11500000D02*
X23515000Y-11500000D01*
X23500000Y-12485000D02*
X23500000Y-12515000D01*
X23485000Y-12500000D02*
X23515000Y-12500000D01*
X23500000Y-12685000D02*
X23500000Y-12715000D01*
X23485000Y-12700000D02*
X23515000Y-12700000D01*
X23500000Y-12985000D02*
X23500000Y-13015000D01*
X23485000Y-13000000D02*
X23515000Y-13000000D01*
X23500000Y-13485000D02*
X23500000Y-13515000D01*
X23485000Y-13500000D02*
X23515000Y-13500000D01*
X23660000Y-11635000D02*
X23660000Y-11665000D01*
X23645000Y-11650000D02*
X23675000Y-11650000D01*
X23660000Y-11735000D02*
X23660000Y-11765000D01*
X23645000Y-11750000D02*
X23675000Y-11750000D01*
X23660000Y-11835000D02*
X23660000Y-11865000D01*
X23645000Y-11850000D02*
X23675000Y-11850000D01*
X23660000Y-12135000D02*
X23660000Y-12165000D01*
X23645000Y-12150000D02*
X23675000Y-12150000D01*
X23660000Y-12235000D02*
X23660000Y-12265000D01*
X23645000Y-12250000D02*
X23675000Y-12250000D01*
X23660000Y-12335000D02*
X23660000Y-12365000D01*
X23645000Y-12350000D02*
X23675000Y-12350000D01*
X23700000Y-11285000D02*
X23700000Y-11315000D01*
X23685000Y-11300000D02*
X23715000Y-11300000D01*
X23700000Y-11485000D02*
X23700000Y-11515000D01*
X23685000Y-11500000D02*
X23715000Y-11500000D01*
X23700000Y-12485000D02*
X23700000Y-12515000D01*
X23685000Y-12500000D02*
X23715000Y-12500000D01*
X23700000Y-12685000D02*
X23700000Y-12715000D01*
X23685000Y-12700000D02*
X23715000Y-12700000D01*
X23900000Y-12485000D02*
X23900000Y-12515000D01*
X23885000Y-12500000D02*
X23915000Y-12500000D01*
X23900000Y-12685000D02*
X23900000Y-12715000D01*
X23885000Y-12700000D02*
X23915000Y-12700000D01*
X16623107Y-12958107D02*
X16623107Y-12936893D01*
X16601893Y-12936893D01*
X16601893Y-12958107D01*
X16623107Y-12958107D01*
X16623107Y-13078107D02*
X16623107Y-13056893D01*
X16601893Y-13056893D01*
X16601893Y-13078107D01*
X16623107Y-13078107D01*
X16673107Y-12893107D02*
X16673107Y-12871893D01*
X16651893Y-12871893D01*
X16651893Y-12893107D01*
X16673107Y-12893107D01*
X16673107Y-13018107D02*
X16673107Y-12996893D01*
X16651893Y-12996893D01*
X16651893Y-13018107D01*
X16673107Y-13018107D01*
X16673107Y-13138107D02*
X16673107Y-13116893D01*
X16651893Y-13116893D01*
X16651893Y-13138107D01*
X16673107Y-13138107D01*
X16723107Y-12958107D02*
X16723107Y-12936893D01*
X16701893Y-12936893D01*
X16701893Y-12958107D01*
X16723107Y-12958107D01*
X16723107Y-13078107D02*
X16723107Y-13056893D01*
X16701893Y-13056893D01*
X16701893Y-13078107D01*
X16723107Y-13078107D01*
X16727607Y-11353107D02*
X16727607Y-11331893D01*
X16706393Y-11331893D01*
X16706393Y-11353107D01*
X16727607Y-11353107D01*
X16727607Y-11453107D02*
X16727607Y-11431893D01*
X16706393Y-11431893D01*
X16706393Y-11453107D01*
X16727607Y-11453107D01*
X16727607Y-11553107D02*
X16727607Y-11531893D01*
X16706393Y-11531893D01*
X16706393Y-11553107D01*
X16727607Y-11553107D01*
X16737607Y-12147607D02*
X16737607Y-12126393D01*
X16716393Y-12126393D01*
X16716393Y-12147607D01*
X16737607Y-12147607D01*
X16737607Y-12267607D02*
X16737607Y-12246393D01*
X16716393Y-12246393D01*
X16716393Y-12267607D01*
X16737607Y-12267607D01*
X16773107Y-12893107D02*
X16773107Y-12871893D01*
X16751893Y-12871893D01*
X16751893Y-12893107D01*
X16773107Y-12893107D01*
X16773107Y-13018107D02*
X16773107Y-12996893D01*
X16751893Y-12996893D01*
X16751893Y-13018107D01*
X16773107Y-13018107D01*
X16773107Y-13138107D02*
X16773107Y-13116893D01*
X16751893Y-13116893D01*
X16751893Y-13138107D01*
X16773107Y-13138107D01*
X16787607Y-12082607D02*
X16787607Y-12061393D01*
X16766393Y-12061393D01*
X16766393Y-12082607D01*
X16787607Y-12082607D01*
X16787607Y-12207607D02*
X16787607Y-12186393D01*
X16766393Y-12186393D01*
X16766393Y-12207607D01*
X16787607Y-12207607D01*
X16787607Y-12327607D02*
X16787607Y-12306393D01*
X16766393Y-12306393D01*
X16766393Y-12327607D01*
X16787607Y-12327607D01*
X16792607Y-11303107D02*
X16792607Y-11281893D01*
X16771393Y-11281893D01*
X16771393Y-11303107D01*
X16792607Y-11303107D01*
X16792607Y-11403107D02*
X16792607Y-11381893D01*
X16771393Y-11381893D01*
X16771393Y-11403107D01*
X16792607Y-11403107D01*
X16792607Y-11503107D02*
X16792607Y-11481893D01*
X16771393Y-11481893D01*
X16771393Y-11503107D01*
X16792607Y-11503107D01*
X16792607Y-11603107D02*
X16792607Y-11581893D01*
X16771393Y-11581893D01*
X16771393Y-11603107D01*
X16792607Y-11603107D01*
X16823107Y-12958107D02*
X16823107Y-12936893D01*
X16801893Y-12936893D01*
X16801893Y-12958107D01*
X16823107Y-12958107D01*
X16823107Y-13078107D02*
X16823107Y-13056893D01*
X16801893Y-13056893D01*
X16801893Y-13078107D01*
X16823107Y-13078107D01*
X16837607Y-12147607D02*
X16837607Y-12126393D01*
X16816393Y-12126393D01*
X16816393Y-12147607D01*
X16837607Y-12147607D01*
X16837607Y-12267607D02*
X16837607Y-12246393D01*
X16816393Y-12246393D01*
X16816393Y-12267607D01*
X16837607Y-12267607D01*
X16852607Y-11353107D02*
X16852607Y-11331893D01*
X16831393Y-11331893D01*
X16831393Y-11353107D01*
X16852607Y-11353107D01*
X16852607Y-11453107D02*
X16852607Y-11431893D01*
X16831393Y-11431893D01*
X16831393Y-11453107D01*
X16852607Y-11453107D01*
X16852607Y-11553107D02*
X16852607Y-11531893D01*
X16831393Y-11531893D01*
X16831393Y-11553107D01*
X16852607Y-11553107D01*
X16873107Y-12893107D02*
X16873107Y-12871893D01*
X16851893Y-12871893D01*
X16851893Y-12893107D01*
X16873107Y-12893107D01*
X16873107Y-13018107D02*
X16873107Y-12996893D01*
X16851893Y-12996893D01*
X16851893Y-13018107D01*
X16873107Y-13018107D01*
X16873107Y-13138107D02*
X16873107Y-13116893D01*
X16851893Y-13116893D01*
X16851893Y-13138107D01*
X16873107Y-13138107D01*
X16887607Y-12082607D02*
X16887607Y-12061393D01*
X16866393Y-12061393D01*
X16866393Y-12082607D01*
X16887607Y-12082607D01*
X16887607Y-12207607D02*
X16887607Y-12186393D01*
X16866393Y-12186393D01*
X16866393Y-12207607D01*
X16887607Y-12207607D01*
X16887607Y-12327607D02*
X16887607Y-12306393D01*
X16866393Y-12306393D01*
X16866393Y-12327607D01*
X16887607Y-12327607D01*
X16912607Y-11303107D02*
X16912607Y-11281893D01*
X16891393Y-11281893D01*
X16891393Y-11303107D01*
X16912607Y-11303107D01*
X16912607Y-11403107D02*
X16912607Y-11381893D01*
X16891393Y-11381893D01*
X16891393Y-11403107D01*
X16912607Y-11403107D01*
X16912607Y-11503107D02*
X16912607Y-11481893D01*
X16891393Y-11481893D01*
X16891393Y-11503107D01*
X16912607Y-11503107D01*
X16912607Y-11603107D02*
X16912607Y-11581893D01*
X16891393Y-11581893D01*
X16891393Y-11603107D01*
X16912607Y-11603107D01*
X16923107Y-12958107D02*
X16923107Y-12936893D01*
X16901893Y-12936893D01*
X16901893Y-12958107D01*
X16923107Y-12958107D01*
X16923107Y-13078107D02*
X16923107Y-13056893D01*
X16901893Y-13056893D01*
X16901893Y-13078107D01*
X16923107Y-13078107D01*
X16937607Y-12147607D02*
X16937607Y-12126393D01*
X16916393Y-12126393D01*
X16916393Y-12147607D01*
X16937607Y-12147607D01*
X16937607Y-12267607D02*
X16937607Y-12246393D01*
X16916393Y-12246393D01*
X16916393Y-12267607D01*
X16937607Y-12267607D01*
X16972607Y-11353107D02*
X16972607Y-11331893D01*
X16951393Y-11331893D01*
X16951393Y-11353107D01*
X16972607Y-11353107D01*
X16972607Y-11453107D02*
X16972607Y-11431893D01*
X16951393Y-11431893D01*
X16951393Y-11453107D01*
X16972607Y-11453107D01*
X16972607Y-11553107D02*
X16972607Y-11531893D01*
X16951393Y-11531893D01*
X16951393Y-11553107D01*
X16972607Y-11553107D01*
X16987607Y-12207607D02*
X16987607Y-12186393D01*
X16966393Y-12186393D01*
X16966393Y-12207607D01*
X16987607Y-12207607D01*
X16987607Y-12327607D02*
X16987607Y-12306393D01*
X16966393Y-12306393D01*
X16966393Y-12327607D01*
X16987607Y-12327607D01*
X17037607Y-12267607D02*
X17037607Y-12246393D01*
X17016393Y-12246393D01*
X17016393Y-12267607D01*
X17037607Y-12267607D01*
X17461107Y-12147107D02*
X17461107Y-12125893D01*
X17439893Y-12125893D01*
X17439893Y-12147107D01*
X17461107Y-12147107D01*
X17461107Y-12267107D02*
X17461107Y-12245893D01*
X17439893Y-12245893D01*
X17439893Y-12267107D01*
X17461107Y-12267107D01*
X17511107Y-12087107D02*
X17511107Y-12065893D01*
X17489893Y-12065893D01*
X17489893Y-12087107D01*
X17511107Y-12087107D01*
X17511107Y-12207107D02*
X17511107Y-12185893D01*
X17489893Y-12185893D01*
X17489893Y-12207107D01*
X17511107Y-12207107D01*
X17511107Y-12332107D02*
X17511107Y-12310893D01*
X17489893Y-12310893D01*
X17489893Y-12332107D01*
X17511107Y-12332107D01*
X17520607Y-11352107D02*
X17520607Y-11330893D01*
X17499393Y-11330893D01*
X17499393Y-11352107D01*
X17520607Y-11352107D01*
X17520607Y-11452107D02*
X17520607Y-11430893D01*
X17499393Y-11430893D01*
X17499393Y-11452107D01*
X17520607Y-11452107D01*
X17520607Y-11552107D02*
X17520607Y-11530893D01*
X17499393Y-11530893D01*
X17499393Y-11552107D01*
X17520607Y-11552107D01*
X17561107Y-12147107D02*
X17561107Y-12125893D01*
X17539893Y-12125893D01*
X17539893Y-12147107D01*
X17561107Y-12147107D01*
X17561107Y-12267107D02*
X17561107Y-12245893D01*
X17539893Y-12245893D01*
X17539893Y-12267107D01*
X17561107Y-12267107D01*
X17573107Y-12953107D02*
X17573107Y-12931893D01*
X17551893Y-12931893D01*
X17551893Y-12953107D01*
X17573107Y-12953107D01*
X17573107Y-13073107D02*
X17573107Y-13051893D01*
X17551893Y-13051893D01*
X17551893Y-13073107D01*
X17573107Y-13073107D01*
X17585607Y-11302107D02*
X17585607Y-11280893D01*
X17564393Y-11280893D01*
X17564393Y-11302107D01*
X17585607Y-11302107D01*
X17585607Y-11402107D02*
X17585607Y-11380893D01*
X17564393Y-11380893D01*
X17564393Y-11402107D01*
X17585607Y-11402107D01*
X17585607Y-11502107D02*
X17585607Y-11480893D01*
X17564393Y-11480893D01*
X17564393Y-11502107D01*
X17585607Y-11502107D01*
X17585607Y-11602107D02*
X17585607Y-11580893D01*
X17564393Y-11580893D01*
X17564393Y-11602107D01*
X17585607Y-11602107D01*
X17611107Y-12087107D02*
X17611107Y-12065893D01*
X17589893Y-12065893D01*
X17589893Y-12087107D01*
X17611107Y-12087107D01*
X17611107Y-12207107D02*
X17611107Y-12185893D01*
X17589893Y-12185893D01*
X17589893Y-12207107D01*
X17611107Y-12207107D01*
X17611107Y-12332107D02*
X17611107Y-12310893D01*
X17589893Y-12310893D01*
X17589893Y-12332107D01*
X17611107Y-12332107D01*
X17623107Y-12888107D02*
X17623107Y-12866893D01*
X17601893Y-12866893D01*
X17601893Y-12888107D01*
X17623107Y-12888107D01*
X17623107Y-13013107D02*
X17623107Y-12991893D01*
X17601893Y-12991893D01*
X17601893Y-13013107D01*
X17623107Y-13013107D01*
X17623107Y-13133107D02*
X17623107Y-13111893D01*
X17601893Y-13111893D01*
X17601893Y-13133107D01*
X17623107Y-13133107D01*
X17645607Y-11352107D02*
X17645607Y-11330893D01*
X17624393Y-11330893D01*
X17624393Y-11352107D01*
X17645607Y-11352107D01*
X17645607Y-11452107D02*
X17645607Y-11430893D01*
X17624393Y-11430893D01*
X17624393Y-11452107D01*
X17645607Y-11452107D01*
X17645607Y-11552107D02*
X17645607Y-11530893D01*
X17624393Y-11530893D01*
X17624393Y-11552107D01*
X17645607Y-11552107D01*
X17661107Y-12147107D02*
X17661107Y-12125893D01*
X17639893Y-12125893D01*
X17639893Y-12147107D01*
X17661107Y-12147107D01*
X17661107Y-12267107D02*
X17661107Y-12245893D01*
X17639893Y-12245893D01*
X17639893Y-12267107D01*
X17661107Y-12267107D01*
X17673107Y-12953107D02*
X17673107Y-12931893D01*
X17651893Y-12931893D01*
X17651893Y-12953107D01*
X17673107Y-12953107D01*
X17673107Y-13073107D02*
X17673107Y-13051893D01*
X17651893Y-13051893D01*
X17651893Y-13073107D01*
X17673107Y-13073107D01*
X17705607Y-11302107D02*
X17705607Y-11280893D01*
X17684393Y-11280893D01*
X17684393Y-11302107D01*
X17705607Y-11302107D01*
X17705607Y-11402107D02*
X17705607Y-11380893D01*
X17684393Y-11380893D01*
X17684393Y-11402107D01*
X17705607Y-11402107D01*
X17705607Y-11502107D02*
X17705607Y-11480893D01*
X17684393Y-11480893D01*
X17684393Y-11502107D01*
X17705607Y-11502107D01*
X17705607Y-11602107D02*
X17705607Y-11580893D01*
X17684393Y-11580893D01*
X17684393Y-11602107D01*
X17705607Y-11602107D01*
X17711107Y-12087107D02*
X17711107Y-12065893D01*
X17689893Y-12065893D01*
X17689893Y-12087107D01*
X17711107Y-12087107D01*
X17711107Y-12207107D02*
X17711107Y-12185893D01*
X17689893Y-12185893D01*
X17689893Y-12207107D01*
X17711107Y-12207107D01*
X17711107Y-12332107D02*
X17711107Y-12310893D01*
X17689893Y-12310893D01*
X17689893Y-12332107D01*
X17711107Y-12332107D01*
X17723107Y-12888107D02*
X17723107Y-12866893D01*
X17701893Y-12866893D01*
X17701893Y-12888107D01*
X17723107Y-12888107D01*
X17723107Y-13013107D02*
X17723107Y-12991893D01*
X17701893Y-12991893D01*
X17701893Y-13013107D01*
X17723107Y-13013107D01*
X17723107Y-13133107D02*
X17723107Y-13111893D01*
X17701893Y-13111893D01*
X17701893Y-13133107D01*
X17723107Y-13133107D01*
X17761107Y-12147107D02*
X17761107Y-12125893D01*
X17739893Y-12125893D01*
X17739893Y-12147107D01*
X17761107Y-12147107D01*
X17761107Y-12267107D02*
X17761107Y-12245893D01*
X17739893Y-12245893D01*
X17739893Y-12267107D01*
X17761107Y-12267107D01*
X17765607Y-11352107D02*
X17765607Y-11330893D01*
X17744393Y-11330893D01*
X17744393Y-11352107D01*
X17765607Y-11352107D01*
X17765607Y-11452107D02*
X17765607Y-11430893D01*
X17744393Y-11430893D01*
X17744393Y-11452107D01*
X17765607Y-11452107D01*
X17765607Y-11552107D02*
X17765607Y-11530893D01*
X17744393Y-11530893D01*
X17744393Y-11552107D01*
X17765607Y-11552107D01*
X17773107Y-12953107D02*
X17773107Y-12931893D01*
X17751893Y-12931893D01*
X17751893Y-12953107D01*
X17773107Y-12953107D01*
X17773107Y-13073107D02*
X17773107Y-13051893D01*
X17751893Y-13051893D01*
X17751893Y-13073107D01*
X17773107Y-13073107D01*
X17823107Y-12888107D02*
X17823107Y-12866893D01*
X17801893Y-12866893D01*
X17801893Y-12888107D01*
X17823107Y-12888107D01*
X17823107Y-13013107D02*
X17823107Y-12991893D01*
X17801893Y-12991893D01*
X17801893Y-13013107D01*
X17823107Y-13013107D01*
X17823107Y-13133107D02*
X17823107Y-13111893D01*
X17801893Y-13111893D01*
X17801893Y-13133107D01*
X17823107Y-13133107D01*
X17873107Y-12953107D02*
X17873107Y-12931893D01*
X17851893Y-12931893D01*
X17851893Y-12953107D01*
X17873107Y-12953107D01*
X17873107Y-13073107D02*
X17873107Y-13051893D01*
X17851893Y-13051893D01*
X17851893Y-13073107D01*
X17873107Y-13073107D01*
X20805607Y-11665607D02*
X20805607Y-11644393D01*
X20784393Y-11644393D01*
X20784393Y-11665607D01*
X20805607Y-11665607D01*
X20805607Y-11785607D02*
X20805607Y-11764393D01*
X20784393Y-11764393D01*
X20784393Y-11785607D01*
X20805607Y-11785607D01*
X20855607Y-11605607D02*
X20855607Y-11584393D01*
X20834393Y-11584393D01*
X20834393Y-11605607D01*
X20855607Y-11605607D01*
X20855607Y-11725607D02*
X20855607Y-11704393D01*
X20834393Y-11704393D01*
X20834393Y-11725607D01*
X20855607Y-11725607D01*
X20855607Y-11850607D02*
X20855607Y-11829393D01*
X20834393Y-11829393D01*
X20834393Y-11850607D01*
X20855607Y-11850607D01*
X20905607Y-11665607D02*
X20905607Y-11644393D01*
X20884393Y-11644393D01*
X20884393Y-11665607D01*
X20905607Y-11665607D01*
X20905607Y-11785607D02*
X20905607Y-11764393D01*
X20884393Y-11764393D01*
X20884393Y-11785607D01*
X20905607Y-11785607D01*
X20955607Y-11605607D02*
X20955607Y-11584393D01*
X20934393Y-11584393D01*
X20934393Y-11605607D01*
X20955607Y-11605607D01*
X20955607Y-11725607D02*
X20955607Y-11704393D01*
X20934393Y-11704393D01*
X20934393Y-11725607D01*
X20955607Y-11725607D01*
X20955607Y-11850607D02*
X20955607Y-11829393D01*
X20934393Y-11829393D01*
X20934393Y-11850607D01*
X20955607Y-11850607D01*
X21005607Y-11665607D02*
X21005607Y-11644393D01*
X20984393Y-11644393D01*
X20984393Y-11665607D01*
X21005607Y-11665607D01*
X21005607Y-11785607D02*
X21005607Y-11764393D01*
X20984393Y-11764393D01*
X20984393Y-11785607D01*
X21005607Y-11785607D01*
X21055607Y-11605607D02*
X21055607Y-11584393D01*
X21034393Y-11584393D01*
X21034393Y-11605607D01*
X21055607Y-11605607D01*
X21055607Y-11725607D02*
X21055607Y-11704393D01*
X21034393Y-11704393D01*
X21034393Y-11725607D01*
X21055607Y-11725607D01*
X21055607Y-11850607D02*
X21055607Y-11829393D01*
X21034393Y-11829393D01*
X21034393Y-11850607D01*
X21055607Y-11850607D01*
X21105607Y-11665607D02*
X21105607Y-11644393D01*
X21084393Y-11644393D01*
X21084393Y-11665607D01*
X21105607Y-11665607D01*
X21105607Y-11785607D02*
X21105607Y-11764393D01*
X21084393Y-11764393D01*
X21084393Y-11785607D01*
X21105607Y-11785607D01*
D11*
X13808277Y-14213984D02*
X13808277Y-14013984D01*
X13808277Y-14013984D02*
X13855896Y-14013984D01*
X13855896Y-14013984D02*
X13884467Y-14023508D01*
X13884467Y-14023508D02*
X13903515Y-14042555D01*
X13903515Y-14042555D02*
X13913039Y-14061603D01*
X13913039Y-14061603D02*
X13922562Y-14099698D01*
X13922562Y-14099698D02*
X13922562Y-14128269D01*
X13922562Y-14128269D02*
X13913039Y-14166365D01*
X13913039Y-14166365D02*
X13903515Y-14185412D01*
X13903515Y-14185412D02*
X13884467Y-14204460D01*
X13884467Y-14204460D02*
X13855896Y-14213984D01*
X13855896Y-14213984D02*
X13808277Y-14213984D01*
X14008277Y-14213984D02*
X14008277Y-14080650D01*
X14008277Y-14118746D02*
X14017801Y-14099698D01*
X14017801Y-14099698D02*
X14027324Y-14090174D01*
X14027324Y-14090174D02*
X14046372Y-14080650D01*
X14046372Y-14080650D02*
X14065420Y-14080650D01*
X14132086Y-14213984D02*
X14132086Y-14080650D01*
X14132086Y-14013984D02*
X14122562Y-14023508D01*
X14122562Y-14023508D02*
X14132086Y-14033031D01*
X14132086Y-14033031D02*
X14141610Y-14023508D01*
X14141610Y-14023508D02*
X14132086Y-14013984D01*
X14132086Y-14013984D02*
X14132086Y-14033031D01*
X14255896Y-14213984D02*
X14236848Y-14204460D01*
X14236848Y-14204460D02*
X14227324Y-14185412D01*
X14227324Y-14185412D02*
X14227324Y-14013984D01*
X14360658Y-14213984D02*
X14341610Y-14204460D01*
X14341610Y-14204460D02*
X14332086Y-14185412D01*
X14332086Y-14185412D02*
X14332086Y-14013984D01*
X14589229Y-14213984D02*
X14589229Y-14013984D01*
X14589229Y-14013984D02*
X14655896Y-14156841D01*
X14655896Y-14156841D02*
X14722562Y-14013984D01*
X14722562Y-14013984D02*
X14722562Y-14213984D01*
X14903515Y-14213984D02*
X14903515Y-14109222D01*
X14903515Y-14109222D02*
X14893991Y-14090174D01*
X14893991Y-14090174D02*
X14874943Y-14080650D01*
X14874943Y-14080650D02*
X14836848Y-14080650D01*
X14836848Y-14080650D02*
X14817801Y-14090174D01*
X14903515Y-14204460D02*
X14884467Y-14213984D01*
X14884467Y-14213984D02*
X14836848Y-14213984D01*
X14836848Y-14213984D02*
X14817801Y-14204460D01*
X14817801Y-14204460D02*
X14808277Y-14185412D01*
X14808277Y-14185412D02*
X14808277Y-14166365D01*
X14808277Y-14166365D02*
X14817801Y-14147317D01*
X14817801Y-14147317D02*
X14836848Y-14137793D01*
X14836848Y-14137793D02*
X14884467Y-14137793D01*
X14884467Y-14137793D02*
X14903515Y-14128269D01*
X14998753Y-14080650D02*
X14998753Y-14280650D01*
X14998753Y-14090174D02*
X15017801Y-14080650D01*
X15017801Y-14080650D02*
X15055896Y-14080650D01*
X15055896Y-14080650D02*
X15074943Y-14090174D01*
X15074943Y-14090174D02*
X15084467Y-14099698D01*
X15084467Y-14099698D02*
X15093991Y-14118746D01*
X15093991Y-14118746D02*
X15093991Y-14175888D01*
X15093991Y-14175888D02*
X15084467Y-14194936D01*
X15084467Y-14194936D02*
X15074943Y-14204460D01*
X15074943Y-14204460D02*
X15055896Y-14213984D01*
X15055896Y-14213984D02*
X15017801Y-14213984D01*
X15017801Y-14213984D02*
X14998753Y-14204460D01*
X15179705Y-14194936D02*
X15189229Y-14204460D01*
X15189229Y-14204460D02*
X15179705Y-14213984D01*
X15179705Y-14213984D02*
X15170182Y-14204460D01*
X15170182Y-14204460D02*
X15179705Y-14194936D01*
X15179705Y-14194936D02*
X15179705Y-14213984D01*
X15179705Y-14090174D02*
X15189229Y-14099698D01*
X15189229Y-14099698D02*
X15179705Y-14109222D01*
X15179705Y-14109222D02*
X15170182Y-14099698D01*
X15170182Y-14099698D02*
X15179705Y-14090174D01*
X15179705Y-14090174D02*
X15179705Y-14109222D01*
D12*
X13532500Y-14535000D02*
X13547500Y-14550000D01*
X13547500Y-14535000D02*
X13532500Y-14550000D01*
D11*
X13846372Y-14433984D02*
X13865420Y-14433984D01*
X13865420Y-14433984D02*
X13884467Y-14443508D01*
X13884467Y-14443508D02*
X13893991Y-14453031D01*
X13893991Y-14453031D02*
X13903515Y-14472079D01*
X13903515Y-14472079D02*
X13913039Y-14510174D01*
X13913039Y-14510174D02*
X13913039Y-14557793D01*
X13913039Y-14557793D02*
X13903515Y-14595888D01*
X13903515Y-14595888D02*
X13893991Y-14614936D01*
X13893991Y-14614936D02*
X13884467Y-14624460D01*
X13884467Y-14624460D02*
X13865420Y-14633984D01*
X13865420Y-14633984D02*
X13846372Y-14633984D01*
X13846372Y-14633984D02*
X13827324Y-14624460D01*
X13827324Y-14624460D02*
X13817801Y-14614936D01*
X13817801Y-14614936D02*
X13808277Y-14595888D01*
X13808277Y-14595888D02*
X13798753Y-14557793D01*
X13798753Y-14557793D02*
X13798753Y-14510174D01*
X13798753Y-14510174D02*
X13808277Y-14472079D01*
X13808277Y-14472079D02*
X13817801Y-14453031D01*
X13817801Y-14453031D02*
X13827324Y-14443508D01*
X13827324Y-14443508D02*
X13846372Y-14433984D01*
X13998753Y-14614936D02*
X14008277Y-14624460D01*
X14008277Y-14624460D02*
X13998753Y-14633984D01*
X13998753Y-14633984D02*
X13989229Y-14624460D01*
X13989229Y-14624460D02*
X13998753Y-14614936D01*
X13998753Y-14614936D02*
X13998753Y-14633984D01*
X14198753Y-14633984D02*
X14084467Y-14633984D01*
X14141610Y-14633984D02*
X14141610Y-14433984D01*
X14141610Y-14433984D02*
X14122562Y-14462555D01*
X14122562Y-14462555D02*
X14103515Y-14481603D01*
X14103515Y-14481603D02*
X14084467Y-14491127D01*
X14379705Y-14433984D02*
X14284467Y-14433984D01*
X14284467Y-14433984D02*
X14274943Y-14529222D01*
X14274943Y-14529222D02*
X14284467Y-14519698D01*
X14284467Y-14519698D02*
X14303515Y-14510174D01*
X14303515Y-14510174D02*
X14351134Y-14510174D01*
X14351134Y-14510174D02*
X14370182Y-14519698D01*
X14370182Y-14519698D02*
X14379705Y-14529222D01*
X14379705Y-14529222D02*
X14389229Y-14548269D01*
X14389229Y-14548269D02*
X14389229Y-14595888D01*
X14389229Y-14595888D02*
X14379705Y-14614936D01*
X14379705Y-14614936D02*
X14370182Y-14624460D01*
X14370182Y-14624460D02*
X14351134Y-14633984D01*
X14351134Y-14633984D02*
X14303515Y-14633984D01*
X14303515Y-14633984D02*
X14284467Y-14624460D01*
X14284467Y-14624460D02*
X14274943Y-14614936D01*
X14513039Y-14433984D02*
X14532086Y-14433984D01*
X14532086Y-14433984D02*
X14551134Y-14443508D01*
X14551134Y-14443508D02*
X14560658Y-14453031D01*
X14560658Y-14453031D02*
X14570182Y-14472079D01*
X14570182Y-14472079D02*
X14579705Y-14510174D01*
X14579705Y-14510174D02*
X14579705Y-14557793D01*
X14579705Y-14557793D02*
X14570182Y-14595888D01*
X14570182Y-14595888D02*
X14560658Y-14614936D01*
X14560658Y-14614936D02*
X14551134Y-14624460D01*
X14551134Y-14624460D02*
X14532086Y-14633984D01*
X14532086Y-14633984D02*
X14513039Y-14633984D01*
X14513039Y-14633984D02*
X14493991Y-14624460D01*
X14493991Y-14624460D02*
X14484467Y-14614936D01*
X14484467Y-14614936D02*
X14474943Y-14595888D01*
X14474943Y-14595888D02*
X14465420Y-14557793D01*
X14465420Y-14557793D02*
X14465420Y-14510174D01*
X14465420Y-14510174D02*
X14474943Y-14472079D01*
X14474943Y-14472079D02*
X14484467Y-14453031D01*
X14484467Y-14453031D02*
X14493991Y-14443508D01*
X14493991Y-14443508D02*
X14513039Y-14433984D01*
X14665420Y-14633984D02*
X14665420Y-14500650D01*
X14665420Y-14519698D02*
X14674943Y-14510174D01*
X14674943Y-14510174D02*
X14693991Y-14500650D01*
X14693991Y-14500650D02*
X14722563Y-14500650D01*
X14722563Y-14500650D02*
X14741610Y-14510174D01*
X14741610Y-14510174D02*
X14751134Y-14529222D01*
X14751134Y-14529222D02*
X14751134Y-14633984D01*
X14751134Y-14529222D02*
X14760658Y-14510174D01*
X14760658Y-14510174D02*
X14779705Y-14500650D01*
X14779705Y-14500650D02*
X14808277Y-14500650D01*
X14808277Y-14500650D02*
X14827324Y-14510174D01*
X14827324Y-14510174D02*
X14836848Y-14529222D01*
X14836848Y-14529222D02*
X14836848Y-14633984D01*
X14932086Y-14633984D02*
X14932086Y-14500650D01*
X14932086Y-14519698D02*
X14941610Y-14510174D01*
X14941610Y-14510174D02*
X14960658Y-14500650D01*
X14960658Y-14500650D02*
X14989229Y-14500650D01*
X14989229Y-14500650D02*
X15008277Y-14510174D01*
X15008277Y-14510174D02*
X15017801Y-14529222D01*
X15017801Y-14529222D02*
X15017801Y-14633984D01*
X15017801Y-14529222D02*
X15027324Y-14510174D01*
X15027324Y-14510174D02*
X15046372Y-14500650D01*
X15046372Y-14500650D02*
X15074943Y-14500650D01*
X15074943Y-14500650D02*
X15093991Y-14510174D01*
X15093991Y-14510174D02*
X15103515Y-14529222D01*
X15103515Y-14529222D02*
X15103515Y-14633984D01*
X15493991Y-14424460D02*
X15322563Y-14681603D01*
X15751134Y-14433984D02*
X15770182Y-14433984D01*
X15770182Y-14433984D02*
X15789229Y-14443508D01*
X15789229Y-14443508D02*
X15798753Y-14453031D01*
X15798753Y-14453031D02*
X15808277Y-14472079D01*
X15808277Y-14472079D02*
X15817801Y-14510174D01*
X15817801Y-14510174D02*
X15817801Y-14557793D01*
X15817801Y-14557793D02*
X15808277Y-14595888D01*
X15808277Y-14595888D02*
X15798753Y-14614936D01*
X15798753Y-14614936D02*
X15789229Y-14624460D01*
X15789229Y-14624460D02*
X15770182Y-14633984D01*
X15770182Y-14633984D02*
X15751134Y-14633984D01*
X15751134Y-14633984D02*
X15732086Y-14624460D01*
X15732086Y-14624460D02*
X15722563Y-14614936D01*
X15722563Y-14614936D02*
X15713039Y-14595888D01*
X15713039Y-14595888D02*
X15703515Y-14557793D01*
X15703515Y-14557793D02*
X15703515Y-14510174D01*
X15703515Y-14510174D02*
X15713039Y-14472079D01*
X15713039Y-14472079D02*
X15722563Y-14453031D01*
X15722563Y-14453031D02*
X15732086Y-14443508D01*
X15732086Y-14443508D02*
X15751134Y-14433984D01*
X15903515Y-14614936D02*
X15913039Y-14624460D01*
X15913039Y-14624460D02*
X15903515Y-14633984D01*
X15903515Y-14633984D02*
X15893991Y-14624460D01*
X15893991Y-14624460D02*
X15903515Y-14614936D01*
X15903515Y-14614936D02*
X15903515Y-14633984D01*
X16036848Y-14433984D02*
X16055896Y-14433984D01*
X16055896Y-14433984D02*
X16074944Y-14443508D01*
X16074944Y-14443508D02*
X16084467Y-14453031D01*
X16084467Y-14453031D02*
X16093991Y-14472079D01*
X16093991Y-14472079D02*
X16103515Y-14510174D01*
X16103515Y-14510174D02*
X16103515Y-14557793D01*
X16103515Y-14557793D02*
X16093991Y-14595888D01*
X16093991Y-14595888D02*
X16084467Y-14614936D01*
X16084467Y-14614936D02*
X16074944Y-14624460D01*
X16074944Y-14624460D02*
X16055896Y-14633984D01*
X16055896Y-14633984D02*
X16036848Y-14633984D01*
X16036848Y-14633984D02*
X16017801Y-14624460D01*
X16017801Y-14624460D02*
X16008277Y-14614936D01*
X16008277Y-14614936D02*
X15998753Y-14595888D01*
X15998753Y-14595888D02*
X15989229Y-14557793D01*
X15989229Y-14557793D02*
X15989229Y-14510174D01*
X15989229Y-14510174D02*
X15998753Y-14472079D01*
X15998753Y-14472079D02*
X16008277Y-14453031D01*
X16008277Y-14453031D02*
X16017801Y-14443508D01*
X16017801Y-14443508D02*
X16036848Y-14433984D01*
X16227325Y-14433984D02*
X16246372Y-14433984D01*
X16246372Y-14433984D02*
X16265420Y-14443508D01*
X16265420Y-14443508D02*
X16274944Y-14453031D01*
X16274944Y-14453031D02*
X16284467Y-14472079D01*
X16284467Y-14472079D02*
X16293991Y-14510174D01*
X16293991Y-14510174D02*
X16293991Y-14557793D01*
X16293991Y-14557793D02*
X16284467Y-14595888D01*
X16284467Y-14595888D02*
X16274944Y-14614936D01*
X16274944Y-14614936D02*
X16265420Y-14624460D01*
X16265420Y-14624460D02*
X16246372Y-14633984D01*
X16246372Y-14633984D02*
X16227325Y-14633984D01*
X16227325Y-14633984D02*
X16208277Y-14624460D01*
X16208277Y-14624460D02*
X16198753Y-14614936D01*
X16198753Y-14614936D02*
X16189229Y-14595888D01*
X16189229Y-14595888D02*
X16179706Y-14557793D01*
X16179706Y-14557793D02*
X16179706Y-14510174D01*
X16179706Y-14510174D02*
X16189229Y-14472079D01*
X16189229Y-14472079D02*
X16198753Y-14453031D01*
X16198753Y-14453031D02*
X16208277Y-14443508D01*
X16208277Y-14443508D02*
X16227325Y-14433984D01*
X16474944Y-14433984D02*
X16379706Y-14433984D01*
X16379706Y-14433984D02*
X16370182Y-14529222D01*
X16370182Y-14529222D02*
X16379706Y-14519698D01*
X16379706Y-14519698D02*
X16398753Y-14510174D01*
X16398753Y-14510174D02*
X16446372Y-14510174D01*
X16446372Y-14510174D02*
X16465420Y-14519698D01*
X16465420Y-14519698D02*
X16474944Y-14529222D01*
X16474944Y-14529222D02*
X16484467Y-14548269D01*
X16484467Y-14548269D02*
X16484467Y-14595888D01*
X16484467Y-14595888D02*
X16474944Y-14614936D01*
X16474944Y-14614936D02*
X16465420Y-14624460D01*
X16465420Y-14624460D02*
X16446372Y-14633984D01*
X16446372Y-14633984D02*
X16398753Y-14633984D01*
X16398753Y-14633984D02*
X16379706Y-14624460D01*
X16379706Y-14624460D02*
X16370182Y-14614936D01*
X16579706Y-14633984D02*
X16617801Y-14633984D01*
X16617801Y-14633984D02*
X16636848Y-14624460D01*
X16636848Y-14624460D02*
X16646372Y-14614936D01*
X16646372Y-14614936D02*
X16665420Y-14586365D01*
X16665420Y-14586365D02*
X16674944Y-14548269D01*
X16674944Y-14548269D02*
X16674944Y-14472079D01*
X16674944Y-14472079D02*
X16665420Y-14453031D01*
X16665420Y-14453031D02*
X16655896Y-14443508D01*
X16655896Y-14443508D02*
X16636848Y-14433984D01*
X16636848Y-14433984D02*
X16598753Y-14433984D01*
X16598753Y-14433984D02*
X16579706Y-14443508D01*
X16579706Y-14443508D02*
X16570182Y-14453031D01*
X16570182Y-14453031D02*
X16560658Y-14472079D01*
X16560658Y-14472079D02*
X16560658Y-14519698D01*
X16560658Y-14519698D02*
X16570182Y-14538746D01*
X16570182Y-14538746D02*
X16579706Y-14548269D01*
X16579706Y-14548269D02*
X16598753Y-14557793D01*
X16598753Y-14557793D02*
X16636848Y-14557793D01*
X16636848Y-14557793D02*
X16655896Y-14548269D01*
X16655896Y-14548269D02*
X16665420Y-14538746D01*
X16665420Y-14538746D02*
X16674944Y-14519698D01*
X16751134Y-14433984D02*
X16751134Y-14472079D01*
X16827325Y-14433984D02*
X16827325Y-14472079D01*
X17122563Y-14710174D02*
X17113039Y-14700650D01*
X17113039Y-14700650D02*
X17093991Y-14672079D01*
X17093991Y-14672079D02*
X17084468Y-14653031D01*
X17084468Y-14653031D02*
X17074944Y-14624460D01*
X17074944Y-14624460D02*
X17065420Y-14576841D01*
X17065420Y-14576841D02*
X17065420Y-14538746D01*
X17065420Y-14538746D02*
X17074944Y-14491127D01*
X17074944Y-14491127D02*
X17084468Y-14462555D01*
X17084468Y-14462555D02*
X17093991Y-14443508D01*
X17093991Y-14443508D02*
X17113039Y-14414936D01*
X17113039Y-14414936D02*
X17122563Y-14405412D01*
X17179706Y-14433984D02*
X17303515Y-14433984D01*
X17303515Y-14433984D02*
X17236849Y-14510174D01*
X17236849Y-14510174D02*
X17265420Y-14510174D01*
X17265420Y-14510174D02*
X17284468Y-14519698D01*
X17284468Y-14519698D02*
X17293991Y-14529222D01*
X17293991Y-14529222D02*
X17303515Y-14548269D01*
X17303515Y-14548269D02*
X17303515Y-14595888D01*
X17303515Y-14595888D02*
X17293991Y-14614936D01*
X17293991Y-14614936D02*
X17284468Y-14624460D01*
X17284468Y-14624460D02*
X17265420Y-14633984D01*
X17265420Y-14633984D02*
X17208277Y-14633984D01*
X17208277Y-14633984D02*
X17189230Y-14624460D01*
X17189230Y-14624460D02*
X17179706Y-14614936D01*
X17493991Y-14633984D02*
X17379706Y-14633984D01*
X17436849Y-14633984D02*
X17436849Y-14433984D01*
X17436849Y-14433984D02*
X17417801Y-14462555D01*
X17417801Y-14462555D02*
X17398753Y-14481603D01*
X17398753Y-14481603D02*
X17379706Y-14491127D01*
X17732087Y-14633984D02*
X17732087Y-14433984D01*
X17817801Y-14633984D02*
X17817801Y-14529222D01*
X17817801Y-14529222D02*
X17808277Y-14510174D01*
X17808277Y-14510174D02*
X17789230Y-14500650D01*
X17789230Y-14500650D02*
X17760658Y-14500650D01*
X17760658Y-14500650D02*
X17741611Y-14510174D01*
X17741611Y-14510174D02*
X17732087Y-14519698D01*
X17941611Y-14633984D02*
X17922563Y-14624460D01*
X17922563Y-14624460D02*
X17913039Y-14614936D01*
X17913039Y-14614936D02*
X17903515Y-14595888D01*
X17903515Y-14595888D02*
X17903515Y-14538746D01*
X17903515Y-14538746D02*
X17913039Y-14519698D01*
X17913039Y-14519698D02*
X17922563Y-14510174D01*
X17922563Y-14510174D02*
X17941611Y-14500650D01*
X17941611Y-14500650D02*
X17970182Y-14500650D01*
X17970182Y-14500650D02*
X17989230Y-14510174D01*
X17989230Y-14510174D02*
X17998753Y-14519698D01*
X17998753Y-14519698D02*
X18008277Y-14538746D01*
X18008277Y-14538746D02*
X18008277Y-14595888D01*
X18008277Y-14595888D02*
X17998753Y-14614936D01*
X17998753Y-14614936D02*
X17989230Y-14624460D01*
X17989230Y-14624460D02*
X17970182Y-14633984D01*
X17970182Y-14633984D02*
X17941611Y-14633984D01*
X18122563Y-14633984D02*
X18103515Y-14624460D01*
X18103515Y-14624460D02*
X18093992Y-14605412D01*
X18093992Y-14605412D02*
X18093992Y-14433984D01*
X18274944Y-14624460D02*
X18255896Y-14633984D01*
X18255896Y-14633984D02*
X18217801Y-14633984D01*
X18217801Y-14633984D02*
X18198753Y-14624460D01*
X18198753Y-14624460D02*
X18189230Y-14605412D01*
X18189230Y-14605412D02*
X18189230Y-14529222D01*
X18189230Y-14529222D02*
X18198753Y-14510174D01*
X18198753Y-14510174D02*
X18217801Y-14500650D01*
X18217801Y-14500650D02*
X18255896Y-14500650D01*
X18255896Y-14500650D02*
X18274944Y-14510174D01*
X18274944Y-14510174D02*
X18284468Y-14529222D01*
X18284468Y-14529222D02*
X18284468Y-14548269D01*
X18284468Y-14548269D02*
X18189230Y-14567317D01*
X18360658Y-14624460D02*
X18379706Y-14633984D01*
X18379706Y-14633984D02*
X18417801Y-14633984D01*
X18417801Y-14633984D02*
X18436849Y-14624460D01*
X18436849Y-14624460D02*
X18446373Y-14605412D01*
X18446373Y-14605412D02*
X18446373Y-14595888D01*
X18446373Y-14595888D02*
X18436849Y-14576841D01*
X18436849Y-14576841D02*
X18417801Y-14567317D01*
X18417801Y-14567317D02*
X18389230Y-14567317D01*
X18389230Y-14567317D02*
X18370182Y-14557793D01*
X18370182Y-14557793D02*
X18360658Y-14538746D01*
X18360658Y-14538746D02*
X18360658Y-14529222D01*
X18360658Y-14529222D02*
X18370182Y-14510174D01*
X18370182Y-14510174D02*
X18389230Y-14500650D01*
X18389230Y-14500650D02*
X18417801Y-14500650D01*
X18417801Y-14500650D02*
X18436849Y-14510174D01*
X18513039Y-14710174D02*
X18522563Y-14700650D01*
X18522563Y-14700650D02*
X18541611Y-14672079D01*
X18541611Y-14672079D02*
X18551134Y-14653031D01*
X18551134Y-14653031D02*
X18560658Y-14624460D01*
X18560658Y-14624460D02*
X18570182Y-14576841D01*
X18570182Y-14576841D02*
X18570182Y-14538746D01*
X18570182Y-14538746D02*
X18560658Y-14491127D01*
X18560658Y-14491127D02*
X18551134Y-14462555D01*
X18551134Y-14462555D02*
X18541611Y-14443508D01*
X18541611Y-14443508D02*
X18522563Y-14414936D01*
X18522563Y-14414936D02*
X18513039Y-14405412D01*
D12*
X13547500Y-14806500D02*
G75*
G02*
X13527500Y-14806500I-10000J0D01*
G01*
X13527500Y-14806500D02*
G75*
G02*
X13547500Y-14806500I10000J0D01*
G01*
D11*
X13846372Y-14697984D02*
X13865420Y-14697984D01*
X13865420Y-14697984D02*
X13884467Y-14707508D01*
X13884467Y-14707508D02*
X13893991Y-14717031D01*
X13893991Y-14717031D02*
X13903515Y-14736079D01*
X13903515Y-14736079D02*
X13913039Y-14774174D01*
X13913039Y-14774174D02*
X13913039Y-14821793D01*
X13913039Y-14821793D02*
X13903515Y-14859888D01*
X13903515Y-14859888D02*
X13893991Y-14878936D01*
X13893991Y-14878936D02*
X13884467Y-14888460D01*
X13884467Y-14888460D02*
X13865420Y-14897984D01*
X13865420Y-14897984D02*
X13846372Y-14897984D01*
X13846372Y-14897984D02*
X13827324Y-14888460D01*
X13827324Y-14888460D02*
X13817801Y-14878936D01*
X13817801Y-14878936D02*
X13808277Y-14859888D01*
X13808277Y-14859888D02*
X13798753Y-14821793D01*
X13798753Y-14821793D02*
X13798753Y-14774174D01*
X13798753Y-14774174D02*
X13808277Y-14736079D01*
X13808277Y-14736079D02*
X13817801Y-14717031D01*
X13817801Y-14717031D02*
X13827324Y-14707508D01*
X13827324Y-14707508D02*
X13846372Y-14697984D01*
X13998753Y-14878936D02*
X14008277Y-14888460D01*
X14008277Y-14888460D02*
X13998753Y-14897984D01*
X13998753Y-14897984D02*
X13989229Y-14888460D01*
X13989229Y-14888460D02*
X13998753Y-14878936D01*
X13998753Y-14878936D02*
X13998753Y-14897984D01*
X14084467Y-14717031D02*
X14093991Y-14707508D01*
X14093991Y-14707508D02*
X14113039Y-14697984D01*
X14113039Y-14697984D02*
X14160658Y-14697984D01*
X14160658Y-14697984D02*
X14179705Y-14707508D01*
X14179705Y-14707508D02*
X14189229Y-14717031D01*
X14189229Y-14717031D02*
X14198753Y-14736079D01*
X14198753Y-14736079D02*
X14198753Y-14755127D01*
X14198753Y-14755127D02*
X14189229Y-14783698D01*
X14189229Y-14783698D02*
X14074943Y-14897984D01*
X14074943Y-14897984D02*
X14198753Y-14897984D01*
X14322562Y-14697984D02*
X14341610Y-14697984D01*
X14341610Y-14697984D02*
X14360658Y-14707508D01*
X14360658Y-14707508D02*
X14370182Y-14717031D01*
X14370182Y-14717031D02*
X14379705Y-14736079D01*
X14379705Y-14736079D02*
X14389229Y-14774174D01*
X14389229Y-14774174D02*
X14389229Y-14821793D01*
X14389229Y-14821793D02*
X14379705Y-14859888D01*
X14379705Y-14859888D02*
X14370182Y-14878936D01*
X14370182Y-14878936D02*
X14360658Y-14888460D01*
X14360658Y-14888460D02*
X14341610Y-14897984D01*
X14341610Y-14897984D02*
X14322562Y-14897984D01*
X14322562Y-14897984D02*
X14303515Y-14888460D01*
X14303515Y-14888460D02*
X14293991Y-14878936D01*
X14293991Y-14878936D02*
X14284467Y-14859888D01*
X14284467Y-14859888D02*
X14274943Y-14821793D01*
X14274943Y-14821793D02*
X14274943Y-14774174D01*
X14274943Y-14774174D02*
X14284467Y-14736079D01*
X14284467Y-14736079D02*
X14293991Y-14717031D01*
X14293991Y-14717031D02*
X14303515Y-14707508D01*
X14303515Y-14707508D02*
X14322562Y-14697984D01*
X14513039Y-14697984D02*
X14532086Y-14697984D01*
X14532086Y-14697984D02*
X14551134Y-14707508D01*
X14551134Y-14707508D02*
X14560658Y-14717031D01*
X14560658Y-14717031D02*
X14570182Y-14736079D01*
X14570182Y-14736079D02*
X14579705Y-14774174D01*
X14579705Y-14774174D02*
X14579705Y-14821793D01*
X14579705Y-14821793D02*
X14570182Y-14859888D01*
X14570182Y-14859888D02*
X14560658Y-14878936D01*
X14560658Y-14878936D02*
X14551134Y-14888460D01*
X14551134Y-14888460D02*
X14532086Y-14897984D01*
X14532086Y-14897984D02*
X14513039Y-14897984D01*
X14513039Y-14897984D02*
X14493991Y-14888460D01*
X14493991Y-14888460D02*
X14484467Y-14878936D01*
X14484467Y-14878936D02*
X14474943Y-14859888D01*
X14474943Y-14859888D02*
X14465420Y-14821793D01*
X14465420Y-14821793D02*
X14465420Y-14774174D01*
X14465420Y-14774174D02*
X14474943Y-14736079D01*
X14474943Y-14736079D02*
X14484467Y-14717031D01*
X14484467Y-14717031D02*
X14493991Y-14707508D01*
X14493991Y-14707508D02*
X14513039Y-14697984D01*
X14665420Y-14897984D02*
X14665420Y-14764650D01*
X14665420Y-14783698D02*
X14674943Y-14774174D01*
X14674943Y-14774174D02*
X14693991Y-14764650D01*
X14693991Y-14764650D02*
X14722563Y-14764650D01*
X14722563Y-14764650D02*
X14741610Y-14774174D01*
X14741610Y-14774174D02*
X14751134Y-14793222D01*
X14751134Y-14793222D02*
X14751134Y-14897984D01*
X14751134Y-14793222D02*
X14760658Y-14774174D01*
X14760658Y-14774174D02*
X14779705Y-14764650D01*
X14779705Y-14764650D02*
X14808277Y-14764650D01*
X14808277Y-14764650D02*
X14827324Y-14774174D01*
X14827324Y-14774174D02*
X14836848Y-14793222D01*
X14836848Y-14793222D02*
X14836848Y-14897984D01*
X14932086Y-14897984D02*
X14932086Y-14764650D01*
X14932086Y-14783698D02*
X14941610Y-14774174D01*
X14941610Y-14774174D02*
X14960658Y-14764650D01*
X14960658Y-14764650D02*
X14989229Y-14764650D01*
X14989229Y-14764650D02*
X15008277Y-14774174D01*
X15008277Y-14774174D02*
X15017801Y-14793222D01*
X15017801Y-14793222D02*
X15017801Y-14897984D01*
X15017801Y-14793222D02*
X15027324Y-14774174D01*
X15027324Y-14774174D02*
X15046372Y-14764650D01*
X15046372Y-14764650D02*
X15074943Y-14764650D01*
X15074943Y-14764650D02*
X15093991Y-14774174D01*
X15093991Y-14774174D02*
X15103515Y-14793222D01*
X15103515Y-14793222D02*
X15103515Y-14897984D01*
X15493991Y-14688460D02*
X15322563Y-14945603D01*
X15751134Y-14697984D02*
X15770182Y-14697984D01*
X15770182Y-14697984D02*
X15789229Y-14707508D01*
X15789229Y-14707508D02*
X15798753Y-14717031D01*
X15798753Y-14717031D02*
X15808277Y-14736079D01*
X15808277Y-14736079D02*
X15817801Y-14774174D01*
X15817801Y-14774174D02*
X15817801Y-14821793D01*
X15817801Y-14821793D02*
X15808277Y-14859888D01*
X15808277Y-14859888D02*
X15798753Y-14878936D01*
X15798753Y-14878936D02*
X15789229Y-14888460D01*
X15789229Y-14888460D02*
X15770182Y-14897984D01*
X15770182Y-14897984D02*
X15751134Y-14897984D01*
X15751134Y-14897984D02*
X15732086Y-14888460D01*
X15732086Y-14888460D02*
X15722563Y-14878936D01*
X15722563Y-14878936D02*
X15713039Y-14859888D01*
X15713039Y-14859888D02*
X15703515Y-14821793D01*
X15703515Y-14821793D02*
X15703515Y-14774174D01*
X15703515Y-14774174D02*
X15713039Y-14736079D01*
X15713039Y-14736079D02*
X15722563Y-14717031D01*
X15722563Y-14717031D02*
X15732086Y-14707508D01*
X15732086Y-14707508D02*
X15751134Y-14697984D01*
X15903515Y-14878936D02*
X15913039Y-14888460D01*
X15913039Y-14888460D02*
X15903515Y-14897984D01*
X15903515Y-14897984D02*
X15893991Y-14888460D01*
X15893991Y-14888460D02*
X15903515Y-14878936D01*
X15903515Y-14878936D02*
X15903515Y-14897984D01*
X16036848Y-14697984D02*
X16055896Y-14697984D01*
X16055896Y-14697984D02*
X16074944Y-14707508D01*
X16074944Y-14707508D02*
X16084467Y-14717031D01*
X16084467Y-14717031D02*
X16093991Y-14736079D01*
X16093991Y-14736079D02*
X16103515Y-14774174D01*
X16103515Y-14774174D02*
X16103515Y-14821793D01*
X16103515Y-14821793D02*
X16093991Y-14859888D01*
X16093991Y-14859888D02*
X16084467Y-14878936D01*
X16084467Y-14878936D02*
X16074944Y-14888460D01*
X16074944Y-14888460D02*
X16055896Y-14897984D01*
X16055896Y-14897984D02*
X16036848Y-14897984D01*
X16036848Y-14897984D02*
X16017801Y-14888460D01*
X16017801Y-14888460D02*
X16008277Y-14878936D01*
X16008277Y-14878936D02*
X15998753Y-14859888D01*
X15998753Y-14859888D02*
X15989229Y-14821793D01*
X15989229Y-14821793D02*
X15989229Y-14774174D01*
X15989229Y-14774174D02*
X15998753Y-14736079D01*
X15998753Y-14736079D02*
X16008277Y-14717031D01*
X16008277Y-14717031D02*
X16017801Y-14707508D01*
X16017801Y-14707508D02*
X16036848Y-14697984D01*
X16227325Y-14697984D02*
X16246372Y-14697984D01*
X16246372Y-14697984D02*
X16265420Y-14707508D01*
X16265420Y-14707508D02*
X16274944Y-14717031D01*
X16274944Y-14717031D02*
X16284467Y-14736079D01*
X16284467Y-14736079D02*
X16293991Y-14774174D01*
X16293991Y-14774174D02*
X16293991Y-14821793D01*
X16293991Y-14821793D02*
X16284467Y-14859888D01*
X16284467Y-14859888D02*
X16274944Y-14878936D01*
X16274944Y-14878936D02*
X16265420Y-14888460D01*
X16265420Y-14888460D02*
X16246372Y-14897984D01*
X16246372Y-14897984D02*
X16227325Y-14897984D01*
X16227325Y-14897984D02*
X16208277Y-14888460D01*
X16208277Y-14888460D02*
X16198753Y-14878936D01*
X16198753Y-14878936D02*
X16189229Y-14859888D01*
X16189229Y-14859888D02*
X16179706Y-14821793D01*
X16179706Y-14821793D02*
X16179706Y-14774174D01*
X16179706Y-14774174D02*
X16189229Y-14736079D01*
X16189229Y-14736079D02*
X16198753Y-14717031D01*
X16198753Y-14717031D02*
X16208277Y-14707508D01*
X16208277Y-14707508D02*
X16227325Y-14697984D01*
X16360658Y-14697984D02*
X16493991Y-14697984D01*
X16493991Y-14697984D02*
X16408277Y-14897984D01*
X16579706Y-14897984D02*
X16617801Y-14897984D01*
X16617801Y-14897984D02*
X16636848Y-14888460D01*
X16636848Y-14888460D02*
X16646372Y-14878936D01*
X16646372Y-14878936D02*
X16665420Y-14850365D01*
X16665420Y-14850365D02*
X16674944Y-14812269D01*
X16674944Y-14812269D02*
X16674944Y-14736079D01*
X16674944Y-14736079D02*
X16665420Y-14717031D01*
X16665420Y-14717031D02*
X16655896Y-14707508D01*
X16655896Y-14707508D02*
X16636848Y-14697984D01*
X16636848Y-14697984D02*
X16598753Y-14697984D01*
X16598753Y-14697984D02*
X16579706Y-14707508D01*
X16579706Y-14707508D02*
X16570182Y-14717031D01*
X16570182Y-14717031D02*
X16560658Y-14736079D01*
X16560658Y-14736079D02*
X16560658Y-14783698D01*
X16560658Y-14783698D02*
X16570182Y-14802746D01*
X16570182Y-14802746D02*
X16579706Y-14812269D01*
X16579706Y-14812269D02*
X16598753Y-14821793D01*
X16598753Y-14821793D02*
X16636848Y-14821793D01*
X16636848Y-14821793D02*
X16655896Y-14812269D01*
X16655896Y-14812269D02*
X16665420Y-14802746D01*
X16665420Y-14802746D02*
X16674944Y-14783698D01*
X16751134Y-14697984D02*
X16751134Y-14736079D01*
X16827325Y-14697984D02*
X16827325Y-14736079D01*
X17122563Y-14974174D02*
X17113039Y-14964650D01*
X17113039Y-14964650D02*
X17093991Y-14936079D01*
X17093991Y-14936079D02*
X17084468Y-14917031D01*
X17084468Y-14917031D02*
X17074944Y-14888460D01*
X17074944Y-14888460D02*
X17065420Y-14840841D01*
X17065420Y-14840841D02*
X17065420Y-14802746D01*
X17065420Y-14802746D02*
X17074944Y-14755127D01*
X17074944Y-14755127D02*
X17084468Y-14726555D01*
X17084468Y-14726555D02*
X17093991Y-14707508D01*
X17093991Y-14707508D02*
X17113039Y-14678936D01*
X17113039Y-14678936D02*
X17122563Y-14669412D01*
X17189230Y-14717031D02*
X17198753Y-14707508D01*
X17198753Y-14707508D02*
X17217801Y-14697984D01*
X17217801Y-14697984D02*
X17265420Y-14697984D01*
X17265420Y-14697984D02*
X17284468Y-14707508D01*
X17284468Y-14707508D02*
X17293991Y-14717031D01*
X17293991Y-14717031D02*
X17303515Y-14736079D01*
X17303515Y-14736079D02*
X17303515Y-14755127D01*
X17303515Y-14755127D02*
X17293991Y-14783698D01*
X17293991Y-14783698D02*
X17179706Y-14897984D01*
X17179706Y-14897984D02*
X17303515Y-14897984D01*
X17484468Y-14697984D02*
X17389230Y-14697984D01*
X17389230Y-14697984D02*
X17379706Y-14793222D01*
X17379706Y-14793222D02*
X17389230Y-14783698D01*
X17389230Y-14783698D02*
X17408277Y-14774174D01*
X17408277Y-14774174D02*
X17455896Y-14774174D01*
X17455896Y-14774174D02*
X17474944Y-14783698D01*
X17474944Y-14783698D02*
X17484468Y-14793222D01*
X17484468Y-14793222D02*
X17493991Y-14812269D01*
X17493991Y-14812269D02*
X17493991Y-14859888D01*
X17493991Y-14859888D02*
X17484468Y-14878936D01*
X17484468Y-14878936D02*
X17474944Y-14888460D01*
X17474944Y-14888460D02*
X17455896Y-14897984D01*
X17455896Y-14897984D02*
X17408277Y-14897984D01*
X17408277Y-14897984D02*
X17389230Y-14888460D01*
X17389230Y-14888460D02*
X17379706Y-14878936D01*
X17732087Y-14897984D02*
X17732087Y-14697984D01*
X17817801Y-14897984D02*
X17817801Y-14793222D01*
X17817801Y-14793222D02*
X17808277Y-14774174D01*
X17808277Y-14774174D02*
X17789230Y-14764650D01*
X17789230Y-14764650D02*
X17760658Y-14764650D01*
X17760658Y-14764650D02*
X17741611Y-14774174D01*
X17741611Y-14774174D02*
X17732087Y-14783698D01*
X17941611Y-14897984D02*
X17922563Y-14888460D01*
X17922563Y-14888460D02*
X17913039Y-14878936D01*
X17913039Y-14878936D02*
X17903515Y-14859888D01*
X17903515Y-14859888D02*
X17903515Y-14802746D01*
X17903515Y-14802746D02*
X17913039Y-14783698D01*
X17913039Y-14783698D02*
X17922563Y-14774174D01*
X17922563Y-14774174D02*
X17941611Y-14764650D01*
X17941611Y-14764650D02*
X17970182Y-14764650D01*
X17970182Y-14764650D02*
X17989230Y-14774174D01*
X17989230Y-14774174D02*
X17998753Y-14783698D01*
X17998753Y-14783698D02*
X18008277Y-14802746D01*
X18008277Y-14802746D02*
X18008277Y-14859888D01*
X18008277Y-14859888D02*
X17998753Y-14878936D01*
X17998753Y-14878936D02*
X17989230Y-14888460D01*
X17989230Y-14888460D02*
X17970182Y-14897984D01*
X17970182Y-14897984D02*
X17941611Y-14897984D01*
X18122563Y-14897984D02*
X18103515Y-14888460D01*
X18103515Y-14888460D02*
X18093992Y-14869412D01*
X18093992Y-14869412D02*
X18093992Y-14697984D01*
X18274944Y-14888460D02*
X18255896Y-14897984D01*
X18255896Y-14897984D02*
X18217801Y-14897984D01*
X18217801Y-14897984D02*
X18198753Y-14888460D01*
X18198753Y-14888460D02*
X18189230Y-14869412D01*
X18189230Y-14869412D02*
X18189230Y-14793222D01*
X18189230Y-14793222D02*
X18198753Y-14774174D01*
X18198753Y-14774174D02*
X18217801Y-14764650D01*
X18217801Y-14764650D02*
X18255896Y-14764650D01*
X18255896Y-14764650D02*
X18274944Y-14774174D01*
X18274944Y-14774174D02*
X18284468Y-14793222D01*
X18284468Y-14793222D02*
X18284468Y-14812269D01*
X18284468Y-14812269D02*
X18189230Y-14831317D01*
X18360658Y-14888460D02*
X18379706Y-14897984D01*
X18379706Y-14897984D02*
X18417801Y-14897984D01*
X18417801Y-14897984D02*
X18436849Y-14888460D01*
X18436849Y-14888460D02*
X18446373Y-14869412D01*
X18446373Y-14869412D02*
X18446373Y-14859888D01*
X18446373Y-14859888D02*
X18436849Y-14840841D01*
X18436849Y-14840841D02*
X18417801Y-14831317D01*
X18417801Y-14831317D02*
X18389230Y-14831317D01*
X18389230Y-14831317D02*
X18370182Y-14821793D01*
X18370182Y-14821793D02*
X18360658Y-14802746D01*
X18360658Y-14802746D02*
X18360658Y-14793222D01*
X18360658Y-14793222D02*
X18370182Y-14774174D01*
X18370182Y-14774174D02*
X18389230Y-14764650D01*
X18389230Y-14764650D02*
X18417801Y-14764650D01*
X18417801Y-14764650D02*
X18436849Y-14774174D01*
X18513039Y-14974174D02*
X18522563Y-14964650D01*
X18522563Y-14964650D02*
X18541611Y-14936079D01*
X18541611Y-14936079D02*
X18551134Y-14917031D01*
X18551134Y-14917031D02*
X18560658Y-14888460D01*
X18560658Y-14888460D02*
X18570182Y-14840841D01*
X18570182Y-14840841D02*
X18570182Y-14802746D01*
X18570182Y-14802746D02*
X18560658Y-14755127D01*
X18560658Y-14755127D02*
X18551134Y-14726555D01*
X18551134Y-14726555D02*
X18541611Y-14707508D01*
X18541611Y-14707508D02*
X18522563Y-14678936D01*
X18522563Y-14678936D02*
X18513039Y-14669412D01*
D12*
X13532500Y-15055500D02*
X13532500Y-15085500D01*
X13517500Y-15070500D02*
X13547500Y-15070500D01*
D11*
X13846372Y-14961984D02*
X13865420Y-14961984D01*
X13865420Y-14961984D02*
X13884467Y-14971508D01*
X13884467Y-14971508D02*
X13893991Y-14981031D01*
X13893991Y-14981031D02*
X13903515Y-15000079D01*
X13903515Y-15000079D02*
X13913039Y-15038174D01*
X13913039Y-15038174D02*
X13913039Y-15085793D01*
X13913039Y-15085793D02*
X13903515Y-15123888D01*
X13903515Y-15123888D02*
X13893991Y-15142936D01*
X13893991Y-15142936D02*
X13884467Y-15152460D01*
X13884467Y-15152460D02*
X13865420Y-15161984D01*
X13865420Y-15161984D02*
X13846372Y-15161984D01*
X13846372Y-15161984D02*
X13827324Y-15152460D01*
X13827324Y-15152460D02*
X13817801Y-15142936D01*
X13817801Y-15142936D02*
X13808277Y-15123888D01*
X13808277Y-15123888D02*
X13798753Y-15085793D01*
X13798753Y-15085793D02*
X13798753Y-15038174D01*
X13798753Y-15038174D02*
X13808277Y-15000079D01*
X13808277Y-15000079D02*
X13817801Y-14981031D01*
X13817801Y-14981031D02*
X13827324Y-14971508D01*
X13827324Y-14971508D02*
X13846372Y-14961984D01*
X13998753Y-15142936D02*
X14008277Y-15152460D01*
X14008277Y-15152460D02*
X13998753Y-15161984D01*
X13998753Y-15161984D02*
X13989229Y-15152460D01*
X13989229Y-15152460D02*
X13998753Y-15142936D01*
X13998753Y-15142936D02*
X13998753Y-15161984D01*
X14074943Y-14961984D02*
X14198753Y-14961984D01*
X14198753Y-14961984D02*
X14132086Y-15038174D01*
X14132086Y-15038174D02*
X14160658Y-15038174D01*
X14160658Y-15038174D02*
X14179705Y-15047698D01*
X14179705Y-15047698D02*
X14189229Y-15057222D01*
X14189229Y-15057222D02*
X14198753Y-15076269D01*
X14198753Y-15076269D02*
X14198753Y-15123888D01*
X14198753Y-15123888D02*
X14189229Y-15142936D01*
X14189229Y-15142936D02*
X14179705Y-15152460D01*
X14179705Y-15152460D02*
X14160658Y-15161984D01*
X14160658Y-15161984D02*
X14103515Y-15161984D01*
X14103515Y-15161984D02*
X14084467Y-15152460D01*
X14084467Y-15152460D02*
X14074943Y-15142936D01*
X14322562Y-14961984D02*
X14341610Y-14961984D01*
X14341610Y-14961984D02*
X14360658Y-14971508D01*
X14360658Y-14971508D02*
X14370182Y-14981031D01*
X14370182Y-14981031D02*
X14379705Y-15000079D01*
X14379705Y-15000079D02*
X14389229Y-15038174D01*
X14389229Y-15038174D02*
X14389229Y-15085793D01*
X14389229Y-15085793D02*
X14379705Y-15123888D01*
X14379705Y-15123888D02*
X14370182Y-15142936D01*
X14370182Y-15142936D02*
X14360658Y-15152460D01*
X14360658Y-15152460D02*
X14341610Y-15161984D01*
X14341610Y-15161984D02*
X14322562Y-15161984D01*
X14322562Y-15161984D02*
X14303515Y-15152460D01*
X14303515Y-15152460D02*
X14293991Y-15142936D01*
X14293991Y-15142936D02*
X14284467Y-15123888D01*
X14284467Y-15123888D02*
X14274943Y-15085793D01*
X14274943Y-15085793D02*
X14274943Y-15038174D01*
X14274943Y-15038174D02*
X14284467Y-15000079D01*
X14284467Y-15000079D02*
X14293991Y-14981031D01*
X14293991Y-14981031D02*
X14303515Y-14971508D01*
X14303515Y-14971508D02*
X14322562Y-14961984D01*
X14513039Y-14961984D02*
X14532086Y-14961984D01*
X14532086Y-14961984D02*
X14551134Y-14971508D01*
X14551134Y-14971508D02*
X14560658Y-14981031D01*
X14560658Y-14981031D02*
X14570182Y-15000079D01*
X14570182Y-15000079D02*
X14579705Y-15038174D01*
X14579705Y-15038174D02*
X14579705Y-15085793D01*
X14579705Y-15085793D02*
X14570182Y-15123888D01*
X14570182Y-15123888D02*
X14560658Y-15142936D01*
X14560658Y-15142936D02*
X14551134Y-15152460D01*
X14551134Y-15152460D02*
X14532086Y-15161984D01*
X14532086Y-15161984D02*
X14513039Y-15161984D01*
X14513039Y-15161984D02*
X14493991Y-15152460D01*
X14493991Y-15152460D02*
X14484467Y-15142936D01*
X14484467Y-15142936D02*
X14474943Y-15123888D01*
X14474943Y-15123888D02*
X14465420Y-15085793D01*
X14465420Y-15085793D02*
X14465420Y-15038174D01*
X14465420Y-15038174D02*
X14474943Y-15000079D01*
X14474943Y-15000079D02*
X14484467Y-14981031D01*
X14484467Y-14981031D02*
X14493991Y-14971508D01*
X14493991Y-14971508D02*
X14513039Y-14961984D01*
X14665420Y-15161984D02*
X14665420Y-15028650D01*
X14665420Y-15047698D02*
X14674943Y-15038174D01*
X14674943Y-15038174D02*
X14693991Y-15028650D01*
X14693991Y-15028650D02*
X14722563Y-15028650D01*
X14722563Y-15028650D02*
X14741610Y-15038174D01*
X14741610Y-15038174D02*
X14751134Y-15057222D01*
X14751134Y-15057222D02*
X14751134Y-15161984D01*
X14751134Y-15057222D02*
X14760658Y-15038174D01*
X14760658Y-15038174D02*
X14779705Y-15028650D01*
X14779705Y-15028650D02*
X14808277Y-15028650D01*
X14808277Y-15028650D02*
X14827324Y-15038174D01*
X14827324Y-15038174D02*
X14836848Y-15057222D01*
X14836848Y-15057222D02*
X14836848Y-15161984D01*
X14932086Y-15161984D02*
X14932086Y-15028650D01*
X14932086Y-15047698D02*
X14941610Y-15038174D01*
X14941610Y-15038174D02*
X14960658Y-15028650D01*
X14960658Y-15028650D02*
X14989229Y-15028650D01*
X14989229Y-15028650D02*
X15008277Y-15038174D01*
X15008277Y-15038174D02*
X15017801Y-15057222D01*
X15017801Y-15057222D02*
X15017801Y-15161984D01*
X15017801Y-15057222D02*
X15027324Y-15038174D01*
X15027324Y-15038174D02*
X15046372Y-15028650D01*
X15046372Y-15028650D02*
X15074943Y-15028650D01*
X15074943Y-15028650D02*
X15093991Y-15038174D01*
X15093991Y-15038174D02*
X15103515Y-15057222D01*
X15103515Y-15057222D02*
X15103515Y-15161984D01*
X15493991Y-14952460D02*
X15322563Y-15209603D01*
X15751134Y-14961984D02*
X15770182Y-14961984D01*
X15770182Y-14961984D02*
X15789229Y-14971508D01*
X15789229Y-14971508D02*
X15798753Y-14981031D01*
X15798753Y-14981031D02*
X15808277Y-15000079D01*
X15808277Y-15000079D02*
X15817801Y-15038174D01*
X15817801Y-15038174D02*
X15817801Y-15085793D01*
X15817801Y-15085793D02*
X15808277Y-15123888D01*
X15808277Y-15123888D02*
X15798753Y-15142936D01*
X15798753Y-15142936D02*
X15789229Y-15152460D01*
X15789229Y-15152460D02*
X15770182Y-15161984D01*
X15770182Y-15161984D02*
X15751134Y-15161984D01*
X15751134Y-15161984D02*
X15732086Y-15152460D01*
X15732086Y-15152460D02*
X15722563Y-15142936D01*
X15722563Y-15142936D02*
X15713039Y-15123888D01*
X15713039Y-15123888D02*
X15703515Y-15085793D01*
X15703515Y-15085793D02*
X15703515Y-15038174D01*
X15703515Y-15038174D02*
X15713039Y-15000079D01*
X15713039Y-15000079D02*
X15722563Y-14981031D01*
X15722563Y-14981031D02*
X15732086Y-14971508D01*
X15732086Y-14971508D02*
X15751134Y-14961984D01*
X15903515Y-15142936D02*
X15913039Y-15152460D01*
X15913039Y-15152460D02*
X15903515Y-15161984D01*
X15903515Y-15161984D02*
X15893991Y-15152460D01*
X15893991Y-15152460D02*
X15903515Y-15142936D01*
X15903515Y-15142936D02*
X15903515Y-15161984D01*
X16036848Y-14961984D02*
X16055896Y-14961984D01*
X16055896Y-14961984D02*
X16074944Y-14971508D01*
X16074944Y-14971508D02*
X16084467Y-14981031D01*
X16084467Y-14981031D02*
X16093991Y-15000079D01*
X16093991Y-15000079D02*
X16103515Y-15038174D01*
X16103515Y-15038174D02*
X16103515Y-15085793D01*
X16103515Y-15085793D02*
X16093991Y-15123888D01*
X16093991Y-15123888D02*
X16084467Y-15142936D01*
X16084467Y-15142936D02*
X16074944Y-15152460D01*
X16074944Y-15152460D02*
X16055896Y-15161984D01*
X16055896Y-15161984D02*
X16036848Y-15161984D01*
X16036848Y-15161984D02*
X16017801Y-15152460D01*
X16017801Y-15152460D02*
X16008277Y-15142936D01*
X16008277Y-15142936D02*
X15998753Y-15123888D01*
X15998753Y-15123888D02*
X15989229Y-15085793D01*
X15989229Y-15085793D02*
X15989229Y-15038174D01*
X15989229Y-15038174D02*
X15998753Y-15000079D01*
X15998753Y-15000079D02*
X16008277Y-14981031D01*
X16008277Y-14981031D02*
X16017801Y-14971508D01*
X16017801Y-14971508D02*
X16036848Y-14961984D01*
X16293991Y-15161984D02*
X16179706Y-15161984D01*
X16236848Y-15161984D02*
X16236848Y-14961984D01*
X16236848Y-14961984D02*
X16217801Y-14990555D01*
X16217801Y-14990555D02*
X16198753Y-15009603D01*
X16198753Y-15009603D02*
X16179706Y-15019127D01*
X16484467Y-15161984D02*
X16370182Y-15161984D01*
X16427325Y-15161984D02*
X16427325Y-14961984D01*
X16427325Y-14961984D02*
X16408277Y-14990555D01*
X16408277Y-14990555D02*
X16389229Y-15009603D01*
X16389229Y-15009603D02*
X16370182Y-15019127D01*
X16598753Y-15047698D02*
X16579706Y-15038174D01*
X16579706Y-15038174D02*
X16570182Y-15028650D01*
X16570182Y-15028650D02*
X16560658Y-15009603D01*
X16560658Y-15009603D02*
X16560658Y-15000079D01*
X16560658Y-15000079D02*
X16570182Y-14981031D01*
X16570182Y-14981031D02*
X16579706Y-14971508D01*
X16579706Y-14971508D02*
X16598753Y-14961984D01*
X16598753Y-14961984D02*
X16636848Y-14961984D01*
X16636848Y-14961984D02*
X16655896Y-14971508D01*
X16655896Y-14971508D02*
X16665420Y-14981031D01*
X16665420Y-14981031D02*
X16674944Y-15000079D01*
X16674944Y-15000079D02*
X16674944Y-15009603D01*
X16674944Y-15009603D02*
X16665420Y-15028650D01*
X16665420Y-15028650D02*
X16655896Y-15038174D01*
X16655896Y-15038174D02*
X16636848Y-15047698D01*
X16636848Y-15047698D02*
X16598753Y-15047698D01*
X16598753Y-15047698D02*
X16579706Y-15057222D01*
X16579706Y-15057222D02*
X16570182Y-15066746D01*
X16570182Y-15066746D02*
X16560658Y-15085793D01*
X16560658Y-15085793D02*
X16560658Y-15123888D01*
X16560658Y-15123888D02*
X16570182Y-15142936D01*
X16570182Y-15142936D02*
X16579706Y-15152460D01*
X16579706Y-15152460D02*
X16598753Y-15161984D01*
X16598753Y-15161984D02*
X16636848Y-15161984D01*
X16636848Y-15161984D02*
X16655896Y-15152460D01*
X16655896Y-15152460D02*
X16665420Y-15142936D01*
X16665420Y-15142936D02*
X16674944Y-15123888D01*
X16674944Y-15123888D02*
X16674944Y-15085793D01*
X16674944Y-15085793D02*
X16665420Y-15066746D01*
X16665420Y-15066746D02*
X16655896Y-15057222D01*
X16655896Y-15057222D02*
X16636848Y-15047698D01*
X16751134Y-14961984D02*
X16751134Y-15000079D01*
X16827325Y-14961984D02*
X16827325Y-15000079D01*
X17122563Y-15238174D02*
X17113039Y-15228650D01*
X17113039Y-15228650D02*
X17093991Y-15200079D01*
X17093991Y-15200079D02*
X17084468Y-15181031D01*
X17084468Y-15181031D02*
X17074944Y-15152460D01*
X17074944Y-15152460D02*
X17065420Y-15104841D01*
X17065420Y-15104841D02*
X17065420Y-15066746D01*
X17065420Y-15066746D02*
X17074944Y-15019127D01*
X17074944Y-15019127D02*
X17084468Y-14990555D01*
X17084468Y-14990555D02*
X17093991Y-14971508D01*
X17093991Y-14971508D02*
X17113039Y-14942936D01*
X17113039Y-14942936D02*
X17122563Y-14933412D01*
X17293991Y-14961984D02*
X17198753Y-14961984D01*
X17198753Y-14961984D02*
X17189230Y-15057222D01*
X17189230Y-15057222D02*
X17198753Y-15047698D01*
X17198753Y-15047698D02*
X17217801Y-15038174D01*
X17217801Y-15038174D02*
X17265420Y-15038174D01*
X17265420Y-15038174D02*
X17284468Y-15047698D01*
X17284468Y-15047698D02*
X17293991Y-15057222D01*
X17293991Y-15057222D02*
X17303515Y-15076269D01*
X17303515Y-15076269D02*
X17303515Y-15123888D01*
X17303515Y-15123888D02*
X17293991Y-15142936D01*
X17293991Y-15142936D02*
X17284468Y-15152460D01*
X17284468Y-15152460D02*
X17265420Y-15161984D01*
X17265420Y-15161984D02*
X17217801Y-15161984D01*
X17217801Y-15161984D02*
X17198753Y-15152460D01*
X17198753Y-15152460D02*
X17189230Y-15142936D01*
X17474944Y-15028650D02*
X17474944Y-15161984D01*
X17427325Y-14952460D02*
X17379706Y-15095317D01*
X17379706Y-15095317D02*
X17503515Y-15095317D01*
X17560658Y-14961984D02*
X17684468Y-14961984D01*
X17684468Y-14961984D02*
X17617801Y-15038174D01*
X17617801Y-15038174D02*
X17646372Y-15038174D01*
X17646372Y-15038174D02*
X17665420Y-15047698D01*
X17665420Y-15047698D02*
X17674944Y-15057222D01*
X17674944Y-15057222D02*
X17684468Y-15076269D01*
X17684468Y-15076269D02*
X17684468Y-15123888D01*
X17684468Y-15123888D02*
X17674944Y-15142936D01*
X17674944Y-15142936D02*
X17665420Y-15152460D01*
X17665420Y-15152460D02*
X17646372Y-15161984D01*
X17646372Y-15161984D02*
X17589230Y-15161984D01*
X17589230Y-15161984D02*
X17570182Y-15152460D01*
X17570182Y-15152460D02*
X17560658Y-15142936D01*
X17922563Y-15161984D02*
X17922563Y-14961984D01*
X18008277Y-15161984D02*
X18008277Y-15057222D01*
X18008277Y-15057222D02*
X17998753Y-15038174D01*
X17998753Y-15038174D02*
X17979706Y-15028650D01*
X17979706Y-15028650D02*
X17951134Y-15028650D01*
X17951134Y-15028650D02*
X17932087Y-15038174D01*
X17932087Y-15038174D02*
X17922563Y-15047698D01*
X18132087Y-15161984D02*
X18113039Y-15152460D01*
X18113039Y-15152460D02*
X18103515Y-15142936D01*
X18103515Y-15142936D02*
X18093992Y-15123888D01*
X18093992Y-15123888D02*
X18093992Y-15066746D01*
X18093992Y-15066746D02*
X18103515Y-15047698D01*
X18103515Y-15047698D02*
X18113039Y-15038174D01*
X18113039Y-15038174D02*
X18132087Y-15028650D01*
X18132087Y-15028650D02*
X18160658Y-15028650D01*
X18160658Y-15028650D02*
X18179706Y-15038174D01*
X18179706Y-15038174D02*
X18189230Y-15047698D01*
X18189230Y-15047698D02*
X18198753Y-15066746D01*
X18198753Y-15066746D02*
X18198753Y-15123888D01*
X18198753Y-15123888D02*
X18189230Y-15142936D01*
X18189230Y-15142936D02*
X18179706Y-15152460D01*
X18179706Y-15152460D02*
X18160658Y-15161984D01*
X18160658Y-15161984D02*
X18132087Y-15161984D01*
X18313039Y-15161984D02*
X18293992Y-15152460D01*
X18293992Y-15152460D02*
X18284468Y-15133412D01*
X18284468Y-15133412D02*
X18284468Y-14961984D01*
X18465420Y-15152460D02*
X18446373Y-15161984D01*
X18446373Y-15161984D02*
X18408277Y-15161984D01*
X18408277Y-15161984D02*
X18389230Y-15152460D01*
X18389230Y-15152460D02*
X18379706Y-15133412D01*
X18379706Y-15133412D02*
X18379706Y-15057222D01*
X18379706Y-15057222D02*
X18389230Y-15038174D01*
X18389230Y-15038174D02*
X18408277Y-15028650D01*
X18408277Y-15028650D02*
X18446373Y-15028650D01*
X18446373Y-15028650D02*
X18465420Y-15038174D01*
X18465420Y-15038174D02*
X18474944Y-15057222D01*
X18474944Y-15057222D02*
X18474944Y-15076269D01*
X18474944Y-15076269D02*
X18379706Y-15095317D01*
X18551134Y-15152460D02*
X18570182Y-15161984D01*
X18570182Y-15161984D02*
X18608277Y-15161984D01*
X18608277Y-15161984D02*
X18627325Y-15152460D01*
X18627325Y-15152460D02*
X18636849Y-15133412D01*
X18636849Y-15133412D02*
X18636849Y-15123888D01*
X18636849Y-15123888D02*
X18627325Y-15104841D01*
X18627325Y-15104841D02*
X18608277Y-15095317D01*
X18608277Y-15095317D02*
X18579706Y-15095317D01*
X18579706Y-15095317D02*
X18560658Y-15085793D01*
X18560658Y-15085793D02*
X18551134Y-15066746D01*
X18551134Y-15066746D02*
X18551134Y-15057222D01*
X18551134Y-15057222D02*
X18560658Y-15038174D01*
X18560658Y-15038174D02*
X18579706Y-15028650D01*
X18579706Y-15028650D02*
X18608277Y-15028650D01*
X18608277Y-15028650D02*
X18627325Y-15038174D01*
X18703515Y-15238174D02*
X18713039Y-15228650D01*
X18713039Y-15228650D02*
X18732087Y-15200079D01*
X18732087Y-15200079D02*
X18741611Y-15181031D01*
X18741611Y-15181031D02*
X18751134Y-15152460D01*
X18751134Y-15152460D02*
X18760658Y-15104841D01*
X18760658Y-15104841D02*
X18760658Y-15066746D01*
X18760658Y-15066746D02*
X18751134Y-15019127D01*
X18751134Y-15019127D02*
X18741611Y-14990555D01*
X18741611Y-14990555D02*
X18732087Y-14971508D01*
X18732087Y-14971508D02*
X18713039Y-14942936D01*
X18713039Y-14942936D02*
X18703515Y-14933412D01*
D12*
X13543107Y-15345107D02*
X13543107Y-15323893D01*
X13521893Y-15323893D01*
X13521893Y-15345107D01*
X13543107Y-15345107D01*
D11*
X13846372Y-15225984D02*
X13865420Y-15225984D01*
X13865420Y-15225984D02*
X13884467Y-15235508D01*
X13884467Y-15235508D02*
X13893991Y-15245031D01*
X13893991Y-15245031D02*
X13903515Y-15264079D01*
X13903515Y-15264079D02*
X13913039Y-15302174D01*
X13913039Y-15302174D02*
X13913039Y-15349793D01*
X13913039Y-15349793D02*
X13903515Y-15387888D01*
X13903515Y-15387888D02*
X13893991Y-15406936D01*
X13893991Y-15406936D02*
X13884467Y-15416460D01*
X13884467Y-15416460D02*
X13865420Y-15425984D01*
X13865420Y-15425984D02*
X13846372Y-15425984D01*
X13846372Y-15425984D02*
X13827324Y-15416460D01*
X13827324Y-15416460D02*
X13817801Y-15406936D01*
X13817801Y-15406936D02*
X13808277Y-15387888D01*
X13808277Y-15387888D02*
X13798753Y-15349793D01*
X13798753Y-15349793D02*
X13798753Y-15302174D01*
X13798753Y-15302174D02*
X13808277Y-15264079D01*
X13808277Y-15264079D02*
X13817801Y-15245031D01*
X13817801Y-15245031D02*
X13827324Y-15235508D01*
X13827324Y-15235508D02*
X13846372Y-15225984D01*
X13998753Y-15406936D02*
X14008277Y-15416460D01*
X14008277Y-15416460D02*
X13998753Y-15425984D01*
X13998753Y-15425984D02*
X13989229Y-15416460D01*
X13989229Y-15416460D02*
X13998753Y-15406936D01*
X13998753Y-15406936D02*
X13998753Y-15425984D01*
X14074943Y-15225984D02*
X14198753Y-15225984D01*
X14198753Y-15225984D02*
X14132086Y-15302174D01*
X14132086Y-15302174D02*
X14160658Y-15302174D01*
X14160658Y-15302174D02*
X14179705Y-15311698D01*
X14179705Y-15311698D02*
X14189229Y-15321222D01*
X14189229Y-15321222D02*
X14198753Y-15340269D01*
X14198753Y-15340269D02*
X14198753Y-15387888D01*
X14198753Y-15387888D02*
X14189229Y-15406936D01*
X14189229Y-15406936D02*
X14179705Y-15416460D01*
X14179705Y-15416460D02*
X14160658Y-15425984D01*
X14160658Y-15425984D02*
X14103515Y-15425984D01*
X14103515Y-15425984D02*
X14084467Y-15416460D01*
X14084467Y-15416460D02*
X14074943Y-15406936D01*
X14322562Y-15225984D02*
X14341610Y-15225984D01*
X14341610Y-15225984D02*
X14360658Y-15235508D01*
X14360658Y-15235508D02*
X14370182Y-15245031D01*
X14370182Y-15245031D02*
X14379705Y-15264079D01*
X14379705Y-15264079D02*
X14389229Y-15302174D01*
X14389229Y-15302174D02*
X14389229Y-15349793D01*
X14389229Y-15349793D02*
X14379705Y-15387888D01*
X14379705Y-15387888D02*
X14370182Y-15406936D01*
X14370182Y-15406936D02*
X14360658Y-15416460D01*
X14360658Y-15416460D02*
X14341610Y-15425984D01*
X14341610Y-15425984D02*
X14322562Y-15425984D01*
X14322562Y-15425984D02*
X14303515Y-15416460D01*
X14303515Y-15416460D02*
X14293991Y-15406936D01*
X14293991Y-15406936D02*
X14284467Y-15387888D01*
X14284467Y-15387888D02*
X14274943Y-15349793D01*
X14274943Y-15349793D02*
X14274943Y-15302174D01*
X14274943Y-15302174D02*
X14284467Y-15264079D01*
X14284467Y-15264079D02*
X14293991Y-15245031D01*
X14293991Y-15245031D02*
X14303515Y-15235508D01*
X14303515Y-15235508D02*
X14322562Y-15225984D01*
X14513039Y-15225984D02*
X14532086Y-15225984D01*
X14532086Y-15225984D02*
X14551134Y-15235508D01*
X14551134Y-15235508D02*
X14560658Y-15245031D01*
X14560658Y-15245031D02*
X14570182Y-15264079D01*
X14570182Y-15264079D02*
X14579705Y-15302174D01*
X14579705Y-15302174D02*
X14579705Y-15349793D01*
X14579705Y-15349793D02*
X14570182Y-15387888D01*
X14570182Y-15387888D02*
X14560658Y-15406936D01*
X14560658Y-15406936D02*
X14551134Y-15416460D01*
X14551134Y-15416460D02*
X14532086Y-15425984D01*
X14532086Y-15425984D02*
X14513039Y-15425984D01*
X14513039Y-15425984D02*
X14493991Y-15416460D01*
X14493991Y-15416460D02*
X14484467Y-15406936D01*
X14484467Y-15406936D02*
X14474943Y-15387888D01*
X14474943Y-15387888D02*
X14465420Y-15349793D01*
X14465420Y-15349793D02*
X14465420Y-15302174D01*
X14465420Y-15302174D02*
X14474943Y-15264079D01*
X14474943Y-15264079D02*
X14484467Y-15245031D01*
X14484467Y-15245031D02*
X14493991Y-15235508D01*
X14493991Y-15235508D02*
X14513039Y-15225984D01*
X14665420Y-15425984D02*
X14665420Y-15292650D01*
X14665420Y-15311698D02*
X14674943Y-15302174D01*
X14674943Y-15302174D02*
X14693991Y-15292650D01*
X14693991Y-15292650D02*
X14722563Y-15292650D01*
X14722563Y-15292650D02*
X14741610Y-15302174D01*
X14741610Y-15302174D02*
X14751134Y-15321222D01*
X14751134Y-15321222D02*
X14751134Y-15425984D01*
X14751134Y-15321222D02*
X14760658Y-15302174D01*
X14760658Y-15302174D02*
X14779705Y-15292650D01*
X14779705Y-15292650D02*
X14808277Y-15292650D01*
X14808277Y-15292650D02*
X14827324Y-15302174D01*
X14827324Y-15302174D02*
X14836848Y-15321222D01*
X14836848Y-15321222D02*
X14836848Y-15425984D01*
X14932086Y-15425984D02*
X14932086Y-15292650D01*
X14932086Y-15311698D02*
X14941610Y-15302174D01*
X14941610Y-15302174D02*
X14960658Y-15292650D01*
X14960658Y-15292650D02*
X14989229Y-15292650D01*
X14989229Y-15292650D02*
X15008277Y-15302174D01*
X15008277Y-15302174D02*
X15017801Y-15321222D01*
X15017801Y-15321222D02*
X15017801Y-15425984D01*
X15017801Y-15321222D02*
X15027324Y-15302174D01*
X15027324Y-15302174D02*
X15046372Y-15292650D01*
X15046372Y-15292650D02*
X15074943Y-15292650D01*
X15074943Y-15292650D02*
X15093991Y-15302174D01*
X15093991Y-15302174D02*
X15103515Y-15321222D01*
X15103515Y-15321222D02*
X15103515Y-15425984D01*
X15493991Y-15216460D02*
X15322563Y-15473603D01*
X15751134Y-15225984D02*
X15770182Y-15225984D01*
X15770182Y-15225984D02*
X15789229Y-15235508D01*
X15789229Y-15235508D02*
X15798753Y-15245031D01*
X15798753Y-15245031D02*
X15808277Y-15264079D01*
X15808277Y-15264079D02*
X15817801Y-15302174D01*
X15817801Y-15302174D02*
X15817801Y-15349793D01*
X15817801Y-15349793D02*
X15808277Y-15387888D01*
X15808277Y-15387888D02*
X15798753Y-15406936D01*
X15798753Y-15406936D02*
X15789229Y-15416460D01*
X15789229Y-15416460D02*
X15770182Y-15425984D01*
X15770182Y-15425984D02*
X15751134Y-15425984D01*
X15751134Y-15425984D02*
X15732086Y-15416460D01*
X15732086Y-15416460D02*
X15722563Y-15406936D01*
X15722563Y-15406936D02*
X15713039Y-15387888D01*
X15713039Y-15387888D02*
X15703515Y-15349793D01*
X15703515Y-15349793D02*
X15703515Y-15302174D01*
X15703515Y-15302174D02*
X15713039Y-15264079D01*
X15713039Y-15264079D02*
X15722563Y-15245031D01*
X15722563Y-15245031D02*
X15732086Y-15235508D01*
X15732086Y-15235508D02*
X15751134Y-15225984D01*
X15903515Y-15406936D02*
X15913039Y-15416460D01*
X15913039Y-15416460D02*
X15903515Y-15425984D01*
X15903515Y-15425984D02*
X15893991Y-15416460D01*
X15893991Y-15416460D02*
X15903515Y-15406936D01*
X15903515Y-15406936D02*
X15903515Y-15425984D01*
X16036848Y-15225984D02*
X16055896Y-15225984D01*
X16055896Y-15225984D02*
X16074944Y-15235508D01*
X16074944Y-15235508D02*
X16084467Y-15245031D01*
X16084467Y-15245031D02*
X16093991Y-15264079D01*
X16093991Y-15264079D02*
X16103515Y-15302174D01*
X16103515Y-15302174D02*
X16103515Y-15349793D01*
X16103515Y-15349793D02*
X16093991Y-15387888D01*
X16093991Y-15387888D02*
X16084467Y-15406936D01*
X16084467Y-15406936D02*
X16074944Y-15416460D01*
X16074944Y-15416460D02*
X16055896Y-15425984D01*
X16055896Y-15425984D02*
X16036848Y-15425984D01*
X16036848Y-15425984D02*
X16017801Y-15416460D01*
X16017801Y-15416460D02*
X16008277Y-15406936D01*
X16008277Y-15406936D02*
X15998753Y-15387888D01*
X15998753Y-15387888D02*
X15989229Y-15349793D01*
X15989229Y-15349793D02*
X15989229Y-15302174D01*
X15989229Y-15302174D02*
X15998753Y-15264079D01*
X15998753Y-15264079D02*
X16008277Y-15245031D01*
X16008277Y-15245031D02*
X16017801Y-15235508D01*
X16017801Y-15235508D02*
X16036848Y-15225984D01*
X16293991Y-15425984D02*
X16179706Y-15425984D01*
X16236848Y-15425984D02*
X16236848Y-15225984D01*
X16236848Y-15225984D02*
X16217801Y-15254555D01*
X16217801Y-15254555D02*
X16198753Y-15273603D01*
X16198753Y-15273603D02*
X16179706Y-15283127D01*
X16484467Y-15425984D02*
X16370182Y-15425984D01*
X16427325Y-15425984D02*
X16427325Y-15225984D01*
X16427325Y-15225984D02*
X16408277Y-15254555D01*
X16408277Y-15254555D02*
X16389229Y-15273603D01*
X16389229Y-15273603D02*
X16370182Y-15283127D01*
X16598753Y-15311698D02*
X16579706Y-15302174D01*
X16579706Y-15302174D02*
X16570182Y-15292650D01*
X16570182Y-15292650D02*
X16560658Y-15273603D01*
X16560658Y-15273603D02*
X16560658Y-15264079D01*
X16560658Y-15264079D02*
X16570182Y-15245031D01*
X16570182Y-15245031D02*
X16579706Y-15235508D01*
X16579706Y-15235508D02*
X16598753Y-15225984D01*
X16598753Y-15225984D02*
X16636848Y-15225984D01*
X16636848Y-15225984D02*
X16655896Y-15235508D01*
X16655896Y-15235508D02*
X16665420Y-15245031D01*
X16665420Y-15245031D02*
X16674944Y-15264079D01*
X16674944Y-15264079D02*
X16674944Y-15273603D01*
X16674944Y-15273603D02*
X16665420Y-15292650D01*
X16665420Y-15292650D02*
X16655896Y-15302174D01*
X16655896Y-15302174D02*
X16636848Y-15311698D01*
X16636848Y-15311698D02*
X16598753Y-15311698D01*
X16598753Y-15311698D02*
X16579706Y-15321222D01*
X16579706Y-15321222D02*
X16570182Y-15330746D01*
X16570182Y-15330746D02*
X16560658Y-15349793D01*
X16560658Y-15349793D02*
X16560658Y-15387888D01*
X16560658Y-15387888D02*
X16570182Y-15406936D01*
X16570182Y-15406936D02*
X16579706Y-15416460D01*
X16579706Y-15416460D02*
X16598753Y-15425984D01*
X16598753Y-15425984D02*
X16636848Y-15425984D01*
X16636848Y-15425984D02*
X16655896Y-15416460D01*
X16655896Y-15416460D02*
X16665420Y-15406936D01*
X16665420Y-15406936D02*
X16674944Y-15387888D01*
X16674944Y-15387888D02*
X16674944Y-15349793D01*
X16674944Y-15349793D02*
X16665420Y-15330746D01*
X16665420Y-15330746D02*
X16655896Y-15321222D01*
X16655896Y-15321222D02*
X16636848Y-15311698D01*
X16751134Y-15225984D02*
X16751134Y-15264079D01*
X16827325Y-15225984D02*
X16827325Y-15264079D01*
X17122563Y-15502174D02*
X17113039Y-15492650D01*
X17113039Y-15492650D02*
X17093991Y-15464079D01*
X17093991Y-15464079D02*
X17084468Y-15445031D01*
X17084468Y-15445031D02*
X17074944Y-15416460D01*
X17074944Y-15416460D02*
X17065420Y-15368841D01*
X17065420Y-15368841D02*
X17065420Y-15330746D01*
X17065420Y-15330746D02*
X17074944Y-15283127D01*
X17074944Y-15283127D02*
X17084468Y-15254555D01*
X17084468Y-15254555D02*
X17093991Y-15235508D01*
X17093991Y-15235508D02*
X17113039Y-15206936D01*
X17113039Y-15206936D02*
X17122563Y-15197412D01*
X17303515Y-15425984D02*
X17189230Y-15425984D01*
X17246372Y-15425984D02*
X17246372Y-15225984D01*
X17246372Y-15225984D02*
X17227325Y-15254555D01*
X17227325Y-15254555D02*
X17208277Y-15273603D01*
X17208277Y-15273603D02*
X17189230Y-15283127D01*
X17493991Y-15425984D02*
X17379706Y-15425984D01*
X17436849Y-15425984D02*
X17436849Y-15225984D01*
X17436849Y-15225984D02*
X17417801Y-15254555D01*
X17417801Y-15254555D02*
X17398753Y-15273603D01*
X17398753Y-15273603D02*
X17379706Y-15283127D01*
X17560658Y-15225984D02*
X17693991Y-15225984D01*
X17693991Y-15225984D02*
X17608277Y-15425984D01*
X17922563Y-15425984D02*
X17922563Y-15225984D01*
X18008277Y-15425984D02*
X18008277Y-15321222D01*
X18008277Y-15321222D02*
X17998753Y-15302174D01*
X17998753Y-15302174D02*
X17979706Y-15292650D01*
X17979706Y-15292650D02*
X17951134Y-15292650D01*
X17951134Y-15292650D02*
X17932087Y-15302174D01*
X17932087Y-15302174D02*
X17922563Y-15311698D01*
X18132087Y-15425984D02*
X18113039Y-15416460D01*
X18113039Y-15416460D02*
X18103515Y-15406936D01*
X18103515Y-15406936D02*
X18093992Y-15387888D01*
X18093992Y-15387888D02*
X18093992Y-15330746D01*
X18093992Y-15330746D02*
X18103515Y-15311698D01*
X18103515Y-15311698D02*
X18113039Y-15302174D01*
X18113039Y-15302174D02*
X18132087Y-15292650D01*
X18132087Y-15292650D02*
X18160658Y-15292650D01*
X18160658Y-15292650D02*
X18179706Y-15302174D01*
X18179706Y-15302174D02*
X18189230Y-15311698D01*
X18189230Y-15311698D02*
X18198753Y-15330746D01*
X18198753Y-15330746D02*
X18198753Y-15387888D01*
X18198753Y-15387888D02*
X18189230Y-15406936D01*
X18189230Y-15406936D02*
X18179706Y-15416460D01*
X18179706Y-15416460D02*
X18160658Y-15425984D01*
X18160658Y-15425984D02*
X18132087Y-15425984D01*
X18313039Y-15425984D02*
X18293992Y-15416460D01*
X18293992Y-15416460D02*
X18284468Y-15397412D01*
X18284468Y-15397412D02*
X18284468Y-15225984D01*
X18465420Y-15416460D02*
X18446373Y-15425984D01*
X18446373Y-15425984D02*
X18408277Y-15425984D01*
X18408277Y-15425984D02*
X18389230Y-15416460D01*
X18389230Y-15416460D02*
X18379706Y-15397412D01*
X18379706Y-15397412D02*
X18379706Y-15321222D01*
X18379706Y-15321222D02*
X18389230Y-15302174D01*
X18389230Y-15302174D02*
X18408277Y-15292650D01*
X18408277Y-15292650D02*
X18446373Y-15292650D01*
X18446373Y-15292650D02*
X18465420Y-15302174D01*
X18465420Y-15302174D02*
X18474944Y-15321222D01*
X18474944Y-15321222D02*
X18474944Y-15340269D01*
X18474944Y-15340269D02*
X18379706Y-15359317D01*
X18551134Y-15416460D02*
X18570182Y-15425984D01*
X18570182Y-15425984D02*
X18608277Y-15425984D01*
X18608277Y-15425984D02*
X18627325Y-15416460D01*
X18627325Y-15416460D02*
X18636849Y-15397412D01*
X18636849Y-15397412D02*
X18636849Y-15387888D01*
X18636849Y-15387888D02*
X18627325Y-15368841D01*
X18627325Y-15368841D02*
X18608277Y-15359317D01*
X18608277Y-15359317D02*
X18579706Y-15359317D01*
X18579706Y-15359317D02*
X18560658Y-15349793D01*
X18560658Y-15349793D02*
X18551134Y-15330746D01*
X18551134Y-15330746D02*
X18551134Y-15321222D01*
X18551134Y-15321222D02*
X18560658Y-15302174D01*
X18560658Y-15302174D02*
X18579706Y-15292650D01*
X18579706Y-15292650D02*
X18608277Y-15292650D01*
X18608277Y-15292650D02*
X18627325Y-15302174D01*
X18703515Y-15502174D02*
X18713039Y-15492650D01*
X18713039Y-15492650D02*
X18732087Y-15464079D01*
X18732087Y-15464079D02*
X18741611Y-15445031D01*
X18741611Y-15445031D02*
X18751134Y-15416460D01*
X18751134Y-15416460D02*
X18760658Y-15368841D01*
X18760658Y-15368841D02*
X18760658Y-15330746D01*
X18760658Y-15330746D02*
X18751134Y-15283127D01*
X18751134Y-15283127D02*
X18741611Y-15254555D01*
X18741611Y-15254555D02*
X18732087Y-15235508D01*
X18732087Y-15235508D02*
X18713039Y-15206936D01*
X18713039Y-15206936D02*
X18703515Y-15197412D01*
M02*
