M48
; DRILL file {KiCad 8.0.7} date 2025-05-18T15:53:20-0400
; FORMAT={-:-/ absolute / metric / decimal}
; #@! TF.CreationDate,2025-05-18T15:53:20-04:00
; #@! TF.GenerationSoftware,Kicad,Pcbnew,8.0.7
; #@! TF.FileFunction,Plated,1,4,PTH
FMAT,2
METRIC
; #@! TA.AperFunction,Plated,PTH,ComponentDrill
T1C0.200
; #@! TA.AperFunction,Plated,PTH,ViaDrill
T2C0.300
; #@! TA.AperFunction,Plated,PTH,ComponentDrill
T3C0.300
%
G90
G05
T1
X168.05Y-106.15
X168.05Y-107.175
X168.05Y-108.2
X168.05Y-109.225
X168.05Y-110.25
X169.075Y-106.15
X169.075Y-107.175
X169.075Y-108.2
X169.075Y-109.225
X169.075Y-110.25
X170.1Y-106.15
X170.1Y-107.175
X170.1Y-108.2
X170.1Y-109.225
X170.1Y-110.25
X171.125Y-106.15
X171.125Y-107.175
X171.125Y-108.2
X171.125Y-109.225
X171.125Y-110.25
X172.15Y-106.15
X172.15Y-107.175
X172.15Y-108.2
X172.15Y-109.225
X172.15Y-110.25
T2
X127.0Y-99.0
X127.0Y-112.0
X127.0Y-114.0
X127.0Y-116.5
X127.0Y-117.5
X127.0Y-118.5
X127.0Y-121.5
X127.0Y-122.5
X127.0Y-123.5
X127.0Y-127.0
X129.0Y-99.0
X129.0Y-112.0
X129.0Y-114.0
X129.0Y-116.5
X129.0Y-117.5
X129.0Y-118.5
X129.0Y-121.5
X129.0Y-122.5
X129.0Y-123.5
X129.0Y-127.0
X129.5Y-109.5
X129.5Y-117.0
X129.5Y-118.0
X129.5Y-122.0
X129.5Y-123.0
X130.3Y-101.5
X131.0Y-99.0
X131.0Y-112.0
X131.0Y-114.0
X131.0Y-127.0
X131.5Y-116.5
X131.5Y-117.5
X131.5Y-118.5
X131.5Y-121.5
X131.5Y-122.5
X131.5Y-123.5
X132.0Y-105.5
X132.0Y-117.0
X132.0Y-118.0
X132.0Y-122.0
X132.0Y-123.0
X133.0Y-99.0
X133.0Y-112.0
X133.0Y-114.0
X133.0Y-127.0
X134.0Y-116.5
X134.0Y-117.5
X134.0Y-118.5
X134.0Y-121.5
X134.0Y-122.5
X134.0Y-123.5
X134.5Y-117.0
X134.5Y-118.0
X134.5Y-122.0
X134.5Y-123.0
X135.0Y-99.0
X135.0Y-112.0
X135.0Y-114.0
X135.0Y-121.0
X135.0Y-124.0
X135.0Y-127.0
X135.5Y-109.5
X137.0Y-99.0
X137.0Y-112.0
X137.0Y-114.0
X137.0Y-118.0
X137.0Y-121.0
X137.0Y-124.0
X137.0Y-127.0
X138.5Y-109.0
X139.0Y-99.0
X139.0Y-112.0
X139.0Y-114.0
X139.0Y-118.0
X139.0Y-121.0
X139.0Y-124.0
X139.0Y-127.0
X141.0Y-99.0
X141.0Y-112.0
X141.0Y-114.0
X141.0Y-118.0
X141.0Y-121.0
X141.0Y-124.0
X141.0Y-127.0
X143.0Y-99.0
X143.0Y-112.0
X143.0Y-114.0
X143.0Y-118.0
X143.0Y-121.0
X143.0Y-124.0
X143.0Y-127.0
X143.2Y-102.7
X144.5Y-102.7
X144.5Y-108.5
X145.0Y-99.0
X145.0Y-112.0
X145.0Y-114.0
X145.0Y-118.0
X145.0Y-124.0
X145.0Y-127.0
X145.1Y-101.4
X145.5Y-120.0
X145.6Y-102.4
X146.0Y-106.5
X146.0Y-119.5
X146.0Y-120.5
X146.4Y-101.4
X146.5Y-120.0
X146.9Y-102.4
X147.0Y-99.0
X147.0Y-112.0
X147.0Y-114.0
X147.0Y-118.0
X147.0Y-119.5
X147.0Y-120.5
X147.0Y-127.0
X147.25Y-122.0
X147.25Y-123.0
X147.25Y-124.0
X147.25Y-125.0
X147.5Y-120.0
X147.7Y-101.4
X147.75Y-121.5
X147.75Y-122.5
X147.75Y-123.5
X147.75Y-124.5
X147.75Y-125.5
X147.9Y-102.9
X148.0Y-109.5
X148.0Y-119.5
X148.0Y-120.5
X148.25Y-122.0
X148.25Y-123.0
X148.25Y-124.0
X148.25Y-125.0
X148.5Y-120.0
X148.75Y-122.5
X148.75Y-124.5
X149.0Y-99.0
X149.0Y-112.0
X149.0Y-119.5
X149.0Y-120.5
X149.0Y-127.0
X149.2Y-102.9
X149.5Y-120.0
X149.75Y-121.5
X149.75Y-123.5
X149.75Y-125.5
X150.0Y-119.5
X150.0Y-120.5
X150.5Y-120.0
X150.75Y-122.5
X150.75Y-124.5
X151.0Y-99.0
X151.0Y-112.0
X151.0Y-119.5
X151.0Y-120.5
X151.0Y-127.0
X151.25Y-122.0
X151.25Y-123.0
X151.25Y-124.0
X151.25Y-125.0
X151.5Y-108.5
X151.5Y-120.0
X151.75Y-121.5
X151.75Y-122.5
X151.75Y-123.5
X151.75Y-124.5
X151.75Y-125.5
X152.0Y-114.0
X152.0Y-119.5
X152.0Y-120.5
X152.25Y-122.0
X152.25Y-123.0
X152.25Y-124.0
X152.25Y-125.0
X152.5Y-120.0
X153.0Y-99.0
X153.0Y-112.0
X153.0Y-119.5
X153.0Y-120.5
X153.0Y-127.0
X153.5Y-120.0
X153.5Y-121.0
X153.5Y-122.0
X153.5Y-123.0
X153.5Y-124.0
X153.5Y-125.0
X153.5Y-126.0
X154.0Y-114.0
X154.0Y-119.5
X154.0Y-120.5
X154.0Y-121.5
X154.0Y-122.5
X154.0Y-123.5
X154.0Y-124.5
X154.0Y-125.5
X154.0Y-126.5
X154.5Y-109.5
X154.5Y-120.0
X154.5Y-121.0
X155.0Y-99.0
X155.0Y-106.0
X155.0Y-112.0
X155.0Y-127.0
X155.562Y-125.965
X156.0Y-114.0
X156.5Y-122.0
X156.5Y-123.0
X156.5Y-124.0
X157.0Y-99.0
X157.0Y-112.0
X157.0Y-113.45
X157.0Y-122.5
X157.0Y-123.5
X157.0Y-125.0
X157.0Y-126.0
X157.0Y-127.0
X157.5Y-110.0
X157.5Y-121.5
X157.5Y-124.5
X157.5Y-125.5
X158.0Y-105.0
X158.0Y-119.0
X158.0Y-120.0
X158.0Y-121.0
X158.0Y-122.0
X158.0Y-123.0
X158.0Y-124.0
X158.0Y-125.0
X158.0Y-126.0
X158.09Y-114.44
X158.16Y-113.47
X158.5Y-107.5
X158.5Y-118.5
X158.5Y-119.5
X158.5Y-120.5
X158.5Y-121.5
X158.5Y-122.5
X159.0Y-99.0
X159.0Y-113.4
X159.0Y-117.0
X159.0Y-118.0
X159.0Y-121.0
X159.0Y-122.0
X159.0Y-127.0
X159.5Y-116.5
X159.5Y-117.5
X159.5Y-118.5
X159.5Y-120.5
X159.5Y-121.5
X159.5Y-125.5
X159.66Y-113.88
X160.0Y-116.0
X160.0Y-117.0
X160.0Y-118.0
X160.0Y-119.0
X160.0Y-121.0
X160.0Y-122.0
X160.0Y-126.0
X160.41Y-113.33
X160.5Y-116.5
X160.5Y-117.5
X160.5Y-118.5
X160.5Y-125.5
X160.8Y-115.2
X161.0Y-99.0
X161.0Y-117.0
X161.0Y-118.0
X161.0Y-119.0
X161.0Y-126.0
X161.0Y-127.0
X161.15Y-121.19
X161.5Y-112.0
X161.5Y-118.5
X161.5Y-123.5
X161.5Y-124.5
X161.5Y-125.5
X161.76Y-122.11
X162.0Y-124.0
X162.0Y-125.0
X162.0Y-126.0
X162.2Y-117.6
X162.4Y-105.3
X162.4Y-109.3
X162.5Y-123.5
X162.5Y-124.5
X162.5Y-125.5
X163.0Y-99.0
X163.0Y-124.0
X163.0Y-125.0
X163.0Y-126.0
X163.0Y-127.0
X163.5Y-123.5
X163.5Y-124.5
X163.5Y-125.5
X164.0Y-117.0
X164.0Y-125.0
X164.12Y-114.18
X164.5Y-117.5
X164.5Y-124.5
X164.5Y-125.5
X165.0Y-99.0
X165.0Y-117.0
X165.0Y-125.0
X165.0Y-127.0
X165.2Y-103.3
X165.338Y-115.041
X165.5Y-117.5
X165.5Y-124.5
X165.5Y-125.5
X166.0Y-117.0
X166.0Y-125.0
X166.137Y-115.041
X166.4Y-104.1
X166.5Y-117.5
X166.5Y-124.5
X166.5Y-125.5
X166.8Y-111.1
X167.0Y-99.0
X167.0Y-117.0
X167.0Y-125.0
X167.0Y-127.0
X167.26Y-115.041
X167.5Y-116.5
X167.5Y-117.5
X167.5Y-124.5
X167.5Y-125.5
X168.0Y-117.0
X168.0Y-125.0
X168.06Y-115.041
X168.2Y-103.8
X168.5Y-116.5
X168.5Y-117.5
X168.5Y-124.5
X168.5Y-125.5
X168.9Y-115.0
X169.0Y-99.0
X169.0Y-117.0
X169.0Y-125.0
X169.0Y-127.0
X169.47Y-112.47
X169.98Y-114.98
X170.72Y-112.25
X170.88Y-115.01
X171.0Y-99.0
X171.0Y-117.0
X171.0Y-125.0
X171.0Y-127.0
X171.38Y-114.34
X171.5Y-116.5
X171.5Y-117.5
X171.5Y-124.5
X171.5Y-125.5
X171.81Y-114.98
X172.0Y-117.0
X172.0Y-125.0
X172.085Y-112.115
X172.5Y-116.5
X172.5Y-117.5
X172.5Y-124.5
X172.5Y-125.5
X172.58Y-114.33
X172.58Y-114.99
X173.0Y-99.0
X173.0Y-117.0
X173.0Y-125.0
X173.0Y-127.0
X173.5Y-116.5
X173.5Y-117.5
X173.5Y-124.5
X173.5Y-125.5
X173.6Y-105.1
X173.836Y-108.638
X174.0Y-117.0
X174.0Y-125.0
X174.28Y-114.94
X174.5Y-116.5
X174.5Y-117.5
X174.5Y-124.5
X174.5Y-125.5
X174.51Y-109.07
X174.52Y-110.05
X174.78Y-114.27
X174.86Y-107.39
X174.9Y-105.1
X175.0Y-99.0
X175.0Y-117.0
X175.0Y-125.0
X175.0Y-127.0
X175.2Y-111.5
X175.29Y-114.94
X175.5Y-101.0
X175.5Y-116.5
X175.5Y-117.5
X175.5Y-124.5
X175.5Y-125.5
X175.77Y-114.25
X176.0Y-117.0
X176.0Y-125.0
X176.15Y-114.96
X176.5Y-116.5
X176.5Y-117.5
X176.5Y-124.5
X176.5Y-125.5
X176.56Y-114.05
X177.0Y-99.0
X177.0Y-117.0
X177.0Y-125.0
X177.0Y-127.0
X177.08Y-108.64
X177.26Y-114.89
X177.5Y-101.5
X177.5Y-122.0
X177.5Y-123.0
X177.5Y-124.0
X178.0Y-111.0
X178.0Y-112.0
X178.5Y-122.0
X178.5Y-123.0
X178.5Y-124.0
X179.0Y-99.0
X179.0Y-107.5
X179.0Y-127.0
X179.5Y-110.5
X179.5Y-113.5
X179.5Y-122.0
X179.5Y-123.0
X179.5Y-124.0
X180.0Y-110.0
X180.0Y-111.0
X180.0Y-113.0
X180.0Y-114.0
X180.0Y-115.0
X180.0Y-116.0
X180.0Y-117.0
X180.0Y-118.0
X180.5Y-106.5
X180.5Y-110.5
X180.5Y-113.5
X180.5Y-114.5
X180.5Y-115.5
X180.5Y-116.5
X180.5Y-117.5
X180.7Y-101.4
X181.0Y-99.0
X181.0Y-103.0
X181.0Y-107.5
X181.0Y-110.0
X181.0Y-111.0
X181.0Y-113.0
X181.0Y-114.0
X181.0Y-115.0
X181.0Y-116.0
X181.0Y-117.0
X181.0Y-118.0
X181.0Y-127.0
X181.5Y-110.5
X181.5Y-113.5
X181.7Y-120.85
X182.0Y-110.0
X182.0Y-111.0
X182.0Y-113.0
X182.5Y-107.5
X182.5Y-110.5
X182.54Y-120.83
X183.0Y-99.0
X183.0Y-110.0
X183.0Y-111.0
X183.0Y-127.0
X183.5Y-110.5
X183.5Y-114.5
X183.5Y-115.5
X183.5Y-116.5
X183.5Y-117.5
X183.5Y-118.5
X183.5Y-119.5
X184.0Y-110.0
X184.0Y-111.0
X184.0Y-115.0
X184.0Y-116.0
X184.0Y-117.0
X184.0Y-118.0
X184.0Y-119.0
X184.5Y-107.5
X184.5Y-110.5
X184.5Y-114.5
X184.5Y-115.5
X184.5Y-116.5
X184.5Y-117.5
X184.5Y-118.5
X184.5Y-119.5
X184.5Y-120.5
X184.5Y-121.5
X184.5Y-122.5
X184.5Y-123.5
X184.5Y-124.5
X184.5Y-125.5
X184.5Y-126.5
X185.0Y-99.0
X185.0Y-110.0
X185.0Y-111.0
X185.0Y-113.0
X185.0Y-120.0
X185.0Y-121.0
X185.0Y-122.0
X185.0Y-123.0
X185.0Y-124.0
X185.0Y-125.0
X185.0Y-126.0
X185.0Y-127.0
X185.5Y-110.5
X185.5Y-120.5
X185.5Y-121.5
X185.5Y-122.5
X185.5Y-123.5
X185.5Y-124.5
X185.5Y-125.5
X185.5Y-126.5
X186.0Y-106.0
X186.0Y-110.0
X186.0Y-111.0
X186.0Y-112.0
X186.5Y-110.5
X186.5Y-119.0
X187.0Y-99.0
X187.0Y-107.5
X187.0Y-110.0
X187.0Y-111.0
X187.0Y-113.0
X187.0Y-119.5
X187.0Y-127.0
X187.5Y-110.5
X187.5Y-119.0
X187.5Y-120.0
X187.5Y-121.0
X187.5Y-122.0
X187.5Y-123.0
X187.5Y-124.0
X187.5Y-125.0
X187.7Y-101.4
X188.0Y-110.0
X188.0Y-111.0
X188.0Y-112.0
X188.0Y-114.0
X188.0Y-119.5
X188.0Y-120.5
X188.0Y-121.5
X188.0Y-122.5
X188.0Y-123.5
X188.0Y-124.5
X188.0Y-125.5
X188.5Y-103.0
X188.5Y-110.5
X188.5Y-120.0
X188.5Y-121.0
X188.5Y-122.0
X188.5Y-123.0
X188.5Y-124.0
X188.5Y-125.0
X189.0Y-99.0
X189.0Y-110.0
X189.0Y-111.0
X189.0Y-113.0
X189.0Y-127.0
X189.5Y-110.5
X189.5Y-117.0
X189.5Y-118.0
X189.5Y-119.0
X189.5Y-120.0
X189.5Y-122.5
X189.5Y-123.5
X189.5Y-124.5
X189.5Y-125.5
X190.0Y-110.0
X190.0Y-111.0
X190.0Y-112.0
X190.0Y-114.0
X190.0Y-116.5
X190.0Y-117.5
X190.0Y-118.5
X190.0Y-119.5
X190.0Y-120.5
X190.0Y-122.0
X190.0Y-123.0
X190.0Y-124.0
X190.0Y-125.0
X190.0Y-126.0
X190.5Y-110.5
X190.5Y-119.0
X190.5Y-120.0
X190.5Y-122.5
X190.5Y-123.5
X190.5Y-124.5
X190.5Y-125.5
X191.0Y-99.0
X191.0Y-110.0
X191.0Y-111.0
X191.0Y-113.0
X191.0Y-115.0
X191.0Y-116.5
X191.0Y-118.0
X191.0Y-119.5
X191.0Y-120.5
X191.0Y-123.0
X191.0Y-125.0
X191.0Y-127.0
X191.5Y-107.5
X191.5Y-110.5
X191.5Y-119.0
X191.5Y-120.0
X192.0Y-106.0
X192.0Y-110.0
X192.0Y-111.0
X192.0Y-112.0
X192.0Y-114.0
X192.0Y-115.5
X192.0Y-117.5
X192.0Y-119.5
X192.0Y-120.5
X192.0Y-122.0
X192.0Y-124.0
X192.0Y-126.0
X192.5Y-110.5
X192.5Y-119.0
X192.5Y-120.0
X193.0Y-99.0
X193.0Y-101.0
X193.0Y-106.0
X193.0Y-107.5
X193.0Y-110.0
X193.0Y-111.0
X193.0Y-113.0
X193.0Y-115.0
X193.0Y-116.5
X193.0Y-118.0
X193.0Y-119.5
X193.0Y-120.5
X193.0Y-123.0
X193.0Y-125.0
X193.0Y-127.0
X193.5Y-110.5
X193.5Y-119.0
X193.5Y-120.0
X193.5Y-122.5
X193.5Y-123.5
X193.5Y-124.5
X193.5Y-125.5
X194.0Y-110.0
X194.0Y-111.0
X194.0Y-112.0
X194.0Y-114.0
X194.0Y-116.5
X194.0Y-117.5
X194.0Y-118.5
X194.0Y-119.5
X194.0Y-120.5
X194.0Y-122.0
X194.0Y-123.0
X194.0Y-124.0
X194.0Y-125.0
X194.0Y-126.0
X194.5Y-110.5
X194.5Y-117.0
X194.5Y-118.0
X194.5Y-119.0
X194.5Y-120.0
X194.5Y-122.5
X194.5Y-123.5
X194.5Y-124.5
X194.5Y-125.5
X194.7Y-107.5
X195.0Y-99.0
X195.0Y-101.0
X195.0Y-110.0
X195.0Y-111.0
X195.0Y-113.0
X195.0Y-122.0
X195.0Y-127.0
X195.5Y-110.5
X196.0Y-117.5
X196.0Y-118.5
X196.0Y-119.5
X196.0Y-120.5
X196.4Y-105.75
X196.5Y-118.0
X196.5Y-119.0
X196.5Y-120.0
X197.0Y-99.0
X197.0Y-101.0
X197.0Y-108.5
X197.0Y-122.0
X197.0Y-127.0
X197.3Y-113.5
X197.3Y-114.6
X197.3Y-115.6
X197.3Y-119.6
X197.3Y-120.6
X197.5Y-110.0
X197.8Y-114.1
X197.8Y-115.1
X197.8Y-116.1
X197.8Y-119.1
X197.8Y-120.1
X198.3Y-113.5
X198.3Y-114.6
X198.3Y-115.6
X198.3Y-119.6
X198.3Y-120.6
X198.45Y-109.7
X198.8Y-114.1
X198.8Y-115.1
X198.8Y-116.9
X198.8Y-117.9
X198.8Y-119.1
X198.8Y-120.1
X199.0Y-99.0
X199.0Y-122.0
X199.0Y-127.0
X199.25Y-109.7
X199.3Y-113.5
X199.3Y-114.6
X199.3Y-115.6
X199.3Y-119.6
X199.3Y-120.6
X199.8Y-114.1
X199.8Y-115.1
X199.8Y-116.1
X199.8Y-119.1
X199.8Y-120.1
X200.0Y-111.0
X200.0Y-117.5
X200.0Y-124.0
X200.3Y-113.5
X200.3Y-114.6
X200.3Y-115.6
X200.3Y-119.6
X200.3Y-120.6
X200.5Y-123.5
X200.5Y-124.5
X201.0Y-99.0
X201.0Y-109.0
X201.0Y-124.0
X201.0Y-125.0
X201.0Y-127.0
X201.3Y-114.3
X201.3Y-115.4
X201.5Y-118.0
X201.5Y-119.0
X201.5Y-120.0
X201.5Y-121.0
X201.5Y-122.0
X201.8Y-113.7
X201.8Y-114.9
X201.8Y-115.9
X202.0Y-111.5
X202.0Y-118.5
X202.0Y-119.5
X202.0Y-120.5
X202.0Y-121.5
X202.0Y-125.0
X202.117Y-107.817
X202.3Y-114.3
X202.3Y-115.4
X202.5Y-104.7
X202.5Y-110.5
X202.5Y-118.0
X202.5Y-119.0
X202.5Y-120.0
X202.5Y-121.0
X202.5Y-122.0
X202.8Y-114.9
X202.8Y-115.9
X203.0Y-99.0
X203.0Y-106.5
X203.0Y-118.5
X203.0Y-119.5
X203.0Y-120.5
X203.0Y-121.5
X203.0Y-125.0
X203.0Y-127.0
X203.2Y-112.6
X203.3Y-114.3
X203.3Y-115.4
X203.5Y-120.0
X203.5Y-121.0
X203.5Y-122.0
X203.8Y-114.9
X203.8Y-115.9
X204.0Y-119.5
X204.0Y-120.5
X204.0Y-121.5
X204.0Y-125.0
X204.3Y-114.3
X204.3Y-115.4
X204.5Y-110.5
X204.5Y-124.0
X205.0Y-99.0
X205.0Y-103.0
X205.0Y-123.5
X205.0Y-124.5
X205.0Y-127.0
X205.5Y-111.5
X205.5Y-124.0
X206.0Y-108.0
X207.0Y-99.0
X207.0Y-111.0
X207.0Y-114.0
X207.0Y-116.5
X207.0Y-119.0
X207.0Y-121.5
X207.0Y-123.5
X207.0Y-127.0
X207.4Y-104.0
X208.0Y-105.5
X209.0Y-99.0
X209.0Y-111.0
X209.0Y-114.0
X209.0Y-116.5
X209.0Y-117.5
X209.0Y-118.5
X209.0Y-123.5
X209.0Y-125.5
X209.0Y-127.0
X209.5Y-102.0
X209.5Y-107.5
X209.5Y-115.9
X209.5Y-117.0
X209.5Y-118.0
X209.5Y-119.0
X209.5Y-121.0
X209.5Y-122.0
X209.5Y-123.0
X210.0Y-116.5
X210.0Y-117.5
X210.0Y-118.5
X210.0Y-120.5
X210.0Y-121.5
X210.0Y-122.5
X210.0Y-123.5
X211.0Y-99.0
X211.0Y-111.0
X211.0Y-114.0
X211.0Y-120.5
X211.0Y-125.5
X211.0Y-127.0
X212.0Y-104.5
X212.0Y-109.0
X212.0Y-116.5
X212.0Y-117.5
X212.0Y-118.5
X212.0Y-121.0
X212.0Y-122.0
X212.0Y-123.0
X212.5Y-103.0
X212.5Y-116.0
X212.5Y-117.0
X212.5Y-118.0
X212.5Y-119.0
X212.5Y-120.5
X212.5Y-121.5
X212.5Y-122.5
X212.5Y-123.5
X213.0Y-99.0
X213.0Y-111.0
X213.0Y-114.0
X213.0Y-116.5
X213.0Y-117.5
X213.0Y-118.5
X213.0Y-125.5
X213.0Y-127.0
X213.5Y-103.5
X213.5Y-120.5
X214.0Y-108.0
X214.5Y-112.0
X214.5Y-116.5
X214.5Y-117.5
X214.5Y-118.5
X214.5Y-121.0
X214.5Y-122.0
X214.5Y-123.0
X215.0Y-99.0
X215.0Y-114.0
X215.0Y-116.0
X215.0Y-117.0
X215.0Y-118.0
X215.0Y-119.0
X215.0Y-120.5
X215.0Y-121.5
X215.0Y-122.5
X215.0Y-123.5
X215.0Y-125.5
X215.0Y-127.0
X215.5Y-108.0
X215.5Y-116.5
X215.5Y-117.5
X215.5Y-118.5
X216.0Y-105.5
X216.0Y-109.5
X216.0Y-120.5
X217.0Y-99.0
X217.0Y-100.5
X217.0Y-107.0
X217.0Y-108.5
X217.0Y-111.0
X217.0Y-120.5
X217.0Y-121.5
X217.0Y-122.5
X217.0Y-123.5
X217.0Y-125.5
X217.0Y-127.0
X217.5Y-101.5
X217.5Y-121.0
X217.5Y-122.0
X217.5Y-123.0
T3
X163.75Y-119.4
X163.75Y-120.6
X164.25Y-118.75
X164.25Y-120.0
X164.25Y-121.2
X164.75Y-119.4
X164.75Y-120.6
X165.25Y-118.75
X165.25Y-120.0
X165.25Y-121.2
X165.75Y-119.4
X165.75Y-120.6
X166.25Y-118.75
X166.25Y-120.0
X166.25Y-121.2
X166.75Y-119.4
X166.75Y-120.6
X173.25Y-119.35
X173.25Y-120.55
X173.75Y-118.7
X173.75Y-119.95
X173.75Y-121.15
X174.25Y-119.35
X174.25Y-120.55
X174.75Y-118.7
X174.75Y-119.95
X174.75Y-121.15
X175.25Y-119.35
X175.25Y-120.55
X175.75Y-118.7
X175.75Y-119.95
X175.75Y-121.15
X176.25Y-119.35
X176.25Y-120.55
M30
