G04 #@! TF.GenerationSoftware,KiCad,Pcbnew,8.0.7*
G04 #@! TF.CreationDate,2025-05-18T15:53:11-04:00*
G04 #@! TF.ProjectId,protovolt,70726f74-6f76-46f6-9c74-2e6b69636164,rev?*
G04 #@! TF.SameCoordinates,Original*
G04 #@! TF.FileFunction,Paste,Top*
G04 #@! TF.FilePolarity,Positive*
%FSLAX46Y46*%
G04 Gerber Fmt 4.6, Leading zero omitted, Abs format (unit mm)*
G04 Created by KiCad (PCBNEW 8.0.7) date 2025-05-18 15:53:11*
%MOMM*%
%LPD*%
G01*
G04 APERTURE LIST*
G04 Aperture macros list*
%AMRoundRect*
0 Rectangle with rounded corners*
0 $1 Rounding radius*
0 $2 $3 $4 $5 $6 $7 $8 $9 X,Y pos of 4 corners*
0 Add a 4 corners polygon primitive as box body*
4,1,4,$2,$3,$4,$5,$6,$7,$8,$9,$2,$3,0*
0 Add four circle primitives for the rounded corners*
1,1,$1+$1,$2,$3*
1,1,$1+$1,$4,$5*
1,1,$1+$1,$6,$7*
1,1,$1+$1,$8,$9*
0 Add four rect primitives between the rounded corners*
20,1,$1+$1,$2,$3,$4,$5,0*
20,1,$1+$1,$4,$5,$6,$7,0*
20,1,$1+$1,$6,$7,$8,$9,0*
20,1,$1+$1,$8,$9,$2,$3,0*%
%AMFreePoly0*
4,1,25,0.315006,0.425321,0.327546,0.414611,0.414611,0.327546,0.444099,0.269673,0.445393,0.253232,0.445393,-0.253232,0.425321,-0.315006,0.414611,-0.327546,0.327546,-0.414611,0.269673,-0.444099,0.253232,-0.445393,-0.253232,-0.445393,-0.315006,-0.425321,-0.327546,-0.414611,-0.414611,-0.327546,-0.444099,-0.269673,-0.445393,-0.253232,-0.445393,0.253232,-0.425321,0.315006,-0.414611,0.327546,
-0.327546,0.414611,-0.269673,0.444099,-0.253232,0.445393,0.253232,0.445393,0.315006,0.425321,0.315006,0.425321,$1*%
G04 Aperture macros list end*
%ADD10RoundRect,0.250000X0.325000X1.100000X-0.325000X1.100000X-0.325000X-1.100000X0.325000X-1.100000X0*%
%ADD11RoundRect,0.250000X-0.325000X-1.100000X0.325000X-1.100000X0.325000X1.100000X-0.325000X1.100000X0*%
%ADD12RoundRect,0.250000X0.250000X0.475000X-0.250000X0.475000X-0.250000X-0.475000X0.250000X-0.475000X0*%
%ADD13RoundRect,0.135000X0.135000X0.185000X-0.135000X0.185000X-0.135000X-0.185000X0.135000X-0.185000X0*%
%ADD14R,2.510000X1.000000*%
%ADD15RoundRect,0.140000X0.140000X0.170000X-0.140000X0.170000X-0.140000X-0.170000X0.140000X-0.170000X0*%
%ADD16RoundRect,0.135000X0.185000X-0.135000X0.185000X0.135000X-0.185000X0.135000X-0.185000X-0.135000X0*%
%ADD17RoundRect,0.135000X-0.135000X-0.185000X0.135000X-0.185000X0.135000X0.185000X-0.135000X0.185000X0*%
%ADD18R,1.000000X3.150000*%
%ADD19RoundRect,0.250000X-1.100000X0.325000X-1.100000X-0.325000X1.100000X-0.325000X1.100000X0.325000X0*%
%ADD20RoundRect,0.135000X-0.185000X0.135000X-0.185000X-0.135000X0.185000X-0.135000X0.185000X0.135000X0*%
%ADD21FreePoly0,270.000000*%
%ADD22RoundRect,0.062500X-0.062500X0.350000X-0.062500X-0.350000X0.062500X-0.350000X0.062500X0.350000X0*%
%ADD23RoundRect,0.062500X-0.350000X0.062500X-0.350000X-0.062500X0.350000X-0.062500X0.350000X0.062500X0*%
%ADD24RoundRect,1.025000X-1.025000X-1.025000X1.025000X-1.025000X1.025000X1.025000X-1.025000X1.025000X0*%
%ADD25RoundRect,0.140000X-0.140000X-0.170000X0.140000X-0.170000X0.140000X0.170000X-0.140000X0.170000X0*%
%ADD26RoundRect,0.075000X-0.650000X-0.075000X0.650000X-0.075000X0.650000X0.075000X-0.650000X0.075000X0*%
%ADD27RoundRect,0.150000X0.350000X-0.150000X0.350000X0.150000X-0.350000X0.150000X-0.350000X-0.150000X0*%
%ADD28RoundRect,0.105000X0.105000X-0.245000X0.105000X0.245000X-0.105000X0.245000X-0.105000X-0.245000X0*%
%ADD29RoundRect,0.105000X0.245000X0.105000X-0.245000X0.105000X-0.245000X-0.105000X0.245000X-0.105000X0*%
%ADD30RoundRect,0.150000X0.150000X0.350000X-0.150000X0.350000X-0.150000X-0.350000X0.150000X-0.350000X0*%
%ADD31RoundRect,0.105000X-0.245000X-0.105000X0.245000X-0.105000X0.245000X0.105000X-0.245000X0.105000X0*%
%ADD32RoundRect,0.150000X-0.150000X-0.350000X0.150000X-0.350000X0.150000X0.350000X-0.150000X0.350000X0*%
%ADD33RoundRect,0.479593X-1.520407X0.695407X-1.520407X-0.695407X1.520407X-0.695407X1.520407X0.695407X0*%
%ADD34RoundRect,0.140000X0.170000X-0.140000X0.170000X0.140000X-0.170000X0.140000X-0.170000X-0.140000X0*%
%ADD35RoundRect,0.140000X-0.170000X0.140000X-0.170000X-0.140000X0.170000X-0.140000X0.170000X0.140000X0*%
%ADD36RoundRect,0.250000X-1.000000X1.950000X-1.000000X-1.950000X1.000000X-1.950000X1.000000X1.950000X0*%
%ADD37RoundRect,0.150000X-0.150000X-0.200000X0.150000X-0.200000X0.150000X0.200000X-0.150000X0.200000X0*%
%ADD38RoundRect,0.479593X1.520407X-0.695407X1.520407X0.695407X-1.520407X0.695407X-1.520407X-0.695407X0*%
G04 APERTURE END LIST*
D10*
X183750000Y-124700000D03*
X186700000Y-124700000D03*
X183750000Y-121500000D03*
X186700000Y-121500000D03*
D11*
X185275000Y-115100000D03*
X182325000Y-115100000D03*
X185275000Y-118300000D03*
X182325000Y-118300000D03*
D12*
X156950000Y-120000000D03*
X155050000Y-120000000D03*
D13*
X164047500Y-108300000D03*
X163027500Y-108300000D03*
X167000000Y-103300000D03*
X165980000Y-103300000D03*
D14*
X142445000Y-106540000D03*
X145755000Y-104000000D03*
X142445000Y-101460000D03*
D15*
X162167500Y-108300000D03*
X161207500Y-108300000D03*
D16*
X195450000Y-107510000D03*
X195450000Y-106490000D03*
D17*
X176190000Y-107600000D03*
X177210000Y-107600000D03*
D18*
X127920000Y-122525000D03*
X127920000Y-117475000D03*
X130460000Y-122525000D03*
X130460000Y-117475000D03*
X133000000Y-122525000D03*
X133000000Y-117475000D03*
D14*
X149345000Y-106540000D03*
X152655000Y-104000000D03*
X149345000Y-101460000D03*
D13*
X168910000Y-103300000D03*
X167890000Y-103300000D03*
D14*
X205845000Y-106590000D03*
X209155000Y-104050000D03*
X205845000Y-101510000D03*
D19*
X202700000Y-123975000D03*
X202700000Y-121025000D03*
D13*
X164047500Y-103300000D03*
X163027500Y-103300000D03*
D20*
X166237500Y-114235000D03*
X166237500Y-113215000D03*
D17*
X162510000Y-114800000D03*
X161490000Y-114800000D03*
D14*
X212790000Y-101510000D03*
X216100000Y-104050000D03*
X212790000Y-106590000D03*
D17*
X163037500Y-110300000D03*
X164057500Y-110300000D03*
D16*
X196400000Y-107510000D03*
X196400000Y-106490000D03*
D14*
X182345000Y-106540000D03*
X185655000Y-104000000D03*
X182345000Y-101460000D03*
D21*
X171637500Y-106662500D03*
X170612500Y-106662500D03*
X169587500Y-106662500D03*
X168562500Y-106662500D03*
X171637500Y-107687500D03*
X170612500Y-107687500D03*
X169587500Y-107687500D03*
X168562500Y-107687500D03*
X171637500Y-108712500D03*
X170612500Y-108712500D03*
X169587500Y-108712500D03*
X168562500Y-108712500D03*
X171637500Y-109737500D03*
X170612500Y-109737500D03*
X169587500Y-109737500D03*
X168562500Y-109737500D03*
D22*
X172350000Y-105262500D03*
X171850000Y-105262500D03*
X171350000Y-105262500D03*
X170850000Y-105262500D03*
X170350000Y-105262500D03*
X169850000Y-105262500D03*
X169350000Y-105262500D03*
X168850000Y-105262500D03*
X168350000Y-105262500D03*
X167850000Y-105262500D03*
D23*
X167162500Y-105950000D03*
X167162500Y-106450000D03*
X167162500Y-106950000D03*
X167162500Y-107450000D03*
X167162500Y-107950000D03*
X167162500Y-108450000D03*
X167162500Y-108950000D03*
X167162500Y-109450000D03*
X167162500Y-109950000D03*
X167162500Y-110450000D03*
D22*
X167850000Y-111137500D03*
X168350000Y-111137500D03*
X168850000Y-111137500D03*
X169350000Y-111137500D03*
X169850000Y-111137500D03*
X170350000Y-111137500D03*
X170850000Y-111137500D03*
X171350000Y-111137500D03*
X171850000Y-111137500D03*
X172350000Y-111137500D03*
D23*
X173037500Y-110450000D03*
X173037500Y-109950000D03*
X173037500Y-109450000D03*
X173037500Y-108950000D03*
X173037500Y-108450000D03*
X173037500Y-107950000D03*
X173037500Y-107450000D03*
X173037500Y-106950000D03*
X173037500Y-106450000D03*
X173037500Y-105950000D03*
D15*
X167182500Y-112272500D03*
X168142500Y-112272500D03*
D20*
X199350000Y-107490000D03*
X199350000Y-108510000D03*
D14*
X128645000Y-101460000D03*
X131955000Y-104000000D03*
X128645000Y-106540000D03*
D20*
X198350000Y-107490000D03*
X198350000Y-108510000D03*
D13*
X164057500Y-106300000D03*
X163037500Y-106300000D03*
D16*
X197350000Y-107510000D03*
X197350000Y-106490000D03*
D17*
X163037500Y-105300000D03*
X164057500Y-105300000D03*
D20*
X165237500Y-114235000D03*
X165237500Y-113215000D03*
D13*
X180910000Y-120600000D03*
X179890000Y-120600000D03*
D15*
X164022500Y-111300000D03*
X163062500Y-111300000D03*
D14*
X135545000Y-106540000D03*
X138855000Y-104000000D03*
X135545000Y-101460000D03*
D15*
X164027500Y-104300000D03*
X163067500Y-104300000D03*
D20*
X167182500Y-114235000D03*
X167182500Y-113215000D03*
D24*
X174750000Y-120000000D03*
X165250000Y-120000000D03*
D13*
X204210000Y-113200000D03*
X203190000Y-113200000D03*
D17*
X181310000Y-125600000D03*
X182330000Y-125600000D03*
D25*
X176207500Y-103300000D03*
X177167500Y-103300000D03*
D17*
X163027500Y-109300000D03*
X164047500Y-109300000D03*
D14*
X189345000Y-106540000D03*
X192655000Y-104000000D03*
X189345000Y-101460000D03*
D20*
X173800000Y-112480000D03*
X173800000Y-113500000D03*
D26*
X195950000Y-103300000D03*
X195950000Y-103800000D03*
X195950000Y-104300000D03*
X195950000Y-104800000D03*
X195950000Y-105300000D03*
X200350000Y-105300000D03*
X200350000Y-104800000D03*
X200350000Y-104300000D03*
X200350000Y-103800000D03*
X200350000Y-103300000D03*
D13*
X159090000Y-114800000D03*
X160110000Y-114800000D03*
X156000000Y-125400000D03*
X154980000Y-125400000D03*
D20*
X168137500Y-114235000D03*
X168137500Y-113215000D03*
D15*
X164017500Y-107300000D03*
X163057500Y-107300000D03*
D13*
X180910000Y-119400000D03*
X179890000Y-119400000D03*
D27*
X202200000Y-115800000D03*
X203330000Y-115800000D03*
X202200000Y-115090000D03*
X203330000Y-115090000D03*
D28*
X201790000Y-114320000D03*
X202440000Y-114320000D03*
X203090000Y-114320000D03*
X203740000Y-114320000D03*
X201790000Y-117320000D03*
X202440000Y-117320000D03*
X203090000Y-117320000D03*
X203740000Y-117320000D03*
D29*
X158000000Y-116000000D03*
X158000000Y-116650000D03*
X158000000Y-117300000D03*
X158000000Y-117950000D03*
X155000000Y-116000000D03*
X155000000Y-116650000D03*
X155000000Y-117300000D03*
X155000000Y-117950000D03*
D30*
X155770000Y-116410000D03*
X155770000Y-117540000D03*
X156480000Y-116410000D03*
X156480000Y-117540000D03*
D31*
X177810000Y-118000000D03*
X177810000Y-117350000D03*
X177810000Y-116700000D03*
X177810000Y-116050000D03*
X180810000Y-118000000D03*
X180810000Y-117350000D03*
X180810000Y-116700000D03*
X180810000Y-116050000D03*
D32*
X180040000Y-117590000D03*
X180040000Y-116460000D03*
X179330000Y-117590000D03*
X179330000Y-116460000D03*
D31*
X155000000Y-123950000D03*
X155000000Y-123300000D03*
X155000000Y-122650000D03*
X155000000Y-122000000D03*
X158000000Y-123950000D03*
X158000000Y-123300000D03*
X158000000Y-122650000D03*
X158000000Y-122000000D03*
D32*
X157230000Y-123540000D03*
X157230000Y-122410000D03*
X156520000Y-123540000D03*
X156520000Y-122410000D03*
D29*
X180830000Y-122050000D03*
X180830000Y-122700000D03*
X180830000Y-123350000D03*
X180830000Y-124000000D03*
X177830000Y-122050000D03*
X177830000Y-122700000D03*
X177830000Y-123350000D03*
X177830000Y-124000000D03*
D30*
X178600000Y-122460000D03*
X178600000Y-123590000D03*
X179310000Y-122460000D03*
X179310000Y-123590000D03*
D33*
X160800000Y-124050000D03*
X160800000Y-119150000D03*
D34*
X174800000Y-113460000D03*
X174800000Y-112500000D03*
D15*
X176300000Y-108600000D03*
X175340000Y-108600000D03*
X164017500Y-112275000D03*
X163057500Y-112275000D03*
D35*
X200350000Y-106520000D03*
X200350000Y-107480000D03*
D25*
X166217500Y-112275000D03*
X165257500Y-112275000D03*
X198370000Y-106550000D03*
X199330000Y-106550000D03*
D15*
X169057500Y-113225000D03*
X170017500Y-113225000D03*
D34*
X161500000Y-115720000D03*
X161500000Y-116680000D03*
D25*
X176232500Y-104300000D03*
X177192500Y-104300000D03*
D35*
X172800000Y-113480000D03*
X172800000Y-112520000D03*
D15*
X177192500Y-105300000D03*
X176232500Y-105300000D03*
X177180000Y-109600000D03*
X176220000Y-109600000D03*
D25*
X179440000Y-125600000D03*
X180400000Y-125600000D03*
D36*
X149800000Y-123700000D03*
X149800000Y-116300000D03*
X192050000Y-116250000D03*
X192050000Y-123650000D03*
D37*
X204100000Y-118700000D03*
X202700000Y-118700000D03*
D38*
X198800000Y-114950000D03*
X198800000Y-119850000D03*
D18*
X210960000Y-122525000D03*
X210960000Y-117475000D03*
X213500000Y-122525000D03*
X213500000Y-117475000D03*
X216040000Y-122525000D03*
X216040000Y-117475000D03*
M02*
