G04 #@! TF.GenerationSoftware,KiCad,Pcbnew,8.0.7*
G04 #@! TF.CreationDate,2025-05-18T15:53:11-04:00*
G04 #@! TF.ProjectId,protovolt,70726f74-6f76-46f6-9c74-2e6b69636164,rev?*
G04 #@! TF.SameCoordinates,Original*
G04 #@! TF.FileFunction,Copper,L4,Bot*
G04 #@! TF.FilePolarity,Positive*
%FSLAX46Y46*%
G04 Gerber Fmt 4.6, Leading zero omitted, Abs format (unit mm)*
G04 Created by KiCad (PCBNEW 8.0.7) date 2025-05-18 15:53:11*
%MOMM*%
%LPD*%
G01*
G04 APERTURE LIST*
G04 #@! TA.AperFunction,HeatsinkPad*
%ADD10C,0.500000*%
G04 #@! TD*
G04 #@! TA.AperFunction,HeatsinkPad*
%ADD11R,4.600000X4.600000*%
G04 #@! TD*
G04 #@! TA.AperFunction,ComponentPad*
%ADD12C,0.600000*%
G04 #@! TD*
G04 #@! TA.AperFunction,ViaPad*
%ADD13C,0.500000*%
G04 #@! TD*
G04 #@! TA.AperFunction,Conductor*
%ADD14C,0.254000*%
G04 #@! TD*
G04 #@! TA.AperFunction,Conductor*
%ADD15C,0.200000*%
G04 #@! TD*
G04 APERTURE END LIST*
D10*
X172150000Y-106150000D03*
X171125000Y-106150000D03*
X170100000Y-106150000D03*
X169075000Y-106150000D03*
X168050000Y-106150000D03*
X172150000Y-107175000D03*
X171125000Y-107175000D03*
X170100000Y-107175000D03*
X169075000Y-107175000D03*
X168050000Y-107175000D03*
X172150000Y-108200000D03*
X171125000Y-108200000D03*
X170100000Y-108200000D03*
D11*
X170100000Y-108200000D03*
D10*
X169075000Y-108200000D03*
X168050000Y-108200000D03*
X172150000Y-109225000D03*
X171125000Y-109225000D03*
X170100000Y-109225000D03*
X169075000Y-109225000D03*
X168050000Y-109225000D03*
X172150000Y-110250000D03*
X171125000Y-110250000D03*
X170100000Y-110250000D03*
X169075000Y-110250000D03*
X168050000Y-110250000D03*
D12*
X176250000Y-120550000D03*
X176250000Y-119350000D03*
X175750000Y-121150000D03*
X175750000Y-119950000D03*
X175750000Y-118700000D03*
X175250000Y-120550000D03*
X175250000Y-119350000D03*
X174750000Y-121150000D03*
X174750000Y-119950000D03*
X174750000Y-118700000D03*
X174250000Y-120550000D03*
X174250000Y-119350000D03*
X173750000Y-121150000D03*
X173750000Y-119950000D03*
X173750000Y-118700000D03*
X173250000Y-120550000D03*
X173250000Y-119350000D03*
X166750000Y-120600000D03*
X166750000Y-119400000D03*
X166250000Y-121200000D03*
X166250000Y-120000000D03*
X166250000Y-118750000D03*
X165750000Y-120600000D03*
X165750000Y-119400000D03*
X165250000Y-121200000D03*
X165250000Y-120000000D03*
X165250000Y-118750000D03*
X164750000Y-120600000D03*
X164750000Y-119400000D03*
X164250000Y-121200000D03*
X164250000Y-120000000D03*
X164250000Y-118750000D03*
X163750000Y-120600000D03*
X163750000Y-119400000D03*
D13*
X209000000Y-116500000D03*
X209000000Y-118500000D03*
X209000000Y-117500000D03*
X209500000Y-119000000D03*
X209500000Y-115900000D03*
X213000000Y-117500000D03*
X213000000Y-118500000D03*
X213000000Y-116500000D03*
X212500000Y-116000000D03*
X212500000Y-119000000D03*
X215000000Y-119000000D03*
X215000000Y-116000000D03*
X215500000Y-117500000D03*
X215500000Y-118500000D03*
X215500000Y-116500000D03*
X178000000Y-112000000D03*
X178000000Y-111000000D03*
X161500000Y-112000000D03*
X154500000Y-109500000D03*
X158500000Y-107500000D03*
X217500000Y-101500000D03*
X214000000Y-108000000D03*
X217000000Y-108500000D03*
X214500000Y-112000000D03*
X203000000Y-106500000D03*
X206000000Y-108000000D03*
X208000000Y-105500000D03*
X205000000Y-103000000D03*
X209500000Y-107500000D03*
X212000000Y-109000000D03*
X205500000Y-111500000D03*
X204500000Y-110500000D03*
X202000000Y-111500000D03*
X202500000Y-110500000D03*
X197500000Y-110000000D03*
X197000000Y-108500000D03*
X200000000Y-111000000D03*
X201000000Y-109000000D03*
X217000000Y-100500000D03*
X216000000Y-109500000D03*
X217000000Y-107000000D03*
X215500000Y-108000000D03*
X216000000Y-105500000D03*
X213500000Y-103500000D03*
X212000000Y-104500000D03*
X212500000Y-103000000D03*
X209500000Y-102000000D03*
X197000000Y-101000000D03*
X195000000Y-101000000D03*
X195000000Y-99000000D03*
X197000000Y-99000000D03*
X199000000Y-99000000D03*
X201000000Y-99000000D03*
X203000000Y-99000000D03*
X205000000Y-99000000D03*
X182500000Y-107500000D03*
X181000000Y-107500000D03*
X179000000Y-107500000D03*
X184500000Y-107500000D03*
X193000000Y-106000000D03*
X191500000Y-107500000D03*
X193000000Y-107500000D03*
X180500000Y-106500000D03*
X186000000Y-106000000D03*
X187000000Y-107500000D03*
X192000000Y-106000000D03*
X193000000Y-101000000D03*
X188500000Y-103000000D03*
X181000000Y-103000000D03*
X177500000Y-101500000D03*
X175500000Y-101000000D03*
X148000000Y-109500000D03*
X146000000Y-106500000D03*
X138500000Y-109000000D03*
X129500000Y-109500000D03*
X132000000Y-105500000D03*
X135500000Y-109500000D03*
X144500000Y-108500000D03*
X157500000Y-110000000D03*
X155000000Y-106000000D03*
X151500000Y-108500000D03*
X158000000Y-105000000D03*
X207000000Y-121500000D03*
X207000000Y-119000000D03*
X207000000Y-116500000D03*
X213000000Y-125500000D03*
X217000000Y-125500000D03*
X215000000Y-125500000D03*
X209000000Y-125500000D03*
X211000000Y-125500000D03*
X213500000Y-120500000D03*
X216000000Y-120500000D03*
X217000000Y-120500000D03*
X215000000Y-120500000D03*
X212500000Y-120500000D03*
X211000000Y-120500000D03*
X210000000Y-120500000D03*
X209500000Y-121000000D03*
X212000000Y-121000000D03*
X214500000Y-121000000D03*
X217500000Y-121000000D03*
X209500000Y-117000000D03*
X209500000Y-118000000D03*
X210000000Y-117500000D03*
X210000000Y-116500000D03*
X210000000Y-118500000D03*
X215000000Y-117000000D03*
X212000000Y-116500000D03*
X212000000Y-117500000D03*
X212500000Y-117000000D03*
X212500000Y-118000000D03*
X214500000Y-116500000D03*
X215000000Y-118000000D03*
X214500000Y-117500000D03*
X214500000Y-118500000D03*
X212000000Y-118500000D03*
X217500000Y-123000000D03*
X217500000Y-122000000D03*
X217000000Y-122500000D03*
X217000000Y-123500000D03*
X217000000Y-121500000D03*
X212000000Y-123000000D03*
X215000000Y-123500000D03*
X215000000Y-122500000D03*
X214500000Y-123000000D03*
X214500000Y-122000000D03*
X212500000Y-123500000D03*
X210000000Y-123500000D03*
X212000000Y-122000000D03*
X209500000Y-122000000D03*
X212500000Y-122500000D03*
X210000000Y-121500000D03*
X212500000Y-121500000D03*
X210000000Y-122500000D03*
X215000000Y-121500000D03*
X209500000Y-123000000D03*
X127000000Y-122500000D03*
X127000000Y-121500000D03*
X127000000Y-123500000D03*
X132000000Y-122000000D03*
X129000000Y-121500000D03*
X129000000Y-122500000D03*
X129500000Y-122000000D03*
X129500000Y-123000000D03*
X131500000Y-121500000D03*
X134000000Y-121500000D03*
X132000000Y-123000000D03*
X134500000Y-123000000D03*
X131500000Y-122500000D03*
X134000000Y-123500000D03*
X131500000Y-123500000D03*
X134000000Y-122500000D03*
X129000000Y-123500000D03*
X134500000Y-122000000D03*
X134500000Y-117000000D03*
X134000000Y-116500000D03*
X134500000Y-118000000D03*
X134000000Y-117500000D03*
X134000000Y-118500000D03*
X131500000Y-116500000D03*
X131500000Y-117500000D03*
X132000000Y-117000000D03*
X132000000Y-118000000D03*
X131500000Y-118500000D03*
X129500000Y-118000000D03*
X129500000Y-117000000D03*
X129000000Y-117500000D03*
X129000000Y-116500000D03*
X129000000Y-118500000D03*
X127000000Y-118500000D03*
X127000000Y-117500000D03*
X127000000Y-116500000D03*
X215000000Y-114000000D03*
X213000000Y-114000000D03*
X211000000Y-114000000D03*
X209000000Y-114000000D03*
X207000000Y-114000000D03*
X201800000Y-113700000D03*
X203300000Y-114300000D03*
X202300000Y-114300000D03*
X201300000Y-114300000D03*
X204300000Y-114300000D03*
X204300000Y-115400000D03*
X201300000Y-115400000D03*
X203800000Y-114900000D03*
X202800000Y-115900000D03*
X201800000Y-115900000D03*
X203800000Y-115900000D03*
X203300000Y-115400000D03*
X202300000Y-115400000D03*
X202800000Y-114900000D03*
X201800000Y-114900000D03*
X197800000Y-116100000D03*
X199800000Y-116100000D03*
X198300000Y-113500000D03*
X199300000Y-113500000D03*
X200300000Y-113500000D03*
X197300000Y-113500000D03*
X200300000Y-115600000D03*
X197300000Y-115600000D03*
X199300000Y-115600000D03*
X198300000Y-115600000D03*
X197800000Y-115100000D03*
X199300000Y-114600000D03*
X199800000Y-114100000D03*
X197300000Y-114600000D03*
X198300000Y-114600000D03*
X198800000Y-114100000D03*
X197800000Y-114100000D03*
X199800000Y-115100000D03*
X198800000Y-115100000D03*
X200300000Y-114600000D03*
X204000000Y-121500000D03*
X203500000Y-122000000D03*
X203000000Y-121500000D03*
X202000000Y-121500000D03*
X202500000Y-122000000D03*
X201500000Y-122000000D03*
X204000000Y-120500000D03*
X203500000Y-121000000D03*
X203000000Y-120500000D03*
X202000000Y-120500000D03*
X202500000Y-121000000D03*
X201500000Y-121000000D03*
X202500000Y-118000000D03*
X201500000Y-118000000D03*
X202500000Y-119000000D03*
X203000000Y-118500000D03*
X202000000Y-118500000D03*
X201500000Y-119000000D03*
X204000000Y-119500000D03*
X203500000Y-120000000D03*
X203000000Y-119500000D03*
X202000000Y-119500000D03*
X202500000Y-120000000D03*
X201500000Y-120000000D03*
X145000000Y-124000000D03*
X143000000Y-124000000D03*
X141000000Y-124000000D03*
X139000000Y-124000000D03*
X137000000Y-124000000D03*
X135000000Y-124000000D03*
X209000000Y-123500000D03*
X207000000Y-123500000D03*
X195000000Y-122000000D03*
X199000000Y-122000000D03*
X197000000Y-122000000D03*
X204000000Y-125000000D03*
X203000000Y-125000000D03*
X202000000Y-125000000D03*
X201000000Y-125000000D03*
X205500000Y-124000000D03*
X205000000Y-124500000D03*
X205000000Y-123500000D03*
X204500000Y-124000000D03*
X201000000Y-124000000D03*
X200500000Y-124500000D03*
X200500000Y-123500000D03*
X200000000Y-124000000D03*
X141000000Y-121000000D03*
X143000000Y-121000000D03*
X139000000Y-121000000D03*
X135000000Y-121000000D03*
X137000000Y-121000000D03*
X154000000Y-126500000D03*
X153500000Y-126000000D03*
X154000000Y-125500000D03*
X153500000Y-125000000D03*
X154000000Y-124500000D03*
X154500000Y-121000000D03*
X153500000Y-121000000D03*
X153500000Y-124000000D03*
X154000000Y-123500000D03*
X153500000Y-123000000D03*
X154000000Y-122500000D03*
X153500000Y-122000000D03*
X154000000Y-121500000D03*
X154500000Y-120000000D03*
X154000000Y-120500000D03*
X145500000Y-120000000D03*
X146000000Y-120500000D03*
X147000000Y-120500000D03*
X148000000Y-120500000D03*
X149000000Y-120500000D03*
X150000000Y-120500000D03*
X151000000Y-120500000D03*
X152000000Y-120500000D03*
X153000000Y-120500000D03*
X154000000Y-119500000D03*
X153500000Y-120000000D03*
X153000000Y-119500000D03*
X152500000Y-120000000D03*
X152000000Y-119500000D03*
X151500000Y-120000000D03*
X151000000Y-119500000D03*
X150500000Y-120000000D03*
X150000000Y-119500000D03*
X149500000Y-120000000D03*
X149000000Y-119500000D03*
X148500000Y-120000000D03*
X148000000Y-119500000D03*
X147500000Y-120000000D03*
X146500000Y-120000000D03*
X147000000Y-119500000D03*
X146000000Y-119500000D03*
X148750000Y-124500000D03*
X147250000Y-123000000D03*
X148750000Y-122500000D03*
X149750000Y-121500000D03*
X150750000Y-122500000D03*
X147750000Y-121500000D03*
X150750000Y-124500000D03*
X147250000Y-122000000D03*
X147750000Y-122500000D03*
X149750000Y-123500000D03*
X148250000Y-122000000D03*
X148250000Y-123000000D03*
X152250000Y-125000000D03*
X148250000Y-125000000D03*
X151750000Y-125500000D03*
X151750000Y-123500000D03*
X152250000Y-122000000D03*
X147750000Y-125500000D03*
X152250000Y-124000000D03*
X151250000Y-122000000D03*
X147750000Y-124500000D03*
X151750000Y-124500000D03*
X151250000Y-123000000D03*
X147250000Y-125000000D03*
X149750000Y-125500000D03*
X151750000Y-122500000D03*
X152250000Y-123000000D03*
X151250000Y-125000000D03*
X151250000Y-124000000D03*
X151750000Y-121500000D03*
X148250000Y-124000000D03*
X147250000Y-124000000D03*
X147750000Y-123500000D03*
X159500000Y-118500000D03*
X161500000Y-118500000D03*
X161000000Y-119000000D03*
X161000000Y-118000000D03*
X160500000Y-118500000D03*
X160000000Y-119000000D03*
X160000000Y-118000000D03*
X161000000Y-117000000D03*
X160500000Y-117500000D03*
X160500000Y-116500000D03*
X160000000Y-117000000D03*
X160000000Y-116000000D03*
X158500000Y-118500000D03*
X159000000Y-118000000D03*
X159500000Y-117500000D03*
X159500000Y-116500000D03*
X159000000Y-117000000D03*
X157500000Y-124500000D03*
X158000000Y-125000000D03*
X157000000Y-125000000D03*
X157500000Y-125500000D03*
X158000000Y-126000000D03*
X157000000Y-126000000D03*
X159500000Y-120500000D03*
X160000000Y-122000000D03*
X160000000Y-121000000D03*
X159500000Y-121500000D03*
X159000000Y-122000000D03*
X159000000Y-121000000D03*
X158500000Y-122500000D03*
X158500000Y-121500000D03*
X157500000Y-121500000D03*
X158000000Y-121000000D03*
X158500000Y-120500000D03*
X158500000Y-119500000D03*
X158000000Y-120000000D03*
X158000000Y-119000000D03*
X192000000Y-126000000D03*
X193000000Y-125000000D03*
X191000000Y-125000000D03*
X192000000Y-124000000D03*
X192000000Y-122000000D03*
X191000000Y-123000000D03*
X193000000Y-123000000D03*
X193500000Y-125500000D03*
X193500000Y-122500000D03*
X193500000Y-124500000D03*
X193500000Y-123500000D03*
X194000000Y-122000000D03*
X194000000Y-123000000D03*
X194500000Y-122500000D03*
X194500000Y-123500000D03*
X194500000Y-125500000D03*
X194000000Y-126000000D03*
X194000000Y-125000000D03*
X194500000Y-124500000D03*
X194000000Y-124000000D03*
X190000000Y-126000000D03*
X190500000Y-125500000D03*
X189500000Y-125500000D03*
X190000000Y-125000000D03*
X190500000Y-124500000D03*
X189500000Y-124500000D03*
X190000000Y-124000000D03*
X190500000Y-123500000D03*
X189500000Y-123500000D03*
X190000000Y-123000000D03*
X190500000Y-122500000D03*
X189500000Y-122500000D03*
X190000000Y-122000000D03*
X193000000Y-115000000D03*
X191000000Y-115000000D03*
X193000000Y-118000000D03*
X191000000Y-118000000D03*
X193000000Y-116500000D03*
X191000000Y-116500000D03*
X192000000Y-115500000D03*
X192000000Y-117500000D03*
X196000000Y-117500000D03*
X200000000Y-117500000D03*
X196000000Y-120500000D03*
X196500000Y-120000000D03*
X196000000Y-119500000D03*
X196500000Y-119000000D03*
X196000000Y-118500000D03*
X196500000Y-118000000D03*
X199300000Y-120600000D03*
X197300000Y-120600000D03*
X198300000Y-120600000D03*
X200300000Y-120600000D03*
X200300000Y-119600000D03*
X199800000Y-119100000D03*
X199800000Y-120100000D03*
X197800000Y-119100000D03*
X197800000Y-120100000D03*
X197300000Y-119600000D03*
X198300000Y-119600000D03*
X199300000Y-119600000D03*
X198800000Y-119100000D03*
X198800000Y-120100000D03*
X194000000Y-114000000D03*
X192000000Y-114000000D03*
X190000000Y-114000000D03*
X188000000Y-114000000D03*
X186000000Y-112000000D03*
X188000000Y-112000000D03*
X190000000Y-112000000D03*
X192000000Y-112000000D03*
X194000000Y-112000000D03*
X195000000Y-113000000D03*
X193000000Y-113000000D03*
X191000000Y-113000000D03*
X189000000Y-113000000D03*
X187000000Y-113000000D03*
X185000000Y-113000000D03*
X182000000Y-113000000D03*
X187500000Y-119000000D03*
X186500000Y-119000000D03*
X187000000Y-119500000D03*
X181000000Y-113000000D03*
X181500000Y-113500000D03*
X180000000Y-113000000D03*
X179500000Y-113500000D03*
X180500000Y-113500000D03*
X180000000Y-114000000D03*
X180000000Y-115000000D03*
X180500000Y-114500000D03*
X181000000Y-114000000D03*
X181000000Y-115000000D03*
X180500000Y-115500000D03*
X189500000Y-120000000D03*
X189500000Y-119000000D03*
X189500000Y-118000000D03*
X189500000Y-117000000D03*
X194500000Y-120000000D03*
X194500000Y-119000000D03*
X194500000Y-118000000D03*
X194500000Y-117000000D03*
X190000000Y-116500000D03*
X190000000Y-117500000D03*
X190000000Y-118500000D03*
X190000000Y-119500000D03*
X190000000Y-120500000D03*
X190500000Y-119000000D03*
X190500000Y-120000000D03*
X194000000Y-116500000D03*
X194000000Y-117500000D03*
X194000000Y-118500000D03*
X194000000Y-119500000D03*
X194000000Y-120500000D03*
X193500000Y-119000000D03*
X193500000Y-120000000D03*
X193000000Y-120500000D03*
X192000000Y-120500000D03*
X191000000Y-120500000D03*
X192500000Y-120000000D03*
X191500000Y-120000000D03*
X191500000Y-119000000D03*
X192500000Y-119000000D03*
X193000000Y-119500000D03*
X192000000Y-119500000D03*
X191000000Y-119500000D03*
X188000000Y-119500000D03*
X188000000Y-125500000D03*
X188500000Y-125000000D03*
X187500000Y-125000000D03*
X188000000Y-124500000D03*
X188500000Y-124000000D03*
X187500000Y-124000000D03*
X188000000Y-123500000D03*
X188500000Y-123000000D03*
X188000000Y-122500000D03*
X188500000Y-122000000D03*
X188000000Y-121500000D03*
X188500000Y-121000000D03*
X188500000Y-120000000D03*
X188000000Y-120500000D03*
X187500000Y-120000000D03*
X187500000Y-121000000D03*
X187500000Y-122000000D03*
X187500000Y-123000000D03*
X195500000Y-110500000D03*
X195000000Y-110000000D03*
X194500000Y-110500000D03*
X195000000Y-111000000D03*
X194000000Y-111000000D03*
X192000000Y-111000000D03*
X193000000Y-110000000D03*
X191500000Y-110500000D03*
X192500000Y-110500000D03*
X194000000Y-110000000D03*
X192000000Y-110000000D03*
X193500000Y-110500000D03*
X193000000Y-111000000D03*
X191000000Y-111000000D03*
X189000000Y-111000000D03*
X190000000Y-110000000D03*
X188500000Y-110500000D03*
X189500000Y-110500000D03*
X191000000Y-110000000D03*
X189000000Y-110000000D03*
X190500000Y-110500000D03*
X190000000Y-111000000D03*
X188000000Y-111000000D03*
X186000000Y-111000000D03*
X187000000Y-110000000D03*
X185500000Y-110500000D03*
X186500000Y-110500000D03*
X188000000Y-110000000D03*
X186000000Y-110000000D03*
X187500000Y-110500000D03*
X187000000Y-111000000D03*
X185000000Y-111000000D03*
X183000000Y-111000000D03*
X184000000Y-110000000D03*
X182500000Y-110500000D03*
X183500000Y-110500000D03*
X185000000Y-110000000D03*
X183000000Y-110000000D03*
X184500000Y-110500000D03*
X184000000Y-111000000D03*
X182000000Y-111000000D03*
X182000000Y-110000000D03*
X181500000Y-110500000D03*
X181000000Y-111000000D03*
X181000000Y-110000000D03*
X180500000Y-110500000D03*
X180000000Y-111000000D03*
X180000000Y-110000000D03*
X179500000Y-110500000D03*
X185000000Y-124000000D03*
X184500000Y-124500000D03*
X185500000Y-124500000D03*
X185000000Y-125000000D03*
X184500000Y-126500000D03*
X185500000Y-125500000D03*
X184500000Y-125500000D03*
X185500000Y-126500000D03*
X185000000Y-126000000D03*
X185000000Y-120000000D03*
X185500000Y-120500000D03*
X185000000Y-122000000D03*
X185500000Y-123500000D03*
X185000000Y-123000000D03*
X184500000Y-120500000D03*
X184500000Y-123500000D03*
X185500000Y-122500000D03*
X185000000Y-121000000D03*
X184500000Y-121500000D03*
X185500000Y-121500000D03*
X184500000Y-122500000D03*
X184500000Y-115500000D03*
X184500000Y-116500000D03*
X184500000Y-119500000D03*
X184500000Y-114500000D03*
X184500000Y-117500000D03*
X184500000Y-118500000D03*
X184000000Y-119000000D03*
X184000000Y-118000000D03*
X184000000Y-117000000D03*
X184000000Y-116000000D03*
X184000000Y-115000000D03*
X183500000Y-119500000D03*
X183500000Y-118500000D03*
X183500000Y-117500000D03*
X183500000Y-116500000D03*
X183500000Y-115500000D03*
X183500000Y-114500000D03*
X180500000Y-117500000D03*
X180500000Y-116500000D03*
X193000000Y-99000000D03*
X191000000Y-99000000D03*
X185000000Y-99000000D03*
X183000000Y-99000000D03*
X187000000Y-99000000D03*
X179000000Y-99000000D03*
X177000000Y-99000000D03*
X175000000Y-99000000D03*
X181000000Y-99000000D03*
X189000000Y-99000000D03*
X169000000Y-99000000D03*
X167000000Y-99000000D03*
X171000000Y-99000000D03*
X163000000Y-99000000D03*
X161000000Y-99000000D03*
X159000000Y-99000000D03*
X165000000Y-99000000D03*
X173000000Y-99000000D03*
X157000000Y-99000000D03*
X155000000Y-99000000D03*
X153000000Y-99000000D03*
X151000000Y-99000000D03*
X149000000Y-99000000D03*
X147000000Y-99000000D03*
X145000000Y-99000000D03*
X143000000Y-99000000D03*
X141000000Y-99000000D03*
X139000000Y-99000000D03*
X137000000Y-99000000D03*
X135000000Y-99000000D03*
X133000000Y-99000000D03*
X131000000Y-99000000D03*
X129000000Y-99000000D03*
X127000000Y-99000000D03*
X157000000Y-112000000D03*
X155000000Y-112000000D03*
X153000000Y-112000000D03*
X151000000Y-112000000D03*
X149000000Y-112000000D03*
X147000000Y-112000000D03*
X145000000Y-112000000D03*
X143000000Y-112000000D03*
X141000000Y-112000000D03*
X139000000Y-112000000D03*
X137000000Y-112000000D03*
X135000000Y-112000000D03*
X133000000Y-112000000D03*
X131000000Y-112000000D03*
X129000000Y-112000000D03*
X127000000Y-112000000D03*
X180000000Y-118000000D03*
X180000000Y-117000000D03*
X180000000Y-116000000D03*
X181000000Y-118000000D03*
X181000000Y-117000000D03*
X181000000Y-116000000D03*
X157000000Y-123500000D03*
X157000000Y-122500000D03*
X156500000Y-123000000D03*
X156500000Y-122000000D03*
X156500000Y-124000000D03*
X158000000Y-124000000D03*
X158000000Y-122000000D03*
X158000000Y-123000000D03*
X177500000Y-122000000D03*
X177500000Y-124000000D03*
X177500000Y-123000000D03*
X178500000Y-122000000D03*
X178500000Y-124000000D03*
X178500000Y-123000000D03*
X179500000Y-123000000D03*
X179500000Y-122000000D03*
X179500000Y-124000000D03*
X177000000Y-125000000D03*
X171500000Y-124500000D03*
X176500000Y-124500000D03*
X174500000Y-124500000D03*
X173500000Y-125500000D03*
X176500000Y-125500000D03*
X172500000Y-124500000D03*
X175500000Y-124500000D03*
X173000000Y-125000000D03*
X175500000Y-125500000D03*
X174000000Y-125000000D03*
X172000000Y-125000000D03*
X175000000Y-125000000D03*
X174500000Y-125500000D03*
X171000000Y-125000000D03*
X176000000Y-125000000D03*
X171500000Y-125500000D03*
X173500000Y-124500000D03*
X172500000Y-125500000D03*
X176500000Y-117500000D03*
X175500000Y-117500000D03*
X174500000Y-117500000D03*
X173500000Y-117500000D03*
X172500000Y-117500000D03*
X171500000Y-117500000D03*
X171500000Y-116500000D03*
X172500000Y-116500000D03*
X173500000Y-116500000D03*
X174500000Y-116500000D03*
X175500000Y-116500000D03*
X176500000Y-116500000D03*
X177000000Y-117000000D03*
X176000000Y-117000000D03*
X175000000Y-117000000D03*
X174000000Y-117000000D03*
X173000000Y-117000000D03*
X172000000Y-117000000D03*
X171000000Y-117000000D03*
X161500000Y-123500000D03*
X163500000Y-123500000D03*
X162500000Y-123500000D03*
X162000000Y-124000000D03*
X161500000Y-124500000D03*
X162000000Y-125000000D03*
X163000000Y-124000000D03*
X163500000Y-124500000D03*
X163000000Y-125000000D03*
X162500000Y-124500000D03*
X168500000Y-125500000D03*
X167500000Y-125500000D03*
X166500000Y-125500000D03*
X165500000Y-125500000D03*
X165500000Y-124500000D03*
X166500000Y-124500000D03*
X167500000Y-124500000D03*
X168500000Y-124500000D03*
X169000000Y-125000000D03*
X168000000Y-125000000D03*
X167000000Y-125000000D03*
X166000000Y-125000000D03*
X165000000Y-125000000D03*
X164500000Y-124500000D03*
X164500000Y-125500000D03*
X164000000Y-125000000D03*
X163500000Y-125500000D03*
X163000000Y-126000000D03*
X160000000Y-126000000D03*
X161000000Y-126000000D03*
X162000000Y-126000000D03*
X162500000Y-125500000D03*
X161500000Y-125500000D03*
X160500000Y-125500000D03*
X159500000Y-125500000D03*
X168500000Y-117500000D03*
X167500000Y-117500000D03*
X166500000Y-117500000D03*
X165500000Y-117500000D03*
X164500000Y-117500000D03*
X164000000Y-117000000D03*
X165000000Y-117000000D03*
X166000000Y-117000000D03*
X167000000Y-117000000D03*
X168000000Y-117000000D03*
X169000000Y-117000000D03*
X168500000Y-116500000D03*
X160410000Y-113330000D03*
X159660000Y-113880000D03*
X159000000Y-113400000D03*
X158090000Y-114440000D03*
X158160000Y-113470000D03*
X164120000Y-114180000D03*
X171810000Y-114980000D03*
X170880000Y-115010000D03*
X169980000Y-114980000D03*
X171380000Y-114340000D03*
X172580000Y-114990000D03*
X172580000Y-114330000D03*
X175290000Y-114940000D03*
X174280000Y-114940000D03*
X174780000Y-114270000D03*
X176150000Y-114960000D03*
X175770000Y-114250000D03*
X176560000Y-114050000D03*
X177260000Y-114890000D03*
X207000000Y-99000000D03*
X209000000Y-99000000D03*
X211000000Y-99000000D03*
X213000000Y-99000000D03*
X215000000Y-99000000D03*
X217000000Y-99000000D03*
X207000000Y-111000000D03*
X209000000Y-111000000D03*
X211000000Y-111000000D03*
X213000000Y-111000000D03*
X217000000Y-111000000D03*
X162400000Y-109300000D03*
X162400000Y-105300000D03*
X147700000Y-101400000D03*
X130300000Y-101500000D03*
X172085000Y-112115000D03*
X215000000Y-127000000D03*
X213000000Y-127000000D03*
X217000000Y-127000000D03*
X207000000Y-127000000D03*
X211000000Y-127000000D03*
X209000000Y-127000000D03*
X203000000Y-127000000D03*
X199000000Y-127000000D03*
X197000000Y-127000000D03*
X201000000Y-127000000D03*
X205000000Y-127000000D03*
X191000000Y-127000000D03*
X195000000Y-127000000D03*
X193000000Y-127000000D03*
X149000000Y-127000000D03*
X189000000Y-127000000D03*
X187000000Y-127000000D03*
X185000000Y-127000000D03*
X183000000Y-127000000D03*
X181000000Y-127000000D03*
X179000000Y-127000000D03*
X177000000Y-127000000D03*
X175000000Y-127000000D03*
X173000000Y-127000000D03*
X171000000Y-127000000D03*
X169000000Y-127000000D03*
X167000000Y-127000000D03*
X165000000Y-127000000D03*
X163000000Y-127000000D03*
X161000000Y-127000000D03*
X159000000Y-127000000D03*
X157000000Y-127000000D03*
X155000000Y-127000000D03*
X153000000Y-127000000D03*
X151000000Y-127000000D03*
X147000000Y-127000000D03*
X145000000Y-127000000D03*
X143000000Y-127000000D03*
X141000000Y-127000000D03*
X139000000Y-127000000D03*
X137000000Y-127000000D03*
X135000000Y-127000000D03*
X133000000Y-127000000D03*
X131000000Y-127000000D03*
X129000000Y-127000000D03*
X127000000Y-127000000D03*
X147000000Y-118000000D03*
X145000000Y-118000000D03*
X143000000Y-118000000D03*
X141000000Y-118000000D03*
X139000000Y-118000000D03*
X137000000Y-118000000D03*
X156000000Y-114000000D03*
X154000000Y-114000000D03*
X152000000Y-114000000D03*
X147000000Y-114000000D03*
X145000000Y-114000000D03*
X143000000Y-114000000D03*
X141000000Y-114000000D03*
X139000000Y-114000000D03*
X137000000Y-114000000D03*
X135000000Y-114000000D03*
X133000000Y-114000000D03*
X131000000Y-114000000D03*
X129000000Y-114000000D03*
X127000000Y-114000000D03*
X157000000Y-113450000D03*
X180700000Y-101400000D03*
X187700000Y-101400000D03*
X174860000Y-107390000D03*
X174520000Y-110050000D03*
X177080000Y-108640000D03*
X174510000Y-109070000D03*
X162200000Y-117600000D03*
X168900000Y-115000000D03*
X144500000Y-102700000D03*
X143200000Y-102700000D03*
X149200000Y-102900000D03*
X147900000Y-102900000D03*
X146900000Y-102400000D03*
X145600000Y-102400000D03*
X146400000Y-101400000D03*
X145100000Y-101400000D03*
X202117318Y-107817318D03*
X202500000Y-104700000D03*
X199250000Y-109700000D03*
X198450000Y-109700000D03*
X203200000Y-112600000D03*
X181700000Y-120850000D03*
X182540000Y-120830000D03*
X160800000Y-115200000D03*
X174900000Y-105100000D03*
X173600000Y-105100000D03*
X166800000Y-111100000D03*
X166400000Y-104100000D03*
X165200000Y-103300000D03*
X168200000Y-103800000D03*
X194700000Y-107500000D03*
X207400000Y-104000000D03*
X196400000Y-105750000D03*
X169470000Y-112470000D03*
X175200000Y-111500000D03*
X170720000Y-112250000D03*
X155562154Y-125965392D03*
X165337500Y-115041021D03*
X166137500Y-115041021D03*
X161760000Y-122110000D03*
X161150000Y-121190000D03*
X168060000Y-115041021D03*
X167260000Y-115041021D03*
X198800000Y-117900000D03*
X198800000Y-116900000D03*
X173836176Y-108638272D03*
X167500000Y-116500000D03*
D14*
X165423000Y-113077000D02*
X179923000Y-113077000D01*
X164320000Y-114180000D02*
X165423000Y-113077000D01*
X179923000Y-113077000D02*
X180000000Y-113000000D01*
X164120000Y-114180000D02*
X164320000Y-114180000D01*
D15*
X197357751Y-117501999D02*
X198401999Y-117501999D01*
X196373000Y-116517248D02*
X197357751Y-117501999D01*
X196373000Y-112782752D02*
X196373000Y-116517248D01*
X198624999Y-110530753D02*
X196373000Y-112782752D01*
X198624999Y-109874999D02*
X198624999Y-110530753D01*
X198450000Y-109700000D02*
X198624999Y-109874999D01*
X198401999Y-117501999D02*
X198800000Y-117900000D01*
X197493199Y-117174999D02*
X198525001Y-117174999D01*
X196700000Y-116381800D02*
X197493199Y-117174999D01*
X199075001Y-110543199D02*
X196700000Y-112918200D01*
X196700000Y-112918200D02*
X196700000Y-116381800D01*
X199250000Y-109700000D02*
X199075001Y-109874999D01*
X199075001Y-109874999D02*
X199075001Y-110543199D01*
X198525001Y-117174999D02*
X198800000Y-116900000D01*
G04 #@! TA.AperFunction,Conductor*
G36*
X169937539Y-115619685D02*
G01*
X169983294Y-115672489D01*
X169994500Y-115724000D01*
X169994500Y-126076000D01*
X169974815Y-126143039D01*
X169922011Y-126188794D01*
X169870500Y-126200000D01*
X158929500Y-126200000D01*
X158862461Y-126180315D01*
X158816706Y-126127511D01*
X158805500Y-126076000D01*
X158805500Y-125229500D01*
X158825185Y-125162461D01*
X158877989Y-125116706D01*
X158929500Y-125105500D01*
X160675991Y-125105500D01*
X160676000Y-125105500D01*
X160719684Y-125100803D01*
X160748875Y-125094452D01*
X160771174Y-125089602D01*
X160771190Y-125089598D01*
X160771195Y-125089597D01*
X160781373Y-125087110D01*
X160862085Y-125044100D01*
X160914889Y-124998345D01*
X160932843Y-124980754D01*
X160977490Y-124900937D01*
X160997175Y-124833898D01*
X161005500Y-124776000D01*
X161005500Y-123024000D01*
X161025185Y-122956961D01*
X161077989Y-122911206D01*
X161129500Y-122900000D01*
X162327514Y-122900000D01*
X162328193Y-122899629D01*
X162372216Y-122898054D01*
X162424000Y-122905500D01*
X162424001Y-122905500D01*
X162875991Y-122905500D01*
X162876000Y-122905500D01*
X162919684Y-122900803D01*
X162948875Y-122894452D01*
X162971174Y-122889602D01*
X162971190Y-122889598D01*
X162971195Y-122889597D01*
X162981373Y-122887110D01*
X163062085Y-122844100D01*
X163114889Y-122798345D01*
X163132843Y-122780754D01*
X163177490Y-122700937D01*
X163197175Y-122633898D01*
X163205500Y-122576000D01*
X163205500Y-115724000D01*
X163225185Y-115656961D01*
X163277989Y-115611206D01*
X163329500Y-115600000D01*
X169870500Y-115600000D01*
X169937539Y-115619685D01*
G37*
G04 #@! TD.AperFunction*
G04 #@! TA.AperFunction,Conductor*
G36*
X178637539Y-115619685D02*
G01*
X178683294Y-115672489D01*
X178694500Y-115724000D01*
X178694500Y-119076007D01*
X178699197Y-119119686D01*
X178710397Y-119171174D01*
X178712890Y-119181372D01*
X178712891Y-119181375D01*
X178755899Y-119262083D01*
X178755901Y-119262086D01*
X178801660Y-119314895D01*
X178819242Y-119332839D01*
X178819246Y-119332843D01*
X178819247Y-119332844D01*
X178819249Y-119332845D01*
X178899059Y-119377488D01*
X178899063Y-119377490D01*
X178966102Y-119397175D01*
X179024000Y-119405500D01*
X179776000Y-119405500D01*
X179843039Y-119425185D01*
X179888794Y-119477989D01*
X179900000Y-119529500D01*
X179900000Y-126076000D01*
X179880315Y-126143039D01*
X179827511Y-126188794D01*
X179776000Y-126200000D01*
X170324000Y-126200000D01*
X170256961Y-126180315D01*
X170211206Y-126127511D01*
X170200000Y-126076000D01*
X170200000Y-115724000D01*
X170219685Y-115656961D01*
X170272489Y-115611206D01*
X170324000Y-115600000D01*
X178570500Y-115600000D01*
X178637539Y-115619685D01*
G37*
G04 #@! TD.AperFunction*
G04 #@! TA.AperFunction,Conductor*
G36*
X160604799Y-115611204D02*
G01*
X160610928Y-115614002D01*
X160610931Y-115614004D01*
X160735225Y-115650499D01*
X160735227Y-115650500D01*
X160735228Y-115650500D01*
X160864773Y-115650500D01*
X160864773Y-115650499D01*
X160989069Y-115614004D01*
X160989073Y-115614000D01*
X160995201Y-115611204D01*
X161046709Y-115600000D01*
X162876000Y-115600000D01*
X162943039Y-115619685D01*
X162988794Y-115672489D01*
X163000000Y-115724000D01*
X163000000Y-122576000D01*
X162980315Y-122643039D01*
X162927511Y-122688794D01*
X162876000Y-122700000D01*
X162424000Y-122700000D01*
X162356961Y-122680315D01*
X162311206Y-122627511D01*
X162300000Y-122576000D01*
X162300000Y-120300000D01*
X160600000Y-120300000D01*
X160600000Y-122900000D01*
X160676000Y-122900000D01*
X160743039Y-122919685D01*
X160788794Y-122972489D01*
X160800000Y-123024000D01*
X160800000Y-124776000D01*
X160780315Y-124843039D01*
X160727511Y-124888794D01*
X160676000Y-124900000D01*
X158600000Y-124900000D01*
X158600000Y-126076000D01*
X158580315Y-126143039D01*
X158527511Y-126188794D01*
X158476000Y-126200000D01*
X156126659Y-126200000D01*
X156059620Y-126180315D01*
X156013865Y-126127511D01*
X156003921Y-126058353D01*
X156017287Y-125965392D01*
X155998851Y-125837166D01*
X155945036Y-125719329D01*
X155930284Y-125702304D01*
X155901262Y-125638750D01*
X155900000Y-125621105D01*
X155900000Y-121124000D01*
X155919685Y-121056961D01*
X155972489Y-121011206D01*
X156024000Y-121000000D01*
X157100000Y-121000000D01*
X157100000Y-115724000D01*
X157119685Y-115656961D01*
X157172489Y-115611206D01*
X157224000Y-115600000D01*
X160553291Y-115600000D01*
X160604799Y-115611204D01*
G37*
G04 #@! TD.AperFunction*
G04 #@! TA.AperFunction,Conductor*
G36*
X157443039Y-113025185D02*
G01*
X157488794Y-113077989D01*
X157500000Y-113129500D01*
X157500000Y-115270500D01*
X157480315Y-115337539D01*
X157427511Y-115383294D01*
X157376000Y-115394500D01*
X157223992Y-115394500D01*
X157180313Y-115399197D01*
X157128825Y-115410397D01*
X157118627Y-115412890D01*
X157118624Y-115412891D01*
X157037916Y-115455899D01*
X157037913Y-115455901D01*
X156985104Y-115501660D01*
X156967160Y-115519242D01*
X156967154Y-115519249D01*
X156922511Y-115599059D01*
X156922509Y-115599064D01*
X156902826Y-115666096D01*
X156894500Y-115724003D01*
X156894500Y-120576000D01*
X156874815Y-120643039D01*
X156822011Y-120688794D01*
X156770500Y-120700000D01*
X155929500Y-120700000D01*
X155862461Y-120680315D01*
X155816706Y-120627511D01*
X155805500Y-120576000D01*
X155805500Y-119199997D01*
X155805499Y-119199995D01*
X155800348Y-119154271D01*
X155760666Y-119071873D01*
X155689163Y-119014851D01*
X155600004Y-118994500D01*
X155600000Y-118994500D01*
X145300000Y-118994500D01*
X145299995Y-118994500D01*
X145254271Y-118999651D01*
X145171873Y-119039333D01*
X145114851Y-119110836D01*
X145094500Y-119199995D01*
X145094500Y-119776488D01*
X145083294Y-119828000D01*
X145063303Y-119871771D01*
X145063302Y-119871775D01*
X145060158Y-119893647D01*
X145031133Y-119957203D01*
X144972355Y-119994977D01*
X144937420Y-120000000D01*
X126124500Y-120000000D01*
X126057461Y-119980315D01*
X126011706Y-119927511D01*
X126000500Y-119876000D01*
X126000500Y-113129500D01*
X126020185Y-113062461D01*
X126072989Y-113016706D01*
X126124500Y-113005500D01*
X157376000Y-113005500D01*
X157443039Y-113025185D01*
G37*
G04 #@! TD.AperFunction*
G04 #@! TA.AperFunction,Conductor*
G36*
X196000000Y-116600000D02*
G01*
X197300000Y-118000000D01*
X198176000Y-118000000D01*
X198243039Y-118019685D01*
X198288794Y-118072489D01*
X198300000Y-118124000D01*
X198300000Y-118700000D01*
X199300000Y-118700000D01*
X199300000Y-116829500D01*
X199319685Y-116762461D01*
X199372489Y-116716706D01*
X199424000Y-116705500D01*
X200670500Y-116705500D01*
X200737539Y-116725185D01*
X200783294Y-116777989D01*
X200794500Y-116829500D01*
X200794500Y-121076000D01*
X200774815Y-121143039D01*
X200722011Y-121188794D01*
X200670500Y-121200000D01*
X188900000Y-121200000D01*
X188900000Y-113900000D01*
X196000000Y-113900000D01*
X196000000Y-116600000D01*
G37*
G04 #@! TD.AperFunction*
G04 #@! TA.AperFunction,Conductor*
G36*
X183054271Y-113905151D02*
G01*
X182971873Y-113944833D01*
X182914851Y-114016336D01*
X182894500Y-114105495D01*
X182894500Y-120298925D01*
X182874815Y-120365964D01*
X182822011Y-120411719D01*
X182752853Y-120421663D01*
X182735567Y-120417903D01*
X182604772Y-120379500D01*
X182475228Y-120379500D01*
X182475226Y-120379500D01*
X182350935Y-120415994D01*
X182350932Y-120415995D01*
X182350931Y-120415996D01*
X182319813Y-120435994D01*
X182241949Y-120486033D01*
X182205048Y-120528621D01*
X182146270Y-120566395D01*
X182076400Y-120566395D01*
X182017622Y-120528621D01*
X181998050Y-120506033D01*
X181960311Y-120481780D01*
X181889069Y-120435996D01*
X181889065Y-120435994D01*
X181889064Y-120435994D01*
X181764774Y-120399500D01*
X181764772Y-120399500D01*
X181635228Y-120399500D01*
X181635226Y-120399500D01*
X181510935Y-120435994D01*
X181510932Y-120435995D01*
X181510931Y-120435996D01*
X181459677Y-120468934D01*
X181401950Y-120506033D01*
X181317118Y-120603937D01*
X181317117Y-120603938D01*
X181263302Y-120721774D01*
X181246738Y-120836987D01*
X181217713Y-120900543D01*
X181158935Y-120938317D01*
X181089065Y-120938317D01*
X181030287Y-120900543D01*
X181001262Y-120836987D01*
X181000000Y-120819340D01*
X181000000Y-119200000D01*
X179024000Y-119200000D01*
X178956961Y-119180315D01*
X178911206Y-119127511D01*
X178900000Y-119076000D01*
X178900000Y-113900000D01*
X183099995Y-113900000D01*
X183054271Y-113905151D01*
G37*
G04 #@! TD.AperFunction*
G04 #@! TA.AperFunction,Conductor*
G36*
X186100000Y-114059048D02*
G01*
X186060666Y-113977373D01*
X185989163Y-113920351D01*
X185900004Y-113900000D01*
X186100000Y-113900000D01*
X186100000Y-114059048D01*
G37*
G04 #@! TD.AperFunction*
G04 #@! TA.AperFunction,Conductor*
G36*
X203004799Y-113011204D02*
G01*
X203010928Y-113014002D01*
X203010931Y-113014004D01*
X203135225Y-113050499D01*
X203135227Y-113050500D01*
X203135228Y-113050500D01*
X203264773Y-113050500D01*
X203264773Y-113050499D01*
X203389069Y-113014004D01*
X203389073Y-113014000D01*
X203395201Y-113011204D01*
X203446709Y-113000000D01*
X204576000Y-113000000D01*
X204643039Y-113019685D01*
X204688794Y-113072489D01*
X204700000Y-113124000D01*
X204700000Y-116376000D01*
X204680315Y-116443039D01*
X204627511Y-116488794D01*
X204576000Y-116500000D01*
X199424000Y-116500000D01*
X199356961Y-116480315D01*
X199311206Y-116427511D01*
X199300000Y-116376000D01*
X199300000Y-116100000D01*
X198300000Y-116100000D01*
X198300000Y-116376000D01*
X198280315Y-116443039D01*
X198227511Y-116488794D01*
X198176000Y-116500000D01*
X197351362Y-116500000D01*
X197284323Y-116480315D01*
X197263681Y-116463681D01*
X197036319Y-116236319D01*
X197002834Y-116174996D01*
X197000000Y-116148638D01*
X197000000Y-113124000D01*
X197019685Y-113056961D01*
X197072489Y-113011206D01*
X197124000Y-113000000D01*
X202953291Y-113000000D01*
X203004799Y-113011204D01*
G37*
G04 #@! TD.AperFunction*
G04 #@! TA.AperFunction,Conductor*
G36*
X216543039Y-113019685D02*
G01*
X216588794Y-113072489D01*
X216600000Y-113124000D01*
X216600000Y-119670500D01*
X216580315Y-119737539D01*
X216527511Y-119783294D01*
X216476000Y-119794500D01*
X209149995Y-119794500D01*
X209104271Y-119799651D01*
X209021873Y-119839333D01*
X208964851Y-119910836D01*
X208944500Y-119999995D01*
X208944500Y-122376000D01*
X208924815Y-122443039D01*
X208872011Y-122488794D01*
X208820500Y-122500000D01*
X201124000Y-122500000D01*
X201056961Y-122480315D01*
X201011206Y-122427511D01*
X201000000Y-122376000D01*
X201000000Y-116829500D01*
X201019685Y-116762461D01*
X201072489Y-116716706D01*
X201124000Y-116705500D01*
X204575991Y-116705500D01*
X204576000Y-116705500D01*
X204619684Y-116700803D01*
X204648875Y-116694452D01*
X204671174Y-116689602D01*
X204671190Y-116689598D01*
X204671195Y-116689597D01*
X204681373Y-116687110D01*
X204762085Y-116644100D01*
X204814889Y-116598345D01*
X204832843Y-116580754D01*
X204877490Y-116500937D01*
X204897175Y-116433898D01*
X204905500Y-116376000D01*
X204905500Y-113124000D01*
X204925185Y-113056961D01*
X204977989Y-113011206D01*
X205029500Y-113000000D01*
X216476000Y-113000000D01*
X216543039Y-113019685D01*
G37*
G04 #@! TD.AperFunction*
G04 #@! TA.AperFunction,Conductor*
G36*
X180737539Y-119425185D02*
G01*
X180783294Y-119477989D01*
X180794500Y-119529500D01*
X180794500Y-120819342D01*
X180795023Y-120833998D01*
X180796285Y-120851647D01*
X180814333Y-120922356D01*
X180814334Y-120922360D01*
X180843349Y-120985894D01*
X180843349Y-120985895D01*
X180855177Y-121008093D01*
X180855182Y-121008100D01*
X180919184Y-121073420D01*
X180977960Y-121111193D01*
X180984498Y-121114849D01*
X180999902Y-121123466D01*
X181054980Y-121136037D01*
X181089060Y-121143816D01*
X181089065Y-121143817D01*
X181158936Y-121143817D01*
X181165207Y-121143432D01*
X181184025Y-121142280D01*
X181235784Y-121123573D01*
X181305520Y-121119300D01*
X181366499Y-121153407D01*
X181371640Y-121158986D01*
X181401951Y-121193967D01*
X181510931Y-121264004D01*
X181567113Y-121280500D01*
X181635225Y-121300499D01*
X181635227Y-121300500D01*
X181635228Y-121300500D01*
X181764773Y-121300500D01*
X181764773Y-121300499D01*
X181889069Y-121264004D01*
X181998049Y-121193967D01*
X182034951Y-121151378D01*
X182093727Y-121113605D01*
X182163596Y-121113603D01*
X182222375Y-121151376D01*
X182222377Y-121151378D01*
X182241949Y-121173966D01*
X182241951Y-121173967D01*
X182350931Y-121244004D01*
X182419050Y-121264005D01*
X182475225Y-121280499D01*
X182475227Y-121280500D01*
X182475228Y-121280500D01*
X182604773Y-121280500D01*
X182604773Y-121280499D01*
X182729069Y-121244004D01*
X182838049Y-121173967D01*
X182922882Y-121076063D01*
X182976697Y-120958226D01*
X182995133Y-120830000D01*
X182976697Y-120701774D01*
X182965466Y-120677182D01*
X182955521Y-120608024D01*
X182984545Y-120544468D01*
X182997051Y-120531960D01*
X183009389Y-120521270D01*
X183027343Y-120503679D01*
X183071990Y-120423862D01*
X183091675Y-120356823D01*
X183100000Y-120298925D01*
X183100000Y-126250000D01*
X185900000Y-126250000D01*
X185900000Y-125926007D01*
X185904697Y-125969686D01*
X185915897Y-126021174D01*
X185918390Y-126031372D01*
X185918391Y-126031375D01*
X185961399Y-126112083D01*
X185961401Y-126112086D01*
X186007160Y-126164895D01*
X186024742Y-126182839D01*
X186024746Y-126182843D01*
X186024747Y-126182844D01*
X186024749Y-126182845D01*
X186104559Y-126227488D01*
X186104563Y-126227490D01*
X186171602Y-126247175D01*
X186229500Y-126255500D01*
X186229504Y-126255500D01*
X188775991Y-126255500D01*
X188776000Y-126255500D01*
X188819684Y-126250803D01*
X188848875Y-126244452D01*
X188871174Y-126239602D01*
X188871190Y-126239598D01*
X188871195Y-126239597D01*
X188881373Y-126237110D01*
X188962085Y-126194100D01*
X189014889Y-126148345D01*
X189032843Y-126130754D01*
X189077490Y-126050937D01*
X189097175Y-125983898D01*
X189105500Y-125926000D01*
X189105500Y-121529500D01*
X189125185Y-121462461D01*
X189177989Y-121416706D01*
X189229500Y-121405500D01*
X200670500Y-121405500D01*
X200737539Y-121425185D01*
X200783294Y-121477989D01*
X200794500Y-121529500D01*
X200794500Y-122376007D01*
X200799197Y-122419686D01*
X200810397Y-122471174D01*
X200812890Y-122481372D01*
X200812891Y-122481375D01*
X200855899Y-122562083D01*
X200855901Y-122562086D01*
X200901660Y-122614895D01*
X200919242Y-122632839D01*
X200919246Y-122632843D01*
X200919247Y-122632844D01*
X200919249Y-122632845D01*
X200999059Y-122677488D01*
X200999063Y-122677490D01*
X201066102Y-122697175D01*
X201124000Y-122705500D01*
X201124004Y-122705500D01*
X208820491Y-122705500D01*
X208820500Y-122705500D01*
X208864184Y-122700803D01*
X208893375Y-122694452D01*
X208915674Y-122689602D01*
X208915690Y-122689598D01*
X208915695Y-122689597D01*
X208925873Y-122687110D01*
X209006585Y-122644100D01*
X209059389Y-122598345D01*
X209077343Y-122580754D01*
X209121990Y-122500937D01*
X209141675Y-122433898D01*
X209150000Y-122376000D01*
X209150000Y-123150000D01*
X217999500Y-123150000D01*
X217999500Y-127875500D01*
X217979815Y-127942539D01*
X217927011Y-127988294D01*
X217875500Y-127999500D01*
X126124500Y-127999500D01*
X126057461Y-127979815D01*
X126011706Y-127927011D01*
X126000500Y-127875500D01*
X126000500Y-120329500D01*
X126020185Y-120262461D01*
X126072989Y-120216706D01*
X126124500Y-120205500D01*
X144937420Y-120205500D01*
X144966666Y-120203408D01*
X145001601Y-120198385D01*
X145083456Y-120167855D01*
X145142234Y-120130081D01*
X145162511Y-120115222D01*
X145218062Y-120042571D01*
X145247087Y-119979015D01*
X145256915Y-119945540D01*
X145263093Y-119928978D01*
X145270221Y-119913373D01*
X145284097Y-119871683D01*
X145295303Y-119820171D01*
X145300000Y-119776488D01*
X145300000Y-121400000D01*
X155600000Y-121400000D01*
X155600000Y-120576007D01*
X155604697Y-120619686D01*
X155615897Y-120671174D01*
X155617366Y-120677182D01*
X155618390Y-120681373D01*
X155661400Y-120762085D01*
X155707155Y-120814889D01*
X155717547Y-120825495D01*
X155750403Y-120887157D01*
X155744707Y-120956795D01*
X155737196Y-120972807D01*
X155722511Y-120999060D01*
X155722509Y-120999064D01*
X155702826Y-121066096D01*
X155702825Y-121066101D01*
X155702825Y-121066102D01*
X155694562Y-121123574D01*
X155694500Y-121124003D01*
X155694500Y-125390892D01*
X155674815Y-125457931D01*
X155622011Y-125503686D01*
X155570500Y-125514892D01*
X155497380Y-125514892D01*
X155373089Y-125551386D01*
X155373086Y-125551387D01*
X155373085Y-125551388D01*
X155321831Y-125584326D01*
X155264104Y-125621425D01*
X155179272Y-125719329D01*
X155179271Y-125719330D01*
X155125456Y-125837166D01*
X155107021Y-125965392D01*
X155125456Y-126093617D01*
X155174470Y-126200940D01*
X155179272Y-126211455D01*
X155264105Y-126309359D01*
X155373085Y-126379396D01*
X155489038Y-126413442D01*
X155497379Y-126415891D01*
X155497381Y-126415892D01*
X155497382Y-126415892D01*
X155626927Y-126415892D01*
X155626927Y-126415891D01*
X155751223Y-126379396D01*
X155806765Y-126343701D01*
X155873803Y-126324017D01*
X155934336Y-126339796D01*
X156001722Y-126377490D01*
X156068761Y-126397175D01*
X156126659Y-126405500D01*
X156765335Y-126405500D01*
X156801853Y-126413442D01*
X156802422Y-126411506D01*
X156935225Y-126450499D01*
X156935227Y-126450500D01*
X156935228Y-126450500D01*
X157064773Y-126450500D01*
X157064773Y-126450499D01*
X157131662Y-126430859D01*
X157197578Y-126411506D01*
X157198146Y-126413442D01*
X157234665Y-126405500D01*
X157765335Y-126405500D01*
X157801853Y-126413442D01*
X157802422Y-126411506D01*
X157935225Y-126450499D01*
X157935227Y-126450500D01*
X157935228Y-126450500D01*
X158064773Y-126450500D01*
X158064773Y-126450499D01*
X158131662Y-126430859D01*
X158197578Y-126411506D01*
X158198146Y-126413442D01*
X158234665Y-126405500D01*
X158475991Y-126405500D01*
X158476000Y-126405500D01*
X158519684Y-126400803D01*
X158548875Y-126394452D01*
X158571174Y-126389602D01*
X158571190Y-126389598D01*
X158571195Y-126389597D01*
X158581373Y-126387110D01*
X158644727Y-126353349D01*
X158713145Y-126339194D01*
X158763573Y-126354561D01*
X158804563Y-126377490D01*
X158871602Y-126397175D01*
X158929500Y-126405500D01*
X159765335Y-126405500D01*
X159801853Y-126413442D01*
X159802422Y-126411506D01*
X159935225Y-126450499D01*
X159935227Y-126450500D01*
X159935228Y-126450500D01*
X160064773Y-126450500D01*
X160064773Y-126450499D01*
X160131662Y-126430859D01*
X160197578Y-126411506D01*
X160198146Y-126413442D01*
X160234665Y-126405500D01*
X160765335Y-126405500D01*
X160801853Y-126413442D01*
X160802422Y-126411506D01*
X160935225Y-126450499D01*
X160935227Y-126450500D01*
X160935228Y-126450500D01*
X161064773Y-126450500D01*
X161064773Y-126450499D01*
X161131662Y-126430859D01*
X161197578Y-126411506D01*
X161198146Y-126413442D01*
X161234665Y-126405500D01*
X161765335Y-126405500D01*
X161801853Y-126413442D01*
X161802422Y-126411506D01*
X161935225Y-126450499D01*
X161935227Y-126450500D01*
X161935228Y-126450500D01*
X162064773Y-126450500D01*
X162064773Y-126450499D01*
X162131662Y-126430859D01*
X162197578Y-126411506D01*
X162198146Y-126413442D01*
X162234665Y-126405500D01*
X162765335Y-126405500D01*
X162801853Y-126413442D01*
X162802422Y-126411506D01*
X162935225Y-126450499D01*
X162935227Y-126450500D01*
X162935228Y-126450500D01*
X163064773Y-126450500D01*
X163064773Y-126450499D01*
X163131662Y-126430859D01*
X163197578Y-126411506D01*
X163198146Y-126413442D01*
X163234665Y-126405500D01*
X169870491Y-126405500D01*
X169870500Y-126405500D01*
X169914184Y-126400803D01*
X169943375Y-126394452D01*
X169965674Y-126389602D01*
X169965690Y-126389598D01*
X169965695Y-126389597D01*
X169975873Y-126387110D01*
X170039227Y-126353349D01*
X170107645Y-126339194D01*
X170158073Y-126354561D01*
X170199063Y-126377490D01*
X170266102Y-126397175D01*
X170324000Y-126405500D01*
X170324004Y-126405500D01*
X179775991Y-126405500D01*
X179776000Y-126405500D01*
X179819684Y-126400803D01*
X179848875Y-126394452D01*
X179871174Y-126389602D01*
X179871190Y-126389598D01*
X179871195Y-126389597D01*
X179881373Y-126387110D01*
X179962085Y-126344100D01*
X180014889Y-126298345D01*
X180032843Y-126280754D01*
X180077490Y-126200937D01*
X180097175Y-126133898D01*
X180105500Y-126076000D01*
X180105500Y-119529500D01*
X180125185Y-119462461D01*
X180177989Y-119416706D01*
X180229500Y-119405500D01*
X180670500Y-119405500D01*
X180737539Y-119425185D01*
G37*
G04 #@! TD.AperFunction*
G04 #@! TA.AperFunction,Conductor*
G36*
X217942539Y-98020185D02*
G01*
X217988294Y-98072989D01*
X217999500Y-98124500D01*
X217999500Y-120000000D01*
X216476000Y-120000000D01*
X216519684Y-119995303D01*
X216548875Y-119988952D01*
X216571174Y-119984102D01*
X216571190Y-119984098D01*
X216571195Y-119984097D01*
X216581373Y-119981610D01*
X216662085Y-119938600D01*
X216714889Y-119892845D01*
X216732843Y-119875254D01*
X216777490Y-119795437D01*
X216797175Y-119728398D01*
X216805500Y-119670500D01*
X216805500Y-113124000D01*
X216800803Y-113080316D01*
X216790794Y-113034305D01*
X216789602Y-113028825D01*
X216788454Y-113024127D01*
X216787110Y-113018627D01*
X216744100Y-112937915D01*
X216698345Y-112885111D01*
X216698339Y-112885104D01*
X216680757Y-112867160D01*
X216680756Y-112867159D01*
X216680754Y-112867157D01*
X216680752Y-112867156D01*
X216680750Y-112867154D01*
X216600940Y-112822511D01*
X216600935Y-112822509D01*
X216533903Y-112802826D01*
X216533899Y-112802825D01*
X216533898Y-112802825D01*
X216476000Y-112794500D01*
X205029500Y-112794500D01*
X205029492Y-112794500D01*
X204985813Y-112799197D01*
X204934325Y-112810397D01*
X204924127Y-112812890D01*
X204924123Y-112812891D01*
X204860771Y-112846650D01*
X204792350Y-112860804D01*
X204741926Y-112845437D01*
X204700937Y-112822510D01*
X204700935Y-112822509D01*
X204633903Y-112802826D01*
X204633899Y-112802825D01*
X204633898Y-112802825D01*
X204576000Y-112794500D01*
X204575996Y-112794500D01*
X203770272Y-112794500D01*
X203703233Y-112774815D01*
X203657478Y-112722011D01*
X203647534Y-112652853D01*
X203648008Y-112649554D01*
X203655133Y-112600000D01*
X203636697Y-112471774D01*
X203582882Y-112353937D01*
X203498049Y-112256033D01*
X203389069Y-112185996D01*
X203389065Y-112185994D01*
X203389064Y-112185994D01*
X203264774Y-112149500D01*
X203264772Y-112149500D01*
X203135228Y-112149500D01*
X203135226Y-112149500D01*
X203010935Y-112185994D01*
X203010932Y-112185995D01*
X203010931Y-112185996D01*
X202959677Y-112218934D01*
X202901950Y-112256033D01*
X202817118Y-112353937D01*
X202817117Y-112353938D01*
X202763302Y-112471774D01*
X202744867Y-112600000D01*
X202752466Y-112652853D01*
X202742522Y-112722012D01*
X202696767Y-112774816D01*
X202629728Y-112794500D01*
X197548033Y-112794500D01*
X197480994Y-112774815D01*
X197435239Y-112722011D01*
X197425295Y-112652853D01*
X197454320Y-112589297D01*
X197460352Y-112582819D01*
X197893671Y-112149500D01*
X199315461Y-110727710D01*
X199355023Y-110659187D01*
X199375501Y-110582761D01*
X199375501Y-110503637D01*
X199375501Y-110222566D01*
X199395186Y-110155527D01*
X199432462Y-110118251D01*
X199548047Y-110043968D01*
X199548046Y-110043968D01*
X199548049Y-110043967D01*
X199632882Y-109946063D01*
X199686697Y-109828226D01*
X199705133Y-109700000D01*
X199686697Y-109571774D01*
X199632882Y-109453937D01*
X199548049Y-109356033D01*
X199439069Y-109285996D01*
X199439065Y-109285994D01*
X199439064Y-109285994D01*
X199314774Y-109249500D01*
X199314772Y-109249500D01*
X199185228Y-109249500D01*
X199185226Y-109249500D01*
X199060935Y-109285994D01*
X199060932Y-109285995D01*
X199060931Y-109285996D01*
X199019435Y-109312663D01*
X198951948Y-109356034D01*
X198943713Y-109365539D01*
X198884936Y-109403314D01*
X198815066Y-109403314D01*
X198756288Y-109365540D01*
X198756287Y-109365539D01*
X198748051Y-109356034D01*
X198727301Y-109342699D01*
X198639069Y-109285996D01*
X198639065Y-109285994D01*
X198639064Y-109285994D01*
X198514774Y-109249500D01*
X198514772Y-109249500D01*
X198385228Y-109249500D01*
X198385226Y-109249500D01*
X198260935Y-109285994D01*
X198260932Y-109285995D01*
X198260931Y-109285996D01*
X198209677Y-109318934D01*
X198151950Y-109356033D01*
X198067118Y-109453937D01*
X198067117Y-109453938D01*
X198013302Y-109571774D01*
X197994867Y-109700000D01*
X198013302Y-109828225D01*
X198067117Y-109946061D01*
X198067118Y-109946063D01*
X198129784Y-110018384D01*
X198151952Y-110043968D01*
X198267538Y-110118251D01*
X198313293Y-110171054D01*
X198324499Y-110222566D01*
X198324499Y-110354920D01*
X198304814Y-110421959D01*
X198288180Y-110442601D01*
X196417181Y-112313600D01*
X196355858Y-112347085D01*
X196286166Y-112342101D01*
X196230233Y-112300229D01*
X196205816Y-112234765D01*
X196205500Y-112225919D01*
X196205500Y-110251361D01*
X196204321Y-110229381D01*
X196201488Y-110203034D01*
X196201487Y-110203032D01*
X196186612Y-110155527D01*
X196177529Y-110126518D01*
X196144044Y-110065195D01*
X196128153Y-110043968D01*
X196109001Y-110018384D01*
X196108998Y-110018381D01*
X196108991Y-110018371D01*
X195790620Y-109700000D01*
X195281634Y-109191013D01*
X195281633Y-109191012D01*
X195265283Y-109176325D01*
X195265269Y-109176313D01*
X195244620Y-109159672D01*
X195173575Y-109122509D01*
X195106543Y-109102826D01*
X195105894Y-109102732D01*
X195048638Y-109094500D01*
X195048634Y-109094500D01*
X194429500Y-109094500D01*
X194362461Y-109074815D01*
X194316706Y-109022011D01*
X194305500Y-108970500D01*
X194305500Y-108009070D01*
X194325185Y-107942031D01*
X194377989Y-107896276D01*
X194447147Y-107886332D01*
X194496535Y-107904752D01*
X194510931Y-107914004D01*
X194510932Y-107914004D01*
X194510935Y-107914006D01*
X194635225Y-107950499D01*
X194635227Y-107950500D01*
X194635228Y-107950500D01*
X194764773Y-107950500D01*
X194764773Y-107950499D01*
X194889069Y-107914004D01*
X194998049Y-107843967D01*
X195021140Y-107817318D01*
X201662185Y-107817318D01*
X201680620Y-107945543D01*
X201734435Y-108063379D01*
X201734436Y-108063381D01*
X201819269Y-108161285D01*
X201928249Y-108231322D01*
X202052543Y-108267817D01*
X202052545Y-108267818D01*
X202052546Y-108267818D01*
X202182091Y-108267818D01*
X202182091Y-108267817D01*
X202306387Y-108231322D01*
X202415367Y-108161285D01*
X202500200Y-108063381D01*
X202554015Y-107945544D01*
X202572451Y-107817318D01*
X202554015Y-107689092D01*
X202500200Y-107571255D01*
X202415367Y-107473351D01*
X202306387Y-107403314D01*
X202306383Y-107403312D01*
X202306382Y-107403312D01*
X202182092Y-107366818D01*
X202182090Y-107366818D01*
X202052546Y-107366818D01*
X202052544Y-107366818D01*
X201928253Y-107403312D01*
X201928250Y-107403313D01*
X201928249Y-107403314D01*
X201876995Y-107436252D01*
X201819268Y-107473351D01*
X201734436Y-107571255D01*
X201734435Y-107571256D01*
X201680620Y-107689092D01*
X201662185Y-107817318D01*
X195021140Y-107817318D01*
X195082882Y-107746063D01*
X195136697Y-107628226D01*
X195155133Y-107500000D01*
X195136697Y-107371774D01*
X195082882Y-107253937D01*
X194998049Y-107156033D01*
X194889069Y-107085996D01*
X194889065Y-107085994D01*
X194889064Y-107085994D01*
X194764774Y-107049500D01*
X194764772Y-107049500D01*
X194635228Y-107049500D01*
X194635226Y-107049500D01*
X194510934Y-107085994D01*
X194496536Y-107095247D01*
X194429496Y-107114929D01*
X194362457Y-107095242D01*
X194316704Y-107042437D01*
X194305500Y-106990929D01*
X194305500Y-105750000D01*
X195944867Y-105750000D01*
X195963302Y-105878225D01*
X196017117Y-105996061D01*
X196017118Y-105996063D01*
X196101951Y-106093967D01*
X196210931Y-106164004D01*
X196335225Y-106200499D01*
X196335227Y-106200500D01*
X196335228Y-106200500D01*
X196464773Y-106200500D01*
X196464773Y-106200499D01*
X196589069Y-106164004D01*
X196698049Y-106093967D01*
X196782882Y-105996063D01*
X196836697Y-105878226D01*
X196855133Y-105750000D01*
X196836697Y-105621774D01*
X196782882Y-105503937D01*
X196698049Y-105406033D01*
X196589069Y-105335996D01*
X196589065Y-105335994D01*
X196589064Y-105335994D01*
X196464774Y-105299500D01*
X196464772Y-105299500D01*
X196335228Y-105299500D01*
X196335226Y-105299500D01*
X196210935Y-105335994D01*
X196210932Y-105335995D01*
X196210931Y-105335996D01*
X196159677Y-105368934D01*
X196101950Y-105406033D01*
X196017118Y-105503937D01*
X196017117Y-105503938D01*
X195963302Y-105621774D01*
X195944867Y-105750000D01*
X194305500Y-105750000D01*
X194305500Y-104700000D01*
X202044867Y-104700000D01*
X202063302Y-104828225D01*
X202117117Y-104946061D01*
X202117118Y-104946063D01*
X202201951Y-105043967D01*
X202310931Y-105114004D01*
X202435225Y-105150499D01*
X202435227Y-105150500D01*
X202435228Y-105150500D01*
X202564773Y-105150500D01*
X202564773Y-105150499D01*
X202689069Y-105114004D01*
X202798049Y-105043967D01*
X202882882Y-104946063D01*
X202936697Y-104828226D01*
X202955133Y-104700000D01*
X202936697Y-104571774D01*
X202882882Y-104453937D01*
X202798049Y-104356033D01*
X202689069Y-104285996D01*
X202689065Y-104285994D01*
X202689064Y-104285994D01*
X202564774Y-104249500D01*
X202564772Y-104249500D01*
X202435228Y-104249500D01*
X202435226Y-104249500D01*
X202310935Y-104285994D01*
X202310932Y-104285995D01*
X202310931Y-104285996D01*
X202259677Y-104318934D01*
X202201950Y-104356033D01*
X202117118Y-104453937D01*
X202117117Y-104453938D01*
X202063302Y-104571774D01*
X202044867Y-104700000D01*
X194305500Y-104700000D01*
X194305500Y-104000000D01*
X206944867Y-104000000D01*
X206963302Y-104128225D01*
X207017117Y-104246061D01*
X207017118Y-104246063D01*
X207101951Y-104343967D01*
X207210931Y-104414004D01*
X207335225Y-104450499D01*
X207335227Y-104450500D01*
X207335228Y-104450500D01*
X207464773Y-104450500D01*
X207464773Y-104450499D01*
X207589069Y-104414004D01*
X207698049Y-104343967D01*
X207782882Y-104246063D01*
X207836697Y-104128226D01*
X207855133Y-104000000D01*
X207836697Y-103871774D01*
X207782882Y-103753937D01*
X207698049Y-103656033D01*
X207589069Y-103585996D01*
X207589065Y-103585994D01*
X207589064Y-103585994D01*
X207464774Y-103549500D01*
X207464772Y-103549500D01*
X207335228Y-103549500D01*
X207335226Y-103549500D01*
X207210935Y-103585994D01*
X207210932Y-103585995D01*
X207210931Y-103585996D01*
X207159677Y-103618934D01*
X207101950Y-103656033D01*
X207017118Y-103753937D01*
X207017117Y-103753938D01*
X206963302Y-103871774D01*
X206944867Y-104000000D01*
X194305500Y-104000000D01*
X194305500Y-98124500D01*
X194325185Y-98057461D01*
X194377989Y-98011706D01*
X194429500Y-98000500D01*
X217875500Y-98000500D01*
X217942539Y-98020185D01*
G37*
G04 #@! TD.AperFunction*
G04 #@! TA.AperFunction,Conductor*
G36*
X164799022Y-113025185D02*
G01*
X164844777Y-113077989D01*
X164854721Y-113147147D01*
X164825696Y-113210703D01*
X164819664Y-113217181D01*
X164331546Y-113705297D01*
X164270223Y-113738782D01*
X164208931Y-113736593D01*
X164184774Y-113729500D01*
X164184772Y-113729500D01*
X164055228Y-113729500D01*
X164055226Y-113729500D01*
X163930935Y-113765994D01*
X163930932Y-113765995D01*
X163930931Y-113765996D01*
X163879677Y-113798934D01*
X163821950Y-113836033D01*
X163737118Y-113933937D01*
X163737117Y-113933938D01*
X163683302Y-114051774D01*
X163664867Y-114180000D01*
X163683302Y-114308225D01*
X163737117Y-114426061D01*
X163737118Y-114426063D01*
X163821951Y-114523967D01*
X163930931Y-114594004D01*
X164043359Y-114627015D01*
X164055225Y-114630499D01*
X164055227Y-114630500D01*
X164055228Y-114630500D01*
X164184773Y-114630500D01*
X164184773Y-114630499D01*
X164309069Y-114594004D01*
X164418049Y-114523967D01*
X164443253Y-114494878D01*
X164474967Y-114468693D01*
X164521090Y-114442065D01*
X165522336Y-113440819D01*
X165583659Y-113407334D01*
X165610017Y-113404500D01*
X178570500Y-113404500D01*
X178637539Y-113424185D01*
X178683294Y-113476989D01*
X178694500Y-113528500D01*
X178694500Y-115270500D01*
X178674815Y-115337539D01*
X178622011Y-115383294D01*
X178570500Y-115394500D01*
X170323992Y-115394500D01*
X170280313Y-115399197D01*
X170228825Y-115410397D01*
X170218627Y-115412890D01*
X170218623Y-115412891D01*
X170155271Y-115446650D01*
X170086850Y-115460804D01*
X170036426Y-115445437D01*
X169995437Y-115422510D01*
X169995435Y-115422509D01*
X169928403Y-115402826D01*
X169928399Y-115402825D01*
X169928398Y-115402825D01*
X169870500Y-115394500D01*
X169870496Y-115394500D01*
X169408041Y-115394500D01*
X169341002Y-115374815D01*
X169295247Y-115322011D01*
X169285303Y-115252853D01*
X169295247Y-115218988D01*
X169310633Y-115185297D01*
X169336697Y-115128226D01*
X169355133Y-115000000D01*
X169336697Y-114871774D01*
X169282882Y-114753937D01*
X169198049Y-114656033D01*
X169089069Y-114585996D01*
X169089065Y-114585994D01*
X169089064Y-114585994D01*
X168964774Y-114549500D01*
X168964772Y-114549500D01*
X168835228Y-114549500D01*
X168835226Y-114549500D01*
X168710935Y-114585994D01*
X168710932Y-114585995D01*
X168710931Y-114585996D01*
X168698469Y-114594005D01*
X168601949Y-114656033D01*
X168555940Y-114709132D01*
X168497162Y-114746906D01*
X168427292Y-114746906D01*
X168368514Y-114709132D01*
X168368512Y-114709129D01*
X168358050Y-114697055D01*
X168358049Y-114697054D01*
X168249069Y-114627017D01*
X168249065Y-114627015D01*
X168249064Y-114627015D01*
X168124774Y-114590521D01*
X168124772Y-114590521D01*
X167995228Y-114590521D01*
X167995226Y-114590521D01*
X167870935Y-114627015D01*
X167870932Y-114627016D01*
X167870931Y-114627017D01*
X167829435Y-114653684D01*
X167761948Y-114697055D01*
X167753713Y-114706560D01*
X167694936Y-114744335D01*
X167625066Y-114744335D01*
X167566288Y-114706561D01*
X167566287Y-114706560D01*
X167558051Y-114697055D01*
X167537301Y-114683720D01*
X167449069Y-114627017D01*
X167449065Y-114627015D01*
X167449064Y-114627015D01*
X167324774Y-114590521D01*
X167324772Y-114590521D01*
X167195228Y-114590521D01*
X167195226Y-114590521D01*
X167070935Y-114627015D01*
X167070932Y-114627016D01*
X167070931Y-114627017D01*
X167025781Y-114656033D01*
X166961950Y-114697054D01*
X166877118Y-114794958D01*
X166877117Y-114794959D01*
X166823302Y-114912795D01*
X166821488Y-114925418D01*
X166792463Y-114988974D01*
X166733685Y-115026748D01*
X166663815Y-115026748D01*
X166605037Y-114988974D01*
X166576012Y-114925418D01*
X166574197Y-114912795D01*
X166548133Y-114855723D01*
X166520382Y-114794958D01*
X166435549Y-114697054D01*
X166326569Y-114627017D01*
X166326565Y-114627015D01*
X166326564Y-114627015D01*
X166202274Y-114590521D01*
X166202272Y-114590521D01*
X166072728Y-114590521D01*
X166072726Y-114590521D01*
X165948435Y-114627015D01*
X165948432Y-114627016D01*
X165948431Y-114627017D01*
X165906935Y-114653684D01*
X165839448Y-114697055D01*
X165831213Y-114706560D01*
X165772436Y-114744335D01*
X165702566Y-114744335D01*
X165643788Y-114706561D01*
X165643787Y-114706560D01*
X165635551Y-114697055D01*
X165614801Y-114683720D01*
X165526569Y-114627017D01*
X165526565Y-114627015D01*
X165526564Y-114627015D01*
X165402274Y-114590521D01*
X165402272Y-114590521D01*
X165272728Y-114590521D01*
X165272726Y-114590521D01*
X165148435Y-114627015D01*
X165148432Y-114627016D01*
X165148431Y-114627017D01*
X165103281Y-114656033D01*
X165039450Y-114697054D01*
X164954618Y-114794958D01*
X164954617Y-114794959D01*
X164900802Y-114912795D01*
X164882367Y-115041021D01*
X164900802Y-115169247D01*
X164900803Y-115169248D01*
X164923519Y-115218989D01*
X164933463Y-115288147D01*
X164904438Y-115351703D01*
X164845660Y-115389477D01*
X164810725Y-115394500D01*
X163329492Y-115394500D01*
X163285813Y-115399197D01*
X163234325Y-115410397D01*
X163224127Y-115412890D01*
X163224123Y-115412891D01*
X163160771Y-115446650D01*
X163092350Y-115460804D01*
X163041926Y-115445437D01*
X163000937Y-115422510D01*
X163000935Y-115422509D01*
X162933903Y-115402826D01*
X162933899Y-115402825D01*
X162933898Y-115402825D01*
X162876000Y-115394500D01*
X162875996Y-115394500D01*
X161370272Y-115394500D01*
X161303233Y-115374815D01*
X161257478Y-115322011D01*
X161247534Y-115252853D01*
X161248510Y-115246063D01*
X161255133Y-115200000D01*
X161236697Y-115071774D01*
X161182882Y-114953937D01*
X161098049Y-114856033D01*
X160989069Y-114785996D01*
X160989065Y-114785994D01*
X160989064Y-114785994D01*
X160864774Y-114749500D01*
X160864772Y-114749500D01*
X160735228Y-114749500D01*
X160735226Y-114749500D01*
X160610935Y-114785994D01*
X160610932Y-114785995D01*
X160610931Y-114785996D01*
X160559677Y-114818934D01*
X160501950Y-114856033D01*
X160417118Y-114953937D01*
X160417117Y-114953938D01*
X160363302Y-115071774D01*
X160344867Y-115200000D01*
X160352466Y-115252853D01*
X160342522Y-115322012D01*
X160296767Y-115374816D01*
X160229728Y-115394500D01*
X157829500Y-115394500D01*
X157762461Y-115374815D01*
X157716706Y-115322011D01*
X157705500Y-115270500D01*
X157705500Y-113129500D01*
X157725185Y-113062461D01*
X157777989Y-113016706D01*
X157829500Y-113005500D01*
X164731983Y-113005500D01*
X164799022Y-113025185D01*
G37*
G04 #@! TD.AperFunction*
G04 #@! TA.AperFunction,Conductor*
G36*
X185900000Y-126250000D02*
G01*
X183100000Y-126250000D01*
X183100000Y-114105500D01*
X185900000Y-114105500D01*
X185900000Y-126250000D01*
G37*
G04 #@! TD.AperFunction*
G04 #@! TA.AperFunction,Conductor*
G36*
X155600000Y-121400000D02*
G01*
X145300000Y-121400000D01*
X145300000Y-119200000D01*
X155600000Y-119200000D01*
X155600000Y-121400000D01*
G37*
G04 #@! TD.AperFunction*
G04 #@! TA.AperFunction,Conductor*
G36*
X217999500Y-123150000D02*
G01*
X209150000Y-123150000D01*
X209150000Y-120000000D01*
X217999500Y-120000000D01*
X217999500Y-123150000D01*
G37*
G04 #@! TD.AperFunction*
G04 #@! TA.AperFunction,Conductor*
G36*
X188900000Y-121200000D02*
G01*
X188900000Y-125926000D01*
X188880315Y-125993039D01*
X188827511Y-126038794D01*
X188776000Y-126050000D01*
X186229500Y-126050000D01*
X186162461Y-126030315D01*
X186116706Y-125977511D01*
X186105500Y-125926000D01*
X186105500Y-114105497D01*
X186105499Y-114105495D01*
X186100348Y-114059771D01*
X186100000Y-114059048D01*
X186100000Y-113900000D01*
X188900000Y-113900000D01*
X188900000Y-121200000D01*
G37*
G04 #@! TD.AperFunction*
G04 #@! TA.AperFunction,Conductor*
G36*
X194043039Y-98020185D02*
G01*
X194088794Y-98072989D01*
X194100000Y-98124500D01*
X194100000Y-108970500D01*
X194080315Y-109037539D01*
X194027511Y-109083294D01*
X193976000Y-109094500D01*
X179023992Y-109094500D01*
X178980313Y-109099197D01*
X178928825Y-109110397D01*
X178918627Y-109112890D01*
X178918624Y-109112891D01*
X178837916Y-109155899D01*
X178837913Y-109155901D01*
X178785104Y-109201660D01*
X178767160Y-109219242D01*
X178767154Y-109219249D01*
X178722511Y-109299059D01*
X178722509Y-109299064D01*
X178702826Y-109366096D01*
X178694500Y-109424003D01*
X178694500Y-112625500D01*
X178674815Y-112692539D01*
X178622011Y-112738294D01*
X178570500Y-112749500D01*
X172353275Y-112749500D01*
X172286236Y-112729815D01*
X172240481Y-112677011D01*
X172230537Y-112607853D01*
X172259562Y-112544297D01*
X172286232Y-112521186D01*
X172383049Y-112458967D01*
X172467882Y-112361063D01*
X172521697Y-112243226D01*
X172540133Y-112115000D01*
X172521697Y-111986774D01*
X172467882Y-111868937D01*
X172383049Y-111771033D01*
X172274069Y-111700996D01*
X172274065Y-111700994D01*
X172274064Y-111700994D01*
X172149774Y-111664500D01*
X172149772Y-111664500D01*
X172020228Y-111664500D01*
X172020226Y-111664500D01*
X171895935Y-111700994D01*
X171895932Y-111700995D01*
X171895931Y-111700996D01*
X171844677Y-111733934D01*
X171786950Y-111771033D01*
X171702118Y-111868937D01*
X171702117Y-111868938D01*
X171648302Y-111986774D01*
X171629867Y-112115000D01*
X171648302Y-112243225D01*
X171693309Y-112341774D01*
X171702118Y-112361063D01*
X171786951Y-112458967D01*
X171883765Y-112521185D01*
X171929519Y-112573988D01*
X171939463Y-112643146D01*
X171910438Y-112706702D01*
X171851661Y-112744477D01*
X171816725Y-112749500D01*
X171154801Y-112749500D01*
X171087762Y-112729815D01*
X171042007Y-112677011D01*
X171032063Y-112607853D01*
X171061087Y-112544298D01*
X171081115Y-112521184D01*
X171102882Y-112496063D01*
X171156697Y-112378226D01*
X171175133Y-112250000D01*
X171156697Y-112121774D01*
X171102882Y-112003937D01*
X171018049Y-111906033D01*
X170909069Y-111835996D01*
X170909065Y-111835994D01*
X170909064Y-111835994D01*
X170784774Y-111799500D01*
X170784772Y-111799500D01*
X170655228Y-111799500D01*
X170655226Y-111799500D01*
X170530935Y-111835994D01*
X170530932Y-111835995D01*
X170530931Y-111835996D01*
X170479677Y-111868934D01*
X170421950Y-111906033D01*
X170337118Y-112003937D01*
X170337117Y-112003938D01*
X170283302Y-112121774D01*
X170264867Y-112250000D01*
X170283302Y-112378225D01*
X170337117Y-112496061D01*
X170337118Y-112496063D01*
X170378913Y-112544298D01*
X170407937Y-112607854D01*
X170397993Y-112677013D01*
X170352237Y-112729816D01*
X170285199Y-112749500D01*
X170027924Y-112749500D01*
X169960885Y-112729815D01*
X169915130Y-112677011D01*
X169905186Y-112607853D01*
X169905560Y-112606128D01*
X169906695Y-112598228D01*
X169906697Y-112598226D01*
X169925133Y-112470000D01*
X169906697Y-112341774D01*
X169852882Y-112223937D01*
X169768049Y-112126033D01*
X169659069Y-112055996D01*
X169659065Y-112055994D01*
X169659064Y-112055994D01*
X169534774Y-112019500D01*
X169534772Y-112019500D01*
X169405228Y-112019500D01*
X169405226Y-112019500D01*
X169280935Y-112055994D01*
X169280932Y-112055995D01*
X169280931Y-112055996D01*
X169229677Y-112088934D01*
X169171950Y-112126033D01*
X169087118Y-112223937D01*
X169087117Y-112223938D01*
X169033302Y-112341774D01*
X169014867Y-112470000D01*
X169034565Y-112607004D01*
X169031058Y-112607508D01*
X169031042Y-112660472D01*
X168993249Y-112719238D01*
X168929685Y-112748243D01*
X168912076Y-112749500D01*
X165466116Y-112749500D01*
X165379884Y-112749500D01*
X165324354Y-112764379D01*
X165296589Y-112771819D01*
X165276552Y-112783388D01*
X165214553Y-112800000D01*
X126124500Y-112800000D01*
X126057461Y-112780315D01*
X126011706Y-112727511D01*
X126000500Y-112676000D01*
X126000500Y-111500000D01*
X174744867Y-111500000D01*
X174763302Y-111628225D01*
X174779869Y-111664500D01*
X174817118Y-111746063D01*
X174901951Y-111843967D01*
X175010931Y-111914004D01*
X175135225Y-111950499D01*
X175135227Y-111950500D01*
X175135228Y-111950500D01*
X175264773Y-111950500D01*
X175264773Y-111950499D01*
X175389069Y-111914004D01*
X175498049Y-111843967D01*
X175582882Y-111746063D01*
X175636697Y-111628226D01*
X175655133Y-111500000D01*
X175636697Y-111371774D01*
X175582882Y-111253937D01*
X175498049Y-111156033D01*
X175389069Y-111085996D01*
X175389065Y-111085994D01*
X175389064Y-111085994D01*
X175264774Y-111049500D01*
X175264772Y-111049500D01*
X175135228Y-111049500D01*
X175135226Y-111049500D01*
X175010935Y-111085994D01*
X175010932Y-111085995D01*
X175010931Y-111085996D01*
X174959677Y-111118934D01*
X174901950Y-111156033D01*
X174817118Y-111253937D01*
X174817117Y-111253938D01*
X174763302Y-111371774D01*
X174744867Y-111500000D01*
X126000500Y-111500000D01*
X126000500Y-109300000D01*
X161944867Y-109300000D01*
X161963302Y-109428225D01*
X162013956Y-109539139D01*
X162017118Y-109546063D01*
X162101951Y-109643967D01*
X162210931Y-109714004D01*
X162335225Y-109750499D01*
X162335227Y-109750500D01*
X162335228Y-109750500D01*
X162464773Y-109750500D01*
X162464773Y-109750499D01*
X162589069Y-109714004D01*
X162698049Y-109643967D01*
X162782882Y-109546063D01*
X162836697Y-109428226D01*
X162855133Y-109300000D01*
X162836697Y-109171774D01*
X162782882Y-109053937D01*
X162698049Y-108956033D01*
X162589069Y-108885996D01*
X162589065Y-108885994D01*
X162589064Y-108885994D01*
X162464774Y-108849500D01*
X162464772Y-108849500D01*
X162335228Y-108849500D01*
X162335226Y-108849500D01*
X162210935Y-108885994D01*
X162210932Y-108885995D01*
X162210931Y-108885996D01*
X162159677Y-108918934D01*
X162101950Y-108956033D01*
X162017118Y-109053937D01*
X162017117Y-109053938D01*
X161963302Y-109171774D01*
X161944867Y-109300000D01*
X126000500Y-109300000D01*
X126000500Y-108638272D01*
X173381043Y-108638272D01*
X173399478Y-108766497D01*
X173425711Y-108823937D01*
X173453294Y-108884335D01*
X173538127Y-108982239D01*
X173647107Y-109052276D01*
X173771401Y-109088771D01*
X173771403Y-109088772D01*
X173771404Y-109088772D01*
X173900947Y-109088772D01*
X173900948Y-109088772D01*
X173913914Y-109084965D01*
X173983783Y-109084965D01*
X174042562Y-109122739D01*
X174071586Y-109186292D01*
X174073301Y-109198221D01*
X174073302Y-109198224D01*
X174073303Y-109198226D01*
X174127118Y-109316063D01*
X174211951Y-109413967D01*
X174271863Y-109452470D01*
X174281864Y-109458897D01*
X174327619Y-109511701D01*
X174337563Y-109580860D01*
X174308538Y-109644416D01*
X174281865Y-109667528D01*
X174221951Y-109706032D01*
X174137118Y-109803937D01*
X174137117Y-109803938D01*
X174083302Y-109921774D01*
X174064867Y-110050000D01*
X174083302Y-110178225D01*
X174094633Y-110203035D01*
X174137118Y-110296063D01*
X174221951Y-110393967D01*
X174330931Y-110464004D01*
X174455225Y-110500499D01*
X174455227Y-110500500D01*
X174455228Y-110500500D01*
X174584773Y-110500500D01*
X174584773Y-110500499D01*
X174709069Y-110464004D01*
X174818049Y-110393967D01*
X174902882Y-110296063D01*
X174956697Y-110178226D01*
X174975133Y-110050000D01*
X174956697Y-109921774D01*
X174902882Y-109803937D01*
X174818049Y-109706033D01*
X174818048Y-109706032D01*
X174748134Y-109661101D01*
X174702380Y-109608297D01*
X174692436Y-109539139D01*
X174721461Y-109475583D01*
X174748133Y-109452472D01*
X174808049Y-109413967D01*
X174892882Y-109316063D01*
X174946697Y-109198226D01*
X174965133Y-109070000D01*
X174946697Y-108941774D01*
X174892882Y-108823937D01*
X174808049Y-108726033D01*
X174699069Y-108655996D01*
X174699065Y-108655994D01*
X174699064Y-108655994D01*
X174574774Y-108619500D01*
X174574772Y-108619500D01*
X174445228Y-108619500D01*
X174445226Y-108619500D01*
X174432255Y-108623308D01*
X174362385Y-108623304D01*
X174303609Y-108585527D01*
X174274588Y-108521974D01*
X174272873Y-108510047D01*
X174219058Y-108392210D01*
X174219058Y-108392209D01*
X174134225Y-108294305D01*
X174025245Y-108224268D01*
X174025241Y-108224266D01*
X174025240Y-108224266D01*
X173900950Y-108187772D01*
X173900948Y-108187772D01*
X173771404Y-108187772D01*
X173771402Y-108187772D01*
X173647111Y-108224266D01*
X173647108Y-108224267D01*
X173647107Y-108224268D01*
X173595853Y-108257206D01*
X173538126Y-108294305D01*
X173453294Y-108392209D01*
X173453293Y-108392210D01*
X173399478Y-108510046D01*
X173381043Y-108638272D01*
X126000500Y-108638272D01*
X126000500Y-107390000D01*
X174404867Y-107390000D01*
X174423302Y-107518225D01*
X174473539Y-107628226D01*
X174477118Y-107636063D01*
X174561951Y-107733967D01*
X174670931Y-107804004D01*
X174795225Y-107840499D01*
X174795227Y-107840500D01*
X174795228Y-107840500D01*
X174924773Y-107840500D01*
X174924773Y-107840499D01*
X175049069Y-107804004D01*
X175158049Y-107733967D01*
X175242882Y-107636063D01*
X175296697Y-107518226D01*
X175315133Y-107390000D01*
X175296697Y-107261774D01*
X175242882Y-107143937D01*
X175158049Y-107046033D01*
X175049069Y-106975996D01*
X175049065Y-106975994D01*
X175049064Y-106975994D01*
X174924774Y-106939500D01*
X174924772Y-106939500D01*
X174795228Y-106939500D01*
X174795226Y-106939500D01*
X174670935Y-106975994D01*
X174670932Y-106975995D01*
X174670931Y-106975996D01*
X174619677Y-107008934D01*
X174561950Y-107046033D01*
X174477118Y-107143937D01*
X174477117Y-107143938D01*
X174423302Y-107261774D01*
X174404867Y-107390000D01*
X126000500Y-107390000D01*
X126000500Y-105300000D01*
X161944867Y-105300000D01*
X161963302Y-105428225D01*
X162017117Y-105546061D01*
X162017118Y-105546063D01*
X162101951Y-105643967D01*
X162210931Y-105714004D01*
X162335225Y-105750499D01*
X162335227Y-105750500D01*
X162335228Y-105750500D01*
X162464773Y-105750500D01*
X162464773Y-105750499D01*
X162589069Y-105714004D01*
X162698049Y-105643967D01*
X162782882Y-105546063D01*
X162836697Y-105428226D01*
X162855133Y-105300000D01*
X162836697Y-105171774D01*
X162782882Y-105053937D01*
X162698049Y-104956033D01*
X162589069Y-104885996D01*
X162589065Y-104885994D01*
X162589064Y-104885994D01*
X162464774Y-104849500D01*
X162464772Y-104849500D01*
X162335228Y-104849500D01*
X162335226Y-104849500D01*
X162210935Y-104885994D01*
X162210932Y-104885995D01*
X162210931Y-104885996D01*
X162159677Y-104918934D01*
X162101950Y-104956033D01*
X162017118Y-105053937D01*
X162017117Y-105053938D01*
X161963302Y-105171774D01*
X161944867Y-105300000D01*
X126000500Y-105300000D01*
X126000500Y-101500000D01*
X129844867Y-101500000D01*
X129863302Y-101628225D01*
X129871449Y-101646063D01*
X129917118Y-101746063D01*
X130001951Y-101843967D01*
X130110931Y-101914004D01*
X130235225Y-101950499D01*
X130235227Y-101950500D01*
X130235228Y-101950500D01*
X130364773Y-101950500D01*
X130364773Y-101950499D01*
X130489069Y-101914004D01*
X130598049Y-101843967D01*
X130682882Y-101746063D01*
X130736697Y-101628226D01*
X130755133Y-101500000D01*
X130740755Y-101400000D01*
X147244867Y-101400000D01*
X147263302Y-101528225D01*
X147308972Y-101628226D01*
X147317118Y-101646063D01*
X147401951Y-101743967D01*
X147510931Y-101814004D01*
X147635225Y-101850499D01*
X147635227Y-101850500D01*
X147635228Y-101850500D01*
X147764773Y-101850500D01*
X147764773Y-101850499D01*
X147889069Y-101814004D01*
X147998049Y-101743967D01*
X148082882Y-101646063D01*
X148136697Y-101528226D01*
X148155133Y-101400000D01*
X180244867Y-101400000D01*
X180263302Y-101528225D01*
X180308972Y-101628226D01*
X180317118Y-101646063D01*
X180401951Y-101743967D01*
X180510931Y-101814004D01*
X180635225Y-101850499D01*
X180635227Y-101850500D01*
X180635228Y-101850500D01*
X180764773Y-101850500D01*
X180764773Y-101850499D01*
X180889069Y-101814004D01*
X180998049Y-101743967D01*
X181082882Y-101646063D01*
X181136697Y-101528226D01*
X181155133Y-101400000D01*
X187244867Y-101400000D01*
X187263302Y-101528225D01*
X187308972Y-101628226D01*
X187317118Y-101646063D01*
X187401951Y-101743967D01*
X187510931Y-101814004D01*
X187635225Y-101850499D01*
X187635227Y-101850500D01*
X187635228Y-101850500D01*
X187764773Y-101850500D01*
X187764773Y-101850499D01*
X187889069Y-101814004D01*
X187998049Y-101743967D01*
X188082882Y-101646063D01*
X188136697Y-101528226D01*
X188155133Y-101400000D01*
X188136697Y-101271774D01*
X188082882Y-101153937D01*
X187998049Y-101056033D01*
X187889069Y-100985996D01*
X187889065Y-100985994D01*
X187889064Y-100985994D01*
X187764774Y-100949500D01*
X187764772Y-100949500D01*
X187635228Y-100949500D01*
X187635226Y-100949500D01*
X187510935Y-100985994D01*
X187510932Y-100985995D01*
X187510931Y-100985996D01*
X187459677Y-101018934D01*
X187401950Y-101056033D01*
X187317118Y-101153937D01*
X187317117Y-101153938D01*
X187263302Y-101271774D01*
X187244867Y-101400000D01*
X181155133Y-101400000D01*
X181136697Y-101271774D01*
X181082882Y-101153937D01*
X180998049Y-101056033D01*
X180889069Y-100985996D01*
X180889065Y-100985994D01*
X180889064Y-100985994D01*
X180764774Y-100949500D01*
X180764772Y-100949500D01*
X180635228Y-100949500D01*
X180635226Y-100949500D01*
X180510935Y-100985994D01*
X180510932Y-100985995D01*
X180510931Y-100985996D01*
X180459677Y-101018934D01*
X180401950Y-101056033D01*
X180317118Y-101153937D01*
X180317117Y-101153938D01*
X180263302Y-101271774D01*
X180244867Y-101400000D01*
X148155133Y-101400000D01*
X148136697Y-101271774D01*
X148082882Y-101153937D01*
X147998049Y-101056033D01*
X147889069Y-100985996D01*
X147889065Y-100985994D01*
X147889064Y-100985994D01*
X147764774Y-100949500D01*
X147764772Y-100949500D01*
X147635228Y-100949500D01*
X147635226Y-100949500D01*
X147510935Y-100985994D01*
X147510932Y-100985995D01*
X147510931Y-100985996D01*
X147459677Y-101018934D01*
X147401950Y-101056033D01*
X147317118Y-101153937D01*
X147317117Y-101153938D01*
X147263302Y-101271774D01*
X147244867Y-101400000D01*
X130740755Y-101400000D01*
X130736697Y-101371774D01*
X130682882Y-101253937D01*
X130598049Y-101156033D01*
X130489069Y-101085996D01*
X130489065Y-101085994D01*
X130489064Y-101085994D01*
X130364774Y-101049500D01*
X130364772Y-101049500D01*
X130235228Y-101049500D01*
X130235226Y-101049500D01*
X130110935Y-101085994D01*
X130110932Y-101085995D01*
X130110931Y-101085996D01*
X130059677Y-101118934D01*
X130001950Y-101156033D01*
X129917118Y-101253937D01*
X129917117Y-101253938D01*
X129863302Y-101371774D01*
X129844867Y-101500000D01*
X126000500Y-101500000D01*
X126000500Y-98124500D01*
X126020185Y-98057461D01*
X126072989Y-98011706D01*
X126124500Y-98000500D01*
X193976000Y-98000500D01*
X194043039Y-98020185D01*
G37*
G04 #@! TD.AperFunction*
G04 #@! TA.AperFunction,Conductor*
G36*
X195115677Y-109319685D02*
G01*
X195136319Y-109336319D01*
X195963681Y-110163681D01*
X195997166Y-110225004D01*
X196000000Y-110251362D01*
X196000000Y-113900000D01*
X178900000Y-113900000D01*
X178900000Y-110000000D01*
X178900000Y-109424000D01*
X178919685Y-109356961D01*
X178972489Y-109311206D01*
X179024000Y-109300000D01*
X195048638Y-109300000D01*
X195115677Y-109319685D01*
G37*
G04 #@! TD.AperFunction*
M02*
