G04 #@! TF.GenerationSoftware,KiCad,Pcbnew,8.0.7*
G04 #@! TF.CreationDate,2025-05-18T15:53:11-04:00*
G04 #@! TF.ProjectId,protovolt,70726f74-6f76-46f6-9c74-2e6b69636164,rev?*
G04 #@! TF.SameCoordinates,Original*
G04 #@! TF.FileFunction,Copper,L1,Top*
G04 #@! TF.FilePolarity,Positive*
%FSLAX46Y46*%
G04 Gerber Fmt 4.6, Leading zero omitted, Abs format (unit mm)*
G04 Created by KiCad (PCBNEW 8.0.7) date 2025-05-18 15:53:11*
%MOMM*%
%LPD*%
G01*
G04 APERTURE LIST*
G04 Aperture macros list*
%AMRoundRect*
0 Rectangle with rounded corners*
0 $1 Rounding radius*
0 $2 $3 $4 $5 $6 $7 $8 $9 X,Y pos of 4 corners*
0 Add a 4 corners polygon primitive as box body*
4,1,4,$2,$3,$4,$5,$6,$7,$8,$9,$2,$3,0*
0 Add four circle primitives for the rounded corners*
1,1,$1+$1,$2,$3*
1,1,$1+$1,$4,$5*
1,1,$1+$1,$6,$7*
1,1,$1+$1,$8,$9*
0 Add four rect primitives between the rounded corners*
20,1,$1+$1,$2,$3,$4,$5,0*
20,1,$1+$1,$4,$5,$6,$7,0*
20,1,$1+$1,$6,$7,$8,$9,0*
20,1,$1+$1,$8,$9,$2,$3,0*%
%AMFreePoly0*
4,1,17,1.395000,0.765000,0.855000,0.765000,0.855000,0.535000,1.395000,0.535000,1.395000,0.115000,0.855000,0.115000,0.855000,-0.115000,1.395000,-0.115000,1.395000,-0.535000,0.855000,-0.535000,0.855000,-0.765000,1.395000,-0.765000,1.395000,-1.185000,-0.855000,-1.185000,-0.855000,1.185000,1.395000,1.185000,1.395000,0.765000,1.395000,0.765000,$1*%
G04 Aperture macros list end*
G04 #@! TA.AperFunction,EtchedComponent*
%ADD10C,0.000000*%
G04 #@! TD*
G04 #@! TA.AperFunction,SMDPad,CuDef*
%ADD11C,0.250000*%
G04 #@! TD*
G04 #@! TA.AperFunction,SMDPad,CuDef*
%ADD12RoundRect,0.250000X0.325000X1.100000X-0.325000X1.100000X-0.325000X-1.100000X0.325000X-1.100000X0*%
G04 #@! TD*
G04 #@! TA.AperFunction,SMDPad,CuDef*
%ADD13RoundRect,0.250000X-0.325000X-1.100000X0.325000X-1.100000X0.325000X1.100000X-0.325000X1.100000X0*%
G04 #@! TD*
G04 #@! TA.AperFunction,SMDPad,CuDef*
%ADD14RoundRect,0.250000X0.250000X0.475000X-0.250000X0.475000X-0.250000X-0.475000X0.250000X-0.475000X0*%
G04 #@! TD*
G04 #@! TA.AperFunction,SMDPad,CuDef*
%ADD15RoundRect,0.135000X0.135000X0.185000X-0.135000X0.185000X-0.135000X-0.185000X0.135000X-0.185000X0*%
G04 #@! TD*
G04 #@! TA.AperFunction,SMDPad,CuDef*
%ADD16R,2.510000X1.000000*%
G04 #@! TD*
G04 #@! TA.AperFunction,SMDPad,CuDef*
%ADD17RoundRect,0.140000X0.140000X0.170000X-0.140000X0.170000X-0.140000X-0.170000X0.140000X-0.170000X0*%
G04 #@! TD*
G04 #@! TA.AperFunction,SMDPad,CuDef*
%ADD18RoundRect,0.135000X0.185000X-0.135000X0.185000X0.135000X-0.185000X0.135000X-0.185000X-0.135000X0*%
G04 #@! TD*
G04 #@! TA.AperFunction,SMDPad,CuDef*
%ADD19RoundRect,0.135000X-0.135000X-0.185000X0.135000X-0.185000X0.135000X0.185000X-0.135000X0.185000X0*%
G04 #@! TD*
G04 #@! TA.AperFunction,SMDPad,CuDef*
%ADD20R,1.000000X3.150000*%
G04 #@! TD*
G04 #@! TA.AperFunction,SMDPad,CuDef*
%ADD21RoundRect,0.250000X-1.100000X0.325000X-1.100000X-0.325000X1.100000X-0.325000X1.100000X0.325000X0*%
G04 #@! TD*
G04 #@! TA.AperFunction,SMDPad,CuDef*
%ADD22RoundRect,0.135000X-0.185000X0.135000X-0.185000X-0.135000X0.185000X-0.135000X0.185000X0.135000X0*%
G04 #@! TD*
G04 #@! TA.AperFunction,SMDPad,CuDef*
%ADD23RoundRect,0.062500X-0.062500X0.350000X-0.062500X-0.350000X0.062500X-0.350000X0.062500X0.350000X0*%
G04 #@! TD*
G04 #@! TA.AperFunction,SMDPad,CuDef*
%ADD24RoundRect,0.062500X-0.350000X0.062500X-0.350000X-0.062500X0.350000X-0.062500X0.350000X0.062500X0*%
G04 #@! TD*
G04 #@! TA.AperFunction,HeatsinkPad*
%ADD25C,0.500000*%
G04 #@! TD*
G04 #@! TA.AperFunction,HeatsinkPad*
%ADD26R,4.600000X4.600000*%
G04 #@! TD*
G04 #@! TA.AperFunction,ComponentPad*
%ADD27C,0.600000*%
G04 #@! TD*
G04 #@! TA.AperFunction,SMDPad,CuDef*
%ADD28RoundRect,1.025000X-1.025000X-1.025000X1.025000X-1.025000X1.025000X1.025000X-1.025000X1.025000X0*%
G04 #@! TD*
G04 #@! TA.AperFunction,SMDPad,CuDef*
%ADD29RoundRect,0.140000X-0.140000X-0.170000X0.140000X-0.170000X0.140000X0.170000X-0.140000X0.170000X0*%
G04 #@! TD*
G04 #@! TA.AperFunction,SMDPad,CuDef*
%ADD30RoundRect,0.075000X-0.650000X-0.075000X0.650000X-0.075000X0.650000X0.075000X-0.650000X0.075000X0*%
G04 #@! TD*
G04 #@! TA.AperFunction,SMDPad,CuDef*
%ADD31RoundRect,0.105000X0.105000X-0.245000X0.105000X0.245000X-0.105000X0.245000X-0.105000X-0.245000X0*%
G04 #@! TD*
G04 #@! TA.AperFunction,SMDPad,CuDef*
%ADD32FreePoly0,90.000000*%
G04 #@! TD*
G04 #@! TA.AperFunction,SMDPad,CuDef*
%ADD33FreePoly0,180.000000*%
G04 #@! TD*
G04 #@! TA.AperFunction,SMDPad,CuDef*
%ADD34RoundRect,0.105000X0.245000X0.105000X-0.245000X0.105000X-0.245000X-0.105000X0.245000X-0.105000X0*%
G04 #@! TD*
G04 #@! TA.AperFunction,SMDPad,CuDef*
%ADD35FreePoly0,0.000000*%
G04 #@! TD*
G04 #@! TA.AperFunction,SMDPad,CuDef*
%ADD36RoundRect,0.105000X-0.245000X-0.105000X0.245000X-0.105000X0.245000X0.105000X-0.245000X0.105000X0*%
G04 #@! TD*
G04 #@! TA.AperFunction,SMDPad,CuDef*
%ADD37RoundRect,0.479593X-1.520407X0.695407X-1.520407X-0.695407X1.520407X-0.695407X1.520407X0.695407X0*%
G04 #@! TD*
G04 #@! TA.AperFunction,SMDPad,CuDef*
%ADD38RoundRect,0.140000X0.170000X-0.140000X0.170000X0.140000X-0.170000X0.140000X-0.170000X-0.140000X0*%
G04 #@! TD*
G04 #@! TA.AperFunction,SMDPad,CuDef*
%ADD39RoundRect,0.140000X-0.170000X0.140000X-0.170000X-0.140000X0.170000X-0.140000X0.170000X0.140000X0*%
G04 #@! TD*
G04 #@! TA.AperFunction,SMDPad,CuDef*
%ADD40RoundRect,0.250000X-1.000000X1.950000X-1.000000X-1.950000X1.000000X-1.950000X1.000000X1.950000X0*%
G04 #@! TD*
G04 #@! TA.AperFunction,SMDPad,CuDef*
%ADD41RoundRect,0.150000X-0.150000X-0.200000X0.150000X-0.200000X0.150000X0.200000X-0.150000X0.200000X0*%
G04 #@! TD*
G04 #@! TA.AperFunction,SMDPad,CuDef*
%ADD42RoundRect,0.479593X1.520407X-0.695407X1.520407X0.695407X-1.520407X0.695407X-1.520407X-0.695407X0*%
G04 #@! TD*
G04 #@! TA.AperFunction,ViaPad*
%ADD43C,0.500000*%
G04 #@! TD*
G04 #@! TA.AperFunction,Conductor*
%ADD44C,0.254000*%
G04 #@! TD*
G04 #@! TA.AperFunction,Conductor*
%ADD45C,0.381000*%
G04 #@! TD*
G04 #@! TA.AperFunction,Conductor*
%ADD46C,0.200000*%
G04 #@! TD*
G04 APERTURE END LIST*
D10*
G04 #@! TA.AperFunction,EtchedComponent*
G36*
X171565000Y-113360000D02*
G01*
X171315000Y-113360000D01*
X171315000Y-112490000D01*
X171565000Y-112490000D01*
X171565000Y-113360000D01*
G37*
G04 #@! TD.AperFunction*
D11*
X171440000Y-113360000D03*
X171440000Y-112490000D03*
D12*
X183750000Y-124700000D03*
X186700000Y-124700000D03*
X183750000Y-121500000D03*
X186700000Y-121500000D03*
D13*
X185275000Y-115100000D03*
X182325000Y-115100000D03*
X185275000Y-118300000D03*
X182325000Y-118300000D03*
D14*
X156950000Y-120000000D03*
X155050000Y-120000000D03*
D15*
X164047500Y-108300000D03*
X163027500Y-108300000D03*
X167000000Y-103300000D03*
X165980000Y-103300000D03*
D16*
X142445000Y-106540000D03*
X145755000Y-104000000D03*
X142445000Y-101460000D03*
D17*
X162167500Y-108300000D03*
X161207500Y-108300000D03*
D18*
X195450000Y-107510000D03*
X195450000Y-106490000D03*
D19*
X176190000Y-107600000D03*
X177210000Y-107600000D03*
D20*
X127920000Y-122525000D03*
X127920000Y-117475000D03*
X130460000Y-122525000D03*
X130460000Y-117475000D03*
X133000000Y-122525000D03*
X133000000Y-117475000D03*
D16*
X149345000Y-106540000D03*
X152655000Y-104000000D03*
X149345000Y-101460000D03*
D15*
X168910000Y-103300000D03*
X167890000Y-103300000D03*
D16*
X205845000Y-106590000D03*
X209155000Y-104050000D03*
X205845000Y-101510000D03*
D21*
X202700000Y-123975000D03*
X202700000Y-121025000D03*
D15*
X164047500Y-103300000D03*
X163027500Y-103300000D03*
D22*
X166237500Y-114235000D03*
X166237500Y-113215000D03*
D19*
X162510000Y-114800000D03*
X161490000Y-114800000D03*
D16*
X212790000Y-101510000D03*
X216100000Y-104050000D03*
X212790000Y-106590000D03*
D19*
X163037500Y-110300000D03*
X164057500Y-110300000D03*
D18*
X196400000Y-107510000D03*
X196400000Y-106490000D03*
D16*
X182345000Y-106540000D03*
X185655000Y-104000000D03*
X182345000Y-101460000D03*
D23*
X172350000Y-105262500D03*
X171850000Y-105262500D03*
X171350000Y-105262500D03*
X170850000Y-105262500D03*
X170350000Y-105262500D03*
X169850000Y-105262500D03*
X169350000Y-105262500D03*
X168850000Y-105262500D03*
X168350000Y-105262500D03*
X167850000Y-105262500D03*
D24*
X167162500Y-105950000D03*
X167162500Y-106450000D03*
X167162500Y-106950000D03*
X167162500Y-107450000D03*
X167162500Y-107950000D03*
X167162500Y-108450000D03*
X167162500Y-108950000D03*
X167162500Y-109450000D03*
X167162500Y-109950000D03*
X167162500Y-110450000D03*
D23*
X167850000Y-111137500D03*
X168350000Y-111137500D03*
X168850000Y-111137500D03*
X169350000Y-111137500D03*
X169850000Y-111137500D03*
X170350000Y-111137500D03*
X170850000Y-111137500D03*
X171350000Y-111137500D03*
X171850000Y-111137500D03*
X172350000Y-111137500D03*
D24*
X173037500Y-110450000D03*
X173037500Y-109950000D03*
X173037500Y-109450000D03*
X173037500Y-108950000D03*
X173037500Y-108450000D03*
X173037500Y-107950000D03*
X173037500Y-107450000D03*
X173037500Y-106950000D03*
X173037500Y-106450000D03*
X173037500Y-105950000D03*
D25*
X172150000Y-106150000D03*
X171125000Y-106150000D03*
X170100000Y-106150000D03*
X169075000Y-106150000D03*
X168050000Y-106150000D03*
X172150000Y-107175000D03*
X171125000Y-107175000D03*
X170100000Y-107175000D03*
X169075000Y-107175000D03*
X168050000Y-107175000D03*
X172150000Y-108200000D03*
X171125000Y-108200000D03*
X170100000Y-108200000D03*
D26*
X170100000Y-108200000D03*
D25*
X169075000Y-108200000D03*
X168050000Y-108200000D03*
X172150000Y-109225000D03*
X171125000Y-109225000D03*
X170100000Y-109225000D03*
X169075000Y-109225000D03*
X168050000Y-109225000D03*
X172150000Y-110250000D03*
X171125000Y-110250000D03*
X170100000Y-110250000D03*
X169075000Y-110250000D03*
X168050000Y-110250000D03*
D17*
X167182500Y-112272500D03*
X168142500Y-112272500D03*
D22*
X199350000Y-107490000D03*
X199350000Y-108510000D03*
D16*
X128645000Y-101460000D03*
X131955000Y-104000000D03*
X128645000Y-106540000D03*
D22*
X198350000Y-107490000D03*
X198350000Y-108510000D03*
D15*
X164057500Y-106300000D03*
X163037500Y-106300000D03*
D18*
X197350000Y-107510000D03*
X197350000Y-106490000D03*
D19*
X163037500Y-105300000D03*
X164057500Y-105300000D03*
D22*
X165237500Y-114235000D03*
X165237500Y-113215000D03*
D15*
X180910000Y-120600000D03*
X179890000Y-120600000D03*
D17*
X164022500Y-111300000D03*
X163062500Y-111300000D03*
D16*
X135545000Y-106540000D03*
X138855000Y-104000000D03*
X135545000Y-101460000D03*
D17*
X164027500Y-104300000D03*
X163067500Y-104300000D03*
D22*
X167182500Y-114235000D03*
X167182500Y-113215000D03*
D27*
X176250000Y-120550000D03*
X176250000Y-119350000D03*
X175750000Y-121150000D03*
X175750000Y-119950000D03*
X175750000Y-118700000D03*
X175250000Y-120550000D03*
X175250000Y-119350000D03*
X174750000Y-121150000D03*
D28*
X174750000Y-120000000D03*
D27*
X174750000Y-119950000D03*
X174750000Y-118700000D03*
X174250000Y-120550000D03*
X174250000Y-119350000D03*
X173750000Y-121150000D03*
X173750000Y-119950000D03*
X173750000Y-118700000D03*
X173250000Y-120550000D03*
X173250000Y-119350000D03*
X166750000Y-120600000D03*
X166750000Y-119400000D03*
X166250000Y-121200000D03*
X166250000Y-120000000D03*
X166250000Y-118750000D03*
X165750000Y-120600000D03*
X165750000Y-119400000D03*
X165250000Y-121200000D03*
D28*
X165250000Y-120000000D03*
D27*
X165250000Y-120000000D03*
X165250000Y-118750000D03*
X164750000Y-120600000D03*
X164750000Y-119400000D03*
X164250000Y-121200000D03*
X164250000Y-120000000D03*
X164250000Y-118750000D03*
X163750000Y-120600000D03*
X163750000Y-119400000D03*
D15*
X204210000Y-113200000D03*
X203190000Y-113200000D03*
D19*
X181310000Y-125600000D03*
X182330000Y-125600000D03*
D29*
X176207500Y-103300000D03*
X177167500Y-103300000D03*
D19*
X163027500Y-109300000D03*
X164047500Y-109300000D03*
D16*
X189345000Y-106540000D03*
X192655000Y-104000000D03*
X189345000Y-101460000D03*
D22*
X173800000Y-112480000D03*
X173800000Y-113500000D03*
D30*
X195950000Y-103300000D03*
X195950000Y-103800000D03*
X195950000Y-104300000D03*
X195950000Y-104800000D03*
X195950000Y-105300000D03*
X200350000Y-105300000D03*
X200350000Y-104800000D03*
X200350000Y-104300000D03*
X200350000Y-103800000D03*
X200350000Y-103300000D03*
D15*
X159090000Y-114800000D03*
X160110000Y-114800000D03*
X156000000Y-125400000D03*
X154980000Y-125400000D03*
D22*
X168137500Y-114235000D03*
X168137500Y-113215000D03*
D17*
X164017500Y-107300000D03*
X163057500Y-107300000D03*
D15*
X180910000Y-119400000D03*
X179890000Y-119400000D03*
D31*
X201790000Y-117320000D03*
X202440000Y-117320000D03*
X203090000Y-117320000D03*
X203740000Y-117320000D03*
D32*
X202765000Y-115365000D03*
D33*
X156045000Y-116975000D03*
D34*
X158000000Y-116000000D03*
X158000000Y-116650000D03*
X158000000Y-117300000D03*
X158000000Y-117950000D03*
D35*
X179765000Y-117025000D03*
D36*
X177810000Y-118000000D03*
X177810000Y-117350000D03*
X177810000Y-116700000D03*
X177810000Y-116050000D03*
D35*
X156955000Y-122975000D03*
D36*
X155000000Y-123950000D03*
X155000000Y-123300000D03*
X155000000Y-122650000D03*
X155000000Y-122000000D03*
D33*
X178875000Y-123025000D03*
D34*
X180830000Y-122050000D03*
X180830000Y-122700000D03*
X180830000Y-123350000D03*
X180830000Y-124000000D03*
D37*
X160800000Y-124050000D03*
X160800000Y-119150000D03*
D38*
X174800000Y-113460000D03*
X174800000Y-112500000D03*
D17*
X176300000Y-108600000D03*
X175340000Y-108600000D03*
X164017500Y-112275000D03*
X163057500Y-112275000D03*
D39*
X200350000Y-106520000D03*
X200350000Y-107480000D03*
D29*
X166217500Y-112275000D03*
X165257500Y-112275000D03*
X198370000Y-106550000D03*
X199330000Y-106550000D03*
D17*
X169057500Y-113225000D03*
X170017500Y-113225000D03*
D38*
X161500000Y-115720000D03*
X161500000Y-116680000D03*
D29*
X176232500Y-104300000D03*
X177192500Y-104300000D03*
D39*
X172800000Y-113480000D03*
X172800000Y-112520000D03*
D17*
X177192500Y-105300000D03*
X176232500Y-105300000D03*
X177180000Y-109600000D03*
X176220000Y-109600000D03*
D29*
X179440000Y-125600000D03*
X180400000Y-125600000D03*
D40*
X149800000Y-123700000D03*
X149800000Y-116300000D03*
X192050000Y-116250000D03*
X192050000Y-123650000D03*
D41*
X204100000Y-118700000D03*
X202700000Y-118700000D03*
D42*
X198800000Y-114950000D03*
X198800000Y-119850000D03*
D20*
X210960000Y-122525000D03*
X210960000Y-117475000D03*
X213500000Y-122525000D03*
X213500000Y-117475000D03*
X216040000Y-122525000D03*
X216040000Y-117475000D03*
D43*
X209000000Y-116500000D03*
X209000000Y-118500000D03*
X209000000Y-117500000D03*
X209500000Y-119000000D03*
X209500000Y-115900000D03*
X213000000Y-117500000D03*
X213000000Y-118500000D03*
X213000000Y-116500000D03*
X212500000Y-116000000D03*
X212500000Y-119000000D03*
X215000000Y-119000000D03*
X215000000Y-116000000D03*
X215500000Y-117500000D03*
X215500000Y-118500000D03*
X215500000Y-116500000D03*
X178000000Y-112000000D03*
X178000000Y-111000000D03*
X161500000Y-112000000D03*
X154500000Y-109500000D03*
X158500000Y-107500000D03*
X217500000Y-101500000D03*
X214000000Y-108000000D03*
X217000000Y-108500000D03*
X214500000Y-112000000D03*
X203000000Y-106500000D03*
X206000000Y-108000000D03*
X208000000Y-105500000D03*
X205000000Y-103000000D03*
X209500000Y-107500000D03*
X212000000Y-109000000D03*
X205500000Y-111500000D03*
X204500000Y-110500000D03*
X202000000Y-111500000D03*
X202500000Y-110500000D03*
X197500000Y-110000000D03*
X197000000Y-108500000D03*
X200000000Y-111000000D03*
X201000000Y-109000000D03*
X217000000Y-100500000D03*
X216000000Y-109500000D03*
X217000000Y-107000000D03*
X215500000Y-108000000D03*
X216000000Y-105500000D03*
X213500000Y-103500000D03*
X212000000Y-104500000D03*
X212500000Y-103000000D03*
X209500000Y-102000000D03*
X197000000Y-101000000D03*
X195000000Y-101000000D03*
X195000000Y-99000000D03*
X197000000Y-99000000D03*
X199000000Y-99000000D03*
X201000000Y-99000000D03*
X203000000Y-99000000D03*
X205000000Y-99000000D03*
X182500000Y-107500000D03*
X181000000Y-107500000D03*
X179000000Y-107500000D03*
X184500000Y-107500000D03*
X193000000Y-106000000D03*
X191500000Y-107500000D03*
X193000000Y-107500000D03*
X180500000Y-106500000D03*
X186000000Y-106000000D03*
X187000000Y-107500000D03*
X192000000Y-106000000D03*
X193000000Y-101000000D03*
X188500000Y-103000000D03*
X181000000Y-103000000D03*
X177500000Y-101500000D03*
X175500000Y-101000000D03*
X148000000Y-109500000D03*
X146000000Y-106500000D03*
X138500000Y-109000000D03*
X129500000Y-109500000D03*
X132000000Y-105500000D03*
X135500000Y-109500000D03*
X144500000Y-108500000D03*
X157500000Y-110000000D03*
X155000000Y-106000000D03*
X151500000Y-108500000D03*
X158000000Y-105000000D03*
X207000000Y-121500000D03*
X207000000Y-119000000D03*
X207000000Y-116500000D03*
X213000000Y-125500000D03*
X217000000Y-125500000D03*
X215000000Y-125500000D03*
X209000000Y-125500000D03*
X211000000Y-125500000D03*
X213500000Y-120500000D03*
X216000000Y-120500000D03*
X217000000Y-120500000D03*
X215000000Y-120500000D03*
X212500000Y-120500000D03*
X211000000Y-120500000D03*
X210000000Y-120500000D03*
X209500000Y-121000000D03*
X212000000Y-121000000D03*
X214500000Y-121000000D03*
X217500000Y-121000000D03*
X209500000Y-117000000D03*
X209500000Y-118000000D03*
X210000000Y-117500000D03*
X210000000Y-116500000D03*
X210000000Y-118500000D03*
X215000000Y-117000000D03*
X212000000Y-116500000D03*
X212000000Y-117500000D03*
X212500000Y-117000000D03*
X212500000Y-118000000D03*
X214500000Y-116500000D03*
X215000000Y-118000000D03*
X214500000Y-117500000D03*
X214500000Y-118500000D03*
X212000000Y-118500000D03*
X217500000Y-123000000D03*
X217500000Y-122000000D03*
X217000000Y-122500000D03*
X217000000Y-123500000D03*
X217000000Y-121500000D03*
X212000000Y-123000000D03*
X215000000Y-123500000D03*
X215000000Y-122500000D03*
X214500000Y-123000000D03*
X214500000Y-122000000D03*
X212500000Y-123500000D03*
X210000000Y-123500000D03*
X212000000Y-122000000D03*
X209500000Y-122000000D03*
X212500000Y-122500000D03*
X210000000Y-121500000D03*
X212500000Y-121500000D03*
X210000000Y-122500000D03*
X215000000Y-121500000D03*
X209500000Y-123000000D03*
X127000000Y-122500000D03*
X127000000Y-121500000D03*
X127000000Y-123500000D03*
X132000000Y-122000000D03*
X129000000Y-121500000D03*
X129000000Y-122500000D03*
X129500000Y-122000000D03*
X129500000Y-123000000D03*
X131500000Y-121500000D03*
X134000000Y-121500000D03*
X132000000Y-123000000D03*
X134500000Y-123000000D03*
X131500000Y-122500000D03*
X134000000Y-123500000D03*
X131500000Y-123500000D03*
X134000000Y-122500000D03*
X129000000Y-123500000D03*
X134500000Y-122000000D03*
X134500000Y-117000000D03*
X134000000Y-116500000D03*
X134500000Y-118000000D03*
X134000000Y-117500000D03*
X134000000Y-118500000D03*
X131500000Y-116500000D03*
X131500000Y-117500000D03*
X132000000Y-117000000D03*
X132000000Y-118000000D03*
X131500000Y-118500000D03*
X129500000Y-118000000D03*
X129500000Y-117000000D03*
X129000000Y-117500000D03*
X129000000Y-116500000D03*
X129000000Y-118500000D03*
X127000000Y-118500000D03*
X127000000Y-117500000D03*
X127000000Y-116500000D03*
X215000000Y-114000000D03*
X213000000Y-114000000D03*
X211000000Y-114000000D03*
X209000000Y-114000000D03*
X207000000Y-114000000D03*
X201800000Y-113700000D03*
X203300000Y-114300000D03*
X202300000Y-114300000D03*
X201300000Y-114300000D03*
X204300000Y-114300000D03*
X204300000Y-115400000D03*
X201300000Y-115400000D03*
X203800000Y-114900000D03*
X202800000Y-115900000D03*
X201800000Y-115900000D03*
X203800000Y-115900000D03*
X203300000Y-115400000D03*
X202300000Y-115400000D03*
X202800000Y-114900000D03*
X201800000Y-114900000D03*
X197800000Y-116100000D03*
X199800000Y-116100000D03*
X198300000Y-113500000D03*
X199300000Y-113500000D03*
X200300000Y-113500000D03*
X197300000Y-113500000D03*
X200300000Y-115600000D03*
X197300000Y-115600000D03*
X199300000Y-115600000D03*
X198300000Y-115600000D03*
X197800000Y-115100000D03*
X199300000Y-114600000D03*
X199800000Y-114100000D03*
X197300000Y-114600000D03*
X198300000Y-114600000D03*
X198800000Y-114100000D03*
X197800000Y-114100000D03*
X199800000Y-115100000D03*
X198800000Y-115100000D03*
X200300000Y-114600000D03*
X204000000Y-121500000D03*
X203500000Y-122000000D03*
X203000000Y-121500000D03*
X202000000Y-121500000D03*
X202500000Y-122000000D03*
X201500000Y-122000000D03*
X204000000Y-120500000D03*
X203500000Y-121000000D03*
X203000000Y-120500000D03*
X202000000Y-120500000D03*
X202500000Y-121000000D03*
X201500000Y-121000000D03*
X202500000Y-118000000D03*
X201500000Y-118000000D03*
X202500000Y-119000000D03*
X203000000Y-118500000D03*
X202000000Y-118500000D03*
X201500000Y-119000000D03*
X204000000Y-119500000D03*
X203500000Y-120000000D03*
X203000000Y-119500000D03*
X202000000Y-119500000D03*
X202500000Y-120000000D03*
X201500000Y-120000000D03*
X145000000Y-124000000D03*
X143000000Y-124000000D03*
X141000000Y-124000000D03*
X139000000Y-124000000D03*
X137000000Y-124000000D03*
X135000000Y-124000000D03*
X209000000Y-123500000D03*
X207000000Y-123500000D03*
X195000000Y-122000000D03*
X199000000Y-122000000D03*
X197000000Y-122000000D03*
X204000000Y-125000000D03*
X203000000Y-125000000D03*
X202000000Y-125000000D03*
X201000000Y-125000000D03*
X205500000Y-124000000D03*
X205000000Y-124500000D03*
X205000000Y-123500000D03*
X204500000Y-124000000D03*
X201000000Y-124000000D03*
X200500000Y-124500000D03*
X200500000Y-123500000D03*
X200000000Y-124000000D03*
X141000000Y-121000000D03*
X143000000Y-121000000D03*
X139000000Y-121000000D03*
X135000000Y-121000000D03*
X137000000Y-121000000D03*
X154000000Y-126500000D03*
X153500000Y-126000000D03*
X154000000Y-125500000D03*
X153500000Y-125000000D03*
X154000000Y-124500000D03*
X154500000Y-121000000D03*
X153500000Y-121000000D03*
X153500000Y-124000000D03*
X154000000Y-123500000D03*
X153500000Y-123000000D03*
X154000000Y-122500000D03*
X153500000Y-122000000D03*
X154000000Y-121500000D03*
X154500000Y-120000000D03*
X154000000Y-120500000D03*
X145500000Y-120000000D03*
X146000000Y-120500000D03*
X147000000Y-120500000D03*
X148000000Y-120500000D03*
X149000000Y-120500000D03*
X150000000Y-120500000D03*
X151000000Y-120500000D03*
X152000000Y-120500000D03*
X153000000Y-120500000D03*
X154000000Y-119500000D03*
X153500000Y-120000000D03*
X153000000Y-119500000D03*
X152500000Y-120000000D03*
X152000000Y-119500000D03*
X151500000Y-120000000D03*
X151000000Y-119500000D03*
X150500000Y-120000000D03*
X150000000Y-119500000D03*
X149500000Y-120000000D03*
X149000000Y-119500000D03*
X148500000Y-120000000D03*
X148000000Y-119500000D03*
X147500000Y-120000000D03*
X146500000Y-120000000D03*
X147000000Y-119500000D03*
X146000000Y-119500000D03*
X148750000Y-124500000D03*
X147250000Y-123000000D03*
X148750000Y-122500000D03*
X149750000Y-121500000D03*
X150750000Y-122500000D03*
X147750000Y-121500000D03*
X150750000Y-124500000D03*
X147250000Y-122000000D03*
X147750000Y-122500000D03*
X149750000Y-123500000D03*
X148250000Y-122000000D03*
X148250000Y-123000000D03*
X152250000Y-125000000D03*
X148250000Y-125000000D03*
X151750000Y-125500000D03*
X151750000Y-123500000D03*
X152250000Y-122000000D03*
X147750000Y-125500000D03*
X152250000Y-124000000D03*
X151250000Y-122000000D03*
X147750000Y-124500000D03*
X151750000Y-124500000D03*
X151250000Y-123000000D03*
X147250000Y-125000000D03*
X149750000Y-125500000D03*
X151750000Y-122500000D03*
X152250000Y-123000000D03*
X151250000Y-125000000D03*
X151250000Y-124000000D03*
X151750000Y-121500000D03*
X148250000Y-124000000D03*
X147250000Y-124000000D03*
X147750000Y-123500000D03*
X159500000Y-118500000D03*
X161500000Y-118500000D03*
X161000000Y-119000000D03*
X161000000Y-118000000D03*
X160500000Y-118500000D03*
X160000000Y-119000000D03*
X160000000Y-118000000D03*
X161000000Y-117000000D03*
X160500000Y-117500000D03*
X160500000Y-116500000D03*
X160000000Y-117000000D03*
X160000000Y-116000000D03*
X158500000Y-118500000D03*
X159000000Y-118000000D03*
X159500000Y-117500000D03*
X159500000Y-116500000D03*
X159000000Y-117000000D03*
X157500000Y-124500000D03*
X158000000Y-125000000D03*
X157000000Y-125000000D03*
X157500000Y-125500000D03*
X158000000Y-126000000D03*
X157000000Y-126000000D03*
X159500000Y-120500000D03*
X160000000Y-122000000D03*
X160000000Y-121000000D03*
X159500000Y-121500000D03*
X159000000Y-122000000D03*
X159000000Y-121000000D03*
X158500000Y-122500000D03*
X158500000Y-121500000D03*
X157500000Y-121500000D03*
X158000000Y-121000000D03*
X158500000Y-120500000D03*
X158500000Y-119500000D03*
X158000000Y-120000000D03*
X158000000Y-119000000D03*
X192000000Y-126000000D03*
X193000000Y-125000000D03*
X191000000Y-125000000D03*
X192000000Y-124000000D03*
X192000000Y-122000000D03*
X191000000Y-123000000D03*
X193000000Y-123000000D03*
X193500000Y-125500000D03*
X193500000Y-122500000D03*
X193500000Y-124500000D03*
X193500000Y-123500000D03*
X194000000Y-122000000D03*
X194000000Y-123000000D03*
X194500000Y-122500000D03*
X194500000Y-123500000D03*
X194500000Y-125500000D03*
X194000000Y-126000000D03*
X194000000Y-125000000D03*
X194500000Y-124500000D03*
X194000000Y-124000000D03*
X190000000Y-126000000D03*
X190500000Y-125500000D03*
X189500000Y-125500000D03*
X190000000Y-125000000D03*
X190500000Y-124500000D03*
X189500000Y-124500000D03*
X190000000Y-124000000D03*
X190500000Y-123500000D03*
X189500000Y-123500000D03*
X190000000Y-123000000D03*
X190500000Y-122500000D03*
X189500000Y-122500000D03*
X190000000Y-122000000D03*
X193000000Y-115000000D03*
X191000000Y-115000000D03*
X193000000Y-118000000D03*
X191000000Y-118000000D03*
X193000000Y-116500000D03*
X191000000Y-116500000D03*
X192000000Y-115500000D03*
X192000000Y-117500000D03*
X196000000Y-117500000D03*
X200000000Y-117500000D03*
X196000000Y-120500000D03*
X196500000Y-120000000D03*
X196000000Y-119500000D03*
X196500000Y-119000000D03*
X196000000Y-118500000D03*
X196500000Y-118000000D03*
X199300000Y-120600000D03*
X197300000Y-120600000D03*
X198300000Y-120600000D03*
X200300000Y-120600000D03*
X200300000Y-119600000D03*
X199800000Y-119100000D03*
X199800000Y-120100000D03*
X197800000Y-119100000D03*
X197800000Y-120100000D03*
X197300000Y-119600000D03*
X198300000Y-119600000D03*
X199300000Y-119600000D03*
X198800000Y-119100000D03*
X198800000Y-120100000D03*
X194000000Y-114000000D03*
X192000000Y-114000000D03*
X190000000Y-114000000D03*
X188000000Y-114000000D03*
X186000000Y-112000000D03*
X188000000Y-112000000D03*
X190000000Y-112000000D03*
X192000000Y-112000000D03*
X194000000Y-112000000D03*
X195000000Y-113000000D03*
X193000000Y-113000000D03*
X191000000Y-113000000D03*
X189000000Y-113000000D03*
X187000000Y-113000000D03*
X185000000Y-113000000D03*
X182000000Y-113000000D03*
X187500000Y-119000000D03*
X186500000Y-119000000D03*
X187000000Y-119500000D03*
X181000000Y-113000000D03*
X181500000Y-113500000D03*
X180000000Y-113000000D03*
X179500000Y-113500000D03*
X180500000Y-113500000D03*
X180000000Y-114000000D03*
X180000000Y-115000000D03*
X180500000Y-114500000D03*
X181000000Y-114000000D03*
X181000000Y-115000000D03*
X180500000Y-115500000D03*
X189500000Y-120000000D03*
X189500000Y-119000000D03*
X189500000Y-118000000D03*
X189500000Y-117000000D03*
X194500000Y-120000000D03*
X194500000Y-119000000D03*
X194500000Y-118000000D03*
X194500000Y-117000000D03*
X190000000Y-116500000D03*
X190000000Y-117500000D03*
X190000000Y-118500000D03*
X190000000Y-119500000D03*
X190000000Y-120500000D03*
X190500000Y-119000000D03*
X190500000Y-120000000D03*
X194000000Y-116500000D03*
X194000000Y-117500000D03*
X194000000Y-118500000D03*
X194000000Y-119500000D03*
X194000000Y-120500000D03*
X193500000Y-119000000D03*
X193500000Y-120000000D03*
X193000000Y-120500000D03*
X192000000Y-120500000D03*
X191000000Y-120500000D03*
X192500000Y-120000000D03*
X191500000Y-120000000D03*
X191500000Y-119000000D03*
X192500000Y-119000000D03*
X193000000Y-119500000D03*
X192000000Y-119500000D03*
X191000000Y-119500000D03*
X188000000Y-119500000D03*
X188000000Y-125500000D03*
X188500000Y-125000000D03*
X187500000Y-125000000D03*
X188000000Y-124500000D03*
X188500000Y-124000000D03*
X187500000Y-124000000D03*
X188000000Y-123500000D03*
X188500000Y-123000000D03*
X188000000Y-122500000D03*
X188500000Y-122000000D03*
X188000000Y-121500000D03*
X188500000Y-121000000D03*
X188500000Y-120000000D03*
X188000000Y-120500000D03*
X187500000Y-120000000D03*
X187500000Y-121000000D03*
X187500000Y-122000000D03*
X187500000Y-123000000D03*
X195500000Y-110500000D03*
X195000000Y-110000000D03*
X194500000Y-110500000D03*
X195000000Y-111000000D03*
X194000000Y-111000000D03*
X192000000Y-111000000D03*
X193000000Y-110000000D03*
X191500000Y-110500000D03*
X192500000Y-110500000D03*
X194000000Y-110000000D03*
X192000000Y-110000000D03*
X193500000Y-110500000D03*
X193000000Y-111000000D03*
X191000000Y-111000000D03*
X189000000Y-111000000D03*
X190000000Y-110000000D03*
X188500000Y-110500000D03*
X189500000Y-110500000D03*
X191000000Y-110000000D03*
X189000000Y-110000000D03*
X190500000Y-110500000D03*
X190000000Y-111000000D03*
X188000000Y-111000000D03*
X186000000Y-111000000D03*
X187000000Y-110000000D03*
X185500000Y-110500000D03*
X186500000Y-110500000D03*
X188000000Y-110000000D03*
X186000000Y-110000000D03*
X187500000Y-110500000D03*
X187000000Y-111000000D03*
X185000000Y-111000000D03*
X183000000Y-111000000D03*
X184000000Y-110000000D03*
X182500000Y-110500000D03*
X183500000Y-110500000D03*
X185000000Y-110000000D03*
X183000000Y-110000000D03*
X184500000Y-110500000D03*
X184000000Y-111000000D03*
X182000000Y-111000000D03*
X182000000Y-110000000D03*
X181500000Y-110500000D03*
X181000000Y-111000000D03*
X181000000Y-110000000D03*
X180500000Y-110500000D03*
X180000000Y-111000000D03*
X180000000Y-110000000D03*
X179500000Y-110500000D03*
X185000000Y-124000000D03*
X184500000Y-124500000D03*
X185500000Y-124500000D03*
X185000000Y-125000000D03*
X184500000Y-126500000D03*
X185500000Y-125500000D03*
X184500000Y-125500000D03*
X185500000Y-126500000D03*
X185000000Y-126000000D03*
X185000000Y-120000000D03*
X185500000Y-120500000D03*
X185000000Y-122000000D03*
X185500000Y-123500000D03*
X185000000Y-123000000D03*
X184500000Y-120500000D03*
X184500000Y-123500000D03*
X185500000Y-122500000D03*
X185000000Y-121000000D03*
X184500000Y-121500000D03*
X185500000Y-121500000D03*
X184500000Y-122500000D03*
X184500000Y-115500000D03*
X184500000Y-116500000D03*
X184500000Y-119500000D03*
X184500000Y-114500000D03*
X184500000Y-117500000D03*
X184500000Y-118500000D03*
X184000000Y-119000000D03*
X184000000Y-118000000D03*
X184000000Y-117000000D03*
X184000000Y-116000000D03*
X184000000Y-115000000D03*
X183500000Y-119500000D03*
X183500000Y-118500000D03*
X183500000Y-117500000D03*
X183500000Y-116500000D03*
X183500000Y-115500000D03*
X183500000Y-114500000D03*
X180500000Y-117500000D03*
X180500000Y-116500000D03*
X193000000Y-99000000D03*
X191000000Y-99000000D03*
X185000000Y-99000000D03*
X183000000Y-99000000D03*
X187000000Y-99000000D03*
X179000000Y-99000000D03*
X177000000Y-99000000D03*
X175000000Y-99000000D03*
X181000000Y-99000000D03*
X189000000Y-99000000D03*
X169000000Y-99000000D03*
X167000000Y-99000000D03*
X171000000Y-99000000D03*
X163000000Y-99000000D03*
X161000000Y-99000000D03*
X159000000Y-99000000D03*
X165000000Y-99000000D03*
X173000000Y-99000000D03*
X157000000Y-99000000D03*
X155000000Y-99000000D03*
X153000000Y-99000000D03*
X151000000Y-99000000D03*
X149000000Y-99000000D03*
X147000000Y-99000000D03*
X145000000Y-99000000D03*
X143000000Y-99000000D03*
X141000000Y-99000000D03*
X139000000Y-99000000D03*
X137000000Y-99000000D03*
X135000000Y-99000000D03*
X133000000Y-99000000D03*
X131000000Y-99000000D03*
X129000000Y-99000000D03*
X127000000Y-99000000D03*
X157000000Y-112000000D03*
X155000000Y-112000000D03*
X153000000Y-112000000D03*
X151000000Y-112000000D03*
X149000000Y-112000000D03*
X147000000Y-112000000D03*
X145000000Y-112000000D03*
X143000000Y-112000000D03*
X141000000Y-112000000D03*
X139000000Y-112000000D03*
X137000000Y-112000000D03*
X135000000Y-112000000D03*
X133000000Y-112000000D03*
X131000000Y-112000000D03*
X129000000Y-112000000D03*
X127000000Y-112000000D03*
X180000000Y-118000000D03*
X180000000Y-117000000D03*
X180000000Y-116000000D03*
X181000000Y-118000000D03*
X181000000Y-117000000D03*
X181000000Y-116000000D03*
X157000000Y-123500000D03*
X157000000Y-122500000D03*
X156500000Y-123000000D03*
X156500000Y-122000000D03*
X156500000Y-124000000D03*
X158000000Y-124000000D03*
X158000000Y-122000000D03*
X158000000Y-123000000D03*
X177500000Y-122000000D03*
X177500000Y-124000000D03*
X177500000Y-123000000D03*
X178500000Y-122000000D03*
X178500000Y-124000000D03*
X178500000Y-123000000D03*
X179500000Y-123000000D03*
X179500000Y-122000000D03*
X179500000Y-124000000D03*
X177000000Y-125000000D03*
X171500000Y-124500000D03*
X176500000Y-124500000D03*
X174500000Y-124500000D03*
X173500000Y-125500000D03*
X176500000Y-125500000D03*
X172500000Y-124500000D03*
X175500000Y-124500000D03*
X173000000Y-125000000D03*
X175500000Y-125500000D03*
X174000000Y-125000000D03*
X172000000Y-125000000D03*
X175000000Y-125000000D03*
X174500000Y-125500000D03*
X171000000Y-125000000D03*
X176000000Y-125000000D03*
X171500000Y-125500000D03*
X173500000Y-124500000D03*
X172500000Y-125500000D03*
X176500000Y-117500000D03*
X175500000Y-117500000D03*
X174500000Y-117500000D03*
X173500000Y-117500000D03*
X172500000Y-117500000D03*
X171500000Y-117500000D03*
X171500000Y-116500000D03*
X172500000Y-116500000D03*
X173500000Y-116500000D03*
X174500000Y-116500000D03*
X175500000Y-116500000D03*
X176500000Y-116500000D03*
X177000000Y-117000000D03*
X176000000Y-117000000D03*
X175000000Y-117000000D03*
X174000000Y-117000000D03*
X173000000Y-117000000D03*
X172000000Y-117000000D03*
X171000000Y-117000000D03*
X161500000Y-123500000D03*
X163500000Y-123500000D03*
X162500000Y-123500000D03*
X162000000Y-124000000D03*
X161500000Y-124500000D03*
X162000000Y-125000000D03*
X163000000Y-124000000D03*
X163500000Y-124500000D03*
X163000000Y-125000000D03*
X162500000Y-124500000D03*
X168500000Y-125500000D03*
X167500000Y-125500000D03*
X166500000Y-125500000D03*
X165500000Y-125500000D03*
X165500000Y-124500000D03*
X166500000Y-124500000D03*
X167500000Y-124500000D03*
X168500000Y-124500000D03*
X169000000Y-125000000D03*
X168000000Y-125000000D03*
X167000000Y-125000000D03*
X166000000Y-125000000D03*
X165000000Y-125000000D03*
X164500000Y-124500000D03*
X164500000Y-125500000D03*
X164000000Y-125000000D03*
X163500000Y-125500000D03*
X163000000Y-126000000D03*
X160000000Y-126000000D03*
X161000000Y-126000000D03*
X162000000Y-126000000D03*
X162500000Y-125500000D03*
X161500000Y-125500000D03*
X160500000Y-125500000D03*
X159500000Y-125500000D03*
X168500000Y-117500000D03*
X167500000Y-117500000D03*
X166500000Y-117500000D03*
X165500000Y-117500000D03*
X164500000Y-117500000D03*
X164000000Y-117000000D03*
X165000000Y-117000000D03*
X166000000Y-117000000D03*
X167000000Y-117000000D03*
X168000000Y-117000000D03*
X169000000Y-117000000D03*
X168500000Y-116500000D03*
X160410000Y-113330000D03*
X159660000Y-113880000D03*
X159000000Y-113400000D03*
X158090000Y-114440000D03*
X158160000Y-113470000D03*
X164120000Y-114180000D03*
X171810000Y-114980000D03*
X170880000Y-115010000D03*
X169980000Y-114980000D03*
X171380000Y-114340000D03*
X172580000Y-114990000D03*
X172580000Y-114330000D03*
X175290000Y-114940000D03*
X174280000Y-114940000D03*
X174780000Y-114270000D03*
X176150000Y-114960000D03*
X175770000Y-114250000D03*
X176560000Y-114050000D03*
X177260000Y-114890000D03*
X207000000Y-99000000D03*
X209000000Y-99000000D03*
X211000000Y-99000000D03*
X213000000Y-99000000D03*
X215000000Y-99000000D03*
X217000000Y-99000000D03*
X207000000Y-111000000D03*
X209000000Y-111000000D03*
X211000000Y-111000000D03*
X213000000Y-111000000D03*
X217000000Y-111000000D03*
X162400000Y-109300000D03*
X162400000Y-105300000D03*
X147700000Y-101400000D03*
X130300000Y-101500000D03*
X172085000Y-112115000D03*
X215000000Y-127000000D03*
X213000000Y-127000000D03*
X217000000Y-127000000D03*
X207000000Y-127000000D03*
X211000000Y-127000000D03*
X209000000Y-127000000D03*
X203000000Y-127000000D03*
X199000000Y-127000000D03*
X197000000Y-127000000D03*
X201000000Y-127000000D03*
X205000000Y-127000000D03*
X191000000Y-127000000D03*
X195000000Y-127000000D03*
X193000000Y-127000000D03*
X149000000Y-127000000D03*
X189000000Y-127000000D03*
X187000000Y-127000000D03*
X185000000Y-127000000D03*
X183000000Y-127000000D03*
X181000000Y-127000000D03*
X179000000Y-127000000D03*
X177000000Y-127000000D03*
X175000000Y-127000000D03*
X173000000Y-127000000D03*
X171000000Y-127000000D03*
X169000000Y-127000000D03*
X167000000Y-127000000D03*
X165000000Y-127000000D03*
X163000000Y-127000000D03*
X161000000Y-127000000D03*
X159000000Y-127000000D03*
X157000000Y-127000000D03*
X155000000Y-127000000D03*
X153000000Y-127000000D03*
X151000000Y-127000000D03*
X147000000Y-127000000D03*
X145000000Y-127000000D03*
X143000000Y-127000000D03*
X141000000Y-127000000D03*
X139000000Y-127000000D03*
X137000000Y-127000000D03*
X135000000Y-127000000D03*
X133000000Y-127000000D03*
X131000000Y-127000000D03*
X129000000Y-127000000D03*
X127000000Y-127000000D03*
X147000000Y-118000000D03*
X145000000Y-118000000D03*
X143000000Y-118000000D03*
X141000000Y-118000000D03*
X139000000Y-118000000D03*
X137000000Y-118000000D03*
X156000000Y-114000000D03*
X154000000Y-114000000D03*
X152000000Y-114000000D03*
X147000000Y-114000000D03*
X145000000Y-114000000D03*
X143000000Y-114000000D03*
X141000000Y-114000000D03*
X139000000Y-114000000D03*
X137000000Y-114000000D03*
X135000000Y-114000000D03*
X133000000Y-114000000D03*
X131000000Y-114000000D03*
X129000000Y-114000000D03*
X127000000Y-114000000D03*
X157000000Y-113450000D03*
X180700000Y-101400000D03*
X187700000Y-101400000D03*
X174860000Y-107390000D03*
X174520000Y-110050000D03*
X177080000Y-108640000D03*
X174510000Y-109070000D03*
X162200000Y-117600000D03*
X168900000Y-115000000D03*
X144500000Y-102700000D03*
X143200000Y-102700000D03*
X149200000Y-102900000D03*
X147900000Y-102900000D03*
X146900000Y-102400000D03*
X145600000Y-102400000D03*
X146400000Y-101400000D03*
X145100000Y-101400000D03*
X202117318Y-107817318D03*
X202500000Y-104700000D03*
X199250000Y-109700000D03*
X198450000Y-109700000D03*
X203200000Y-112600000D03*
X181700000Y-120850000D03*
X182540000Y-120830000D03*
X160800000Y-115200000D03*
X174900000Y-105100000D03*
X173600000Y-105100000D03*
X166800000Y-111100000D03*
X166400000Y-104100000D03*
X165200000Y-103300000D03*
X168200000Y-103800000D03*
X194700000Y-107500000D03*
X207400000Y-104000000D03*
X196400000Y-105750000D03*
X169470000Y-112470000D03*
X175200000Y-111500000D03*
X170720000Y-112250000D03*
X155562154Y-125965392D03*
X165337500Y-115041021D03*
X166137500Y-115041021D03*
X161760000Y-122110000D03*
X161150000Y-121190000D03*
X168060000Y-115041021D03*
X167260000Y-115041021D03*
X198800000Y-117900000D03*
X198800000Y-116900000D03*
X173836176Y-108638272D03*
X167500000Y-116500000D03*
D44*
X171355000Y-110390000D02*
X171265000Y-110390000D01*
D45*
X163027500Y-108300000D02*
X162167500Y-108300000D01*
D44*
X172085000Y-112115000D02*
X172490000Y-112520000D01*
X171850000Y-111880000D02*
X171850000Y-111137500D01*
X172085000Y-112115000D02*
X171850000Y-111880000D01*
X172490000Y-112520000D02*
X172800000Y-112520000D01*
X169350000Y-112350000D02*
X169350000Y-111137500D01*
X169470000Y-112470000D02*
X169350000Y-112350000D01*
X164017500Y-114077500D02*
X164120000Y-114180000D01*
X164017500Y-112275000D02*
X164017500Y-114077500D01*
X172591572Y-113480000D02*
X172800000Y-113480000D01*
X170720000Y-112250000D02*
X170850000Y-112120000D01*
X170850000Y-112120000D02*
X170850000Y-111137500D01*
D45*
X163027500Y-109300000D02*
X162400000Y-109300000D01*
X163037500Y-105300000D02*
X162400000Y-105300000D01*
X147760000Y-101460000D02*
X147700000Y-101400000D01*
X149345000Y-101460000D02*
X147760000Y-101460000D01*
X130260000Y-101460000D02*
X130300000Y-101500000D01*
X128645000Y-101460000D02*
X130260000Y-101460000D01*
D44*
X151404632Y-100100000D02*
X151175632Y-99871000D01*
X170000000Y-100100000D02*
X151404632Y-100100000D01*
X151175632Y-99871000D02*
X137134000Y-99871000D01*
X137134000Y-99871000D02*
X135545000Y-101460000D01*
X171850000Y-101950000D02*
X170000000Y-100100000D01*
X171850000Y-105262500D02*
X171850000Y-101950000D01*
X151365816Y-100600000D02*
X151017816Y-100252000D01*
X135414000Y-104000000D02*
X131955000Y-104000000D01*
X169800000Y-100600000D02*
X151365816Y-100600000D01*
X151017816Y-100252000D02*
X139162000Y-100252000D01*
X171350000Y-102150000D02*
X169800000Y-100600000D01*
X171350000Y-105262500D02*
X171350000Y-102150000D01*
X139162000Y-100252000D02*
X135414000Y-104000000D01*
X138855000Y-102745000D02*
X138855000Y-104000000D01*
X169600000Y-101100000D02*
X151327000Y-101100000D01*
X151327000Y-101100000D02*
X150860000Y-100633000D01*
X170850000Y-102350000D02*
X169600000Y-101100000D01*
X170850000Y-105262500D02*
X170850000Y-102350000D01*
X150860000Y-100633000D02*
X140967000Y-100633000D01*
X140967000Y-100633000D02*
X138855000Y-102745000D01*
X149214000Y-104000000D02*
X145755000Y-104000000D01*
X151614000Y-101600000D02*
X149214000Y-104000000D01*
X170350000Y-102550000D02*
X169400000Y-101600000D01*
X169400000Y-101600000D02*
X151614000Y-101600000D01*
X170350000Y-105262500D02*
X170350000Y-102550000D01*
X144327000Y-104827000D02*
X142445000Y-102945000D01*
X151652816Y-102100000D02*
X148925816Y-104827000D01*
X169225924Y-102100000D02*
X151652816Y-102100000D01*
X169888000Y-102762076D02*
X169225924Y-102100000D01*
X169888000Y-105224500D02*
X169888000Y-102762076D01*
X148925816Y-104827000D02*
X144327000Y-104827000D01*
X169850000Y-105262500D02*
X169888000Y-105224500D01*
X142445000Y-102945000D02*
X142445000Y-101460000D01*
X180760000Y-101460000D02*
X180700000Y-101400000D01*
X182345000Y-101460000D02*
X180760000Y-101460000D01*
X187760000Y-101460000D02*
X187700000Y-101400000D01*
X189345000Y-101460000D02*
X187760000Y-101460000D01*
X174690000Y-107950000D02*
X173037500Y-107950000D01*
X175340000Y-108600000D02*
X174690000Y-107950000D01*
X175980000Y-107390000D02*
X176190000Y-107600000D01*
X174860000Y-107390000D02*
X175980000Y-107390000D01*
X174360000Y-106780000D02*
X176390000Y-106780000D01*
X176390000Y-106780000D02*
X177210000Y-107600000D01*
X173037500Y-107450000D02*
X173690000Y-107450000D01*
X173690000Y-107450000D02*
X174360000Y-106780000D01*
X174300000Y-107950000D02*
X174860000Y-107390000D01*
X173037500Y-107950000D02*
X174300000Y-107950000D01*
X174420000Y-109950000D02*
X174520000Y-110050000D01*
X173037500Y-109950000D02*
X174420000Y-109950000D01*
X174130000Y-109450000D02*
X173037500Y-109450000D01*
X174510000Y-109070000D02*
X175040000Y-109600000D01*
X175040000Y-109600000D02*
X176220000Y-109600000D01*
X174510000Y-109070000D02*
X174130000Y-109450000D01*
X177040000Y-108600000D02*
X177080000Y-108640000D01*
X176300000Y-108600000D02*
X177040000Y-108600000D01*
X175254318Y-112500000D02*
X174800000Y-112500000D01*
X178020000Y-109734318D02*
X175254318Y-112500000D01*
X177210000Y-107600000D02*
X178020000Y-108410000D01*
X178020000Y-108410000D02*
X178020000Y-109734318D01*
X173647904Y-108450000D02*
X173037500Y-108450000D01*
X173836176Y-108638272D02*
X173647904Y-108450000D01*
X174837500Y-111137500D02*
X172350000Y-111137500D01*
X175200000Y-111500000D02*
X174837500Y-111137500D01*
X169057500Y-114842500D02*
X168900000Y-115000000D01*
X169057500Y-113225000D02*
X169057500Y-114842500D01*
X202100000Y-104300000D02*
X202500000Y-104700000D01*
X200350000Y-104300000D02*
X202100000Y-104300000D01*
X203400000Y-109100000D02*
X210280000Y-109100000D01*
X210280000Y-109100000D02*
X212790000Y-106590000D01*
X202117318Y-107817318D02*
X203400000Y-109100000D01*
X200500000Y-105300000D02*
X200350000Y-105300000D01*
D46*
X199075001Y-109525001D02*
X199250000Y-109700000D01*
X198624999Y-108784999D02*
X198624999Y-109525001D01*
X199075001Y-108784999D02*
X199075001Y-109525001D01*
X199350000Y-108510000D02*
X199075001Y-108784999D01*
X198624999Y-109525001D02*
X198450000Y-109700000D01*
X198350000Y-108510000D02*
X198624999Y-108784999D01*
D44*
X203190000Y-112610000D02*
X203200000Y-112600000D01*
X203190000Y-113200000D02*
X203190000Y-112610000D01*
X181450000Y-120600000D02*
X181700000Y-120850000D01*
X180910000Y-120600000D02*
X181450000Y-120600000D01*
X181110000Y-119400000D02*
X182540000Y-120830000D01*
X180910000Y-119400000D02*
X181110000Y-119400000D01*
X160400000Y-114800000D02*
X160800000Y-115200000D01*
X160110000Y-114800000D02*
X160400000Y-114800000D01*
X165980000Y-103300000D02*
X165200000Y-103300000D01*
X167890000Y-103490000D02*
X168200000Y-103800000D01*
X167890000Y-103300000D02*
X167890000Y-103490000D01*
X200820000Y-106520000D02*
X202117318Y-107817318D01*
X200350000Y-106520000D02*
X200820000Y-106520000D01*
X194710000Y-107510000D02*
X194700000Y-107500000D01*
X197350000Y-107510000D02*
X194710000Y-107510000D01*
X197000000Y-103800000D02*
X195950000Y-103800000D01*
X200117000Y-100683000D02*
X197000000Y-103800000D01*
X211963000Y-100683000D02*
X200117000Y-100683000D01*
X212790000Y-101510000D02*
X211963000Y-100683000D01*
X216100000Y-102400000D02*
X216100000Y-104050000D01*
X214002000Y-100302000D02*
X216100000Y-102400000D01*
X199698000Y-100302000D02*
X214002000Y-100302000D01*
X196700000Y-103300000D02*
X199698000Y-100302000D01*
X195950000Y-103300000D02*
X196700000Y-103300000D01*
X207450000Y-104050000D02*
X207400000Y-104000000D01*
X209155000Y-104050000D02*
X207450000Y-104050000D01*
X200227960Y-101510000D02*
X205845000Y-101510000D01*
X195950000Y-104300000D02*
X197437960Y-104300000D01*
X197437960Y-104300000D02*
X200227960Y-101510000D01*
X199453776Y-102823000D02*
X202078000Y-102823000D01*
X202078000Y-102823000D02*
X205845000Y-106590000D01*
X197476776Y-104800000D02*
X199453776Y-102823000D01*
X195950000Y-104800000D02*
X197476776Y-104800000D01*
X197350000Y-105404408D02*
X197350000Y-106490000D01*
X196745592Y-104800000D02*
X197350000Y-105404408D01*
X195950000Y-104800000D02*
X196745592Y-104800000D01*
X195950000Y-105300000D02*
X196400000Y-105750000D01*
X174269000Y-106331000D02*
X173650000Y-106950000D01*
X178307816Y-106331000D02*
X174269000Y-106331000D01*
X173650000Y-106950000D02*
X173037500Y-106950000D01*
X191828000Y-104827000D02*
X179811816Y-104827000D01*
X192655000Y-104000000D02*
X191828000Y-104827000D01*
X179811816Y-104827000D02*
X178307816Y-106331000D01*
X180100000Y-104000000D02*
X185655000Y-104000000D01*
X178163000Y-105937000D02*
X180100000Y-104000000D01*
X176559501Y-105937000D02*
X178163000Y-105937000D01*
X176232500Y-105609999D02*
X176559501Y-105937000D01*
X176232500Y-105300000D02*
X176232500Y-105609999D01*
X169187108Y-102600000D02*
X154055000Y-102600000D01*
X169350000Y-103837108D02*
X169507000Y-103680108D01*
X169507000Y-103680108D02*
X169507000Y-102919892D01*
X154055000Y-102600000D02*
X152655000Y-104000000D01*
X169350000Y-105262500D02*
X169350000Y-103837108D01*
X169507000Y-102919892D02*
X169187108Y-102600000D01*
X167000000Y-104000000D02*
X167000000Y-103300000D01*
X167400000Y-104400000D02*
X167000000Y-104000000D01*
X167952568Y-104400000D02*
X167400000Y-104400000D01*
X168350000Y-104797432D02*
X167952568Y-104400000D01*
X168350000Y-105262500D02*
X168350000Y-104797432D01*
X168850000Y-103360000D02*
X168850000Y-105262500D01*
X168910000Y-103300000D02*
X168850000Y-103360000D01*
X170107000Y-113135500D02*
X170017500Y-113225000D01*
X169850000Y-111991572D02*
X170107000Y-112248572D01*
X169850000Y-111137500D02*
X169850000Y-111991572D01*
X170107000Y-112248572D02*
X170107000Y-113135500D01*
X156000000Y-125527546D02*
X155562154Y-125965392D01*
X156000000Y-125400000D02*
X156000000Y-125527546D01*
D46*
X165512499Y-114866022D02*
X165337500Y-115041021D01*
X165962501Y-114509999D02*
X165962501Y-114866022D01*
X165962501Y-114866022D02*
X166137500Y-115041021D01*
X166237500Y-114235000D02*
X165962501Y-114509999D01*
X165237500Y-114235000D02*
X165512499Y-114509999D01*
X165512499Y-114509999D02*
X165512499Y-114866022D01*
D44*
X161760000Y-120110000D02*
X160800000Y-119150000D01*
X161760000Y-122110000D02*
X161760000Y-120110000D01*
X161150000Y-123700000D02*
X160800000Y-124050000D01*
X161150000Y-121190000D02*
X161150000Y-123700000D01*
D46*
X167434999Y-114866022D02*
X167260000Y-115041021D01*
X167434999Y-114487499D02*
X167434999Y-114866022D01*
X167182500Y-114235000D02*
X167434999Y-114487499D01*
X168137500Y-114235000D02*
X167885001Y-114487499D01*
X167885001Y-114487499D02*
X167885001Y-114866022D01*
X167885001Y-114866022D02*
X168060000Y-115041021D01*
D44*
X198800000Y-119850000D02*
X198800000Y-117900000D01*
X198800000Y-114950000D02*
X198800000Y-116900000D01*
X176288391Y-110701607D02*
X176444999Y-110544999D01*
X173289107Y-110701607D02*
X176288391Y-110701607D01*
X173037500Y-110450000D02*
X173289107Y-110701607D01*
X176444999Y-110544999D02*
X177180000Y-109809999D01*
X176287953Y-110702046D02*
X176444999Y-110544999D01*
X177180000Y-109809999D02*
X177180000Y-109500000D01*
X174780000Y-112480000D02*
X174800000Y-112500000D01*
X173800000Y-112480000D02*
X174780000Y-112480000D01*
D45*
X204800000Y-113200000D02*
X204210000Y-113200000D01*
X205150000Y-113550000D02*
X204800000Y-113200000D01*
X203740000Y-117320000D02*
X204430000Y-117320000D01*
X204430000Y-117320000D02*
X205150000Y-116600000D01*
X205150000Y-116600000D02*
X205150000Y-113550000D01*
X204100000Y-117680000D02*
X204100000Y-118700000D01*
X203740000Y-117320000D02*
X204100000Y-117680000D01*
D44*
X199330000Y-107470000D02*
X199350000Y-107490000D01*
X199330000Y-106550000D02*
X199330000Y-107470000D01*
X198370000Y-107470000D02*
X198350000Y-107490000D01*
X198370000Y-106550000D02*
X198370000Y-107470000D01*
X200350000Y-105300000D02*
X200350000Y-106520000D01*
X198751000Y-105956682D02*
X199330000Y-106535682D01*
X198751000Y-104603408D02*
X198751000Y-105956682D01*
X199330000Y-106535682D02*
X199330000Y-106550000D01*
X199554408Y-103800000D02*
X198751000Y-104603408D01*
X200350000Y-103800000D02*
X199554408Y-103800000D01*
X198370000Y-104445592D02*
X198370000Y-106550000D01*
X199515592Y-103300000D02*
X198370000Y-104445592D01*
X200350000Y-103300000D02*
X199515592Y-103300000D01*
X196400000Y-105750000D02*
X196400000Y-106490000D01*
X194850000Y-105890000D02*
X195450000Y-106490000D01*
X194850000Y-104604408D02*
X194850000Y-105890000D01*
X195154408Y-104300000D02*
X194850000Y-104604408D01*
X195950000Y-104300000D02*
X195154408Y-104300000D01*
D45*
X180400000Y-125600000D02*
X181310000Y-125600000D01*
X161490000Y-115710000D02*
X161500000Y-115720000D01*
X161490000Y-114800000D02*
X161490000Y-115710000D01*
X180830000Y-121590000D02*
X180830000Y-122050000D01*
X179890000Y-120650000D02*
X180830000Y-121590000D01*
X179890000Y-120600000D02*
X179890000Y-120650000D01*
X177810000Y-118000000D02*
X179210000Y-119400000D01*
X179210000Y-119400000D02*
X179890000Y-119400000D01*
X155000000Y-125380000D02*
X154980000Y-125400000D01*
X155000000Y-123950000D02*
X155000000Y-125380000D01*
X158000000Y-115890000D02*
X159090000Y-114800000D01*
X158000000Y-116000000D02*
X158000000Y-115890000D01*
D46*
X168142500Y-113210000D02*
X168137500Y-113215000D01*
X168142500Y-112272500D02*
X168142500Y-113210000D01*
X167182500Y-112272500D02*
X167182500Y-113215000D01*
X166217500Y-113195000D02*
X166237500Y-113215000D01*
X166217500Y-112275000D02*
X166217500Y-113195000D01*
X165257500Y-113195000D02*
X165237500Y-113215000D01*
X165257500Y-112275000D02*
X165257500Y-113195000D01*
D44*
X169850000Y-113057500D02*
X170017500Y-113225000D01*
X168850000Y-113017500D02*
X169057500Y-113225000D01*
X168850000Y-111137500D02*
X168850000Y-113017500D01*
X175582500Y-105950000D02*
X176232500Y-105300000D01*
X173037500Y-105950000D02*
X175582500Y-105950000D01*
X173347432Y-103300000D02*
X176207500Y-103300000D01*
X171850000Y-105262500D02*
X171850000Y-104797432D01*
X171850000Y-104797432D02*
X173347432Y-103300000D01*
D46*
X165962500Y-112020000D02*
X166217500Y-112275000D01*
X165962500Y-110942131D02*
X165962500Y-112020000D01*
X166479631Y-110425000D02*
X165962500Y-110942131D01*
X166850000Y-110425000D02*
X166479631Y-110425000D01*
X166875000Y-110450000D02*
X166850000Y-110425000D01*
X167162500Y-110450000D02*
X166875000Y-110450000D01*
X165635500Y-111897000D02*
X165257500Y-112275000D01*
X165635500Y-110806683D02*
X165635500Y-111897000D01*
X166492183Y-109950000D02*
X165635500Y-110806683D01*
X167162500Y-109950000D02*
X166492183Y-109950000D01*
D44*
X164055000Y-109300000D02*
X165905000Y-107450000D01*
X164047500Y-109300000D02*
X164055000Y-109300000D01*
X165905000Y-107450000D02*
X167162500Y-107450000D01*
X164047500Y-107330000D02*
X164017500Y-107300000D01*
X164047500Y-108300000D02*
X164047500Y-107330000D01*
D46*
X167875000Y-111580000D02*
X167182500Y-112272500D01*
X167875000Y-111450000D02*
X167875000Y-111580000D01*
X167850000Y-111425000D02*
X167875000Y-111450000D01*
X167850000Y-111137500D02*
X167850000Y-111425000D01*
D44*
X164367500Y-106950000D02*
X164017500Y-107300000D01*
X167162500Y-106950000D02*
X164367500Y-106950000D01*
X164027500Y-103320000D02*
X164047500Y-103300000D01*
X164027500Y-104300000D02*
X164027500Y-103320000D01*
X168850000Y-103427500D02*
X168977500Y-103300000D01*
X164207500Y-106450000D02*
X164057500Y-106300000D01*
X167162500Y-106450000D02*
X164207500Y-106450000D01*
X165806500Y-104394000D02*
X164121500Y-104394000D01*
X164121500Y-104394000D02*
X164027500Y-104300000D01*
X167850000Y-105262500D02*
X166675000Y-105262500D01*
X166675000Y-105262500D02*
X165806500Y-104394000D01*
X166362500Y-105950000D02*
X165712500Y-105300000D01*
X165712500Y-105300000D02*
X164057500Y-105300000D01*
X167162500Y-105950000D02*
X166362500Y-105950000D01*
X166317599Y-109450000D02*
X167162500Y-109450000D01*
X165158500Y-111399682D02*
X165158500Y-110609099D01*
X164650500Y-111921999D02*
X164650500Y-111907682D01*
X164297499Y-112275000D02*
X164650500Y-111921999D01*
X165158500Y-110609099D02*
X166317599Y-109450000D01*
X164017500Y-112275000D02*
X164297499Y-112275000D01*
X164650500Y-111907682D02*
X165158500Y-111399682D01*
X166697432Y-108450000D02*
X167162500Y-108450000D01*
X164777500Y-110369932D02*
X166697432Y-108450000D01*
X164777500Y-110824999D02*
X164777500Y-110369932D01*
X164302499Y-111300000D02*
X164777500Y-110824999D01*
X164022500Y-111300000D02*
X164302499Y-111300000D01*
X166407500Y-107950000D02*
X167162500Y-107950000D01*
X164057500Y-110300000D02*
X166407500Y-107950000D01*
D46*
X168325000Y-111766397D02*
X168142500Y-111948897D01*
X168142500Y-111948897D02*
X168142500Y-112272500D01*
X168350000Y-111425000D02*
X168325000Y-111450000D01*
X168325000Y-111450000D02*
X168325000Y-111766397D01*
X168350000Y-111137500D02*
X168350000Y-111425000D01*
D44*
X173312500Y-104300000D02*
X176232500Y-104300000D01*
X172350000Y-105262500D02*
X173312500Y-104300000D01*
X176170000Y-109450000D02*
X176220000Y-109500000D01*
G04 #@! TA.AperFunction,Conductor*
G36*
X169937539Y-115619685D02*
G01*
X169983294Y-115672489D01*
X169994500Y-115724000D01*
X169994500Y-126076000D01*
X169974815Y-126143039D01*
X169922011Y-126188794D01*
X169870500Y-126200000D01*
X158929500Y-126200000D01*
X158862461Y-126180315D01*
X158816706Y-126127511D01*
X158805500Y-126076000D01*
X158805500Y-124852312D01*
X158805669Y-124845845D01*
X158807242Y-124815723D01*
X158807242Y-124815722D01*
X158805509Y-124796652D01*
X158805000Y-124785430D01*
X158805000Y-123314569D01*
X158805508Y-123303354D01*
X158807218Y-123284524D01*
X158812323Y-123258854D01*
X158839153Y-123172754D01*
X158851420Y-123145500D01*
X158895471Y-123072630D01*
X158913903Y-123049102D01*
X158974102Y-122988903D01*
X158997627Y-122970472D01*
X159070500Y-122926419D01*
X159097754Y-122914153D01*
X159183854Y-122887323D01*
X159209520Y-122882218D01*
X159224544Y-122880854D01*
X159224543Y-122880853D01*
X159228354Y-122880508D01*
X159239569Y-122880000D01*
X160475991Y-122880000D01*
X160476000Y-122880000D01*
X160510916Y-122876245D01*
X160579673Y-122888648D01*
X160595416Y-122900000D01*
X160600000Y-122900000D01*
X162313901Y-122900000D01*
X162344596Y-122883238D01*
X162390966Y-122882029D01*
X162394164Y-122882551D01*
X162394173Y-122882554D01*
X162394181Y-122882554D01*
X162398556Y-122883270D01*
X162398466Y-122883817D01*
X162416138Y-122887323D01*
X162426597Y-122890582D01*
X162426619Y-122890587D01*
X162456797Y-122897544D01*
X162456804Y-122897544D01*
X162456814Y-122897547D01*
X162493703Y-122903161D01*
X162524621Y-122905500D01*
X162524627Y-122905500D01*
X162875991Y-122905500D01*
X162876000Y-122905500D01*
X162919684Y-122900803D01*
X162948875Y-122894452D01*
X162971174Y-122889602D01*
X162971190Y-122889598D01*
X162971195Y-122889597D01*
X162981373Y-122887110D01*
X163062085Y-122844100D01*
X163114889Y-122798345D01*
X163132843Y-122780754D01*
X163177490Y-122700937D01*
X163197175Y-122633898D01*
X163205500Y-122576000D01*
X163205500Y-121099146D01*
X163205342Y-121091084D01*
X163205095Y-121084786D01*
X163205000Y-121079932D01*
X163205000Y-118920034D01*
X163205096Y-118915165D01*
X163205342Y-118908905D01*
X163205500Y-118900839D01*
X163205500Y-115724000D01*
X163225185Y-115656961D01*
X163277989Y-115611206D01*
X163329500Y-115600000D01*
X169870500Y-115600000D01*
X169937539Y-115619685D01*
G37*
G04 #@! TD.AperFunction*
G04 #@! TA.AperFunction,Conductor*
G36*
X178637539Y-115619685D02*
G01*
X178683294Y-115672489D01*
X178694500Y-115724000D01*
X178694500Y-118032180D01*
X178674815Y-118099219D01*
X178622011Y-118144974D01*
X178552853Y-118154918D01*
X178489297Y-118125893D01*
X178482819Y-118119861D01*
X178396819Y-118033861D01*
X178363334Y-117972538D01*
X178360500Y-117946180D01*
X178360500Y-117849386D01*
X178360500Y-117849384D01*
X178357537Y-117823844D01*
X178311403Y-117719360D01*
X178230640Y-117638597D01*
X178126157Y-117592463D01*
X178100619Y-117589500D01*
X178100616Y-117589500D01*
X177519384Y-117589500D01*
X177519380Y-117589500D01*
X177493843Y-117592463D01*
X177493841Y-117592463D01*
X177389359Y-117638597D01*
X177308597Y-117719359D01*
X177262463Y-117823841D01*
X177262463Y-117823843D01*
X177259500Y-117849380D01*
X177259500Y-118150619D01*
X177262463Y-118176156D01*
X177262463Y-118176158D01*
X177308597Y-118280640D01*
X177389360Y-118361403D01*
X177493844Y-118407537D01*
X177519384Y-118410500D01*
X177616180Y-118410500D01*
X177683219Y-118430185D01*
X177703861Y-118446819D01*
X178969920Y-119712878D01*
X179059079Y-119764354D01*
X179158524Y-119791000D01*
X179435169Y-119791000D01*
X179502208Y-119810685D01*
X179522850Y-119827319D01*
X179559596Y-119864065D01*
X179602454Y-119884050D01*
X179610105Y-119887618D01*
X179662544Y-119933791D01*
X179681696Y-120000985D01*
X179661480Y-120067866D01*
X179610105Y-120112382D01*
X179559595Y-120135935D01*
X179475935Y-120219595D01*
X179425931Y-120326828D01*
X179419500Y-120375683D01*
X179419500Y-120824316D01*
X179425931Y-120873171D01*
X179425932Y-120873173D01*
X179475935Y-120980404D01*
X179559596Y-121064065D01*
X179666827Y-121114068D01*
X179715683Y-121120500D01*
X179715684Y-121120500D01*
X179756180Y-121120500D01*
X179823219Y-121140185D01*
X179843861Y-121156819D01*
X179863681Y-121176639D01*
X179897166Y-121237962D01*
X179900000Y-121264320D01*
X179900000Y-126076000D01*
X179880315Y-126143039D01*
X179827511Y-126188794D01*
X179776000Y-126200000D01*
X170324000Y-126200000D01*
X170256961Y-126180315D01*
X170211206Y-126127511D01*
X170200000Y-126076000D01*
X170200000Y-115724000D01*
X170219685Y-115656961D01*
X170272489Y-115611206D01*
X170324000Y-115600000D01*
X178570500Y-115600000D01*
X178637539Y-115619685D01*
G37*
G04 #@! TD.AperFunction*
G04 #@! TA.AperFunction,Conductor*
G36*
X157428038Y-115619685D02*
G01*
X157473793Y-115672489D01*
X157483737Y-115741647D01*
X157474433Y-115774085D01*
X157469891Y-115784371D01*
X157452463Y-115823842D01*
X157452463Y-115823843D01*
X157449500Y-115849380D01*
X157449500Y-116150619D01*
X157452463Y-116176156D01*
X157452463Y-116176158D01*
X157487597Y-116255728D01*
X157498597Y-116280640D01*
X157579360Y-116361403D01*
X157683844Y-116407537D01*
X157709384Y-116410500D01*
X157709386Y-116410500D01*
X158290614Y-116410500D01*
X158290616Y-116410500D01*
X158316156Y-116407537D01*
X158420640Y-116361403D01*
X158501403Y-116280640D01*
X158547537Y-116176156D01*
X158550500Y-116150616D01*
X158550500Y-115943820D01*
X158570185Y-115876781D01*
X158586819Y-115856139D01*
X158806639Y-115636319D01*
X158867962Y-115602834D01*
X158894320Y-115600000D01*
X160553291Y-115600000D01*
X160604799Y-115611204D01*
X160610928Y-115614002D01*
X160610931Y-115614004D01*
X160735225Y-115650499D01*
X160735227Y-115650500D01*
X160865501Y-115650500D01*
X160932540Y-115670185D01*
X160978295Y-115722989D01*
X160989500Y-115774497D01*
X160989501Y-115899900D01*
X160996028Y-115949487D01*
X161046776Y-116058316D01*
X161131684Y-116143224D01*
X161240513Y-116193972D01*
X161290099Y-116200500D01*
X161709900Y-116200499D01*
X161759487Y-116193972D01*
X161868316Y-116143224D01*
X161953224Y-116058316D01*
X162003972Y-115949487D01*
X162010500Y-115899901D01*
X162010499Y-115723999D01*
X162030183Y-115656961D01*
X162082987Y-115611206D01*
X162134499Y-115600000D01*
X162876000Y-115600000D01*
X162943039Y-115619685D01*
X162988794Y-115672489D01*
X163000000Y-115724000D01*
X163000000Y-118900839D01*
X162999618Y-118910564D01*
X162999500Y-118912051D01*
X162999500Y-121087924D01*
X162999501Y-121087934D01*
X162999618Y-121089416D01*
X163000000Y-121099146D01*
X163000000Y-122576000D01*
X162980315Y-122643039D01*
X162927511Y-122688794D01*
X162876000Y-122700000D01*
X162524621Y-122700000D01*
X162487732Y-122694386D01*
X162469786Y-122688794D01*
X162443898Y-122680727D01*
X162412776Y-122677898D01*
X162347794Y-122652228D01*
X162307006Y-122595499D01*
X162300000Y-122554408D01*
X162300000Y-120300000D01*
X160600000Y-120300000D01*
X160600000Y-122550500D01*
X160580315Y-122617539D01*
X160527511Y-122663294D01*
X160476000Y-122674500D01*
X159224626Y-122674500D01*
X159205948Y-122676197D01*
X159156105Y-122680726D01*
X158998423Y-122729861D01*
X158857082Y-122815305D01*
X158740305Y-122932082D01*
X158654861Y-123073423D01*
X158605726Y-123231105D01*
X158599500Y-123299628D01*
X158599500Y-124800371D01*
X158602585Y-124834321D01*
X158599758Y-124848638D01*
X158600000Y-124848638D01*
X158600000Y-126076000D01*
X158580315Y-126143039D01*
X158527511Y-126188794D01*
X158476000Y-126200000D01*
X156126659Y-126200000D01*
X156059620Y-126180315D01*
X156013865Y-126127511D01*
X156003921Y-126058353D01*
X156008450Y-126026853D01*
X156037475Y-125963297D01*
X156096253Y-125925523D01*
X156131188Y-125920500D01*
X156174317Y-125920500D01*
X156190601Y-125918356D01*
X156223173Y-125914068D01*
X156330404Y-125864065D01*
X156414065Y-125780404D01*
X156464068Y-125673173D01*
X156470500Y-125624316D01*
X156470500Y-125175684D01*
X156464068Y-125126827D01*
X156414065Y-125019596D01*
X156330404Y-124935935D01*
X156223173Y-124885932D01*
X156223171Y-124885931D01*
X156223172Y-124885931D01*
X156174317Y-124879500D01*
X156174316Y-124879500D01*
X156024000Y-124879500D01*
X155956961Y-124859815D01*
X155911206Y-124807011D01*
X155900000Y-124755500D01*
X155900000Y-121124000D01*
X155919685Y-121056961D01*
X155972489Y-121011206D01*
X156024000Y-121000000D01*
X157100000Y-121000000D01*
X157136319Y-120963681D01*
X157138658Y-120966020D01*
X157172489Y-120936706D01*
X157224000Y-120925500D01*
X157254270Y-120925500D01*
X157284699Y-120922646D01*
X157284701Y-120922646D01*
X157348790Y-120900219D01*
X157412882Y-120877793D01*
X157522150Y-120797150D01*
X157602793Y-120687882D01*
X157625219Y-120623790D01*
X157647646Y-120559701D01*
X157647646Y-120559699D01*
X157650500Y-120529269D01*
X157650500Y-119470730D01*
X157647646Y-119440300D01*
X157647646Y-119440298D01*
X157602793Y-119312119D01*
X157602792Y-119312117D01*
X157522150Y-119202850D01*
X157412882Y-119122207D01*
X157412880Y-119122206D01*
X157284700Y-119077353D01*
X157254270Y-119074500D01*
X157254266Y-119074500D01*
X157224000Y-119074500D01*
X157156961Y-119054815D01*
X157111206Y-119002011D01*
X157100000Y-118950500D01*
X157100000Y-118198067D01*
X157103109Y-118170476D01*
X157103298Y-118169646D01*
X157105500Y-118160000D01*
X157105500Y-115790000D01*
X157100780Y-115748103D01*
X157100000Y-115734220D01*
X157100000Y-115724000D01*
X157119685Y-115656961D01*
X157172489Y-115611206D01*
X157224000Y-115600000D01*
X157360999Y-115600000D01*
X157428038Y-115619685D01*
G37*
G04 #@! TD.AperFunction*
G04 #@! TA.AperFunction,Conductor*
G36*
X157443039Y-113025185D02*
G01*
X157488794Y-113077989D01*
X157500000Y-113129500D01*
X157500000Y-115271381D01*
X157480315Y-115338420D01*
X157427511Y-115384175D01*
X157365537Y-115393098D01*
X157365415Y-115394816D01*
X157361000Y-115394500D01*
X157360999Y-115394500D01*
X157224000Y-115394500D01*
X157223992Y-115394500D01*
X157180313Y-115399197D01*
X157128825Y-115410397D01*
X157118627Y-115412890D01*
X157118624Y-115412891D01*
X157037916Y-115455899D01*
X157037913Y-115455901D01*
X156985104Y-115501660D01*
X156967160Y-115519242D01*
X156967154Y-115519249D01*
X156922511Y-115599059D01*
X156922509Y-115599064D01*
X156902826Y-115666096D01*
X156902825Y-115666101D01*
X156902825Y-115666102D01*
X156900927Y-115679306D01*
X156894500Y-115724003D01*
X156894500Y-115734218D01*
X156894823Y-115745736D01*
X156895606Y-115759660D01*
X156896571Y-115771105D01*
X156899220Y-115794613D01*
X156900000Y-115808496D01*
X156900000Y-118130973D01*
X156898965Y-118145732D01*
X156899095Y-118145747D01*
X156895794Y-118175031D01*
X156895791Y-118175066D01*
X156894500Y-118198065D01*
X156894500Y-118950507D01*
X156899197Y-118994186D01*
X156910397Y-119045674D01*
X156912890Y-119055872D01*
X156912891Y-119055875D01*
X156955899Y-119136583D01*
X156955901Y-119136586D01*
X157001660Y-119189395D01*
X157012051Y-119200000D01*
X157019246Y-119207343D01*
X157019247Y-119207344D01*
X157019249Y-119207345D01*
X157099059Y-119251988D01*
X157099063Y-119251990D01*
X157166102Y-119271675D01*
X157224000Y-119280000D01*
X157224005Y-119280000D01*
X157228419Y-119280316D01*
X157228346Y-119281322D01*
X157261512Y-119286957D01*
X157298137Y-119299773D01*
X157330806Y-119317039D01*
X157360163Y-119338706D01*
X157386295Y-119364838D01*
X157407956Y-119394187D01*
X157425228Y-119426866D01*
X157438041Y-119463482D01*
X157445000Y-119504438D01*
X157445000Y-120495557D01*
X157438042Y-120536509D01*
X157431252Y-120555914D01*
X157431250Y-120555920D01*
X157431249Y-120555923D01*
X157425226Y-120573134D01*
X157407958Y-120605807D01*
X157386298Y-120635157D01*
X157360159Y-120661297D01*
X157340547Y-120675771D01*
X157274918Y-120699741D01*
X157266914Y-120700000D01*
X155929500Y-120700000D01*
X155862461Y-120680315D01*
X155816706Y-120627511D01*
X155805500Y-120576000D01*
X155805500Y-119199997D01*
X155805499Y-119199995D01*
X155800348Y-119154271D01*
X155760666Y-119071873D01*
X155689163Y-119014851D01*
X155600004Y-118994500D01*
X155600000Y-118994500D01*
X145300000Y-118994500D01*
X145299995Y-118994500D01*
X145254271Y-118999651D01*
X145171873Y-119039333D01*
X145114851Y-119110836D01*
X145094500Y-119199995D01*
X145094500Y-119776488D01*
X145083294Y-119828000D01*
X145063303Y-119871771D01*
X145063302Y-119871775D01*
X145060158Y-119893647D01*
X145031133Y-119957203D01*
X144972355Y-119994977D01*
X144937420Y-120000000D01*
X126124500Y-120000000D01*
X126057461Y-119980315D01*
X126011706Y-119927511D01*
X126000500Y-119876000D01*
X126000500Y-113129500D01*
X126020185Y-113062461D01*
X126072989Y-113016706D01*
X126124500Y-113005500D01*
X157376000Y-113005500D01*
X157443039Y-113025185D01*
G37*
G04 #@! TD.AperFunction*
G04 #@! TA.AperFunction,Conductor*
G36*
X196337539Y-113019685D02*
G01*
X196383294Y-113072489D01*
X196394500Y-113124000D01*
X196394500Y-116376007D01*
X196399197Y-116419686D01*
X196410397Y-116471174D01*
X196412890Y-116481372D01*
X196412891Y-116481375D01*
X196455899Y-116562083D01*
X196455901Y-116562086D01*
X196501660Y-116614895D01*
X196519242Y-116632839D01*
X196519246Y-116632843D01*
X196519247Y-116632844D01*
X196519249Y-116632845D01*
X196598516Y-116677184D01*
X196599063Y-116677490D01*
X196666102Y-116697175D01*
X196724000Y-116705500D01*
X196724004Y-116705500D01*
X198176000Y-116705500D01*
X198243039Y-116725185D01*
X198288794Y-116777989D01*
X198300000Y-116829500D01*
X198300000Y-118700000D01*
X199300000Y-118700000D01*
X199300000Y-116829500D01*
X199319685Y-116762461D01*
X199372489Y-116716706D01*
X199424000Y-116705500D01*
X200670500Y-116705500D01*
X200737539Y-116725185D01*
X200783294Y-116777989D01*
X200794500Y-116829500D01*
X200794500Y-119088502D01*
X200794711Y-119097814D01*
X200794873Y-119101387D01*
X200795000Y-119106996D01*
X200795000Y-120592982D01*
X200794873Y-120598598D01*
X200794708Y-120602226D01*
X200794500Y-120611471D01*
X200794500Y-121076000D01*
X200774815Y-121143039D01*
X200722011Y-121188794D01*
X200670500Y-121200000D01*
X188900000Y-121200000D01*
X188900000Y-113900000D01*
X196000000Y-113900000D01*
X196000000Y-113000000D01*
X196270500Y-113000000D01*
X196337539Y-113019685D01*
G37*
G04 #@! TD.AperFunction*
G04 #@! TA.AperFunction,Conductor*
G36*
X183180813Y-113904697D02*
G01*
X183129325Y-113915897D01*
X183119127Y-113918390D01*
X183119124Y-113918391D01*
X183038416Y-113961399D01*
X183038413Y-113961401D01*
X182985604Y-114007160D01*
X182967660Y-114024742D01*
X182967654Y-114024749D01*
X182923011Y-114104559D01*
X182923009Y-114104564D01*
X182903326Y-114171596D01*
X182895000Y-114229503D01*
X182895000Y-116246024D01*
X182894864Y-116251823D01*
X182894500Y-116259586D01*
X182894500Y-117140409D01*
X182894864Y-117148173D01*
X182895000Y-117153973D01*
X182895000Y-119446024D01*
X182894864Y-119451823D01*
X182894500Y-119459586D01*
X182894500Y-120298925D01*
X182874815Y-120365964D01*
X182822011Y-120411719D01*
X182752853Y-120421663D01*
X182735567Y-120417903D01*
X182604772Y-120379500D01*
X182604017Y-120379500D01*
X182603291Y-120379286D01*
X182595995Y-120378238D01*
X182596145Y-120377188D01*
X182536978Y-120359815D01*
X182516336Y-120343181D01*
X181415064Y-119241909D01*
X181381579Y-119180586D01*
X181379806Y-119170412D01*
X181374068Y-119126829D01*
X181374068Y-119126827D01*
X181324065Y-119019596D01*
X181240404Y-118935935D01*
X181133173Y-118885932D01*
X181133171Y-118885931D01*
X181133172Y-118885931D01*
X181084317Y-118879500D01*
X181084316Y-118879500D01*
X180735684Y-118879500D01*
X180735683Y-118879500D01*
X180686828Y-118885931D01*
X180579595Y-118935935D01*
X180488264Y-119027267D01*
X180485440Y-119024443D01*
X180446958Y-119055183D01*
X180377458Y-119062352D01*
X180315114Y-119030808D01*
X180311901Y-119027101D01*
X180311736Y-119027267D01*
X180220404Y-118935935D01*
X180113173Y-118885932D01*
X180113171Y-118885931D01*
X180113172Y-118885931D01*
X180064317Y-118879500D01*
X180064316Y-118879500D01*
X179715684Y-118879500D01*
X179715683Y-118879500D01*
X179666828Y-118885931D01*
X179559595Y-118935935D01*
X179522850Y-118972681D01*
X179461527Y-119006166D01*
X179435169Y-119009000D01*
X179423320Y-119009000D01*
X179356281Y-118989315D01*
X179335639Y-118972681D01*
X178936319Y-118573361D01*
X178902834Y-118512038D01*
X178900000Y-118485680D01*
X178900000Y-113900000D01*
X183224492Y-113900000D01*
X183180813Y-113904697D01*
G37*
G04 #@! TD.AperFunction*
G04 #@! TA.AperFunction,Conductor*
G36*
X186100000Y-114018680D02*
G01*
X186085148Y-113953614D01*
X186085146Y-113953611D01*
X186059395Y-113921321D01*
X186047815Y-113903990D01*
X186045610Y-113900000D01*
X186100000Y-113900000D01*
X186100000Y-114018680D01*
G37*
G04 #@! TD.AperFunction*
G04 #@! TA.AperFunction,Conductor*
G36*
X202662539Y-113019685D02*
G01*
X202708294Y-113072489D01*
X202719500Y-113124000D01*
X202719500Y-113424316D01*
X202725931Y-113473171D01*
X202770684Y-113569143D01*
X202775935Y-113580404D01*
X202859596Y-113664065D01*
X202966827Y-113714068D01*
X203015683Y-113720500D01*
X203015684Y-113720500D01*
X203364317Y-113720500D01*
X203380601Y-113718356D01*
X203413173Y-113714068D01*
X203520404Y-113664065D01*
X203604065Y-113580404D01*
X203604065Y-113580403D01*
X203611736Y-113572733D01*
X203614564Y-113575561D01*
X203652977Y-113544843D01*
X203722474Y-113537635D01*
X203784835Y-113569143D01*
X203788093Y-113572903D01*
X203788264Y-113572733D01*
X203795935Y-113580404D01*
X203879596Y-113664065D01*
X203986827Y-113714068D01*
X204035683Y-113720500D01*
X204035684Y-113720500D01*
X204384317Y-113720500D01*
X204394087Y-113719213D01*
X204433173Y-113714068D01*
X204523599Y-113671901D01*
X204592672Y-113661410D01*
X204656456Y-113689929D01*
X204694696Y-113748405D01*
X204700000Y-113784284D01*
X204700000Y-116376000D01*
X204680315Y-116443039D01*
X204627511Y-116488794D01*
X204576000Y-116500000D01*
X199424000Y-116500000D01*
X199356961Y-116480315D01*
X199311206Y-116427511D01*
X199300000Y-116376000D01*
X199300000Y-116100000D01*
X198300000Y-116100000D01*
X198300000Y-116376000D01*
X198280315Y-116443039D01*
X198227511Y-116488794D01*
X198176000Y-116500000D01*
X196724000Y-116500000D01*
X196656961Y-116480315D01*
X196611206Y-116427511D01*
X196600000Y-116376000D01*
X196600000Y-113124000D01*
X196619685Y-113056961D01*
X196672489Y-113011206D01*
X196724000Y-113000000D01*
X202595500Y-113000000D01*
X202662539Y-113019685D01*
G37*
G04 #@! TD.AperFunction*
G04 #@! TA.AperFunction,Conductor*
G36*
X216543039Y-113019685D02*
G01*
X216588794Y-113072489D01*
X216600000Y-113124000D01*
X216600000Y-119670500D01*
X216580315Y-119737539D01*
X216527511Y-119783294D01*
X216476000Y-119794500D01*
X209149995Y-119794500D01*
X209104271Y-119799651D01*
X209021873Y-119839333D01*
X208964851Y-119910836D01*
X208944500Y-119999995D01*
X208944500Y-122376000D01*
X208924815Y-122443039D01*
X208872011Y-122488794D01*
X208820500Y-122500000D01*
X201124000Y-122500000D01*
X201056961Y-122480315D01*
X201011206Y-122427511D01*
X201000000Y-122376000D01*
X201000000Y-120611494D01*
X201000377Y-120603171D01*
X201000373Y-120603171D01*
X201000500Y-120600375D01*
X201000500Y-119099616D01*
X201000373Y-119096810D01*
X201000377Y-119096809D01*
X201000000Y-119088499D01*
X201000000Y-116829500D01*
X201019685Y-116762461D01*
X201072489Y-116716706D01*
X201124000Y-116705500D01*
X203276149Y-116705500D01*
X203343188Y-116725185D01*
X203388943Y-116777989D01*
X203398887Y-116847147D01*
X203382719Y-116888621D01*
X203383238Y-116888850D01*
X203332463Y-117003841D01*
X203332463Y-117003843D01*
X203329500Y-117029380D01*
X203329500Y-117610619D01*
X203332463Y-117636156D01*
X203332463Y-117636158D01*
X203356591Y-117690802D01*
X203378597Y-117740640D01*
X203459360Y-117821403D01*
X203563844Y-117867537D01*
X203589384Y-117870500D01*
X203589387Y-117870500D01*
X203592137Y-117870659D01*
X203592802Y-117870896D01*
X203592943Y-117870913D01*
X203592939Y-117870945D01*
X203657933Y-117894169D01*
X203700572Y-117949519D01*
X203709000Y-117994453D01*
X203709000Y-118193956D01*
X203689315Y-118260995D01*
X203672681Y-118281637D01*
X203660803Y-118293514D01*
X203609426Y-118398608D01*
X203599500Y-118466739D01*
X203599500Y-118933260D01*
X203609426Y-119001391D01*
X203660803Y-119106485D01*
X203743514Y-119189196D01*
X203743515Y-119189196D01*
X203743517Y-119189198D01*
X203848607Y-119240573D01*
X203882673Y-119245536D01*
X203916739Y-119250500D01*
X203916740Y-119250500D01*
X204283261Y-119250500D01*
X204305971Y-119247191D01*
X204351393Y-119240573D01*
X204456483Y-119189198D01*
X204539198Y-119106483D01*
X204590573Y-119001393D01*
X204600500Y-118933260D01*
X204600500Y-118466740D01*
X204590573Y-118398607D01*
X204539198Y-118293517D01*
X204539196Y-118293515D01*
X204539196Y-118293514D01*
X204527319Y-118281637D01*
X204493834Y-118220314D01*
X204491000Y-118193956D01*
X204491000Y-117803596D01*
X204510685Y-117736557D01*
X204563489Y-117690802D01*
X204577588Y-117685734D01*
X204580913Y-117684356D01*
X204580921Y-117684354D01*
X204670080Y-117632878D01*
X205462878Y-116840080D01*
X205514354Y-116750920D01*
X205541001Y-116651476D01*
X205541001Y-116548524D01*
X205541001Y-116540929D01*
X205541000Y-116540911D01*
X205541000Y-113611478D01*
X205541001Y-113611465D01*
X205541001Y-113498526D01*
X205541001Y-113498524D01*
X205514354Y-113399080D01*
X205462878Y-113309920D01*
X205364639Y-113211681D01*
X205331154Y-113150358D01*
X205336138Y-113080666D01*
X205378010Y-113024733D01*
X205443474Y-113000316D01*
X205452320Y-113000000D01*
X216476000Y-113000000D01*
X216543039Y-113019685D01*
G37*
G04 #@! TD.AperFunction*
G04 #@! TA.AperFunction,Conductor*
G36*
X145300000Y-121400000D02*
G01*
X155600000Y-121400000D01*
X155600000Y-120576007D01*
X155604697Y-120619686D01*
X155615897Y-120671174D01*
X155617366Y-120677182D01*
X155618390Y-120681373D01*
X155661400Y-120762085D01*
X155707155Y-120814889D01*
X155717547Y-120825495D01*
X155750403Y-120887157D01*
X155744707Y-120956795D01*
X155737196Y-120972807D01*
X155722511Y-120999060D01*
X155722509Y-120999064D01*
X155702826Y-121066096D01*
X155702825Y-121066101D01*
X155702825Y-121066102D01*
X155695004Y-121120500D01*
X155694500Y-121124003D01*
X155694500Y-123563095D01*
X155674815Y-123630134D01*
X155622011Y-123675889D01*
X155552853Y-123685833D01*
X155489297Y-123656808D01*
X155482819Y-123650776D01*
X155420640Y-123588597D01*
X155316157Y-123542463D01*
X155290619Y-123539500D01*
X155290616Y-123539500D01*
X154709384Y-123539500D01*
X154709380Y-123539500D01*
X154683843Y-123542463D01*
X154683841Y-123542463D01*
X154579359Y-123588597D01*
X154498597Y-123669359D01*
X154452463Y-123773841D01*
X154452463Y-123773843D01*
X154449500Y-123799380D01*
X154449500Y-124100619D01*
X154452463Y-124126156D01*
X154452463Y-124126158D01*
X154498597Y-124230640D01*
X154572681Y-124304724D01*
X154606166Y-124366047D01*
X154609000Y-124392405D01*
X154609000Y-124925169D01*
X154589315Y-124992208D01*
X154572681Y-125012850D01*
X154565935Y-125019595D01*
X154515931Y-125126828D01*
X154509500Y-125175683D01*
X154509500Y-125624316D01*
X154515931Y-125673171D01*
X154515932Y-125673173D01*
X154565935Y-125780404D01*
X154649596Y-125864065D01*
X154756827Y-125914068D01*
X154805683Y-125920500D01*
X154805684Y-125920500D01*
X154993120Y-125920500D01*
X155060159Y-125940185D01*
X155105914Y-125992989D01*
X155115857Y-126026852D01*
X155116508Y-126031373D01*
X155125456Y-126093617D01*
X155174470Y-126200940D01*
X155179272Y-126211455D01*
X155264105Y-126309359D01*
X155373085Y-126379396D01*
X155489038Y-126413442D01*
X155497379Y-126415891D01*
X155497381Y-126415892D01*
X155497382Y-126415892D01*
X155626927Y-126415892D01*
X155626927Y-126415891D01*
X155751223Y-126379396D01*
X155806765Y-126343701D01*
X155873803Y-126324017D01*
X155934336Y-126339796D01*
X156001722Y-126377490D01*
X156068761Y-126397175D01*
X156126659Y-126405500D01*
X156765335Y-126405500D01*
X156801853Y-126413442D01*
X156802422Y-126411506D01*
X156935225Y-126450499D01*
X156935227Y-126450500D01*
X156935228Y-126450500D01*
X157064773Y-126450500D01*
X157064773Y-126450499D01*
X157131662Y-126430859D01*
X157197578Y-126411506D01*
X157198146Y-126413442D01*
X157234665Y-126405500D01*
X157765335Y-126405500D01*
X157801853Y-126413442D01*
X157802422Y-126411506D01*
X157935225Y-126450499D01*
X157935227Y-126450500D01*
X157935228Y-126450500D01*
X158064773Y-126450500D01*
X158064773Y-126450499D01*
X158131662Y-126430859D01*
X158197578Y-126411506D01*
X158198146Y-126413442D01*
X158234665Y-126405500D01*
X158475991Y-126405500D01*
X158476000Y-126405500D01*
X158519684Y-126400803D01*
X158548875Y-126394452D01*
X158571174Y-126389602D01*
X158571190Y-126389598D01*
X158571195Y-126389597D01*
X158581373Y-126387110D01*
X158644727Y-126353349D01*
X158713145Y-126339194D01*
X158763573Y-126354561D01*
X158804563Y-126377490D01*
X158871602Y-126397175D01*
X158929500Y-126405500D01*
X159765335Y-126405500D01*
X159801853Y-126413442D01*
X159802422Y-126411506D01*
X159935225Y-126450499D01*
X159935227Y-126450500D01*
X159935228Y-126450500D01*
X160064773Y-126450500D01*
X160064773Y-126450499D01*
X160131662Y-126430859D01*
X160197578Y-126411506D01*
X160198146Y-126413442D01*
X160234665Y-126405500D01*
X160765335Y-126405500D01*
X160801853Y-126413442D01*
X160802422Y-126411506D01*
X160935225Y-126450499D01*
X160935227Y-126450500D01*
X160935228Y-126450500D01*
X161064773Y-126450500D01*
X161064773Y-126450499D01*
X161131662Y-126430859D01*
X161197578Y-126411506D01*
X161198146Y-126413442D01*
X161234665Y-126405500D01*
X161765335Y-126405500D01*
X161801853Y-126413442D01*
X161802422Y-126411506D01*
X161935225Y-126450499D01*
X161935227Y-126450500D01*
X161935228Y-126450500D01*
X162064773Y-126450500D01*
X162064773Y-126450499D01*
X162131662Y-126430859D01*
X162197578Y-126411506D01*
X162198146Y-126413442D01*
X162234665Y-126405500D01*
X162765335Y-126405500D01*
X162801853Y-126413442D01*
X162802422Y-126411506D01*
X162935225Y-126450499D01*
X162935227Y-126450500D01*
X162935228Y-126450500D01*
X163064773Y-126450500D01*
X163064773Y-126450499D01*
X163131662Y-126430859D01*
X163197578Y-126411506D01*
X163198146Y-126413442D01*
X163234665Y-126405500D01*
X169870491Y-126405500D01*
X169870500Y-126405500D01*
X169914184Y-126400803D01*
X169943375Y-126394452D01*
X169965674Y-126389602D01*
X169965690Y-126389598D01*
X169965695Y-126389597D01*
X169975873Y-126387110D01*
X170039227Y-126353349D01*
X170107645Y-126339194D01*
X170158073Y-126354561D01*
X170199063Y-126377490D01*
X170266102Y-126397175D01*
X170324000Y-126405500D01*
X170324004Y-126405500D01*
X179775991Y-126405500D01*
X179776000Y-126405500D01*
X179819684Y-126400803D01*
X179848875Y-126394452D01*
X179871174Y-126389602D01*
X179871190Y-126389598D01*
X179871195Y-126389597D01*
X179881373Y-126387110D01*
X179962085Y-126344100D01*
X180014889Y-126298345D01*
X180032843Y-126280754D01*
X180077490Y-126200937D01*
X180078455Y-126197650D01*
X180079655Y-126195782D01*
X180080189Y-126194513D01*
X180080411Y-126194606D01*
X180116228Y-126138873D01*
X180179783Y-126109847D01*
X180213619Y-126109647D01*
X180220099Y-126110500D01*
X180579900Y-126110499D01*
X180629487Y-126103972D01*
X180738316Y-126053224D01*
X180764221Y-126027319D01*
X180825544Y-125993834D01*
X180851902Y-125991000D01*
X180855169Y-125991000D01*
X180922208Y-126010685D01*
X180942850Y-126027319D01*
X180979596Y-126064065D01*
X181086827Y-126114068D01*
X181135683Y-126120500D01*
X181135684Y-126120500D01*
X181484317Y-126120500D01*
X181500601Y-126118356D01*
X181533173Y-126114068D01*
X181640404Y-126064065D01*
X181724065Y-125980404D01*
X181774068Y-125873173D01*
X181780500Y-125824316D01*
X181780500Y-125375684D01*
X181774068Y-125326827D01*
X181724065Y-125219596D01*
X181640404Y-125135935D01*
X181533173Y-125085932D01*
X181533171Y-125085931D01*
X181533172Y-125085931D01*
X181484317Y-125079500D01*
X181484316Y-125079500D01*
X181135684Y-125079500D01*
X181135683Y-125079500D01*
X181086828Y-125085931D01*
X180979595Y-125135935D01*
X180942850Y-125172681D01*
X180881527Y-125206166D01*
X180855169Y-125209000D01*
X180851902Y-125209000D01*
X180784863Y-125189315D01*
X180764221Y-125172681D01*
X180738316Y-125146776D01*
X180715067Y-125135935D01*
X180629487Y-125096028D01*
X180629485Y-125096027D01*
X180629486Y-125096027D01*
X180579902Y-125089500D01*
X180229500Y-125089500D01*
X180162461Y-125069815D01*
X180116706Y-125017011D01*
X180105500Y-124965500D01*
X180105500Y-122405391D01*
X180125185Y-122338352D01*
X180177989Y-122292597D01*
X180247147Y-122282653D01*
X180310703Y-122311678D01*
X180320420Y-122322566D01*
X180320472Y-122322515D01*
X180328597Y-122330640D01*
X180409360Y-122411403D01*
X180513844Y-122457537D01*
X180539384Y-122460500D01*
X180539386Y-122460500D01*
X181120614Y-122460500D01*
X181120616Y-122460500D01*
X181146156Y-122457537D01*
X181250640Y-122411403D01*
X181331403Y-122330640D01*
X181377537Y-122226156D01*
X181380500Y-122200616D01*
X181380500Y-121899384D01*
X181377537Y-121873844D01*
X181331403Y-121769360D01*
X181257319Y-121695276D01*
X181223835Y-121633952D01*
X181221001Y-121607595D01*
X181221001Y-121538526D01*
X181221001Y-121538524D01*
X181194354Y-121439080D01*
X181142878Y-121349920D01*
X181104165Y-121311207D01*
X181070680Y-121249884D01*
X181075664Y-121180192D01*
X181117536Y-121124259D01*
X181139432Y-121111149D01*
X181190470Y-121087349D01*
X181259544Y-121076858D01*
X181323328Y-121105378D01*
X181336582Y-121118526D01*
X181401951Y-121193967D01*
X181510931Y-121264004D01*
X181567113Y-121280500D01*
X181635225Y-121300499D01*
X181635227Y-121300500D01*
X181635228Y-121300500D01*
X181764773Y-121300500D01*
X181764773Y-121300499D01*
X181889069Y-121264004D01*
X181998049Y-121193967D01*
X182034951Y-121151378D01*
X182093727Y-121113605D01*
X182163596Y-121113603D01*
X182222375Y-121151376D01*
X182222377Y-121151378D01*
X182241949Y-121173966D01*
X182241951Y-121173967D01*
X182350931Y-121244004D01*
X182419050Y-121264005D01*
X182475225Y-121280499D01*
X182475227Y-121280500D01*
X182475228Y-121280500D01*
X182604773Y-121280500D01*
X182604773Y-121280499D01*
X182729069Y-121244004D01*
X182838049Y-121173967D01*
X182922882Y-121076063D01*
X182976697Y-120958226D01*
X182995133Y-120830000D01*
X182976697Y-120701774D01*
X182965466Y-120677182D01*
X182955521Y-120608024D01*
X182984545Y-120544468D01*
X182997051Y-120531960D01*
X183009389Y-120521270D01*
X183027343Y-120503679D01*
X183071990Y-120423862D01*
X183091675Y-120356823D01*
X183100000Y-120298925D01*
X183100000Y-126250000D01*
X185900000Y-126250000D01*
X185900000Y-125926007D01*
X185904697Y-125969686D01*
X185915897Y-126021174D01*
X185918390Y-126031372D01*
X185918391Y-126031375D01*
X185961399Y-126112083D01*
X185961401Y-126112086D01*
X186007160Y-126164895D01*
X186024742Y-126182839D01*
X186024746Y-126182843D01*
X186024747Y-126182844D01*
X186024749Y-126182845D01*
X186104559Y-126227488D01*
X186104563Y-126227490D01*
X186171602Y-126247175D01*
X186229500Y-126255500D01*
X186229504Y-126255500D01*
X188775991Y-126255500D01*
X188776000Y-126255500D01*
X188819684Y-126250803D01*
X188848875Y-126244452D01*
X188871174Y-126239602D01*
X188871190Y-126239598D01*
X188871195Y-126239597D01*
X188881373Y-126237110D01*
X188962085Y-126194100D01*
X189014889Y-126148345D01*
X189032843Y-126130754D01*
X189077490Y-126050937D01*
X189097175Y-125983898D01*
X189105500Y-125926000D01*
X189105500Y-121529500D01*
X189125185Y-121462461D01*
X189177989Y-121416706D01*
X189229500Y-121405500D01*
X200670500Y-121405500D01*
X200737539Y-121425185D01*
X200783294Y-121477989D01*
X200794500Y-121529500D01*
X200794500Y-122376007D01*
X200799197Y-122419686D01*
X200810397Y-122471174D01*
X200812890Y-122481372D01*
X200812891Y-122481375D01*
X200855899Y-122562083D01*
X200855901Y-122562086D01*
X200901660Y-122614895D01*
X200919242Y-122632839D01*
X200919246Y-122632843D01*
X200919247Y-122632844D01*
X200919249Y-122632845D01*
X200999059Y-122677488D01*
X200999063Y-122677490D01*
X201066102Y-122697175D01*
X201124000Y-122705500D01*
X201124004Y-122705500D01*
X208820491Y-122705500D01*
X208820500Y-122705500D01*
X208864184Y-122700803D01*
X208893375Y-122694452D01*
X208915674Y-122689602D01*
X208915690Y-122689598D01*
X208915695Y-122689597D01*
X208925873Y-122687110D01*
X209006585Y-122644100D01*
X209059389Y-122598345D01*
X209077343Y-122580754D01*
X209121990Y-122500937D01*
X209141675Y-122433898D01*
X209150000Y-122376000D01*
X209150000Y-123150000D01*
X217999500Y-123150000D01*
X217999500Y-127875500D01*
X217979815Y-127942539D01*
X217927011Y-127988294D01*
X217875500Y-127999500D01*
X126124500Y-127999500D01*
X126057461Y-127979815D01*
X126011706Y-127927011D01*
X126000500Y-127875500D01*
X126000500Y-120329500D01*
X126020185Y-120262461D01*
X126072989Y-120216706D01*
X126124500Y-120205500D01*
X144937420Y-120205500D01*
X144966666Y-120203408D01*
X145001601Y-120198385D01*
X145083456Y-120167855D01*
X145142234Y-120130081D01*
X145162511Y-120115222D01*
X145218062Y-120042571D01*
X145247087Y-119979015D01*
X145256915Y-119945540D01*
X145263093Y-119928978D01*
X145270221Y-119913373D01*
X145284097Y-119871683D01*
X145295303Y-119820171D01*
X145300000Y-119776488D01*
X145300000Y-121400000D01*
G37*
G04 #@! TD.AperFunction*
G04 #@! TA.AperFunction,Conductor*
G36*
X217942539Y-98020185D02*
G01*
X217988294Y-98072989D01*
X217999500Y-98124500D01*
X217999500Y-120000000D01*
X216476000Y-120000000D01*
X216519684Y-119995303D01*
X216548875Y-119988952D01*
X216571174Y-119984102D01*
X216571190Y-119984098D01*
X216571195Y-119984097D01*
X216581373Y-119981610D01*
X216662085Y-119938600D01*
X216714889Y-119892845D01*
X216732843Y-119875254D01*
X216777490Y-119795437D01*
X216797175Y-119728398D01*
X216805500Y-119670500D01*
X216805500Y-113124000D01*
X216800803Y-113080316D01*
X216796897Y-113062364D01*
X216789602Y-113028825D01*
X216788454Y-113024127D01*
X216787110Y-113018627D01*
X216744100Y-112937915D01*
X216698345Y-112885111D01*
X216698339Y-112885104D01*
X216680757Y-112867160D01*
X216680756Y-112867159D01*
X216680754Y-112867157D01*
X216680752Y-112867156D01*
X216680750Y-112867154D01*
X216600940Y-112822511D01*
X216600935Y-112822509D01*
X216533903Y-112802826D01*
X216533899Y-112802825D01*
X216533898Y-112802825D01*
X216476000Y-112794500D01*
X205452320Y-112794500D01*
X205452316Y-112794500D01*
X205448652Y-112794565D01*
X205444984Y-112794631D01*
X205436138Y-112794947D01*
X205436133Y-112794947D01*
X205371661Y-112807772D01*
X205306199Y-112832188D01*
X205283227Y-112842395D01*
X205283220Y-112842400D01*
X205214635Y-112900613D01*
X205150786Y-112928987D01*
X205081733Y-112918337D01*
X205046714Y-112893756D01*
X205040082Y-112887124D01*
X205040080Y-112887122D01*
X204970933Y-112847200D01*
X204950923Y-112835647D01*
X204950922Y-112835646D01*
X204950921Y-112835646D01*
X204851476Y-112809000D01*
X204851475Y-112809000D01*
X204664831Y-112809000D01*
X204597792Y-112789315D01*
X204577150Y-112772681D01*
X204540404Y-112735935D01*
X204518530Y-112725735D01*
X204433173Y-112685932D01*
X204433171Y-112685931D01*
X204433172Y-112685931D01*
X204384317Y-112679500D01*
X204384316Y-112679500D01*
X204035684Y-112679500D01*
X204035683Y-112679500D01*
X203986828Y-112685931D01*
X203879596Y-112735934D01*
X203858053Y-112757478D01*
X203796729Y-112790962D01*
X203727037Y-112785976D01*
X203671105Y-112744104D01*
X203646689Y-112678639D01*
X203647635Y-112652148D01*
X203655133Y-112600000D01*
X203636697Y-112471774D01*
X203582882Y-112353937D01*
X203498049Y-112256033D01*
X203389069Y-112185996D01*
X203389065Y-112185994D01*
X203389064Y-112185994D01*
X203264774Y-112149500D01*
X203264772Y-112149500D01*
X203135228Y-112149500D01*
X203135226Y-112149500D01*
X203010935Y-112185994D01*
X203010932Y-112185995D01*
X203010931Y-112185996D01*
X202959677Y-112218934D01*
X202901950Y-112256033D01*
X202817118Y-112353937D01*
X202817117Y-112353938D01*
X202763302Y-112471774D01*
X202744867Y-112600000D01*
X202753001Y-112656577D01*
X202743057Y-112725735D01*
X202697302Y-112778539D01*
X202630262Y-112798223D01*
X202612616Y-112796961D01*
X202607327Y-112796200D01*
X202595500Y-112794500D01*
X196724000Y-112794500D01*
X196723992Y-112794500D01*
X196680313Y-112799197D01*
X196628825Y-112810397D01*
X196618627Y-112812890D01*
X196618623Y-112812891D01*
X196555271Y-112846650D01*
X196486850Y-112860804D01*
X196436426Y-112845437D01*
X196395437Y-112822510D01*
X196395435Y-112822509D01*
X196328397Y-112802824D01*
X196311849Y-112800445D01*
X196248294Y-112771418D01*
X196210522Y-112712639D01*
X196205500Y-112677708D01*
X196205500Y-110251361D01*
X196204321Y-110229381D01*
X196201488Y-110203034D01*
X196201487Y-110203032D01*
X196185038Y-110150500D01*
X196177529Y-110126518D01*
X196144044Y-110065195D01*
X196144039Y-110065188D01*
X196109001Y-110018384D01*
X196108998Y-110018381D01*
X196108991Y-110018371D01*
X195721283Y-109630663D01*
X195281634Y-109191013D01*
X195281633Y-109191012D01*
X195265283Y-109176325D01*
X195265269Y-109176313D01*
X195244620Y-109159672D01*
X195173575Y-109122509D01*
X195106543Y-109102826D01*
X195105894Y-109102732D01*
X195048638Y-109094500D01*
X195048634Y-109094500D01*
X194429500Y-109094500D01*
X194362461Y-109074815D01*
X194316706Y-109022011D01*
X194305500Y-108970500D01*
X194305500Y-108009070D01*
X194325185Y-107942031D01*
X194377989Y-107896276D01*
X194447147Y-107886332D01*
X194496535Y-107904752D01*
X194510931Y-107914004D01*
X194510932Y-107914004D01*
X194510935Y-107914006D01*
X194635225Y-107950499D01*
X194635227Y-107950500D01*
X194635228Y-107950500D01*
X194764773Y-107950500D01*
X194764773Y-107950499D01*
X194875562Y-107917970D01*
X194889066Y-107914005D01*
X194889066Y-107914004D01*
X194889069Y-107914004D01*
X194908779Y-107901336D01*
X194975818Y-107881651D01*
X195042858Y-107901334D01*
X195063501Y-107917970D01*
X195069596Y-107924065D01*
X195176827Y-107974068D01*
X195225683Y-107980500D01*
X195225684Y-107980500D01*
X195674317Y-107980500D01*
X195696906Y-107977526D01*
X195723173Y-107974068D01*
X195830404Y-107924065D01*
X195837319Y-107917150D01*
X195898642Y-107883665D01*
X195968334Y-107888649D01*
X196012681Y-107917150D01*
X196019596Y-107924065D01*
X196126827Y-107974068D01*
X196175683Y-107980500D01*
X196175684Y-107980500D01*
X196624317Y-107980500D01*
X196646906Y-107977526D01*
X196673173Y-107974068D01*
X196780404Y-107924065D01*
X196787319Y-107917150D01*
X196848642Y-107883665D01*
X196918334Y-107888649D01*
X196962681Y-107917150D01*
X196969596Y-107924065D01*
X197076827Y-107974068D01*
X197125683Y-107980500D01*
X197125684Y-107980500D01*
X197574317Y-107980500D01*
X197596906Y-107977526D01*
X197623173Y-107974068D01*
X197730404Y-107924065D01*
X197772319Y-107882150D01*
X197833642Y-107848665D01*
X197903334Y-107853649D01*
X197947681Y-107882150D01*
X197977267Y-107911736D01*
X197974443Y-107914559D01*
X198005183Y-107953042D01*
X198012352Y-108022542D01*
X197980808Y-108084886D01*
X197977101Y-108088098D01*
X197977267Y-108088264D01*
X197885935Y-108179595D01*
X197835931Y-108286828D01*
X197829500Y-108335683D01*
X197829500Y-108684316D01*
X197835931Y-108733171D01*
X197835932Y-108733173D01*
X197885935Y-108840404D01*
X197969596Y-108924065D01*
X198076827Y-108974068D01*
X198125683Y-108980500D01*
X198125684Y-108980500D01*
X198200499Y-108980500D01*
X198267538Y-109000185D01*
X198313293Y-109052989D01*
X198324499Y-109104500D01*
X198324499Y-109177434D01*
X198304814Y-109244473D01*
X198267538Y-109281749D01*
X198151952Y-109356031D01*
X198067118Y-109453937D01*
X198067117Y-109453938D01*
X198013302Y-109571774D01*
X197994867Y-109700000D01*
X198013302Y-109828225D01*
X198050000Y-109908580D01*
X198067118Y-109946063D01*
X198151951Y-110043967D01*
X198260931Y-110114004D01*
X198385225Y-110150499D01*
X198385227Y-110150500D01*
X198385228Y-110150500D01*
X198514773Y-110150500D01*
X198514773Y-110150499D01*
X198639069Y-110114004D01*
X198748049Y-110043967D01*
X198756284Y-110034462D01*
X198815061Y-109996686D01*
X198884930Y-109996684D01*
X198943710Y-110034456D01*
X198943716Y-110034463D01*
X198951949Y-110043966D01*
X198951951Y-110043967D01*
X199060931Y-110114004D01*
X199185225Y-110150499D01*
X199185227Y-110150500D01*
X199185228Y-110150500D01*
X199314773Y-110150500D01*
X199314773Y-110150499D01*
X199439069Y-110114004D01*
X199548049Y-110043967D01*
X199632882Y-109946063D01*
X199686697Y-109828226D01*
X199705133Y-109700000D01*
X199686697Y-109571774D01*
X199632882Y-109453937D01*
X199548049Y-109356033D01*
X199548048Y-109356032D01*
X199548047Y-109356031D01*
X199432462Y-109281749D01*
X199386707Y-109228946D01*
X199375501Y-109177434D01*
X199375501Y-109104500D01*
X199395186Y-109037461D01*
X199447990Y-108991706D01*
X199499501Y-108980500D01*
X199574317Y-108980500D01*
X199590601Y-108978356D01*
X199623173Y-108974068D01*
X199730404Y-108924065D01*
X199814065Y-108840404D01*
X199864068Y-108733173D01*
X199870500Y-108684316D01*
X199870500Y-108335684D01*
X199864068Y-108286827D01*
X199814065Y-108179596D01*
X199730404Y-108095935D01*
X199722733Y-108088264D01*
X199725561Y-108085435D01*
X199694843Y-108047023D01*
X199687635Y-107977526D01*
X199719143Y-107915165D01*
X199722903Y-107911906D01*
X199722733Y-107911736D01*
X199766932Y-107867537D01*
X199814065Y-107820404D01*
X199864068Y-107713173D01*
X199870500Y-107664316D01*
X199870500Y-107315684D01*
X199864068Y-107266827D01*
X199814065Y-107159596D01*
X199750685Y-107096216D01*
X199717200Y-107034893D01*
X199722184Y-106965201D01*
X199750685Y-106920854D01*
X199753224Y-106918316D01*
X199753225Y-106918312D01*
X199760899Y-106910640D01*
X199762081Y-106911822D01*
X199806864Y-106876023D01*
X199876362Y-106868827D01*
X199938718Y-106900346D01*
X199941548Y-106903088D01*
X199981684Y-106943224D01*
X200090513Y-106993972D01*
X200140099Y-107000500D01*
X200559900Y-107000499D01*
X200609487Y-106993972D01*
X200681740Y-106960279D01*
X200750815Y-106949787D01*
X200814599Y-106978306D01*
X200821825Y-106984980D01*
X201634348Y-107797503D01*
X201667833Y-107858826D01*
X201669405Y-107867537D01*
X201680620Y-107945540D01*
X201680621Y-107945545D01*
X201715785Y-108022542D01*
X201734436Y-108063381D01*
X201819269Y-108161285D01*
X201928249Y-108231322D01*
X202014538Y-108256658D01*
X202052543Y-108267817D01*
X202052545Y-108267818D01*
X202052546Y-108267818D01*
X202053301Y-108267818D01*
X202054026Y-108268031D01*
X202061323Y-108269080D01*
X202061172Y-108270129D01*
X202120340Y-108287503D01*
X202140982Y-108304137D01*
X203198910Y-109362065D01*
X203273590Y-109405181D01*
X203356884Y-109427500D01*
X203356886Y-109427500D01*
X210323114Y-109427500D01*
X210323116Y-109427500D01*
X210406410Y-109405181D01*
X210481090Y-109362065D01*
X212516336Y-107326819D01*
X212577659Y-107293334D01*
X212604017Y-107290500D01*
X214064750Y-107290500D01*
X214064751Y-107290499D01*
X214079568Y-107287552D01*
X214123229Y-107278868D01*
X214123229Y-107278867D01*
X214123231Y-107278867D01*
X214189552Y-107234552D01*
X214233867Y-107168231D01*
X214233867Y-107168229D01*
X214233868Y-107168229D01*
X214245499Y-107109752D01*
X214245500Y-107109750D01*
X214245500Y-106070249D01*
X214245499Y-106070247D01*
X214233868Y-106011770D01*
X214233867Y-106011769D01*
X214189552Y-105945447D01*
X214123230Y-105901132D01*
X214123229Y-105901131D01*
X214064752Y-105889500D01*
X214064748Y-105889500D01*
X211515252Y-105889500D01*
X211515247Y-105889500D01*
X211456770Y-105901131D01*
X211456769Y-105901132D01*
X211390447Y-105945447D01*
X211346132Y-106011769D01*
X211346131Y-106011770D01*
X211334500Y-106070247D01*
X211334500Y-107109752D01*
X211346131Y-107168229D01*
X211346132Y-107168230D01*
X211390448Y-107234553D01*
X211439766Y-107267507D01*
X211484570Y-107321119D01*
X211493277Y-107390445D01*
X211463122Y-107453472D01*
X211458555Y-107458289D01*
X210180664Y-108736181D01*
X210119341Y-108769666D01*
X210092983Y-108772500D01*
X203587017Y-108772500D01*
X203519978Y-108752815D01*
X203499336Y-108736181D01*
X202600286Y-107837131D01*
X202566801Y-107775808D01*
X202565231Y-107767109D01*
X202554015Y-107689092D01*
X202523603Y-107622500D01*
X202500202Y-107571258D01*
X202500200Y-107571256D01*
X202500200Y-107571255D01*
X202415367Y-107473351D01*
X202306387Y-107403314D01*
X202306383Y-107403312D01*
X202306382Y-107403312D01*
X202182092Y-107366818D01*
X202182090Y-107366818D01*
X202181335Y-107366818D01*
X202180609Y-107366604D01*
X202173313Y-107365556D01*
X202173463Y-107364506D01*
X202114296Y-107347133D01*
X202093654Y-107330499D01*
X201021091Y-106257936D01*
X201021090Y-106257935D01*
X200946410Y-106214819D01*
X200946411Y-106214819D01*
X200863113Y-106192499D01*
X200855057Y-106191439D01*
X200855307Y-106189535D01*
X200798364Y-106172815D01*
X200777722Y-106156181D01*
X200713819Y-106092278D01*
X200680334Y-106030955D01*
X200677500Y-106004597D01*
X200677500Y-105774499D01*
X200697185Y-105707460D01*
X200749989Y-105661705D01*
X200801500Y-105650499D01*
X201027130Y-105650499D01*
X201027132Y-105650499D01*
X201107495Y-105634515D01*
X201198624Y-105573624D01*
X201259515Y-105482495D01*
X201275500Y-105402133D01*
X201275499Y-105197868D01*
X201259515Y-105117505D01*
X201239309Y-105087266D01*
X201198624Y-105026375D01*
X201141111Y-104987947D01*
X201107495Y-104965485D01*
X201107493Y-104965484D01*
X201107490Y-104965483D01*
X201027136Y-104949500D01*
X199672870Y-104949500D01*
X199592504Y-104965485D01*
X199501375Y-105026375D01*
X199440485Y-105117505D01*
X199440483Y-105117509D01*
X199424500Y-105197863D01*
X199424500Y-105402129D01*
X199440485Y-105482495D01*
X199501375Y-105573624D01*
X199525884Y-105590000D01*
X199592505Y-105634515D01*
X199592508Y-105634515D01*
X199592509Y-105634516D01*
X199619533Y-105639891D01*
X199672867Y-105650500D01*
X199898500Y-105650499D01*
X199965539Y-105670183D01*
X200011294Y-105722987D01*
X200022500Y-105774499D01*
X200022500Y-106004598D01*
X200002815Y-106071637D01*
X199986181Y-106092279D01*
X199912681Y-106165779D01*
X199851358Y-106199264D01*
X199781666Y-106194280D01*
X199737319Y-106165779D01*
X199668316Y-106096776D01*
X199657499Y-106091732D01*
X199559487Y-106046028D01*
X199559485Y-106046027D01*
X199559486Y-106046027D01*
X199509902Y-106039500D01*
X199509901Y-106039500D01*
X199348335Y-106039500D01*
X199281296Y-106019815D01*
X199260654Y-106003181D01*
X199114819Y-105857346D01*
X199081334Y-105796023D01*
X199078500Y-105769665D01*
X199078500Y-104790424D01*
X199098185Y-104723385D01*
X199114815Y-104702747D01*
X199291423Y-104526139D01*
X199352743Y-104492656D01*
X199422434Y-104497640D01*
X199478368Y-104539511D01*
X199482203Y-104544930D01*
X199501376Y-104573624D01*
X199592505Y-104634515D01*
X199592508Y-104634515D01*
X199592509Y-104634516D01*
X199632686Y-104642507D01*
X199672867Y-104650500D01*
X201027132Y-104650499D01*
X201107495Y-104634515D01*
X201107496Y-104634514D01*
X201119473Y-104632132D01*
X201119714Y-104633344D01*
X201149095Y-104627500D01*
X201912983Y-104627500D01*
X201980022Y-104647185D01*
X202000664Y-104663819D01*
X202017030Y-104680185D01*
X202050515Y-104741508D01*
X202052087Y-104750219D01*
X202063302Y-104828222D01*
X202063303Y-104828227D01*
X202093757Y-104894910D01*
X202117118Y-104946063D01*
X202201951Y-105043967D01*
X202310931Y-105114004D01*
X202435225Y-105150499D01*
X202435227Y-105150500D01*
X202435228Y-105150500D01*
X202564773Y-105150500D01*
X202564773Y-105150499D01*
X202689069Y-105114004D01*
X202798049Y-105043967D01*
X202882882Y-104946063D01*
X202936697Y-104828226D01*
X202955133Y-104700000D01*
X202936697Y-104571774D01*
X202882882Y-104453937D01*
X202800962Y-104359395D01*
X202799999Y-104357286D01*
X202776747Y-104342343D01*
X202689069Y-104285996D01*
X202689065Y-104285994D01*
X202689064Y-104285994D01*
X202564774Y-104249500D01*
X202564772Y-104249500D01*
X202564017Y-104249500D01*
X202563291Y-104249286D01*
X202555995Y-104248238D01*
X202556145Y-104247188D01*
X202496978Y-104229815D01*
X202476336Y-104213181D01*
X202301091Y-104037936D01*
X202301090Y-104037935D01*
X202226410Y-103994819D01*
X202226411Y-103994819D01*
X202198645Y-103987379D01*
X202143116Y-103972500D01*
X202143114Y-103972500D01*
X201399500Y-103972500D01*
X201332461Y-103952815D01*
X201286706Y-103900011D01*
X201275500Y-103848501D01*
X201275499Y-103697870D01*
X201275499Y-103697868D01*
X201259515Y-103617505D01*
X201259513Y-103617502D01*
X201254841Y-103606222D01*
X201256285Y-103605623D01*
X201239563Y-103552211D01*
X201255517Y-103494056D01*
X201254842Y-103493777D01*
X201257070Y-103488396D01*
X201258049Y-103484831D01*
X201259452Y-103482647D01*
X201259516Y-103482493D01*
X201269088Y-103434365D01*
X201275500Y-103402133D01*
X201275499Y-103274499D01*
X201295183Y-103207461D01*
X201347987Y-103161706D01*
X201399499Y-103150500D01*
X201890983Y-103150500D01*
X201958022Y-103170185D01*
X201978664Y-103186819D01*
X202963570Y-104171725D01*
X202967126Y-104178238D01*
X202982358Y-104190513D01*
X204513555Y-105721710D01*
X204547040Y-105783033D01*
X204542056Y-105852725D01*
X204500184Y-105908658D01*
X204494767Y-105912492D01*
X204445447Y-105945447D01*
X204401132Y-106011769D01*
X204401131Y-106011770D01*
X204389500Y-106070247D01*
X204389500Y-107109752D01*
X204401131Y-107168229D01*
X204401132Y-107168230D01*
X204445447Y-107234552D01*
X204511769Y-107278867D01*
X204511770Y-107278868D01*
X204570247Y-107290499D01*
X204570250Y-107290500D01*
X204570252Y-107290500D01*
X207119750Y-107290500D01*
X207119751Y-107290499D01*
X207134568Y-107287552D01*
X207178229Y-107278868D01*
X207178229Y-107278867D01*
X207178231Y-107278867D01*
X207244552Y-107234552D01*
X207288867Y-107168231D01*
X207288867Y-107168229D01*
X207288868Y-107168229D01*
X207300499Y-107109752D01*
X207300500Y-107109750D01*
X207300500Y-106070249D01*
X207300499Y-106070247D01*
X207288868Y-106011770D01*
X207288867Y-106011769D01*
X207244552Y-105945447D01*
X207178230Y-105901132D01*
X207178229Y-105901131D01*
X207119752Y-105889500D01*
X207119748Y-105889500D01*
X205659017Y-105889500D01*
X205591978Y-105869815D01*
X205571336Y-105853181D01*
X203718155Y-104000000D01*
X206944867Y-104000000D01*
X206963302Y-104128225D01*
X206986143Y-104178238D01*
X207017118Y-104246063D01*
X207101951Y-104343967D01*
X207210931Y-104414004D01*
X207335225Y-104450499D01*
X207335227Y-104450500D01*
X207335228Y-104450500D01*
X207464773Y-104450500D01*
X207464773Y-104450499D01*
X207496211Y-104441268D01*
X207540566Y-104428246D01*
X207610436Y-104428246D01*
X207669213Y-104466021D01*
X207698238Y-104529577D01*
X207699500Y-104547223D01*
X207699500Y-104569752D01*
X207711131Y-104628229D01*
X207711132Y-104628230D01*
X207755447Y-104694552D01*
X207821769Y-104738867D01*
X207821770Y-104738868D01*
X207880247Y-104750499D01*
X207880250Y-104750500D01*
X207880252Y-104750500D01*
X210429750Y-104750500D01*
X210429751Y-104750499D01*
X210444568Y-104747552D01*
X210488229Y-104738868D01*
X210488229Y-104738867D01*
X210488231Y-104738867D01*
X210554552Y-104694552D01*
X210598867Y-104628231D01*
X210598867Y-104628229D01*
X210598868Y-104628229D01*
X210610499Y-104569752D01*
X210610500Y-104569750D01*
X210610500Y-103530249D01*
X210610499Y-103530247D01*
X210598868Y-103471770D01*
X210598867Y-103471769D01*
X210554552Y-103405447D01*
X210488230Y-103361132D01*
X210488229Y-103361131D01*
X210429752Y-103349500D01*
X210429748Y-103349500D01*
X207880252Y-103349500D01*
X207880247Y-103349500D01*
X207821770Y-103361131D01*
X207821769Y-103361132D01*
X207755447Y-103405447D01*
X207711132Y-103471769D01*
X207711130Y-103471772D01*
X207709380Y-103480574D01*
X207676993Y-103542484D01*
X207616276Y-103577055D01*
X207552830Y-103575355D01*
X207464774Y-103549500D01*
X207464772Y-103549500D01*
X207335228Y-103549500D01*
X207335226Y-103549500D01*
X207210935Y-103585994D01*
X207210932Y-103585995D01*
X207210931Y-103585996D01*
X207179459Y-103606222D01*
X207101950Y-103656033D01*
X207017118Y-103753937D01*
X207017117Y-103753938D01*
X206963302Y-103871774D01*
X206944867Y-104000000D01*
X203718155Y-104000000D01*
X202279091Y-102560936D01*
X202279090Y-102560935D01*
X202204410Y-102517819D01*
X202204411Y-102517819D01*
X202176645Y-102510379D01*
X202121116Y-102495500D01*
X202121114Y-102495500D01*
X200004977Y-102495500D01*
X199937938Y-102475815D01*
X199892183Y-102423011D01*
X199882239Y-102353853D01*
X199911264Y-102290297D01*
X199917296Y-102283819D01*
X200327296Y-101873819D01*
X200388619Y-101840334D01*
X200414977Y-101837500D01*
X204265500Y-101837500D01*
X204332539Y-101857185D01*
X204378294Y-101909989D01*
X204389500Y-101961500D01*
X204389500Y-102029752D01*
X204401131Y-102088229D01*
X204401132Y-102088230D01*
X204445447Y-102154552D01*
X204511769Y-102198867D01*
X204511770Y-102198868D01*
X204570247Y-102210499D01*
X204570250Y-102210500D01*
X204570252Y-102210500D01*
X207119750Y-102210500D01*
X207119751Y-102210499D01*
X207134568Y-102207552D01*
X207178229Y-102198868D01*
X207178229Y-102198867D01*
X207178231Y-102198867D01*
X207244552Y-102154552D01*
X207288867Y-102088231D01*
X207288867Y-102088229D01*
X207288868Y-102088229D01*
X207300499Y-102029752D01*
X207300500Y-102029750D01*
X207300500Y-101134500D01*
X207320185Y-101067461D01*
X207372989Y-101021706D01*
X207424500Y-101010500D01*
X211210500Y-101010500D01*
X211277539Y-101030185D01*
X211323294Y-101082989D01*
X211334500Y-101134500D01*
X211334500Y-102029752D01*
X211346131Y-102088229D01*
X211346132Y-102088230D01*
X211390447Y-102154552D01*
X211456769Y-102198867D01*
X211456770Y-102198868D01*
X211515247Y-102210499D01*
X211515250Y-102210500D01*
X211515252Y-102210500D01*
X214064750Y-102210500D01*
X214064751Y-102210499D01*
X214079568Y-102207552D01*
X214123229Y-102198868D01*
X214123229Y-102198867D01*
X214123231Y-102198867D01*
X214189552Y-102154552D01*
X214233867Y-102088231D01*
X214233867Y-102088229D01*
X214233868Y-102088229D01*
X214245499Y-102029752D01*
X214245500Y-102029750D01*
X214245500Y-101308017D01*
X214265185Y-101240978D01*
X214317989Y-101195223D01*
X214387147Y-101185279D01*
X214450703Y-101214304D01*
X214457181Y-101220336D01*
X215736181Y-102499336D01*
X215769666Y-102560659D01*
X215772500Y-102587017D01*
X215772500Y-103225500D01*
X215752815Y-103292539D01*
X215700011Y-103338294D01*
X215648500Y-103349500D01*
X214825247Y-103349500D01*
X214766770Y-103361131D01*
X214766769Y-103361132D01*
X214700447Y-103405447D01*
X214656132Y-103471769D01*
X214656131Y-103471770D01*
X214644500Y-103530247D01*
X214644500Y-104569752D01*
X214656131Y-104628229D01*
X214656132Y-104628230D01*
X214700447Y-104694552D01*
X214766769Y-104738867D01*
X214766770Y-104738868D01*
X214825247Y-104750499D01*
X214825250Y-104750500D01*
X214825252Y-104750500D01*
X217374750Y-104750500D01*
X217374751Y-104750499D01*
X217389568Y-104747552D01*
X217433229Y-104738868D01*
X217433229Y-104738867D01*
X217433231Y-104738867D01*
X217499552Y-104694552D01*
X217543867Y-104628231D01*
X217543867Y-104628229D01*
X217543868Y-104628229D01*
X217555499Y-104569752D01*
X217555500Y-104569750D01*
X217555500Y-103530249D01*
X217555499Y-103530247D01*
X217543868Y-103471770D01*
X217543867Y-103471769D01*
X217499552Y-103405447D01*
X217433230Y-103361132D01*
X217433229Y-103361131D01*
X217374752Y-103349500D01*
X217374748Y-103349500D01*
X216551500Y-103349500D01*
X216484461Y-103329815D01*
X216438706Y-103277011D01*
X216427500Y-103225500D01*
X216427500Y-102356885D01*
X216426688Y-102353853D01*
X216405181Y-102273590D01*
X216362065Y-102198910D01*
X216301090Y-102137935D01*
X214203090Y-100039935D01*
X214128410Y-99996819D01*
X214128411Y-99996819D01*
X214100645Y-99989379D01*
X214045116Y-99974500D01*
X199741116Y-99974500D01*
X199654884Y-99974500D01*
X199599354Y-99989379D01*
X199571589Y-99996819D01*
X199496911Y-100039934D01*
X199496908Y-100039936D01*
X196623662Y-102913181D01*
X196562339Y-102946666D01*
X196535981Y-102949500D01*
X195272870Y-102949500D01*
X195192504Y-102965485D01*
X195101375Y-103026375D01*
X195040485Y-103117505D01*
X195040483Y-103117509D01*
X195024500Y-103197863D01*
X195024500Y-103402129D01*
X195032493Y-103442313D01*
X195039608Y-103478088D01*
X195040486Y-103482498D01*
X195045159Y-103493780D01*
X195043714Y-103494378D01*
X195060436Y-103547788D01*
X195044482Y-103605938D01*
X195045159Y-103606219D01*
X195042926Y-103611609D01*
X195041950Y-103615168D01*
X195040550Y-103617345D01*
X195040484Y-103617505D01*
X195024500Y-103697863D01*
X195024500Y-103902131D01*
X195025098Y-103908193D01*
X195023309Y-103908369D01*
X195017835Y-103969526D01*
X194974970Y-104024702D01*
X194964445Y-104031511D01*
X194953319Y-104037934D01*
X194953316Y-104037936D01*
X194587936Y-104403316D01*
X194587934Y-104403319D01*
X194544819Y-104477997D01*
X194522500Y-104561293D01*
X194522500Y-104667305D01*
X194502815Y-104734344D01*
X194450011Y-104780099D01*
X194380853Y-104790043D01*
X194317297Y-104761018D01*
X194281565Y-104708562D01*
X194270373Y-104676841D01*
X194270372Y-104676839D01*
X194270369Y-104676830D01*
X194260573Y-104653683D01*
X194239737Y-104628229D01*
X194202642Y-104582911D01*
X194158430Y-104548567D01*
X194117564Y-104491896D01*
X194110500Y-104450642D01*
X194110500Y-103551063D01*
X194130185Y-103484024D01*
X194157569Y-103455792D01*
X194156822Y-103454930D01*
X194162083Y-103450370D01*
X194162085Y-103450370D01*
X194214889Y-103404615D01*
X194232843Y-103387024D01*
X194277490Y-103307207D01*
X194297175Y-103240168D01*
X194305500Y-103182270D01*
X194305500Y-98124500D01*
X194325185Y-98057461D01*
X194377989Y-98011706D01*
X194429500Y-98000500D01*
X217875500Y-98000500D01*
X217942539Y-98020185D01*
G37*
G04 #@! TD.AperFunction*
G04 #@! TA.AperFunction,Conductor*
G36*
X163545611Y-112999340D02*
G01*
X163604548Y-113001139D01*
X163662147Y-113040689D01*
X163689219Y-113105100D01*
X163690000Y-113118995D01*
X163690000Y-114011137D01*
X163684977Y-114046072D01*
X163683303Y-114051772D01*
X163664867Y-114180000D01*
X163683302Y-114308225D01*
X163734736Y-114420848D01*
X163737118Y-114426063D01*
X163821951Y-114523967D01*
X163930931Y-114594004D01*
X164051097Y-114629287D01*
X164055225Y-114630499D01*
X164055227Y-114630500D01*
X164055228Y-114630500D01*
X164184773Y-114630500D01*
X164184773Y-114630499D01*
X164309069Y-114594004D01*
X164418049Y-114523967D01*
X164502882Y-114426063D01*
X164502882Y-114426062D01*
X164508689Y-114419361D01*
X164510405Y-114420848D01*
X164553784Y-114383252D01*
X164622942Y-114373300D01*
X164686501Y-114402317D01*
X164717465Y-114450487D01*
X164719423Y-114449575D01*
X164723431Y-114458172D01*
X164723432Y-114458173D01*
X164773435Y-114565404D01*
X164857096Y-114649065D01*
X164880932Y-114660180D01*
X164933370Y-114706350D01*
X164952523Y-114773543D01*
X164941321Y-114824072D01*
X164900803Y-114912793D01*
X164900802Y-114912794D01*
X164882367Y-115041021D01*
X164900802Y-115169247D01*
X164900803Y-115169248D01*
X164923519Y-115218989D01*
X164933463Y-115288147D01*
X164904438Y-115351703D01*
X164845660Y-115389477D01*
X164810725Y-115394500D01*
X163329492Y-115394500D01*
X163285813Y-115399197D01*
X163234325Y-115410397D01*
X163224127Y-115412890D01*
X163224123Y-115412891D01*
X163160771Y-115446650D01*
X163092350Y-115460804D01*
X163041926Y-115445437D01*
X163000937Y-115422510D01*
X163000935Y-115422509D01*
X162933903Y-115402826D01*
X162933899Y-115402825D01*
X162933898Y-115402825D01*
X162876000Y-115394500D01*
X162134499Y-115394500D01*
X162134491Y-115394500D01*
X162090818Y-115399196D01*
X162058350Y-115406259D01*
X161988658Y-115401273D01*
X161944313Y-115372773D01*
X161917319Y-115345779D01*
X161883834Y-115284456D01*
X161881000Y-115258098D01*
X161881000Y-115252440D01*
X161900685Y-115185401D01*
X161903428Y-115181312D01*
X161904059Y-115180409D01*
X161904065Y-115180404D01*
X161954068Y-115073173D01*
X161960500Y-115024316D01*
X161960500Y-114575684D01*
X161954068Y-114526827D01*
X161904065Y-114419596D01*
X161820404Y-114335935D01*
X161713173Y-114285932D01*
X161713171Y-114285931D01*
X161713172Y-114285931D01*
X161664317Y-114279500D01*
X161664316Y-114279500D01*
X161315684Y-114279500D01*
X161315683Y-114279500D01*
X161266828Y-114285931D01*
X161159595Y-114335935D01*
X161075935Y-114419595D01*
X161025931Y-114526828D01*
X161019500Y-114575683D01*
X161019500Y-114629287D01*
X160999815Y-114696326D01*
X160947011Y-114742081D01*
X160877853Y-114752025D01*
X160869106Y-114750122D01*
X160864774Y-114749500D01*
X160864772Y-114749500D01*
X160864017Y-114749500D01*
X160863291Y-114749286D01*
X160855995Y-114748238D01*
X160856145Y-114747188D01*
X160796978Y-114729815D01*
X160776336Y-114713181D01*
X160601093Y-114537937D01*
X160594642Y-114532987D01*
X160596209Y-114530944D01*
X160556844Y-114489660D01*
X160554689Y-114485269D01*
X160524065Y-114419596D01*
X160440404Y-114335935D01*
X160333173Y-114285932D01*
X160333171Y-114285931D01*
X160333172Y-114285931D01*
X160284317Y-114279500D01*
X160284316Y-114279500D01*
X159935684Y-114279500D01*
X159935683Y-114279500D01*
X159886828Y-114285931D01*
X159779595Y-114335935D01*
X159688264Y-114427267D01*
X159685440Y-114424443D01*
X159646958Y-114455183D01*
X159577458Y-114462352D01*
X159515114Y-114430808D01*
X159511901Y-114427101D01*
X159511736Y-114427267D01*
X159420404Y-114335935D01*
X159360980Y-114308225D01*
X159313173Y-114285932D01*
X159313171Y-114285931D01*
X159313172Y-114285931D01*
X159264317Y-114279500D01*
X159264316Y-114279500D01*
X158915684Y-114279500D01*
X158915683Y-114279500D01*
X158866828Y-114285931D01*
X158759595Y-114335935D01*
X158675935Y-114419595D01*
X158625931Y-114526828D01*
X158619500Y-114575683D01*
X158619500Y-114666180D01*
X158599815Y-114733219D01*
X158583181Y-114753861D01*
X157908459Y-115428582D01*
X157847136Y-115462067D01*
X157777444Y-115457083D01*
X157721511Y-115415211D01*
X157697094Y-115349747D01*
X157698040Y-115323257D01*
X157705500Y-115271381D01*
X157705500Y-113129500D01*
X157725185Y-113062461D01*
X157777989Y-113016706D01*
X157829500Y-113005500D01*
X163472690Y-113005500D01*
X163472698Y-113005500D01*
X163502751Y-113003291D01*
X163538629Y-112997987D01*
X163538628Y-112997987D01*
X163545266Y-112997006D01*
X163545611Y-112999340D01*
G37*
G04 #@! TD.AperFunction*
G04 #@! TA.AperFunction,Conductor*
G36*
X170593429Y-112682354D02*
G01*
X170614492Y-112688539D01*
X170655227Y-112700500D01*
X170683670Y-112700500D01*
X170750709Y-112720185D01*
X170796464Y-112772989D01*
X170799734Y-112780999D01*
X170799932Y-112781372D01*
X170799933Y-112781373D01*
X170840935Y-112858316D01*
X170842942Y-112862083D01*
X170842944Y-112862086D01*
X170888703Y-112914895D01*
X170901981Y-112928446D01*
X170906289Y-112932843D01*
X170906290Y-112932844D01*
X170906292Y-112932845D01*
X170986102Y-112977488D01*
X170986106Y-112977490D01*
X171053145Y-112997175D01*
X171111043Y-113005500D01*
X171111047Y-113005500D01*
X171956418Y-113005500D01*
X171956422Y-113005500D01*
X172014320Y-112997175D01*
X172014329Y-112997172D01*
X172014331Y-112997172D01*
X172081352Y-112977492D01*
X172081351Y-112977492D01*
X172081359Y-112977490D01*
X172104998Y-112968947D01*
X172178767Y-112914889D01*
X172195809Y-112895221D01*
X172254581Y-112857447D01*
X172324451Y-112857444D01*
X172377202Y-112888742D01*
X172431684Y-112943224D01*
X172540513Y-112993972D01*
X172590099Y-113000500D01*
X173009900Y-113000499D01*
X173059487Y-112993972D01*
X173168316Y-112943224D01*
X173230857Y-112880682D01*
X173292176Y-112847200D01*
X173361868Y-112852184D01*
X173406216Y-112880685D01*
X173419596Y-112894065D01*
X173526827Y-112944068D01*
X173575683Y-112950500D01*
X173575684Y-112950500D01*
X174024317Y-112950500D01*
X174040601Y-112948356D01*
X174073173Y-112944068D01*
X174180404Y-112894065D01*
X174203785Y-112870683D01*
X174265104Y-112837200D01*
X174334796Y-112842184D01*
X174379145Y-112870685D01*
X174431684Y-112923224D01*
X174540513Y-112973972D01*
X174590099Y-112980500D01*
X175009900Y-112980499D01*
X175059487Y-112973972D01*
X175168316Y-112923224D01*
X175229216Y-112862323D01*
X175290535Y-112828841D01*
X175295948Y-112827897D01*
X175297430Y-112827500D01*
X175297434Y-112827500D01*
X175320926Y-112821205D01*
X175390775Y-112822866D01*
X175446733Y-112859776D01*
X175494483Y-112914882D01*
X175494490Y-112914889D01*
X175502655Y-112923223D01*
X175512081Y-112932843D01*
X175512082Y-112932844D01*
X175512084Y-112932845D01*
X175591894Y-112977488D01*
X175591898Y-112977490D01*
X175658937Y-112997175D01*
X175716835Y-113005500D01*
X175716839Y-113005500D01*
X178570500Y-113005500D01*
X178637539Y-113025185D01*
X178683294Y-113077989D01*
X178694500Y-113129500D01*
X178694500Y-115270500D01*
X178674815Y-115337539D01*
X178622011Y-115383294D01*
X178570500Y-115394500D01*
X170323992Y-115394500D01*
X170280313Y-115399197D01*
X170228825Y-115410397D01*
X170218627Y-115412890D01*
X170218623Y-115412891D01*
X170155271Y-115446650D01*
X170086850Y-115460804D01*
X170036426Y-115445437D01*
X169995437Y-115422510D01*
X169995435Y-115422509D01*
X169928403Y-115402826D01*
X169928399Y-115402825D01*
X169928398Y-115402825D01*
X169870500Y-115394500D01*
X169870496Y-115394500D01*
X169408041Y-115394500D01*
X169341002Y-115374815D01*
X169295247Y-115322011D01*
X169285303Y-115252853D01*
X169295247Y-115218988D01*
X169312870Y-115180400D01*
X169336697Y-115128226D01*
X169355133Y-115000000D01*
X169355132Y-114999999D01*
X169355750Y-114995707D01*
X169360923Y-114976853D01*
X169360577Y-114976761D01*
X169377717Y-114912795D01*
X169385000Y-114885616D01*
X169385000Y-114799384D01*
X169385000Y-113740402D01*
X169404685Y-113673363D01*
X169421319Y-113652721D01*
X169449819Y-113624221D01*
X169511142Y-113590736D01*
X169580834Y-113595720D01*
X169625181Y-113624221D01*
X169679184Y-113678224D01*
X169788013Y-113728972D01*
X169837599Y-113735500D01*
X170197400Y-113735499D01*
X170246987Y-113728972D01*
X170355816Y-113678224D01*
X170440724Y-113593316D01*
X170491472Y-113484487D01*
X170498000Y-113434901D01*
X170497999Y-113015100D01*
X170491472Y-112965513D01*
X170467818Y-112914786D01*
X170446118Y-112868251D01*
X170434500Y-112815846D01*
X170434500Y-112801333D01*
X170454185Y-112734294D01*
X170506989Y-112688539D01*
X170576147Y-112678595D01*
X170593429Y-112682354D01*
G37*
G04 #@! TD.AperFunction*
G04 #@! TA.AperFunction,Conductor*
G36*
X185661512Y-113761957D02*
G01*
X185698137Y-113774773D01*
X185730806Y-113792039D01*
X185760163Y-113813706D01*
X185786297Y-113839841D01*
X185807957Y-113869190D01*
X185825227Y-113901865D01*
X185848327Y-113967878D01*
X185881625Y-114028125D01*
X185881629Y-114028129D01*
X185900000Y-114042779D01*
X185900000Y-126250000D01*
X183100000Y-126250000D01*
X183100000Y-119459600D01*
X183100500Y-119454269D01*
X183100500Y-117145730D01*
X183100000Y-117140398D01*
X183100000Y-116259600D01*
X183100500Y-116254269D01*
X183100500Y-114229500D01*
X183120185Y-114162461D01*
X183172989Y-114116706D01*
X183224500Y-114105500D01*
X184507705Y-114105500D01*
X184507706Y-114105500D01*
X184507708Y-114105499D01*
X184507713Y-114105499D01*
X184575572Y-114093970D01*
X184575572Y-114093969D01*
X184575576Y-114093969D01*
X184653015Y-114045312D01*
X184701673Y-113967874D01*
X184724771Y-113901865D01*
X184742036Y-113869194D01*
X184763706Y-113839833D01*
X184789837Y-113813703D01*
X184819192Y-113792038D01*
X184851870Y-113774769D01*
X184888483Y-113761958D01*
X184929436Y-113755000D01*
X185620560Y-113755000D01*
X185661512Y-113761957D01*
G37*
G04 #@! TD.AperFunction*
G04 #@! TA.AperFunction,Conductor*
G36*
X155600000Y-121400000D02*
G01*
X145300000Y-121400000D01*
X145300000Y-119200000D01*
X155600000Y-119200000D01*
X155600000Y-121400000D01*
G37*
G04 #@! TD.AperFunction*
G04 #@! TA.AperFunction,Conductor*
G36*
X217999500Y-123150000D02*
G01*
X209150000Y-123150000D01*
X209150000Y-120000000D01*
X217999500Y-120000000D01*
X217999500Y-123150000D01*
G37*
G04 #@! TD.AperFunction*
G04 #@! TA.AperFunction,Conductor*
G36*
X188900000Y-121200000D02*
G01*
X188900000Y-125926000D01*
X188880315Y-125993039D01*
X188827511Y-126038794D01*
X188776000Y-126050000D01*
X186229500Y-126050000D01*
X186162461Y-126030315D01*
X186116706Y-125977511D01*
X186105500Y-125926000D01*
X186105500Y-114042779D01*
X186105500Y-114042776D01*
X186100000Y-114018680D01*
X186100000Y-113900000D01*
X188900000Y-113900000D01*
X188900000Y-121200000D01*
G37*
G04 #@! TD.AperFunction*
G04 #@! TA.AperFunction,Conductor*
G36*
X194043039Y-98020185D02*
G01*
X194088794Y-98072989D01*
X194100000Y-98124500D01*
X194100000Y-103182270D01*
X194080315Y-103249309D01*
X194027511Y-103295064D01*
X193958353Y-103305008D01*
X193951811Y-103303888D01*
X193929749Y-103299500D01*
X193929748Y-103299500D01*
X191380252Y-103299500D01*
X191380247Y-103299500D01*
X191321770Y-103311131D01*
X191321769Y-103311132D01*
X191255447Y-103355447D01*
X191211132Y-103421769D01*
X191211131Y-103421770D01*
X191199500Y-103480247D01*
X191199500Y-104375500D01*
X191179815Y-104442539D01*
X191127011Y-104488294D01*
X191075500Y-104499500D01*
X187234500Y-104499500D01*
X187167461Y-104479815D01*
X187121706Y-104427011D01*
X187110500Y-104375500D01*
X187110500Y-103480249D01*
X187110499Y-103480247D01*
X187098868Y-103421770D01*
X187098867Y-103421769D01*
X187054552Y-103355447D01*
X186988230Y-103311132D01*
X186988229Y-103311131D01*
X186929752Y-103299500D01*
X186929748Y-103299500D01*
X184380252Y-103299500D01*
X184380247Y-103299500D01*
X184321770Y-103311131D01*
X184321769Y-103311132D01*
X184255447Y-103355447D01*
X184211132Y-103421769D01*
X184211131Y-103421770D01*
X184199500Y-103480247D01*
X184199500Y-103548500D01*
X184179815Y-103615539D01*
X184127011Y-103661294D01*
X184075500Y-103672500D01*
X180143116Y-103672500D01*
X180056884Y-103672500D01*
X180001354Y-103687379D01*
X179973589Y-103694819D01*
X179898911Y-103737934D01*
X179898908Y-103737936D01*
X178063664Y-105573181D01*
X178002341Y-105606666D01*
X177975983Y-105609500D01*
X176837000Y-105609500D01*
X176769961Y-105589815D01*
X176724206Y-105537011D01*
X176713000Y-105485500D01*
X176712999Y-105090105D01*
X176712999Y-105090100D01*
X176706472Y-105040513D01*
X176655724Y-104931684D01*
X176611721Y-104887681D01*
X176578236Y-104826358D01*
X176583220Y-104756666D01*
X176611721Y-104712319D01*
X176627928Y-104696112D01*
X176655724Y-104668316D01*
X176706472Y-104559487D01*
X176713000Y-104509901D01*
X176712999Y-104090100D01*
X176706472Y-104040513D01*
X176655724Y-103931684D01*
X176599221Y-103875181D01*
X176565736Y-103813858D01*
X176570720Y-103744166D01*
X176599221Y-103699819D01*
X176612726Y-103686314D01*
X176630724Y-103668316D01*
X176681472Y-103559487D01*
X176688000Y-103509901D01*
X176687999Y-103090100D01*
X176681472Y-103040513D01*
X176630724Y-102931684D01*
X176545816Y-102846776D01*
X176436987Y-102796028D01*
X176436985Y-102796027D01*
X176436986Y-102796027D01*
X176387402Y-102789500D01*
X176027605Y-102789500D01*
X176011886Y-102791569D01*
X175978013Y-102796028D01*
X175978011Y-102796029D01*
X175978009Y-102796029D01*
X175869183Y-102846776D01*
X175779779Y-102936181D01*
X175718456Y-102969666D01*
X175692098Y-102972500D01*
X173390548Y-102972500D01*
X173304316Y-102972500D01*
X173248786Y-102987379D01*
X173221021Y-102994819D01*
X173146343Y-103037934D01*
X173146340Y-103037936D01*
X172389181Y-103795096D01*
X172327858Y-103828581D01*
X172258166Y-103823597D01*
X172202233Y-103781725D01*
X172177816Y-103716261D01*
X172177500Y-103707415D01*
X172177500Y-101906885D01*
X172167666Y-101870185D01*
X172155181Y-101823590D01*
X172112065Y-101748910D01*
X172051090Y-101687935D01*
X171763155Y-101400000D01*
X180244867Y-101400000D01*
X180263302Y-101528225D01*
X180308972Y-101628226D01*
X180317118Y-101646063D01*
X180401951Y-101743967D01*
X180510931Y-101814004D01*
X180635225Y-101850499D01*
X180635227Y-101850500D01*
X180765500Y-101850500D01*
X180832539Y-101870185D01*
X180878294Y-101922989D01*
X180889500Y-101974500D01*
X180889500Y-101979752D01*
X180901131Y-102038229D01*
X180901132Y-102038230D01*
X180945447Y-102104552D01*
X181011769Y-102148867D01*
X181011770Y-102148868D01*
X181070247Y-102160499D01*
X181070250Y-102160500D01*
X181070252Y-102160500D01*
X183619750Y-102160500D01*
X183619751Y-102160499D01*
X183634568Y-102157552D01*
X183678229Y-102148868D01*
X183678229Y-102148867D01*
X183678231Y-102148867D01*
X183744552Y-102104552D01*
X183788867Y-102038231D01*
X183788867Y-102038229D01*
X183788868Y-102038229D01*
X183800499Y-101979752D01*
X183800500Y-101979750D01*
X183800500Y-101400000D01*
X187244867Y-101400000D01*
X187263302Y-101528225D01*
X187308972Y-101628226D01*
X187317118Y-101646063D01*
X187401951Y-101743967D01*
X187510931Y-101814004D01*
X187635225Y-101850499D01*
X187635227Y-101850500D01*
X187765500Y-101850500D01*
X187832539Y-101870185D01*
X187878294Y-101922989D01*
X187889500Y-101974500D01*
X187889500Y-101979752D01*
X187901131Y-102038229D01*
X187901132Y-102038230D01*
X187945447Y-102104552D01*
X188011769Y-102148867D01*
X188011770Y-102148868D01*
X188070247Y-102160499D01*
X188070250Y-102160500D01*
X188070252Y-102160500D01*
X190619750Y-102160500D01*
X190619751Y-102160499D01*
X190634568Y-102157552D01*
X190678229Y-102148868D01*
X190678229Y-102148867D01*
X190678231Y-102148867D01*
X190744552Y-102104552D01*
X190788867Y-102038231D01*
X190788867Y-102038229D01*
X190788868Y-102038229D01*
X190800499Y-101979752D01*
X190800500Y-101979750D01*
X190800500Y-100940249D01*
X190800499Y-100940247D01*
X190788868Y-100881770D01*
X190788867Y-100881769D01*
X190744552Y-100815447D01*
X190678230Y-100771132D01*
X190678229Y-100771131D01*
X190619752Y-100759500D01*
X190619748Y-100759500D01*
X188070252Y-100759500D01*
X188070247Y-100759500D01*
X188011770Y-100771131D01*
X188011769Y-100771132D01*
X187945447Y-100815447D01*
X187894348Y-100891923D01*
X187891769Y-100890199D01*
X187859997Y-100929616D01*
X187793700Y-100951672D01*
X187771646Y-100950488D01*
X187764773Y-100949500D01*
X187764772Y-100949500D01*
X187635228Y-100949500D01*
X187635226Y-100949500D01*
X187510935Y-100985994D01*
X187510932Y-100985995D01*
X187510931Y-100985996D01*
X187461970Y-101017461D01*
X187401950Y-101056033D01*
X187317118Y-101153937D01*
X187317117Y-101153938D01*
X187263302Y-101271774D01*
X187244867Y-101400000D01*
X183800500Y-101400000D01*
X183800500Y-100940249D01*
X183800499Y-100940247D01*
X183788868Y-100881770D01*
X183788867Y-100881769D01*
X183744552Y-100815447D01*
X183678230Y-100771132D01*
X183678229Y-100771131D01*
X183619752Y-100759500D01*
X183619748Y-100759500D01*
X181070252Y-100759500D01*
X181070247Y-100759500D01*
X181011770Y-100771131D01*
X181011769Y-100771132D01*
X180945447Y-100815447D01*
X180894348Y-100891923D01*
X180891769Y-100890199D01*
X180859997Y-100929616D01*
X180793700Y-100951672D01*
X180771646Y-100950488D01*
X180764773Y-100949500D01*
X180764772Y-100949500D01*
X180635228Y-100949500D01*
X180635226Y-100949500D01*
X180510935Y-100985994D01*
X180510932Y-100985995D01*
X180510931Y-100985996D01*
X180461970Y-101017461D01*
X180401950Y-101056033D01*
X180317118Y-101153937D01*
X180317117Y-101153938D01*
X180263302Y-101271774D01*
X180244867Y-101400000D01*
X171763155Y-101400000D01*
X170201090Y-99837935D01*
X170126410Y-99794819D01*
X170126411Y-99794819D01*
X170098645Y-99787379D01*
X170043116Y-99772500D01*
X170043114Y-99772500D01*
X151591649Y-99772500D01*
X151524610Y-99752815D01*
X151503968Y-99736181D01*
X151376723Y-99608936D01*
X151376722Y-99608935D01*
X151302042Y-99565819D01*
X151302043Y-99565819D01*
X151274277Y-99558379D01*
X151218748Y-99543500D01*
X137177116Y-99543500D01*
X137090884Y-99543500D01*
X137035354Y-99558379D01*
X137007589Y-99565819D01*
X136932911Y-99608934D01*
X136932908Y-99608936D01*
X135818664Y-100723181D01*
X135757341Y-100756666D01*
X135730983Y-100759500D01*
X134270247Y-100759500D01*
X134211770Y-100771131D01*
X134211769Y-100771132D01*
X134145447Y-100815447D01*
X134101132Y-100881769D01*
X134101131Y-100881770D01*
X134089500Y-100940247D01*
X134089500Y-101979752D01*
X134101131Y-102038229D01*
X134101132Y-102038230D01*
X134145447Y-102104552D01*
X134211769Y-102148867D01*
X134211770Y-102148868D01*
X134270247Y-102160499D01*
X134270250Y-102160500D01*
X134270252Y-102160500D01*
X136490983Y-102160500D01*
X136558022Y-102180185D01*
X136603777Y-102232989D01*
X136613721Y-102302147D01*
X136584696Y-102365703D01*
X136578664Y-102372181D01*
X135314664Y-103636181D01*
X135253341Y-103669666D01*
X135226983Y-103672500D01*
X133534500Y-103672500D01*
X133467461Y-103652815D01*
X133421706Y-103600011D01*
X133410500Y-103548500D01*
X133410500Y-103480249D01*
X133410499Y-103480247D01*
X133398868Y-103421770D01*
X133398867Y-103421769D01*
X133354552Y-103355447D01*
X133288230Y-103311132D01*
X133288229Y-103311131D01*
X133229752Y-103299500D01*
X133229748Y-103299500D01*
X130680252Y-103299500D01*
X130680247Y-103299500D01*
X130621770Y-103311131D01*
X130621769Y-103311132D01*
X130555447Y-103355447D01*
X130511132Y-103421769D01*
X130511131Y-103421770D01*
X130499500Y-103480247D01*
X130499500Y-104519752D01*
X130511131Y-104578229D01*
X130511132Y-104578230D01*
X130555447Y-104644552D01*
X130621769Y-104688867D01*
X130621770Y-104688868D01*
X130680247Y-104700499D01*
X130680250Y-104700500D01*
X130680252Y-104700500D01*
X133229750Y-104700500D01*
X133229751Y-104700499D01*
X133251808Y-104696112D01*
X133288229Y-104688868D01*
X133288229Y-104688867D01*
X133288231Y-104688867D01*
X133354552Y-104644552D01*
X133398867Y-104578231D01*
X133398867Y-104578229D01*
X133398868Y-104578229D01*
X133410499Y-104519752D01*
X133410500Y-104519750D01*
X133410500Y-104451500D01*
X133430185Y-104384461D01*
X133482989Y-104338706D01*
X133534500Y-104327500D01*
X135457114Y-104327500D01*
X135457116Y-104327500D01*
X135540410Y-104305181D01*
X135615090Y-104262065D01*
X139261336Y-100615819D01*
X139322659Y-100582334D01*
X139349017Y-100579500D01*
X140257983Y-100579500D01*
X140325022Y-100599185D01*
X140370777Y-100651989D01*
X140380721Y-100721147D01*
X140351696Y-100784703D01*
X140345664Y-100791181D01*
X138592936Y-102543908D01*
X138592934Y-102543911D01*
X138549819Y-102618589D01*
X138527500Y-102701885D01*
X138527500Y-103175500D01*
X138507815Y-103242539D01*
X138455011Y-103288294D01*
X138403500Y-103299500D01*
X137580247Y-103299500D01*
X137521770Y-103311131D01*
X137521769Y-103311132D01*
X137455447Y-103355447D01*
X137411132Y-103421769D01*
X137411131Y-103421770D01*
X137399500Y-103480247D01*
X137399500Y-104519752D01*
X137411131Y-104578229D01*
X137411132Y-104578230D01*
X137455447Y-104644552D01*
X137521769Y-104688867D01*
X137521770Y-104688868D01*
X137580247Y-104700499D01*
X137580250Y-104700500D01*
X137580252Y-104700500D01*
X140129750Y-104700500D01*
X140129751Y-104700499D01*
X140151808Y-104696112D01*
X140188229Y-104688868D01*
X140188229Y-104688867D01*
X140188231Y-104688867D01*
X140254552Y-104644552D01*
X140298867Y-104578231D01*
X140298867Y-104578229D01*
X140298868Y-104578229D01*
X140310499Y-104519752D01*
X140310500Y-104519750D01*
X140310500Y-103480249D01*
X140310499Y-103480247D01*
X140298868Y-103421770D01*
X140298867Y-103421769D01*
X140254552Y-103355447D01*
X140188230Y-103311132D01*
X140188229Y-103311131D01*
X140129752Y-103299500D01*
X140129748Y-103299500D01*
X139306500Y-103299500D01*
X139239461Y-103279815D01*
X139193706Y-103227011D01*
X139182500Y-103175500D01*
X139182500Y-102932017D01*
X139202185Y-102864978D01*
X139218819Y-102844336D01*
X140777819Y-101285336D01*
X140839142Y-101251851D01*
X140908834Y-101256835D01*
X140964767Y-101298707D01*
X140989184Y-101364171D01*
X140989500Y-101373017D01*
X140989500Y-101979752D01*
X141001131Y-102038229D01*
X141001132Y-102038230D01*
X141045447Y-102104552D01*
X141111769Y-102148867D01*
X141111770Y-102148868D01*
X141170247Y-102160499D01*
X141170250Y-102160500D01*
X141170252Y-102160500D01*
X141993500Y-102160500D01*
X142060539Y-102180185D01*
X142106294Y-102232989D01*
X142117500Y-102284500D01*
X142117500Y-102901884D01*
X142117500Y-102988116D01*
X142139819Y-103071410D01*
X142182935Y-103146090D01*
X144064935Y-105028090D01*
X144125910Y-105089065D01*
X144200590Y-105132181D01*
X144283884Y-105154500D01*
X144283886Y-105154500D01*
X148968930Y-105154500D01*
X148968932Y-105154500D01*
X149052226Y-105132181D01*
X149126906Y-105089065D01*
X151752152Y-102463819D01*
X151813475Y-102430334D01*
X151839833Y-102427500D01*
X153464983Y-102427500D01*
X153532022Y-102447185D01*
X153577777Y-102499989D01*
X153587721Y-102569147D01*
X153558696Y-102632703D01*
X153552664Y-102639181D01*
X152928664Y-103263181D01*
X152867341Y-103296666D01*
X152840983Y-103299500D01*
X151380247Y-103299500D01*
X151321770Y-103311131D01*
X151321769Y-103311132D01*
X151255447Y-103355447D01*
X151211132Y-103421769D01*
X151211131Y-103421770D01*
X151199500Y-103480247D01*
X151199500Y-104519752D01*
X151211131Y-104578229D01*
X151211132Y-104578230D01*
X151255447Y-104644552D01*
X151321769Y-104688867D01*
X151321770Y-104688868D01*
X151380247Y-104700499D01*
X151380250Y-104700500D01*
X151380252Y-104700500D01*
X153929750Y-104700500D01*
X153929751Y-104700499D01*
X153951808Y-104696112D01*
X153988229Y-104688868D01*
X153988229Y-104688867D01*
X153988231Y-104688867D01*
X154054552Y-104644552D01*
X154098867Y-104578231D01*
X154098867Y-104578229D01*
X154098868Y-104578229D01*
X154110499Y-104519752D01*
X154110500Y-104519750D01*
X154110500Y-103480249D01*
X154110499Y-103480247D01*
X154098868Y-103421770D01*
X154098867Y-103421769D01*
X154054551Y-103355446D01*
X154005233Y-103322492D01*
X153960428Y-103268879D01*
X153951722Y-103199554D01*
X153981878Y-103136527D01*
X153986407Y-103131747D01*
X154154338Y-102963816D01*
X154215659Y-102930334D01*
X154242017Y-102927500D01*
X163455114Y-102927500D01*
X163522153Y-102947185D01*
X163567908Y-102999989D01*
X163578053Y-103067685D01*
X163577000Y-103075683D01*
X163577000Y-103524316D01*
X163583431Y-103573171D01*
X163633435Y-103680404D01*
X163656814Y-103703783D01*
X163690299Y-103765106D01*
X163685315Y-103834798D01*
X163656815Y-103879145D01*
X163604275Y-103931685D01*
X163553527Y-104040514D01*
X163547000Y-104090098D01*
X163547000Y-104509894D01*
X163547001Y-104509900D01*
X163553528Y-104559487D01*
X163553529Y-104559489D01*
X163553529Y-104559490D01*
X163604276Y-104668316D01*
X163661814Y-104725854D01*
X163695299Y-104787177D01*
X163690315Y-104856869D01*
X163661816Y-104901215D01*
X163643435Y-104919596D01*
X163643434Y-104919597D01*
X163635766Y-104927266D01*
X163632942Y-104924442D01*
X163594458Y-104955183D01*
X163524958Y-104962352D01*
X163462614Y-104930808D01*
X163459401Y-104927101D01*
X163459236Y-104927267D01*
X163367904Y-104835935D01*
X163314624Y-104811090D01*
X163260673Y-104785932D01*
X163260671Y-104785931D01*
X163260672Y-104785931D01*
X163211817Y-104779500D01*
X163211816Y-104779500D01*
X162863184Y-104779500D01*
X162863183Y-104779500D01*
X162814328Y-104785931D01*
X162707094Y-104835935D01*
X162693630Y-104849400D01*
X162632306Y-104882884D01*
X162571018Y-104880695D01*
X162464772Y-104849500D01*
X162335228Y-104849500D01*
X162335226Y-104849500D01*
X162210935Y-104885994D01*
X162210932Y-104885995D01*
X162210931Y-104885996D01*
X162191193Y-104898681D01*
X162101950Y-104956033D01*
X162017118Y-105053937D01*
X162017117Y-105053938D01*
X161963302Y-105171774D01*
X161944867Y-105300000D01*
X161963302Y-105428225D01*
X161989459Y-105485500D01*
X162017118Y-105546063D01*
X162090624Y-105630895D01*
X162095697Y-105636750D01*
X162101951Y-105643967D01*
X162210931Y-105714004D01*
X162335225Y-105750499D01*
X162335227Y-105750500D01*
X162335228Y-105750500D01*
X162464773Y-105750500D01*
X162464773Y-105750499D01*
X162508763Y-105737583D01*
X162571017Y-105719305D01*
X162640887Y-105719305D01*
X162693632Y-105750601D01*
X162707096Y-105764065D01*
X162814327Y-105814068D01*
X162863183Y-105820500D01*
X162863184Y-105820500D01*
X163211817Y-105820500D01*
X163228101Y-105818356D01*
X163260673Y-105814068D01*
X163367904Y-105764065D01*
X163451565Y-105680404D01*
X163451565Y-105680403D01*
X163459236Y-105672733D01*
X163462064Y-105675561D01*
X163500477Y-105644843D01*
X163569974Y-105637635D01*
X163632335Y-105669143D01*
X163635593Y-105672903D01*
X163635764Y-105672733D01*
X163675350Y-105712319D01*
X163708835Y-105773642D01*
X163703851Y-105843334D01*
X163675350Y-105887681D01*
X163643435Y-105919595D01*
X163593431Y-106026828D01*
X163587000Y-106075683D01*
X163587000Y-106524316D01*
X163593431Y-106573171D01*
X163643435Y-106680404D01*
X163656814Y-106693783D01*
X163690299Y-106755106D01*
X163685315Y-106824798D01*
X163656815Y-106869145D01*
X163594275Y-106931685D01*
X163543527Y-107040514D01*
X163537000Y-107090098D01*
X163537000Y-107509894D01*
X163537001Y-107509900D01*
X163543528Y-107559487D01*
X163543529Y-107559489D01*
X163543529Y-107559490D01*
X163594276Y-107668316D01*
X163651814Y-107725854D01*
X163685299Y-107787177D01*
X163680315Y-107856869D01*
X163651816Y-107901215D01*
X163633435Y-107919596D01*
X163633434Y-107919597D01*
X163625766Y-107927266D01*
X163622942Y-107924442D01*
X163584458Y-107955183D01*
X163514958Y-107962352D01*
X163452614Y-107930808D01*
X163449401Y-107927101D01*
X163449236Y-107927267D01*
X163357904Y-107835935D01*
X163354998Y-107834580D01*
X163250673Y-107785932D01*
X163250671Y-107785931D01*
X163250672Y-107785931D01*
X163201817Y-107779500D01*
X163201816Y-107779500D01*
X162853184Y-107779500D01*
X162853183Y-107779500D01*
X162804328Y-107785931D01*
X162697094Y-107835935D01*
X162683714Y-107849316D01*
X162622390Y-107882800D01*
X162552699Y-107877814D01*
X162508354Y-107849314D01*
X162505816Y-107846776D01*
X162499792Y-107843967D01*
X162396987Y-107796028D01*
X162396985Y-107796027D01*
X162396986Y-107796027D01*
X162347402Y-107789500D01*
X161987605Y-107789500D01*
X161971886Y-107791569D01*
X161938013Y-107796028D01*
X161938011Y-107796029D01*
X161938009Y-107796029D01*
X161829183Y-107846776D01*
X161744276Y-107931683D01*
X161693527Y-108040514D01*
X161687000Y-108090098D01*
X161687000Y-108509894D01*
X161687001Y-108509900D01*
X161693528Y-108559487D01*
X161693529Y-108559489D01*
X161693529Y-108559490D01*
X161726927Y-108631111D01*
X161744276Y-108668316D01*
X161829184Y-108753224D01*
X161938013Y-108803972D01*
X161975066Y-108808850D01*
X162038963Y-108837115D01*
X162077435Y-108895439D01*
X162078268Y-108965304D01*
X162052597Y-109012990D01*
X162017120Y-109053932D01*
X162017117Y-109053938D01*
X161963302Y-109171774D01*
X161944867Y-109300000D01*
X161963302Y-109428225D01*
X162007186Y-109524316D01*
X162017118Y-109546063D01*
X162101951Y-109643967D01*
X162210931Y-109714004D01*
X162236713Y-109721574D01*
X162335225Y-109750499D01*
X162335227Y-109750500D01*
X162335228Y-109750500D01*
X162464772Y-109750500D01*
X162563287Y-109721574D01*
X162633155Y-109721574D01*
X162685901Y-109752870D01*
X162697096Y-109764065D01*
X162804327Y-109814068D01*
X162853183Y-109820500D01*
X162853184Y-109820500D01*
X163201817Y-109820500D01*
X163218101Y-109818356D01*
X163250673Y-109814068D01*
X163357904Y-109764065D01*
X163441565Y-109680404D01*
X163441565Y-109680403D01*
X163449236Y-109672733D01*
X163452064Y-109675561D01*
X163490477Y-109644843D01*
X163559974Y-109637635D01*
X163622335Y-109669143D01*
X163625593Y-109672903D01*
X163625764Y-109672733D01*
X163670350Y-109717319D01*
X163703835Y-109778642D01*
X163698851Y-109848334D01*
X163670350Y-109892681D01*
X163643435Y-109919595D01*
X163593431Y-110026828D01*
X163587000Y-110075683D01*
X163587000Y-110524316D01*
X163593431Y-110573171D01*
X163643435Y-110680404D01*
X163659314Y-110696283D01*
X163692799Y-110757606D01*
X163687815Y-110827298D01*
X163659315Y-110871645D01*
X163599275Y-110931685D01*
X163548527Y-111040514D01*
X163542000Y-111090098D01*
X163542000Y-111509894D01*
X163542001Y-111509900D01*
X163548528Y-111559487D01*
X163548529Y-111559489D01*
X163548529Y-111559490D01*
X163599276Y-111668316D01*
X163628279Y-111697319D01*
X163661764Y-111758642D01*
X163656780Y-111828334D01*
X163628279Y-111872681D01*
X163594276Y-111906683D01*
X163543527Y-112015514D01*
X163537000Y-112065098D01*
X163537000Y-112484894D01*
X163537001Y-112484900D01*
X163543528Y-112534487D01*
X163543529Y-112534489D01*
X163543529Y-112534490D01*
X163585080Y-112623595D01*
X163595572Y-112692672D01*
X163567053Y-112756456D01*
X163508576Y-112794696D01*
X163472698Y-112800000D01*
X126124500Y-112800000D01*
X126057461Y-112780315D01*
X126011706Y-112727511D01*
X126000500Y-112676000D01*
X126000500Y-100940247D01*
X127189500Y-100940247D01*
X127189500Y-101979752D01*
X127201131Y-102038229D01*
X127201132Y-102038230D01*
X127245447Y-102104552D01*
X127311769Y-102148867D01*
X127311770Y-102148868D01*
X127370247Y-102160499D01*
X127370250Y-102160500D01*
X127370252Y-102160500D01*
X129919750Y-102160500D01*
X129919751Y-102160499D01*
X129934568Y-102157552D01*
X129978229Y-102148868D01*
X129978229Y-102148867D01*
X129978231Y-102148867D01*
X130044552Y-102104552D01*
X130088867Y-102038231D01*
X130088867Y-102038229D01*
X130093542Y-102026946D01*
X130097082Y-102028412D01*
X130119347Y-101985830D01*
X130180056Y-101951244D01*
X130225980Y-101952491D01*
X130226448Y-101949238D01*
X130235227Y-101950500D01*
X130235228Y-101950500D01*
X130364773Y-101950500D01*
X130364773Y-101950499D01*
X130489069Y-101914004D01*
X130598049Y-101843967D01*
X130682882Y-101746063D01*
X130736697Y-101628226D01*
X130755133Y-101500000D01*
X130736697Y-101371774D01*
X130682882Y-101253937D01*
X130598049Y-101156033D01*
X130489069Y-101085996D01*
X130489065Y-101085994D01*
X130489064Y-101085994D01*
X130364774Y-101049500D01*
X130364772Y-101049500D01*
X130235228Y-101049500D01*
X130226360Y-101049500D01*
X130226360Y-101046473D01*
X130172148Y-101038667D01*
X130119355Y-100992900D01*
X130103036Y-100945958D01*
X130101689Y-100946226D01*
X130088868Y-100881770D01*
X130088867Y-100881769D01*
X130044552Y-100815447D01*
X129978230Y-100771132D01*
X129978229Y-100771131D01*
X129919752Y-100759500D01*
X129919748Y-100759500D01*
X127370252Y-100759500D01*
X127370247Y-100759500D01*
X127311770Y-100771131D01*
X127311769Y-100771132D01*
X127245447Y-100815447D01*
X127201132Y-100881769D01*
X127201131Y-100881770D01*
X127189500Y-100940247D01*
X126000500Y-100940247D01*
X126000500Y-98124500D01*
X126020185Y-98057461D01*
X126072989Y-98011706D01*
X126124500Y-98000500D01*
X193976000Y-98000500D01*
X194043039Y-98020185D01*
G37*
G04 #@! TD.AperFunction*
G04 #@! TA.AperFunction,Conductor*
G36*
X172165164Y-105847159D02*
G01*
X172168871Y-105849541D01*
X172184880Y-105860238D01*
X172184883Y-105860240D01*
X172184887Y-105860241D01*
X172223241Y-105867870D01*
X172261599Y-105875500D01*
X172300499Y-105875499D01*
X172367537Y-105895182D01*
X172413293Y-105947985D01*
X172424500Y-105999496D01*
X172424500Y-106038398D01*
X172439760Y-106115119D01*
X172450446Y-106131111D01*
X172471323Y-106197788D01*
X172452837Y-106265168D01*
X172450446Y-106268889D01*
X172439759Y-106284882D01*
X172424500Y-106361596D01*
X172424500Y-106538398D01*
X172439760Y-106615119D01*
X172450446Y-106631111D01*
X172471323Y-106697788D01*
X172452837Y-106765168D01*
X172450446Y-106768889D01*
X172439759Y-106784882D01*
X172424500Y-106861596D01*
X172424500Y-107038398D01*
X172439760Y-107115119D01*
X172450446Y-107131111D01*
X172471323Y-107197788D01*
X172452837Y-107265168D01*
X172450446Y-107268889D01*
X172439759Y-107284882D01*
X172424500Y-107361596D01*
X172424500Y-107538398D01*
X172439760Y-107615119D01*
X172450446Y-107631111D01*
X172471323Y-107697788D01*
X172452837Y-107765168D01*
X172450446Y-107768889D01*
X172439759Y-107784882D01*
X172424500Y-107861596D01*
X172424500Y-108038398D01*
X172439760Y-108115119D01*
X172450446Y-108131111D01*
X172471323Y-108197788D01*
X172452837Y-108265168D01*
X172450446Y-108268889D01*
X172439759Y-108284882D01*
X172424500Y-108361596D01*
X172424500Y-108538398D01*
X172439760Y-108615119D01*
X172450446Y-108631111D01*
X172471323Y-108697788D01*
X172452837Y-108765168D01*
X172450446Y-108768889D01*
X172439759Y-108784882D01*
X172424500Y-108861596D01*
X172424500Y-109038398D01*
X172439760Y-109115119D01*
X172450446Y-109131111D01*
X172471323Y-109197788D01*
X172452837Y-109265168D01*
X172450446Y-109268889D01*
X172439759Y-109284882D01*
X172424500Y-109361596D01*
X172424500Y-109538398D01*
X172439760Y-109615119D01*
X172450446Y-109631111D01*
X172471323Y-109697788D01*
X172452837Y-109765168D01*
X172450446Y-109768889D01*
X172439759Y-109784882D01*
X172424500Y-109861596D01*
X172424500Y-110038398D01*
X172439760Y-110115119D01*
X172450446Y-110131111D01*
X172471323Y-110197788D01*
X172452837Y-110265168D01*
X172450446Y-110268889D01*
X172439759Y-110284882D01*
X172424500Y-110361596D01*
X172424500Y-110400500D01*
X172404815Y-110467539D01*
X172352011Y-110513294D01*
X172300503Y-110524500D01*
X172261601Y-110524500D01*
X172184880Y-110539760D01*
X172168889Y-110550446D01*
X172102212Y-110571323D01*
X172034832Y-110552837D01*
X172031111Y-110550446D01*
X172015117Y-110539759D01*
X171938403Y-110524500D01*
X171761601Y-110524500D01*
X171684881Y-110539760D01*
X171684879Y-110539761D01*
X171597888Y-110597888D01*
X171539760Y-110684883D01*
X171539758Y-110684887D01*
X171524500Y-110761594D01*
X171524500Y-111071066D01*
X171523439Y-111087250D01*
X171522500Y-111094383D01*
X171522500Y-111094384D01*
X171522500Y-111836884D01*
X171522500Y-111923116D01*
X171544819Y-112006410D01*
X171587934Y-112081088D01*
X171587936Y-112081091D01*
X171602030Y-112095185D01*
X171635515Y-112156508D01*
X171637087Y-112165219D01*
X171648302Y-112243222D01*
X171648303Y-112243227D01*
X171653372Y-112254326D01*
X171702118Y-112361063D01*
X171786951Y-112458967D01*
X171895931Y-112529004D01*
X171914605Y-112534487D01*
X171991355Y-112557023D01*
X172050133Y-112594797D01*
X172079159Y-112658352D01*
X172069216Y-112727511D01*
X172023461Y-112780315D01*
X171956422Y-112800000D01*
X171111043Y-112800000D01*
X171044004Y-112780315D01*
X170998249Y-112727511D01*
X170988305Y-112658353D01*
X171017329Y-112594798D01*
X171042715Y-112565500D01*
X171102882Y-112496063D01*
X171156697Y-112378226D01*
X171175133Y-112250000D01*
X171171449Y-112224379D01*
X171174413Y-112174634D01*
X171176936Y-112165219D01*
X171177500Y-112163116D01*
X171177500Y-112076884D01*
X171177500Y-111094384D01*
X171177500Y-111094383D01*
X171177500Y-111094381D01*
X171176560Y-111087242D01*
X171175499Y-111071057D01*
X171175499Y-110761602D01*
X171175499Y-110761600D01*
X171160240Y-110684883D01*
X171160239Y-110684881D01*
X171160238Y-110684879D01*
X171136861Y-110649894D01*
X171102112Y-110597888D01*
X171015117Y-110539760D01*
X171015115Y-110539759D01*
X171015112Y-110539758D01*
X170938404Y-110524500D01*
X170761601Y-110524500D01*
X170684880Y-110539760D01*
X170668889Y-110550446D01*
X170602212Y-110571323D01*
X170534832Y-110552837D01*
X170531111Y-110550446D01*
X170515117Y-110539759D01*
X170438403Y-110524500D01*
X170261601Y-110524500D01*
X170184880Y-110539760D01*
X170168889Y-110550446D01*
X170102212Y-110571323D01*
X170034832Y-110552837D01*
X170031111Y-110550446D01*
X170015117Y-110539759D01*
X169938403Y-110524500D01*
X169761601Y-110524500D01*
X169684880Y-110539760D01*
X169668889Y-110550446D01*
X169602212Y-110571323D01*
X169534832Y-110552837D01*
X169531111Y-110550446D01*
X169515117Y-110539759D01*
X169438403Y-110524500D01*
X169261601Y-110524500D01*
X169184880Y-110539760D01*
X169168889Y-110550446D01*
X169102212Y-110571323D01*
X169034832Y-110552837D01*
X169031111Y-110550446D01*
X169015117Y-110539759D01*
X168938403Y-110524500D01*
X168761601Y-110524500D01*
X168684880Y-110539760D01*
X168668889Y-110550446D01*
X168602212Y-110571323D01*
X168534832Y-110552837D01*
X168531111Y-110550446D01*
X168515117Y-110539759D01*
X168438403Y-110524500D01*
X168261601Y-110524500D01*
X168184880Y-110539760D01*
X168168889Y-110550446D01*
X168102212Y-110571323D01*
X168034832Y-110552837D01*
X168031111Y-110550446D01*
X168015117Y-110539759D01*
X167938403Y-110524500D01*
X167938401Y-110524500D01*
X167899499Y-110524500D01*
X167832460Y-110504815D01*
X167786705Y-110452011D01*
X167775499Y-110400500D01*
X167775499Y-110361602D01*
X167775499Y-110361600D01*
X167760240Y-110284883D01*
X167760239Y-110284881D01*
X167760238Y-110284878D01*
X167749555Y-110268891D01*
X167728676Y-110202214D01*
X167747160Y-110134833D01*
X167749517Y-110131164D01*
X167760240Y-110115117D01*
X167775500Y-110038401D01*
X167775499Y-109861600D01*
X167760240Y-109784883D01*
X167760239Y-109784881D01*
X167760238Y-109784878D01*
X167749555Y-109768891D01*
X167728676Y-109702214D01*
X167747160Y-109634833D01*
X167749517Y-109631164D01*
X167760240Y-109615117D01*
X167775500Y-109538401D01*
X167775499Y-109361600D01*
X167760240Y-109284883D01*
X167760239Y-109284881D01*
X167760238Y-109284879D01*
X167736861Y-109249894D01*
X167702112Y-109197888D01*
X167615117Y-109139760D01*
X167615115Y-109139759D01*
X167615112Y-109139758D01*
X167538404Y-109124500D01*
X167538401Y-109124500D01*
X167228937Y-109124500D01*
X167212755Y-109123440D01*
X167205618Y-109122500D01*
X167205616Y-109122500D01*
X167205613Y-109122500D01*
X166787449Y-109122500D01*
X166720410Y-109102815D01*
X166674655Y-109050011D01*
X166664711Y-108980853D01*
X166693736Y-108917297D01*
X166699768Y-108910819D01*
X166796768Y-108813819D01*
X166858091Y-108780334D01*
X166884449Y-108777500D01*
X167205618Y-108777500D01*
X167212748Y-108776561D01*
X167228939Y-108775499D01*
X167538398Y-108775499D01*
X167538400Y-108775499D01*
X167615117Y-108760240D01*
X167702112Y-108702112D01*
X167760240Y-108615117D01*
X167775500Y-108538401D01*
X167775499Y-108361600D01*
X167760240Y-108284883D01*
X167760239Y-108284881D01*
X167760238Y-108284878D01*
X167749555Y-108268891D01*
X167728676Y-108202214D01*
X167747160Y-108134833D01*
X167749517Y-108131164D01*
X167760240Y-108115117D01*
X167775500Y-108038401D01*
X167775499Y-107861600D01*
X167760240Y-107784883D01*
X167760239Y-107784881D01*
X167760238Y-107784878D01*
X167749555Y-107768891D01*
X167728676Y-107702214D01*
X167747160Y-107634833D01*
X167749517Y-107631164D01*
X167760240Y-107615117D01*
X167775500Y-107538401D01*
X167775499Y-107361600D01*
X167760240Y-107284883D01*
X167760239Y-107284881D01*
X167760238Y-107284878D01*
X167749555Y-107268891D01*
X167728676Y-107202214D01*
X167747160Y-107134833D01*
X167749517Y-107131164D01*
X167760240Y-107115117D01*
X167775500Y-107038401D01*
X167775499Y-106861600D01*
X167760240Y-106784883D01*
X167760239Y-106784881D01*
X167760238Y-106784878D01*
X167749555Y-106768891D01*
X167728676Y-106702214D01*
X167747160Y-106634833D01*
X167749517Y-106631164D01*
X167760240Y-106615117D01*
X167775500Y-106538401D01*
X167775499Y-106361600D01*
X167760240Y-106284883D01*
X167760239Y-106284881D01*
X167760238Y-106284878D01*
X167749555Y-106268891D01*
X167728676Y-106202214D01*
X167747160Y-106134833D01*
X167749517Y-106131164D01*
X167760240Y-106115117D01*
X167775499Y-106038404D01*
X167775500Y-106038404D01*
X167775500Y-105999499D01*
X167795185Y-105932460D01*
X167847989Y-105886705D01*
X167899500Y-105875499D01*
X167938398Y-105875499D01*
X167938400Y-105875499D01*
X168015117Y-105860240D01*
X168031107Y-105849555D01*
X168097783Y-105828676D01*
X168165164Y-105847159D01*
X168168871Y-105849541D01*
X168184880Y-105860238D01*
X168184883Y-105860240D01*
X168184887Y-105860241D01*
X168223241Y-105867870D01*
X168261599Y-105875500D01*
X168438400Y-105875499D01*
X168515117Y-105860240D01*
X168531107Y-105849555D01*
X168597783Y-105828676D01*
X168665164Y-105847159D01*
X168668871Y-105849541D01*
X168684880Y-105860238D01*
X168684883Y-105860240D01*
X168684887Y-105860241D01*
X168723241Y-105867870D01*
X168761599Y-105875500D01*
X168938400Y-105875499D01*
X169015117Y-105860240D01*
X169031107Y-105849555D01*
X169097783Y-105828676D01*
X169165164Y-105847159D01*
X169168871Y-105849541D01*
X169184880Y-105860238D01*
X169184883Y-105860240D01*
X169184887Y-105860241D01*
X169223241Y-105867870D01*
X169261599Y-105875500D01*
X169438400Y-105875499D01*
X169515117Y-105860240D01*
X169531107Y-105849555D01*
X169597783Y-105828676D01*
X169665164Y-105847159D01*
X169668871Y-105849541D01*
X169684880Y-105860238D01*
X169684883Y-105860240D01*
X169684887Y-105860241D01*
X169723241Y-105867870D01*
X169761599Y-105875500D01*
X169938400Y-105875499D01*
X170015117Y-105860240D01*
X170031107Y-105849555D01*
X170097783Y-105828676D01*
X170165164Y-105847159D01*
X170168871Y-105849541D01*
X170184880Y-105860238D01*
X170184883Y-105860240D01*
X170184887Y-105860241D01*
X170223241Y-105867870D01*
X170261599Y-105875500D01*
X170438400Y-105875499D01*
X170515117Y-105860240D01*
X170531107Y-105849555D01*
X170597783Y-105828676D01*
X170665164Y-105847159D01*
X170668871Y-105849541D01*
X170684880Y-105860238D01*
X170684883Y-105860240D01*
X170684887Y-105860241D01*
X170723241Y-105867870D01*
X170761599Y-105875500D01*
X170938400Y-105875499D01*
X171015117Y-105860240D01*
X171031107Y-105849555D01*
X171097783Y-105828676D01*
X171165164Y-105847159D01*
X171168871Y-105849541D01*
X171184880Y-105860238D01*
X171184883Y-105860240D01*
X171184887Y-105860241D01*
X171223241Y-105867870D01*
X171261599Y-105875500D01*
X171438400Y-105875499D01*
X171515117Y-105860240D01*
X171531107Y-105849555D01*
X171597783Y-105828676D01*
X171665164Y-105847159D01*
X171668871Y-105849541D01*
X171684880Y-105860238D01*
X171684883Y-105860240D01*
X171684887Y-105860241D01*
X171723241Y-105867870D01*
X171761599Y-105875500D01*
X171938400Y-105875499D01*
X172015117Y-105860240D01*
X172031107Y-105849555D01*
X172097783Y-105828676D01*
X172165164Y-105847159D01*
G37*
G04 #@! TD.AperFunction*
G04 #@! TA.AperFunction,Conductor*
G36*
X194021398Y-104702338D02*
G01*
X194076576Y-104745201D01*
X194099822Y-104811090D01*
X194100000Y-104817729D01*
X194100000Y-108970500D01*
X194080315Y-109037539D01*
X194027511Y-109083294D01*
X193976000Y-109094500D01*
X179023992Y-109094500D01*
X178980313Y-109099197D01*
X178928825Y-109110397D01*
X178918627Y-109112890D01*
X178918624Y-109112891D01*
X178837916Y-109155899D01*
X178837913Y-109155901D01*
X178785104Y-109201660D01*
X178767160Y-109219242D01*
X178767154Y-109219249D01*
X178722511Y-109299059D01*
X178722509Y-109299064D01*
X178702826Y-109366096D01*
X178702825Y-109366101D01*
X178702825Y-109366102D01*
X178699375Y-109390100D01*
X178694500Y-109424003D01*
X178694500Y-112676000D01*
X178674815Y-112743039D01*
X178622011Y-112788794D01*
X178570500Y-112800000D01*
X175716835Y-112800000D01*
X175649796Y-112780315D01*
X175604041Y-112727511D01*
X175594097Y-112658353D01*
X175623122Y-112594797D01*
X175629154Y-112588319D01*
X176953446Y-111264027D01*
X178282065Y-109935408D01*
X178325181Y-109860728D01*
X178347500Y-109777434D01*
X178347500Y-109691202D01*
X178347500Y-108366884D01*
X178325181Y-108283590D01*
X178282065Y-108208910D01*
X178221090Y-108147935D01*
X177716819Y-107643664D01*
X177683334Y-107582341D01*
X177680500Y-107555983D01*
X177680500Y-107375683D01*
X177674068Y-107326828D01*
X177665713Y-107308910D01*
X177624065Y-107219596D01*
X177540404Y-107135935D01*
X177433173Y-107085932D01*
X177433171Y-107085931D01*
X177433172Y-107085931D01*
X177384317Y-107079500D01*
X177384316Y-107079500D01*
X177204017Y-107079500D01*
X177136978Y-107059815D01*
X177116336Y-107043181D01*
X176943336Y-106870181D01*
X176909851Y-106808858D01*
X176914835Y-106739166D01*
X176956707Y-106683233D01*
X177022171Y-106658816D01*
X177031017Y-106658500D01*
X178350930Y-106658500D01*
X178350932Y-106658500D01*
X178434226Y-106636181D01*
X178508906Y-106593065D01*
X179911152Y-105190819D01*
X179972475Y-105157334D01*
X179998833Y-105154500D01*
X191871114Y-105154500D01*
X191871116Y-105154500D01*
X191954410Y-105132181D01*
X192029090Y-105089065D01*
X192381336Y-104736819D01*
X192442659Y-104703334D01*
X192469017Y-104700500D01*
X193929749Y-104700500D01*
X193941057Y-104698250D01*
X193951807Y-104696112D01*
X194021398Y-104702338D01*
G37*
G04 #@! TD.AperFunction*
G04 #@! TA.AperFunction,Conductor*
G36*
X166684702Y-110747412D02*
G01*
X166709274Y-110759987D01*
X166709880Y-110760238D01*
X166709883Y-110760240D01*
X166709886Y-110760240D01*
X166709887Y-110760241D01*
X166729112Y-110764065D01*
X166786599Y-110775500D01*
X167400500Y-110775499D01*
X167467539Y-110795183D01*
X167513294Y-110847987D01*
X167524500Y-110899499D01*
X167524500Y-111454166D01*
X167504815Y-111521205D01*
X167488181Y-111541847D01*
X167304346Y-111725681D01*
X167243023Y-111759166D01*
X167216666Y-111762000D01*
X167002605Y-111762000D01*
X166986886Y-111764069D01*
X166953013Y-111768528D01*
X166953011Y-111768529D01*
X166953009Y-111768529D01*
X166844183Y-111819276D01*
X166786431Y-111877029D01*
X166725108Y-111910514D01*
X166655416Y-111905530D01*
X166611069Y-111877029D01*
X166555816Y-111821776D01*
X166539779Y-111814298D01*
X166446987Y-111771028D01*
X166446985Y-111771027D01*
X166446986Y-111771027D01*
X166397402Y-111764500D01*
X166397401Y-111764500D01*
X166387000Y-111764500D01*
X166319961Y-111744815D01*
X166274206Y-111692011D01*
X166263000Y-111640500D01*
X166263000Y-111117964D01*
X166282685Y-111050925D01*
X166299319Y-111030283D01*
X166397918Y-110931684D01*
X166553690Y-110775911D01*
X166615011Y-110742428D01*
X166684702Y-110747412D01*
G37*
G04 #@! TD.AperFunction*
G04 #@! TA.AperFunction,Conductor*
G36*
X176784835Y-107969143D02*
G01*
X176788093Y-107972903D01*
X176788264Y-107972733D01*
X176795935Y-107980404D01*
X176879596Y-108064065D01*
X176986827Y-108114068D01*
X177035683Y-108120500D01*
X177035684Y-108120500D01*
X177215983Y-108120500D01*
X177283022Y-108140185D01*
X177303664Y-108156819D01*
X177656181Y-108509336D01*
X177689666Y-108570659D01*
X177692500Y-108597017D01*
X177692500Y-109033358D01*
X177672815Y-109100397D01*
X177620011Y-109146152D01*
X177550853Y-109156096D01*
X177516096Y-109145740D01*
X177409486Y-109096027D01*
X177359902Y-109089500D01*
X177000105Y-109089500D01*
X176984386Y-109091569D01*
X176950513Y-109096028D01*
X176950511Y-109096029D01*
X176950509Y-109096029D01*
X176841683Y-109146776D01*
X176787681Y-109200779D01*
X176726358Y-109234264D01*
X176656666Y-109229280D01*
X176612319Y-109200779D01*
X176558316Y-109146776D01*
X176507264Y-109122970D01*
X176449487Y-109096028D01*
X176449485Y-109096027D01*
X176449486Y-109096027D01*
X176399902Y-109089500D01*
X176040105Y-109089500D01*
X176024386Y-109091569D01*
X175990513Y-109096028D01*
X175990511Y-109096029D01*
X175990508Y-109096029D01*
X175932735Y-109122970D01*
X175863657Y-109133462D01*
X175799873Y-109104942D01*
X175761634Y-109046465D01*
X175761080Y-108976598D01*
X175767941Y-108958198D01*
X175813972Y-108859487D01*
X175820500Y-108809901D01*
X175820499Y-108390100D01*
X175813972Y-108340513D01*
X175780545Y-108268830D01*
X175770054Y-108199754D01*
X175798574Y-108135970D01*
X175857050Y-108097730D01*
X175926917Y-108097175D01*
X175945323Y-108104040D01*
X175966827Y-108114068D01*
X175999398Y-108118356D01*
X176015683Y-108120500D01*
X176015684Y-108120500D01*
X176364317Y-108120500D01*
X176380601Y-108118356D01*
X176413173Y-108114068D01*
X176520404Y-108064065D01*
X176604065Y-107980404D01*
X176604065Y-107980403D01*
X176611736Y-107972733D01*
X176614564Y-107975561D01*
X176652977Y-107944843D01*
X176722474Y-107937635D01*
X176784835Y-107969143D01*
G37*
G04 #@! TD.AperFunction*
G04 #@! TA.AperFunction,Conductor*
G36*
X175784137Y-104647185D02*
G01*
X175804779Y-104663819D01*
X175853279Y-104712319D01*
X175886764Y-104773642D01*
X175881780Y-104843334D01*
X175853279Y-104887681D01*
X175809276Y-104931683D01*
X175758527Y-105040514D01*
X175752000Y-105090098D01*
X175752000Y-105265982D01*
X175732315Y-105333021D01*
X175715681Y-105353663D01*
X175483164Y-105586181D01*
X175421841Y-105619666D01*
X175395483Y-105622500D01*
X172994383Y-105622500D01*
X172987240Y-105623440D01*
X172971062Y-105624500D01*
X172799499Y-105624500D01*
X172732460Y-105604815D01*
X172686705Y-105552011D01*
X172675499Y-105500500D01*
X172675499Y-105451517D01*
X172695184Y-105384478D01*
X172711818Y-105363836D01*
X173411836Y-104663819D01*
X173473159Y-104630334D01*
X173499517Y-104627500D01*
X175717098Y-104627500D01*
X175784137Y-104647185D01*
G37*
G04 #@! TD.AperFunction*
G04 #@! TA.AperFunction,Conductor*
G36*
X166474653Y-102947185D02*
G01*
X166520408Y-102999989D01*
X166530553Y-103067685D01*
X166529500Y-103075683D01*
X166529500Y-103524316D01*
X166535931Y-103573171D01*
X166585935Y-103680404D01*
X166636181Y-103730650D01*
X166669666Y-103791973D01*
X166672500Y-103818331D01*
X166672500Y-103956884D01*
X166672500Y-104043116D01*
X166694819Y-104126410D01*
X166737935Y-104201090D01*
X167137935Y-104601090D01*
X167198910Y-104662065D01*
X167270873Y-104703612D01*
X167319089Y-104754179D01*
X167332313Y-104822786D01*
X167306345Y-104887651D01*
X167249431Y-104928180D01*
X167208874Y-104935000D01*
X166862017Y-104935000D01*
X166794978Y-104915315D01*
X166774336Y-104898681D01*
X166007591Y-104131936D01*
X166007590Y-104131935D01*
X165932910Y-104088819D01*
X165932911Y-104088819D01*
X165905145Y-104081379D01*
X165849616Y-104066500D01*
X165849614Y-104066500D01*
X164592587Y-104066500D01*
X164525548Y-104046815D01*
X164480205Y-103994906D01*
X164480164Y-103994819D01*
X164450724Y-103931684D01*
X164418185Y-103899145D01*
X164384700Y-103837822D01*
X164389684Y-103768130D01*
X164418184Y-103723784D01*
X164461565Y-103680404D01*
X164511568Y-103573173D01*
X164518000Y-103524316D01*
X164518000Y-103075684D01*
X164516947Y-103067685D01*
X164527713Y-102998650D01*
X164574093Y-102946394D01*
X164639886Y-102927500D01*
X166407614Y-102927500D01*
X166474653Y-102947185D01*
G37*
G04 #@! TD.AperFunction*
G04 #@! TA.AperFunction,Conductor*
G36*
X168384653Y-102947185D02*
G01*
X168430408Y-102999989D01*
X168440553Y-103067685D01*
X168439500Y-103075683D01*
X168439500Y-103524316D01*
X168445931Y-103573171D01*
X168495934Y-103680402D01*
X168500074Y-103686314D01*
X168522402Y-103752520D01*
X168522500Y-103757439D01*
X168522500Y-104207415D01*
X168502815Y-104274454D01*
X168450011Y-104320209D01*
X168380853Y-104330153D01*
X168317297Y-104301128D01*
X168310819Y-104295096D01*
X168153659Y-104137936D01*
X168153658Y-104137935D01*
X168078978Y-104094819D01*
X168078979Y-104094819D01*
X168051213Y-104087379D01*
X167995684Y-104072500D01*
X167995682Y-104072500D01*
X167587017Y-104072500D01*
X167519978Y-104052815D01*
X167499336Y-104036181D01*
X167366493Y-103903338D01*
X167333008Y-103842015D01*
X167337992Y-103772323D01*
X167366493Y-103727976D01*
X167387500Y-103706969D01*
X167414065Y-103680404D01*
X167464068Y-103573173D01*
X167470500Y-103524316D01*
X167470500Y-103075684D01*
X167469447Y-103067685D01*
X167480213Y-102998650D01*
X167526593Y-102946394D01*
X167592386Y-102927500D01*
X168317614Y-102927500D01*
X168384653Y-102947185D01*
G37*
G04 #@! TD.AperFunction*
G04 #@! TA.AperFunction,Conductor*
G36*
X147281382Y-100980185D02*
G01*
X147327137Y-101032989D01*
X147337081Y-101102147D01*
X147320777Y-101145858D01*
X147320802Y-101145870D01*
X147320647Y-101146208D01*
X147318660Y-101151537D01*
X147317118Y-101153935D01*
X147263302Y-101271774D01*
X147244867Y-101400000D01*
X147263302Y-101528225D01*
X147308972Y-101628226D01*
X147317118Y-101646063D01*
X147401951Y-101743967D01*
X147510931Y-101814004D01*
X147635225Y-101850499D01*
X147635227Y-101850500D01*
X147635228Y-101850500D01*
X147696600Y-101850500D01*
X147704229Y-101851000D01*
X147708524Y-101851000D01*
X147765500Y-101851000D01*
X147832539Y-101870685D01*
X147878294Y-101923489D01*
X147889500Y-101975000D01*
X147889500Y-101979752D01*
X147901131Y-102038229D01*
X147901132Y-102038230D01*
X147945447Y-102104552D01*
X148011769Y-102148867D01*
X148011770Y-102148868D01*
X148070247Y-102160499D01*
X148070250Y-102160500D01*
X148070252Y-102160500D01*
X150290983Y-102160500D01*
X150358022Y-102180185D01*
X150403777Y-102232989D01*
X150413721Y-102302147D01*
X150384696Y-102365703D01*
X150378664Y-102372181D01*
X149114664Y-103636181D01*
X149053341Y-103669666D01*
X149026983Y-103672500D01*
X147334500Y-103672500D01*
X147267461Y-103652815D01*
X147221706Y-103600011D01*
X147210500Y-103548500D01*
X147210500Y-103480249D01*
X147210499Y-103480247D01*
X147198868Y-103421770D01*
X147198867Y-103421769D01*
X147154552Y-103355447D01*
X147088230Y-103311132D01*
X147088229Y-103311131D01*
X147029752Y-103299500D01*
X147029748Y-103299500D01*
X144480252Y-103299500D01*
X144480247Y-103299500D01*
X144421770Y-103311131D01*
X144421769Y-103311132D01*
X144355447Y-103355447D01*
X144311132Y-103421769D01*
X144311131Y-103421770D01*
X144299500Y-103480247D01*
X144299500Y-104036983D01*
X144279815Y-104104022D01*
X144227011Y-104149777D01*
X144157853Y-104159721D01*
X144094297Y-104130696D01*
X144087819Y-104124664D01*
X142808819Y-102845664D01*
X142775334Y-102784341D01*
X142772500Y-102757983D01*
X142772500Y-102284500D01*
X142792185Y-102217461D01*
X142844989Y-102171706D01*
X142896500Y-102160500D01*
X143719750Y-102160500D01*
X143719751Y-102160499D01*
X143734568Y-102157552D01*
X143778229Y-102148868D01*
X143778229Y-102148867D01*
X143778231Y-102148867D01*
X143844552Y-102104552D01*
X143888867Y-102038231D01*
X143888867Y-102038229D01*
X143888868Y-102038229D01*
X143900499Y-101979752D01*
X143900500Y-101979750D01*
X143900500Y-101084500D01*
X143920185Y-101017461D01*
X143972989Y-100971706D01*
X144024500Y-100960500D01*
X147214343Y-100960500D01*
X147281382Y-100980185D01*
G37*
G04 #@! TD.AperFunction*
G04 #@! TA.AperFunction,Conductor*
G36*
X195115677Y-109319685D02*
G01*
X195136319Y-109336319D01*
X195963681Y-110163681D01*
X195997166Y-110225004D01*
X196000000Y-110251362D01*
X196000000Y-113900000D01*
X186042293Y-113900000D01*
X186002793Y-113787119D01*
X186002792Y-113787117D01*
X185922150Y-113677850D01*
X185812882Y-113597207D01*
X185812880Y-113597206D01*
X185684700Y-113552353D01*
X185654270Y-113549500D01*
X185654266Y-113549500D01*
X184895734Y-113549500D01*
X184895730Y-113549500D01*
X184865300Y-113552353D01*
X184865298Y-113552353D01*
X184737119Y-113597206D01*
X184737117Y-113597207D01*
X184627850Y-113677850D01*
X184547207Y-113787117D01*
X184547206Y-113787119D01*
X184507706Y-113900000D01*
X178900000Y-113900000D01*
X178900000Y-110000000D01*
X178900000Y-109424000D01*
X178919685Y-109356961D01*
X178972489Y-109311206D01*
X179024000Y-109300000D01*
X195048638Y-109300000D01*
X195115677Y-109319685D01*
G37*
G04 #@! TD.AperFunction*
M02*
