%TF.GenerationSoftware,KiCad,Pcbnew,8.0.7*%
%TF.CreationDate,2025-05-18T15:53:21-04:00*%
%TF.ProjectId,protovolt,70726f74-6f76-46f6-9c74-2e6b69636164,rev?*%
%TF.SameCoordinates,Original*%
%TF.FileFunction,Drillmap*%
%TF.FilePolarity,Positive*%
%FSLAX45Y45*%
G04 Gerber Fmt 4.5, Leading zero omitted, Abs format (unit mm)*
G04 Created by KiCad (PCBNEW 8.0.7) date 2025-05-18 15:53:21*
%MOMM*%
%LPD*%
G01*
G04 APERTURE LIST*
%ADD10C,0.050000*%
%ADD11C,0.200000*%
%ADD12C,0.100000*%
G04 APERTURE END LIST*
D10*
X12550000Y-9750000D02*
X21850000Y-9750000D01*
X21850000Y-12850000D01*
X12550000Y-12850000D01*
X12550000Y-9750000D01*
D11*
D12*
X16795000Y-10605000D02*
X16815000Y-10625000D01*
X16815000Y-10605000D02*
X16795000Y-10625000D01*
X16795000Y-10707500D02*
X16815000Y-10727500D01*
X16815000Y-10707500D02*
X16795000Y-10727500D01*
X16795000Y-10810000D02*
X16815000Y-10830000D01*
X16815000Y-10810000D02*
X16795000Y-10830000D01*
X16795000Y-10912500D02*
X16815000Y-10932500D01*
X16815000Y-10912500D02*
X16795000Y-10932500D01*
X16795000Y-11015000D02*
X16815000Y-11035000D01*
X16815000Y-11015000D02*
X16795000Y-11035000D01*
X16897500Y-10605000D02*
X16917500Y-10625000D01*
X16917500Y-10605000D02*
X16897500Y-10625000D01*
X16897500Y-10707500D02*
X16917500Y-10727500D01*
X16917500Y-10707500D02*
X16897500Y-10727500D01*
X16897500Y-10810000D02*
X16917500Y-10830000D01*
X16917500Y-10810000D02*
X16897500Y-10830000D01*
X16897500Y-10912500D02*
X16917500Y-10932500D01*
X16917500Y-10912500D02*
X16897500Y-10932500D01*
X16897500Y-11015000D02*
X16917500Y-11035000D01*
X16917500Y-11015000D02*
X16897500Y-11035000D01*
X17000000Y-10605000D02*
X17020000Y-10625000D01*
X17020000Y-10605000D02*
X17000000Y-10625000D01*
X17000000Y-10707500D02*
X17020000Y-10727500D01*
X17020000Y-10707500D02*
X17000000Y-10727500D01*
X17000000Y-10810000D02*
X17020000Y-10830000D01*
X17020000Y-10810000D02*
X17000000Y-10830000D01*
X17000000Y-10912500D02*
X17020000Y-10932500D01*
X17020000Y-10912500D02*
X17000000Y-10932500D01*
X17000000Y-11015000D02*
X17020000Y-11035000D01*
X17020000Y-11015000D02*
X17000000Y-11035000D01*
X17102500Y-10605000D02*
X17122500Y-10625000D01*
X17122500Y-10605000D02*
X17102500Y-10625000D01*
X17102500Y-10707500D02*
X17122500Y-10727500D01*
X17122500Y-10707500D02*
X17102500Y-10727500D01*
X17102500Y-10810000D02*
X17122500Y-10830000D01*
X17122500Y-10810000D02*
X17102500Y-10830000D01*
X17102500Y-10912500D02*
X17122500Y-10932500D01*
X17122500Y-10912500D02*
X17102500Y-10932500D01*
X17102500Y-11015000D02*
X17122500Y-11035000D01*
X17122500Y-11015000D02*
X17102500Y-11035000D01*
X17205000Y-10605000D02*
X17225000Y-10625000D01*
X17225000Y-10605000D02*
X17205000Y-10625000D01*
X17205000Y-10707500D02*
X17225000Y-10727500D01*
X17225000Y-10707500D02*
X17205000Y-10727500D01*
X17205000Y-10810000D02*
X17225000Y-10830000D01*
X17225000Y-10810000D02*
X17205000Y-10830000D01*
X17205000Y-10912500D02*
X17225000Y-10932500D01*
X17225000Y-10912500D02*
X17205000Y-10932500D01*
X17205000Y-11015000D02*
X17225000Y-11035000D01*
X17225000Y-11015000D02*
X17205000Y-11035000D01*
X12715000Y-9900000D02*
G75*
G02*
X12685000Y-9900000I-15000J0D01*
G01*
X12685000Y-9900000D02*
G75*
G02*
X12715000Y-9900000I15000J0D01*
G01*
X12715000Y-11200000D02*
G75*
G02*
X12685000Y-11200000I-15000J0D01*
G01*
X12685000Y-11200000D02*
G75*
G02*
X12715000Y-11200000I15000J0D01*
G01*
X12715000Y-11400000D02*
G75*
G02*
X12685000Y-11400000I-15000J0D01*
G01*
X12685000Y-11400000D02*
G75*
G02*
X12715000Y-11400000I15000J0D01*
G01*
X12715000Y-11650000D02*
G75*
G02*
X12685000Y-11650000I-15000J0D01*
G01*
X12685000Y-11650000D02*
G75*
G02*
X12715000Y-11650000I15000J0D01*
G01*
X12715000Y-11750000D02*
G75*
G02*
X12685000Y-11750000I-15000J0D01*
G01*
X12685000Y-11750000D02*
G75*
G02*
X12715000Y-11750000I15000J0D01*
G01*
X12715000Y-11850000D02*
G75*
G02*
X12685000Y-11850000I-15000J0D01*
G01*
X12685000Y-11850000D02*
G75*
G02*
X12715000Y-11850000I15000J0D01*
G01*
X12715000Y-12150000D02*
G75*
G02*
X12685000Y-12150000I-15000J0D01*
G01*
X12685000Y-12150000D02*
G75*
G02*
X12715000Y-12150000I15000J0D01*
G01*
X12715000Y-12250000D02*
G75*
G02*
X12685000Y-12250000I-15000J0D01*
G01*
X12685000Y-12250000D02*
G75*
G02*
X12715000Y-12250000I15000J0D01*
G01*
X12715000Y-12350000D02*
G75*
G02*
X12685000Y-12350000I-15000J0D01*
G01*
X12685000Y-12350000D02*
G75*
G02*
X12715000Y-12350000I15000J0D01*
G01*
X12715000Y-12700000D02*
G75*
G02*
X12685000Y-12700000I-15000J0D01*
G01*
X12685000Y-12700000D02*
G75*
G02*
X12715000Y-12700000I15000J0D01*
G01*
X12915000Y-9900000D02*
G75*
G02*
X12885000Y-9900000I-15000J0D01*
G01*
X12885000Y-9900000D02*
G75*
G02*
X12915000Y-9900000I15000J0D01*
G01*
X12915000Y-11200000D02*
G75*
G02*
X12885000Y-11200000I-15000J0D01*
G01*
X12885000Y-11200000D02*
G75*
G02*
X12915000Y-11200000I15000J0D01*
G01*
X12915000Y-11400000D02*
G75*
G02*
X12885000Y-11400000I-15000J0D01*
G01*
X12885000Y-11400000D02*
G75*
G02*
X12915000Y-11400000I15000J0D01*
G01*
X12915000Y-11650000D02*
G75*
G02*
X12885000Y-11650000I-15000J0D01*
G01*
X12885000Y-11650000D02*
G75*
G02*
X12915000Y-11650000I15000J0D01*
G01*
X12915000Y-11750000D02*
G75*
G02*
X12885000Y-11750000I-15000J0D01*
G01*
X12885000Y-11750000D02*
G75*
G02*
X12915000Y-11750000I15000J0D01*
G01*
X12915000Y-11850000D02*
G75*
G02*
X12885000Y-11850000I-15000J0D01*
G01*
X12885000Y-11850000D02*
G75*
G02*
X12915000Y-11850000I15000J0D01*
G01*
X12915000Y-12150000D02*
G75*
G02*
X12885000Y-12150000I-15000J0D01*
G01*
X12885000Y-12150000D02*
G75*
G02*
X12915000Y-12150000I15000J0D01*
G01*
X12915000Y-12250000D02*
G75*
G02*
X12885000Y-12250000I-15000J0D01*
G01*
X12885000Y-12250000D02*
G75*
G02*
X12915000Y-12250000I15000J0D01*
G01*
X12915000Y-12350000D02*
G75*
G02*
X12885000Y-12350000I-15000J0D01*
G01*
X12885000Y-12350000D02*
G75*
G02*
X12915000Y-12350000I15000J0D01*
G01*
X12915000Y-12700000D02*
G75*
G02*
X12885000Y-12700000I-15000J0D01*
G01*
X12885000Y-12700000D02*
G75*
G02*
X12915000Y-12700000I15000J0D01*
G01*
X12965000Y-10950000D02*
G75*
G02*
X12935000Y-10950000I-15000J0D01*
G01*
X12935000Y-10950000D02*
G75*
G02*
X12965000Y-10950000I15000J0D01*
G01*
X12965000Y-11700000D02*
G75*
G02*
X12935000Y-11700000I-15000J0D01*
G01*
X12935000Y-11700000D02*
G75*
G02*
X12965000Y-11700000I15000J0D01*
G01*
X12965000Y-11800000D02*
G75*
G02*
X12935000Y-11800000I-15000J0D01*
G01*
X12935000Y-11800000D02*
G75*
G02*
X12965000Y-11800000I15000J0D01*
G01*
X12965000Y-12200000D02*
G75*
G02*
X12935000Y-12200000I-15000J0D01*
G01*
X12935000Y-12200000D02*
G75*
G02*
X12965000Y-12200000I15000J0D01*
G01*
X12965000Y-12300000D02*
G75*
G02*
X12935000Y-12300000I-15000J0D01*
G01*
X12935000Y-12300000D02*
G75*
G02*
X12965000Y-12300000I15000J0D01*
G01*
X13045000Y-10150000D02*
G75*
G02*
X13015000Y-10150000I-15000J0D01*
G01*
X13015000Y-10150000D02*
G75*
G02*
X13045000Y-10150000I15000J0D01*
G01*
X13115000Y-9900000D02*
G75*
G02*
X13085000Y-9900000I-15000J0D01*
G01*
X13085000Y-9900000D02*
G75*
G02*
X13115000Y-9900000I15000J0D01*
G01*
X13115000Y-11200000D02*
G75*
G02*
X13085000Y-11200000I-15000J0D01*
G01*
X13085000Y-11200000D02*
G75*
G02*
X13115000Y-11200000I15000J0D01*
G01*
X13115000Y-11400000D02*
G75*
G02*
X13085000Y-11400000I-15000J0D01*
G01*
X13085000Y-11400000D02*
G75*
G02*
X13115000Y-11400000I15000J0D01*
G01*
X13115000Y-12700000D02*
G75*
G02*
X13085000Y-12700000I-15000J0D01*
G01*
X13085000Y-12700000D02*
G75*
G02*
X13115000Y-12700000I15000J0D01*
G01*
X13165000Y-11650000D02*
G75*
G02*
X13135000Y-11650000I-15000J0D01*
G01*
X13135000Y-11650000D02*
G75*
G02*
X13165000Y-11650000I15000J0D01*
G01*
X13165000Y-11750000D02*
G75*
G02*
X13135000Y-11750000I-15000J0D01*
G01*
X13135000Y-11750000D02*
G75*
G02*
X13165000Y-11750000I15000J0D01*
G01*
X13165000Y-11850000D02*
G75*
G02*
X13135000Y-11850000I-15000J0D01*
G01*
X13135000Y-11850000D02*
G75*
G02*
X13165000Y-11850000I15000J0D01*
G01*
X13165000Y-12150000D02*
G75*
G02*
X13135000Y-12150000I-15000J0D01*
G01*
X13135000Y-12150000D02*
G75*
G02*
X13165000Y-12150000I15000J0D01*
G01*
X13165000Y-12250000D02*
G75*
G02*
X13135000Y-12250000I-15000J0D01*
G01*
X13135000Y-12250000D02*
G75*
G02*
X13165000Y-12250000I15000J0D01*
G01*
X13165000Y-12350000D02*
G75*
G02*
X13135000Y-12350000I-15000J0D01*
G01*
X13135000Y-12350000D02*
G75*
G02*
X13165000Y-12350000I15000J0D01*
G01*
X13215000Y-10550000D02*
G75*
G02*
X13185000Y-10550000I-15000J0D01*
G01*
X13185000Y-10550000D02*
G75*
G02*
X13215000Y-10550000I15000J0D01*
G01*
X13215000Y-11700000D02*
G75*
G02*
X13185000Y-11700000I-15000J0D01*
G01*
X13185000Y-11700000D02*
G75*
G02*
X13215000Y-11700000I15000J0D01*
G01*
X13215000Y-11800000D02*
G75*
G02*
X13185000Y-11800000I-15000J0D01*
G01*
X13185000Y-11800000D02*
G75*
G02*
X13215000Y-11800000I15000J0D01*
G01*
X13215000Y-12200000D02*
G75*
G02*
X13185000Y-12200000I-15000J0D01*
G01*
X13185000Y-12200000D02*
G75*
G02*
X13215000Y-12200000I15000J0D01*
G01*
X13215000Y-12300000D02*
G75*
G02*
X13185000Y-12300000I-15000J0D01*
G01*
X13185000Y-12300000D02*
G75*
G02*
X13215000Y-12300000I15000J0D01*
G01*
X13315000Y-9900000D02*
G75*
G02*
X13285000Y-9900000I-15000J0D01*
G01*
X13285000Y-9900000D02*
G75*
G02*
X13315000Y-9900000I15000J0D01*
G01*
X13315000Y-11200000D02*
G75*
G02*
X13285000Y-11200000I-15000J0D01*
G01*
X13285000Y-11200000D02*
G75*
G02*
X13315000Y-11200000I15000J0D01*
G01*
X13315000Y-11400000D02*
G75*
G02*
X13285000Y-11400000I-15000J0D01*
G01*
X13285000Y-11400000D02*
G75*
G02*
X13315000Y-11400000I15000J0D01*
G01*
X13315000Y-12700000D02*
G75*
G02*
X13285000Y-12700000I-15000J0D01*
G01*
X13285000Y-12700000D02*
G75*
G02*
X13315000Y-12700000I15000J0D01*
G01*
X13415000Y-11650000D02*
G75*
G02*
X13385000Y-11650000I-15000J0D01*
G01*
X13385000Y-11650000D02*
G75*
G02*
X13415000Y-11650000I15000J0D01*
G01*
X13415000Y-11750000D02*
G75*
G02*
X13385000Y-11750000I-15000J0D01*
G01*
X13385000Y-11750000D02*
G75*
G02*
X13415000Y-11750000I15000J0D01*
G01*
X13415000Y-11850000D02*
G75*
G02*
X13385000Y-11850000I-15000J0D01*
G01*
X13385000Y-11850000D02*
G75*
G02*
X13415000Y-11850000I15000J0D01*
G01*
X13415000Y-12150000D02*
G75*
G02*
X13385000Y-12150000I-15000J0D01*
G01*
X13385000Y-12150000D02*
G75*
G02*
X13415000Y-12150000I15000J0D01*
G01*
X13415000Y-12250000D02*
G75*
G02*
X13385000Y-12250000I-15000J0D01*
G01*
X13385000Y-12250000D02*
G75*
G02*
X13415000Y-12250000I15000J0D01*
G01*
X13415000Y-12350000D02*
G75*
G02*
X13385000Y-12350000I-15000J0D01*
G01*
X13385000Y-12350000D02*
G75*
G02*
X13415000Y-12350000I15000J0D01*
G01*
X13465000Y-11700000D02*
G75*
G02*
X13435000Y-11700000I-15000J0D01*
G01*
X13435000Y-11700000D02*
G75*
G02*
X13465000Y-11700000I15000J0D01*
G01*
X13465000Y-11800000D02*
G75*
G02*
X13435000Y-11800000I-15000J0D01*
G01*
X13435000Y-11800000D02*
G75*
G02*
X13465000Y-11800000I15000J0D01*
G01*
X13465000Y-12200000D02*
G75*
G02*
X13435000Y-12200000I-15000J0D01*
G01*
X13435000Y-12200000D02*
G75*
G02*
X13465000Y-12200000I15000J0D01*
G01*
X13465000Y-12300000D02*
G75*
G02*
X13435000Y-12300000I-15000J0D01*
G01*
X13435000Y-12300000D02*
G75*
G02*
X13465000Y-12300000I15000J0D01*
G01*
X13515000Y-9900000D02*
G75*
G02*
X13485000Y-9900000I-15000J0D01*
G01*
X13485000Y-9900000D02*
G75*
G02*
X13515000Y-9900000I15000J0D01*
G01*
X13515000Y-11200000D02*
G75*
G02*
X13485000Y-11200000I-15000J0D01*
G01*
X13485000Y-11200000D02*
G75*
G02*
X13515000Y-11200000I15000J0D01*
G01*
X13515000Y-11400000D02*
G75*
G02*
X13485000Y-11400000I-15000J0D01*
G01*
X13485000Y-11400000D02*
G75*
G02*
X13515000Y-11400000I15000J0D01*
G01*
X13515000Y-12100000D02*
G75*
G02*
X13485000Y-12100000I-15000J0D01*
G01*
X13485000Y-12100000D02*
G75*
G02*
X13515000Y-12100000I15000J0D01*
G01*
X13515000Y-12400000D02*
G75*
G02*
X13485000Y-12400000I-15000J0D01*
G01*
X13485000Y-12400000D02*
G75*
G02*
X13515000Y-12400000I15000J0D01*
G01*
X13515000Y-12700000D02*
G75*
G02*
X13485000Y-12700000I-15000J0D01*
G01*
X13485000Y-12700000D02*
G75*
G02*
X13515000Y-12700000I15000J0D01*
G01*
X13565000Y-10950000D02*
G75*
G02*
X13535000Y-10950000I-15000J0D01*
G01*
X13535000Y-10950000D02*
G75*
G02*
X13565000Y-10950000I15000J0D01*
G01*
X13715000Y-9900000D02*
G75*
G02*
X13685000Y-9900000I-15000J0D01*
G01*
X13685000Y-9900000D02*
G75*
G02*
X13715000Y-9900000I15000J0D01*
G01*
X13715000Y-11200000D02*
G75*
G02*
X13685000Y-11200000I-15000J0D01*
G01*
X13685000Y-11200000D02*
G75*
G02*
X13715000Y-11200000I15000J0D01*
G01*
X13715000Y-11400000D02*
G75*
G02*
X13685000Y-11400000I-15000J0D01*
G01*
X13685000Y-11400000D02*
G75*
G02*
X13715000Y-11400000I15000J0D01*
G01*
X13715000Y-11800000D02*
G75*
G02*
X13685000Y-11800000I-15000J0D01*
G01*
X13685000Y-11800000D02*
G75*
G02*
X13715000Y-11800000I15000J0D01*
G01*
X13715000Y-12100000D02*
G75*
G02*
X13685000Y-12100000I-15000J0D01*
G01*
X13685000Y-12100000D02*
G75*
G02*
X13715000Y-12100000I15000J0D01*
G01*
X13715000Y-12400000D02*
G75*
G02*
X13685000Y-12400000I-15000J0D01*
G01*
X13685000Y-12400000D02*
G75*
G02*
X13715000Y-12400000I15000J0D01*
G01*
X13715000Y-12700000D02*
G75*
G02*
X13685000Y-12700000I-15000J0D01*
G01*
X13685000Y-12700000D02*
G75*
G02*
X13715000Y-12700000I15000J0D01*
G01*
X13865000Y-10900000D02*
G75*
G02*
X13835000Y-10900000I-15000J0D01*
G01*
X13835000Y-10900000D02*
G75*
G02*
X13865000Y-10900000I15000J0D01*
G01*
X13915000Y-9900000D02*
G75*
G02*
X13885000Y-9900000I-15000J0D01*
G01*
X13885000Y-9900000D02*
G75*
G02*
X13915000Y-9900000I15000J0D01*
G01*
X13915000Y-11200000D02*
G75*
G02*
X13885000Y-11200000I-15000J0D01*
G01*
X13885000Y-11200000D02*
G75*
G02*
X13915000Y-11200000I15000J0D01*
G01*
X13915000Y-11400000D02*
G75*
G02*
X13885000Y-11400000I-15000J0D01*
G01*
X13885000Y-11400000D02*
G75*
G02*
X13915000Y-11400000I15000J0D01*
G01*
X13915000Y-11800000D02*
G75*
G02*
X13885000Y-11800000I-15000J0D01*
G01*
X13885000Y-11800000D02*
G75*
G02*
X13915000Y-11800000I15000J0D01*
G01*
X13915000Y-12100000D02*
G75*
G02*
X13885000Y-12100000I-15000J0D01*
G01*
X13885000Y-12100000D02*
G75*
G02*
X13915000Y-12100000I15000J0D01*
G01*
X13915000Y-12400000D02*
G75*
G02*
X13885000Y-12400000I-15000J0D01*
G01*
X13885000Y-12400000D02*
G75*
G02*
X13915000Y-12400000I15000J0D01*
G01*
X13915000Y-12700000D02*
G75*
G02*
X13885000Y-12700000I-15000J0D01*
G01*
X13885000Y-12700000D02*
G75*
G02*
X13915000Y-12700000I15000J0D01*
G01*
X14115000Y-9900000D02*
G75*
G02*
X14085000Y-9900000I-15000J0D01*
G01*
X14085000Y-9900000D02*
G75*
G02*
X14115000Y-9900000I15000J0D01*
G01*
X14115000Y-11200000D02*
G75*
G02*
X14085000Y-11200000I-15000J0D01*
G01*
X14085000Y-11200000D02*
G75*
G02*
X14115000Y-11200000I15000J0D01*
G01*
X14115000Y-11400000D02*
G75*
G02*
X14085000Y-11400000I-15000J0D01*
G01*
X14085000Y-11400000D02*
G75*
G02*
X14115000Y-11400000I15000J0D01*
G01*
X14115000Y-11800000D02*
G75*
G02*
X14085000Y-11800000I-15000J0D01*
G01*
X14085000Y-11800000D02*
G75*
G02*
X14115000Y-11800000I15000J0D01*
G01*
X14115000Y-12100000D02*
G75*
G02*
X14085000Y-12100000I-15000J0D01*
G01*
X14085000Y-12100000D02*
G75*
G02*
X14115000Y-12100000I15000J0D01*
G01*
X14115000Y-12400000D02*
G75*
G02*
X14085000Y-12400000I-15000J0D01*
G01*
X14085000Y-12400000D02*
G75*
G02*
X14115000Y-12400000I15000J0D01*
G01*
X14115000Y-12700000D02*
G75*
G02*
X14085000Y-12700000I-15000J0D01*
G01*
X14085000Y-12700000D02*
G75*
G02*
X14115000Y-12700000I15000J0D01*
G01*
X14315000Y-9900000D02*
G75*
G02*
X14285000Y-9900000I-15000J0D01*
G01*
X14285000Y-9900000D02*
G75*
G02*
X14315000Y-9900000I15000J0D01*
G01*
X14315000Y-11200000D02*
G75*
G02*
X14285000Y-11200000I-15000J0D01*
G01*
X14285000Y-11200000D02*
G75*
G02*
X14315000Y-11200000I15000J0D01*
G01*
X14315000Y-11400000D02*
G75*
G02*
X14285000Y-11400000I-15000J0D01*
G01*
X14285000Y-11400000D02*
G75*
G02*
X14315000Y-11400000I15000J0D01*
G01*
X14315000Y-11800000D02*
G75*
G02*
X14285000Y-11800000I-15000J0D01*
G01*
X14285000Y-11800000D02*
G75*
G02*
X14315000Y-11800000I15000J0D01*
G01*
X14315000Y-12100000D02*
G75*
G02*
X14285000Y-12100000I-15000J0D01*
G01*
X14285000Y-12100000D02*
G75*
G02*
X14315000Y-12100000I15000J0D01*
G01*
X14315000Y-12400000D02*
G75*
G02*
X14285000Y-12400000I-15000J0D01*
G01*
X14285000Y-12400000D02*
G75*
G02*
X14315000Y-12400000I15000J0D01*
G01*
X14315000Y-12700000D02*
G75*
G02*
X14285000Y-12700000I-15000J0D01*
G01*
X14285000Y-12700000D02*
G75*
G02*
X14315000Y-12700000I15000J0D01*
G01*
X14335000Y-10270000D02*
G75*
G02*
X14305000Y-10270000I-15000J0D01*
G01*
X14305000Y-10270000D02*
G75*
G02*
X14335000Y-10270000I15000J0D01*
G01*
X14465000Y-10270000D02*
G75*
G02*
X14435000Y-10270000I-15000J0D01*
G01*
X14435000Y-10270000D02*
G75*
G02*
X14465000Y-10270000I15000J0D01*
G01*
X14465000Y-10850000D02*
G75*
G02*
X14435000Y-10850000I-15000J0D01*
G01*
X14435000Y-10850000D02*
G75*
G02*
X14465000Y-10850000I15000J0D01*
G01*
X14515000Y-9900000D02*
G75*
G02*
X14485000Y-9900000I-15000J0D01*
G01*
X14485000Y-9900000D02*
G75*
G02*
X14515000Y-9900000I15000J0D01*
G01*
X14515000Y-11200000D02*
G75*
G02*
X14485000Y-11200000I-15000J0D01*
G01*
X14485000Y-11200000D02*
G75*
G02*
X14515000Y-11200000I15000J0D01*
G01*
X14515000Y-11400000D02*
G75*
G02*
X14485000Y-11400000I-15000J0D01*
G01*
X14485000Y-11400000D02*
G75*
G02*
X14515000Y-11400000I15000J0D01*
G01*
X14515000Y-11800000D02*
G75*
G02*
X14485000Y-11800000I-15000J0D01*
G01*
X14485000Y-11800000D02*
G75*
G02*
X14515000Y-11800000I15000J0D01*
G01*
X14515000Y-12400000D02*
G75*
G02*
X14485000Y-12400000I-15000J0D01*
G01*
X14485000Y-12400000D02*
G75*
G02*
X14515000Y-12400000I15000J0D01*
G01*
X14515000Y-12700000D02*
G75*
G02*
X14485000Y-12700000I-15000J0D01*
G01*
X14485000Y-12700000D02*
G75*
G02*
X14515000Y-12700000I15000J0D01*
G01*
X14525000Y-10140000D02*
G75*
G02*
X14495000Y-10140000I-15000J0D01*
G01*
X14495000Y-10140000D02*
G75*
G02*
X14525000Y-10140000I15000J0D01*
G01*
X14565000Y-12000000D02*
G75*
G02*
X14535000Y-12000000I-15000J0D01*
G01*
X14535000Y-12000000D02*
G75*
G02*
X14565000Y-12000000I15000J0D01*
G01*
X14575000Y-10240000D02*
G75*
G02*
X14545000Y-10240000I-15000J0D01*
G01*
X14545000Y-10240000D02*
G75*
G02*
X14575000Y-10240000I15000J0D01*
G01*
X14615000Y-10650000D02*
G75*
G02*
X14585000Y-10650000I-15000J0D01*
G01*
X14585000Y-10650000D02*
G75*
G02*
X14615000Y-10650000I15000J0D01*
G01*
X14615000Y-11950000D02*
G75*
G02*
X14585000Y-11950000I-15000J0D01*
G01*
X14585000Y-11950000D02*
G75*
G02*
X14615000Y-11950000I15000J0D01*
G01*
X14615000Y-12050000D02*
G75*
G02*
X14585000Y-12050000I-15000J0D01*
G01*
X14585000Y-12050000D02*
G75*
G02*
X14615000Y-12050000I15000J0D01*
G01*
X14655000Y-10140000D02*
G75*
G02*
X14625000Y-10140000I-15000J0D01*
G01*
X14625000Y-10140000D02*
G75*
G02*
X14655000Y-10140000I15000J0D01*
G01*
X14665000Y-12000000D02*
G75*
G02*
X14635000Y-12000000I-15000J0D01*
G01*
X14635000Y-12000000D02*
G75*
G02*
X14665000Y-12000000I15000J0D01*
G01*
X14705000Y-10240000D02*
G75*
G02*
X14675000Y-10240000I-15000J0D01*
G01*
X14675000Y-10240000D02*
G75*
G02*
X14705000Y-10240000I15000J0D01*
G01*
X14715000Y-9900000D02*
G75*
G02*
X14685000Y-9900000I-15000J0D01*
G01*
X14685000Y-9900000D02*
G75*
G02*
X14715000Y-9900000I15000J0D01*
G01*
X14715000Y-11200000D02*
G75*
G02*
X14685000Y-11200000I-15000J0D01*
G01*
X14685000Y-11200000D02*
G75*
G02*
X14715000Y-11200000I15000J0D01*
G01*
X14715000Y-11400000D02*
G75*
G02*
X14685000Y-11400000I-15000J0D01*
G01*
X14685000Y-11400000D02*
G75*
G02*
X14715000Y-11400000I15000J0D01*
G01*
X14715000Y-11800000D02*
G75*
G02*
X14685000Y-11800000I-15000J0D01*
G01*
X14685000Y-11800000D02*
G75*
G02*
X14715000Y-11800000I15000J0D01*
G01*
X14715000Y-11950000D02*
G75*
G02*
X14685000Y-11950000I-15000J0D01*
G01*
X14685000Y-11950000D02*
G75*
G02*
X14715000Y-11950000I15000J0D01*
G01*
X14715000Y-12050000D02*
G75*
G02*
X14685000Y-12050000I-15000J0D01*
G01*
X14685000Y-12050000D02*
G75*
G02*
X14715000Y-12050000I15000J0D01*
G01*
X14715000Y-12700000D02*
G75*
G02*
X14685000Y-12700000I-15000J0D01*
G01*
X14685000Y-12700000D02*
G75*
G02*
X14715000Y-12700000I15000J0D01*
G01*
X14740000Y-12200000D02*
G75*
G02*
X14710000Y-12200000I-15000J0D01*
G01*
X14710000Y-12200000D02*
G75*
G02*
X14740000Y-12200000I15000J0D01*
G01*
X14740000Y-12300000D02*
G75*
G02*
X14710000Y-12300000I-15000J0D01*
G01*
X14710000Y-12300000D02*
G75*
G02*
X14740000Y-12300000I15000J0D01*
G01*
X14740000Y-12400000D02*
G75*
G02*
X14710000Y-12400000I-15000J0D01*
G01*
X14710000Y-12400000D02*
G75*
G02*
X14740000Y-12400000I15000J0D01*
G01*
X14740000Y-12500000D02*
G75*
G02*
X14710000Y-12500000I-15000J0D01*
G01*
X14710000Y-12500000D02*
G75*
G02*
X14740000Y-12500000I15000J0D01*
G01*
X14765000Y-12000000D02*
G75*
G02*
X14735000Y-12000000I-15000J0D01*
G01*
X14735000Y-12000000D02*
G75*
G02*
X14765000Y-12000000I15000J0D01*
G01*
X14785000Y-10140000D02*
G75*
G02*
X14755000Y-10140000I-15000J0D01*
G01*
X14755000Y-10140000D02*
G75*
G02*
X14785000Y-10140000I15000J0D01*
G01*
X14790000Y-12150000D02*
G75*
G02*
X14760000Y-12150000I-15000J0D01*
G01*
X14760000Y-12150000D02*
G75*
G02*
X14790000Y-12150000I15000J0D01*
G01*
X14790000Y-12250000D02*
G75*
G02*
X14760000Y-12250000I-15000J0D01*
G01*
X14760000Y-12250000D02*
G75*
G02*
X14790000Y-12250000I15000J0D01*
G01*
X14790000Y-12350000D02*
G75*
G02*
X14760000Y-12350000I-15000J0D01*
G01*
X14760000Y-12350000D02*
G75*
G02*
X14790000Y-12350000I15000J0D01*
G01*
X14790000Y-12450000D02*
G75*
G02*
X14760000Y-12450000I-15000J0D01*
G01*
X14760000Y-12450000D02*
G75*
G02*
X14790000Y-12450000I15000J0D01*
G01*
X14790000Y-12550000D02*
G75*
G02*
X14760000Y-12550000I-15000J0D01*
G01*
X14760000Y-12550000D02*
G75*
G02*
X14790000Y-12550000I15000J0D01*
G01*
X14805000Y-10290000D02*
G75*
G02*
X14775000Y-10290000I-15000J0D01*
G01*
X14775000Y-10290000D02*
G75*
G02*
X14805000Y-10290000I15000J0D01*
G01*
X14815000Y-10950000D02*
G75*
G02*
X14785000Y-10950000I-15000J0D01*
G01*
X14785000Y-10950000D02*
G75*
G02*
X14815000Y-10950000I15000J0D01*
G01*
X14815000Y-11950000D02*
G75*
G02*
X14785000Y-11950000I-15000J0D01*
G01*
X14785000Y-11950000D02*
G75*
G02*
X14815000Y-11950000I15000J0D01*
G01*
X14815000Y-12050000D02*
G75*
G02*
X14785000Y-12050000I-15000J0D01*
G01*
X14785000Y-12050000D02*
G75*
G02*
X14815000Y-12050000I15000J0D01*
G01*
X14840000Y-12200000D02*
G75*
G02*
X14810000Y-12200000I-15000J0D01*
G01*
X14810000Y-12200000D02*
G75*
G02*
X14840000Y-12200000I15000J0D01*
G01*
X14840000Y-12300000D02*
G75*
G02*
X14810000Y-12300000I-15000J0D01*
G01*
X14810000Y-12300000D02*
G75*
G02*
X14840000Y-12300000I15000J0D01*
G01*
X14840000Y-12400000D02*
G75*
G02*
X14810000Y-12400000I-15000J0D01*
G01*
X14810000Y-12400000D02*
G75*
G02*
X14840000Y-12400000I15000J0D01*
G01*
X14840000Y-12500000D02*
G75*
G02*
X14810000Y-12500000I-15000J0D01*
G01*
X14810000Y-12500000D02*
G75*
G02*
X14840000Y-12500000I15000J0D01*
G01*
X14865000Y-12000000D02*
G75*
G02*
X14835000Y-12000000I-15000J0D01*
G01*
X14835000Y-12000000D02*
G75*
G02*
X14865000Y-12000000I15000J0D01*
G01*
X14890000Y-12250000D02*
G75*
G02*
X14860000Y-12250000I-15000J0D01*
G01*
X14860000Y-12250000D02*
G75*
G02*
X14890000Y-12250000I15000J0D01*
G01*
X14890000Y-12450000D02*
G75*
G02*
X14860000Y-12450000I-15000J0D01*
G01*
X14860000Y-12450000D02*
G75*
G02*
X14890000Y-12450000I15000J0D01*
G01*
X14915000Y-9900000D02*
G75*
G02*
X14885000Y-9900000I-15000J0D01*
G01*
X14885000Y-9900000D02*
G75*
G02*
X14915000Y-9900000I15000J0D01*
G01*
X14915000Y-11200000D02*
G75*
G02*
X14885000Y-11200000I-15000J0D01*
G01*
X14885000Y-11200000D02*
G75*
G02*
X14915000Y-11200000I15000J0D01*
G01*
X14915000Y-11950000D02*
G75*
G02*
X14885000Y-11950000I-15000J0D01*
G01*
X14885000Y-11950000D02*
G75*
G02*
X14915000Y-11950000I15000J0D01*
G01*
X14915000Y-12050000D02*
G75*
G02*
X14885000Y-12050000I-15000J0D01*
G01*
X14885000Y-12050000D02*
G75*
G02*
X14915000Y-12050000I15000J0D01*
G01*
X14915000Y-12700000D02*
G75*
G02*
X14885000Y-12700000I-15000J0D01*
G01*
X14885000Y-12700000D02*
G75*
G02*
X14915000Y-12700000I15000J0D01*
G01*
X14935000Y-10290000D02*
G75*
G02*
X14905000Y-10290000I-15000J0D01*
G01*
X14905000Y-10290000D02*
G75*
G02*
X14935000Y-10290000I15000J0D01*
G01*
X14965000Y-12000000D02*
G75*
G02*
X14935000Y-12000000I-15000J0D01*
G01*
X14935000Y-12000000D02*
G75*
G02*
X14965000Y-12000000I15000J0D01*
G01*
X14990000Y-12150000D02*
G75*
G02*
X14960000Y-12150000I-15000J0D01*
G01*
X14960000Y-12150000D02*
G75*
G02*
X14990000Y-12150000I15000J0D01*
G01*
X14990000Y-12350000D02*
G75*
G02*
X14960000Y-12350000I-15000J0D01*
G01*
X14960000Y-12350000D02*
G75*
G02*
X14990000Y-12350000I15000J0D01*
G01*
X14990000Y-12550000D02*
G75*
G02*
X14960000Y-12550000I-15000J0D01*
G01*
X14960000Y-12550000D02*
G75*
G02*
X14990000Y-12550000I15000J0D01*
G01*
X15015000Y-11950000D02*
G75*
G02*
X14985000Y-11950000I-15000J0D01*
G01*
X14985000Y-11950000D02*
G75*
G02*
X15015000Y-11950000I15000J0D01*
G01*
X15015000Y-12050000D02*
G75*
G02*
X14985000Y-12050000I-15000J0D01*
G01*
X14985000Y-12050000D02*
G75*
G02*
X15015000Y-12050000I15000J0D01*
G01*
X15065000Y-12000000D02*
G75*
G02*
X15035000Y-12000000I-15000J0D01*
G01*
X15035000Y-12000000D02*
G75*
G02*
X15065000Y-12000000I15000J0D01*
G01*
X15090000Y-12250000D02*
G75*
G02*
X15060000Y-12250000I-15000J0D01*
G01*
X15060000Y-12250000D02*
G75*
G02*
X15090000Y-12250000I15000J0D01*
G01*
X15090000Y-12450000D02*
G75*
G02*
X15060000Y-12450000I-15000J0D01*
G01*
X15060000Y-12450000D02*
G75*
G02*
X15090000Y-12450000I15000J0D01*
G01*
X15115000Y-9900000D02*
G75*
G02*
X15085000Y-9900000I-15000J0D01*
G01*
X15085000Y-9900000D02*
G75*
G02*
X15115000Y-9900000I15000J0D01*
G01*
X15115000Y-11200000D02*
G75*
G02*
X15085000Y-11200000I-15000J0D01*
G01*
X15085000Y-11200000D02*
G75*
G02*
X15115000Y-11200000I15000J0D01*
G01*
X15115000Y-11950000D02*
G75*
G02*
X15085000Y-11950000I-15000J0D01*
G01*
X15085000Y-11950000D02*
G75*
G02*
X15115000Y-11950000I15000J0D01*
G01*
X15115000Y-12050000D02*
G75*
G02*
X15085000Y-12050000I-15000J0D01*
G01*
X15085000Y-12050000D02*
G75*
G02*
X15115000Y-12050000I15000J0D01*
G01*
X15115000Y-12700000D02*
G75*
G02*
X15085000Y-12700000I-15000J0D01*
G01*
X15085000Y-12700000D02*
G75*
G02*
X15115000Y-12700000I15000J0D01*
G01*
X15140000Y-12200000D02*
G75*
G02*
X15110000Y-12200000I-15000J0D01*
G01*
X15110000Y-12200000D02*
G75*
G02*
X15140000Y-12200000I15000J0D01*
G01*
X15140000Y-12300000D02*
G75*
G02*
X15110000Y-12300000I-15000J0D01*
G01*
X15110000Y-12300000D02*
G75*
G02*
X15140000Y-12300000I15000J0D01*
G01*
X15140000Y-12400000D02*
G75*
G02*
X15110000Y-12400000I-15000J0D01*
G01*
X15110000Y-12400000D02*
G75*
G02*
X15140000Y-12400000I15000J0D01*
G01*
X15140000Y-12500000D02*
G75*
G02*
X15110000Y-12500000I-15000J0D01*
G01*
X15110000Y-12500000D02*
G75*
G02*
X15140000Y-12500000I15000J0D01*
G01*
X15165000Y-10850000D02*
G75*
G02*
X15135000Y-10850000I-15000J0D01*
G01*
X15135000Y-10850000D02*
G75*
G02*
X15165000Y-10850000I15000J0D01*
G01*
X15165000Y-12000000D02*
G75*
G02*
X15135000Y-12000000I-15000J0D01*
G01*
X15135000Y-12000000D02*
G75*
G02*
X15165000Y-12000000I15000J0D01*
G01*
X15190000Y-12150000D02*
G75*
G02*
X15160000Y-12150000I-15000J0D01*
G01*
X15160000Y-12150000D02*
G75*
G02*
X15190000Y-12150000I15000J0D01*
G01*
X15190000Y-12250000D02*
G75*
G02*
X15160000Y-12250000I-15000J0D01*
G01*
X15160000Y-12250000D02*
G75*
G02*
X15190000Y-12250000I15000J0D01*
G01*
X15190000Y-12350000D02*
G75*
G02*
X15160000Y-12350000I-15000J0D01*
G01*
X15160000Y-12350000D02*
G75*
G02*
X15190000Y-12350000I15000J0D01*
G01*
X15190000Y-12450000D02*
G75*
G02*
X15160000Y-12450000I-15000J0D01*
G01*
X15160000Y-12450000D02*
G75*
G02*
X15190000Y-12450000I15000J0D01*
G01*
X15190000Y-12550000D02*
G75*
G02*
X15160000Y-12550000I-15000J0D01*
G01*
X15160000Y-12550000D02*
G75*
G02*
X15190000Y-12550000I15000J0D01*
G01*
X15215000Y-11400000D02*
G75*
G02*
X15185000Y-11400000I-15000J0D01*
G01*
X15185000Y-11400000D02*
G75*
G02*
X15215000Y-11400000I15000J0D01*
G01*
X15215000Y-11950000D02*
G75*
G02*
X15185000Y-11950000I-15000J0D01*
G01*
X15185000Y-11950000D02*
G75*
G02*
X15215000Y-11950000I15000J0D01*
G01*
X15215000Y-12050000D02*
G75*
G02*
X15185000Y-12050000I-15000J0D01*
G01*
X15185000Y-12050000D02*
G75*
G02*
X15215000Y-12050000I15000J0D01*
G01*
X15240000Y-12200000D02*
G75*
G02*
X15210000Y-12200000I-15000J0D01*
G01*
X15210000Y-12200000D02*
G75*
G02*
X15240000Y-12200000I15000J0D01*
G01*
X15240000Y-12300000D02*
G75*
G02*
X15210000Y-12300000I-15000J0D01*
G01*
X15210000Y-12300000D02*
G75*
G02*
X15240000Y-12300000I15000J0D01*
G01*
X15240000Y-12400000D02*
G75*
G02*
X15210000Y-12400000I-15000J0D01*
G01*
X15210000Y-12400000D02*
G75*
G02*
X15240000Y-12400000I15000J0D01*
G01*
X15240000Y-12500000D02*
G75*
G02*
X15210000Y-12500000I-15000J0D01*
G01*
X15210000Y-12500000D02*
G75*
G02*
X15240000Y-12500000I15000J0D01*
G01*
X15265000Y-12000000D02*
G75*
G02*
X15235000Y-12000000I-15000J0D01*
G01*
X15235000Y-12000000D02*
G75*
G02*
X15265000Y-12000000I15000J0D01*
G01*
X15315000Y-9900000D02*
G75*
G02*
X15285000Y-9900000I-15000J0D01*
G01*
X15285000Y-9900000D02*
G75*
G02*
X15315000Y-9900000I15000J0D01*
G01*
X15315000Y-11200000D02*
G75*
G02*
X15285000Y-11200000I-15000J0D01*
G01*
X15285000Y-11200000D02*
G75*
G02*
X15315000Y-11200000I15000J0D01*
G01*
X15315000Y-11950000D02*
G75*
G02*
X15285000Y-11950000I-15000J0D01*
G01*
X15285000Y-11950000D02*
G75*
G02*
X15315000Y-11950000I15000J0D01*
G01*
X15315000Y-12050000D02*
G75*
G02*
X15285000Y-12050000I-15000J0D01*
G01*
X15285000Y-12050000D02*
G75*
G02*
X15315000Y-12050000I15000J0D01*
G01*
X15315000Y-12700000D02*
G75*
G02*
X15285000Y-12700000I-15000J0D01*
G01*
X15285000Y-12700000D02*
G75*
G02*
X15315000Y-12700000I15000J0D01*
G01*
X15365000Y-12000000D02*
G75*
G02*
X15335000Y-12000000I-15000J0D01*
G01*
X15335000Y-12000000D02*
G75*
G02*
X15365000Y-12000000I15000J0D01*
G01*
X15365000Y-12100000D02*
G75*
G02*
X15335000Y-12100000I-15000J0D01*
G01*
X15335000Y-12100000D02*
G75*
G02*
X15365000Y-12100000I15000J0D01*
G01*
X15365000Y-12200000D02*
G75*
G02*
X15335000Y-12200000I-15000J0D01*
G01*
X15335000Y-12200000D02*
G75*
G02*
X15365000Y-12200000I15000J0D01*
G01*
X15365000Y-12300000D02*
G75*
G02*
X15335000Y-12300000I-15000J0D01*
G01*
X15335000Y-12300000D02*
G75*
G02*
X15365000Y-12300000I15000J0D01*
G01*
X15365000Y-12400000D02*
G75*
G02*
X15335000Y-12400000I-15000J0D01*
G01*
X15335000Y-12400000D02*
G75*
G02*
X15365000Y-12400000I15000J0D01*
G01*
X15365000Y-12500000D02*
G75*
G02*
X15335000Y-12500000I-15000J0D01*
G01*
X15335000Y-12500000D02*
G75*
G02*
X15365000Y-12500000I15000J0D01*
G01*
X15365000Y-12600000D02*
G75*
G02*
X15335000Y-12600000I-15000J0D01*
G01*
X15335000Y-12600000D02*
G75*
G02*
X15365000Y-12600000I15000J0D01*
G01*
X15415000Y-11400000D02*
G75*
G02*
X15385000Y-11400000I-15000J0D01*
G01*
X15385000Y-11400000D02*
G75*
G02*
X15415000Y-11400000I15000J0D01*
G01*
X15415000Y-11950000D02*
G75*
G02*
X15385000Y-11950000I-15000J0D01*
G01*
X15385000Y-11950000D02*
G75*
G02*
X15415000Y-11950000I15000J0D01*
G01*
X15415000Y-12050000D02*
G75*
G02*
X15385000Y-12050000I-15000J0D01*
G01*
X15385000Y-12050000D02*
G75*
G02*
X15415000Y-12050000I15000J0D01*
G01*
X15415000Y-12150000D02*
G75*
G02*
X15385000Y-12150000I-15000J0D01*
G01*
X15385000Y-12150000D02*
G75*
G02*
X15415000Y-12150000I15000J0D01*
G01*
X15415000Y-12250000D02*
G75*
G02*
X15385000Y-12250000I-15000J0D01*
G01*
X15385000Y-12250000D02*
G75*
G02*
X15415000Y-12250000I15000J0D01*
G01*
X15415000Y-12350000D02*
G75*
G02*
X15385000Y-12350000I-15000J0D01*
G01*
X15385000Y-12350000D02*
G75*
G02*
X15415000Y-12350000I15000J0D01*
G01*
X15415000Y-12450000D02*
G75*
G02*
X15385000Y-12450000I-15000J0D01*
G01*
X15385000Y-12450000D02*
G75*
G02*
X15415000Y-12450000I15000J0D01*
G01*
X15415000Y-12550000D02*
G75*
G02*
X15385000Y-12550000I-15000J0D01*
G01*
X15385000Y-12550000D02*
G75*
G02*
X15415000Y-12550000I15000J0D01*
G01*
X15415000Y-12650000D02*
G75*
G02*
X15385000Y-12650000I-15000J0D01*
G01*
X15385000Y-12650000D02*
G75*
G02*
X15415000Y-12650000I15000J0D01*
G01*
X15465000Y-10950000D02*
G75*
G02*
X15435000Y-10950000I-15000J0D01*
G01*
X15435000Y-10950000D02*
G75*
G02*
X15465000Y-10950000I15000J0D01*
G01*
X15465000Y-12000000D02*
G75*
G02*
X15435000Y-12000000I-15000J0D01*
G01*
X15435000Y-12000000D02*
G75*
G02*
X15465000Y-12000000I15000J0D01*
G01*
X15465000Y-12100000D02*
G75*
G02*
X15435000Y-12100000I-15000J0D01*
G01*
X15435000Y-12100000D02*
G75*
G02*
X15465000Y-12100000I15000J0D01*
G01*
X15515000Y-9900000D02*
G75*
G02*
X15485000Y-9900000I-15000J0D01*
G01*
X15485000Y-9900000D02*
G75*
G02*
X15515000Y-9900000I15000J0D01*
G01*
X15515000Y-10600000D02*
G75*
G02*
X15485000Y-10600000I-15000J0D01*
G01*
X15485000Y-10600000D02*
G75*
G02*
X15515000Y-10600000I15000J0D01*
G01*
X15515000Y-11200000D02*
G75*
G02*
X15485000Y-11200000I-15000J0D01*
G01*
X15485000Y-11200000D02*
G75*
G02*
X15515000Y-11200000I15000J0D01*
G01*
X15515000Y-12700000D02*
G75*
G02*
X15485000Y-12700000I-15000J0D01*
G01*
X15485000Y-12700000D02*
G75*
G02*
X15515000Y-12700000I15000J0D01*
G01*
X15571215Y-12596539D02*
G75*
G02*
X15541215Y-12596539I-15000J0D01*
G01*
X15541215Y-12596539D02*
G75*
G02*
X15571215Y-12596539I15000J0D01*
G01*
X15615000Y-11400000D02*
G75*
G02*
X15585000Y-11400000I-15000J0D01*
G01*
X15585000Y-11400000D02*
G75*
G02*
X15615000Y-11400000I15000J0D01*
G01*
X15665000Y-12200000D02*
G75*
G02*
X15635000Y-12200000I-15000J0D01*
G01*
X15635000Y-12200000D02*
G75*
G02*
X15665000Y-12200000I15000J0D01*
G01*
X15665000Y-12300000D02*
G75*
G02*
X15635000Y-12300000I-15000J0D01*
G01*
X15635000Y-12300000D02*
G75*
G02*
X15665000Y-12300000I15000J0D01*
G01*
X15665000Y-12400000D02*
G75*
G02*
X15635000Y-12400000I-15000J0D01*
G01*
X15635000Y-12400000D02*
G75*
G02*
X15665000Y-12400000I15000J0D01*
G01*
X15715000Y-9900000D02*
G75*
G02*
X15685000Y-9900000I-15000J0D01*
G01*
X15685000Y-9900000D02*
G75*
G02*
X15715000Y-9900000I15000J0D01*
G01*
X15715000Y-11200000D02*
G75*
G02*
X15685000Y-11200000I-15000J0D01*
G01*
X15685000Y-11200000D02*
G75*
G02*
X15715000Y-11200000I15000J0D01*
G01*
X15715000Y-11345000D02*
G75*
G02*
X15685000Y-11345000I-15000J0D01*
G01*
X15685000Y-11345000D02*
G75*
G02*
X15715000Y-11345000I15000J0D01*
G01*
X15715000Y-12250000D02*
G75*
G02*
X15685000Y-12250000I-15000J0D01*
G01*
X15685000Y-12250000D02*
G75*
G02*
X15715000Y-12250000I15000J0D01*
G01*
X15715000Y-12350000D02*
G75*
G02*
X15685000Y-12350000I-15000J0D01*
G01*
X15685000Y-12350000D02*
G75*
G02*
X15715000Y-12350000I15000J0D01*
G01*
X15715000Y-12500000D02*
G75*
G02*
X15685000Y-12500000I-15000J0D01*
G01*
X15685000Y-12500000D02*
G75*
G02*
X15715000Y-12500000I15000J0D01*
G01*
X15715000Y-12600000D02*
G75*
G02*
X15685000Y-12600000I-15000J0D01*
G01*
X15685000Y-12600000D02*
G75*
G02*
X15715000Y-12600000I15000J0D01*
G01*
X15715000Y-12700000D02*
G75*
G02*
X15685000Y-12700000I-15000J0D01*
G01*
X15685000Y-12700000D02*
G75*
G02*
X15715000Y-12700000I15000J0D01*
G01*
X15765000Y-11000000D02*
G75*
G02*
X15735000Y-11000000I-15000J0D01*
G01*
X15735000Y-11000000D02*
G75*
G02*
X15765000Y-11000000I15000J0D01*
G01*
X15765000Y-12150000D02*
G75*
G02*
X15735000Y-12150000I-15000J0D01*
G01*
X15735000Y-12150000D02*
G75*
G02*
X15765000Y-12150000I15000J0D01*
G01*
X15765000Y-12450000D02*
G75*
G02*
X15735000Y-12450000I-15000J0D01*
G01*
X15735000Y-12450000D02*
G75*
G02*
X15765000Y-12450000I15000J0D01*
G01*
X15765000Y-12550000D02*
G75*
G02*
X15735000Y-12550000I-15000J0D01*
G01*
X15735000Y-12550000D02*
G75*
G02*
X15765000Y-12550000I15000J0D01*
G01*
X15815000Y-10500000D02*
G75*
G02*
X15785000Y-10500000I-15000J0D01*
G01*
X15785000Y-10500000D02*
G75*
G02*
X15815000Y-10500000I15000J0D01*
G01*
X15815000Y-11900000D02*
G75*
G02*
X15785000Y-11900000I-15000J0D01*
G01*
X15785000Y-11900000D02*
G75*
G02*
X15815000Y-11900000I15000J0D01*
G01*
X15815000Y-12000000D02*
G75*
G02*
X15785000Y-12000000I-15000J0D01*
G01*
X15785000Y-12000000D02*
G75*
G02*
X15815000Y-12000000I15000J0D01*
G01*
X15815000Y-12100000D02*
G75*
G02*
X15785000Y-12100000I-15000J0D01*
G01*
X15785000Y-12100000D02*
G75*
G02*
X15815000Y-12100000I15000J0D01*
G01*
X15815000Y-12200000D02*
G75*
G02*
X15785000Y-12200000I-15000J0D01*
G01*
X15785000Y-12200000D02*
G75*
G02*
X15815000Y-12200000I15000J0D01*
G01*
X15815000Y-12300000D02*
G75*
G02*
X15785000Y-12300000I-15000J0D01*
G01*
X15785000Y-12300000D02*
G75*
G02*
X15815000Y-12300000I15000J0D01*
G01*
X15815000Y-12400000D02*
G75*
G02*
X15785000Y-12400000I-15000J0D01*
G01*
X15785000Y-12400000D02*
G75*
G02*
X15815000Y-12400000I15000J0D01*
G01*
X15815000Y-12500000D02*
G75*
G02*
X15785000Y-12500000I-15000J0D01*
G01*
X15785000Y-12500000D02*
G75*
G02*
X15815000Y-12500000I15000J0D01*
G01*
X15815000Y-12600000D02*
G75*
G02*
X15785000Y-12600000I-15000J0D01*
G01*
X15785000Y-12600000D02*
G75*
G02*
X15815000Y-12600000I15000J0D01*
G01*
X15824000Y-11444000D02*
G75*
G02*
X15794000Y-11444000I-15000J0D01*
G01*
X15794000Y-11444000D02*
G75*
G02*
X15824000Y-11444000I15000J0D01*
G01*
X15831000Y-11347000D02*
G75*
G02*
X15801000Y-11347000I-15000J0D01*
G01*
X15801000Y-11347000D02*
G75*
G02*
X15831000Y-11347000I15000J0D01*
G01*
X15865000Y-10750000D02*
G75*
G02*
X15835000Y-10750000I-15000J0D01*
G01*
X15835000Y-10750000D02*
G75*
G02*
X15865000Y-10750000I15000J0D01*
G01*
X15865000Y-11850000D02*
G75*
G02*
X15835000Y-11850000I-15000J0D01*
G01*
X15835000Y-11850000D02*
G75*
G02*
X15865000Y-11850000I15000J0D01*
G01*
X15865000Y-11950000D02*
G75*
G02*
X15835000Y-11950000I-15000J0D01*
G01*
X15835000Y-11950000D02*
G75*
G02*
X15865000Y-11950000I15000J0D01*
G01*
X15865000Y-12050000D02*
G75*
G02*
X15835000Y-12050000I-15000J0D01*
G01*
X15835000Y-12050000D02*
G75*
G02*
X15865000Y-12050000I15000J0D01*
G01*
X15865000Y-12150000D02*
G75*
G02*
X15835000Y-12150000I-15000J0D01*
G01*
X15835000Y-12150000D02*
G75*
G02*
X15865000Y-12150000I15000J0D01*
G01*
X15865000Y-12250000D02*
G75*
G02*
X15835000Y-12250000I-15000J0D01*
G01*
X15835000Y-12250000D02*
G75*
G02*
X15865000Y-12250000I15000J0D01*
G01*
X15915000Y-9900000D02*
G75*
G02*
X15885000Y-9900000I-15000J0D01*
G01*
X15885000Y-9900000D02*
G75*
G02*
X15915000Y-9900000I15000J0D01*
G01*
X15915000Y-11340000D02*
G75*
G02*
X15885000Y-11340000I-15000J0D01*
G01*
X15885000Y-11340000D02*
G75*
G02*
X15915000Y-11340000I15000J0D01*
G01*
X15915000Y-11700000D02*
G75*
G02*
X15885000Y-11700000I-15000J0D01*
G01*
X15885000Y-11700000D02*
G75*
G02*
X15915000Y-11700000I15000J0D01*
G01*
X15915000Y-11800000D02*
G75*
G02*
X15885000Y-11800000I-15000J0D01*
G01*
X15885000Y-11800000D02*
G75*
G02*
X15915000Y-11800000I15000J0D01*
G01*
X15915000Y-12100000D02*
G75*
G02*
X15885000Y-12100000I-15000J0D01*
G01*
X15885000Y-12100000D02*
G75*
G02*
X15915000Y-12100000I15000J0D01*
G01*
X15915000Y-12200000D02*
G75*
G02*
X15885000Y-12200000I-15000J0D01*
G01*
X15885000Y-12200000D02*
G75*
G02*
X15915000Y-12200000I15000J0D01*
G01*
X15915000Y-12700000D02*
G75*
G02*
X15885000Y-12700000I-15000J0D01*
G01*
X15885000Y-12700000D02*
G75*
G02*
X15915000Y-12700000I15000J0D01*
G01*
X15965000Y-11650000D02*
G75*
G02*
X15935000Y-11650000I-15000J0D01*
G01*
X15935000Y-11650000D02*
G75*
G02*
X15965000Y-11650000I15000J0D01*
G01*
X15965000Y-11750000D02*
G75*
G02*
X15935000Y-11750000I-15000J0D01*
G01*
X15935000Y-11750000D02*
G75*
G02*
X15965000Y-11750000I15000J0D01*
G01*
X15965000Y-11850000D02*
G75*
G02*
X15935000Y-11850000I-15000J0D01*
G01*
X15935000Y-11850000D02*
G75*
G02*
X15965000Y-11850000I15000J0D01*
G01*
X15965000Y-12050000D02*
G75*
G02*
X15935000Y-12050000I-15000J0D01*
G01*
X15935000Y-12050000D02*
G75*
G02*
X15965000Y-12050000I15000J0D01*
G01*
X15965000Y-12150000D02*
G75*
G02*
X15935000Y-12150000I-15000J0D01*
G01*
X15935000Y-12150000D02*
G75*
G02*
X15965000Y-12150000I15000J0D01*
G01*
X15965000Y-12550000D02*
G75*
G02*
X15935000Y-12550000I-15000J0D01*
G01*
X15935000Y-12550000D02*
G75*
G02*
X15965000Y-12550000I15000J0D01*
G01*
X15981000Y-11388000D02*
G75*
G02*
X15951000Y-11388000I-15000J0D01*
G01*
X15951000Y-11388000D02*
G75*
G02*
X15981000Y-11388000I15000J0D01*
G01*
X16015000Y-11600000D02*
G75*
G02*
X15985000Y-11600000I-15000J0D01*
G01*
X15985000Y-11600000D02*
G75*
G02*
X16015000Y-11600000I15000J0D01*
G01*
X16015000Y-11700000D02*
G75*
G02*
X15985000Y-11700000I-15000J0D01*
G01*
X15985000Y-11700000D02*
G75*
G02*
X16015000Y-11700000I15000J0D01*
G01*
X16015000Y-11800000D02*
G75*
G02*
X15985000Y-11800000I-15000J0D01*
G01*
X15985000Y-11800000D02*
G75*
G02*
X16015000Y-11800000I15000J0D01*
G01*
X16015000Y-11900000D02*
G75*
G02*
X15985000Y-11900000I-15000J0D01*
G01*
X15985000Y-11900000D02*
G75*
G02*
X16015000Y-11900000I15000J0D01*
G01*
X16015000Y-12100000D02*
G75*
G02*
X15985000Y-12100000I-15000J0D01*
G01*
X15985000Y-12100000D02*
G75*
G02*
X16015000Y-12100000I15000J0D01*
G01*
X16015000Y-12200000D02*
G75*
G02*
X15985000Y-12200000I-15000J0D01*
G01*
X15985000Y-12200000D02*
G75*
G02*
X16015000Y-12200000I15000J0D01*
G01*
X16015000Y-12600000D02*
G75*
G02*
X15985000Y-12600000I-15000J0D01*
G01*
X15985000Y-12600000D02*
G75*
G02*
X16015000Y-12600000I15000J0D01*
G01*
X16056000Y-11333000D02*
G75*
G02*
X16026000Y-11333000I-15000J0D01*
G01*
X16026000Y-11333000D02*
G75*
G02*
X16056000Y-11333000I15000J0D01*
G01*
X16065000Y-11650000D02*
G75*
G02*
X16035000Y-11650000I-15000J0D01*
G01*
X16035000Y-11650000D02*
G75*
G02*
X16065000Y-11650000I15000J0D01*
G01*
X16065000Y-11750000D02*
G75*
G02*
X16035000Y-11750000I-15000J0D01*
G01*
X16035000Y-11750000D02*
G75*
G02*
X16065000Y-11750000I15000J0D01*
G01*
X16065000Y-11850000D02*
G75*
G02*
X16035000Y-11850000I-15000J0D01*
G01*
X16035000Y-11850000D02*
G75*
G02*
X16065000Y-11850000I15000J0D01*
G01*
X16065000Y-12550000D02*
G75*
G02*
X16035000Y-12550000I-15000J0D01*
G01*
X16035000Y-12550000D02*
G75*
G02*
X16065000Y-12550000I15000J0D01*
G01*
X16095000Y-11520000D02*
G75*
G02*
X16065000Y-11520000I-15000J0D01*
G01*
X16065000Y-11520000D02*
G75*
G02*
X16095000Y-11520000I15000J0D01*
G01*
X16115000Y-9900000D02*
G75*
G02*
X16085000Y-9900000I-15000J0D01*
G01*
X16085000Y-9900000D02*
G75*
G02*
X16115000Y-9900000I15000J0D01*
G01*
X16115000Y-11700000D02*
G75*
G02*
X16085000Y-11700000I-15000J0D01*
G01*
X16085000Y-11700000D02*
G75*
G02*
X16115000Y-11700000I15000J0D01*
G01*
X16115000Y-11800000D02*
G75*
G02*
X16085000Y-11800000I-15000J0D01*
G01*
X16085000Y-11800000D02*
G75*
G02*
X16115000Y-11800000I15000J0D01*
G01*
X16115000Y-11900000D02*
G75*
G02*
X16085000Y-11900000I-15000J0D01*
G01*
X16085000Y-11900000D02*
G75*
G02*
X16115000Y-11900000I15000J0D01*
G01*
X16115000Y-12600000D02*
G75*
G02*
X16085000Y-12600000I-15000J0D01*
G01*
X16085000Y-12600000D02*
G75*
G02*
X16115000Y-12600000I15000J0D01*
G01*
X16115000Y-12700000D02*
G75*
G02*
X16085000Y-12700000I-15000J0D01*
G01*
X16085000Y-12700000D02*
G75*
G02*
X16115000Y-12700000I15000J0D01*
G01*
X16130000Y-12119000D02*
G75*
G02*
X16100000Y-12119000I-15000J0D01*
G01*
X16100000Y-12119000D02*
G75*
G02*
X16130000Y-12119000I15000J0D01*
G01*
X16165000Y-11200000D02*
G75*
G02*
X16135000Y-11200000I-15000J0D01*
G01*
X16135000Y-11200000D02*
G75*
G02*
X16165000Y-11200000I15000J0D01*
G01*
X16165000Y-11850000D02*
G75*
G02*
X16135000Y-11850000I-15000J0D01*
G01*
X16135000Y-11850000D02*
G75*
G02*
X16165000Y-11850000I15000J0D01*
G01*
X16165000Y-12350000D02*
G75*
G02*
X16135000Y-12350000I-15000J0D01*
G01*
X16135000Y-12350000D02*
G75*
G02*
X16165000Y-12350000I15000J0D01*
G01*
X16165000Y-12450000D02*
G75*
G02*
X16135000Y-12450000I-15000J0D01*
G01*
X16135000Y-12450000D02*
G75*
G02*
X16165000Y-12450000I15000J0D01*
G01*
X16165000Y-12550000D02*
G75*
G02*
X16135000Y-12550000I-15000J0D01*
G01*
X16135000Y-12550000D02*
G75*
G02*
X16165000Y-12550000I15000J0D01*
G01*
X16191000Y-12211000D02*
G75*
G02*
X16161000Y-12211000I-15000J0D01*
G01*
X16161000Y-12211000D02*
G75*
G02*
X16191000Y-12211000I15000J0D01*
G01*
X16215000Y-12400000D02*
G75*
G02*
X16185000Y-12400000I-15000J0D01*
G01*
X16185000Y-12400000D02*
G75*
G02*
X16215000Y-12400000I15000J0D01*
G01*
X16215000Y-12500000D02*
G75*
G02*
X16185000Y-12500000I-15000J0D01*
G01*
X16185000Y-12500000D02*
G75*
G02*
X16215000Y-12500000I15000J0D01*
G01*
X16215000Y-12600000D02*
G75*
G02*
X16185000Y-12600000I-15000J0D01*
G01*
X16185000Y-12600000D02*
G75*
G02*
X16215000Y-12600000I15000J0D01*
G01*
X16235000Y-11760000D02*
G75*
G02*
X16205000Y-11760000I-15000J0D01*
G01*
X16205000Y-11760000D02*
G75*
G02*
X16235000Y-11760000I15000J0D01*
G01*
X16255000Y-10530000D02*
G75*
G02*
X16225000Y-10530000I-15000J0D01*
G01*
X16225000Y-10530000D02*
G75*
G02*
X16255000Y-10530000I15000J0D01*
G01*
X16255000Y-10930000D02*
G75*
G02*
X16225000Y-10930000I-15000J0D01*
G01*
X16225000Y-10930000D02*
G75*
G02*
X16255000Y-10930000I15000J0D01*
G01*
X16265000Y-12350000D02*
G75*
G02*
X16235000Y-12350000I-15000J0D01*
G01*
X16235000Y-12350000D02*
G75*
G02*
X16265000Y-12350000I15000J0D01*
G01*
X16265000Y-12450000D02*
G75*
G02*
X16235000Y-12450000I-15000J0D01*
G01*
X16235000Y-12450000D02*
G75*
G02*
X16265000Y-12450000I15000J0D01*
G01*
X16265000Y-12550000D02*
G75*
G02*
X16235000Y-12550000I-15000J0D01*
G01*
X16235000Y-12550000D02*
G75*
G02*
X16265000Y-12550000I15000J0D01*
G01*
X16315000Y-9900000D02*
G75*
G02*
X16285000Y-9900000I-15000J0D01*
G01*
X16285000Y-9900000D02*
G75*
G02*
X16315000Y-9900000I15000J0D01*
G01*
X16315000Y-12400000D02*
G75*
G02*
X16285000Y-12400000I-15000J0D01*
G01*
X16285000Y-12400000D02*
G75*
G02*
X16315000Y-12400000I15000J0D01*
G01*
X16315000Y-12500000D02*
G75*
G02*
X16285000Y-12500000I-15000J0D01*
G01*
X16285000Y-12500000D02*
G75*
G02*
X16315000Y-12500000I15000J0D01*
G01*
X16315000Y-12600000D02*
G75*
G02*
X16285000Y-12600000I-15000J0D01*
G01*
X16285000Y-12600000D02*
G75*
G02*
X16315000Y-12600000I15000J0D01*
G01*
X16315000Y-12700000D02*
G75*
G02*
X16285000Y-12700000I-15000J0D01*
G01*
X16285000Y-12700000D02*
G75*
G02*
X16315000Y-12700000I15000J0D01*
G01*
X16365000Y-12350000D02*
G75*
G02*
X16335000Y-12350000I-15000J0D01*
G01*
X16335000Y-12350000D02*
G75*
G02*
X16365000Y-12350000I15000J0D01*
G01*
X16365000Y-12450000D02*
G75*
G02*
X16335000Y-12450000I-15000J0D01*
G01*
X16335000Y-12450000D02*
G75*
G02*
X16365000Y-12450000I15000J0D01*
G01*
X16365000Y-12550000D02*
G75*
G02*
X16335000Y-12550000I-15000J0D01*
G01*
X16335000Y-12550000D02*
G75*
G02*
X16365000Y-12550000I15000J0D01*
G01*
X16415000Y-11700000D02*
G75*
G02*
X16385000Y-11700000I-15000J0D01*
G01*
X16385000Y-11700000D02*
G75*
G02*
X16415000Y-11700000I15000J0D01*
G01*
X16415000Y-12500000D02*
G75*
G02*
X16385000Y-12500000I-15000J0D01*
G01*
X16385000Y-12500000D02*
G75*
G02*
X16415000Y-12500000I15000J0D01*
G01*
X16427000Y-11418000D02*
G75*
G02*
X16397000Y-11418000I-15000J0D01*
G01*
X16397000Y-11418000D02*
G75*
G02*
X16427000Y-11418000I15000J0D01*
G01*
X16465000Y-11750000D02*
G75*
G02*
X16435000Y-11750000I-15000J0D01*
G01*
X16435000Y-11750000D02*
G75*
G02*
X16465000Y-11750000I15000J0D01*
G01*
X16465000Y-12450000D02*
G75*
G02*
X16435000Y-12450000I-15000J0D01*
G01*
X16435000Y-12450000D02*
G75*
G02*
X16465000Y-12450000I15000J0D01*
G01*
X16465000Y-12550000D02*
G75*
G02*
X16435000Y-12550000I-15000J0D01*
G01*
X16435000Y-12550000D02*
G75*
G02*
X16465000Y-12550000I15000J0D01*
G01*
X16515000Y-9900000D02*
G75*
G02*
X16485000Y-9900000I-15000J0D01*
G01*
X16485000Y-9900000D02*
G75*
G02*
X16515000Y-9900000I15000J0D01*
G01*
X16515000Y-11700000D02*
G75*
G02*
X16485000Y-11700000I-15000J0D01*
G01*
X16485000Y-11700000D02*
G75*
G02*
X16515000Y-11700000I15000J0D01*
G01*
X16515000Y-12500000D02*
G75*
G02*
X16485000Y-12500000I-15000J0D01*
G01*
X16485000Y-12500000D02*
G75*
G02*
X16515000Y-12500000I15000J0D01*
G01*
X16515000Y-12700000D02*
G75*
G02*
X16485000Y-12700000I-15000J0D01*
G01*
X16485000Y-12700000D02*
G75*
G02*
X16515000Y-12700000I15000J0D01*
G01*
X16535000Y-10330000D02*
G75*
G02*
X16505000Y-10330000I-15000J0D01*
G01*
X16505000Y-10330000D02*
G75*
G02*
X16535000Y-10330000I15000J0D01*
G01*
X16548750Y-11504102D02*
G75*
G02*
X16518750Y-11504102I-15000J0D01*
G01*
X16518750Y-11504102D02*
G75*
G02*
X16548750Y-11504102I15000J0D01*
G01*
X16565000Y-11750000D02*
G75*
G02*
X16535000Y-11750000I-15000J0D01*
G01*
X16535000Y-11750000D02*
G75*
G02*
X16565000Y-11750000I15000J0D01*
G01*
X16565000Y-12450000D02*
G75*
G02*
X16535000Y-12450000I-15000J0D01*
G01*
X16535000Y-12450000D02*
G75*
G02*
X16565000Y-12450000I15000J0D01*
G01*
X16565000Y-12550000D02*
G75*
G02*
X16535000Y-12550000I-15000J0D01*
G01*
X16535000Y-12550000D02*
G75*
G02*
X16565000Y-12550000I15000J0D01*
G01*
X16615000Y-11700000D02*
G75*
G02*
X16585000Y-11700000I-15000J0D01*
G01*
X16585000Y-11700000D02*
G75*
G02*
X16615000Y-11700000I15000J0D01*
G01*
X16615000Y-12500000D02*
G75*
G02*
X16585000Y-12500000I-15000J0D01*
G01*
X16585000Y-12500000D02*
G75*
G02*
X16615000Y-12500000I15000J0D01*
G01*
X16628750Y-11504102D02*
G75*
G02*
X16598750Y-11504102I-15000J0D01*
G01*
X16598750Y-11504102D02*
G75*
G02*
X16628750Y-11504102I15000J0D01*
G01*
X16655000Y-10410000D02*
G75*
G02*
X16625000Y-10410000I-15000J0D01*
G01*
X16625000Y-10410000D02*
G75*
G02*
X16655000Y-10410000I15000J0D01*
G01*
X16665000Y-11750000D02*
G75*
G02*
X16635000Y-11750000I-15000J0D01*
G01*
X16635000Y-11750000D02*
G75*
G02*
X16665000Y-11750000I15000J0D01*
G01*
X16665000Y-12450000D02*
G75*
G02*
X16635000Y-12450000I-15000J0D01*
G01*
X16635000Y-12450000D02*
G75*
G02*
X16665000Y-12450000I15000J0D01*
G01*
X16665000Y-12550000D02*
G75*
G02*
X16635000Y-12550000I-15000J0D01*
G01*
X16635000Y-12550000D02*
G75*
G02*
X16665000Y-12550000I15000J0D01*
G01*
X16695000Y-11110000D02*
G75*
G02*
X16665000Y-11110000I-15000J0D01*
G01*
X16665000Y-11110000D02*
G75*
G02*
X16695000Y-11110000I15000J0D01*
G01*
X16715000Y-9900000D02*
G75*
G02*
X16685000Y-9900000I-15000J0D01*
G01*
X16685000Y-9900000D02*
G75*
G02*
X16715000Y-9900000I15000J0D01*
G01*
X16715000Y-11700000D02*
G75*
G02*
X16685000Y-11700000I-15000J0D01*
G01*
X16685000Y-11700000D02*
G75*
G02*
X16715000Y-11700000I15000J0D01*
G01*
X16715000Y-12500000D02*
G75*
G02*
X16685000Y-12500000I-15000J0D01*
G01*
X16685000Y-12500000D02*
G75*
G02*
X16715000Y-12500000I15000J0D01*
G01*
X16715000Y-12700000D02*
G75*
G02*
X16685000Y-12700000I-15000J0D01*
G01*
X16685000Y-12700000D02*
G75*
G02*
X16715000Y-12700000I15000J0D01*
G01*
X16741000Y-11504102D02*
G75*
G02*
X16711000Y-11504102I-15000J0D01*
G01*
X16711000Y-11504102D02*
G75*
G02*
X16741000Y-11504102I15000J0D01*
G01*
X16765000Y-11650000D02*
G75*
G02*
X16735000Y-11650000I-15000J0D01*
G01*
X16735000Y-11650000D02*
G75*
G02*
X16765000Y-11650000I15000J0D01*
G01*
X16765000Y-11750000D02*
G75*
G02*
X16735000Y-11750000I-15000J0D01*
G01*
X16735000Y-11750000D02*
G75*
G02*
X16765000Y-11750000I15000J0D01*
G01*
X16765000Y-12450000D02*
G75*
G02*
X16735000Y-12450000I-15000J0D01*
G01*
X16735000Y-12450000D02*
G75*
G02*
X16765000Y-12450000I15000J0D01*
G01*
X16765000Y-12550000D02*
G75*
G02*
X16735000Y-12550000I-15000J0D01*
G01*
X16735000Y-12550000D02*
G75*
G02*
X16765000Y-12550000I15000J0D01*
G01*
X16815000Y-11700000D02*
G75*
G02*
X16785000Y-11700000I-15000J0D01*
G01*
X16785000Y-11700000D02*
G75*
G02*
X16815000Y-11700000I15000J0D01*
G01*
X16815000Y-12500000D02*
G75*
G02*
X16785000Y-12500000I-15000J0D01*
G01*
X16785000Y-12500000D02*
G75*
G02*
X16815000Y-12500000I15000J0D01*
G01*
X16821000Y-11504102D02*
G75*
G02*
X16791000Y-11504102I-15000J0D01*
G01*
X16791000Y-11504102D02*
G75*
G02*
X16821000Y-11504102I15000J0D01*
G01*
X16835000Y-10380000D02*
G75*
G02*
X16805000Y-10380000I-15000J0D01*
G01*
X16805000Y-10380000D02*
G75*
G02*
X16835000Y-10380000I15000J0D01*
G01*
X16865000Y-11650000D02*
G75*
G02*
X16835000Y-11650000I-15000J0D01*
G01*
X16835000Y-11650000D02*
G75*
G02*
X16865000Y-11650000I15000J0D01*
G01*
X16865000Y-11750000D02*
G75*
G02*
X16835000Y-11750000I-15000J0D01*
G01*
X16835000Y-11750000D02*
G75*
G02*
X16865000Y-11750000I15000J0D01*
G01*
X16865000Y-12450000D02*
G75*
G02*
X16835000Y-12450000I-15000J0D01*
G01*
X16835000Y-12450000D02*
G75*
G02*
X16865000Y-12450000I15000J0D01*
G01*
X16865000Y-12550000D02*
G75*
G02*
X16835000Y-12550000I-15000J0D01*
G01*
X16835000Y-12550000D02*
G75*
G02*
X16865000Y-12550000I15000J0D01*
G01*
X16905000Y-11500000D02*
G75*
G02*
X16875000Y-11500000I-15000J0D01*
G01*
X16875000Y-11500000D02*
G75*
G02*
X16905000Y-11500000I15000J0D01*
G01*
X16915000Y-9900000D02*
G75*
G02*
X16885000Y-9900000I-15000J0D01*
G01*
X16885000Y-9900000D02*
G75*
G02*
X16915000Y-9900000I15000J0D01*
G01*
X16915000Y-11700000D02*
G75*
G02*
X16885000Y-11700000I-15000J0D01*
G01*
X16885000Y-11700000D02*
G75*
G02*
X16915000Y-11700000I15000J0D01*
G01*
X16915000Y-12500000D02*
G75*
G02*
X16885000Y-12500000I-15000J0D01*
G01*
X16885000Y-12500000D02*
G75*
G02*
X16915000Y-12500000I15000J0D01*
G01*
X16915000Y-12700000D02*
G75*
G02*
X16885000Y-12700000I-15000J0D01*
G01*
X16885000Y-12700000D02*
G75*
G02*
X16915000Y-12700000I15000J0D01*
G01*
X16962000Y-11247000D02*
G75*
G02*
X16932000Y-11247000I-15000J0D01*
G01*
X16932000Y-11247000D02*
G75*
G02*
X16962000Y-11247000I15000J0D01*
G01*
X17013000Y-11498000D02*
G75*
G02*
X16983000Y-11498000I-15000J0D01*
G01*
X16983000Y-11498000D02*
G75*
G02*
X17013000Y-11498000I15000J0D01*
G01*
X17087000Y-11225000D02*
G75*
G02*
X17057000Y-11225000I-15000J0D01*
G01*
X17057000Y-11225000D02*
G75*
G02*
X17087000Y-11225000I15000J0D01*
G01*
X17103000Y-11501000D02*
G75*
G02*
X17073000Y-11501000I-15000J0D01*
G01*
X17073000Y-11501000D02*
G75*
G02*
X17103000Y-11501000I15000J0D01*
G01*
X17115000Y-9900000D02*
G75*
G02*
X17085000Y-9900000I-15000J0D01*
G01*
X17085000Y-9900000D02*
G75*
G02*
X17115000Y-9900000I15000J0D01*
G01*
X17115000Y-11700000D02*
G75*
G02*
X17085000Y-11700000I-15000J0D01*
G01*
X17085000Y-11700000D02*
G75*
G02*
X17115000Y-11700000I15000J0D01*
G01*
X17115000Y-12500000D02*
G75*
G02*
X17085000Y-12500000I-15000J0D01*
G01*
X17085000Y-12500000D02*
G75*
G02*
X17115000Y-12500000I15000J0D01*
G01*
X17115000Y-12700000D02*
G75*
G02*
X17085000Y-12700000I-15000J0D01*
G01*
X17085000Y-12700000D02*
G75*
G02*
X17115000Y-12700000I15000J0D01*
G01*
X17153000Y-11434000D02*
G75*
G02*
X17123000Y-11434000I-15000J0D01*
G01*
X17123000Y-11434000D02*
G75*
G02*
X17153000Y-11434000I15000J0D01*
G01*
X17165000Y-11650000D02*
G75*
G02*
X17135000Y-11650000I-15000J0D01*
G01*
X17135000Y-11650000D02*
G75*
G02*
X17165000Y-11650000I15000J0D01*
G01*
X17165000Y-11750000D02*
G75*
G02*
X17135000Y-11750000I-15000J0D01*
G01*
X17135000Y-11750000D02*
G75*
G02*
X17165000Y-11750000I15000J0D01*
G01*
X17165000Y-12450000D02*
G75*
G02*
X17135000Y-12450000I-15000J0D01*
G01*
X17135000Y-12450000D02*
G75*
G02*
X17165000Y-12450000I15000J0D01*
G01*
X17165000Y-12550000D02*
G75*
G02*
X17135000Y-12550000I-15000J0D01*
G01*
X17135000Y-12550000D02*
G75*
G02*
X17165000Y-12550000I15000J0D01*
G01*
X17196000Y-11498000D02*
G75*
G02*
X17166000Y-11498000I-15000J0D01*
G01*
X17166000Y-11498000D02*
G75*
G02*
X17196000Y-11498000I15000J0D01*
G01*
X17215000Y-11700000D02*
G75*
G02*
X17185000Y-11700000I-15000J0D01*
G01*
X17185000Y-11700000D02*
G75*
G02*
X17215000Y-11700000I15000J0D01*
G01*
X17215000Y-12500000D02*
G75*
G02*
X17185000Y-12500000I-15000J0D01*
G01*
X17185000Y-12500000D02*
G75*
G02*
X17215000Y-12500000I15000J0D01*
G01*
X17223500Y-11211500D02*
G75*
G02*
X17193500Y-11211500I-15000J0D01*
G01*
X17193500Y-11211500D02*
G75*
G02*
X17223500Y-11211500I15000J0D01*
G01*
X17265000Y-11650000D02*
G75*
G02*
X17235000Y-11650000I-15000J0D01*
G01*
X17235000Y-11650000D02*
G75*
G02*
X17265000Y-11650000I15000J0D01*
G01*
X17265000Y-11750000D02*
G75*
G02*
X17235000Y-11750000I-15000J0D01*
G01*
X17235000Y-11750000D02*
G75*
G02*
X17265000Y-11750000I15000J0D01*
G01*
X17265000Y-12450000D02*
G75*
G02*
X17235000Y-12450000I-15000J0D01*
G01*
X17235000Y-12450000D02*
G75*
G02*
X17265000Y-12450000I15000J0D01*
G01*
X17265000Y-12550000D02*
G75*
G02*
X17235000Y-12550000I-15000J0D01*
G01*
X17235000Y-12550000D02*
G75*
G02*
X17265000Y-12550000I15000J0D01*
G01*
X17273000Y-11433000D02*
G75*
G02*
X17243000Y-11433000I-15000J0D01*
G01*
X17243000Y-11433000D02*
G75*
G02*
X17273000Y-11433000I15000J0D01*
G01*
X17273000Y-11499000D02*
G75*
G02*
X17243000Y-11499000I-15000J0D01*
G01*
X17243000Y-11499000D02*
G75*
G02*
X17273000Y-11499000I15000J0D01*
G01*
X17315000Y-9900000D02*
G75*
G02*
X17285000Y-9900000I-15000J0D01*
G01*
X17285000Y-9900000D02*
G75*
G02*
X17315000Y-9900000I15000J0D01*
G01*
X17315000Y-11700000D02*
G75*
G02*
X17285000Y-11700000I-15000J0D01*
G01*
X17285000Y-11700000D02*
G75*
G02*
X17315000Y-11700000I15000J0D01*
G01*
X17315000Y-12500000D02*
G75*
G02*
X17285000Y-12500000I-15000J0D01*
G01*
X17285000Y-12500000D02*
G75*
G02*
X17315000Y-12500000I15000J0D01*
G01*
X17315000Y-12700000D02*
G75*
G02*
X17285000Y-12700000I-15000J0D01*
G01*
X17285000Y-12700000D02*
G75*
G02*
X17315000Y-12700000I15000J0D01*
G01*
X17365000Y-11650000D02*
G75*
G02*
X17335000Y-11650000I-15000J0D01*
G01*
X17335000Y-11650000D02*
G75*
G02*
X17365000Y-11650000I15000J0D01*
G01*
X17365000Y-11750000D02*
G75*
G02*
X17335000Y-11750000I-15000J0D01*
G01*
X17335000Y-11750000D02*
G75*
G02*
X17365000Y-11750000I15000J0D01*
G01*
X17365000Y-12450000D02*
G75*
G02*
X17335000Y-12450000I-15000J0D01*
G01*
X17335000Y-12450000D02*
G75*
G02*
X17365000Y-12450000I15000J0D01*
G01*
X17365000Y-12550000D02*
G75*
G02*
X17335000Y-12550000I-15000J0D01*
G01*
X17335000Y-12550000D02*
G75*
G02*
X17365000Y-12550000I15000J0D01*
G01*
X17375000Y-10510000D02*
G75*
G02*
X17345000Y-10510000I-15000J0D01*
G01*
X17345000Y-10510000D02*
G75*
G02*
X17375000Y-10510000I15000J0D01*
G01*
X17398618Y-10863827D02*
G75*
G02*
X17368618Y-10863827I-15000J0D01*
G01*
X17368618Y-10863827D02*
G75*
G02*
X17398618Y-10863827I15000J0D01*
G01*
X17415000Y-11700000D02*
G75*
G02*
X17385000Y-11700000I-15000J0D01*
G01*
X17385000Y-11700000D02*
G75*
G02*
X17415000Y-11700000I15000J0D01*
G01*
X17415000Y-12500000D02*
G75*
G02*
X17385000Y-12500000I-15000J0D01*
G01*
X17385000Y-12500000D02*
G75*
G02*
X17415000Y-12500000I15000J0D01*
G01*
X17443000Y-11494000D02*
G75*
G02*
X17413000Y-11494000I-15000J0D01*
G01*
X17413000Y-11494000D02*
G75*
G02*
X17443000Y-11494000I15000J0D01*
G01*
X17465000Y-11650000D02*
G75*
G02*
X17435000Y-11650000I-15000J0D01*
G01*
X17435000Y-11650000D02*
G75*
G02*
X17465000Y-11650000I15000J0D01*
G01*
X17465000Y-11750000D02*
G75*
G02*
X17435000Y-11750000I-15000J0D01*
G01*
X17435000Y-11750000D02*
G75*
G02*
X17465000Y-11750000I15000J0D01*
G01*
X17465000Y-12450000D02*
G75*
G02*
X17435000Y-12450000I-15000J0D01*
G01*
X17435000Y-12450000D02*
G75*
G02*
X17465000Y-12450000I15000J0D01*
G01*
X17465000Y-12550000D02*
G75*
G02*
X17435000Y-12550000I-15000J0D01*
G01*
X17435000Y-12550000D02*
G75*
G02*
X17465000Y-12550000I15000J0D01*
G01*
X17466000Y-10907000D02*
G75*
G02*
X17436000Y-10907000I-15000J0D01*
G01*
X17436000Y-10907000D02*
G75*
G02*
X17466000Y-10907000I15000J0D01*
G01*
X17467000Y-11005000D02*
G75*
G02*
X17437000Y-11005000I-15000J0D01*
G01*
X17437000Y-11005000D02*
G75*
G02*
X17467000Y-11005000I15000J0D01*
G01*
X17493000Y-11427000D02*
G75*
G02*
X17463000Y-11427000I-15000J0D01*
G01*
X17463000Y-11427000D02*
G75*
G02*
X17493000Y-11427000I15000J0D01*
G01*
X17501000Y-10739000D02*
G75*
G02*
X17471000Y-10739000I-15000J0D01*
G01*
X17471000Y-10739000D02*
G75*
G02*
X17501000Y-10739000I15000J0D01*
G01*
X17505000Y-10510000D02*
G75*
G02*
X17475000Y-10510000I-15000J0D01*
G01*
X17475000Y-10510000D02*
G75*
G02*
X17505000Y-10510000I15000J0D01*
G01*
X17515000Y-9900000D02*
G75*
G02*
X17485000Y-9900000I-15000J0D01*
G01*
X17485000Y-9900000D02*
G75*
G02*
X17515000Y-9900000I15000J0D01*
G01*
X17515000Y-11700000D02*
G75*
G02*
X17485000Y-11700000I-15000J0D01*
G01*
X17485000Y-11700000D02*
G75*
G02*
X17515000Y-11700000I15000J0D01*
G01*
X17515000Y-12500000D02*
G75*
G02*
X17485000Y-12500000I-15000J0D01*
G01*
X17485000Y-12500000D02*
G75*
G02*
X17515000Y-12500000I15000J0D01*
G01*
X17515000Y-12700000D02*
G75*
G02*
X17485000Y-12700000I-15000J0D01*
G01*
X17485000Y-12700000D02*
G75*
G02*
X17515000Y-12700000I15000J0D01*
G01*
X17535000Y-11150000D02*
G75*
G02*
X17505000Y-11150000I-15000J0D01*
G01*
X17505000Y-11150000D02*
G75*
G02*
X17535000Y-11150000I15000J0D01*
G01*
X17544000Y-11494000D02*
G75*
G02*
X17514000Y-11494000I-15000J0D01*
G01*
X17514000Y-11494000D02*
G75*
G02*
X17544000Y-11494000I15000J0D01*
G01*
X17565000Y-10100000D02*
G75*
G02*
X17535000Y-10100000I-15000J0D01*
G01*
X17535000Y-10100000D02*
G75*
G02*
X17565000Y-10100000I15000J0D01*
G01*
X17565000Y-11650000D02*
G75*
G02*
X17535000Y-11650000I-15000J0D01*
G01*
X17535000Y-11650000D02*
G75*
G02*
X17565000Y-11650000I15000J0D01*
G01*
X17565000Y-11750000D02*
G75*
G02*
X17535000Y-11750000I-15000J0D01*
G01*
X17535000Y-11750000D02*
G75*
G02*
X17565000Y-11750000I15000J0D01*
G01*
X17565000Y-12450000D02*
G75*
G02*
X17535000Y-12450000I-15000J0D01*
G01*
X17535000Y-12450000D02*
G75*
G02*
X17565000Y-12450000I15000J0D01*
G01*
X17565000Y-12550000D02*
G75*
G02*
X17535000Y-12550000I-15000J0D01*
G01*
X17535000Y-12550000D02*
G75*
G02*
X17565000Y-12550000I15000J0D01*
G01*
X17592000Y-11425000D02*
G75*
G02*
X17562000Y-11425000I-15000J0D01*
G01*
X17562000Y-11425000D02*
G75*
G02*
X17592000Y-11425000I15000J0D01*
G01*
X17615000Y-11700000D02*
G75*
G02*
X17585000Y-11700000I-15000J0D01*
G01*
X17585000Y-11700000D02*
G75*
G02*
X17615000Y-11700000I15000J0D01*
G01*
X17615000Y-12500000D02*
G75*
G02*
X17585000Y-12500000I-15000J0D01*
G01*
X17585000Y-12500000D02*
G75*
G02*
X17615000Y-12500000I15000J0D01*
G01*
X17630000Y-11496000D02*
G75*
G02*
X17600000Y-11496000I-15000J0D01*
G01*
X17600000Y-11496000D02*
G75*
G02*
X17630000Y-11496000I15000J0D01*
G01*
X17665000Y-11650000D02*
G75*
G02*
X17635000Y-11650000I-15000J0D01*
G01*
X17635000Y-11650000D02*
G75*
G02*
X17665000Y-11650000I15000J0D01*
G01*
X17665000Y-11750000D02*
G75*
G02*
X17635000Y-11750000I-15000J0D01*
G01*
X17635000Y-11750000D02*
G75*
G02*
X17665000Y-11750000I15000J0D01*
G01*
X17665000Y-12450000D02*
G75*
G02*
X17635000Y-12450000I-15000J0D01*
G01*
X17635000Y-12450000D02*
G75*
G02*
X17665000Y-12450000I15000J0D01*
G01*
X17665000Y-12550000D02*
G75*
G02*
X17635000Y-12550000I-15000J0D01*
G01*
X17635000Y-12550000D02*
G75*
G02*
X17665000Y-12550000I15000J0D01*
G01*
X17671000Y-11405000D02*
G75*
G02*
X17641000Y-11405000I-15000J0D01*
G01*
X17641000Y-11405000D02*
G75*
G02*
X17671000Y-11405000I15000J0D01*
G01*
X17715000Y-9900000D02*
G75*
G02*
X17685000Y-9900000I-15000J0D01*
G01*
X17685000Y-9900000D02*
G75*
G02*
X17715000Y-9900000I15000J0D01*
G01*
X17715000Y-11700000D02*
G75*
G02*
X17685000Y-11700000I-15000J0D01*
G01*
X17685000Y-11700000D02*
G75*
G02*
X17715000Y-11700000I15000J0D01*
G01*
X17715000Y-12500000D02*
G75*
G02*
X17685000Y-12500000I-15000J0D01*
G01*
X17685000Y-12500000D02*
G75*
G02*
X17715000Y-12500000I15000J0D01*
G01*
X17715000Y-12700000D02*
G75*
G02*
X17685000Y-12700000I-15000J0D01*
G01*
X17685000Y-12700000D02*
G75*
G02*
X17715000Y-12700000I15000J0D01*
G01*
X17723000Y-10864000D02*
G75*
G02*
X17693000Y-10864000I-15000J0D01*
G01*
X17693000Y-10864000D02*
G75*
G02*
X17723000Y-10864000I15000J0D01*
G01*
X17741000Y-11489000D02*
G75*
G02*
X17711000Y-11489000I-15000J0D01*
G01*
X17711000Y-11489000D02*
G75*
G02*
X17741000Y-11489000I15000J0D01*
G01*
X17765000Y-10150000D02*
G75*
G02*
X17735000Y-10150000I-15000J0D01*
G01*
X17735000Y-10150000D02*
G75*
G02*
X17765000Y-10150000I15000J0D01*
G01*
X17765000Y-12200000D02*
G75*
G02*
X17735000Y-12200000I-15000J0D01*
G01*
X17735000Y-12200000D02*
G75*
G02*
X17765000Y-12200000I15000J0D01*
G01*
X17765000Y-12300000D02*
G75*
G02*
X17735000Y-12300000I-15000J0D01*
G01*
X17735000Y-12300000D02*
G75*
G02*
X17765000Y-12300000I15000J0D01*
G01*
X17765000Y-12400000D02*
G75*
G02*
X17735000Y-12400000I-15000J0D01*
G01*
X17735000Y-12400000D02*
G75*
G02*
X17765000Y-12400000I15000J0D01*
G01*
X17815000Y-11100000D02*
G75*
G02*
X17785000Y-11100000I-15000J0D01*
G01*
X17785000Y-11100000D02*
G75*
G02*
X17815000Y-11100000I15000J0D01*
G01*
X17815000Y-11200000D02*
G75*
G02*
X17785000Y-11200000I-15000J0D01*
G01*
X17785000Y-11200000D02*
G75*
G02*
X17815000Y-11200000I15000J0D01*
G01*
X17865000Y-12200000D02*
G75*
G02*
X17835000Y-12200000I-15000J0D01*
G01*
X17835000Y-12200000D02*
G75*
G02*
X17865000Y-12200000I15000J0D01*
G01*
X17865000Y-12300000D02*
G75*
G02*
X17835000Y-12300000I-15000J0D01*
G01*
X17835000Y-12300000D02*
G75*
G02*
X17865000Y-12300000I15000J0D01*
G01*
X17865000Y-12400000D02*
G75*
G02*
X17835000Y-12400000I-15000J0D01*
G01*
X17835000Y-12400000D02*
G75*
G02*
X17865000Y-12400000I15000J0D01*
G01*
X17915000Y-9900000D02*
G75*
G02*
X17885000Y-9900000I-15000J0D01*
G01*
X17885000Y-9900000D02*
G75*
G02*
X17915000Y-9900000I15000J0D01*
G01*
X17915000Y-10750000D02*
G75*
G02*
X17885000Y-10750000I-15000J0D01*
G01*
X17885000Y-10750000D02*
G75*
G02*
X17915000Y-10750000I15000J0D01*
G01*
X17915000Y-12700000D02*
G75*
G02*
X17885000Y-12700000I-15000J0D01*
G01*
X17885000Y-12700000D02*
G75*
G02*
X17915000Y-12700000I15000J0D01*
G01*
X17965000Y-11050000D02*
G75*
G02*
X17935000Y-11050000I-15000J0D01*
G01*
X17935000Y-11050000D02*
G75*
G02*
X17965000Y-11050000I15000J0D01*
G01*
X17965000Y-11350000D02*
G75*
G02*
X17935000Y-11350000I-15000J0D01*
G01*
X17935000Y-11350000D02*
G75*
G02*
X17965000Y-11350000I15000J0D01*
G01*
X17965000Y-12200000D02*
G75*
G02*
X17935000Y-12200000I-15000J0D01*
G01*
X17935000Y-12200000D02*
G75*
G02*
X17965000Y-12200000I15000J0D01*
G01*
X17965000Y-12300000D02*
G75*
G02*
X17935000Y-12300000I-15000J0D01*
G01*
X17935000Y-12300000D02*
G75*
G02*
X17965000Y-12300000I15000J0D01*
G01*
X17965000Y-12400000D02*
G75*
G02*
X17935000Y-12400000I-15000J0D01*
G01*
X17935000Y-12400000D02*
G75*
G02*
X17965000Y-12400000I15000J0D01*
G01*
X18015000Y-11000000D02*
G75*
G02*
X17985000Y-11000000I-15000J0D01*
G01*
X17985000Y-11000000D02*
G75*
G02*
X18015000Y-11000000I15000J0D01*
G01*
X18015000Y-11100000D02*
G75*
G02*
X17985000Y-11100000I-15000J0D01*
G01*
X17985000Y-11100000D02*
G75*
G02*
X18015000Y-11100000I15000J0D01*
G01*
X18015000Y-11300000D02*
G75*
G02*
X17985000Y-11300000I-15000J0D01*
G01*
X17985000Y-11300000D02*
G75*
G02*
X18015000Y-11300000I15000J0D01*
G01*
X18015000Y-11400000D02*
G75*
G02*
X17985000Y-11400000I-15000J0D01*
G01*
X17985000Y-11400000D02*
G75*
G02*
X18015000Y-11400000I15000J0D01*
G01*
X18015000Y-11500000D02*
G75*
G02*
X17985000Y-11500000I-15000J0D01*
G01*
X17985000Y-11500000D02*
G75*
G02*
X18015000Y-11500000I15000J0D01*
G01*
X18015000Y-11600000D02*
G75*
G02*
X17985000Y-11600000I-15000J0D01*
G01*
X17985000Y-11600000D02*
G75*
G02*
X18015000Y-11600000I15000J0D01*
G01*
X18015000Y-11700000D02*
G75*
G02*
X17985000Y-11700000I-15000J0D01*
G01*
X17985000Y-11700000D02*
G75*
G02*
X18015000Y-11700000I15000J0D01*
G01*
X18015000Y-11800000D02*
G75*
G02*
X17985000Y-11800000I-15000J0D01*
G01*
X17985000Y-11800000D02*
G75*
G02*
X18015000Y-11800000I15000J0D01*
G01*
X18065000Y-10650000D02*
G75*
G02*
X18035000Y-10650000I-15000J0D01*
G01*
X18035000Y-10650000D02*
G75*
G02*
X18065000Y-10650000I15000J0D01*
G01*
X18065000Y-11050000D02*
G75*
G02*
X18035000Y-11050000I-15000J0D01*
G01*
X18035000Y-11050000D02*
G75*
G02*
X18065000Y-11050000I15000J0D01*
G01*
X18065000Y-11350000D02*
G75*
G02*
X18035000Y-11350000I-15000J0D01*
G01*
X18035000Y-11350000D02*
G75*
G02*
X18065000Y-11350000I15000J0D01*
G01*
X18065000Y-11450000D02*
G75*
G02*
X18035000Y-11450000I-15000J0D01*
G01*
X18035000Y-11450000D02*
G75*
G02*
X18065000Y-11450000I15000J0D01*
G01*
X18065000Y-11550000D02*
G75*
G02*
X18035000Y-11550000I-15000J0D01*
G01*
X18035000Y-11550000D02*
G75*
G02*
X18065000Y-11550000I15000J0D01*
G01*
X18065000Y-11650000D02*
G75*
G02*
X18035000Y-11650000I-15000J0D01*
G01*
X18035000Y-11650000D02*
G75*
G02*
X18065000Y-11650000I15000J0D01*
G01*
X18065000Y-11750000D02*
G75*
G02*
X18035000Y-11750000I-15000J0D01*
G01*
X18035000Y-11750000D02*
G75*
G02*
X18065000Y-11750000I15000J0D01*
G01*
X18085000Y-10140000D02*
G75*
G02*
X18055000Y-10140000I-15000J0D01*
G01*
X18055000Y-10140000D02*
G75*
G02*
X18085000Y-10140000I15000J0D01*
G01*
X18115000Y-9900000D02*
G75*
G02*
X18085000Y-9900000I-15000J0D01*
G01*
X18085000Y-9900000D02*
G75*
G02*
X18115000Y-9900000I15000J0D01*
G01*
X18115000Y-10300000D02*
G75*
G02*
X18085000Y-10300000I-15000J0D01*
G01*
X18085000Y-10300000D02*
G75*
G02*
X18115000Y-10300000I15000J0D01*
G01*
X18115000Y-10750000D02*
G75*
G02*
X18085000Y-10750000I-15000J0D01*
G01*
X18085000Y-10750000D02*
G75*
G02*
X18115000Y-10750000I15000J0D01*
G01*
X18115000Y-11000000D02*
G75*
G02*
X18085000Y-11000000I-15000J0D01*
G01*
X18085000Y-11000000D02*
G75*
G02*
X18115000Y-11000000I15000J0D01*
G01*
X18115000Y-11100000D02*
G75*
G02*
X18085000Y-11100000I-15000J0D01*
G01*
X18085000Y-11100000D02*
G75*
G02*
X18115000Y-11100000I15000J0D01*
G01*
X18115000Y-11300000D02*
G75*
G02*
X18085000Y-11300000I-15000J0D01*
G01*
X18085000Y-11300000D02*
G75*
G02*
X18115000Y-11300000I15000J0D01*
G01*
X18115000Y-11400000D02*
G75*
G02*
X18085000Y-11400000I-15000J0D01*
G01*
X18085000Y-11400000D02*
G75*
G02*
X18115000Y-11400000I15000J0D01*
G01*
X18115000Y-11500000D02*
G75*
G02*
X18085000Y-11500000I-15000J0D01*
G01*
X18085000Y-11500000D02*
G75*
G02*
X18115000Y-11500000I15000J0D01*
G01*
X18115000Y-11600000D02*
G75*
G02*
X18085000Y-11600000I-15000J0D01*
G01*
X18085000Y-11600000D02*
G75*
G02*
X18115000Y-11600000I15000J0D01*
G01*
X18115000Y-11700000D02*
G75*
G02*
X18085000Y-11700000I-15000J0D01*
G01*
X18085000Y-11700000D02*
G75*
G02*
X18115000Y-11700000I15000J0D01*
G01*
X18115000Y-11800000D02*
G75*
G02*
X18085000Y-11800000I-15000J0D01*
G01*
X18085000Y-11800000D02*
G75*
G02*
X18115000Y-11800000I15000J0D01*
G01*
X18115000Y-12700000D02*
G75*
G02*
X18085000Y-12700000I-15000J0D01*
G01*
X18085000Y-12700000D02*
G75*
G02*
X18115000Y-12700000I15000J0D01*
G01*
X18165000Y-11050000D02*
G75*
G02*
X18135000Y-11050000I-15000J0D01*
G01*
X18135000Y-11050000D02*
G75*
G02*
X18165000Y-11050000I15000J0D01*
G01*
X18165000Y-11350000D02*
G75*
G02*
X18135000Y-11350000I-15000J0D01*
G01*
X18135000Y-11350000D02*
G75*
G02*
X18165000Y-11350000I15000J0D01*
G01*
X18185000Y-12085000D02*
G75*
G02*
X18155000Y-12085000I-15000J0D01*
G01*
X18155000Y-12085000D02*
G75*
G02*
X18185000Y-12085000I15000J0D01*
G01*
X18215000Y-11000000D02*
G75*
G02*
X18185000Y-11000000I-15000J0D01*
G01*
X18185000Y-11000000D02*
G75*
G02*
X18215000Y-11000000I15000J0D01*
G01*
X18215000Y-11100000D02*
G75*
G02*
X18185000Y-11100000I-15000J0D01*
G01*
X18185000Y-11100000D02*
G75*
G02*
X18215000Y-11100000I15000J0D01*
G01*
X18215000Y-11300000D02*
G75*
G02*
X18185000Y-11300000I-15000J0D01*
G01*
X18185000Y-11300000D02*
G75*
G02*
X18215000Y-11300000I15000J0D01*
G01*
X18265000Y-10750000D02*
G75*
G02*
X18235000Y-10750000I-15000J0D01*
G01*
X18235000Y-10750000D02*
G75*
G02*
X18265000Y-10750000I15000J0D01*
G01*
X18265000Y-11050000D02*
G75*
G02*
X18235000Y-11050000I-15000J0D01*
G01*
X18235000Y-11050000D02*
G75*
G02*
X18265000Y-11050000I15000J0D01*
G01*
X18269000Y-12083000D02*
G75*
G02*
X18239000Y-12083000I-15000J0D01*
G01*
X18239000Y-12083000D02*
G75*
G02*
X18269000Y-12083000I15000J0D01*
G01*
X18315000Y-9900000D02*
G75*
G02*
X18285000Y-9900000I-15000J0D01*
G01*
X18285000Y-9900000D02*
G75*
G02*
X18315000Y-9900000I15000J0D01*
G01*
X18315000Y-11000000D02*
G75*
G02*
X18285000Y-11000000I-15000J0D01*
G01*
X18285000Y-11000000D02*
G75*
G02*
X18315000Y-11000000I15000J0D01*
G01*
X18315000Y-11100000D02*
G75*
G02*
X18285000Y-11100000I-15000J0D01*
G01*
X18285000Y-11100000D02*
G75*
G02*
X18315000Y-11100000I15000J0D01*
G01*
X18315000Y-12700000D02*
G75*
G02*
X18285000Y-12700000I-15000J0D01*
G01*
X18285000Y-12700000D02*
G75*
G02*
X18315000Y-12700000I15000J0D01*
G01*
X18365000Y-11050000D02*
G75*
G02*
X18335000Y-11050000I-15000J0D01*
G01*
X18335000Y-11050000D02*
G75*
G02*
X18365000Y-11050000I15000J0D01*
G01*
X18365000Y-11450000D02*
G75*
G02*
X18335000Y-11450000I-15000J0D01*
G01*
X18335000Y-11450000D02*
G75*
G02*
X18365000Y-11450000I15000J0D01*
G01*
X18365000Y-11550000D02*
G75*
G02*
X18335000Y-11550000I-15000J0D01*
G01*
X18335000Y-11550000D02*
G75*
G02*
X18365000Y-11550000I15000J0D01*
G01*
X18365000Y-11650000D02*
G75*
G02*
X18335000Y-11650000I-15000J0D01*
G01*
X18335000Y-11650000D02*
G75*
G02*
X18365000Y-11650000I15000J0D01*
G01*
X18365000Y-11750000D02*
G75*
G02*
X18335000Y-11750000I-15000J0D01*
G01*
X18335000Y-11750000D02*
G75*
G02*
X18365000Y-11750000I15000J0D01*
G01*
X18365000Y-11850000D02*
G75*
G02*
X18335000Y-11850000I-15000J0D01*
G01*
X18335000Y-11850000D02*
G75*
G02*
X18365000Y-11850000I15000J0D01*
G01*
X18365000Y-11950000D02*
G75*
G02*
X18335000Y-11950000I-15000J0D01*
G01*
X18335000Y-11950000D02*
G75*
G02*
X18365000Y-11950000I15000J0D01*
G01*
X18415000Y-11000000D02*
G75*
G02*
X18385000Y-11000000I-15000J0D01*
G01*
X18385000Y-11000000D02*
G75*
G02*
X18415000Y-11000000I15000J0D01*
G01*
X18415000Y-11100000D02*
G75*
G02*
X18385000Y-11100000I-15000J0D01*
G01*
X18385000Y-11100000D02*
G75*
G02*
X18415000Y-11100000I15000J0D01*
G01*
X18415000Y-11500000D02*
G75*
G02*
X18385000Y-11500000I-15000J0D01*
G01*
X18385000Y-11500000D02*
G75*
G02*
X18415000Y-11500000I15000J0D01*
G01*
X18415000Y-11600000D02*
G75*
G02*
X18385000Y-11600000I-15000J0D01*
G01*
X18385000Y-11600000D02*
G75*
G02*
X18415000Y-11600000I15000J0D01*
G01*
X18415000Y-11700000D02*
G75*
G02*
X18385000Y-11700000I-15000J0D01*
G01*
X18385000Y-11700000D02*
G75*
G02*
X18415000Y-11700000I15000J0D01*
G01*
X18415000Y-11800000D02*
G75*
G02*
X18385000Y-11800000I-15000J0D01*
G01*
X18385000Y-11800000D02*
G75*
G02*
X18415000Y-11800000I15000J0D01*
G01*
X18415000Y-11900000D02*
G75*
G02*
X18385000Y-11900000I-15000J0D01*
G01*
X18385000Y-11900000D02*
G75*
G02*
X18415000Y-11900000I15000J0D01*
G01*
X18465000Y-10750000D02*
G75*
G02*
X18435000Y-10750000I-15000J0D01*
G01*
X18435000Y-10750000D02*
G75*
G02*
X18465000Y-10750000I15000J0D01*
G01*
X18465000Y-11050000D02*
G75*
G02*
X18435000Y-11050000I-15000J0D01*
G01*
X18435000Y-11050000D02*
G75*
G02*
X18465000Y-11050000I15000J0D01*
G01*
X18465000Y-11450000D02*
G75*
G02*
X18435000Y-11450000I-15000J0D01*
G01*
X18435000Y-11450000D02*
G75*
G02*
X18465000Y-11450000I15000J0D01*
G01*
X18465000Y-11550000D02*
G75*
G02*
X18435000Y-11550000I-15000J0D01*
G01*
X18435000Y-11550000D02*
G75*
G02*
X18465000Y-11550000I15000J0D01*
G01*
X18465000Y-11650000D02*
G75*
G02*
X18435000Y-11650000I-15000J0D01*
G01*
X18435000Y-11650000D02*
G75*
G02*
X18465000Y-11650000I15000J0D01*
G01*
X18465000Y-11750000D02*
G75*
G02*
X18435000Y-11750000I-15000J0D01*
G01*
X18435000Y-11750000D02*
G75*
G02*
X18465000Y-11750000I15000J0D01*
G01*
X18465000Y-11850000D02*
G75*
G02*
X18435000Y-11850000I-15000J0D01*
G01*
X18435000Y-11850000D02*
G75*
G02*
X18465000Y-11850000I15000J0D01*
G01*
X18465000Y-11950000D02*
G75*
G02*
X18435000Y-11950000I-15000J0D01*
G01*
X18435000Y-11950000D02*
G75*
G02*
X18465000Y-11950000I15000J0D01*
G01*
X18465000Y-12050000D02*
G75*
G02*
X18435000Y-12050000I-15000J0D01*
G01*
X18435000Y-12050000D02*
G75*
G02*
X18465000Y-12050000I15000J0D01*
G01*
X18465000Y-12150000D02*
G75*
G02*
X18435000Y-12150000I-15000J0D01*
G01*
X18435000Y-12150000D02*
G75*
G02*
X18465000Y-12150000I15000J0D01*
G01*
X18465000Y-12250000D02*
G75*
G02*
X18435000Y-12250000I-15000J0D01*
G01*
X18435000Y-12250000D02*
G75*
G02*
X18465000Y-12250000I15000J0D01*
G01*
X18465000Y-12350000D02*
G75*
G02*
X18435000Y-12350000I-15000J0D01*
G01*
X18435000Y-12350000D02*
G75*
G02*
X18465000Y-12350000I15000J0D01*
G01*
X18465000Y-12450000D02*
G75*
G02*
X18435000Y-12450000I-15000J0D01*
G01*
X18435000Y-12450000D02*
G75*
G02*
X18465000Y-12450000I15000J0D01*
G01*
X18465000Y-12550000D02*
G75*
G02*
X18435000Y-12550000I-15000J0D01*
G01*
X18435000Y-12550000D02*
G75*
G02*
X18465000Y-12550000I15000J0D01*
G01*
X18465000Y-12650000D02*
G75*
G02*
X18435000Y-12650000I-15000J0D01*
G01*
X18435000Y-12650000D02*
G75*
G02*
X18465000Y-12650000I15000J0D01*
G01*
X18515000Y-9900000D02*
G75*
G02*
X18485000Y-9900000I-15000J0D01*
G01*
X18485000Y-9900000D02*
G75*
G02*
X18515000Y-9900000I15000J0D01*
G01*
X18515000Y-11000000D02*
G75*
G02*
X18485000Y-11000000I-15000J0D01*
G01*
X18485000Y-11000000D02*
G75*
G02*
X18515000Y-11000000I15000J0D01*
G01*
X18515000Y-11100000D02*
G75*
G02*
X18485000Y-11100000I-15000J0D01*
G01*
X18485000Y-11100000D02*
G75*
G02*
X18515000Y-11100000I15000J0D01*
G01*
X18515000Y-11300000D02*
G75*
G02*
X18485000Y-11300000I-15000J0D01*
G01*
X18485000Y-11300000D02*
G75*
G02*
X18515000Y-11300000I15000J0D01*
G01*
X18515000Y-12000000D02*
G75*
G02*
X18485000Y-12000000I-15000J0D01*
G01*
X18485000Y-12000000D02*
G75*
G02*
X18515000Y-12000000I15000J0D01*
G01*
X18515000Y-12100000D02*
G75*
G02*
X18485000Y-12100000I-15000J0D01*
G01*
X18485000Y-12100000D02*
G75*
G02*
X18515000Y-12100000I15000J0D01*
G01*
X18515000Y-12200000D02*
G75*
G02*
X18485000Y-12200000I-15000J0D01*
G01*
X18485000Y-12200000D02*
G75*
G02*
X18515000Y-12200000I15000J0D01*
G01*
X18515000Y-12300000D02*
G75*
G02*
X18485000Y-12300000I-15000J0D01*
G01*
X18485000Y-12300000D02*
G75*
G02*
X18515000Y-12300000I15000J0D01*
G01*
X18515000Y-12400000D02*
G75*
G02*
X18485000Y-12400000I-15000J0D01*
G01*
X18485000Y-12400000D02*
G75*
G02*
X18515000Y-12400000I15000J0D01*
G01*
X18515000Y-12500000D02*
G75*
G02*
X18485000Y-12500000I-15000J0D01*
G01*
X18485000Y-12500000D02*
G75*
G02*
X18515000Y-12500000I15000J0D01*
G01*
X18515000Y-12600000D02*
G75*
G02*
X18485000Y-12600000I-15000J0D01*
G01*
X18485000Y-12600000D02*
G75*
G02*
X18515000Y-12600000I15000J0D01*
G01*
X18515000Y-12700000D02*
G75*
G02*
X18485000Y-12700000I-15000J0D01*
G01*
X18485000Y-12700000D02*
G75*
G02*
X18515000Y-12700000I15000J0D01*
G01*
X18565000Y-11050000D02*
G75*
G02*
X18535000Y-11050000I-15000J0D01*
G01*
X18535000Y-11050000D02*
G75*
G02*
X18565000Y-11050000I15000J0D01*
G01*
X18565000Y-12050000D02*
G75*
G02*
X18535000Y-12050000I-15000J0D01*
G01*
X18535000Y-12050000D02*
G75*
G02*
X18565000Y-12050000I15000J0D01*
G01*
X18565000Y-12150000D02*
G75*
G02*
X18535000Y-12150000I-15000J0D01*
G01*
X18535000Y-12150000D02*
G75*
G02*
X18565000Y-12150000I15000J0D01*
G01*
X18565000Y-12250000D02*
G75*
G02*
X18535000Y-12250000I-15000J0D01*
G01*
X18535000Y-12250000D02*
G75*
G02*
X18565000Y-12250000I15000J0D01*
G01*
X18565000Y-12350000D02*
G75*
G02*
X18535000Y-12350000I-15000J0D01*
G01*
X18535000Y-12350000D02*
G75*
G02*
X18565000Y-12350000I15000J0D01*
G01*
X18565000Y-12450000D02*
G75*
G02*
X18535000Y-12450000I-15000J0D01*
G01*
X18535000Y-12450000D02*
G75*
G02*
X18565000Y-12450000I15000J0D01*
G01*
X18565000Y-12550000D02*
G75*
G02*
X18535000Y-12550000I-15000J0D01*
G01*
X18535000Y-12550000D02*
G75*
G02*
X18565000Y-12550000I15000J0D01*
G01*
X18565000Y-12650000D02*
G75*
G02*
X18535000Y-12650000I-15000J0D01*
G01*
X18535000Y-12650000D02*
G75*
G02*
X18565000Y-12650000I15000J0D01*
G01*
X18615000Y-10600000D02*
G75*
G02*
X18585000Y-10600000I-15000J0D01*
G01*
X18585000Y-10600000D02*
G75*
G02*
X18615000Y-10600000I15000J0D01*
G01*
X18615000Y-11000000D02*
G75*
G02*
X18585000Y-11000000I-15000J0D01*
G01*
X18585000Y-11000000D02*
G75*
G02*
X18615000Y-11000000I15000J0D01*
G01*
X18615000Y-11100000D02*
G75*
G02*
X18585000Y-11100000I-15000J0D01*
G01*
X18585000Y-11100000D02*
G75*
G02*
X18615000Y-11100000I15000J0D01*
G01*
X18615000Y-11200000D02*
G75*
G02*
X18585000Y-11200000I-15000J0D01*
G01*
X18585000Y-11200000D02*
G75*
G02*
X18615000Y-11200000I15000J0D01*
G01*
X18665000Y-11050000D02*
G75*
G02*
X18635000Y-11050000I-15000J0D01*
G01*
X18635000Y-11050000D02*
G75*
G02*
X18665000Y-11050000I15000J0D01*
G01*
X18665000Y-11900000D02*
G75*
G02*
X18635000Y-11900000I-15000J0D01*
G01*
X18635000Y-11900000D02*
G75*
G02*
X18665000Y-11900000I15000J0D01*
G01*
X18715000Y-9900000D02*
G75*
G02*
X18685000Y-9900000I-15000J0D01*
G01*
X18685000Y-9900000D02*
G75*
G02*
X18715000Y-9900000I15000J0D01*
G01*
X18715000Y-10750000D02*
G75*
G02*
X18685000Y-10750000I-15000J0D01*
G01*
X18685000Y-10750000D02*
G75*
G02*
X18715000Y-10750000I15000J0D01*
G01*
X18715000Y-11000000D02*
G75*
G02*
X18685000Y-11000000I-15000J0D01*
G01*
X18685000Y-11000000D02*
G75*
G02*
X18715000Y-11000000I15000J0D01*
G01*
X18715000Y-11100000D02*
G75*
G02*
X18685000Y-11100000I-15000J0D01*
G01*
X18685000Y-11100000D02*
G75*
G02*
X18715000Y-11100000I15000J0D01*
G01*
X18715000Y-11300000D02*
G75*
G02*
X18685000Y-11300000I-15000J0D01*
G01*
X18685000Y-11300000D02*
G75*
G02*
X18715000Y-11300000I15000J0D01*
G01*
X18715000Y-11950000D02*
G75*
G02*
X18685000Y-11950000I-15000J0D01*
G01*
X18685000Y-11950000D02*
G75*
G02*
X18715000Y-11950000I15000J0D01*
G01*
X18715000Y-12700000D02*
G75*
G02*
X18685000Y-12700000I-15000J0D01*
G01*
X18685000Y-12700000D02*
G75*
G02*
X18715000Y-12700000I15000J0D01*
G01*
X18765000Y-11050000D02*
G75*
G02*
X18735000Y-11050000I-15000J0D01*
G01*
X18735000Y-11050000D02*
G75*
G02*
X18765000Y-11050000I15000J0D01*
G01*
X18765000Y-11900000D02*
G75*
G02*
X18735000Y-11900000I-15000J0D01*
G01*
X18735000Y-11900000D02*
G75*
G02*
X18765000Y-11900000I15000J0D01*
G01*
X18765000Y-12000000D02*
G75*
G02*
X18735000Y-12000000I-15000J0D01*
G01*
X18735000Y-12000000D02*
G75*
G02*
X18765000Y-12000000I15000J0D01*
G01*
X18765000Y-12100000D02*
G75*
G02*
X18735000Y-12100000I-15000J0D01*
G01*
X18735000Y-12100000D02*
G75*
G02*
X18765000Y-12100000I15000J0D01*
G01*
X18765000Y-12200000D02*
G75*
G02*
X18735000Y-12200000I-15000J0D01*
G01*
X18735000Y-12200000D02*
G75*
G02*
X18765000Y-12200000I15000J0D01*
G01*
X18765000Y-12300000D02*
G75*
G02*
X18735000Y-12300000I-15000J0D01*
G01*
X18735000Y-12300000D02*
G75*
G02*
X18765000Y-12300000I15000J0D01*
G01*
X18765000Y-12400000D02*
G75*
G02*
X18735000Y-12400000I-15000J0D01*
G01*
X18735000Y-12400000D02*
G75*
G02*
X18765000Y-12400000I15000J0D01*
G01*
X18765000Y-12500000D02*
G75*
G02*
X18735000Y-12500000I-15000J0D01*
G01*
X18735000Y-12500000D02*
G75*
G02*
X18765000Y-12500000I15000J0D01*
G01*
X18785000Y-10140000D02*
G75*
G02*
X18755000Y-10140000I-15000J0D01*
G01*
X18755000Y-10140000D02*
G75*
G02*
X18785000Y-10140000I15000J0D01*
G01*
X18815000Y-11000000D02*
G75*
G02*
X18785000Y-11000000I-15000J0D01*
G01*
X18785000Y-11000000D02*
G75*
G02*
X18815000Y-11000000I15000J0D01*
G01*
X18815000Y-11100000D02*
G75*
G02*
X18785000Y-11100000I-15000J0D01*
G01*
X18785000Y-11100000D02*
G75*
G02*
X18815000Y-11100000I15000J0D01*
G01*
X18815000Y-11200000D02*
G75*
G02*
X18785000Y-11200000I-15000J0D01*
G01*
X18785000Y-11200000D02*
G75*
G02*
X18815000Y-11200000I15000J0D01*
G01*
X18815000Y-11400000D02*
G75*
G02*
X18785000Y-11400000I-15000J0D01*
G01*
X18785000Y-11400000D02*
G75*
G02*
X18815000Y-11400000I15000J0D01*
G01*
X18815000Y-11950000D02*
G75*
G02*
X18785000Y-11950000I-15000J0D01*
G01*
X18785000Y-11950000D02*
G75*
G02*
X18815000Y-11950000I15000J0D01*
G01*
X18815000Y-12050000D02*
G75*
G02*
X18785000Y-12050000I-15000J0D01*
G01*
X18785000Y-12050000D02*
G75*
G02*
X18815000Y-12050000I15000J0D01*
G01*
X18815000Y-12150000D02*
G75*
G02*
X18785000Y-12150000I-15000J0D01*
G01*
X18785000Y-12150000D02*
G75*
G02*
X18815000Y-12150000I15000J0D01*
G01*
X18815000Y-12250000D02*
G75*
G02*
X18785000Y-12250000I-15000J0D01*
G01*
X18785000Y-12250000D02*
G75*
G02*
X18815000Y-12250000I15000J0D01*
G01*
X18815000Y-12350000D02*
G75*
G02*
X18785000Y-12350000I-15000J0D01*
G01*
X18785000Y-12350000D02*
G75*
G02*
X18815000Y-12350000I15000J0D01*
G01*
X18815000Y-12450000D02*
G75*
G02*
X18785000Y-12450000I-15000J0D01*
G01*
X18785000Y-12450000D02*
G75*
G02*
X18815000Y-12450000I15000J0D01*
G01*
X18815000Y-12550000D02*
G75*
G02*
X18785000Y-12550000I-15000J0D01*
G01*
X18785000Y-12550000D02*
G75*
G02*
X18815000Y-12550000I15000J0D01*
G01*
X18865000Y-10300000D02*
G75*
G02*
X18835000Y-10300000I-15000J0D01*
G01*
X18835000Y-10300000D02*
G75*
G02*
X18865000Y-10300000I15000J0D01*
G01*
X18865000Y-11050000D02*
G75*
G02*
X18835000Y-11050000I-15000J0D01*
G01*
X18835000Y-11050000D02*
G75*
G02*
X18865000Y-11050000I15000J0D01*
G01*
X18865000Y-12000000D02*
G75*
G02*
X18835000Y-12000000I-15000J0D01*
G01*
X18835000Y-12000000D02*
G75*
G02*
X18865000Y-12000000I15000J0D01*
G01*
X18865000Y-12100000D02*
G75*
G02*
X18835000Y-12100000I-15000J0D01*
G01*
X18835000Y-12100000D02*
G75*
G02*
X18865000Y-12100000I15000J0D01*
G01*
X18865000Y-12200000D02*
G75*
G02*
X18835000Y-12200000I-15000J0D01*
G01*
X18835000Y-12200000D02*
G75*
G02*
X18865000Y-12200000I15000J0D01*
G01*
X18865000Y-12300000D02*
G75*
G02*
X18835000Y-12300000I-15000J0D01*
G01*
X18835000Y-12300000D02*
G75*
G02*
X18865000Y-12300000I15000J0D01*
G01*
X18865000Y-12400000D02*
G75*
G02*
X18835000Y-12400000I-15000J0D01*
G01*
X18835000Y-12400000D02*
G75*
G02*
X18865000Y-12400000I15000J0D01*
G01*
X18865000Y-12500000D02*
G75*
G02*
X18835000Y-12500000I-15000J0D01*
G01*
X18835000Y-12500000D02*
G75*
G02*
X18865000Y-12500000I15000J0D01*
G01*
X18915000Y-9900000D02*
G75*
G02*
X18885000Y-9900000I-15000J0D01*
G01*
X18885000Y-9900000D02*
G75*
G02*
X18915000Y-9900000I15000J0D01*
G01*
X18915000Y-11000000D02*
G75*
G02*
X18885000Y-11000000I-15000J0D01*
G01*
X18885000Y-11000000D02*
G75*
G02*
X18915000Y-11000000I15000J0D01*
G01*
X18915000Y-11100000D02*
G75*
G02*
X18885000Y-11100000I-15000J0D01*
G01*
X18885000Y-11100000D02*
G75*
G02*
X18915000Y-11100000I15000J0D01*
G01*
X18915000Y-11300000D02*
G75*
G02*
X18885000Y-11300000I-15000J0D01*
G01*
X18885000Y-11300000D02*
G75*
G02*
X18915000Y-11300000I15000J0D01*
G01*
X18915000Y-12700000D02*
G75*
G02*
X18885000Y-12700000I-15000J0D01*
G01*
X18885000Y-12700000D02*
G75*
G02*
X18915000Y-12700000I15000J0D01*
G01*
X18965000Y-11050000D02*
G75*
G02*
X18935000Y-11050000I-15000J0D01*
G01*
X18935000Y-11050000D02*
G75*
G02*
X18965000Y-11050000I15000J0D01*
G01*
X18965000Y-11700000D02*
G75*
G02*
X18935000Y-11700000I-15000J0D01*
G01*
X18935000Y-11700000D02*
G75*
G02*
X18965000Y-11700000I15000J0D01*
G01*
X18965000Y-11800000D02*
G75*
G02*
X18935000Y-11800000I-15000J0D01*
G01*
X18935000Y-11800000D02*
G75*
G02*
X18965000Y-11800000I15000J0D01*
G01*
X18965000Y-11900000D02*
G75*
G02*
X18935000Y-11900000I-15000J0D01*
G01*
X18935000Y-11900000D02*
G75*
G02*
X18965000Y-11900000I15000J0D01*
G01*
X18965000Y-12000000D02*
G75*
G02*
X18935000Y-12000000I-15000J0D01*
G01*
X18935000Y-12000000D02*
G75*
G02*
X18965000Y-12000000I15000J0D01*
G01*
X18965000Y-12250000D02*
G75*
G02*
X18935000Y-12250000I-15000J0D01*
G01*
X18935000Y-12250000D02*
G75*
G02*
X18965000Y-12250000I15000J0D01*
G01*
X18965000Y-12350000D02*
G75*
G02*
X18935000Y-12350000I-15000J0D01*
G01*
X18935000Y-12350000D02*
G75*
G02*
X18965000Y-12350000I15000J0D01*
G01*
X18965000Y-12450000D02*
G75*
G02*
X18935000Y-12450000I-15000J0D01*
G01*
X18935000Y-12450000D02*
G75*
G02*
X18965000Y-12450000I15000J0D01*
G01*
X18965000Y-12550000D02*
G75*
G02*
X18935000Y-12550000I-15000J0D01*
G01*
X18935000Y-12550000D02*
G75*
G02*
X18965000Y-12550000I15000J0D01*
G01*
X19015000Y-11000000D02*
G75*
G02*
X18985000Y-11000000I-15000J0D01*
G01*
X18985000Y-11000000D02*
G75*
G02*
X19015000Y-11000000I15000J0D01*
G01*
X19015000Y-11100000D02*
G75*
G02*
X18985000Y-11100000I-15000J0D01*
G01*
X18985000Y-11100000D02*
G75*
G02*
X19015000Y-11100000I15000J0D01*
G01*
X19015000Y-11200000D02*
G75*
G02*
X18985000Y-11200000I-15000J0D01*
G01*
X18985000Y-11200000D02*
G75*
G02*
X19015000Y-11200000I15000J0D01*
G01*
X19015000Y-11400000D02*
G75*
G02*
X18985000Y-11400000I-15000J0D01*
G01*
X18985000Y-11400000D02*
G75*
G02*
X19015000Y-11400000I15000J0D01*
G01*
X19015000Y-11650000D02*
G75*
G02*
X18985000Y-11650000I-15000J0D01*
G01*
X18985000Y-11650000D02*
G75*
G02*
X19015000Y-11650000I15000J0D01*
G01*
X19015000Y-11750000D02*
G75*
G02*
X18985000Y-11750000I-15000J0D01*
G01*
X18985000Y-11750000D02*
G75*
G02*
X19015000Y-11750000I15000J0D01*
G01*
X19015000Y-11850000D02*
G75*
G02*
X18985000Y-11850000I-15000J0D01*
G01*
X18985000Y-11850000D02*
G75*
G02*
X19015000Y-11850000I15000J0D01*
G01*
X19015000Y-11950000D02*
G75*
G02*
X18985000Y-11950000I-15000J0D01*
G01*
X18985000Y-11950000D02*
G75*
G02*
X19015000Y-11950000I15000J0D01*
G01*
X19015000Y-12050000D02*
G75*
G02*
X18985000Y-12050000I-15000J0D01*
G01*
X18985000Y-12050000D02*
G75*
G02*
X19015000Y-12050000I15000J0D01*
G01*
X19015000Y-12200000D02*
G75*
G02*
X18985000Y-12200000I-15000J0D01*
G01*
X18985000Y-12200000D02*
G75*
G02*
X19015000Y-12200000I15000J0D01*
G01*
X19015000Y-12300000D02*
G75*
G02*
X18985000Y-12300000I-15000J0D01*
G01*
X18985000Y-12300000D02*
G75*
G02*
X19015000Y-12300000I15000J0D01*
G01*
X19015000Y-12400000D02*
G75*
G02*
X18985000Y-12400000I-15000J0D01*
G01*
X18985000Y-12400000D02*
G75*
G02*
X19015000Y-12400000I15000J0D01*
G01*
X19015000Y-12500000D02*
G75*
G02*
X18985000Y-12500000I-15000J0D01*
G01*
X18985000Y-12500000D02*
G75*
G02*
X19015000Y-12500000I15000J0D01*
G01*
X19015000Y-12600000D02*
G75*
G02*
X18985000Y-12600000I-15000J0D01*
G01*
X18985000Y-12600000D02*
G75*
G02*
X19015000Y-12600000I15000J0D01*
G01*
X19065000Y-11050000D02*
G75*
G02*
X19035000Y-11050000I-15000J0D01*
G01*
X19035000Y-11050000D02*
G75*
G02*
X19065000Y-11050000I15000J0D01*
G01*
X19065000Y-11900000D02*
G75*
G02*
X19035000Y-11900000I-15000J0D01*
G01*
X19035000Y-11900000D02*
G75*
G02*
X19065000Y-11900000I15000J0D01*
G01*
X19065000Y-12000000D02*
G75*
G02*
X19035000Y-12000000I-15000J0D01*
G01*
X19035000Y-12000000D02*
G75*
G02*
X19065000Y-12000000I15000J0D01*
G01*
X19065000Y-12250000D02*
G75*
G02*
X19035000Y-12250000I-15000J0D01*
G01*
X19035000Y-12250000D02*
G75*
G02*
X19065000Y-12250000I15000J0D01*
G01*
X19065000Y-12350000D02*
G75*
G02*
X19035000Y-12350000I-15000J0D01*
G01*
X19035000Y-12350000D02*
G75*
G02*
X19065000Y-12350000I15000J0D01*
G01*
X19065000Y-12450000D02*
G75*
G02*
X19035000Y-12450000I-15000J0D01*
G01*
X19035000Y-12450000D02*
G75*
G02*
X19065000Y-12450000I15000J0D01*
G01*
X19065000Y-12550000D02*
G75*
G02*
X19035000Y-12550000I-15000J0D01*
G01*
X19035000Y-12550000D02*
G75*
G02*
X19065000Y-12550000I15000J0D01*
G01*
X19115000Y-9900000D02*
G75*
G02*
X19085000Y-9900000I-15000J0D01*
G01*
X19085000Y-9900000D02*
G75*
G02*
X19115000Y-9900000I15000J0D01*
G01*
X19115000Y-11000000D02*
G75*
G02*
X19085000Y-11000000I-15000J0D01*
G01*
X19085000Y-11000000D02*
G75*
G02*
X19115000Y-11000000I15000J0D01*
G01*
X19115000Y-11100000D02*
G75*
G02*
X19085000Y-11100000I-15000J0D01*
G01*
X19085000Y-11100000D02*
G75*
G02*
X19115000Y-11100000I15000J0D01*
G01*
X19115000Y-11300000D02*
G75*
G02*
X19085000Y-11300000I-15000J0D01*
G01*
X19085000Y-11300000D02*
G75*
G02*
X19115000Y-11300000I15000J0D01*
G01*
X19115000Y-11500000D02*
G75*
G02*
X19085000Y-11500000I-15000J0D01*
G01*
X19085000Y-11500000D02*
G75*
G02*
X19115000Y-11500000I15000J0D01*
G01*
X19115000Y-11650000D02*
G75*
G02*
X19085000Y-11650000I-15000J0D01*
G01*
X19085000Y-11650000D02*
G75*
G02*
X19115000Y-11650000I15000J0D01*
G01*
X19115000Y-11800000D02*
G75*
G02*
X19085000Y-11800000I-15000J0D01*
G01*
X19085000Y-11800000D02*
G75*
G02*
X19115000Y-11800000I15000J0D01*
G01*
X19115000Y-11950000D02*
G75*
G02*
X19085000Y-11950000I-15000J0D01*
G01*
X19085000Y-11950000D02*
G75*
G02*
X19115000Y-11950000I15000J0D01*
G01*
X19115000Y-12050000D02*
G75*
G02*
X19085000Y-12050000I-15000J0D01*
G01*
X19085000Y-12050000D02*
G75*
G02*
X19115000Y-12050000I15000J0D01*
G01*
X19115000Y-12300000D02*
G75*
G02*
X19085000Y-12300000I-15000J0D01*
G01*
X19085000Y-12300000D02*
G75*
G02*
X19115000Y-12300000I15000J0D01*
G01*
X19115000Y-12500000D02*
G75*
G02*
X19085000Y-12500000I-15000J0D01*
G01*
X19085000Y-12500000D02*
G75*
G02*
X19115000Y-12500000I15000J0D01*
G01*
X19115000Y-12700000D02*
G75*
G02*
X19085000Y-12700000I-15000J0D01*
G01*
X19085000Y-12700000D02*
G75*
G02*
X19115000Y-12700000I15000J0D01*
G01*
X19165000Y-10750000D02*
G75*
G02*
X19135000Y-10750000I-15000J0D01*
G01*
X19135000Y-10750000D02*
G75*
G02*
X19165000Y-10750000I15000J0D01*
G01*
X19165000Y-11050000D02*
G75*
G02*
X19135000Y-11050000I-15000J0D01*
G01*
X19135000Y-11050000D02*
G75*
G02*
X19165000Y-11050000I15000J0D01*
G01*
X19165000Y-11900000D02*
G75*
G02*
X19135000Y-11900000I-15000J0D01*
G01*
X19135000Y-11900000D02*
G75*
G02*
X19165000Y-11900000I15000J0D01*
G01*
X19165000Y-12000000D02*
G75*
G02*
X19135000Y-12000000I-15000J0D01*
G01*
X19135000Y-12000000D02*
G75*
G02*
X19165000Y-12000000I15000J0D01*
G01*
X19215000Y-10600000D02*
G75*
G02*
X19185000Y-10600000I-15000J0D01*
G01*
X19185000Y-10600000D02*
G75*
G02*
X19215000Y-10600000I15000J0D01*
G01*
X19215000Y-11000000D02*
G75*
G02*
X19185000Y-11000000I-15000J0D01*
G01*
X19185000Y-11000000D02*
G75*
G02*
X19215000Y-11000000I15000J0D01*
G01*
X19215000Y-11100000D02*
G75*
G02*
X19185000Y-11100000I-15000J0D01*
G01*
X19185000Y-11100000D02*
G75*
G02*
X19215000Y-11100000I15000J0D01*
G01*
X19215000Y-11200000D02*
G75*
G02*
X19185000Y-11200000I-15000J0D01*
G01*
X19185000Y-11200000D02*
G75*
G02*
X19215000Y-11200000I15000J0D01*
G01*
X19215000Y-11400000D02*
G75*
G02*
X19185000Y-11400000I-15000J0D01*
G01*
X19185000Y-11400000D02*
G75*
G02*
X19215000Y-11400000I15000J0D01*
G01*
X19215000Y-11550000D02*
G75*
G02*
X19185000Y-11550000I-15000J0D01*
G01*
X19185000Y-11550000D02*
G75*
G02*
X19215000Y-11550000I15000J0D01*
G01*
X19215000Y-11750000D02*
G75*
G02*
X19185000Y-11750000I-15000J0D01*
G01*
X19185000Y-11750000D02*
G75*
G02*
X19215000Y-11750000I15000J0D01*
G01*
X19215000Y-11950000D02*
G75*
G02*
X19185000Y-11950000I-15000J0D01*
G01*
X19185000Y-11950000D02*
G75*
G02*
X19215000Y-11950000I15000J0D01*
G01*
X19215000Y-12050000D02*
G75*
G02*
X19185000Y-12050000I-15000J0D01*
G01*
X19185000Y-12050000D02*
G75*
G02*
X19215000Y-12050000I15000J0D01*
G01*
X19215000Y-12200000D02*
G75*
G02*
X19185000Y-12200000I-15000J0D01*
G01*
X19185000Y-12200000D02*
G75*
G02*
X19215000Y-12200000I15000J0D01*
G01*
X19215000Y-12400000D02*
G75*
G02*
X19185000Y-12400000I-15000J0D01*
G01*
X19185000Y-12400000D02*
G75*
G02*
X19215000Y-12400000I15000J0D01*
G01*
X19215000Y-12600000D02*
G75*
G02*
X19185000Y-12600000I-15000J0D01*
G01*
X19185000Y-12600000D02*
G75*
G02*
X19215000Y-12600000I15000J0D01*
G01*
X19265000Y-11050000D02*
G75*
G02*
X19235000Y-11050000I-15000J0D01*
G01*
X19235000Y-11050000D02*
G75*
G02*
X19265000Y-11050000I15000J0D01*
G01*
X19265000Y-11900000D02*
G75*
G02*
X19235000Y-11900000I-15000J0D01*
G01*
X19235000Y-11900000D02*
G75*
G02*
X19265000Y-11900000I15000J0D01*
G01*
X19265000Y-12000000D02*
G75*
G02*
X19235000Y-12000000I-15000J0D01*
G01*
X19235000Y-12000000D02*
G75*
G02*
X19265000Y-12000000I15000J0D01*
G01*
X19315000Y-9900000D02*
G75*
G02*
X19285000Y-9900000I-15000J0D01*
G01*
X19285000Y-9900000D02*
G75*
G02*
X19315000Y-9900000I15000J0D01*
G01*
X19315000Y-10100000D02*
G75*
G02*
X19285000Y-10100000I-15000J0D01*
G01*
X19285000Y-10100000D02*
G75*
G02*
X19315000Y-10100000I15000J0D01*
G01*
X19315000Y-10600000D02*
G75*
G02*
X19285000Y-10600000I-15000J0D01*
G01*
X19285000Y-10600000D02*
G75*
G02*
X19315000Y-10600000I15000J0D01*
G01*
X19315000Y-10750000D02*
G75*
G02*
X19285000Y-10750000I-15000J0D01*
G01*
X19285000Y-10750000D02*
G75*
G02*
X19315000Y-10750000I15000J0D01*
G01*
X19315000Y-11000000D02*
G75*
G02*
X19285000Y-11000000I-15000J0D01*
G01*
X19285000Y-11000000D02*
G75*
G02*
X19315000Y-11000000I15000J0D01*
G01*
X19315000Y-11100000D02*
G75*
G02*
X19285000Y-11100000I-15000J0D01*
G01*
X19285000Y-11100000D02*
G75*
G02*
X19315000Y-11100000I15000J0D01*
G01*
X19315000Y-11300000D02*
G75*
G02*
X19285000Y-11300000I-15000J0D01*
G01*
X19285000Y-11300000D02*
G75*
G02*
X19315000Y-11300000I15000J0D01*
G01*
X19315000Y-11500000D02*
G75*
G02*
X19285000Y-11500000I-15000J0D01*
G01*
X19285000Y-11500000D02*
G75*
G02*
X19315000Y-11500000I15000J0D01*
G01*
X19315000Y-11650000D02*
G75*
G02*
X19285000Y-11650000I-15000J0D01*
G01*
X19285000Y-11650000D02*
G75*
G02*
X19315000Y-11650000I15000J0D01*
G01*
X19315000Y-11800000D02*
G75*
G02*
X19285000Y-11800000I-15000J0D01*
G01*
X19285000Y-11800000D02*
G75*
G02*
X19315000Y-11800000I15000J0D01*
G01*
X19315000Y-11950000D02*
G75*
G02*
X19285000Y-11950000I-15000J0D01*
G01*
X19285000Y-11950000D02*
G75*
G02*
X19315000Y-11950000I15000J0D01*
G01*
X19315000Y-12050000D02*
G75*
G02*
X19285000Y-12050000I-15000J0D01*
G01*
X19285000Y-12050000D02*
G75*
G02*
X19315000Y-12050000I15000J0D01*
G01*
X19315000Y-12300000D02*
G75*
G02*
X19285000Y-12300000I-15000J0D01*
G01*
X19285000Y-12300000D02*
G75*
G02*
X19315000Y-12300000I15000J0D01*
G01*
X19315000Y-12500000D02*
G75*
G02*
X19285000Y-12500000I-15000J0D01*
G01*
X19285000Y-12500000D02*
G75*
G02*
X19315000Y-12500000I15000J0D01*
G01*
X19315000Y-12700000D02*
G75*
G02*
X19285000Y-12700000I-15000J0D01*
G01*
X19285000Y-12700000D02*
G75*
G02*
X19315000Y-12700000I15000J0D01*
G01*
X19365000Y-11050000D02*
G75*
G02*
X19335000Y-11050000I-15000J0D01*
G01*
X19335000Y-11050000D02*
G75*
G02*
X19365000Y-11050000I15000J0D01*
G01*
X19365000Y-11900000D02*
G75*
G02*
X19335000Y-11900000I-15000J0D01*
G01*
X19335000Y-11900000D02*
G75*
G02*
X19365000Y-11900000I15000J0D01*
G01*
X19365000Y-12000000D02*
G75*
G02*
X19335000Y-12000000I-15000J0D01*
G01*
X19335000Y-12000000D02*
G75*
G02*
X19365000Y-12000000I15000J0D01*
G01*
X19365000Y-12250000D02*
G75*
G02*
X19335000Y-12250000I-15000J0D01*
G01*
X19335000Y-12250000D02*
G75*
G02*
X19365000Y-12250000I15000J0D01*
G01*
X19365000Y-12350000D02*
G75*
G02*
X19335000Y-12350000I-15000J0D01*
G01*
X19335000Y-12350000D02*
G75*
G02*
X19365000Y-12350000I15000J0D01*
G01*
X19365000Y-12450000D02*
G75*
G02*
X19335000Y-12450000I-15000J0D01*
G01*
X19335000Y-12450000D02*
G75*
G02*
X19365000Y-12450000I15000J0D01*
G01*
X19365000Y-12550000D02*
G75*
G02*
X19335000Y-12550000I-15000J0D01*
G01*
X19335000Y-12550000D02*
G75*
G02*
X19365000Y-12550000I15000J0D01*
G01*
X19415000Y-11000000D02*
G75*
G02*
X19385000Y-11000000I-15000J0D01*
G01*
X19385000Y-11000000D02*
G75*
G02*
X19415000Y-11000000I15000J0D01*
G01*
X19415000Y-11100000D02*
G75*
G02*
X19385000Y-11100000I-15000J0D01*
G01*
X19385000Y-11100000D02*
G75*
G02*
X19415000Y-11100000I15000J0D01*
G01*
X19415000Y-11200000D02*
G75*
G02*
X19385000Y-11200000I-15000J0D01*
G01*
X19385000Y-11200000D02*
G75*
G02*
X19415000Y-11200000I15000J0D01*
G01*
X19415000Y-11400000D02*
G75*
G02*
X19385000Y-11400000I-15000J0D01*
G01*
X19385000Y-11400000D02*
G75*
G02*
X19415000Y-11400000I15000J0D01*
G01*
X19415000Y-11650000D02*
G75*
G02*
X19385000Y-11650000I-15000J0D01*
G01*
X19385000Y-11650000D02*
G75*
G02*
X19415000Y-11650000I15000J0D01*
G01*
X19415000Y-11750000D02*
G75*
G02*
X19385000Y-11750000I-15000J0D01*
G01*
X19385000Y-11750000D02*
G75*
G02*
X19415000Y-11750000I15000J0D01*
G01*
X19415000Y-11850000D02*
G75*
G02*
X19385000Y-11850000I-15000J0D01*
G01*
X19385000Y-11850000D02*
G75*
G02*
X19415000Y-11850000I15000J0D01*
G01*
X19415000Y-11950000D02*
G75*
G02*
X19385000Y-11950000I-15000J0D01*
G01*
X19385000Y-11950000D02*
G75*
G02*
X19415000Y-11950000I15000J0D01*
G01*
X19415000Y-12050000D02*
G75*
G02*
X19385000Y-12050000I-15000J0D01*
G01*
X19385000Y-12050000D02*
G75*
G02*
X19415000Y-12050000I15000J0D01*
G01*
X19415000Y-12200000D02*
G75*
G02*
X19385000Y-12200000I-15000J0D01*
G01*
X19385000Y-12200000D02*
G75*
G02*
X19415000Y-12200000I15000J0D01*
G01*
X19415000Y-12300000D02*
G75*
G02*
X19385000Y-12300000I-15000J0D01*
G01*
X19385000Y-12300000D02*
G75*
G02*
X19415000Y-12300000I15000J0D01*
G01*
X19415000Y-12400000D02*
G75*
G02*
X19385000Y-12400000I-15000J0D01*
G01*
X19385000Y-12400000D02*
G75*
G02*
X19415000Y-12400000I15000J0D01*
G01*
X19415000Y-12500000D02*
G75*
G02*
X19385000Y-12500000I-15000J0D01*
G01*
X19385000Y-12500000D02*
G75*
G02*
X19415000Y-12500000I15000J0D01*
G01*
X19415000Y-12600000D02*
G75*
G02*
X19385000Y-12600000I-15000J0D01*
G01*
X19385000Y-12600000D02*
G75*
G02*
X19415000Y-12600000I15000J0D01*
G01*
X19465000Y-11050000D02*
G75*
G02*
X19435000Y-11050000I-15000J0D01*
G01*
X19435000Y-11050000D02*
G75*
G02*
X19465000Y-11050000I15000J0D01*
G01*
X19465000Y-11700000D02*
G75*
G02*
X19435000Y-11700000I-15000J0D01*
G01*
X19435000Y-11700000D02*
G75*
G02*
X19465000Y-11700000I15000J0D01*
G01*
X19465000Y-11800000D02*
G75*
G02*
X19435000Y-11800000I-15000J0D01*
G01*
X19435000Y-11800000D02*
G75*
G02*
X19465000Y-11800000I15000J0D01*
G01*
X19465000Y-11900000D02*
G75*
G02*
X19435000Y-11900000I-15000J0D01*
G01*
X19435000Y-11900000D02*
G75*
G02*
X19465000Y-11900000I15000J0D01*
G01*
X19465000Y-12000000D02*
G75*
G02*
X19435000Y-12000000I-15000J0D01*
G01*
X19435000Y-12000000D02*
G75*
G02*
X19465000Y-12000000I15000J0D01*
G01*
X19465000Y-12250000D02*
G75*
G02*
X19435000Y-12250000I-15000J0D01*
G01*
X19435000Y-12250000D02*
G75*
G02*
X19465000Y-12250000I15000J0D01*
G01*
X19465000Y-12350000D02*
G75*
G02*
X19435000Y-12350000I-15000J0D01*
G01*
X19435000Y-12350000D02*
G75*
G02*
X19465000Y-12350000I15000J0D01*
G01*
X19465000Y-12450000D02*
G75*
G02*
X19435000Y-12450000I-15000J0D01*
G01*
X19435000Y-12450000D02*
G75*
G02*
X19465000Y-12450000I15000J0D01*
G01*
X19465000Y-12550000D02*
G75*
G02*
X19435000Y-12550000I-15000J0D01*
G01*
X19435000Y-12550000D02*
G75*
G02*
X19465000Y-12550000I15000J0D01*
G01*
X19485000Y-10750000D02*
G75*
G02*
X19455000Y-10750000I-15000J0D01*
G01*
X19455000Y-10750000D02*
G75*
G02*
X19485000Y-10750000I15000J0D01*
G01*
X19515000Y-9900000D02*
G75*
G02*
X19485000Y-9900000I-15000J0D01*
G01*
X19485000Y-9900000D02*
G75*
G02*
X19515000Y-9900000I15000J0D01*
G01*
X19515000Y-10100000D02*
G75*
G02*
X19485000Y-10100000I-15000J0D01*
G01*
X19485000Y-10100000D02*
G75*
G02*
X19515000Y-10100000I15000J0D01*
G01*
X19515000Y-11000000D02*
G75*
G02*
X19485000Y-11000000I-15000J0D01*
G01*
X19485000Y-11000000D02*
G75*
G02*
X19515000Y-11000000I15000J0D01*
G01*
X19515000Y-11100000D02*
G75*
G02*
X19485000Y-11100000I-15000J0D01*
G01*
X19485000Y-11100000D02*
G75*
G02*
X19515000Y-11100000I15000J0D01*
G01*
X19515000Y-11300000D02*
G75*
G02*
X19485000Y-11300000I-15000J0D01*
G01*
X19485000Y-11300000D02*
G75*
G02*
X19515000Y-11300000I15000J0D01*
G01*
X19515000Y-12200000D02*
G75*
G02*
X19485000Y-12200000I-15000J0D01*
G01*
X19485000Y-12200000D02*
G75*
G02*
X19515000Y-12200000I15000J0D01*
G01*
X19515000Y-12700000D02*
G75*
G02*
X19485000Y-12700000I-15000J0D01*
G01*
X19485000Y-12700000D02*
G75*
G02*
X19515000Y-12700000I15000J0D01*
G01*
X19565000Y-11050000D02*
G75*
G02*
X19535000Y-11050000I-15000J0D01*
G01*
X19535000Y-11050000D02*
G75*
G02*
X19565000Y-11050000I15000J0D01*
G01*
X19615000Y-11750000D02*
G75*
G02*
X19585000Y-11750000I-15000J0D01*
G01*
X19585000Y-11750000D02*
G75*
G02*
X19615000Y-11750000I15000J0D01*
G01*
X19615000Y-11850000D02*
G75*
G02*
X19585000Y-11850000I-15000J0D01*
G01*
X19585000Y-11850000D02*
G75*
G02*
X19615000Y-11850000I15000J0D01*
G01*
X19615000Y-11950000D02*
G75*
G02*
X19585000Y-11950000I-15000J0D01*
G01*
X19585000Y-11950000D02*
G75*
G02*
X19615000Y-11950000I15000J0D01*
G01*
X19615000Y-12050000D02*
G75*
G02*
X19585000Y-12050000I-15000J0D01*
G01*
X19585000Y-12050000D02*
G75*
G02*
X19615000Y-12050000I15000J0D01*
G01*
X19655000Y-10575000D02*
G75*
G02*
X19625000Y-10575000I-15000J0D01*
G01*
X19625000Y-10575000D02*
G75*
G02*
X19655000Y-10575000I15000J0D01*
G01*
X19665000Y-11800000D02*
G75*
G02*
X19635000Y-11800000I-15000J0D01*
G01*
X19635000Y-11800000D02*
G75*
G02*
X19665000Y-11800000I15000J0D01*
G01*
X19665000Y-11900000D02*
G75*
G02*
X19635000Y-11900000I-15000J0D01*
G01*
X19635000Y-11900000D02*
G75*
G02*
X19665000Y-11900000I15000J0D01*
G01*
X19665000Y-12000000D02*
G75*
G02*
X19635000Y-12000000I-15000J0D01*
G01*
X19635000Y-12000000D02*
G75*
G02*
X19665000Y-12000000I15000J0D01*
G01*
X19715000Y-9900000D02*
G75*
G02*
X19685000Y-9900000I-15000J0D01*
G01*
X19685000Y-9900000D02*
G75*
G02*
X19715000Y-9900000I15000J0D01*
G01*
X19715000Y-10100000D02*
G75*
G02*
X19685000Y-10100000I-15000J0D01*
G01*
X19685000Y-10100000D02*
G75*
G02*
X19715000Y-10100000I15000J0D01*
G01*
X19715000Y-10850000D02*
G75*
G02*
X19685000Y-10850000I-15000J0D01*
G01*
X19685000Y-10850000D02*
G75*
G02*
X19715000Y-10850000I15000J0D01*
G01*
X19715000Y-12200000D02*
G75*
G02*
X19685000Y-12200000I-15000J0D01*
G01*
X19685000Y-12200000D02*
G75*
G02*
X19715000Y-12200000I15000J0D01*
G01*
X19715000Y-12700000D02*
G75*
G02*
X19685000Y-12700000I-15000J0D01*
G01*
X19685000Y-12700000D02*
G75*
G02*
X19715000Y-12700000I15000J0D01*
G01*
X19745000Y-11350000D02*
G75*
G02*
X19715000Y-11350000I-15000J0D01*
G01*
X19715000Y-11350000D02*
G75*
G02*
X19745000Y-11350000I15000J0D01*
G01*
X19745000Y-11460000D02*
G75*
G02*
X19715000Y-11460000I-15000J0D01*
G01*
X19715000Y-11460000D02*
G75*
G02*
X19745000Y-11460000I15000J0D01*
G01*
X19745000Y-11560000D02*
G75*
G02*
X19715000Y-11560000I-15000J0D01*
G01*
X19715000Y-11560000D02*
G75*
G02*
X19745000Y-11560000I15000J0D01*
G01*
X19745000Y-11960000D02*
G75*
G02*
X19715000Y-11960000I-15000J0D01*
G01*
X19715000Y-11960000D02*
G75*
G02*
X19745000Y-11960000I15000J0D01*
G01*
X19745000Y-12060000D02*
G75*
G02*
X19715000Y-12060000I-15000J0D01*
G01*
X19715000Y-12060000D02*
G75*
G02*
X19745000Y-12060000I15000J0D01*
G01*
X19765000Y-11000000D02*
G75*
G02*
X19735000Y-11000000I-15000J0D01*
G01*
X19735000Y-11000000D02*
G75*
G02*
X19765000Y-11000000I15000J0D01*
G01*
X19795000Y-11410000D02*
G75*
G02*
X19765000Y-11410000I-15000J0D01*
G01*
X19765000Y-11410000D02*
G75*
G02*
X19795000Y-11410000I15000J0D01*
G01*
X19795000Y-11510000D02*
G75*
G02*
X19765000Y-11510000I-15000J0D01*
G01*
X19765000Y-11510000D02*
G75*
G02*
X19795000Y-11510000I15000J0D01*
G01*
X19795000Y-11610000D02*
G75*
G02*
X19765000Y-11610000I-15000J0D01*
G01*
X19765000Y-11610000D02*
G75*
G02*
X19795000Y-11610000I15000J0D01*
G01*
X19795000Y-11910000D02*
G75*
G02*
X19765000Y-11910000I-15000J0D01*
G01*
X19765000Y-11910000D02*
G75*
G02*
X19795000Y-11910000I15000J0D01*
G01*
X19795000Y-12010000D02*
G75*
G02*
X19765000Y-12010000I-15000J0D01*
G01*
X19765000Y-12010000D02*
G75*
G02*
X19795000Y-12010000I15000J0D01*
G01*
X19845000Y-11350000D02*
G75*
G02*
X19815000Y-11350000I-15000J0D01*
G01*
X19815000Y-11350000D02*
G75*
G02*
X19845000Y-11350000I15000J0D01*
G01*
X19845000Y-11460000D02*
G75*
G02*
X19815000Y-11460000I-15000J0D01*
G01*
X19815000Y-11460000D02*
G75*
G02*
X19845000Y-11460000I15000J0D01*
G01*
X19845000Y-11560000D02*
G75*
G02*
X19815000Y-11560000I-15000J0D01*
G01*
X19815000Y-11560000D02*
G75*
G02*
X19845000Y-11560000I15000J0D01*
G01*
X19845000Y-11960000D02*
G75*
G02*
X19815000Y-11960000I-15000J0D01*
G01*
X19815000Y-11960000D02*
G75*
G02*
X19845000Y-11960000I15000J0D01*
G01*
X19845000Y-12060000D02*
G75*
G02*
X19815000Y-12060000I-15000J0D01*
G01*
X19815000Y-12060000D02*
G75*
G02*
X19845000Y-12060000I15000J0D01*
G01*
X19860000Y-10970000D02*
G75*
G02*
X19830000Y-10970000I-15000J0D01*
G01*
X19830000Y-10970000D02*
G75*
G02*
X19860000Y-10970000I15000J0D01*
G01*
X19895000Y-11410000D02*
G75*
G02*
X19865000Y-11410000I-15000J0D01*
G01*
X19865000Y-11410000D02*
G75*
G02*
X19895000Y-11410000I15000J0D01*
G01*
X19895000Y-11510000D02*
G75*
G02*
X19865000Y-11510000I-15000J0D01*
G01*
X19865000Y-11510000D02*
G75*
G02*
X19895000Y-11510000I15000J0D01*
G01*
X19895000Y-11690000D02*
G75*
G02*
X19865000Y-11690000I-15000J0D01*
G01*
X19865000Y-11690000D02*
G75*
G02*
X19895000Y-11690000I15000J0D01*
G01*
X19895000Y-11790000D02*
G75*
G02*
X19865000Y-11790000I-15000J0D01*
G01*
X19865000Y-11790000D02*
G75*
G02*
X19895000Y-11790000I15000J0D01*
G01*
X19895000Y-11910000D02*
G75*
G02*
X19865000Y-11910000I-15000J0D01*
G01*
X19865000Y-11910000D02*
G75*
G02*
X19895000Y-11910000I15000J0D01*
G01*
X19895000Y-12010000D02*
G75*
G02*
X19865000Y-12010000I-15000J0D01*
G01*
X19865000Y-12010000D02*
G75*
G02*
X19895000Y-12010000I15000J0D01*
G01*
X19915000Y-9900000D02*
G75*
G02*
X19885000Y-9900000I-15000J0D01*
G01*
X19885000Y-9900000D02*
G75*
G02*
X19915000Y-9900000I15000J0D01*
G01*
X19915000Y-12200000D02*
G75*
G02*
X19885000Y-12200000I-15000J0D01*
G01*
X19885000Y-12200000D02*
G75*
G02*
X19915000Y-12200000I15000J0D01*
G01*
X19915000Y-12700000D02*
G75*
G02*
X19885000Y-12700000I-15000J0D01*
G01*
X19885000Y-12700000D02*
G75*
G02*
X19915000Y-12700000I15000J0D01*
G01*
X19940000Y-10970000D02*
G75*
G02*
X19910000Y-10970000I-15000J0D01*
G01*
X19910000Y-10970000D02*
G75*
G02*
X19940000Y-10970000I15000J0D01*
G01*
X19945000Y-11350000D02*
G75*
G02*
X19915000Y-11350000I-15000J0D01*
G01*
X19915000Y-11350000D02*
G75*
G02*
X19945000Y-11350000I15000J0D01*
G01*
X19945000Y-11460000D02*
G75*
G02*
X19915000Y-11460000I-15000J0D01*
G01*
X19915000Y-11460000D02*
G75*
G02*
X19945000Y-11460000I15000J0D01*
G01*
X19945000Y-11560000D02*
G75*
G02*
X19915000Y-11560000I-15000J0D01*
G01*
X19915000Y-11560000D02*
G75*
G02*
X19945000Y-11560000I15000J0D01*
G01*
X19945000Y-11960000D02*
G75*
G02*
X19915000Y-11960000I-15000J0D01*
G01*
X19915000Y-11960000D02*
G75*
G02*
X19945000Y-11960000I15000J0D01*
G01*
X19945000Y-12060000D02*
G75*
G02*
X19915000Y-12060000I-15000J0D01*
G01*
X19915000Y-12060000D02*
G75*
G02*
X19945000Y-12060000I15000J0D01*
G01*
X19995000Y-11410000D02*
G75*
G02*
X19965000Y-11410000I-15000J0D01*
G01*
X19965000Y-11410000D02*
G75*
G02*
X19995000Y-11410000I15000J0D01*
G01*
X19995000Y-11510000D02*
G75*
G02*
X19965000Y-11510000I-15000J0D01*
G01*
X19965000Y-11510000D02*
G75*
G02*
X19995000Y-11510000I15000J0D01*
G01*
X19995000Y-11610000D02*
G75*
G02*
X19965000Y-11610000I-15000J0D01*
G01*
X19965000Y-11610000D02*
G75*
G02*
X19995000Y-11610000I15000J0D01*
G01*
X19995000Y-11910000D02*
G75*
G02*
X19965000Y-11910000I-15000J0D01*
G01*
X19965000Y-11910000D02*
G75*
G02*
X19995000Y-11910000I15000J0D01*
G01*
X19995000Y-12010000D02*
G75*
G02*
X19965000Y-12010000I-15000J0D01*
G01*
X19965000Y-12010000D02*
G75*
G02*
X19995000Y-12010000I15000J0D01*
G01*
X20015000Y-11100000D02*
G75*
G02*
X19985000Y-11100000I-15000J0D01*
G01*
X19985000Y-11100000D02*
G75*
G02*
X20015000Y-11100000I15000J0D01*
G01*
X20015000Y-11750000D02*
G75*
G02*
X19985000Y-11750000I-15000J0D01*
G01*
X19985000Y-11750000D02*
G75*
G02*
X20015000Y-11750000I15000J0D01*
G01*
X20015000Y-12400000D02*
G75*
G02*
X19985000Y-12400000I-15000J0D01*
G01*
X19985000Y-12400000D02*
G75*
G02*
X20015000Y-12400000I15000J0D01*
G01*
X20045000Y-11350000D02*
G75*
G02*
X20015000Y-11350000I-15000J0D01*
G01*
X20015000Y-11350000D02*
G75*
G02*
X20045000Y-11350000I15000J0D01*
G01*
X20045000Y-11460000D02*
G75*
G02*
X20015000Y-11460000I-15000J0D01*
G01*
X20015000Y-11460000D02*
G75*
G02*
X20045000Y-11460000I15000J0D01*
G01*
X20045000Y-11560000D02*
G75*
G02*
X20015000Y-11560000I-15000J0D01*
G01*
X20015000Y-11560000D02*
G75*
G02*
X20045000Y-11560000I15000J0D01*
G01*
X20045000Y-11960000D02*
G75*
G02*
X20015000Y-11960000I-15000J0D01*
G01*
X20015000Y-11960000D02*
G75*
G02*
X20045000Y-11960000I15000J0D01*
G01*
X20045000Y-12060000D02*
G75*
G02*
X20015000Y-12060000I-15000J0D01*
G01*
X20015000Y-12060000D02*
G75*
G02*
X20045000Y-12060000I15000J0D01*
G01*
X20065000Y-12350000D02*
G75*
G02*
X20035000Y-12350000I-15000J0D01*
G01*
X20035000Y-12350000D02*
G75*
G02*
X20065000Y-12350000I15000J0D01*
G01*
X20065000Y-12450000D02*
G75*
G02*
X20035000Y-12450000I-15000J0D01*
G01*
X20035000Y-12450000D02*
G75*
G02*
X20065000Y-12450000I15000J0D01*
G01*
X20115000Y-9900000D02*
G75*
G02*
X20085000Y-9900000I-15000J0D01*
G01*
X20085000Y-9900000D02*
G75*
G02*
X20115000Y-9900000I15000J0D01*
G01*
X20115000Y-10900000D02*
G75*
G02*
X20085000Y-10900000I-15000J0D01*
G01*
X20085000Y-10900000D02*
G75*
G02*
X20115000Y-10900000I15000J0D01*
G01*
X20115000Y-12400000D02*
G75*
G02*
X20085000Y-12400000I-15000J0D01*
G01*
X20085000Y-12400000D02*
G75*
G02*
X20115000Y-12400000I15000J0D01*
G01*
X20115000Y-12500000D02*
G75*
G02*
X20085000Y-12500000I-15000J0D01*
G01*
X20085000Y-12500000D02*
G75*
G02*
X20115000Y-12500000I15000J0D01*
G01*
X20115000Y-12700000D02*
G75*
G02*
X20085000Y-12700000I-15000J0D01*
G01*
X20085000Y-12700000D02*
G75*
G02*
X20115000Y-12700000I15000J0D01*
G01*
X20145000Y-11430000D02*
G75*
G02*
X20115000Y-11430000I-15000J0D01*
G01*
X20115000Y-11430000D02*
G75*
G02*
X20145000Y-11430000I15000J0D01*
G01*
X20145000Y-11540000D02*
G75*
G02*
X20115000Y-11540000I-15000J0D01*
G01*
X20115000Y-11540000D02*
G75*
G02*
X20145000Y-11540000I15000J0D01*
G01*
X20165000Y-11800000D02*
G75*
G02*
X20135000Y-11800000I-15000J0D01*
G01*
X20135000Y-11800000D02*
G75*
G02*
X20165000Y-11800000I15000J0D01*
G01*
X20165000Y-11900000D02*
G75*
G02*
X20135000Y-11900000I-15000J0D01*
G01*
X20135000Y-11900000D02*
G75*
G02*
X20165000Y-11900000I15000J0D01*
G01*
X20165000Y-12000000D02*
G75*
G02*
X20135000Y-12000000I-15000J0D01*
G01*
X20135000Y-12000000D02*
G75*
G02*
X20165000Y-12000000I15000J0D01*
G01*
X20165000Y-12100000D02*
G75*
G02*
X20135000Y-12100000I-15000J0D01*
G01*
X20135000Y-12100000D02*
G75*
G02*
X20165000Y-12100000I15000J0D01*
G01*
X20165000Y-12200000D02*
G75*
G02*
X20135000Y-12200000I-15000J0D01*
G01*
X20135000Y-12200000D02*
G75*
G02*
X20165000Y-12200000I15000J0D01*
G01*
X20195000Y-11370000D02*
G75*
G02*
X20165000Y-11370000I-15000J0D01*
G01*
X20165000Y-11370000D02*
G75*
G02*
X20195000Y-11370000I15000J0D01*
G01*
X20195000Y-11490000D02*
G75*
G02*
X20165000Y-11490000I-15000J0D01*
G01*
X20165000Y-11490000D02*
G75*
G02*
X20195000Y-11490000I15000J0D01*
G01*
X20195000Y-11590000D02*
G75*
G02*
X20165000Y-11590000I-15000J0D01*
G01*
X20165000Y-11590000D02*
G75*
G02*
X20195000Y-11590000I15000J0D01*
G01*
X20215000Y-11150000D02*
G75*
G02*
X20185000Y-11150000I-15000J0D01*
G01*
X20185000Y-11150000D02*
G75*
G02*
X20215000Y-11150000I15000J0D01*
G01*
X20215000Y-11850000D02*
G75*
G02*
X20185000Y-11850000I-15000J0D01*
G01*
X20185000Y-11850000D02*
G75*
G02*
X20215000Y-11850000I15000J0D01*
G01*
X20215000Y-11950000D02*
G75*
G02*
X20185000Y-11950000I-15000J0D01*
G01*
X20185000Y-11950000D02*
G75*
G02*
X20215000Y-11950000I15000J0D01*
G01*
X20215000Y-12050000D02*
G75*
G02*
X20185000Y-12050000I-15000J0D01*
G01*
X20185000Y-12050000D02*
G75*
G02*
X20215000Y-12050000I15000J0D01*
G01*
X20215000Y-12150000D02*
G75*
G02*
X20185000Y-12150000I-15000J0D01*
G01*
X20185000Y-12150000D02*
G75*
G02*
X20215000Y-12150000I15000J0D01*
G01*
X20215000Y-12500000D02*
G75*
G02*
X20185000Y-12500000I-15000J0D01*
G01*
X20185000Y-12500000D02*
G75*
G02*
X20215000Y-12500000I15000J0D01*
G01*
X20226732Y-10781732D02*
G75*
G02*
X20196732Y-10781732I-15000J0D01*
G01*
X20196732Y-10781732D02*
G75*
G02*
X20226732Y-10781732I15000J0D01*
G01*
X20245000Y-11430000D02*
G75*
G02*
X20215000Y-11430000I-15000J0D01*
G01*
X20215000Y-11430000D02*
G75*
G02*
X20245000Y-11430000I15000J0D01*
G01*
X20245000Y-11540000D02*
G75*
G02*
X20215000Y-11540000I-15000J0D01*
G01*
X20215000Y-11540000D02*
G75*
G02*
X20245000Y-11540000I15000J0D01*
G01*
X20265000Y-10470000D02*
G75*
G02*
X20235000Y-10470000I-15000J0D01*
G01*
X20235000Y-10470000D02*
G75*
G02*
X20265000Y-10470000I15000J0D01*
G01*
X20265000Y-11050000D02*
G75*
G02*
X20235000Y-11050000I-15000J0D01*
G01*
X20235000Y-11050000D02*
G75*
G02*
X20265000Y-11050000I15000J0D01*
G01*
X20265000Y-11800000D02*
G75*
G02*
X20235000Y-11800000I-15000J0D01*
G01*
X20235000Y-11800000D02*
G75*
G02*
X20265000Y-11800000I15000J0D01*
G01*
X20265000Y-11900000D02*
G75*
G02*
X20235000Y-11900000I-15000J0D01*
G01*
X20235000Y-11900000D02*
G75*
G02*
X20265000Y-11900000I15000J0D01*
G01*
X20265000Y-12000000D02*
G75*
G02*
X20235000Y-12000000I-15000J0D01*
G01*
X20235000Y-12000000D02*
G75*
G02*
X20265000Y-12000000I15000J0D01*
G01*
X20265000Y-12100000D02*
G75*
G02*
X20235000Y-12100000I-15000J0D01*
G01*
X20235000Y-12100000D02*
G75*
G02*
X20265000Y-12100000I15000J0D01*
G01*
X20265000Y-12200000D02*
G75*
G02*
X20235000Y-12200000I-15000J0D01*
G01*
X20235000Y-12200000D02*
G75*
G02*
X20265000Y-12200000I15000J0D01*
G01*
X20295000Y-11490000D02*
G75*
G02*
X20265000Y-11490000I-15000J0D01*
G01*
X20265000Y-11490000D02*
G75*
G02*
X20295000Y-11490000I15000J0D01*
G01*
X20295000Y-11590000D02*
G75*
G02*
X20265000Y-11590000I-15000J0D01*
G01*
X20265000Y-11590000D02*
G75*
G02*
X20295000Y-11590000I15000J0D01*
G01*
X20315000Y-9900000D02*
G75*
G02*
X20285000Y-9900000I-15000J0D01*
G01*
X20285000Y-9900000D02*
G75*
G02*
X20315000Y-9900000I15000J0D01*
G01*
X20315000Y-10650000D02*
G75*
G02*
X20285000Y-10650000I-15000J0D01*
G01*
X20285000Y-10650000D02*
G75*
G02*
X20315000Y-10650000I15000J0D01*
G01*
X20315000Y-11850000D02*
G75*
G02*
X20285000Y-11850000I-15000J0D01*
G01*
X20285000Y-11850000D02*
G75*
G02*
X20315000Y-11850000I15000J0D01*
G01*
X20315000Y-11950000D02*
G75*
G02*
X20285000Y-11950000I-15000J0D01*
G01*
X20285000Y-11950000D02*
G75*
G02*
X20315000Y-11950000I15000J0D01*
G01*
X20315000Y-12050000D02*
G75*
G02*
X20285000Y-12050000I-15000J0D01*
G01*
X20285000Y-12050000D02*
G75*
G02*
X20315000Y-12050000I15000J0D01*
G01*
X20315000Y-12150000D02*
G75*
G02*
X20285000Y-12150000I-15000J0D01*
G01*
X20285000Y-12150000D02*
G75*
G02*
X20315000Y-12150000I15000J0D01*
G01*
X20315000Y-12500000D02*
G75*
G02*
X20285000Y-12500000I-15000J0D01*
G01*
X20285000Y-12500000D02*
G75*
G02*
X20315000Y-12500000I15000J0D01*
G01*
X20315000Y-12700000D02*
G75*
G02*
X20285000Y-12700000I-15000J0D01*
G01*
X20285000Y-12700000D02*
G75*
G02*
X20315000Y-12700000I15000J0D01*
G01*
X20335000Y-11260000D02*
G75*
G02*
X20305000Y-11260000I-15000J0D01*
G01*
X20305000Y-11260000D02*
G75*
G02*
X20335000Y-11260000I15000J0D01*
G01*
X20345000Y-11430000D02*
G75*
G02*
X20315000Y-11430000I-15000J0D01*
G01*
X20315000Y-11430000D02*
G75*
G02*
X20345000Y-11430000I15000J0D01*
G01*
X20345000Y-11540000D02*
G75*
G02*
X20315000Y-11540000I-15000J0D01*
G01*
X20315000Y-11540000D02*
G75*
G02*
X20345000Y-11540000I15000J0D01*
G01*
X20365000Y-12000000D02*
G75*
G02*
X20335000Y-12000000I-15000J0D01*
G01*
X20335000Y-12000000D02*
G75*
G02*
X20365000Y-12000000I15000J0D01*
G01*
X20365000Y-12100000D02*
G75*
G02*
X20335000Y-12100000I-15000J0D01*
G01*
X20335000Y-12100000D02*
G75*
G02*
X20365000Y-12100000I15000J0D01*
G01*
X20365000Y-12200000D02*
G75*
G02*
X20335000Y-12200000I-15000J0D01*
G01*
X20335000Y-12200000D02*
G75*
G02*
X20365000Y-12200000I15000J0D01*
G01*
X20395000Y-11490000D02*
G75*
G02*
X20365000Y-11490000I-15000J0D01*
G01*
X20365000Y-11490000D02*
G75*
G02*
X20395000Y-11490000I15000J0D01*
G01*
X20395000Y-11590000D02*
G75*
G02*
X20365000Y-11590000I-15000J0D01*
G01*
X20365000Y-11590000D02*
G75*
G02*
X20395000Y-11590000I15000J0D01*
G01*
X20415000Y-11950000D02*
G75*
G02*
X20385000Y-11950000I-15000J0D01*
G01*
X20385000Y-11950000D02*
G75*
G02*
X20415000Y-11950000I15000J0D01*
G01*
X20415000Y-12050000D02*
G75*
G02*
X20385000Y-12050000I-15000J0D01*
G01*
X20385000Y-12050000D02*
G75*
G02*
X20415000Y-12050000I15000J0D01*
G01*
X20415000Y-12150000D02*
G75*
G02*
X20385000Y-12150000I-15000J0D01*
G01*
X20385000Y-12150000D02*
G75*
G02*
X20415000Y-12150000I15000J0D01*
G01*
X20415000Y-12500000D02*
G75*
G02*
X20385000Y-12500000I-15000J0D01*
G01*
X20385000Y-12500000D02*
G75*
G02*
X20415000Y-12500000I15000J0D01*
G01*
X20445000Y-11430000D02*
G75*
G02*
X20415000Y-11430000I-15000J0D01*
G01*
X20415000Y-11430000D02*
G75*
G02*
X20445000Y-11430000I15000J0D01*
G01*
X20445000Y-11540000D02*
G75*
G02*
X20415000Y-11540000I-15000J0D01*
G01*
X20415000Y-11540000D02*
G75*
G02*
X20445000Y-11540000I15000J0D01*
G01*
X20465000Y-11050000D02*
G75*
G02*
X20435000Y-11050000I-15000J0D01*
G01*
X20435000Y-11050000D02*
G75*
G02*
X20465000Y-11050000I15000J0D01*
G01*
X20465000Y-12400000D02*
G75*
G02*
X20435000Y-12400000I-15000J0D01*
G01*
X20435000Y-12400000D02*
G75*
G02*
X20465000Y-12400000I15000J0D01*
G01*
X20515000Y-9900000D02*
G75*
G02*
X20485000Y-9900000I-15000J0D01*
G01*
X20485000Y-9900000D02*
G75*
G02*
X20515000Y-9900000I15000J0D01*
G01*
X20515000Y-10300000D02*
G75*
G02*
X20485000Y-10300000I-15000J0D01*
G01*
X20485000Y-10300000D02*
G75*
G02*
X20515000Y-10300000I15000J0D01*
G01*
X20515000Y-12350000D02*
G75*
G02*
X20485000Y-12350000I-15000J0D01*
G01*
X20485000Y-12350000D02*
G75*
G02*
X20515000Y-12350000I15000J0D01*
G01*
X20515000Y-12450000D02*
G75*
G02*
X20485000Y-12450000I-15000J0D01*
G01*
X20485000Y-12450000D02*
G75*
G02*
X20515000Y-12450000I15000J0D01*
G01*
X20515000Y-12700000D02*
G75*
G02*
X20485000Y-12700000I-15000J0D01*
G01*
X20485000Y-12700000D02*
G75*
G02*
X20515000Y-12700000I15000J0D01*
G01*
X20565000Y-11150000D02*
G75*
G02*
X20535000Y-11150000I-15000J0D01*
G01*
X20535000Y-11150000D02*
G75*
G02*
X20565000Y-11150000I15000J0D01*
G01*
X20565000Y-12400000D02*
G75*
G02*
X20535000Y-12400000I-15000J0D01*
G01*
X20535000Y-12400000D02*
G75*
G02*
X20565000Y-12400000I15000J0D01*
G01*
X20615000Y-10800000D02*
G75*
G02*
X20585000Y-10800000I-15000J0D01*
G01*
X20585000Y-10800000D02*
G75*
G02*
X20615000Y-10800000I15000J0D01*
G01*
X20715000Y-9900000D02*
G75*
G02*
X20685000Y-9900000I-15000J0D01*
G01*
X20685000Y-9900000D02*
G75*
G02*
X20715000Y-9900000I15000J0D01*
G01*
X20715000Y-11100000D02*
G75*
G02*
X20685000Y-11100000I-15000J0D01*
G01*
X20685000Y-11100000D02*
G75*
G02*
X20715000Y-11100000I15000J0D01*
G01*
X20715000Y-11400000D02*
G75*
G02*
X20685000Y-11400000I-15000J0D01*
G01*
X20685000Y-11400000D02*
G75*
G02*
X20715000Y-11400000I15000J0D01*
G01*
X20715000Y-11650000D02*
G75*
G02*
X20685000Y-11650000I-15000J0D01*
G01*
X20685000Y-11650000D02*
G75*
G02*
X20715000Y-11650000I15000J0D01*
G01*
X20715000Y-11900000D02*
G75*
G02*
X20685000Y-11900000I-15000J0D01*
G01*
X20685000Y-11900000D02*
G75*
G02*
X20715000Y-11900000I15000J0D01*
G01*
X20715000Y-12150000D02*
G75*
G02*
X20685000Y-12150000I-15000J0D01*
G01*
X20685000Y-12150000D02*
G75*
G02*
X20715000Y-12150000I15000J0D01*
G01*
X20715000Y-12350000D02*
G75*
G02*
X20685000Y-12350000I-15000J0D01*
G01*
X20685000Y-12350000D02*
G75*
G02*
X20715000Y-12350000I15000J0D01*
G01*
X20715000Y-12700000D02*
G75*
G02*
X20685000Y-12700000I-15000J0D01*
G01*
X20685000Y-12700000D02*
G75*
G02*
X20715000Y-12700000I15000J0D01*
G01*
X20755000Y-10400000D02*
G75*
G02*
X20725000Y-10400000I-15000J0D01*
G01*
X20725000Y-10400000D02*
G75*
G02*
X20755000Y-10400000I15000J0D01*
G01*
X20815000Y-10550000D02*
G75*
G02*
X20785000Y-10550000I-15000J0D01*
G01*
X20785000Y-10550000D02*
G75*
G02*
X20815000Y-10550000I15000J0D01*
G01*
X20915000Y-9900000D02*
G75*
G02*
X20885000Y-9900000I-15000J0D01*
G01*
X20885000Y-9900000D02*
G75*
G02*
X20915000Y-9900000I15000J0D01*
G01*
X20915000Y-11100000D02*
G75*
G02*
X20885000Y-11100000I-15000J0D01*
G01*
X20885000Y-11100000D02*
G75*
G02*
X20915000Y-11100000I15000J0D01*
G01*
X20915000Y-11400000D02*
G75*
G02*
X20885000Y-11400000I-15000J0D01*
G01*
X20885000Y-11400000D02*
G75*
G02*
X20915000Y-11400000I15000J0D01*
G01*
X20915000Y-11650000D02*
G75*
G02*
X20885000Y-11650000I-15000J0D01*
G01*
X20885000Y-11650000D02*
G75*
G02*
X20915000Y-11650000I15000J0D01*
G01*
X20915000Y-11750000D02*
G75*
G02*
X20885000Y-11750000I-15000J0D01*
G01*
X20885000Y-11750000D02*
G75*
G02*
X20915000Y-11750000I15000J0D01*
G01*
X20915000Y-11850000D02*
G75*
G02*
X20885000Y-11850000I-15000J0D01*
G01*
X20885000Y-11850000D02*
G75*
G02*
X20915000Y-11850000I15000J0D01*
G01*
X20915000Y-12350000D02*
G75*
G02*
X20885000Y-12350000I-15000J0D01*
G01*
X20885000Y-12350000D02*
G75*
G02*
X20915000Y-12350000I15000J0D01*
G01*
X20915000Y-12550000D02*
G75*
G02*
X20885000Y-12550000I-15000J0D01*
G01*
X20885000Y-12550000D02*
G75*
G02*
X20915000Y-12550000I15000J0D01*
G01*
X20915000Y-12700000D02*
G75*
G02*
X20885000Y-12700000I-15000J0D01*
G01*
X20885000Y-12700000D02*
G75*
G02*
X20915000Y-12700000I15000J0D01*
G01*
X20965000Y-10200000D02*
G75*
G02*
X20935000Y-10200000I-15000J0D01*
G01*
X20935000Y-10200000D02*
G75*
G02*
X20965000Y-10200000I15000J0D01*
G01*
X20965000Y-10750000D02*
G75*
G02*
X20935000Y-10750000I-15000J0D01*
G01*
X20935000Y-10750000D02*
G75*
G02*
X20965000Y-10750000I15000J0D01*
G01*
X20965000Y-11590000D02*
G75*
G02*
X20935000Y-11590000I-15000J0D01*
G01*
X20935000Y-11590000D02*
G75*
G02*
X20965000Y-11590000I15000J0D01*
G01*
X20965000Y-11700000D02*
G75*
G02*
X20935000Y-11700000I-15000J0D01*
G01*
X20935000Y-11700000D02*
G75*
G02*
X20965000Y-11700000I15000J0D01*
G01*
X20965000Y-11800000D02*
G75*
G02*
X20935000Y-11800000I-15000J0D01*
G01*
X20935000Y-11800000D02*
G75*
G02*
X20965000Y-11800000I15000J0D01*
G01*
X20965000Y-11900000D02*
G75*
G02*
X20935000Y-11900000I-15000J0D01*
G01*
X20935000Y-11900000D02*
G75*
G02*
X20965000Y-11900000I15000J0D01*
G01*
X20965000Y-12100000D02*
G75*
G02*
X20935000Y-12100000I-15000J0D01*
G01*
X20935000Y-12100000D02*
G75*
G02*
X20965000Y-12100000I15000J0D01*
G01*
X20965000Y-12200000D02*
G75*
G02*
X20935000Y-12200000I-15000J0D01*
G01*
X20935000Y-12200000D02*
G75*
G02*
X20965000Y-12200000I15000J0D01*
G01*
X20965000Y-12300000D02*
G75*
G02*
X20935000Y-12300000I-15000J0D01*
G01*
X20935000Y-12300000D02*
G75*
G02*
X20965000Y-12300000I15000J0D01*
G01*
X21015000Y-11650000D02*
G75*
G02*
X20985000Y-11650000I-15000J0D01*
G01*
X20985000Y-11650000D02*
G75*
G02*
X21015000Y-11650000I15000J0D01*
G01*
X21015000Y-11750000D02*
G75*
G02*
X20985000Y-11750000I-15000J0D01*
G01*
X20985000Y-11750000D02*
G75*
G02*
X21015000Y-11750000I15000J0D01*
G01*
X21015000Y-11850000D02*
G75*
G02*
X20985000Y-11850000I-15000J0D01*
G01*
X20985000Y-11850000D02*
G75*
G02*
X21015000Y-11850000I15000J0D01*
G01*
X21015000Y-12050000D02*
G75*
G02*
X20985000Y-12050000I-15000J0D01*
G01*
X20985000Y-12050000D02*
G75*
G02*
X21015000Y-12050000I15000J0D01*
G01*
X21015000Y-12150000D02*
G75*
G02*
X20985000Y-12150000I-15000J0D01*
G01*
X20985000Y-12150000D02*
G75*
G02*
X21015000Y-12150000I15000J0D01*
G01*
X21015000Y-12250000D02*
G75*
G02*
X20985000Y-12250000I-15000J0D01*
G01*
X20985000Y-12250000D02*
G75*
G02*
X21015000Y-12250000I15000J0D01*
G01*
X21015000Y-12350000D02*
G75*
G02*
X20985000Y-12350000I-15000J0D01*
G01*
X20985000Y-12350000D02*
G75*
G02*
X21015000Y-12350000I15000J0D01*
G01*
X21115000Y-9900000D02*
G75*
G02*
X21085000Y-9900000I-15000J0D01*
G01*
X21085000Y-9900000D02*
G75*
G02*
X21115000Y-9900000I15000J0D01*
G01*
X21115000Y-11100000D02*
G75*
G02*
X21085000Y-11100000I-15000J0D01*
G01*
X21085000Y-11100000D02*
G75*
G02*
X21115000Y-11100000I15000J0D01*
G01*
X21115000Y-11400000D02*
G75*
G02*
X21085000Y-11400000I-15000J0D01*
G01*
X21085000Y-11400000D02*
G75*
G02*
X21115000Y-11400000I15000J0D01*
G01*
X21115000Y-12050000D02*
G75*
G02*
X21085000Y-12050000I-15000J0D01*
G01*
X21085000Y-12050000D02*
G75*
G02*
X21115000Y-12050000I15000J0D01*
G01*
X21115000Y-12550000D02*
G75*
G02*
X21085000Y-12550000I-15000J0D01*
G01*
X21085000Y-12550000D02*
G75*
G02*
X21115000Y-12550000I15000J0D01*
G01*
X21115000Y-12700000D02*
G75*
G02*
X21085000Y-12700000I-15000J0D01*
G01*
X21085000Y-12700000D02*
G75*
G02*
X21115000Y-12700000I15000J0D01*
G01*
X21215000Y-10450000D02*
G75*
G02*
X21185000Y-10450000I-15000J0D01*
G01*
X21185000Y-10450000D02*
G75*
G02*
X21215000Y-10450000I15000J0D01*
G01*
X21215000Y-10900000D02*
G75*
G02*
X21185000Y-10900000I-15000J0D01*
G01*
X21185000Y-10900000D02*
G75*
G02*
X21215000Y-10900000I15000J0D01*
G01*
X21215000Y-11650000D02*
G75*
G02*
X21185000Y-11650000I-15000J0D01*
G01*
X21185000Y-11650000D02*
G75*
G02*
X21215000Y-11650000I15000J0D01*
G01*
X21215000Y-11750000D02*
G75*
G02*
X21185000Y-11750000I-15000J0D01*
G01*
X21185000Y-11750000D02*
G75*
G02*
X21215000Y-11750000I15000J0D01*
G01*
X21215000Y-11850000D02*
G75*
G02*
X21185000Y-11850000I-15000J0D01*
G01*
X21185000Y-11850000D02*
G75*
G02*
X21215000Y-11850000I15000J0D01*
G01*
X21215000Y-12100000D02*
G75*
G02*
X21185000Y-12100000I-15000J0D01*
G01*
X21185000Y-12100000D02*
G75*
G02*
X21215000Y-12100000I15000J0D01*
G01*
X21215000Y-12200000D02*
G75*
G02*
X21185000Y-12200000I-15000J0D01*
G01*
X21185000Y-12200000D02*
G75*
G02*
X21215000Y-12200000I15000J0D01*
G01*
X21215000Y-12300000D02*
G75*
G02*
X21185000Y-12300000I-15000J0D01*
G01*
X21185000Y-12300000D02*
G75*
G02*
X21215000Y-12300000I15000J0D01*
G01*
X21265000Y-10300000D02*
G75*
G02*
X21235000Y-10300000I-15000J0D01*
G01*
X21235000Y-10300000D02*
G75*
G02*
X21265000Y-10300000I15000J0D01*
G01*
X21265000Y-11600000D02*
G75*
G02*
X21235000Y-11600000I-15000J0D01*
G01*
X21235000Y-11600000D02*
G75*
G02*
X21265000Y-11600000I15000J0D01*
G01*
X21265000Y-11700000D02*
G75*
G02*
X21235000Y-11700000I-15000J0D01*
G01*
X21235000Y-11700000D02*
G75*
G02*
X21265000Y-11700000I15000J0D01*
G01*
X21265000Y-11800000D02*
G75*
G02*
X21235000Y-11800000I-15000J0D01*
G01*
X21235000Y-11800000D02*
G75*
G02*
X21265000Y-11800000I15000J0D01*
G01*
X21265000Y-11900000D02*
G75*
G02*
X21235000Y-11900000I-15000J0D01*
G01*
X21235000Y-11900000D02*
G75*
G02*
X21265000Y-11900000I15000J0D01*
G01*
X21265000Y-12050000D02*
G75*
G02*
X21235000Y-12050000I-15000J0D01*
G01*
X21235000Y-12050000D02*
G75*
G02*
X21265000Y-12050000I15000J0D01*
G01*
X21265000Y-12150000D02*
G75*
G02*
X21235000Y-12150000I-15000J0D01*
G01*
X21235000Y-12150000D02*
G75*
G02*
X21265000Y-12150000I15000J0D01*
G01*
X21265000Y-12250000D02*
G75*
G02*
X21235000Y-12250000I-15000J0D01*
G01*
X21235000Y-12250000D02*
G75*
G02*
X21265000Y-12250000I15000J0D01*
G01*
X21265000Y-12350000D02*
G75*
G02*
X21235000Y-12350000I-15000J0D01*
G01*
X21235000Y-12350000D02*
G75*
G02*
X21265000Y-12350000I15000J0D01*
G01*
X21315000Y-9900000D02*
G75*
G02*
X21285000Y-9900000I-15000J0D01*
G01*
X21285000Y-9900000D02*
G75*
G02*
X21315000Y-9900000I15000J0D01*
G01*
X21315000Y-11100000D02*
G75*
G02*
X21285000Y-11100000I-15000J0D01*
G01*
X21285000Y-11100000D02*
G75*
G02*
X21315000Y-11100000I15000J0D01*
G01*
X21315000Y-11400000D02*
G75*
G02*
X21285000Y-11400000I-15000J0D01*
G01*
X21285000Y-11400000D02*
G75*
G02*
X21315000Y-11400000I15000J0D01*
G01*
X21315000Y-11650000D02*
G75*
G02*
X21285000Y-11650000I-15000J0D01*
G01*
X21285000Y-11650000D02*
G75*
G02*
X21315000Y-11650000I15000J0D01*
G01*
X21315000Y-11750000D02*
G75*
G02*
X21285000Y-11750000I-15000J0D01*
G01*
X21285000Y-11750000D02*
G75*
G02*
X21315000Y-11750000I15000J0D01*
G01*
X21315000Y-11850000D02*
G75*
G02*
X21285000Y-11850000I-15000J0D01*
G01*
X21285000Y-11850000D02*
G75*
G02*
X21315000Y-11850000I15000J0D01*
G01*
X21315000Y-12550000D02*
G75*
G02*
X21285000Y-12550000I-15000J0D01*
G01*
X21285000Y-12550000D02*
G75*
G02*
X21315000Y-12550000I15000J0D01*
G01*
X21315000Y-12700000D02*
G75*
G02*
X21285000Y-12700000I-15000J0D01*
G01*
X21285000Y-12700000D02*
G75*
G02*
X21315000Y-12700000I15000J0D01*
G01*
X21365000Y-10350000D02*
G75*
G02*
X21335000Y-10350000I-15000J0D01*
G01*
X21335000Y-10350000D02*
G75*
G02*
X21365000Y-10350000I15000J0D01*
G01*
X21365000Y-12050000D02*
G75*
G02*
X21335000Y-12050000I-15000J0D01*
G01*
X21335000Y-12050000D02*
G75*
G02*
X21365000Y-12050000I15000J0D01*
G01*
X21415000Y-10800000D02*
G75*
G02*
X21385000Y-10800000I-15000J0D01*
G01*
X21385000Y-10800000D02*
G75*
G02*
X21415000Y-10800000I15000J0D01*
G01*
X21465000Y-11200000D02*
G75*
G02*
X21435000Y-11200000I-15000J0D01*
G01*
X21435000Y-11200000D02*
G75*
G02*
X21465000Y-11200000I15000J0D01*
G01*
X21465000Y-11650000D02*
G75*
G02*
X21435000Y-11650000I-15000J0D01*
G01*
X21435000Y-11650000D02*
G75*
G02*
X21465000Y-11650000I15000J0D01*
G01*
X21465000Y-11750000D02*
G75*
G02*
X21435000Y-11750000I-15000J0D01*
G01*
X21435000Y-11750000D02*
G75*
G02*
X21465000Y-11750000I15000J0D01*
G01*
X21465000Y-11850000D02*
G75*
G02*
X21435000Y-11850000I-15000J0D01*
G01*
X21435000Y-11850000D02*
G75*
G02*
X21465000Y-11850000I15000J0D01*
G01*
X21465000Y-12100000D02*
G75*
G02*
X21435000Y-12100000I-15000J0D01*
G01*
X21435000Y-12100000D02*
G75*
G02*
X21465000Y-12100000I15000J0D01*
G01*
X21465000Y-12200000D02*
G75*
G02*
X21435000Y-12200000I-15000J0D01*
G01*
X21435000Y-12200000D02*
G75*
G02*
X21465000Y-12200000I15000J0D01*
G01*
X21465000Y-12300000D02*
G75*
G02*
X21435000Y-12300000I-15000J0D01*
G01*
X21435000Y-12300000D02*
G75*
G02*
X21465000Y-12300000I15000J0D01*
G01*
X21515000Y-9900000D02*
G75*
G02*
X21485000Y-9900000I-15000J0D01*
G01*
X21485000Y-9900000D02*
G75*
G02*
X21515000Y-9900000I15000J0D01*
G01*
X21515000Y-11400000D02*
G75*
G02*
X21485000Y-11400000I-15000J0D01*
G01*
X21485000Y-11400000D02*
G75*
G02*
X21515000Y-11400000I15000J0D01*
G01*
X21515000Y-11600000D02*
G75*
G02*
X21485000Y-11600000I-15000J0D01*
G01*
X21485000Y-11600000D02*
G75*
G02*
X21515000Y-11600000I15000J0D01*
G01*
X21515000Y-11700000D02*
G75*
G02*
X21485000Y-11700000I-15000J0D01*
G01*
X21485000Y-11700000D02*
G75*
G02*
X21515000Y-11700000I15000J0D01*
G01*
X21515000Y-11800000D02*
G75*
G02*
X21485000Y-11800000I-15000J0D01*
G01*
X21485000Y-11800000D02*
G75*
G02*
X21515000Y-11800000I15000J0D01*
G01*
X21515000Y-11900000D02*
G75*
G02*
X21485000Y-11900000I-15000J0D01*
G01*
X21485000Y-11900000D02*
G75*
G02*
X21515000Y-11900000I15000J0D01*
G01*
X21515000Y-12050000D02*
G75*
G02*
X21485000Y-12050000I-15000J0D01*
G01*
X21485000Y-12050000D02*
G75*
G02*
X21515000Y-12050000I15000J0D01*
G01*
X21515000Y-12150000D02*
G75*
G02*
X21485000Y-12150000I-15000J0D01*
G01*
X21485000Y-12150000D02*
G75*
G02*
X21515000Y-12150000I15000J0D01*
G01*
X21515000Y-12250000D02*
G75*
G02*
X21485000Y-12250000I-15000J0D01*
G01*
X21485000Y-12250000D02*
G75*
G02*
X21515000Y-12250000I15000J0D01*
G01*
X21515000Y-12350000D02*
G75*
G02*
X21485000Y-12350000I-15000J0D01*
G01*
X21485000Y-12350000D02*
G75*
G02*
X21515000Y-12350000I15000J0D01*
G01*
X21515000Y-12550000D02*
G75*
G02*
X21485000Y-12550000I-15000J0D01*
G01*
X21485000Y-12550000D02*
G75*
G02*
X21515000Y-12550000I15000J0D01*
G01*
X21515000Y-12700000D02*
G75*
G02*
X21485000Y-12700000I-15000J0D01*
G01*
X21485000Y-12700000D02*
G75*
G02*
X21515000Y-12700000I15000J0D01*
G01*
X21565000Y-10800000D02*
G75*
G02*
X21535000Y-10800000I-15000J0D01*
G01*
X21535000Y-10800000D02*
G75*
G02*
X21565000Y-10800000I15000J0D01*
G01*
X21565000Y-11650000D02*
G75*
G02*
X21535000Y-11650000I-15000J0D01*
G01*
X21535000Y-11650000D02*
G75*
G02*
X21565000Y-11650000I15000J0D01*
G01*
X21565000Y-11750000D02*
G75*
G02*
X21535000Y-11750000I-15000J0D01*
G01*
X21535000Y-11750000D02*
G75*
G02*
X21565000Y-11750000I15000J0D01*
G01*
X21565000Y-11850000D02*
G75*
G02*
X21535000Y-11850000I-15000J0D01*
G01*
X21535000Y-11850000D02*
G75*
G02*
X21565000Y-11850000I15000J0D01*
G01*
X21615000Y-10550000D02*
G75*
G02*
X21585000Y-10550000I-15000J0D01*
G01*
X21585000Y-10550000D02*
G75*
G02*
X21615000Y-10550000I15000J0D01*
G01*
X21615000Y-10950000D02*
G75*
G02*
X21585000Y-10950000I-15000J0D01*
G01*
X21585000Y-10950000D02*
G75*
G02*
X21615000Y-10950000I15000J0D01*
G01*
X21615000Y-12050000D02*
G75*
G02*
X21585000Y-12050000I-15000J0D01*
G01*
X21585000Y-12050000D02*
G75*
G02*
X21615000Y-12050000I15000J0D01*
G01*
X21715000Y-9900000D02*
G75*
G02*
X21685000Y-9900000I-15000J0D01*
G01*
X21685000Y-9900000D02*
G75*
G02*
X21715000Y-9900000I15000J0D01*
G01*
X21715000Y-10050000D02*
G75*
G02*
X21685000Y-10050000I-15000J0D01*
G01*
X21685000Y-10050000D02*
G75*
G02*
X21715000Y-10050000I15000J0D01*
G01*
X21715000Y-10700000D02*
G75*
G02*
X21685000Y-10700000I-15000J0D01*
G01*
X21685000Y-10700000D02*
G75*
G02*
X21715000Y-10700000I15000J0D01*
G01*
X21715000Y-10850000D02*
G75*
G02*
X21685000Y-10850000I-15000J0D01*
G01*
X21685000Y-10850000D02*
G75*
G02*
X21715000Y-10850000I15000J0D01*
G01*
X21715000Y-11100000D02*
G75*
G02*
X21685000Y-11100000I-15000J0D01*
G01*
X21685000Y-11100000D02*
G75*
G02*
X21715000Y-11100000I15000J0D01*
G01*
X21715000Y-12050000D02*
G75*
G02*
X21685000Y-12050000I-15000J0D01*
G01*
X21685000Y-12050000D02*
G75*
G02*
X21715000Y-12050000I15000J0D01*
G01*
X21715000Y-12150000D02*
G75*
G02*
X21685000Y-12150000I-15000J0D01*
G01*
X21685000Y-12150000D02*
G75*
G02*
X21715000Y-12150000I15000J0D01*
G01*
X21715000Y-12250000D02*
G75*
G02*
X21685000Y-12250000I-15000J0D01*
G01*
X21685000Y-12250000D02*
G75*
G02*
X21715000Y-12250000I15000J0D01*
G01*
X21715000Y-12350000D02*
G75*
G02*
X21685000Y-12350000I-15000J0D01*
G01*
X21685000Y-12350000D02*
G75*
G02*
X21715000Y-12350000I15000J0D01*
G01*
X21715000Y-12550000D02*
G75*
G02*
X21685000Y-12550000I-15000J0D01*
G01*
X21685000Y-12550000D02*
G75*
G02*
X21715000Y-12550000I15000J0D01*
G01*
X21715000Y-12700000D02*
G75*
G02*
X21685000Y-12700000I-15000J0D01*
G01*
X21685000Y-12700000D02*
G75*
G02*
X21715000Y-12700000I15000J0D01*
G01*
X21765000Y-10150000D02*
G75*
G02*
X21735000Y-10150000I-15000J0D01*
G01*
X21735000Y-10150000D02*
G75*
G02*
X21765000Y-10150000I15000J0D01*
G01*
X21765000Y-12100000D02*
G75*
G02*
X21735000Y-12100000I-15000J0D01*
G01*
X21735000Y-12100000D02*
G75*
G02*
X21765000Y-12100000I15000J0D01*
G01*
X21765000Y-12200000D02*
G75*
G02*
X21735000Y-12200000I-15000J0D01*
G01*
X21735000Y-12200000D02*
G75*
G02*
X21765000Y-12200000I15000J0D01*
G01*
X21765000Y-12300000D02*
G75*
G02*
X21735000Y-12300000I-15000J0D01*
G01*
X21735000Y-12300000D02*
G75*
G02*
X21765000Y-12300000I15000J0D01*
G01*
X16375000Y-11925000D02*
X16375000Y-11955000D01*
X16360000Y-11940000D02*
X16390000Y-11940000D01*
X16375000Y-12045000D02*
X16375000Y-12075000D01*
X16360000Y-12060000D02*
X16390000Y-12060000D01*
X16425000Y-11860000D02*
X16425000Y-11890000D01*
X16410000Y-11875000D02*
X16440000Y-11875000D01*
X16425000Y-11985000D02*
X16425000Y-12015000D01*
X16410000Y-12000000D02*
X16440000Y-12000000D01*
X16425000Y-12105000D02*
X16425000Y-12135000D01*
X16410000Y-12120000D02*
X16440000Y-12120000D01*
X16475000Y-11925000D02*
X16475000Y-11955000D01*
X16460000Y-11940000D02*
X16490000Y-11940000D01*
X16475000Y-12045000D02*
X16475000Y-12075000D01*
X16460000Y-12060000D02*
X16490000Y-12060000D01*
X16525000Y-11860000D02*
X16525000Y-11890000D01*
X16510000Y-11875000D02*
X16540000Y-11875000D01*
X16525000Y-11985000D02*
X16525000Y-12015000D01*
X16510000Y-12000000D02*
X16540000Y-12000000D01*
X16525000Y-12105000D02*
X16525000Y-12135000D01*
X16510000Y-12120000D02*
X16540000Y-12120000D01*
X16575000Y-11925000D02*
X16575000Y-11955000D01*
X16560000Y-11940000D02*
X16590000Y-11940000D01*
X16575000Y-12045000D02*
X16575000Y-12075000D01*
X16560000Y-12060000D02*
X16590000Y-12060000D01*
X16625000Y-11860000D02*
X16625000Y-11890000D01*
X16610000Y-11875000D02*
X16640000Y-11875000D01*
X16625000Y-11985000D02*
X16625000Y-12015000D01*
X16610000Y-12000000D02*
X16640000Y-12000000D01*
X16625000Y-12105000D02*
X16625000Y-12135000D01*
X16610000Y-12120000D02*
X16640000Y-12120000D01*
X16675000Y-11925000D02*
X16675000Y-11955000D01*
X16660000Y-11940000D02*
X16690000Y-11940000D01*
X16675000Y-12045000D02*
X16675000Y-12075000D01*
X16660000Y-12060000D02*
X16690000Y-12060000D01*
X17325000Y-11920000D02*
X17325000Y-11950000D01*
X17310000Y-11935000D02*
X17340000Y-11935000D01*
X17325000Y-12040000D02*
X17325000Y-12070000D01*
X17310000Y-12055000D02*
X17340000Y-12055000D01*
X17375000Y-11855000D02*
X17375000Y-11885000D01*
X17360000Y-11870000D02*
X17390000Y-11870000D01*
X17375000Y-11980000D02*
X17375000Y-12010000D01*
X17360000Y-11995000D02*
X17390000Y-11995000D01*
X17375000Y-12100000D02*
X17375000Y-12130000D01*
X17360000Y-12115000D02*
X17390000Y-12115000D01*
X17425000Y-11920000D02*
X17425000Y-11950000D01*
X17410000Y-11935000D02*
X17440000Y-11935000D01*
X17425000Y-12040000D02*
X17425000Y-12070000D01*
X17410000Y-12055000D02*
X17440000Y-12055000D01*
X17475000Y-11855000D02*
X17475000Y-11885000D01*
X17460000Y-11870000D02*
X17490000Y-11870000D01*
X17475000Y-11980000D02*
X17475000Y-12010000D01*
X17460000Y-11995000D02*
X17490000Y-11995000D01*
X17475000Y-12100000D02*
X17475000Y-12130000D01*
X17460000Y-12115000D02*
X17490000Y-12115000D01*
X17525000Y-11920000D02*
X17525000Y-11950000D01*
X17510000Y-11935000D02*
X17540000Y-11935000D01*
X17525000Y-12040000D02*
X17525000Y-12070000D01*
X17510000Y-12055000D02*
X17540000Y-12055000D01*
X17575000Y-11855000D02*
X17575000Y-11885000D01*
X17560000Y-11870000D02*
X17590000Y-11870000D01*
X17575000Y-11980000D02*
X17575000Y-12010000D01*
X17560000Y-11995000D02*
X17590000Y-11995000D01*
X17575000Y-12100000D02*
X17575000Y-12130000D01*
X17560000Y-12115000D02*
X17590000Y-12115000D01*
X17625000Y-11920000D02*
X17625000Y-11950000D01*
X17610000Y-11935000D02*
X17640000Y-11935000D01*
X17625000Y-12040000D02*
X17625000Y-12070000D01*
X17610000Y-12055000D02*
X17640000Y-12055000D01*
D11*
X12808277Y-13163984D02*
X12808277Y-12963984D01*
X12808277Y-12963984D02*
X12855896Y-12963984D01*
X12855896Y-12963984D02*
X12884467Y-12973508D01*
X12884467Y-12973508D02*
X12903515Y-12992555D01*
X12903515Y-12992555D02*
X12913039Y-13011603D01*
X12913039Y-13011603D02*
X12922562Y-13049698D01*
X12922562Y-13049698D02*
X12922562Y-13078269D01*
X12922562Y-13078269D02*
X12913039Y-13116365D01*
X12913039Y-13116365D02*
X12903515Y-13135412D01*
X12903515Y-13135412D02*
X12884467Y-13154460D01*
X12884467Y-13154460D02*
X12855896Y-13163984D01*
X12855896Y-13163984D02*
X12808277Y-13163984D01*
X13008277Y-13163984D02*
X13008277Y-13030650D01*
X13008277Y-13068746D02*
X13017801Y-13049698D01*
X13017801Y-13049698D02*
X13027324Y-13040174D01*
X13027324Y-13040174D02*
X13046372Y-13030650D01*
X13046372Y-13030650D02*
X13065420Y-13030650D01*
X13132086Y-13163984D02*
X13132086Y-13030650D01*
X13132086Y-12963984D02*
X13122562Y-12973508D01*
X13122562Y-12973508D02*
X13132086Y-12983031D01*
X13132086Y-12983031D02*
X13141610Y-12973508D01*
X13141610Y-12973508D02*
X13132086Y-12963984D01*
X13132086Y-12963984D02*
X13132086Y-12983031D01*
X13255896Y-13163984D02*
X13236848Y-13154460D01*
X13236848Y-13154460D02*
X13227324Y-13135412D01*
X13227324Y-13135412D02*
X13227324Y-12963984D01*
X13360658Y-13163984D02*
X13341610Y-13154460D01*
X13341610Y-13154460D02*
X13332086Y-13135412D01*
X13332086Y-13135412D02*
X13332086Y-12963984D01*
X13589229Y-13163984D02*
X13589229Y-12963984D01*
X13589229Y-12963984D02*
X13655896Y-13106841D01*
X13655896Y-13106841D02*
X13722562Y-12963984D01*
X13722562Y-12963984D02*
X13722562Y-13163984D01*
X13903515Y-13163984D02*
X13903515Y-13059222D01*
X13903515Y-13059222D02*
X13893991Y-13040174D01*
X13893991Y-13040174D02*
X13874943Y-13030650D01*
X13874943Y-13030650D02*
X13836848Y-13030650D01*
X13836848Y-13030650D02*
X13817801Y-13040174D01*
X13903515Y-13154460D02*
X13884467Y-13163984D01*
X13884467Y-13163984D02*
X13836848Y-13163984D01*
X13836848Y-13163984D02*
X13817801Y-13154460D01*
X13817801Y-13154460D02*
X13808277Y-13135412D01*
X13808277Y-13135412D02*
X13808277Y-13116365D01*
X13808277Y-13116365D02*
X13817801Y-13097317D01*
X13817801Y-13097317D02*
X13836848Y-13087793D01*
X13836848Y-13087793D02*
X13884467Y-13087793D01*
X13884467Y-13087793D02*
X13903515Y-13078269D01*
X13998753Y-13030650D02*
X13998753Y-13230650D01*
X13998753Y-13040174D02*
X14017801Y-13030650D01*
X14017801Y-13030650D02*
X14055896Y-13030650D01*
X14055896Y-13030650D02*
X14074943Y-13040174D01*
X14074943Y-13040174D02*
X14084467Y-13049698D01*
X14084467Y-13049698D02*
X14093991Y-13068746D01*
X14093991Y-13068746D02*
X14093991Y-13125888D01*
X14093991Y-13125888D02*
X14084467Y-13144936D01*
X14084467Y-13144936D02*
X14074943Y-13154460D01*
X14074943Y-13154460D02*
X14055896Y-13163984D01*
X14055896Y-13163984D02*
X14017801Y-13163984D01*
X14017801Y-13163984D02*
X13998753Y-13154460D01*
X14179705Y-13144936D02*
X14189229Y-13154460D01*
X14189229Y-13154460D02*
X14179705Y-13163984D01*
X14179705Y-13163984D02*
X14170182Y-13154460D01*
X14170182Y-13154460D02*
X14179705Y-13144936D01*
X14179705Y-13144936D02*
X14179705Y-13163984D01*
X14179705Y-13040174D02*
X14189229Y-13049698D01*
X14189229Y-13049698D02*
X14179705Y-13059222D01*
X14179705Y-13059222D02*
X14170182Y-13049698D01*
X14170182Y-13049698D02*
X14179705Y-13040174D01*
X14179705Y-13040174D02*
X14179705Y-13059222D01*
D12*
X12527500Y-13482500D02*
X12547500Y-13502500D01*
X12547500Y-13482500D02*
X12527500Y-13502500D01*
D11*
X12846372Y-13383984D02*
X12865420Y-13383984D01*
X12865420Y-13383984D02*
X12884467Y-13393508D01*
X12884467Y-13393508D02*
X12893991Y-13403031D01*
X12893991Y-13403031D02*
X12903515Y-13422079D01*
X12903515Y-13422079D02*
X12913039Y-13460174D01*
X12913039Y-13460174D02*
X12913039Y-13507793D01*
X12913039Y-13507793D02*
X12903515Y-13545888D01*
X12903515Y-13545888D02*
X12893991Y-13564936D01*
X12893991Y-13564936D02*
X12884467Y-13574460D01*
X12884467Y-13574460D02*
X12865420Y-13583984D01*
X12865420Y-13583984D02*
X12846372Y-13583984D01*
X12846372Y-13583984D02*
X12827324Y-13574460D01*
X12827324Y-13574460D02*
X12817801Y-13564936D01*
X12817801Y-13564936D02*
X12808277Y-13545888D01*
X12808277Y-13545888D02*
X12798753Y-13507793D01*
X12798753Y-13507793D02*
X12798753Y-13460174D01*
X12798753Y-13460174D02*
X12808277Y-13422079D01*
X12808277Y-13422079D02*
X12817801Y-13403031D01*
X12817801Y-13403031D02*
X12827324Y-13393508D01*
X12827324Y-13393508D02*
X12846372Y-13383984D01*
X12998753Y-13564936D02*
X13008277Y-13574460D01*
X13008277Y-13574460D02*
X12998753Y-13583984D01*
X12998753Y-13583984D02*
X12989229Y-13574460D01*
X12989229Y-13574460D02*
X12998753Y-13564936D01*
X12998753Y-13564936D02*
X12998753Y-13583984D01*
X13084467Y-13403031D02*
X13093991Y-13393508D01*
X13093991Y-13393508D02*
X13113039Y-13383984D01*
X13113039Y-13383984D02*
X13160658Y-13383984D01*
X13160658Y-13383984D02*
X13179705Y-13393508D01*
X13179705Y-13393508D02*
X13189229Y-13403031D01*
X13189229Y-13403031D02*
X13198753Y-13422079D01*
X13198753Y-13422079D02*
X13198753Y-13441127D01*
X13198753Y-13441127D02*
X13189229Y-13469698D01*
X13189229Y-13469698D02*
X13074943Y-13583984D01*
X13074943Y-13583984D02*
X13198753Y-13583984D01*
X13322562Y-13383984D02*
X13341610Y-13383984D01*
X13341610Y-13383984D02*
X13360658Y-13393508D01*
X13360658Y-13393508D02*
X13370182Y-13403031D01*
X13370182Y-13403031D02*
X13379705Y-13422079D01*
X13379705Y-13422079D02*
X13389229Y-13460174D01*
X13389229Y-13460174D02*
X13389229Y-13507793D01*
X13389229Y-13507793D02*
X13379705Y-13545888D01*
X13379705Y-13545888D02*
X13370182Y-13564936D01*
X13370182Y-13564936D02*
X13360658Y-13574460D01*
X13360658Y-13574460D02*
X13341610Y-13583984D01*
X13341610Y-13583984D02*
X13322562Y-13583984D01*
X13322562Y-13583984D02*
X13303515Y-13574460D01*
X13303515Y-13574460D02*
X13293991Y-13564936D01*
X13293991Y-13564936D02*
X13284467Y-13545888D01*
X13284467Y-13545888D02*
X13274943Y-13507793D01*
X13274943Y-13507793D02*
X13274943Y-13460174D01*
X13274943Y-13460174D02*
X13284467Y-13422079D01*
X13284467Y-13422079D02*
X13293991Y-13403031D01*
X13293991Y-13403031D02*
X13303515Y-13393508D01*
X13303515Y-13393508D02*
X13322562Y-13383984D01*
X13513039Y-13383984D02*
X13532086Y-13383984D01*
X13532086Y-13383984D02*
X13551134Y-13393508D01*
X13551134Y-13393508D02*
X13560658Y-13403031D01*
X13560658Y-13403031D02*
X13570182Y-13422079D01*
X13570182Y-13422079D02*
X13579705Y-13460174D01*
X13579705Y-13460174D02*
X13579705Y-13507793D01*
X13579705Y-13507793D02*
X13570182Y-13545888D01*
X13570182Y-13545888D02*
X13560658Y-13564936D01*
X13560658Y-13564936D02*
X13551134Y-13574460D01*
X13551134Y-13574460D02*
X13532086Y-13583984D01*
X13532086Y-13583984D02*
X13513039Y-13583984D01*
X13513039Y-13583984D02*
X13493991Y-13574460D01*
X13493991Y-13574460D02*
X13484467Y-13564936D01*
X13484467Y-13564936D02*
X13474943Y-13545888D01*
X13474943Y-13545888D02*
X13465420Y-13507793D01*
X13465420Y-13507793D02*
X13465420Y-13460174D01*
X13465420Y-13460174D02*
X13474943Y-13422079D01*
X13474943Y-13422079D02*
X13484467Y-13403031D01*
X13484467Y-13403031D02*
X13493991Y-13393508D01*
X13493991Y-13393508D02*
X13513039Y-13383984D01*
X13665420Y-13583984D02*
X13665420Y-13450650D01*
X13665420Y-13469698D02*
X13674943Y-13460174D01*
X13674943Y-13460174D02*
X13693991Y-13450650D01*
X13693991Y-13450650D02*
X13722563Y-13450650D01*
X13722563Y-13450650D02*
X13741610Y-13460174D01*
X13741610Y-13460174D02*
X13751134Y-13479222D01*
X13751134Y-13479222D02*
X13751134Y-13583984D01*
X13751134Y-13479222D02*
X13760658Y-13460174D01*
X13760658Y-13460174D02*
X13779705Y-13450650D01*
X13779705Y-13450650D02*
X13808277Y-13450650D01*
X13808277Y-13450650D02*
X13827324Y-13460174D01*
X13827324Y-13460174D02*
X13836848Y-13479222D01*
X13836848Y-13479222D02*
X13836848Y-13583984D01*
X13932086Y-13583984D02*
X13932086Y-13450650D01*
X13932086Y-13469698D02*
X13941610Y-13460174D01*
X13941610Y-13460174D02*
X13960658Y-13450650D01*
X13960658Y-13450650D02*
X13989229Y-13450650D01*
X13989229Y-13450650D02*
X14008277Y-13460174D01*
X14008277Y-13460174D02*
X14017801Y-13479222D01*
X14017801Y-13479222D02*
X14017801Y-13583984D01*
X14017801Y-13479222D02*
X14027324Y-13460174D01*
X14027324Y-13460174D02*
X14046372Y-13450650D01*
X14046372Y-13450650D02*
X14074943Y-13450650D01*
X14074943Y-13450650D02*
X14093991Y-13460174D01*
X14093991Y-13460174D02*
X14103515Y-13479222D01*
X14103515Y-13479222D02*
X14103515Y-13583984D01*
X14493991Y-13374460D02*
X14322563Y-13631603D01*
X14751134Y-13383984D02*
X14770182Y-13383984D01*
X14770182Y-13383984D02*
X14789229Y-13393508D01*
X14789229Y-13393508D02*
X14798753Y-13403031D01*
X14798753Y-13403031D02*
X14808277Y-13422079D01*
X14808277Y-13422079D02*
X14817801Y-13460174D01*
X14817801Y-13460174D02*
X14817801Y-13507793D01*
X14817801Y-13507793D02*
X14808277Y-13545888D01*
X14808277Y-13545888D02*
X14798753Y-13564936D01*
X14798753Y-13564936D02*
X14789229Y-13574460D01*
X14789229Y-13574460D02*
X14770182Y-13583984D01*
X14770182Y-13583984D02*
X14751134Y-13583984D01*
X14751134Y-13583984D02*
X14732086Y-13574460D01*
X14732086Y-13574460D02*
X14722563Y-13564936D01*
X14722563Y-13564936D02*
X14713039Y-13545888D01*
X14713039Y-13545888D02*
X14703515Y-13507793D01*
X14703515Y-13507793D02*
X14703515Y-13460174D01*
X14703515Y-13460174D02*
X14713039Y-13422079D01*
X14713039Y-13422079D02*
X14722563Y-13403031D01*
X14722563Y-13403031D02*
X14732086Y-13393508D01*
X14732086Y-13393508D02*
X14751134Y-13383984D01*
X14903515Y-13564936D02*
X14913039Y-13574460D01*
X14913039Y-13574460D02*
X14903515Y-13583984D01*
X14903515Y-13583984D02*
X14893991Y-13574460D01*
X14893991Y-13574460D02*
X14903515Y-13564936D01*
X14903515Y-13564936D02*
X14903515Y-13583984D01*
X15036848Y-13383984D02*
X15055896Y-13383984D01*
X15055896Y-13383984D02*
X15074944Y-13393508D01*
X15074944Y-13393508D02*
X15084467Y-13403031D01*
X15084467Y-13403031D02*
X15093991Y-13422079D01*
X15093991Y-13422079D02*
X15103515Y-13460174D01*
X15103515Y-13460174D02*
X15103515Y-13507793D01*
X15103515Y-13507793D02*
X15093991Y-13545888D01*
X15093991Y-13545888D02*
X15084467Y-13564936D01*
X15084467Y-13564936D02*
X15074944Y-13574460D01*
X15074944Y-13574460D02*
X15055896Y-13583984D01*
X15055896Y-13583984D02*
X15036848Y-13583984D01*
X15036848Y-13583984D02*
X15017801Y-13574460D01*
X15017801Y-13574460D02*
X15008277Y-13564936D01*
X15008277Y-13564936D02*
X14998753Y-13545888D01*
X14998753Y-13545888D02*
X14989229Y-13507793D01*
X14989229Y-13507793D02*
X14989229Y-13460174D01*
X14989229Y-13460174D02*
X14998753Y-13422079D01*
X14998753Y-13422079D02*
X15008277Y-13403031D01*
X15008277Y-13403031D02*
X15017801Y-13393508D01*
X15017801Y-13393508D02*
X15036848Y-13383984D01*
X15227325Y-13383984D02*
X15246372Y-13383984D01*
X15246372Y-13383984D02*
X15265420Y-13393508D01*
X15265420Y-13393508D02*
X15274944Y-13403031D01*
X15274944Y-13403031D02*
X15284467Y-13422079D01*
X15284467Y-13422079D02*
X15293991Y-13460174D01*
X15293991Y-13460174D02*
X15293991Y-13507793D01*
X15293991Y-13507793D02*
X15284467Y-13545888D01*
X15284467Y-13545888D02*
X15274944Y-13564936D01*
X15274944Y-13564936D02*
X15265420Y-13574460D01*
X15265420Y-13574460D02*
X15246372Y-13583984D01*
X15246372Y-13583984D02*
X15227325Y-13583984D01*
X15227325Y-13583984D02*
X15208277Y-13574460D01*
X15208277Y-13574460D02*
X15198753Y-13564936D01*
X15198753Y-13564936D02*
X15189229Y-13545888D01*
X15189229Y-13545888D02*
X15179706Y-13507793D01*
X15179706Y-13507793D02*
X15179706Y-13460174D01*
X15179706Y-13460174D02*
X15189229Y-13422079D01*
X15189229Y-13422079D02*
X15198753Y-13403031D01*
X15198753Y-13403031D02*
X15208277Y-13393508D01*
X15208277Y-13393508D02*
X15227325Y-13383984D01*
X15360658Y-13383984D02*
X15493991Y-13383984D01*
X15493991Y-13383984D02*
X15408277Y-13583984D01*
X15579706Y-13583984D02*
X15617801Y-13583984D01*
X15617801Y-13583984D02*
X15636848Y-13574460D01*
X15636848Y-13574460D02*
X15646372Y-13564936D01*
X15646372Y-13564936D02*
X15665420Y-13536365D01*
X15665420Y-13536365D02*
X15674944Y-13498269D01*
X15674944Y-13498269D02*
X15674944Y-13422079D01*
X15674944Y-13422079D02*
X15665420Y-13403031D01*
X15665420Y-13403031D02*
X15655896Y-13393508D01*
X15655896Y-13393508D02*
X15636848Y-13383984D01*
X15636848Y-13383984D02*
X15598753Y-13383984D01*
X15598753Y-13383984D02*
X15579706Y-13393508D01*
X15579706Y-13393508D02*
X15570182Y-13403031D01*
X15570182Y-13403031D02*
X15560658Y-13422079D01*
X15560658Y-13422079D02*
X15560658Y-13469698D01*
X15560658Y-13469698D02*
X15570182Y-13488746D01*
X15570182Y-13488746D02*
X15579706Y-13498269D01*
X15579706Y-13498269D02*
X15598753Y-13507793D01*
X15598753Y-13507793D02*
X15636848Y-13507793D01*
X15636848Y-13507793D02*
X15655896Y-13498269D01*
X15655896Y-13498269D02*
X15665420Y-13488746D01*
X15665420Y-13488746D02*
X15674944Y-13469698D01*
X15751134Y-13383984D02*
X15751134Y-13422079D01*
X15827325Y-13383984D02*
X15827325Y-13422079D01*
X16122563Y-13660174D02*
X16113039Y-13650650D01*
X16113039Y-13650650D02*
X16093991Y-13622079D01*
X16093991Y-13622079D02*
X16084468Y-13603031D01*
X16084468Y-13603031D02*
X16074944Y-13574460D01*
X16074944Y-13574460D02*
X16065420Y-13526841D01*
X16065420Y-13526841D02*
X16065420Y-13488746D01*
X16065420Y-13488746D02*
X16074944Y-13441127D01*
X16074944Y-13441127D02*
X16084468Y-13412555D01*
X16084468Y-13412555D02*
X16093991Y-13393508D01*
X16093991Y-13393508D02*
X16113039Y-13364936D01*
X16113039Y-13364936D02*
X16122563Y-13355412D01*
X16189229Y-13403031D02*
X16198753Y-13393508D01*
X16198753Y-13393508D02*
X16217801Y-13383984D01*
X16217801Y-13383984D02*
X16265420Y-13383984D01*
X16265420Y-13383984D02*
X16284468Y-13393508D01*
X16284468Y-13393508D02*
X16293991Y-13403031D01*
X16293991Y-13403031D02*
X16303515Y-13422079D01*
X16303515Y-13422079D02*
X16303515Y-13441127D01*
X16303515Y-13441127D02*
X16293991Y-13469698D01*
X16293991Y-13469698D02*
X16179706Y-13583984D01*
X16179706Y-13583984D02*
X16303515Y-13583984D01*
X16484468Y-13383984D02*
X16389229Y-13383984D01*
X16389229Y-13383984D02*
X16379706Y-13479222D01*
X16379706Y-13479222D02*
X16389229Y-13469698D01*
X16389229Y-13469698D02*
X16408277Y-13460174D01*
X16408277Y-13460174D02*
X16455896Y-13460174D01*
X16455896Y-13460174D02*
X16474944Y-13469698D01*
X16474944Y-13469698D02*
X16484468Y-13479222D01*
X16484468Y-13479222D02*
X16493991Y-13498269D01*
X16493991Y-13498269D02*
X16493991Y-13545888D01*
X16493991Y-13545888D02*
X16484468Y-13564936D01*
X16484468Y-13564936D02*
X16474944Y-13574460D01*
X16474944Y-13574460D02*
X16455896Y-13583984D01*
X16455896Y-13583984D02*
X16408277Y-13583984D01*
X16408277Y-13583984D02*
X16389229Y-13574460D01*
X16389229Y-13574460D02*
X16379706Y-13564936D01*
X16732087Y-13583984D02*
X16732087Y-13383984D01*
X16817801Y-13583984D02*
X16817801Y-13479222D01*
X16817801Y-13479222D02*
X16808277Y-13460174D01*
X16808277Y-13460174D02*
X16789230Y-13450650D01*
X16789230Y-13450650D02*
X16760658Y-13450650D01*
X16760658Y-13450650D02*
X16741610Y-13460174D01*
X16741610Y-13460174D02*
X16732087Y-13469698D01*
X16941611Y-13583984D02*
X16922563Y-13574460D01*
X16922563Y-13574460D02*
X16913039Y-13564936D01*
X16913039Y-13564936D02*
X16903515Y-13545888D01*
X16903515Y-13545888D02*
X16903515Y-13488746D01*
X16903515Y-13488746D02*
X16913039Y-13469698D01*
X16913039Y-13469698D02*
X16922563Y-13460174D01*
X16922563Y-13460174D02*
X16941611Y-13450650D01*
X16941611Y-13450650D02*
X16970182Y-13450650D01*
X16970182Y-13450650D02*
X16989230Y-13460174D01*
X16989230Y-13460174D02*
X16998753Y-13469698D01*
X16998753Y-13469698D02*
X17008277Y-13488746D01*
X17008277Y-13488746D02*
X17008277Y-13545888D01*
X17008277Y-13545888D02*
X16998753Y-13564936D01*
X16998753Y-13564936D02*
X16989230Y-13574460D01*
X16989230Y-13574460D02*
X16970182Y-13583984D01*
X16970182Y-13583984D02*
X16941611Y-13583984D01*
X17122563Y-13583984D02*
X17103515Y-13574460D01*
X17103515Y-13574460D02*
X17093992Y-13555412D01*
X17093992Y-13555412D02*
X17093992Y-13383984D01*
X17274944Y-13574460D02*
X17255896Y-13583984D01*
X17255896Y-13583984D02*
X17217801Y-13583984D01*
X17217801Y-13583984D02*
X17198753Y-13574460D01*
X17198753Y-13574460D02*
X17189230Y-13555412D01*
X17189230Y-13555412D02*
X17189230Y-13479222D01*
X17189230Y-13479222D02*
X17198753Y-13460174D01*
X17198753Y-13460174D02*
X17217801Y-13450650D01*
X17217801Y-13450650D02*
X17255896Y-13450650D01*
X17255896Y-13450650D02*
X17274944Y-13460174D01*
X17274944Y-13460174D02*
X17284468Y-13479222D01*
X17284468Y-13479222D02*
X17284468Y-13498269D01*
X17284468Y-13498269D02*
X17189230Y-13517317D01*
X17360658Y-13574460D02*
X17379706Y-13583984D01*
X17379706Y-13583984D02*
X17417801Y-13583984D01*
X17417801Y-13583984D02*
X17436849Y-13574460D01*
X17436849Y-13574460D02*
X17446373Y-13555412D01*
X17446373Y-13555412D02*
X17446373Y-13545888D01*
X17446373Y-13545888D02*
X17436849Y-13526841D01*
X17436849Y-13526841D02*
X17417801Y-13517317D01*
X17417801Y-13517317D02*
X17389230Y-13517317D01*
X17389230Y-13517317D02*
X17370182Y-13507793D01*
X17370182Y-13507793D02*
X17360658Y-13488746D01*
X17360658Y-13488746D02*
X17360658Y-13479222D01*
X17360658Y-13479222D02*
X17370182Y-13460174D01*
X17370182Y-13460174D02*
X17389230Y-13450650D01*
X17389230Y-13450650D02*
X17417801Y-13450650D01*
X17417801Y-13450650D02*
X17436849Y-13460174D01*
X17513039Y-13660174D02*
X17522563Y-13650650D01*
X17522563Y-13650650D02*
X17541611Y-13622079D01*
X17541611Y-13622079D02*
X17551134Y-13603031D01*
X17551134Y-13603031D02*
X17560658Y-13574460D01*
X17560658Y-13574460D02*
X17570182Y-13526841D01*
X17570182Y-13526841D02*
X17570182Y-13488746D01*
X17570182Y-13488746D02*
X17560658Y-13441127D01*
X17560658Y-13441127D02*
X17551134Y-13412555D01*
X17551134Y-13412555D02*
X17541611Y-13393508D01*
X17541611Y-13393508D02*
X17522563Y-13364936D01*
X17522563Y-13364936D02*
X17513039Y-13355412D01*
D12*
X12547500Y-13756500D02*
G75*
G02*
X12517500Y-13756500I-15000J0D01*
G01*
X12517500Y-13756500D02*
G75*
G02*
X12547500Y-13756500I15000J0D01*
G01*
D11*
X12846372Y-13647984D02*
X12865420Y-13647984D01*
X12865420Y-13647984D02*
X12884467Y-13657508D01*
X12884467Y-13657508D02*
X12893991Y-13667031D01*
X12893991Y-13667031D02*
X12903515Y-13686079D01*
X12903515Y-13686079D02*
X12913039Y-13724174D01*
X12913039Y-13724174D02*
X12913039Y-13771793D01*
X12913039Y-13771793D02*
X12903515Y-13809888D01*
X12903515Y-13809888D02*
X12893991Y-13828936D01*
X12893991Y-13828936D02*
X12884467Y-13838460D01*
X12884467Y-13838460D02*
X12865420Y-13847984D01*
X12865420Y-13847984D02*
X12846372Y-13847984D01*
X12846372Y-13847984D02*
X12827324Y-13838460D01*
X12827324Y-13838460D02*
X12817801Y-13828936D01*
X12817801Y-13828936D02*
X12808277Y-13809888D01*
X12808277Y-13809888D02*
X12798753Y-13771793D01*
X12798753Y-13771793D02*
X12798753Y-13724174D01*
X12798753Y-13724174D02*
X12808277Y-13686079D01*
X12808277Y-13686079D02*
X12817801Y-13667031D01*
X12817801Y-13667031D02*
X12827324Y-13657508D01*
X12827324Y-13657508D02*
X12846372Y-13647984D01*
X12998753Y-13828936D02*
X13008277Y-13838460D01*
X13008277Y-13838460D02*
X12998753Y-13847984D01*
X12998753Y-13847984D02*
X12989229Y-13838460D01*
X12989229Y-13838460D02*
X12998753Y-13828936D01*
X12998753Y-13828936D02*
X12998753Y-13847984D01*
X13074943Y-13647984D02*
X13198753Y-13647984D01*
X13198753Y-13647984D02*
X13132086Y-13724174D01*
X13132086Y-13724174D02*
X13160658Y-13724174D01*
X13160658Y-13724174D02*
X13179705Y-13733698D01*
X13179705Y-13733698D02*
X13189229Y-13743222D01*
X13189229Y-13743222D02*
X13198753Y-13762269D01*
X13198753Y-13762269D02*
X13198753Y-13809888D01*
X13198753Y-13809888D02*
X13189229Y-13828936D01*
X13189229Y-13828936D02*
X13179705Y-13838460D01*
X13179705Y-13838460D02*
X13160658Y-13847984D01*
X13160658Y-13847984D02*
X13103515Y-13847984D01*
X13103515Y-13847984D02*
X13084467Y-13838460D01*
X13084467Y-13838460D02*
X13074943Y-13828936D01*
X13322562Y-13647984D02*
X13341610Y-13647984D01*
X13341610Y-13647984D02*
X13360658Y-13657508D01*
X13360658Y-13657508D02*
X13370182Y-13667031D01*
X13370182Y-13667031D02*
X13379705Y-13686079D01*
X13379705Y-13686079D02*
X13389229Y-13724174D01*
X13389229Y-13724174D02*
X13389229Y-13771793D01*
X13389229Y-13771793D02*
X13379705Y-13809888D01*
X13379705Y-13809888D02*
X13370182Y-13828936D01*
X13370182Y-13828936D02*
X13360658Y-13838460D01*
X13360658Y-13838460D02*
X13341610Y-13847984D01*
X13341610Y-13847984D02*
X13322562Y-13847984D01*
X13322562Y-13847984D02*
X13303515Y-13838460D01*
X13303515Y-13838460D02*
X13293991Y-13828936D01*
X13293991Y-13828936D02*
X13284467Y-13809888D01*
X13284467Y-13809888D02*
X13274943Y-13771793D01*
X13274943Y-13771793D02*
X13274943Y-13724174D01*
X13274943Y-13724174D02*
X13284467Y-13686079D01*
X13284467Y-13686079D02*
X13293991Y-13667031D01*
X13293991Y-13667031D02*
X13303515Y-13657508D01*
X13303515Y-13657508D02*
X13322562Y-13647984D01*
X13513039Y-13647984D02*
X13532086Y-13647984D01*
X13532086Y-13647984D02*
X13551134Y-13657508D01*
X13551134Y-13657508D02*
X13560658Y-13667031D01*
X13560658Y-13667031D02*
X13570182Y-13686079D01*
X13570182Y-13686079D02*
X13579705Y-13724174D01*
X13579705Y-13724174D02*
X13579705Y-13771793D01*
X13579705Y-13771793D02*
X13570182Y-13809888D01*
X13570182Y-13809888D02*
X13560658Y-13828936D01*
X13560658Y-13828936D02*
X13551134Y-13838460D01*
X13551134Y-13838460D02*
X13532086Y-13847984D01*
X13532086Y-13847984D02*
X13513039Y-13847984D01*
X13513039Y-13847984D02*
X13493991Y-13838460D01*
X13493991Y-13838460D02*
X13484467Y-13828936D01*
X13484467Y-13828936D02*
X13474943Y-13809888D01*
X13474943Y-13809888D02*
X13465420Y-13771793D01*
X13465420Y-13771793D02*
X13465420Y-13724174D01*
X13465420Y-13724174D02*
X13474943Y-13686079D01*
X13474943Y-13686079D02*
X13484467Y-13667031D01*
X13484467Y-13667031D02*
X13493991Y-13657508D01*
X13493991Y-13657508D02*
X13513039Y-13647984D01*
X13665420Y-13847984D02*
X13665420Y-13714650D01*
X13665420Y-13733698D02*
X13674943Y-13724174D01*
X13674943Y-13724174D02*
X13693991Y-13714650D01*
X13693991Y-13714650D02*
X13722563Y-13714650D01*
X13722563Y-13714650D02*
X13741610Y-13724174D01*
X13741610Y-13724174D02*
X13751134Y-13743222D01*
X13751134Y-13743222D02*
X13751134Y-13847984D01*
X13751134Y-13743222D02*
X13760658Y-13724174D01*
X13760658Y-13724174D02*
X13779705Y-13714650D01*
X13779705Y-13714650D02*
X13808277Y-13714650D01*
X13808277Y-13714650D02*
X13827324Y-13724174D01*
X13827324Y-13724174D02*
X13836848Y-13743222D01*
X13836848Y-13743222D02*
X13836848Y-13847984D01*
X13932086Y-13847984D02*
X13932086Y-13714650D01*
X13932086Y-13733698D02*
X13941610Y-13724174D01*
X13941610Y-13724174D02*
X13960658Y-13714650D01*
X13960658Y-13714650D02*
X13989229Y-13714650D01*
X13989229Y-13714650D02*
X14008277Y-13724174D01*
X14008277Y-13724174D02*
X14017801Y-13743222D01*
X14017801Y-13743222D02*
X14017801Y-13847984D01*
X14017801Y-13743222D02*
X14027324Y-13724174D01*
X14027324Y-13724174D02*
X14046372Y-13714650D01*
X14046372Y-13714650D02*
X14074943Y-13714650D01*
X14074943Y-13714650D02*
X14093991Y-13724174D01*
X14093991Y-13724174D02*
X14103515Y-13743222D01*
X14103515Y-13743222D02*
X14103515Y-13847984D01*
X14493991Y-13638460D02*
X14322563Y-13895603D01*
X14751134Y-13647984D02*
X14770182Y-13647984D01*
X14770182Y-13647984D02*
X14789229Y-13657508D01*
X14789229Y-13657508D02*
X14798753Y-13667031D01*
X14798753Y-13667031D02*
X14808277Y-13686079D01*
X14808277Y-13686079D02*
X14817801Y-13724174D01*
X14817801Y-13724174D02*
X14817801Y-13771793D01*
X14817801Y-13771793D02*
X14808277Y-13809888D01*
X14808277Y-13809888D02*
X14798753Y-13828936D01*
X14798753Y-13828936D02*
X14789229Y-13838460D01*
X14789229Y-13838460D02*
X14770182Y-13847984D01*
X14770182Y-13847984D02*
X14751134Y-13847984D01*
X14751134Y-13847984D02*
X14732086Y-13838460D01*
X14732086Y-13838460D02*
X14722563Y-13828936D01*
X14722563Y-13828936D02*
X14713039Y-13809888D01*
X14713039Y-13809888D02*
X14703515Y-13771793D01*
X14703515Y-13771793D02*
X14703515Y-13724174D01*
X14703515Y-13724174D02*
X14713039Y-13686079D01*
X14713039Y-13686079D02*
X14722563Y-13667031D01*
X14722563Y-13667031D02*
X14732086Y-13657508D01*
X14732086Y-13657508D02*
X14751134Y-13647984D01*
X14903515Y-13828936D02*
X14913039Y-13838460D01*
X14913039Y-13838460D02*
X14903515Y-13847984D01*
X14903515Y-13847984D02*
X14893991Y-13838460D01*
X14893991Y-13838460D02*
X14903515Y-13828936D01*
X14903515Y-13828936D02*
X14903515Y-13847984D01*
X15036848Y-13647984D02*
X15055896Y-13647984D01*
X15055896Y-13647984D02*
X15074944Y-13657508D01*
X15074944Y-13657508D02*
X15084467Y-13667031D01*
X15084467Y-13667031D02*
X15093991Y-13686079D01*
X15093991Y-13686079D02*
X15103515Y-13724174D01*
X15103515Y-13724174D02*
X15103515Y-13771793D01*
X15103515Y-13771793D02*
X15093991Y-13809888D01*
X15093991Y-13809888D02*
X15084467Y-13828936D01*
X15084467Y-13828936D02*
X15074944Y-13838460D01*
X15074944Y-13838460D02*
X15055896Y-13847984D01*
X15055896Y-13847984D02*
X15036848Y-13847984D01*
X15036848Y-13847984D02*
X15017801Y-13838460D01*
X15017801Y-13838460D02*
X15008277Y-13828936D01*
X15008277Y-13828936D02*
X14998753Y-13809888D01*
X14998753Y-13809888D02*
X14989229Y-13771793D01*
X14989229Y-13771793D02*
X14989229Y-13724174D01*
X14989229Y-13724174D02*
X14998753Y-13686079D01*
X14998753Y-13686079D02*
X15008277Y-13667031D01*
X15008277Y-13667031D02*
X15017801Y-13657508D01*
X15017801Y-13657508D02*
X15036848Y-13647984D01*
X15293991Y-13847984D02*
X15179706Y-13847984D01*
X15236848Y-13847984D02*
X15236848Y-13647984D01*
X15236848Y-13647984D02*
X15217801Y-13676555D01*
X15217801Y-13676555D02*
X15198753Y-13695603D01*
X15198753Y-13695603D02*
X15179706Y-13705127D01*
X15484467Y-13847984D02*
X15370182Y-13847984D01*
X15427325Y-13847984D02*
X15427325Y-13647984D01*
X15427325Y-13647984D02*
X15408277Y-13676555D01*
X15408277Y-13676555D02*
X15389229Y-13695603D01*
X15389229Y-13695603D02*
X15370182Y-13705127D01*
X15598753Y-13733698D02*
X15579706Y-13724174D01*
X15579706Y-13724174D02*
X15570182Y-13714650D01*
X15570182Y-13714650D02*
X15560658Y-13695603D01*
X15560658Y-13695603D02*
X15560658Y-13686079D01*
X15560658Y-13686079D02*
X15570182Y-13667031D01*
X15570182Y-13667031D02*
X15579706Y-13657508D01*
X15579706Y-13657508D02*
X15598753Y-13647984D01*
X15598753Y-13647984D02*
X15636848Y-13647984D01*
X15636848Y-13647984D02*
X15655896Y-13657508D01*
X15655896Y-13657508D02*
X15665420Y-13667031D01*
X15665420Y-13667031D02*
X15674944Y-13686079D01*
X15674944Y-13686079D02*
X15674944Y-13695603D01*
X15674944Y-13695603D02*
X15665420Y-13714650D01*
X15665420Y-13714650D02*
X15655896Y-13724174D01*
X15655896Y-13724174D02*
X15636848Y-13733698D01*
X15636848Y-13733698D02*
X15598753Y-13733698D01*
X15598753Y-13733698D02*
X15579706Y-13743222D01*
X15579706Y-13743222D02*
X15570182Y-13752746D01*
X15570182Y-13752746D02*
X15560658Y-13771793D01*
X15560658Y-13771793D02*
X15560658Y-13809888D01*
X15560658Y-13809888D02*
X15570182Y-13828936D01*
X15570182Y-13828936D02*
X15579706Y-13838460D01*
X15579706Y-13838460D02*
X15598753Y-13847984D01*
X15598753Y-13847984D02*
X15636848Y-13847984D01*
X15636848Y-13847984D02*
X15655896Y-13838460D01*
X15655896Y-13838460D02*
X15665420Y-13828936D01*
X15665420Y-13828936D02*
X15674944Y-13809888D01*
X15674944Y-13809888D02*
X15674944Y-13771793D01*
X15674944Y-13771793D02*
X15665420Y-13752746D01*
X15665420Y-13752746D02*
X15655896Y-13743222D01*
X15655896Y-13743222D02*
X15636848Y-13733698D01*
X15751134Y-13647984D02*
X15751134Y-13686079D01*
X15827325Y-13647984D02*
X15827325Y-13686079D01*
X16122563Y-13924174D02*
X16113039Y-13914650D01*
X16113039Y-13914650D02*
X16093991Y-13886079D01*
X16093991Y-13886079D02*
X16084468Y-13867031D01*
X16084468Y-13867031D02*
X16074944Y-13838460D01*
X16074944Y-13838460D02*
X16065420Y-13790841D01*
X16065420Y-13790841D02*
X16065420Y-13752746D01*
X16065420Y-13752746D02*
X16074944Y-13705127D01*
X16074944Y-13705127D02*
X16084468Y-13676555D01*
X16084468Y-13676555D02*
X16093991Y-13657508D01*
X16093991Y-13657508D02*
X16113039Y-13628936D01*
X16113039Y-13628936D02*
X16122563Y-13619412D01*
X16208277Y-13847984D02*
X16246372Y-13847984D01*
X16246372Y-13847984D02*
X16265420Y-13838460D01*
X16265420Y-13838460D02*
X16274944Y-13828936D01*
X16274944Y-13828936D02*
X16293991Y-13800365D01*
X16293991Y-13800365D02*
X16303515Y-13762269D01*
X16303515Y-13762269D02*
X16303515Y-13686079D01*
X16303515Y-13686079D02*
X16293991Y-13667031D01*
X16293991Y-13667031D02*
X16284468Y-13657508D01*
X16284468Y-13657508D02*
X16265420Y-13647984D01*
X16265420Y-13647984D02*
X16227325Y-13647984D01*
X16227325Y-13647984D02*
X16208277Y-13657508D01*
X16208277Y-13657508D02*
X16198753Y-13667031D01*
X16198753Y-13667031D02*
X16189229Y-13686079D01*
X16189229Y-13686079D02*
X16189229Y-13733698D01*
X16189229Y-13733698D02*
X16198753Y-13752746D01*
X16198753Y-13752746D02*
X16208277Y-13762269D01*
X16208277Y-13762269D02*
X16227325Y-13771793D01*
X16227325Y-13771793D02*
X16265420Y-13771793D01*
X16265420Y-13771793D02*
X16284468Y-13762269D01*
X16284468Y-13762269D02*
X16293991Y-13752746D01*
X16293991Y-13752746D02*
X16303515Y-13733698D01*
X16493991Y-13847984D02*
X16379706Y-13847984D01*
X16436848Y-13847984D02*
X16436848Y-13647984D01*
X16436848Y-13647984D02*
X16417801Y-13676555D01*
X16417801Y-13676555D02*
X16398753Y-13695603D01*
X16398753Y-13695603D02*
X16379706Y-13705127D01*
X16674944Y-13647984D02*
X16579706Y-13647984D01*
X16579706Y-13647984D02*
X16570182Y-13743222D01*
X16570182Y-13743222D02*
X16579706Y-13733698D01*
X16579706Y-13733698D02*
X16598753Y-13724174D01*
X16598753Y-13724174D02*
X16646372Y-13724174D01*
X16646372Y-13724174D02*
X16665420Y-13733698D01*
X16665420Y-13733698D02*
X16674944Y-13743222D01*
X16674944Y-13743222D02*
X16684468Y-13762269D01*
X16684468Y-13762269D02*
X16684468Y-13809888D01*
X16684468Y-13809888D02*
X16674944Y-13828936D01*
X16674944Y-13828936D02*
X16665420Y-13838460D01*
X16665420Y-13838460D02*
X16646372Y-13847984D01*
X16646372Y-13847984D02*
X16598753Y-13847984D01*
X16598753Y-13847984D02*
X16579706Y-13838460D01*
X16579706Y-13838460D02*
X16570182Y-13828936D01*
X16922563Y-13847984D02*
X16922563Y-13647984D01*
X17008277Y-13847984D02*
X17008277Y-13743222D01*
X17008277Y-13743222D02*
X16998753Y-13724174D01*
X16998753Y-13724174D02*
X16979706Y-13714650D01*
X16979706Y-13714650D02*
X16951134Y-13714650D01*
X16951134Y-13714650D02*
X16932087Y-13724174D01*
X16932087Y-13724174D02*
X16922563Y-13733698D01*
X17132087Y-13847984D02*
X17113039Y-13838460D01*
X17113039Y-13838460D02*
X17103515Y-13828936D01*
X17103515Y-13828936D02*
X17093992Y-13809888D01*
X17093992Y-13809888D02*
X17093992Y-13752746D01*
X17093992Y-13752746D02*
X17103515Y-13733698D01*
X17103515Y-13733698D02*
X17113039Y-13724174D01*
X17113039Y-13724174D02*
X17132087Y-13714650D01*
X17132087Y-13714650D02*
X17160658Y-13714650D01*
X17160658Y-13714650D02*
X17179706Y-13724174D01*
X17179706Y-13724174D02*
X17189230Y-13733698D01*
X17189230Y-13733698D02*
X17198753Y-13752746D01*
X17198753Y-13752746D02*
X17198753Y-13809888D01*
X17198753Y-13809888D02*
X17189230Y-13828936D01*
X17189230Y-13828936D02*
X17179706Y-13838460D01*
X17179706Y-13838460D02*
X17160658Y-13847984D01*
X17160658Y-13847984D02*
X17132087Y-13847984D01*
X17313039Y-13847984D02*
X17293992Y-13838460D01*
X17293992Y-13838460D02*
X17284468Y-13819412D01*
X17284468Y-13819412D02*
X17284468Y-13647984D01*
X17465420Y-13838460D02*
X17446373Y-13847984D01*
X17446373Y-13847984D02*
X17408277Y-13847984D01*
X17408277Y-13847984D02*
X17389230Y-13838460D01*
X17389230Y-13838460D02*
X17379706Y-13819412D01*
X17379706Y-13819412D02*
X17379706Y-13743222D01*
X17379706Y-13743222D02*
X17389230Y-13724174D01*
X17389230Y-13724174D02*
X17408277Y-13714650D01*
X17408277Y-13714650D02*
X17446373Y-13714650D01*
X17446373Y-13714650D02*
X17465420Y-13724174D01*
X17465420Y-13724174D02*
X17474944Y-13743222D01*
X17474944Y-13743222D02*
X17474944Y-13762269D01*
X17474944Y-13762269D02*
X17379706Y-13781317D01*
X17551134Y-13838460D02*
X17570182Y-13847984D01*
X17570182Y-13847984D02*
X17608277Y-13847984D01*
X17608277Y-13847984D02*
X17627325Y-13838460D01*
X17627325Y-13838460D02*
X17636849Y-13819412D01*
X17636849Y-13819412D02*
X17636849Y-13809888D01*
X17636849Y-13809888D02*
X17627325Y-13790841D01*
X17627325Y-13790841D02*
X17608277Y-13781317D01*
X17608277Y-13781317D02*
X17579706Y-13781317D01*
X17579706Y-13781317D02*
X17560658Y-13771793D01*
X17560658Y-13771793D02*
X17551134Y-13752746D01*
X17551134Y-13752746D02*
X17551134Y-13743222D01*
X17551134Y-13743222D02*
X17560658Y-13724174D01*
X17560658Y-13724174D02*
X17579706Y-13714650D01*
X17579706Y-13714650D02*
X17608277Y-13714650D01*
X17608277Y-13714650D02*
X17627325Y-13724174D01*
X17703515Y-13924174D02*
X17713039Y-13914650D01*
X17713039Y-13914650D02*
X17732087Y-13886079D01*
X17732087Y-13886079D02*
X17741611Y-13867031D01*
X17741611Y-13867031D02*
X17751134Y-13838460D01*
X17751134Y-13838460D02*
X17760658Y-13790841D01*
X17760658Y-13790841D02*
X17760658Y-13752746D01*
X17760658Y-13752746D02*
X17751134Y-13705127D01*
X17751134Y-13705127D02*
X17741611Y-13676555D01*
X17741611Y-13676555D02*
X17732087Y-13657508D01*
X17732087Y-13657508D02*
X17713039Y-13628936D01*
X17713039Y-13628936D02*
X17703515Y-13619412D01*
D12*
X12532500Y-14005500D02*
X12532500Y-14035500D01*
X12517500Y-14020500D02*
X12547500Y-14020500D01*
D11*
X12846372Y-13911984D02*
X12865420Y-13911984D01*
X12865420Y-13911984D02*
X12884467Y-13921508D01*
X12884467Y-13921508D02*
X12893991Y-13931031D01*
X12893991Y-13931031D02*
X12903515Y-13950079D01*
X12903515Y-13950079D02*
X12913039Y-13988174D01*
X12913039Y-13988174D02*
X12913039Y-14035793D01*
X12913039Y-14035793D02*
X12903515Y-14073888D01*
X12903515Y-14073888D02*
X12893991Y-14092936D01*
X12893991Y-14092936D02*
X12884467Y-14102460D01*
X12884467Y-14102460D02*
X12865420Y-14111984D01*
X12865420Y-14111984D02*
X12846372Y-14111984D01*
X12846372Y-14111984D02*
X12827324Y-14102460D01*
X12827324Y-14102460D02*
X12817801Y-14092936D01*
X12817801Y-14092936D02*
X12808277Y-14073888D01*
X12808277Y-14073888D02*
X12798753Y-14035793D01*
X12798753Y-14035793D02*
X12798753Y-13988174D01*
X12798753Y-13988174D02*
X12808277Y-13950079D01*
X12808277Y-13950079D02*
X12817801Y-13931031D01*
X12817801Y-13931031D02*
X12827324Y-13921508D01*
X12827324Y-13921508D02*
X12846372Y-13911984D01*
X12998753Y-14092936D02*
X13008277Y-14102460D01*
X13008277Y-14102460D02*
X12998753Y-14111984D01*
X12998753Y-14111984D02*
X12989229Y-14102460D01*
X12989229Y-14102460D02*
X12998753Y-14092936D01*
X12998753Y-14092936D02*
X12998753Y-14111984D01*
X13074943Y-13911984D02*
X13198753Y-13911984D01*
X13198753Y-13911984D02*
X13132086Y-13988174D01*
X13132086Y-13988174D02*
X13160658Y-13988174D01*
X13160658Y-13988174D02*
X13179705Y-13997698D01*
X13179705Y-13997698D02*
X13189229Y-14007222D01*
X13189229Y-14007222D02*
X13198753Y-14026269D01*
X13198753Y-14026269D02*
X13198753Y-14073888D01*
X13198753Y-14073888D02*
X13189229Y-14092936D01*
X13189229Y-14092936D02*
X13179705Y-14102460D01*
X13179705Y-14102460D02*
X13160658Y-14111984D01*
X13160658Y-14111984D02*
X13103515Y-14111984D01*
X13103515Y-14111984D02*
X13084467Y-14102460D01*
X13084467Y-14102460D02*
X13074943Y-14092936D01*
X13322562Y-13911984D02*
X13341610Y-13911984D01*
X13341610Y-13911984D02*
X13360658Y-13921508D01*
X13360658Y-13921508D02*
X13370182Y-13931031D01*
X13370182Y-13931031D02*
X13379705Y-13950079D01*
X13379705Y-13950079D02*
X13389229Y-13988174D01*
X13389229Y-13988174D02*
X13389229Y-14035793D01*
X13389229Y-14035793D02*
X13379705Y-14073888D01*
X13379705Y-14073888D02*
X13370182Y-14092936D01*
X13370182Y-14092936D02*
X13360658Y-14102460D01*
X13360658Y-14102460D02*
X13341610Y-14111984D01*
X13341610Y-14111984D02*
X13322562Y-14111984D01*
X13322562Y-14111984D02*
X13303515Y-14102460D01*
X13303515Y-14102460D02*
X13293991Y-14092936D01*
X13293991Y-14092936D02*
X13284467Y-14073888D01*
X13284467Y-14073888D02*
X13274943Y-14035793D01*
X13274943Y-14035793D02*
X13274943Y-13988174D01*
X13274943Y-13988174D02*
X13284467Y-13950079D01*
X13284467Y-13950079D02*
X13293991Y-13931031D01*
X13293991Y-13931031D02*
X13303515Y-13921508D01*
X13303515Y-13921508D02*
X13322562Y-13911984D01*
X13513039Y-13911984D02*
X13532086Y-13911984D01*
X13532086Y-13911984D02*
X13551134Y-13921508D01*
X13551134Y-13921508D02*
X13560658Y-13931031D01*
X13560658Y-13931031D02*
X13570182Y-13950079D01*
X13570182Y-13950079D02*
X13579705Y-13988174D01*
X13579705Y-13988174D02*
X13579705Y-14035793D01*
X13579705Y-14035793D02*
X13570182Y-14073888D01*
X13570182Y-14073888D02*
X13560658Y-14092936D01*
X13560658Y-14092936D02*
X13551134Y-14102460D01*
X13551134Y-14102460D02*
X13532086Y-14111984D01*
X13532086Y-14111984D02*
X13513039Y-14111984D01*
X13513039Y-14111984D02*
X13493991Y-14102460D01*
X13493991Y-14102460D02*
X13484467Y-14092936D01*
X13484467Y-14092936D02*
X13474943Y-14073888D01*
X13474943Y-14073888D02*
X13465420Y-14035793D01*
X13465420Y-14035793D02*
X13465420Y-13988174D01*
X13465420Y-13988174D02*
X13474943Y-13950079D01*
X13474943Y-13950079D02*
X13484467Y-13931031D01*
X13484467Y-13931031D02*
X13493991Y-13921508D01*
X13493991Y-13921508D02*
X13513039Y-13911984D01*
X13665420Y-14111984D02*
X13665420Y-13978650D01*
X13665420Y-13997698D02*
X13674943Y-13988174D01*
X13674943Y-13988174D02*
X13693991Y-13978650D01*
X13693991Y-13978650D02*
X13722563Y-13978650D01*
X13722563Y-13978650D02*
X13741610Y-13988174D01*
X13741610Y-13988174D02*
X13751134Y-14007222D01*
X13751134Y-14007222D02*
X13751134Y-14111984D01*
X13751134Y-14007222D02*
X13760658Y-13988174D01*
X13760658Y-13988174D02*
X13779705Y-13978650D01*
X13779705Y-13978650D02*
X13808277Y-13978650D01*
X13808277Y-13978650D02*
X13827324Y-13988174D01*
X13827324Y-13988174D02*
X13836848Y-14007222D01*
X13836848Y-14007222D02*
X13836848Y-14111984D01*
X13932086Y-14111984D02*
X13932086Y-13978650D01*
X13932086Y-13997698D02*
X13941610Y-13988174D01*
X13941610Y-13988174D02*
X13960658Y-13978650D01*
X13960658Y-13978650D02*
X13989229Y-13978650D01*
X13989229Y-13978650D02*
X14008277Y-13988174D01*
X14008277Y-13988174D02*
X14017801Y-14007222D01*
X14017801Y-14007222D02*
X14017801Y-14111984D01*
X14017801Y-14007222D02*
X14027324Y-13988174D01*
X14027324Y-13988174D02*
X14046372Y-13978650D01*
X14046372Y-13978650D02*
X14074943Y-13978650D01*
X14074943Y-13978650D02*
X14093991Y-13988174D01*
X14093991Y-13988174D02*
X14103515Y-14007222D01*
X14103515Y-14007222D02*
X14103515Y-14111984D01*
X14493991Y-13902460D02*
X14322563Y-14159603D01*
X14751134Y-13911984D02*
X14770182Y-13911984D01*
X14770182Y-13911984D02*
X14789229Y-13921508D01*
X14789229Y-13921508D02*
X14798753Y-13931031D01*
X14798753Y-13931031D02*
X14808277Y-13950079D01*
X14808277Y-13950079D02*
X14817801Y-13988174D01*
X14817801Y-13988174D02*
X14817801Y-14035793D01*
X14817801Y-14035793D02*
X14808277Y-14073888D01*
X14808277Y-14073888D02*
X14798753Y-14092936D01*
X14798753Y-14092936D02*
X14789229Y-14102460D01*
X14789229Y-14102460D02*
X14770182Y-14111984D01*
X14770182Y-14111984D02*
X14751134Y-14111984D01*
X14751134Y-14111984D02*
X14732086Y-14102460D01*
X14732086Y-14102460D02*
X14722563Y-14092936D01*
X14722563Y-14092936D02*
X14713039Y-14073888D01*
X14713039Y-14073888D02*
X14703515Y-14035793D01*
X14703515Y-14035793D02*
X14703515Y-13988174D01*
X14703515Y-13988174D02*
X14713039Y-13950079D01*
X14713039Y-13950079D02*
X14722563Y-13931031D01*
X14722563Y-13931031D02*
X14732086Y-13921508D01*
X14732086Y-13921508D02*
X14751134Y-13911984D01*
X14903515Y-14092936D02*
X14913039Y-14102460D01*
X14913039Y-14102460D02*
X14903515Y-14111984D01*
X14903515Y-14111984D02*
X14893991Y-14102460D01*
X14893991Y-14102460D02*
X14903515Y-14092936D01*
X14903515Y-14092936D02*
X14903515Y-14111984D01*
X15036848Y-13911984D02*
X15055896Y-13911984D01*
X15055896Y-13911984D02*
X15074944Y-13921508D01*
X15074944Y-13921508D02*
X15084467Y-13931031D01*
X15084467Y-13931031D02*
X15093991Y-13950079D01*
X15093991Y-13950079D02*
X15103515Y-13988174D01*
X15103515Y-13988174D02*
X15103515Y-14035793D01*
X15103515Y-14035793D02*
X15093991Y-14073888D01*
X15093991Y-14073888D02*
X15084467Y-14092936D01*
X15084467Y-14092936D02*
X15074944Y-14102460D01*
X15074944Y-14102460D02*
X15055896Y-14111984D01*
X15055896Y-14111984D02*
X15036848Y-14111984D01*
X15036848Y-14111984D02*
X15017801Y-14102460D01*
X15017801Y-14102460D02*
X15008277Y-14092936D01*
X15008277Y-14092936D02*
X14998753Y-14073888D01*
X14998753Y-14073888D02*
X14989229Y-14035793D01*
X14989229Y-14035793D02*
X14989229Y-13988174D01*
X14989229Y-13988174D02*
X14998753Y-13950079D01*
X14998753Y-13950079D02*
X15008277Y-13931031D01*
X15008277Y-13931031D02*
X15017801Y-13921508D01*
X15017801Y-13921508D02*
X15036848Y-13911984D01*
X15293991Y-14111984D02*
X15179706Y-14111984D01*
X15236848Y-14111984D02*
X15236848Y-13911984D01*
X15236848Y-13911984D02*
X15217801Y-13940555D01*
X15217801Y-13940555D02*
X15198753Y-13959603D01*
X15198753Y-13959603D02*
X15179706Y-13969127D01*
X15484467Y-14111984D02*
X15370182Y-14111984D01*
X15427325Y-14111984D02*
X15427325Y-13911984D01*
X15427325Y-13911984D02*
X15408277Y-13940555D01*
X15408277Y-13940555D02*
X15389229Y-13959603D01*
X15389229Y-13959603D02*
X15370182Y-13969127D01*
X15598753Y-13997698D02*
X15579706Y-13988174D01*
X15579706Y-13988174D02*
X15570182Y-13978650D01*
X15570182Y-13978650D02*
X15560658Y-13959603D01*
X15560658Y-13959603D02*
X15560658Y-13950079D01*
X15560658Y-13950079D02*
X15570182Y-13931031D01*
X15570182Y-13931031D02*
X15579706Y-13921508D01*
X15579706Y-13921508D02*
X15598753Y-13911984D01*
X15598753Y-13911984D02*
X15636848Y-13911984D01*
X15636848Y-13911984D02*
X15655896Y-13921508D01*
X15655896Y-13921508D02*
X15665420Y-13931031D01*
X15665420Y-13931031D02*
X15674944Y-13950079D01*
X15674944Y-13950079D02*
X15674944Y-13959603D01*
X15674944Y-13959603D02*
X15665420Y-13978650D01*
X15665420Y-13978650D02*
X15655896Y-13988174D01*
X15655896Y-13988174D02*
X15636848Y-13997698D01*
X15636848Y-13997698D02*
X15598753Y-13997698D01*
X15598753Y-13997698D02*
X15579706Y-14007222D01*
X15579706Y-14007222D02*
X15570182Y-14016746D01*
X15570182Y-14016746D02*
X15560658Y-14035793D01*
X15560658Y-14035793D02*
X15560658Y-14073888D01*
X15560658Y-14073888D02*
X15570182Y-14092936D01*
X15570182Y-14092936D02*
X15579706Y-14102460D01*
X15579706Y-14102460D02*
X15598753Y-14111984D01*
X15598753Y-14111984D02*
X15636848Y-14111984D01*
X15636848Y-14111984D02*
X15655896Y-14102460D01*
X15655896Y-14102460D02*
X15665420Y-14092936D01*
X15665420Y-14092936D02*
X15674944Y-14073888D01*
X15674944Y-14073888D02*
X15674944Y-14035793D01*
X15674944Y-14035793D02*
X15665420Y-14016746D01*
X15665420Y-14016746D02*
X15655896Y-14007222D01*
X15655896Y-14007222D02*
X15636848Y-13997698D01*
X15751134Y-13911984D02*
X15751134Y-13950079D01*
X15827325Y-13911984D02*
X15827325Y-13950079D01*
X16122563Y-14188174D02*
X16113039Y-14178650D01*
X16113039Y-14178650D02*
X16093991Y-14150079D01*
X16093991Y-14150079D02*
X16084468Y-14131031D01*
X16084468Y-14131031D02*
X16074944Y-14102460D01*
X16074944Y-14102460D02*
X16065420Y-14054841D01*
X16065420Y-14054841D02*
X16065420Y-14016746D01*
X16065420Y-14016746D02*
X16074944Y-13969127D01*
X16074944Y-13969127D02*
X16084468Y-13940555D01*
X16084468Y-13940555D02*
X16093991Y-13921508D01*
X16093991Y-13921508D02*
X16113039Y-13892936D01*
X16113039Y-13892936D02*
X16122563Y-13883412D01*
X16179706Y-13911984D02*
X16303515Y-13911984D01*
X16303515Y-13911984D02*
X16236848Y-13988174D01*
X16236848Y-13988174D02*
X16265420Y-13988174D01*
X16265420Y-13988174D02*
X16284468Y-13997698D01*
X16284468Y-13997698D02*
X16293991Y-14007222D01*
X16293991Y-14007222D02*
X16303515Y-14026269D01*
X16303515Y-14026269D02*
X16303515Y-14073888D01*
X16303515Y-14073888D02*
X16293991Y-14092936D01*
X16293991Y-14092936D02*
X16284468Y-14102460D01*
X16284468Y-14102460D02*
X16265420Y-14111984D01*
X16265420Y-14111984D02*
X16208277Y-14111984D01*
X16208277Y-14111984D02*
X16189229Y-14102460D01*
X16189229Y-14102460D02*
X16179706Y-14092936D01*
X16474944Y-13978650D02*
X16474944Y-14111984D01*
X16427325Y-13902460D02*
X16379706Y-14045317D01*
X16379706Y-14045317D02*
X16503515Y-14045317D01*
X16732087Y-14111984D02*
X16732087Y-13911984D01*
X16817801Y-14111984D02*
X16817801Y-14007222D01*
X16817801Y-14007222D02*
X16808277Y-13988174D01*
X16808277Y-13988174D02*
X16789230Y-13978650D01*
X16789230Y-13978650D02*
X16760658Y-13978650D01*
X16760658Y-13978650D02*
X16741610Y-13988174D01*
X16741610Y-13988174D02*
X16732087Y-13997698D01*
X16941611Y-14111984D02*
X16922563Y-14102460D01*
X16922563Y-14102460D02*
X16913039Y-14092936D01*
X16913039Y-14092936D02*
X16903515Y-14073888D01*
X16903515Y-14073888D02*
X16903515Y-14016746D01*
X16903515Y-14016746D02*
X16913039Y-13997698D01*
X16913039Y-13997698D02*
X16922563Y-13988174D01*
X16922563Y-13988174D02*
X16941611Y-13978650D01*
X16941611Y-13978650D02*
X16970182Y-13978650D01*
X16970182Y-13978650D02*
X16989230Y-13988174D01*
X16989230Y-13988174D02*
X16998753Y-13997698D01*
X16998753Y-13997698D02*
X17008277Y-14016746D01*
X17008277Y-14016746D02*
X17008277Y-14073888D01*
X17008277Y-14073888D02*
X16998753Y-14092936D01*
X16998753Y-14092936D02*
X16989230Y-14102460D01*
X16989230Y-14102460D02*
X16970182Y-14111984D01*
X16970182Y-14111984D02*
X16941611Y-14111984D01*
X17122563Y-14111984D02*
X17103515Y-14102460D01*
X17103515Y-14102460D02*
X17093992Y-14083412D01*
X17093992Y-14083412D02*
X17093992Y-13911984D01*
X17274944Y-14102460D02*
X17255896Y-14111984D01*
X17255896Y-14111984D02*
X17217801Y-14111984D01*
X17217801Y-14111984D02*
X17198753Y-14102460D01*
X17198753Y-14102460D02*
X17189230Y-14083412D01*
X17189230Y-14083412D02*
X17189230Y-14007222D01*
X17189230Y-14007222D02*
X17198753Y-13988174D01*
X17198753Y-13988174D02*
X17217801Y-13978650D01*
X17217801Y-13978650D02*
X17255896Y-13978650D01*
X17255896Y-13978650D02*
X17274944Y-13988174D01*
X17274944Y-13988174D02*
X17284468Y-14007222D01*
X17284468Y-14007222D02*
X17284468Y-14026269D01*
X17284468Y-14026269D02*
X17189230Y-14045317D01*
X17360658Y-14102460D02*
X17379706Y-14111984D01*
X17379706Y-14111984D02*
X17417801Y-14111984D01*
X17417801Y-14111984D02*
X17436849Y-14102460D01*
X17436849Y-14102460D02*
X17446373Y-14083412D01*
X17446373Y-14083412D02*
X17446373Y-14073888D01*
X17446373Y-14073888D02*
X17436849Y-14054841D01*
X17436849Y-14054841D02*
X17417801Y-14045317D01*
X17417801Y-14045317D02*
X17389230Y-14045317D01*
X17389230Y-14045317D02*
X17370182Y-14035793D01*
X17370182Y-14035793D02*
X17360658Y-14016746D01*
X17360658Y-14016746D02*
X17360658Y-14007222D01*
X17360658Y-14007222D02*
X17370182Y-13988174D01*
X17370182Y-13988174D02*
X17389230Y-13978650D01*
X17389230Y-13978650D02*
X17417801Y-13978650D01*
X17417801Y-13978650D02*
X17436849Y-13988174D01*
X17513039Y-14188174D02*
X17522563Y-14178650D01*
X17522563Y-14178650D02*
X17541611Y-14150079D01*
X17541611Y-14150079D02*
X17551134Y-14131031D01*
X17551134Y-14131031D02*
X17560658Y-14102460D01*
X17560658Y-14102460D02*
X17570182Y-14054841D01*
X17570182Y-14054841D02*
X17570182Y-14016746D01*
X17570182Y-14016746D02*
X17560658Y-13969127D01*
X17560658Y-13969127D02*
X17551134Y-13940555D01*
X17551134Y-13940555D02*
X17541611Y-13921508D01*
X17541611Y-13921508D02*
X17522563Y-13892936D01*
X17522563Y-13892936D02*
X17513039Y-13883412D01*
M02*
