%TF.GenerationSoftware,KiCad,Pcbnew,8.0.7*%
%TF.CreationDate,2025-05-16T22:33:49-04:00*%
%TF.ProjectId,protovolt,70726f74-6f76-46f6-9c74-2e6b69636164,rev?*%
%TF.SameCoordinates,Original*%
%TF.FileFunction,Drillmap*%
%TF.FilePolarity,Positive*%
%FSLAX45Y45*%
G04 Gerber Fmt 4.5, Leading zero omitted, Abs format (unit mm)*
G04 Created by KiCad (PCBNEW 8.0.7) date 2025-05-16 22:33:49*
%MOMM*%
%LPD*%
G01*
G04 APERTURE LIST*
%ADD10C,0.050000*%
%ADD11C,0.200000*%
G04 APERTURE END LIST*
D10*
X13550000Y-9600000D02*
X24000000Y-9600000D01*
X24000000Y-13900000D01*
X13550000Y-13900000D01*
X13550000Y-9600000D01*
D11*
X13808277Y-14213984D02*
X13808277Y-14013984D01*
X13808277Y-14013984D02*
X13855896Y-14013984D01*
X13855896Y-14013984D02*
X13884467Y-14023508D01*
X13884467Y-14023508D02*
X13903515Y-14042555D01*
X13903515Y-14042555D02*
X13913039Y-14061603D01*
X13913039Y-14061603D02*
X13922562Y-14099698D01*
X13922562Y-14099698D02*
X13922562Y-14128269D01*
X13922562Y-14128269D02*
X13913039Y-14166365D01*
X13913039Y-14166365D02*
X13903515Y-14185412D01*
X13903515Y-14185412D02*
X13884467Y-14204460D01*
X13884467Y-14204460D02*
X13855896Y-14213984D01*
X13855896Y-14213984D02*
X13808277Y-14213984D01*
X14008277Y-14213984D02*
X14008277Y-14080650D01*
X14008277Y-14118746D02*
X14017801Y-14099698D01*
X14017801Y-14099698D02*
X14027324Y-14090174D01*
X14027324Y-14090174D02*
X14046372Y-14080650D01*
X14046372Y-14080650D02*
X14065420Y-14080650D01*
X14132086Y-14213984D02*
X14132086Y-14080650D01*
X14132086Y-14013984D02*
X14122562Y-14023508D01*
X14122562Y-14023508D02*
X14132086Y-14033031D01*
X14132086Y-14033031D02*
X14141610Y-14023508D01*
X14141610Y-14023508D02*
X14132086Y-14013984D01*
X14132086Y-14013984D02*
X14132086Y-14033031D01*
X14255896Y-14213984D02*
X14236848Y-14204460D01*
X14236848Y-14204460D02*
X14227324Y-14185412D01*
X14227324Y-14185412D02*
X14227324Y-14013984D01*
X14360658Y-14213984D02*
X14341610Y-14204460D01*
X14341610Y-14204460D02*
X14332086Y-14185412D01*
X14332086Y-14185412D02*
X14332086Y-14013984D01*
X14589229Y-14213984D02*
X14589229Y-14013984D01*
X14589229Y-14013984D02*
X14655896Y-14156841D01*
X14655896Y-14156841D02*
X14722562Y-14013984D01*
X14722562Y-14013984D02*
X14722562Y-14213984D01*
X14903515Y-14213984D02*
X14903515Y-14109222D01*
X14903515Y-14109222D02*
X14893991Y-14090174D01*
X14893991Y-14090174D02*
X14874943Y-14080650D01*
X14874943Y-14080650D02*
X14836848Y-14080650D01*
X14836848Y-14080650D02*
X14817801Y-14090174D01*
X14903515Y-14204460D02*
X14884467Y-14213984D01*
X14884467Y-14213984D02*
X14836848Y-14213984D01*
X14836848Y-14213984D02*
X14817801Y-14204460D01*
X14817801Y-14204460D02*
X14808277Y-14185412D01*
X14808277Y-14185412D02*
X14808277Y-14166365D01*
X14808277Y-14166365D02*
X14817801Y-14147317D01*
X14817801Y-14147317D02*
X14836848Y-14137793D01*
X14836848Y-14137793D02*
X14884467Y-14137793D01*
X14884467Y-14137793D02*
X14903515Y-14128269D01*
X14998753Y-14080650D02*
X14998753Y-14280650D01*
X14998753Y-14090174D02*
X15017801Y-14080650D01*
X15017801Y-14080650D02*
X15055896Y-14080650D01*
X15055896Y-14080650D02*
X15074943Y-14090174D01*
X15074943Y-14090174D02*
X15084467Y-14099698D01*
X15084467Y-14099698D02*
X15093991Y-14118746D01*
X15093991Y-14118746D02*
X15093991Y-14175888D01*
X15093991Y-14175888D02*
X15084467Y-14194936D01*
X15084467Y-14194936D02*
X15074943Y-14204460D01*
X15074943Y-14204460D02*
X15055896Y-14213984D01*
X15055896Y-14213984D02*
X15017801Y-14213984D01*
X15017801Y-14213984D02*
X14998753Y-14204460D01*
X15179705Y-14194936D02*
X15189229Y-14204460D01*
X15189229Y-14204460D02*
X15179705Y-14213984D01*
X15179705Y-14213984D02*
X15170182Y-14204460D01*
X15170182Y-14204460D02*
X15179705Y-14194936D01*
X15179705Y-14194936D02*
X15179705Y-14213984D01*
X15179705Y-14090174D02*
X15189229Y-14099698D01*
X15189229Y-14099698D02*
X15179705Y-14109222D01*
X15179705Y-14109222D02*
X15170182Y-14099698D01*
X15170182Y-14099698D02*
X15179705Y-14090174D01*
X15179705Y-14090174D02*
X15179705Y-14109222D01*
M02*
